<svg version="1.2" xmlns="http://www.w3.org/2000/svg" viewBox="0 0 151 250" width="151" height="250">
	<title>0-svg</title>
	<defs>
		<clipPath clipPathUnits="userSpaceOnUse" id="cp1">
			<path d="m0.5 0.43h150v248.75h-150z"/>
		</clipPath>
		<clipPath clipPathUnits="userSpaceOnUse" id="cp2">
			<path d="m0.5 0.43h150v249h-150z"/>
		</clipPath>
		<clipPath clipPathUnits="userSpaceOnUse" id="cp3">
			<path d="m5.29 5.37h140.42v43.47h-140.42z"/>
		</clipPath>
		<clipPath clipPathUnits="userSpaceOnUse" id="cp4">
			<path d="m5.3 5.37h140.23v43.5h-140.23z"/>
		</clipPath>
		<clipPath clipPathUnits="userSpaceOnUse" id="cp5">
			<path d="m16.75 65.5h117.75v118.5h-117.75z"/>
		</clipPath>
		<clipPath clipPathUnits="userSpaceOnUse" id="cp6">
			<path d="m16.75 104h117.75v80h-117.75z"/>
		</clipPath>
		<clipPath clipPathUnits="userSpaceOnUse" id="cp7">
			<path d="m53 65.5h70v50.5h-70z"/>
		</clipPath>
	</defs>
	<style>
		.s0 { fill: #ffffff } 
		.s1 { fill: #cfe7d7 } 
		.s2 { fill: none;stroke: #000000;stroke-width: 6 } 
		.s3 { fill: #86c658 } 
		.s4 { fill: none;stroke: #000000;stroke-width: 1.5 } 
		.s5 { fill: #cfe7d7;stroke: #000000;stroke-width: 4.2 } 
		.s6 { fill: #c49a6c } 
		.s7 { fill: none;stroke: #231f20;stroke-miterlimit:10;stroke-width: 1.7 } 
		.s8 { fill: none;stroke: #231f20;stroke-miterlimit:10;stroke-width: .8 } 
		.s9 { fill: #39b54a } 
		.s10 { fill: #231f20 } 
		.s11 { fill: #000000 } 
	</style>
	<path id="Layer" class="s0" d="m-149.5-90.5h450v450h-450z"/>
	<path id="Layer" class="s0" d="m-149.5-90.5h450v450h-450z"/>
	<g id="Clip-Path" clip-path="url(#cp1)">
		<g id="Layer">
			<path id="Layer" class="s1" d="m0.5 0.4h150v248.8h-150z"/>
		</g>
	</g>
	<g id="Clip-Path" clip-path="url(#cp2)">
		<g id="Layer">
			<path id="Layer" fill-rule="evenodd" class="s2" d="m0.5 0.4h150v249h-150z"/>
		</g>
	</g>
	<g id="Clip-Path" clip-path="url(#cp3)">
		<g id="Layer">
			<path id="Layer" class="s3" d="m5.3 5.4h140.4v43.4h-140.4z"/>
		</g>
	</g>
	<g id="Clip-Path" clip-path="url(#cp4)">
		<g id="Layer">
			<path id="Layer" fill-rule="evenodd" class="s4" d="m5.3 5.4h140.2v43.5h-140.2z"/>
		</g>
	</g>
	<g id="Clip-Path" clip-path="url(#cp5)">
		<g id="Layer">
			<path id="Layer" class="s5" d="m-24.5-2.1h208v208h-208z"/>
		</g>
	</g>
	<path id="Layer" class="s6" d="m36.4 130.6c0 0 12.3-11.3 42.1 10.7 0 0 11.8 12.6 39.6 4.8v27.6l-81.7 1.9z"/>
	<g id="Clip-Path" clip-path="url(#cp6)">
		<g id="Layer">
			<path id="Layer" fill-rule="evenodd" class="s7" d="m36.4 130.6c0 0 12.3-11.3 42.1 10.7 0 0 11.8 12.6 39.6 4.8v27.6l-81.7 1.9z"/>
		</g>
	</g>
	<path id="Layer" fill-rule="evenodd" class="s7" d="m64 132.4v-61.3"/>
	<path id="Layer" fill-rule="evenodd" class="s8" d="m77 86.9h-13.2 13.5z"/>
	<path id="Layer" class="s9" d="m77.3 71.1v20.6l21.7-10.3z"/>
	<g id="Clip-Path" clip-path="url(#cp7)">
		<g id="Layer">
			<path id="Layer" fill-rule="evenodd" class="s7" d="m77.3 71.1v20.6l21.7-10.3z"/>
		</g>
	</g>
	<g id="Layer">
		<g id="Layer">
			<g id="Layer">
				<path id="Layer" class="s10" d="m52.6 19.8q-0.4-0.4-0.9-0.6-0.5-0.3-1.1-0.3-1 0-1.8 0.7-0.7 0.8-0.7 1.9 0 0.7 0.3 1.2 0.3 0.5 0.8 0.9 0.5 0.3 1.1 0.6 0.6 0.3 1.2 0.5 1.1 0.5 2.1 1.1 1.1 0.5 1.8 1.3 0.8 0.8 1.2 1.8 0.4 1 0.4 2.4 0 1.3-0.5 2.6-0.5 1.2-1.4 2.1-0.9 0.9-2.1 1.4-1.3 0.5-2.7 0.5-1.9 0-3.4-0.9-1.5-0.9-2.4-2.5l1-0.6q0.7 1.4 2 2.1 1.4 0.8 2.8 0.8 1.2 0 2.2-0.5 1-0.4 1.7-1.1 0.7-0.8 1.2-1.8 0.4-1 0.4-2.1 0-1.6-0.7-2.5-0.6-1-1.6-1.6-1-0.7-2.2-1.2-1.1-0.5-2.1-1-1-0.6-1.7-1.4-0.6-0.8-0.6-2.1 0-0.8 0.3-1.5 0.3-0.7 0.8-1.2 0.5-0.5 1.2-0.8 0.7-0.3 1.4-0.3 0.9 0 1.6 0.4 0.7 0.4 1.3 1zm-5.7 13.3l0.1 0.1q0.5 0.9 1.4 1.4 0.9 0.5 1.9 0.5 0.9 0 1.6-0.3 0.7-0.3 1.2-0.8 0.5-0.6 0.8-1.3 0.3-0.7 0.3-1.4 0-1.3-0.6-2.1-0.7-0.7-1.7-1.3-1-0.6-2.1-1.1-1.2-0.4-2.2-1.1-1-0.7-1.6-1.7-0.7-1-0.7-2.6 0-1.1 0.4-2.1 0.4-1 1.2-1.7 0.7-0.7 1.7-1.1 0.9-0.4 2-0.4 1.3 0 2.3 0.5 1.1 0.6 1.9 1.4l-0.9 0.8q-0.8-0.7-1.5-1.1-0.8-0.4-1.8-0.4-0.8 0-1.6 0.3-0.7 0.3-1.3 0.9-0.5 0.6-0.9 1.3-0.3 0.8-0.3 1.6 0 1.4 0.6 2.3 0.7 0.8 1.7 1.4 1 0.6 2.2 1.1 1.1 0.5 2.1 1.1 1 0.6 1.7 1.5 0.6 1 0.6 2.5 0 1-0.4 1.9-0.4 0.9-1.1 1.6-0.7 0.7-1.6 1.1-0.9 0.4-2 0.4-1.3 0-2.6-0.7-1.2-0.7-1.8-1.9z"/>
			</g>
		</g>
	</g>
	<g id="Layer">
		<g id="Layer">
			<g id="Layer">
				<path id="Layer" fill-rule="evenodd" class="s10" d="m60 16.5h1.2v7.8h-2.7v-1.2h1.5zm1.2 8.3v7.3q0 0.9 0.3 1.7 0.3 0.9 1 1.5 0.6 0.6 1.4 1 0.8 0.4 1.7 0.4h0.3v1.2q-1.2 0-2.3-0.4-1.1-0.5-1.9-1.3-0.8-0.9-1.3-1.9-0.4-1.1-0.4-2.3v-6h-1.5v-1.2zm4.5 11.5q-0.8 0-1.6-0.4-0.7-0.3-1.3-0.9-0.5-0.5-0.9-1.3-0.3-0.8-0.3-1.6v-7.3h3.6v1.2h-2.4v6q0 1.3 0.9 2.2 0.9 0.9 2.2 0.9v1.2zm-4-11.9v-7.9h1.1v6.7h2.4v1.2z"/>
			</g>
		</g>
	</g>
	<g id="Layer">
		<g id="Layer">
			<g id="Layer">
				<path id="Layer" fill-rule="evenodd" class="s10" d="m81.6 36.2q-2.1 1.7-4.7 1.7-1.5 0-2.9-0.6-1.3-0.6-2.4-1.6-1-1.1-1.6-2.4-0.6-1.4-0.6-2.9 0-1.6 0.6-3 0.6-1.3 1.6-2.3 1.1-1 2.4-1.6 1.4-0.6 2.9-0.6 2.7 0 4.7 1.6v-1.4h1.2v5.1q-0.5-1.3-1.4-2.3h-0.1q-0.8-0.8-2-1.3-1.1-0.5-2.4-0.5-1.3 0-2.5 0.5-1.1 0.4-2 1.3-0.8 0.9-1.3 2-0.5 1.2-0.5 2.5 0 1.3 0.5 2.5 0.5 1.1 1.4 2 0.8 0.8 2 1.3 1.1 0.5 2.4 0.5 1.3 0 2.4-0.5 1.2-0.5 2-1.4h0.1q0.9-1 1.4-2.2v5h-1.2zm-8.9-1.6q-0.8-0.9-1.3-1.9-0.4-1.1-0.4-2.3 0-1.2 0.4-2.3 0.5-1.1 1.3-1.9 0.8-0.8 1.8-1.2 1.1-0.5 2.4-0.5 1.2 0 2.3 0.5 1.1 0.4 1.9 1.2 0.8 0.8 1.2 1.9 0.5 1.1 0.5 2.3 0 1.2-0.5 2.3-0.4 1-1.2 1.8-0.8 0.8-1.9 1.3-1.1 0.5-2.3 0.5-1.3 0-2.3-0.5-1.1-0.4-1.9-1.2zm10.5-11.4h1.2v14.4h-1.2zm-9.6 10.6q1.3 1.3 3.3 1.3 0.9 0 1.8-0.3 0.9-0.4 1.5-1 0.7-0.7 1-1.6 0.4-0.8 0.4-1.8 0-0.9-0.4-1.8-0.3-0.8-1-1.5-0.6-0.6-1.5-1-0.9-0.4-1.8-0.4-1 0-1.8 0.4-0.9 0.4-1.6 1-0.6 0.7-1 1.5-0.3 0.9-0.3 1.8 0 1 0.3 1.8 0.4 0.9 1.1 1.6z"/>
			</g>
		</g>
	</g>
	<g id="Layer">
		<g id="Layer">
			<g id="Layer">
				<path id="Layer" class="s10" d="m90.3 23.9q0.8-0.5 1.7-0.7 0.9-0.3 1.8-0.3v1.2q-1.6 0-2.8 0.8-1.3 0.9-1.9 2.2v-4h1.2zm3.5 1.8q-0.7 0-1.4 0.2-0.6 0.3-1.1 0.8-0.4 0.5-0.7 1.1-0.3 0.6-0.3 1.3v8.5h-1.2v-8.5q0-0.9 0.4-1.8 0.3-0.8 1-1.4 0.6-0.7 1.5-1 0.8-0.4 1.8-0.4zm-5.1 11.9h-1.2v-14.4h1.2z"/>
			</g>
		</g>
	</g>
	<g id="Layer">
		<g id="Layer">
			<g id="Layer">
				<path id="Layer" fill-rule="evenodd" class="s10" d="m97.1 16.5h1.2v7.8h-2.7v-1.2h1.5zm1.2 8.3v7.3q0 0.9 0.3 1.7 0.4 0.9 1 1.5 0.6 0.6 1.4 1 0.8 0.4 1.8 0.4h0.2v1.2q-1.2 0-2.3-0.4-1-0.5-1.9-1.3-0.8-0.9-1.3-1.9-0.4-1.1-0.4-2.3v-6h-1.5v-1.2zm4.5 11.5q-0.8 0-1.5-0.4-0.8-0.3-1.4-0.9-0.5-0.5-0.8-1.3-0.3-0.8-0.3-1.6v-7.3h3.5v1.2h-2.4v6q0 1.3 0.9 2.2 1 0.9 2.3 0.9v1.2zm-4.1-11.9v-7.9h1.2v6.7h2.4v1.2z"/>
			</g>
		</g>
	</g>
	<g id="Layer">
		<g id="Layer">
			<g id="Layer">
				<path id="Layer" fill-rule="evenodd" class="s11" d="m26.4 215.8h-3.1v-6.1h0.3v5.7h2.8zm0-0.4h-2.6v-5.7h0.3v5.3h2.3z"/>
			</g>
		</g>
	</g>
	<g id="Layer">
		<g id="Layer">
			<g id="Layer">
				<path id="Layer" fill-rule="evenodd" class="s11" d="m28.1 214.1q0.1 0.4 0.5 0.7 0.3 0.3 0.8 0.3 0.4 0 0.6-0.2 0.3-0.2 0.5-0.4l0.3 0.2q-0.2 0.3-0.6 0.5-0.3 0.2-0.8 0.2-0.3 0-0.7-0.1-0.2-0.2-0.5-0.4-0.2-0.2-0.4-0.5-0.1-0.3-0.1-0.6h3.5v-0.1q0-0.4-0.1-0.7-0.2-0.3-0.4-0.6-0.3-0.2-0.6-0.4-0.3-0.1-0.7-0.1-0.4 0-0.7 0.1-0.3 0.2-0.6 0.4-0.2 0.3-0.4 0.6-0.1 0.3-0.1 0.7 0 0.4 0.1 0.7 0.2 0.3 0.4 0.6 0.3 0.2 0.6 0.4 0.3 0.1 0.7 0.1 0.5 0 0.9-0.2 0.4-0.2 0.6-0.6l0.3 0.2q-0.3 0.5-0.8 0.7-0.5 0.3-1 0.3-0.4 0-0.8-0.2-0.4-0.2-0.7-0.5-0.3-0.3-0.5-0.7-0.2-0.4-0.2-0.8 0-0.4 0.2-0.8 0.2-0.4 0.5-0.7 0.3-0.3 0.7-0.5 0.4-0.2 0.8-0.2 0.5 0 0.8 0.2 0.4 0.2 0.7 0.5 0.3 0.3 0.5 0.7 0.2 0.4 0.2 0.8v0.4zm-0.4-0.5q0-0.3 0.1-0.6 0.2-0.3 0.4-0.5 0.2-0.3 0.5-0.4 0.3-0.1 0.7-0.1 0.3 0 0.6 0.1 0.4 0.1 0.6 0.4 0.2 0.2 0.4 0.5 0.1 0.3 0.1 0.6zm3-0.3q-0.1-0.4-0.5-0.7-0.3-0.3-0.8-0.3-0.6 0-0.9 0.4h-0.1q-0.2 0.3-0.3 0.6z"/>
			</g>
		</g>
	</g>
	<g id="Layer">
		<g id="Layer">
			<g id="Layer">
				<path id="Layer" fill-rule="evenodd" class="s11" d="m32.4 209.7h0.4v2.2h-0.8v-0.3h0.4zm0.4 2.4v2.1q0 0.3 0.1 0.5 0.1 0.3 0.3 0.4 0.1 0.2 0.4 0.3 0.2 0.1 0.5 0.1h0.1v0.4q-0.4 0-0.7-0.1-0.3-0.2-0.6-0.4-0.2-0.3-0.3-0.6-0.2-0.3-0.2-0.6v-1.8h-0.4v-0.3zm1.3 3.3q-0.2 0-0.4-0.1-0.3-0.1-0.4-0.2-0.2-0.2-0.3-0.4-0.1-0.2-0.1-0.5v-2.1h1.1v0.3h-0.7v1.8q0 0.4 0.3 0.6 0.2 0.3 0.6 0.3v0.3zm-1.2-3.4v-2.3h0.4v1.9h0.6v0.4z"/>
			</g>
		</g>
	</g>
	<g id="Layer">
		<g id="Layer">
			<g id="Layer">
				<path id="Layer" fill-rule="evenodd" class="s11" d="m35.7 209.6q0.2 0 0.3 0.1 0.2 0.1 0.2 0.3v0.3q0 0.3-0.2 0.5-0.2 0.2-0.5 0.2v-0.3q0.1 0 0.2-0.1 0.2-0.1 0.2-0.3v-0.3q0 0-0.1-0.1 0 0-0.1 0-0.1 0-0.2 0 0 0.1 0 0.1 0 0.1 0 0.2 0.1 0 0.2 0 0 0 0.1 0v0.1q0 0.2-0.1 0.2-0.1 0.1-0.2 0.1v-0.1q-0.3-0.1-0.3-0.5 0-0.2 0.1-0.3 0.2-0.1 0.4-0.1zm0 0.3q0.1 0 0.1 0.1 0 0.2-0.1 0.2-0.1 0-0.1-0.2 0-0.1 0.1-0.1z"/>
			</g>
		</g>
	</g>
	<g id="Layer">
		<g id="Layer">
			<g id="Layer">
				<path id="Layer" class="s11" d="m38.7 212.4q-0.1-0.1-0.3-0.1-0.1 0-0.2 0.1-0.1 0.1-0.1 0.3 0 0.1 0.1 0.1 0 0.1 0.1 0.2 0.1 0 0.2 0.1 0.1 0 0.2 0 0.2 0.1 0.4 0.3 0.2 0.1 0.4 0.2 0.1 0.2 0.2 0.4 0.1 0.2 0.1 0.5 0 0.3-0.1 0.5-0.1 0.3-0.3 0.5-0.2 0.2-0.5 0.3-0.2 0.1-0.5 0.1-0.4 0-0.7-0.2-0.3-0.2-0.5-0.5l0.7-0.4q0.2 0.3 0.5 0.3 0.2 0 0.4-0.2 0.2-0.2 0.2-0.4 0-0.2-0.1-0.3 0 0-0.1-0.1-0.1-0.1-0.3-0.1-0.1-0.1-0.2-0.1-0.2-0.1-0.4-0.2-0.2-0.1-0.3-0.3-0.1-0.1-0.2-0.3-0.1-0.2-0.1-0.4 0-0.3 0.1-0.5 0.1-0.2 0.2-0.3 0.2-0.2 0.4-0.3 0.2-0.1 0.4-0.1 0.3 0 0.5 0.1 0.3 0.1 0.4 0.3l-0.2 0.3q-0.2-0.2-0.3-0.3-0.2 0-0.3 0-0.2 0-0.4 0-0.1 0.1-0.2 0.2-0.1 0.1-0.2 0.3 0 0.1 0 0.3 0 0.2 0.1 0.4 0.1 0.1 0.3 0.3 0.2 0.1 0.4 0.2 0.2 0 0.4 0.2 0.2 0.1 0.3 0.2 0.1 0.2 0.1 0.5 0 0.4-0.2 0.6-0.3 0.3-0.7 0.3-0.2 0-0.5-0.1-0.2-0.2-0.3-0.4l-0.1 0.1q0.1 0.2 0.4 0.4 0.2 0.1 0.5 0.1 0.2 0 0.4-0.1 0.2 0 0.4-0.2 0.1-0.1 0.2-0.3 0-0.2 0.1-0.4-0.1-0.3-0.2-0.5-0.1-0.2-0.3-0.3-0.2-0.1-0.4-0.2-0.2-0.1-0.4-0.2-0.2-0.1-0.3-0.2-0.1-0.2-0.1-0.4 0-0.3 0.2-0.5 0.2-0.2 0.5-0.2 0.3 0 0.5 0.2z"/>
			</g>
		</g>
	</g>
	<g id="Layer">
		<g id="Layer">
			<g id="Layer">
			</g>
		</g>
	</g>
	<g id="Layer">
		<g id="Layer">
			<g id="Layer">
				<path id="Layer" fill-rule="evenodd" class="s11" d="m46.5 211.6h0.3v1.5q-0.2-0.6-0.7-0.9-0.4-0.3-1-0.3-0.4 0-0.7 0.1-0.4 0.2-0.6 0.4-0.3 0.3-0.4 0.6-0.1 0.3-0.1 0.7 0 0.4 0.1 0.7 0.2 0.3 0.4 0.6 0.3 0.2 0.6 0.4 0.3 0.1 0.7 0.1 0.6 0 1-0.3 0.5-0.3 0.7-0.9v1.4q0 0.3-0.1 0.6-0.2 0.3-0.4 0.6-0.2 0.2-0.5 0.3-0.3 0.2-0.6 0.2-0.4 0-0.7-0.2-0.3-0.1-0.5-0.4l0.2-0.2q0.2 0.2 0.4 0.3 0.3 0.1 0.6 0.1 0.2 0 0.5-0.1 0.2-0.1 0.4-0.3 0.2-0.2 0.3-0.4 0.1-0.2 0.1-0.5v-0.3q-0.6 0.5-1.4 0.5-0.5 0-0.8-0.2-0.4-0.2-0.7-0.5h-0.1q-0.3-0.3-0.4-0.7-0.2-0.4-0.2-0.8 0-0.5 0.2-0.9 0.2-0.3 0.5-0.6 0.3-0.3 0.7-0.5 0.3-0.2 0.8-0.2 0.8 0 1.4 0.5zm-2.6 3.3q-0.2-0.2-0.4-0.5-0.1-0.3-0.1-0.7 0-0.3 0.1-0.7 0.1-0.3 0.4-0.5 0.2-0.2 0.5-0.4 0.3-0.1 0.7-0.1 0.3 0 0.6 0.1 0.4 0.2 0.6 0.4 0.2 0.2 0.4 0.5 0.1 0.4 0.1 0.7 0 0.4-0.1 0.7-0.2 0.3-0.4 0.5-0.2 0.2-0.6 0.4-0.3 0.1-0.6 0.1-0.4 0-0.7-0.1-0.3-0.2-0.5-0.4zm3-3.3h0.4v4.1q0 0.4-0.2 0.8-0.2 0.4-0.5 0.7-0.2 0.3-0.6 0.4-0.4 0.2-0.8 0.2-0.5 0-0.9-0.2-0.4-0.1-0.7-0.4l0.3-0.3q0.2 0.3 0.5 0.4 0.4 0.2 0.8 0.2 0.3 0 0.6-0.2 0.4-0.1 0.6-0.3 0.2-0.3 0.4-0.6 0.1-0.3 0.1-0.7zm-2.8 3.1q0.4 0.4 1 0.4 0.3 0 0.5-0.1 0.3-0.1 0.4-0.3 0.2-0.2 0.4-0.5 0.1-0.2 0.1-0.5 0-0.3-0.1-0.5-0.2-0.3-0.4-0.5-0.1-0.1-0.4-0.3-0.2-0.1-0.5-0.1-0.3 0-0.5 0.1-0.3 0.2-0.5 0.3-0.2 0.2-0.3 0.5-0.1 0.2-0.1 0.5 0 0.6 0.4 1z"/>
			</g>
		</g>
	</g>
	<g id="Layer">
		<g id="Layer">
			<g id="Layer">
				<path id="Layer" fill-rule="evenodd" class="s11" d="m51.9 215.2q-0.3 0.3-0.7 0.5-0.4 0.2-0.9 0.2-0.4 0-0.8-0.2-0.4-0.2-0.7-0.5-0.3-0.3-0.5-0.7-0.1-0.4-0.1-0.8 0-0.5 0.1-0.9 0.2-0.3 0.5-0.6 0.3-0.3 0.7-0.5 0.4-0.2 0.8-0.2 0.5 0 0.9 0.2 0.4 0.2 0.7 0.5 0.3 0.3 0.4 0.7 0.2 0.4 0.2 0.8 0 0.4-0.2 0.8-0.1 0.4-0.4 0.7zm-0.3-0.2q0.3-0.3 0.4-0.6 0.2-0.3 0.2-0.7 0-0.4-0.2-0.7-0.1-0.3-0.4-0.6-0.2-0.2-0.6-0.4-0.3-0.1-0.7-0.1-0.3 0-0.7 0.1-0.3 0.2-0.6 0.4-0.2 0.3-0.4 0.6-0.1 0.3-0.1 0.7 0 0.4 0.1 0.7 0.2 0.3 0.4 0.6 0.3 0.2 0.6 0.4 0.4 0.1 0.7 0.1 0.4 0 0.7-0.1 0.4-0.2 0.6-0.4zm-1.3 0.4q-0.3 0-0.6-0.1-0.4-0.2-0.6-0.4-0.2-0.2-0.4-0.5-0.1-0.4-0.1-0.7 0-0.3 0.1-0.7 0.2-0.3 0.4-0.5 0.2-0.2 0.6-0.4 0.3-0.1 0.6-0.1 0.4 0 0.7 0.1 0.3 0.2 0.5 0.4 0.3 0.2 0.4 0.5 0.1 0.4 0.1 0.7 0 0.4-0.1 0.7-0.1 0.3-0.4 0.5-0.2 0.2-0.5 0.4-0.3 0.1-0.7 0.1zm0-0.3q0.3 0 0.6-0.2 0.2-0.1 0.4-0.2 0.2-0.2 0.3-0.5 0.1-0.2 0.1-0.5 0-0.3-0.1-0.5-0.1-0.3-0.3-0.5-0.2-0.2-0.4-0.3-0.3-0.1-0.6-0.1-0.3 0-0.5 0.1-0.3 0.1-0.4 0.3-0.2 0.2-0.3 0.5-0.1 0.2-0.1 0.5 0 0.3 0.1 0.5 0.1 0.3 0.3 0.5 0.1 0.1 0.4 0.2 0.2 0.2 0.5 0.2z"/>
			</g>
		</g>
	</g>
	<g id="Layer">
		<g id="Layer">
			<g id="Layer">
			</g>
		</g>
	</g>
	<g id="Layer">
		<g id="Layer">
			<g id="Layer">
				<path id="Layer" fill-rule="evenodd" class="s11" d="m55.8 212.4h-0.5v-0.3h0.8v3.7h-0.3zm-0.5-0.5v-0.3h0.5v-0.2q0-0.4 0.1-0.7 0.1-0.3 0.4-0.6 0.2-0.2 0.5-0.3 0.3-0.2 0.7-0.2v0.4q-0.3 0-0.6 0.1-0.2 0.1-0.4 0.3-0.2 0.2-0.3 0.4-0.1 0.3-0.1 0.6v0.5zm2.1-1.5q-0.1 0-0.3 0.1-0.2 0.1-0.3 0.2-0.1 0.1-0.2 0.3-0.1 0.2-0.1 0.4v0.2h0.7v0.3h-1v-0.5q0-0.3 0.1-0.5 0.1-0.3 0.3-0.4 0.1-0.2 0.3-0.3 0.3-0.1 0.5-0.1zm-0.2 1.6v0.4h-0.7v3.4h-0.3v-3.8z"/>
			</g>
		</g>
	</g>
	<g id="Layer">
		<g id="Layer">
			<g id="Layer">
				<path id="Layer" fill-rule="evenodd" class="s11" d="m62 215.2q-0.3 0.3-0.7 0.5-0.4 0.2-0.8 0.2-0.5 0-0.9-0.2-0.4-0.2-0.7-0.5-0.3-0.3-0.4-0.7-0.2-0.4-0.2-0.8 0-0.5 0.2-0.9 0.1-0.3 0.4-0.6 0.3-0.3 0.7-0.5 0.4-0.2 0.9-0.2 0.4 0 0.8 0.2 0.4 0.2 0.7 0.5 0.3 0.3 0.5 0.7 0.1 0.4 0.1 0.8 0 0.4-0.1 0.8-0.2 0.4-0.5 0.7zm-0.2-0.2q0.2-0.3 0.4-0.6 0.1-0.3 0.1-0.7 0-0.4-0.1-0.7-0.2-0.3-0.4-0.6-0.3-0.2-0.6-0.4-0.4-0.1-0.7-0.1-0.4 0-0.7 0.1-0.4 0.2-0.6 0.4-0.3 0.3-0.4 0.6-0.2 0.3-0.2 0.7 0 0.4 0.2 0.7 0.1 0.3 0.4 0.6 0.2 0.2 0.6 0.4 0.3 0.1 0.7 0.1 0.4 0 0.7-0.1 0.3-0.2 0.6-0.4zm-1.3 0.4q-0.4 0-0.7-0.1-0.3-0.2-0.5-0.4-0.3-0.2-0.4-0.5-0.2-0.4-0.1-0.7-0.1-0.3 0.1-0.7 0.1-0.3 0.4-0.5 0.2-0.2 0.5-0.4 0.3-0.1 0.7-0.1 0.3 0 0.6 0.1 0.4 0.2 0.6 0.4 0.2 0.2 0.3 0.5 0.2 0.4 0.2 0.7 0 0.4-0.2 0.7-0.1 0.3-0.3 0.5-0.2 0.2-0.6 0.4-0.3 0.1-0.6 0.1zm0-0.3q0.2 0 0.5-0.2 0.2-0.1 0.4-0.2 0.2-0.2 0.3-0.5 0.1-0.2 0.1-0.5 0-0.3-0.1-0.5-0.1-0.3-0.3-0.5-0.2-0.2-0.4-0.3-0.3-0.1-0.5-0.1-0.3 0-0.6 0.1-0.2 0.1-0.4 0.3-0.2 0.2-0.3 0.5-0.1 0.2-0.1 0.5 0 0.3 0.1 0.5 0.1 0.3 0.3 0.5 0.2 0.1 0.4 0.2 0.3 0.2 0.6 0.2z"/>
			</g>
		</g>
	</g>
	<g id="Layer">
		<g id="Layer">
			<g id="Layer">
				<path id="Layer" class="s11" d="m64.2 211.8q0.2-0.1 0.5-0.2 0.3-0.1 0.5-0.1v0.4q-0.4 0-0.8 0.2-0.3 0.3-0.5 0.7v-1.2h0.3zm1 0.5q-0.2 0-0.4 0.1-0.1 0.1-0.3 0.2-0.1 0.1-0.2 0.3-0.1 0.2-0.1 0.4v2.5h-0.3v-2.5q0-0.3 0.1-0.5 0.1-0.3 0.3-0.4 0.2-0.2 0.4-0.3 0.2-0.2 0.5-0.2zm-1.4 3.5h-0.4v-4.2h0.4z"/>
			</g>
		</g>
	</g>
	<g id="Layer">
		<g id="Layer">
			<g id="Layer">
			</g>
		</g>
	</g>
	<g id="Layer">
		<g id="Layer">
			<g id="Layer">
				<path id="Layer" fill-rule="evenodd" class="s11" d="m72 215.4q-0.6 0.5-1.4 0.5-0.4 0-0.8-0.2-0.4-0.2-0.7-0.5-0.3-0.3-0.5-0.7-0.1-0.4-0.1-0.8 0-0.5 0.1-0.9 0.2-0.3 0.5-0.6 0.3-0.3 0.7-0.5 0.4-0.2 0.8-0.2 0.8 0 1.4 0.5v-0.4h0.4v1.5q-0.2-0.4-0.5-0.7-0.2-0.2-0.5-0.4-0.4-0.1-0.8-0.1-0.3 0-0.7 0.1-0.3 0.2-0.6 0.4-0.2 0.3-0.3 0.6-0.2 0.3-0.2 0.7 0 0.4 0.2 0.7 0.1 0.3 0.4 0.6 0.2 0.2 0.5 0.4 0.4 0.1 0.7 0.1 0.4 0 0.8-0.1 0.3-0.2 0.5-0.4 0.3-0.3 0.5-0.7v1.5h-0.4zm-2.6-0.5q-0.2-0.2-0.3-0.5-0.2-0.3-0.2-0.7 0-0.3 0.1-0.7 0.2-0.3 0.4-0.5 0.3-0.2 0.6-0.4 0.3-0.1 0.6-0.1 0.4 0 0.7 0.1 0.3 0.2 0.6 0.4 0.2 0.2 0.3 0.5 0.2 0.4 0.2 0.7 0 0.4-0.2 0.7-0.1 0.3-0.3 0.5-0.3 0.2-0.6 0.4-0.3 0.1-0.7 0.1-0.3 0-0.6-0.1-0.3-0.2-0.6-0.4zm3.1-3.3h0.3v4.2h-0.3zm-2.8 3.1q0.4 0.4 0.9 0.4 0.3 0 0.6-0.1 0.2-0.1 0.4-0.3 0.2-0.2 0.3-0.5 0.1-0.2 0.1-0.5 0-0.3-0.1-0.5-0.1-0.3-0.3-0.5-0.2-0.1-0.4-0.3-0.3-0.1-0.6-0.1-0.2 0-0.5 0.1-0.2 0.2-0.4 0.3-0.2 0.2-0.3 0.5-0.1 0.2-0.1 0.5 0 0.3 0.1 0.5 0.1 0.3 0.3 0.5z"/>
			</g>
		</g>
	</g>
	<g id="Layer">
		<g id="Layer">
			<g id="Layer">
				<path id="Layer" fill-rule="evenodd" class="s11" d="m74.5 211.8q0.3-0.1 0.5-0.2 0.3-0.1 0.6-0.1 0.3 0 0.7 0.2 0.3 0.1 0.5 0.4 0.3 0.2 0.4 0.5 0.2 0.4 0.2 0.7v2.5h-0.4v-2.5q0-0.3-0.1-0.5-0.1-0.3-0.3-0.5-0.2-0.2-0.5-0.3-0.2-0.1-0.5-0.1-0.5 0-0.9 0.2-0.3 0.3-0.5 0.7v-1.2h0.3zm2.4 4h-0.3v-2.5q0-0.2-0.1-0.4-0.1-0.2-0.2-0.3-0.2-0.1-0.4-0.2-0.1-0.1-0.3-0.1-0.3 0-0.4 0.1-0.2 0.1-0.4 0.2-0.1 0.1-0.2 0.3-0.1 0.2-0.1 0.4v2.5h-0.3v-2.5q0-0.3 0.1-0.5 0.1-0.3 0.3-0.4 0.2-0.2 0.4-0.3 0.3-0.2 0.6-0.2 0.2 0 0.5 0.2 0.2 0.1 0.4 0.3 0.2 0.1 0.3 0.4 0.1 0.2 0.1 0.5zm-2.8 0h-0.4v-4.2h0.4z"/>
			</g>
		</g>
	</g>
	<g id="Layer">
		<g id="Layer">
			<g id="Layer">
				<path id="Layer" fill-rule="evenodd" class="s11" d="m81.9 215.2q-0.3 0.3-0.7 0.5-0.4 0.2-0.8 0.2-0.5 0-0.9-0.2-0.4-0.2-0.6-0.5-0.3-0.3-0.5-0.7-0.2-0.4-0.2-0.8 0-0.5 0.2-0.9 0.2-0.3 0.5-0.6 0.3-0.3 0.7-0.5 0.3-0.2 0.8-0.2 0.4 0 0.8 0.2 0.4 0.2 0.7 0.5 0.3 0.3 0.5 0.7 0.2 0.4 0.2 0.8 0 0.4-0.2 0.8-0.2 0.4-0.5 0.7zm-0.2-0.2q0.2-0.3 0.4-0.6 0.1-0.3 0.1-0.7 0-0.4-0.1-0.7-0.2-0.3-0.4-0.6-0.3-0.2-0.6-0.4-0.3-0.1-0.7-0.1-0.4 0-0.7 0.1-0.4 0.2-0.6 0.4-0.3 0.3-0.4 0.6-0.1 0.3-0.1 0.7 0 0.4 0.1 0.7 0.1 0.3 0.4 0.6 0.3 0.2 0.6 0.4 0.3 0.1 0.7 0.1 0.4 0 0.7-0.1 0.3-0.2 0.6-0.4zm-1.3 0.4q-0.4 0-0.7-0.1-0.3-0.2-0.5-0.4-0.3-0.2-0.4-0.5-0.1-0.4-0.1-0.7 0-0.3 0.1-0.7 0.1-0.3 0.4-0.5 0.2-0.2 0.5-0.4 0.3-0.1 0.7-0.1 0.3 0 0.7 0.1 0.3 0.2 0.5 0.4 0.2 0.2 0.4 0.5 0.1 0.4 0.1 0.7 0 0.4-0.1 0.7-0.2 0.3-0.4 0.5-0.2 0.2-0.5 0.4-0.4 0.1-0.7 0.1zm0-0.3q0.3 0 0.5-0.2 0.3-0.1 0.5-0.2 0.1-0.2 0.2-0.5 0.2-0.2 0.2-0.5 0-0.3-0.2-0.5-0.1-0.3-0.2-0.5-0.2-0.2-0.5-0.3-0.2-0.1-0.5-0.1-0.3 0-0.5 0.1-0.3 0.1-0.5 0.3-0.2 0.2-0.3 0.5-0.1 0.2-0.1 0.5 0 0.3 0.1 0.5 0.1 0.3 0.3 0.5 0.2 0.1 0.5 0.2 0.2 0.2 0.5 0.2z"/>
			</g>
		</g>
	</g>
	<g id="Layer">
		<g id="Layer">
			<g id="Layer">
				<path id="Layer" fill-rule="evenodd" class="s11" d="m83.4 209.7h0.4v2.2h-0.8v-0.3h0.4zm0.4 2.4v2.1q0 0.3 0.1 0.5 0.1 0.3 0.2 0.4 0.2 0.2 0.5 0.3 0.2 0.1 0.5 0.1v0.4q-0.3 0-0.6-0.1-0.3-0.2-0.6-0.4-0.2-0.3-0.4-0.6-0.1-0.3-0.1-0.6v-1.8h-0.4v-0.3zm1.3 3.3q-0.2 0-0.5-0.1-0.2-0.1-0.3-0.2-0.2-0.2-0.3-0.4-0.1-0.2-0.1-0.5v-2.1h1.1v0.3h-0.7v1.8q0 0.4 0.2 0.6 0.3 0.3 0.7 0.3v0.3zm-1.2-3.4v-2.3h0.3v1.9h0.7v0.4z"/>
			</g>
		</g>
	</g>
	<g id="Layer">
		<g id="Layer">
			<g id="Layer">
				<path id="Layer" fill-rule="evenodd" class="s11" d="m87 211.8q0.2-0.1 0.4-0.2 0.3-0.1 0.6-0.1 0.3 0 0.7 0.2 0.3 0.1 0.6 0.4 0.2 0.2 0.4 0.5 0.1 0.4 0.1 0.7v2.5h-0.3v-2.5q0-0.3-0.2-0.5-0.1-0.3-0.3-0.5-0.2-0.2-0.4-0.3-0.3-0.1-0.6-0.1-0.5 0-0.8 0.2-0.4 0.3-0.6 0.7v-3.1h0.4zm2.3 3.9h-0.3v-2.4q0-0.2-0.1-0.4-0.1-0.2-0.2-0.3-0.1-0.2-0.3-0.2-0.2-0.1-0.4-0.1-0.4 0-0.7 0.3-0.3 0.2-0.3 0.7v2.4h-0.4v-2.4q0-0.3 0.1-0.5 0.1-0.3 0.3-0.5 0.2-0.2 0.4-0.3 0.3-0.1 0.6-0.1 0.3 0 0.5 0.1 0.3 0.1 0.4 0.3 0.2 0.2 0.3 0.5 0.1 0.2 0.1 0.5zm-2.8 0h-0.3v-6.1h0.3z"/>
			</g>
		</g>
	</g>
	<g id="Layer">
		<g id="Layer">
			<g id="Layer">
				<path id="Layer" fill-rule="evenodd" class="s11" d="m91.5 214.1q0.2 0.4 0.5 0.7 0.4 0.3 0.8 0.3 0.4 0 0.7-0.2 0.3-0.2 0.5-0.4l0.2 0.2q-0.2 0.3-0.6 0.5-0.3 0.2-0.8 0.2-0.3 0-0.6-0.1-0.3-0.2-0.6-0.4-0.2-0.2-0.3-0.5-0.2-0.3-0.2-0.6h3.5v-0.1q0-0.4-0.1-0.7-0.1-0.3-0.4-0.6-0.2-0.2-0.6-0.4-0.3-0.1-0.7-0.1-0.4 0-0.7 0.1-0.3 0.2-0.6 0.4-0.2 0.3-0.4 0.6-0.1 0.3-0.1 0.7 0 0.4 0.1 0.7 0.2 0.3 0.4 0.6 0.3 0.2 0.6 0.4 0.3 0.1 0.7 0.1 0.5 0 0.9-0.2 0.4-0.2 0.6-0.6l0.3 0.2q-0.3 0.5-0.8 0.7-0.5 0.3-1 0.3-0.4 0-0.8-0.2-0.4-0.2-0.7-0.5-0.3-0.3-0.5-0.7-0.2-0.4-0.2-0.8 0-0.4 0.2-0.8 0.2-0.4 0.5-0.7 0.3-0.3 0.7-0.5 0.4-0.2 0.8-0.2 0.5 0 0.9 0.2 0.3 0.2 0.6 0.5 0.3 0.3 0.5 0.7 0.2 0.4 0.2 0.8v0.4zm-0.4-0.5q0-0.3 0.1-0.6 0.2-0.3 0.4-0.5 0.2-0.3 0.5-0.4 0.4-0.1 0.7-0.1 0.4 0 0.7 0.1 0.3 0.1 0.5 0.4 0.2 0.2 0.4 0.5 0.1 0.3 0.1 0.6zm3-0.3q-0.1-0.4-0.5-0.7-0.3-0.3-0.8-0.3-0.5 0-0.9 0.4-0.3 0.3-0.4 0.6z"/>
			</g>
		</g>
	</g>
	<g id="Layer">
		<g id="Layer">
			<g id="Layer">
				<path id="Layer" class="s11" d="m96.6 211.8q0.2-0.1 0.4-0.2 0.3-0.1 0.6-0.1v0.4q-0.5 0-0.8 0.2-0.4 0.3-0.6 0.7v-1.2h0.4zm1 0.5q-0.2 0-0.4 0.1-0.2 0.1-0.3 0.2-0.2 0.1-0.2 0.3-0.1 0.2-0.1 0.4v2.5h-0.4v-2.5q0-0.3 0.1-0.5 0.1-0.3 0.3-0.4 0.2-0.2 0.4-0.3 0.3-0.2 0.6-0.2zm-1.5 3.5h-0.3v-4.2h0.3z"/>
			</g>
		</g>
	</g>
	<g id="Layer">
		<g id="Layer">
			<g id="Layer">
			</g>
		</g>
	</g>
	<g id="Layer">
		<g id="Layer">
			<g id="Layer">
				<path id="Layer" class="s11" d="m101.6 211.8q0.2-0.1 0.5-0.2 0.3-0.1 0.5-0.1v0.4q-0.4 0-0.8 0.2-0.3 0.3-0.5 0.7v-1.2h0.3zm1 0.5q-0.2 0-0.4 0.1-0.1 0.1-0.3 0.2-0.1 0.1-0.2 0.3-0.1 0.2-0.1 0.4v2.5h-0.3v-2.5q0-0.3 0.1-0.5 0.1-0.3 0.3-0.4 0.2-0.2 0.4-0.3 0.2-0.2 0.5-0.2zm-1.4 3.5h-0.4v-4.2h0.4z"/>
			</g>
		</g>
	</g>
	<g id="Layer">
		<g id="Layer">
			<g id="Layer">
				<path id="Layer" fill-rule="evenodd" class="s11" d="m107.2 215.2q-0.3 0.3-0.7 0.5-0.4 0.2-0.8 0.2-0.5 0-0.9-0.2-0.4-0.2-0.7-0.5-0.3-0.3-0.4-0.7-0.2-0.4-0.2-0.8 0-0.5 0.2-0.9 0.1-0.3 0.4-0.6 0.3-0.3 0.7-0.5 0.4-0.2 0.9-0.2 0.4 0 0.8 0.2 0.4 0.2 0.7 0.5 0.3 0.3 0.5 0.7 0.1 0.4 0.1 0.8 0 0.4-0.1 0.8-0.2 0.4-0.5 0.7zm-0.2-0.2q0.2-0.3 0.4-0.6 0.1-0.3 0.1-0.7 0-0.4-0.1-0.7-0.2-0.3-0.4-0.6-0.3-0.2-0.6-0.4-0.4-0.1-0.7-0.1-0.4 0-0.8 0.1-0.3 0.2-0.5 0.4-0.3 0.3-0.4 0.6-0.2 0.3-0.2 0.7 0 0.4 0.2 0.7 0.1 0.3 0.4 0.6 0.2 0.2 0.6 0.4 0.3 0.1 0.7 0.1 0.4 0 0.7-0.1 0.3-0.2 0.6-0.4zm-1.3 0.4q-0.4 0-0.7-0.1-0.3-0.2-0.6-0.4-0.2-0.2-0.3-0.5-0.2-0.4-0.2-0.7 0-0.3 0.2-0.7 0.1-0.3 0.3-0.5 0.3-0.2 0.6-0.4 0.3-0.1 0.7-0.1 0.3 0 0.6 0.1 0.4 0.2 0.6 0.4 0.2 0.2 0.3 0.5 0.2 0.4 0.2 0.7 0 0.4-0.2 0.7-0.1 0.3-0.3 0.5-0.2 0.2-0.6 0.4-0.3 0.1-0.6 0.1zm0-0.3q0.2 0 0.5-0.2 0.2-0.1 0.4-0.2 0.2-0.2 0.3-0.5 0.1-0.2 0.1-0.5 0-0.3-0.1-0.5-0.1-0.3-0.3-0.5-0.2-0.2-0.4-0.3-0.3-0.1-0.5-0.1-0.3 0-0.6 0.1-0.2 0.1-0.4 0.3-0.2 0.2-0.3 0.5-0.1 0.2-0.1 0.5 0 0.3 0.1 0.5 0.1 0.3 0.3 0.5 0.2 0.1 0.4 0.2 0.3 0.2 0.6 0.2z"/>
			</g>
		</g>
	</g>
	<g id="Layer">
		<g id="Layer">
			<g id="Layer">
				<path id="Layer" fill-rule="evenodd" class="s11" d="m111.4 215.6q-0.4 0.3-1 0.3-0.3 0-0.7-0.2-0.3-0.1-0.5-0.4-0.3-0.2-0.4-0.5-0.2-0.4-0.2-0.7v-2.5h0.4v2.5q0 0.3 0.1 0.5 0.1 0.3 0.3 0.5 0.2 0.2 0.5 0.3 0.2 0.1 0.5 0.1 0.5 0 0.9-0.2 0.3-0.3 0.5-0.7v1.2h-0.4zm-2.3-4h0.3v2.5q0 0.2 0.1 0.4 0.1 0.2 0.2 0.3 0.2 0.1 0.3 0.2 0.2 0.1 0.4 0.1 0.2 0 0.4-0.1 0.2-0.1 0.3-0.2 0.2-0.1 0.3-0.3 0-0.2 0-0.4v-2.5h0.4v2.5q0 0.3-0.1 0.5-0.1 0.3-0.3 0.4-0.2 0.2-0.4 0.3-0.3 0.1-0.6 0.1-0.3 0-0.5-0.1-0.2-0.1-0.4-0.3-0.2-0.1-0.3-0.4-0.1-0.2-0.1-0.5zm2.8 0h0.4v4.2h-0.4z"/>
			</g>
		</g>
	</g>
	<g id="Layer">
		<g id="Layer">
			<g id="Layer">
				<path id="Layer" fill-rule="evenodd" class="s11" d="m114 211.8q0.2-0.1 0.4-0.2 0.3-0.1 0.6-0.1 0.3 0 0.7 0.2 0.3 0.1 0.6 0.4 0.2 0.2 0.4 0.5 0.1 0.4 0.1 0.7v2.5h-0.3v-2.5q0-0.3-0.2-0.5-0.1-0.3-0.3-0.5-0.2-0.2-0.5-0.3-0.2-0.1-0.5-0.1-0.5 0-0.8 0.2-0.4 0.3-0.6 0.7v-1.2h0.4zm2.3 4h-0.3v-2.5q0-0.2-0.1-0.4-0.1-0.2-0.2-0.3-0.2-0.1-0.3-0.2-0.2-0.1-0.4-0.1-0.2 0-0.4 0.1-0.2 0.1-0.3 0.2-0.2 0.1-0.3 0.3 0 0.2 0 0.4v2.5h-0.4v-2.5q0-0.3 0.1-0.5 0.1-0.3 0.3-0.4 0.2-0.2 0.4-0.3 0.3-0.2 0.6-0.2 0.3 0 0.5 0.2 0.3 0.1 0.4 0.3 0.2 0.1 0.3 0.4 0.1 0.2 0.1 0.5zm-2.8 0h-0.3v-4.2h0.3z"/>
			</g>
		</g>
	</g>
	<g id="Layer">
		<g id="Layer">
			<g id="Layer">
				<path id="Layer" fill-rule="evenodd" class="s11" d="m121.2 215.4q-0.6 0.5-1.4 0.5-0.4 0-0.8-0.2-0.4-0.2-0.7-0.5-0.3-0.3-0.5-0.7-0.2-0.4-0.2-0.8 0-0.5 0.2-0.8 0.2-0.4 0.5-0.7 0.3-0.3 0.7-0.5 0.4-0.2 0.8-0.2 0.8 0 1.4 0.5v-2.3h0.3v3.4q-0.1-0.3-0.2-0.5-0.2-0.2-0.4-0.4-0.3-0.2-0.5-0.3-0.3 0-0.6 0-0.4 0-0.7 0.1-0.3 0.2-0.6 0.4-0.2 0.3-0.4 0.6-0.1 0.3-0.1 0.7 0 0.4 0.1 0.7 0.2 0.3 0.4 0.6 0.3 0.2 0.6 0.4 0.3 0.1 0.7 0.1 0.6 0 1.1-0.3 0.4-0.3 0.6-0.9v1.5h-0.3zm-1.4 0q-0.3 0-0.7-0.1-0.3-0.2-0.5-0.4-0.2-0.2-0.4-0.5-0.1-0.3-0.1-0.7 0-0.3 0.1-0.7 0.2-0.3 0.4-0.5 0.2-0.2 0.5-0.4 0.3-0.1 0.7-0.1 0.4 0 0.7 0.1 0.3 0.2 0.5 0.4 0.3 0.2 0.4 0.5 0.1 0.4 0.1 0.7 0 0.4-0.1 0.7-0.1 0.3-0.4 0.5-0.2 0.2-0.5 0.4-0.3 0.1-0.7 0.1zm1.8-1.7v-4h0.4v6.1h-0.4zm-1.8 1.4q0.3 0 0.5-0.2 0.3-0.1 0.5-0.2 0.1-0.2 0.3-0.5 0.1-0.2 0.1-0.5 0-0.3-0.1-0.5-0.2-0.3-0.3-0.5-0.2-0.2-0.5-0.3-0.2-0.1-0.5-0.1-0.3 0-0.5 0.1-0.3 0.1-0.5 0.3-0.2 0.2-0.3 0.5-0.1 0.2-0.1 0.5 0 0.3 0.1 0.5 0.1 0.3 0.3 0.5 0.2 0.1 0.5 0.2 0.2 0.2 0.5 0.2z"/>
			</g>
		</g>
	</g>
	<g id="Layer">
		<g id="Layer">
			<g id="Layer">
				<path id="Layer" fill-rule="evenodd" class="s11" d="m125.8 213.9q0 0.2-0.1 0.4-0.1 0.2-0.2 0.3-0.1 0.1-0.3 0.2-0.2 0.1-0.4 0.1-0.2 0-0.3-0.1-0.2-0.1-0.4-0.2-0.1-0.1-0.2-0.3-0.1-0.2-0.1-0.4 0-0.3 0.2-0.5 0.2-0.3 0.4-0.5 0.2-0.2 0.5-0.3 0.3-0.2 0.5-0.4 0.3-0.2 0.4-0.5 0.2-0.2 0.2-0.6 0-0.3-0.1-0.5-0.1-0.2-0.3-0.4-0.1-0.2-0.4-0.3-0.2-0.1-0.5-0.1-0.4 0-0.7 0.2-0.3 0.2-0.4 0.6l-0.3-0.2q0.2-0.4 0.5-0.7 0.4-0.2 0.9-0.2 0.4 0 0.7 0.1 0.3 0.1 0.5 0.4 0.2 0.2 0.3 0.5 0.1 0.3 0.1 0.6 0 0.4-0.1 0.7-0.2 0.3-0.4 0.5-0.3 0.3-0.5 0.4-0.3 0.2-0.6 0.4-0.2 0.2-0.4 0.4-0.1 0.2-0.1 0.4 0 0.3 0.2 0.4 0.2 0.2 0.4 0.2 0.3 0 0.5-0.1 0.2-0.2 0.2-0.5zm-3-3.7q0.2-0.5 0.8-0.9 0.5-0.3 1.1-0.3 0.4 0 0.8 0.2 0.4 0.1 0.6 0.4 0.3 0.3 0.5 0.7 0.2 0.4 0.2 0.8 0 0.4-0.2 0.7-0.1 0.3-0.3 0.6-0.2 0.2-0.5 0.5-0.3 0.2-0.5 0.4-0.1 0-0.2 0.1-0.1 0.1-0.2 0.2-0.1 0.1-0.2 0.1-0.1 0.1-0.1 0.2 0 0.1 0.1 0.1 0 0.1 0.1 0.1 0 0 0.1-0.1 0.1 0 0.1-0.1h0.3q0 0.2-0.2 0.4-0.1 0.1-0.3 0.1-0.2 0-0.4-0.1-0.1-0.2-0.1-0.4 0-0.2 0.1-0.4 0.2-0.1 0.4-0.3 0.3-0.2 0.5-0.4 0.3-0.2 0.5-0.4 0.3-0.3 0.5-0.6 0.1-0.3 0.1-0.7 0-0.3-0.1-0.7-0.2-0.3-0.4-0.5-0.2-0.3-0.6-0.4-0.3-0.1-0.6-0.1-0.6 0-1 0.3-0.4 0.2-0.6 0.7zm2 5q0.2 0.1 0.3 0.2 0.2 0.1 0.2 0.3 0 0.3-0.2 0.4-0.1 0.1-0.3 0.1-0.2 0-0.4-0.1-0.1-0.1-0.1-0.4 0-0.2 0.1-0.3 0.2-0.1 0.4-0.2zm0 0.3q-0.1 0-0.2 0.1 0 0.1 0 0.1 0 0.1 0 0.2 0.1 0.1 0.2 0.1 0.1 0 0.1-0.1 0.1-0.1 0.1-0.2 0 0-0.1-0.1 0-0.1-0.1-0.1zm0 0.1q0.1 0 0.1 0.1 0 0.2-0.1 0.2-0.1 0-0.1-0.2 0-0.1 0.1-0.1z"/>
			</g>
		</g>
	</g>
</svg>