<svg version="1.2" xmlns="http://www.w3.org/2000/svg" viewBox="0 0 149 248" width="149" height="248">
	<title>13-svg</title>
	<defs>
		<clipPath clipPathUnits="userSpaceOnUse" id="cp1">
			<path d="m-0.5 0.13l150-0.01v248.75h-150z"/>
		</clipPath>
		<clipPath clipPathUnits="userSpaceOnUse" id="cp2">
			<path d="m-0.5 0.13l150-0.01v249h-150z"/>
		</clipPath>
		<clipPath clipPathUnits="userSpaceOnUse" id="cp3">
			<path d="m4.29 5.07h140.42v43.47h-140.42z"/>
		</clipPath>
		<clipPath clipPathUnits="userSpaceOnUse" id="cp4">
			<path d="m4.3 5.07h140.23v43.5h-140.23z"/>
		</clipPath>
		<clipPath clipPathUnits="userSpaceOnUse" id="cp5">
			<path d="m15 106h103.5v96.42h-103.5z"/>
		</clipPath>
		<clipPath clipPathUnits="userSpaceOnUse" id="cp6">
			<path d="m15 106h103.5v96.42h-103.5z"/>
		</clipPath>
	</defs>
	<style>
		.s0 { fill: #ffffff } 
		.s1 { fill: #cfe7d7 } 
		.s2 { fill: none;stroke: #000000;stroke-width: 6 } 
		.s3 { fill: #86c658 } 
		.s4 { fill: none;stroke: #000000;stroke-width: 1.5 } 
		.s5 { fill: #d18563 } 
		.s6 { fill: #f7c96f } 
		.s7 { fill: #f45b99 } 
		.s8 { fill: #1e1915 } 
		.s9 { fill: #231f20 } 
		.s10 { fill: #000000 } 
	</style>
	<path id="Layer" class="s0" d="m-150.5-100.5h450v450h-450z"/>
	<path id="Layer" class="s0" d="m-150.5-100.5h450v450h-450z"/>
	<g id="Clip-Path" clip-path="url(#cp1)">
		<g id="Layer">
			<path id="Layer" class="s1" d="m-0.5 0.1h150v248.8h-150z"/>
		</g>
	</g>
	<g id="Clip-Path" clip-path="url(#cp2)">
		<g id="Layer">
			<path id="Layer" fill-rule="evenodd" class="s2" d="m-0.5 0.1h150v249h-150z"/>
		</g>
	</g>
	<g id="Clip-Path" clip-path="url(#cp3)">
		<g id="Layer">
			<path id="Layer" class="s3" d="m4.3 5.1h140.4v43.4h-140.4z"/>
		</g>
	</g>
	<g id="Clip-Path" clip-path="url(#cp4)">
		<g id="Layer">
			<path id="Layer" fill-rule="evenodd" class="s4" d="m4.3 5.1h140.2v43.5h-140.2z"/>
		</g>
	</g>
	<g id="Clip-Path" clip-path="url(#cp5)">
		<g id="Layer">
			<path id="Layer" class="s5" d="m117.9 199.8c0 0.2-0.1 0.3-0.3 0.3q-3.1 0.3-6.3 0.5c-10.1 0.9-20.3 1.4-30.5 1.6q-0.7 0-1.4 0-0.1 0-0.2 0c-10 0.2-20.5 0.2-30.3-2.1-0.1-0.1-0.2-0.2-0.2-0.3q-0.9-8-1.7-16c-3 2.1-6.1 3.9-9.3 5.5-5.4 2.6-14.2 6.1-19.5 1.4-3.9-3.5-2.2-9.6-0.6-13.8 2-5.1 6.1-8.9 10.3-12.3 7.1-5.6 14.6-10.8 23.2-13.9-0.1-0.7-0.1-1.4 0-2 0.1-0.7 0.6-1.1 1.2-1.1 1.1 0.1 1.8 1.2 2.3 2 2.3-0.5 4.8-1.1 7.2-1.1-2.1-1.8-3.8-4.1-4.3-6.9-0.2-1.4-0.1-2.8 0.1-4.1-2.9-1-4.9-3.7-3.7-6.8 1.1-2.9 4.2-3.1 6.7-1.9q0.4-1.2 0.8-2.4c0.3-3.3 1.6-12.2 7.4-16 7.1-4.7 12.6-3.6 15.3-3.7 2.7-0.2 6-0.4 6-0.4q-0.3 2.9-0.7 5.9c-0.2 1.1-0.3 2.1-0.2 3.2q0 1.1 0.2 2.3c0.3 2 0.7 4.1 0.9 6.1 0 0.1 0 0.8 0.1 1.5q0 0.1 0.1 0.2c0.3 1.1 0.7 2.2 1.1 3.3 2.5-1.2 5.7-1.1 6.8 1.9 1.1 3.1-0.9 5.8-3.9 6.8q0.1 0.1 0.1 0.2c0.6 4.4-1.2 8.2-4.6 11 1.6 0.2 3.2 0.7 4.7 1.2 7.6 2.3 14.7 6.9 18.9 13.8 3.2 5.3 4 11.2 4.4 17.3 0.5 6.3-0.1 12.5-0.1 18.8z"/>
		</g>
	</g>
	<path id="Layer" fill-rule="evenodd" class="s0" d="m71.9 143.3c-0.6 1 1.1 2.4 1.8 2.8q0.2 0.2 0.4 0.3 0-1.1 0-2.2 0 0-0.1-0.1c-0.6-0.2-1.6-1.5-2.1-0.8zm8.2-0.6c-0.5-0.2-1 0.8-1.3 1q-0.3 0.2-0.6 0.4 0.1 1.1 0.2 2.2c0.6-0.4 1.1-0.9 1.4-1.5 0.3-0.5 0.8-1.5 0.3-2.1zm-2.4 1.6q-0.7 0.2-1.3 0.3-0.9 0.1-1.7-0.2 0 1.1 0 2.3c0.8 0.3 1.7 0.4 2.6 0.1q0.3-0.1 0.6-0.2 0 0 0-0.1-0.1-1.1-0.2-2.2z"/>
	<path id="Layer" fill-rule="evenodd" class="s6" d="m89 149.4c-0.1 3.4-2.9 6.3-5.9 7.6q-1.8 0.8-3.9 1.2-0.8 0.2-1.7 0.2-0.5 0.1-1.1 0.1 1-2.4 2-4.9c2.3-0.3 4.5-0.9 6.7-1.9q1-0.5 2.1-1.1 0.9-0.6 1.8-1.2zm-13.3 9.1c-4.7 0.1-9.4-1.6-11.7-5.8-0.6-1-1.2-2.3-1.3-3.5 1.1 0.9 2.3 1.6 3.5 2.3 2.5 1.3 5.1 2 7.6 2.2q1 2.4 1.9 4.8zm3.3 0.2q0 19 0 37.9 0 2.5 0 5.1-3.1 0-6.1 0 0-18.8 0-37.6 0-2.6 0-5.2c2 0.3 4.1 0.2 6.1-0.2zm-1.4 34.3c0-1-0.8-1.8-1.8-1.8-1.1 0-1.9 0.8-1.9 1.8 0 1 0.8 1.8 1.9 1.8 1 0 1.8-0.8 1.8-1.8zm0-9.5c0-1-0.8-1.8-1.8-1.8-1.1 0-1.9 0.8-1.9 1.8 0 1 0.8 1.9 1.9 1.9 1 0 1.8-0.9 1.8-1.9zm0-9.2c0-1-0.8-1.8-1.8-1.8-1.1 0-1.9 0.8-1.9 1.8 0 1 0.8 1.9 1.9 1.9 1 0 1.8-0.9 1.8-1.9zm-1.8-11c-1.1 0-1.9 0.8-1.9 1.8 0 1.1 0.8 1.9 1.9 1.9 1 0 1.8-0.9 1.8-1.9 0-1-0.8-1.8-1.8-1.8z"/>
	<path id="Layer" fill-rule="evenodd" class="s7" d="m117.4 199.6q-7.5 0.7-14.9 1.2 0.5-9.7 1-19.3 0-0.1 0-0.2 0.1-2.1 0.2-4.2 0.1-1.7 0.2-3.3c0-0.4-0.6-0.4-0.6 0q-0.2 3.3-0.3 6.7-1.8-2.6-3.7-5.3c-0.2-0.3-0.6 0-0.4 0.3q2 3 4 5.9-0.4 8.1-0.8 16.1-0.1 1.7-0.2 3.3-5.4 0.3-10.8 0.5 0.3-9.1 0.7-18.2c0-0.4-0.6-0.4-0.6 0q-0.3 9.1-0.6 18.3-0.7 0-1.4 0-4.8 0.2-9.6 0.3 0-18.8 0-37.6 0-2.7 0-5.4 0 0 0 0 1.2-0.3 2.3-0.6c2.7-0.9 5.2-2.5 6.6-5.1 0.6-1.1 1.1-2.5 1.1-3.8 4.4 0.6 9.1 2.4 13 4.7 3.8 2.2 7.2 5.2 9.7 8.8 3.4 5 4.6 10.8 5.1 16.8 0.5 6.7 0 13.3 0 20.1zm-4.2-13.5q0-0.9 0-1.7c0-0.4-0.6-0.4-0.6 0q0.1 0.8 0.1 1.7c0 0.3 0.5 0.3 0.5 0zm-44.2-28.2q1.6 0.6 3.3 0.9 0 18.9 0 37.8 0 2.5 0 5.1-3.3-0.1-6.6-0.2-2.5-0.1-5.1-0.3-0.8-6.9-1.6-13.9c-0.1-0.3-0.6-0.3-0.6 0q0.8 6.9 1.7 13.8-2.5-0.2-5-0.5-2.3-0.3-4.6-0.7c-0.3-0.1-1.4-0.4-1.3-0.1-0.1-0.2 0-0.6 0-0.8q-0.9-7.7-1.7-15.5 0 0 0 0 3.5-2.6 6.7-5.4c0.1-0.1 0.1-0.3 0-0.4q-0.8-1.6-1.7-3.2c5.4-1.3 12.9 1.5 15.9-4.6q0 0 0 0 0 0 0 0 0 0 0 0 0 0 0 0c0.7-1.6 1-3.3 1-4.9 0-1.5-0.1-3.3-0.8-4.7-1.2-2.2-3.9-2.9-6.3-3.1-1.9-0.1-4 0-5.9 0.4-0.4-2.5-0.6-5.2-1.6-7.5 2.4-0.5 4.8-1 7.3-1 0.5 3.9 3.4 7.3 6.9 8.8zm-17.4 21.7c-3.5 2.8-7.2 5.3-11 7.5-4.6 2.6-9.8 5.1-15.1 5.2-3.7 0.2-7.6-1.2-8.8-5-0.9-3.1 0.2-6.7 1.2-9.7 1-2.7 2.6-5.1 4.6-7.3 3.4-3.8 7.7-6.8 11.8-9.8 5.3-3.8 10.8-7 16.8-9.3q0.1 0.6 0 1c-0.1 1.8-0.3 3.5-0.6 5.3-0.1 0.7 0 1.9-0.4 2.5 0 0-0.9 0.8-1.2 1q-1.3 1.2-2.5 2.6-10.2 5.4-20.3 10.9c-0.4 0.1-0.1 0.6 0.2 0.5q10.1-5.4 20.2-10.8 2.9 5.5 5.8 11.1 0.6 1 1.1 2 0.1 0.3 0.3 0.5c-0.8 0.5-1.5 1.2-2.1 1.8zm-5.2-1.5c-5 2.5-9.6 6.1-14.1 9.5-0.3 0.2 0 0.7 0.3 0.5 4.5-3.4 9.1-7 14.1-9.5 0.3-0.1 0.1-0.6-0.3-0.5zm-7.2 2.1q1-0.6 2-1.3c0.3-0.1 0-0.6-0.3-0.4q-1 0.6-2 1.2c-0.3 0.2 0 0.7 0.3 0.5z"/>
	<g id="Clip-Path" clip-path="url(#cp6)">
		<g id="Layer">
			<path id="Layer" fill-rule="evenodd" class="s8" d="m117.9 199.8c0 0.2-0.1 0.3-0.2 0.3q-3.2 0.3-6.4 0.5c-10.1 0.9-20.3 1.4-30.5 1.6q-0.7 0-1.4 0 0 0 0 0-0.1 0-0.2 0 0 0 0 0-0.4 0-0.8 0-0.1 0-0.2 0-0.4 0.1-0.7 0.1-0.2 0-0.3 0-0.3 0-0.7 0-0.1 0-0.3 0-0.3 0-0.6 0-0.2 0-0.4 0-0.3 0-0.6 0-0.2 0-0.4 0-0.3 0-0.5 0-0.3 0-0.5 0-0.2 0-0.5 0-0.2 0-0.4 0-0.3 0-0.6 0-0.2 0-0.4 0-0.3 0-0.6 0-0.2 0-0.4 0-0.3 0-0.6 0-0.2 0-0.4 0-0.3 0-0.5 0-0.4-0.1-0.7-0.1-0.4 0-0.7 0-0.3 0-0.6 0-0.2 0-0.4 0-0.3 0-0.6 0-0.2 0-0.4 0-0.3-0.1-0.5-0.1-0.3 0-0.5 0-0.3 0-0.5 0-0.3 0-0.5 0-0.2-0.1-0.5-0.1-0.2 0-0.5 0-0.2 0-0.5 0-0.2-0.1-0.5-0.1-0.2 0-0.5 0-0.2 0-0.4 0-0.3-0.1-0.5-0.1-0.3 0-0.5 0-0.3-0.1-0.5-0.1-0.3 0-0.5 0-0.2-0.1-0.5-0.1-0.2 0-0.5 0-0.2-0.1-0.5-0.1-0.2 0-0.4-0.1-0.3 0-0.6 0-0.2-0.1-0.4-0.1-0.3 0-0.5-0.1-0.2 0-0.5 0-0.2-0.1-0.5-0.1-0.2 0-0.4-0.1-0.3 0-0.6-0.1-0.2 0-0.4 0-0.3-0.1-0.5-0.1-0.2-0.1-0.4-0.1-0.3-0.1-0.6-0.1-0.2-0.1-0.4-0.1-0.3-0.1-0.6-0.1-0.2-0.1-0.4-0.1-0.4-0.1-0.9-0.2c-0.1-0.1-0.2-0.2-0.2-0.3q-0.9-8-1.7-16-0.6 0.4-1.1 0.8-0.1 0-0.1 0-0.5 0.3-1 0.7-0.1 0-0.1 0-0.5 0.4-1 0.7-0.1 0-0.2 0.1-0.5 0.3-0.9 0.5-0.1 0.1-0.2 0.2-0.5 0.2-0.9 0.5-0.2 0.1-0.3 0.1-0.4 0.3-0.9 0.5-0.1 0.1-0.3 0.2-0.4 0.2-0.8 0.4-0.2 0.1-0.3 0.2-0.6 0.3-1.2 0.6c-5.3 2.6-14.2 6.1-19.5 1.4-3.9-3.5-2.2-9.6-0.6-13.8 2-5.1 6.1-8.9 10.3-12.3q0.3-0.2 0.7-0.5 0.1-0.1 0.3-0.3 0.2-0.1 0.3-0.2 0.7-0.5 1.4-1.1 0 0 0 0 0.3-0.2 0.6-0.4 0-0.1 0-0.1c6.2-4.6 12.7-8.7 19.9-11.3q0-0.2 0-0.3 0 0 0 0 0-0.1 0-0.2 0-0.1 0-0.1 0-0.1 0-0.2-0.1 0 0-0.1-0.1 0-0.1-0.1 0-0.1 0-0.1 0-0.1 0-0.2 0 0 0 0 0-0.1 0.1-0.2 0 0 0-0.1 0-0.1 0-0.1 0-0.1 0-0.1 0-0.1 0-0.2c0.1-0.7 0.6-1.1 1.3-1.1q0.1 0 0.2 0.1 0 0 0 0 0.1 0 0.1 0 0.1 0 0.1 0 0.1 0.1 0.1 0.1 0.1 0 0.1 0 0.1 0.1 0.1 0.1 0 0 0.1 0 0 0.1 0.1 0.1 0 0 0.1 0.1 0 0 0 0 0.1 0.1 0.1 0.1 0.1 0 0.1 0.1 0 0 0.1 0 0 0.1 0.1 0.1 0 0.1 0 0.1 0.1 0.1 0.1 0.1 0.1 0.1 0.1 0.1 0 0.1 0.1 0.1 0 0.1 0.1 0.1 0 0.1 0 0.1 0 0 0.1 0.1 0 0 0 0.1 0.1 0 0.1 0.1 0 0 0 0 0.1 0.1 0.1 0.2 0 0 0 0 0.1 0.1 0.1 0.1 0.4-0.1 0.8-0.2 0.1 0 0.1 0 0.4-0.1 0.8-0.2 0.1 0 0.1 0 0.4-0.1 0.8-0.2 0.1 0 0.1 0 0.9-0.1 1.8-0.3 0 0 0 0 0.4 0 0.8-0.1 0.1 0 0.1 0 0.4 0 0.9-0.1 0 0 0 0 0.5 0 0.9 0-0.8-0.7-1.5-1.5 0 0 0 0-0.2-0.2-0.3-0.3 0-0.1-0.1-0.1-0.1-0.2-0.2-0.3-0.1-0.1-0.1-0.1-0.3-0.4-0.5-0.8-0.1 0-0.1-0.1-0.1-0.1-0.2-0.3 0 0-0.1-0.1 0-0.2-0.1-0.3-0.1-0.1-0.1-0.1-0.1-0.2-0.2-0.4 0 0 0-0.1-0.1-0.2-0.2-0.4 0 0 0-0.1-0.1-0.2-0.2-0.3 0-0.1 0-0.2-0.1-0.1-0.1-0.3 0-0.1-0.1-0.2 0-0.1 0-0.3-0.1-0.1-0.1-0.1 0-0.3-0.1-0.5 0-0.3 0-0.5 0-0.1 0-0.2-0.1-0.1-0.1-0.3 0-0.1 0-0.2 0-0.1 0-0.3 0-0.1 0-0.2 0-0.1 0-0.3 0-0.1 0-0.2 0-0.1 0-0.3 0-0.1 0-0.2 0-0.1 0.1-0.3 0-0.1 0-0.2 0-0.2 0-0.4 0 0 0-0.1 0.1-0.2 0.1-0.4-0.5-0.2-1-0.5 0 0 0 0-0.1-0.1-0.3-0.1 0 0 0 0-0.1-0.1-0.2-0.2 0 0 0 0-0.1 0-0.2-0.1 0 0 0 0-0.1-0.1-0.2-0.2 0 0-0.1 0-0.1-0.1-0.2-0.1 0-0.1 0-0.1-0.1 0-0.2-0.1 0 0 0 0-0.1-0.1-0.1-0.2-0.1 0-0.1 0-0.1-0.1-0.1-0.2 0 0-0.1 0 0-0.1-0.1-0.2 0 0 0 0-0.1-0.1-0.2-0.2 0 0 0 0-0.1-0.1-0.1-0.2 0 0-0.1 0 0-0.1-0.1-0.2 0 0 0-0.1 0-0.1-0.1-0.1 0-0.1 0-0.1-0.1-0.1-0.1-0.2 0 0 0 0-0.1-0.1-0.1-0.2 0 0 0-0.1-0.1-0.1-0.1-0.1 0-0.1 0-0.1-0.1-0.1-0.1-0.2 0 0 0-0.1 0-0.1 0-0.1-0.1-0.1-0.1-0.1 0-0.1 0-0.2 0-0.1 0-0.1 0-0.1 0-0.2 0 0 0-0.1-0.1-0.1-0.1-0.1 0-0.1 0-0.2 0 0 0-0.1 0-0.1 0-0.1 0-0.1 0-0.2 0.1 0 0.1-0.1 0-0.1 0-0.1 0-0.1 0-0.2 0-0.1 0-0.1 0-0.1 0.1-0.2 0 0 0-0.1 0-0.1 0-0.2 0 0 0.1-0.1 0-0.1 0.1-0.3 0-0.1 0.1-0.3 0 0 0 0 0-0.1 0.1-0.2 0-0.1 0-0.1 0.1-0.1 0.1-0.2 0.1 0 0.1 0 0-0.1 0.1-0.2 0 0 0-0.1 0.1 0 0.1-0.1 0.1 0 0.1-0.1 0 0 0.1-0.1 0 0 0.1-0.1 0 0 0.1-0.1 0 0 0.1 0 0-0.1 0.1-0.1 0-0.1 0-0.1 0.1 0 0.1-0.1 0.1 0 0.1 0 0.1-0.1 0.1-0.1 0.1 0 0.1-0.1 0.1 0 0.2 0 0-0.1 0.1-0.1 0 0 0.1 0 0-0.1 0.1-0.1 0 0 0.1 0 0 0 0.1-0.1 0.1 0 0.1 0 0.1 0 0.1 0 0.1-0.1 0.1-0.1 0.1 0 0.2 0 0 0 0.1 0 0 0 0.1 0 0.1-0.1 0.1-0.1 0.1 0 0.1 0 0.1 0 0.2 0 0 0 0.1 0 0 0 0.1 0 0.1 0 0.1 0 0.1 0 0.2 0 0 0 0.1 0 0 0 0.1 0 0.1 0 0.1 0 0.1 0 0.2 0 0 0 0.1 0 0.1 0 0.1 0 0.1 0 0.1 0.1 0.1 0 0.2 0 0 0 0.1 0 0.1 0 0.1 0 0.1 0 0.2 0.1 0 0 0.1 0 0 0 0.1 0 0.1 0 0.1 0.1 0.1 0 0.2 0 0 0 0.1 0 0 0.1 0.1 0.1 0.1 0 0.1 0 0.1 0 0.2 0.1 0 0 0 0 0.1 0 0.2 0.1 0 0 0.1 0 0.1 0.1 0.1 0.1 0.2-0.6 0.4-1.2 0.2-0.6 0.4-1.2 0-0.3 0-0.7 0.1 0 0 0 0.1-0.1 0.1-0.3 0-0.1 0-0.1 0-0.4 0.1-0.8 0 0 0 0 0-0.2 0.1-0.5 0 0 0 0 0-0.2 0.1-0.4 0 0 0-0.1 0-0.2 0-0.4 0.1-0.1 0.1-0.1 0-0.2 0.1-0.5 0 0 0 0 0-0.2 0.1-0.4 0-0.1 0-0.2 0-0.2 0.1-0.4 0-0.1 0-0.1 0.1-0.2 0.1-0.4 0-0.1 0-0.1 0.1-0.3 0.2-0.5 0-0.1 0-0.2 0.1-0.2 0.2-0.4 0-0.1 0-0.1 0-0.2 0.1-0.5 0 0 0.1-0.1 0-0.2 0.1-0.5 0 0 0.1-0.1 0-0.2 0.1-0.4 0-0.1 0.1-0.1 0.1-0.3 0.2-0.5 0-0.1 0-0.2 0.1-0.2 0.2-0.5 0 0 0.1 0 0.1-0.3 0.2-0.5 0 0 0-0.1 0.1-0.2 0.3-0.5 0 0 0-0.1 0.1-0.2 0.3-0.4 0-0.1 0-0.1 0.1-0.2 0.3-0.5 0 0 0-0.1 0.2-0.2 0.3-0.5 0.1 0 0.1 0 0.1-0.2 0.3-0.4 0-0.1 0-0.1 0.2-0.3 0.4-0.5 0 0 0-0.1 0.2-0.2 0.4-0.4 0 0 0 0 0.2-0.2 0.4-0.4 0-0.1 0.1-0.1 0.2-0.2 0.4-0.4 0 0 0-0.1 0.2-0.1 0.4-0.3 0 0 0.1-0.1 0.2-0.1 0.4-0.3 0.1-0.1 0.1-0.1 0.2-0.2 0.5-0.3c7.1-4.7 12.6-3.6 15.3-3.7 2.7-0.2 6-0.4 6-0.4q-0.3 2.9-0.7 5.9c-0.2 1.1-0.3 2.1-0.2 3.2q0 1.1 0.2 2.3c0.3 2 0.7 4.1 0.9 6.1q0 0 0 0 0 0 0 0.1 0 0 0 0 0 0 0 0 0 0 0 0.1 0 0 0 0c0 0.2 0.1 0.8 0.1 1.3q0 0.1 0.1 0.2 0.2 0.7 0.5 1.5 0.3 0.9 0.6 1.8 0 0 0 0 0.1 0 0.2-0.1 0 0 0 0 0.1 0 0.2-0.1 0 0 0.1 0 0.1 0 0.2-0.1 0 0 0 0 0.1 0 0.2-0.1 0 0 0.1 0 0.1 0 0.2 0 0-0.1 0-0.1 0.1 0 0.2 0 0 0 0.1 0 0.1-0.1 0.1-0.1 0.1 0 0.1 0 0.1 0 0.2 0 0 0 0.1 0 0.1 0 0.1-0.1 0.1 0 0.1 0 0.1 0 0.2 0 0 0 0.1 0 0.1 0 0.1 0 0.1 0 0.1 0 0.1 0 0.2 0 0 0 0.1 0 0.1 0 0.1 0 0.1 0 0.1 0 0.1 0 0.2 0 0 0 0.1 0 0.1 0 0.1 0 0.1 0 0.1 0.1 0.1 0 0.2 0 0 0 0.1 0 0 0 0.1 0 0 0 0.1 0.1 0.1 0 0.1 0 0.1 0 0.1 0 0.1 0.1 0.2 0.1 0 0 0.1 0 0 0 0.1 0.1 0 0 0.1 0 0 0 0.1 0.1 0 0 0.1 0 0 0.1 0.1 0.1 0 0 0.1 0.1 0 0 0.1 0 0 0.1 0.1 0.1 0 0 0.1 0.1 0 0 0.1 0.1 0 0 0.1 0 0 0.1 0.1 0.1 0 0.1 0.1 0.1 0 0.1 0 0.1 0.1 0.1 0.1 0.1 0.1 0.1 0.1 0.1 0 0.1 0.1 0.1 0 0.1 0.1 0.2 0 0 0 0.1 0.1 0 0.1 0.1 0 0 0.1 0.1 0 0.1 0 0.2 0.1 0 0.1 0.1 0 0.1 0.1 0.2 0 0.2 0.1 0.3 0 0.1 0 0.1 0 0.1 0.1 0.2 0 0.1 0 0.1 0 0.1 0 0.2 0 0 0 0.1 0.1 0.1 0.1 0.2 0 0 0 0.1 0 0.1 0 0.1 0 0.1 0 0.2 0 0.1 0 0.1 0 0.1 0 0.2 0 0 0 0.1 0 0.1 0 0.1 0 0.1 0 0.2 0 0 0 0.1 0 0.1-0.1 0.1 0 0.1 0 0.2 0 0 0 0.1 0 0.1-0.1 0.1 0 0.1 0 0.1 0 0.1 0 0.2 0 0-0.1 0.1 0 0.1 0 0.1 0 0.1-0.1 0.1 0 0.1 0 0.2 0 0-0.1 0.1 0 0-0.1 0.1 0 0.1 0 0.1 0 0.1-0.1 0.2 0 0 0 0-0.1 0.1-0.1 0.2 0 0-0.1 0 0 0.1-0.1 0.2 0 0 0 0-0.1 0.1-0.2 0.2 0 0 0 0-0.1 0.1-0.1 0.2-0.1 0-0.1 0 0 0.1-0.1 0.2 0 0 0 0-0.1 0.1-0.2 0.2 0 0 0 0c-0.7 0.6-1.5 1.1-2.4 1.4q0 0.1 0 0.2 0 0.2 0 0.4 0 0.1 0 0.1 0.1 0.2 0.1 0.3 0 0.1 0 0.2 0 0.1 0 0.2 0 0.1 0 0.2 0 0.1 0 0.2 0 0.1 0 0.2 0 0.1 0 0.3 0 0.1 0 0.1 0 0.2 0 0.3 0 0.1 0 0.2-0.1 0.1-0.1 0.2 0 0.1 0 0.2 0 0.1 0 0.1 0 0.2 0 0.3-0.1 0-0.1 0.1 0 0.1 0 0.3 0 0-0.1 0.1 0 0.1 0 0.2 0 0.1 0 0.2-0.1 0.1-0.1 0.2 0 0.1 0 0.2-0.1 0.1-0.1 0.2 0 0.1-0.1 0.1 0 0.2 0 0.3 0 0-0.1 0.1 0 0.1-0.1 0.2 0 0.1 0 0.1-0.1 0.2-0.1 0.3 0 0 0 0.1-0.1 0.1-0.2 0.3 0 0 0 0-0.8 1.7-2.1 3.1 0 0 0 0-0.2 0.2-0.3 0.3 0 0 0 0-0.1 0.1-0.3 0.3 0 0 0 0-0.1 0.1-0.3 0.3 0 0 0 0-0.1 0.1-0.3 0.2-0.1 0.2-0.3 0.3 0.1 0 0.1 0 0.3 0 0.6 0.1 0.1 0 0.2 0 0.2 0.1 0.4 0.1 0.1 0.1 0.3 0.1 0.2 0 0.3 0.1 0.2 0 0.3 0 0.2 0.1 0.4 0.1 0.1 0.1 0.3 0.1 0.2 0.1 0.3 0.1 0.2 0 0.3 0.1 0.2 0 0.4 0.1 0.1 0 0.2 0.1 0.3 0.1 0.6 0.2c7.6 2.3 14.7 6.9 18.9 13.8 3.2 5.3 4 11.2 4.4 17.3 0.5 6.3-0.1 12.5-0.1 18.8zm-66.3-20.2c0.6-0.6 1.3-1.4 2.1-1.8q-0.2-0.2-0.3-0.5-0.5-1-1.1-2-2.9-5.6-5.8-11.1-10.1 5.4-20.2 10.8c-0.3 0.1-0.6-0.4-0.2-0.5q10.1-5.5 20.3-10.9 1.2-1.4 2.5-2.6c0.3-0.2 1.2-1 1.2-1 0.4-0.6 0.3-1.8 0.4-2.5 0.3-1.8 0.5-3.5 0.6-5.3q0.1-0.5 0-1c-6 2.3-11.5 5.5-16.8 9.3-4.1 3-8.4 6-11.8 9.8-2 2.2-3.6 4.6-4.6 7.3-1 3-2.1 6.6-1.2 9.7 1.2 3.8 5.1 5.2 8.8 5 5.3-0.1 10.5-2.6 15.1-5.2 3.8-2.2 7.5-4.7 11-7.5zm-4.9-1c-5 2.5-9.6 6.1-14.1 9.5-0.3 0.2-0.6-0.3-0.3-0.5 4.5-3.4 9.1-7 14.1-9.5 0.4-0.1 0.6 0.4 0.3 0.5zm16.7-39.2c3.6 0 7.4-1 9.1-1.5q-0.1-0.1-0.2-0.2c-0.4-0.5 0.2-1.3 0.4-1.7 1-1.8 2.2-3.8 2-5.9-0.1-1.3-0.7-2.6-1.6-3.5-0.2-0.3 0.2-0.7 0.4-0.4 1.3 1.3 2 3.3 1.8 5.1-0.2 1.5-1.1 3.1-1.8 4.4-0.2 0.3-0.8 1.1-0.8 1.4 0.1 0.6 1.1 0.1 1.4-0.2 0.2-0.1 0.4 0.1 0.4 0.3 0.1 1.5 2 1.2 2.1-0.2 0-0.3 0.3-0.4 0.5-0.2 0.2 0.2 0.6 0.7 0.9 0.8 1.7 0.1 0.3-1.4 0.2-1.6-0.1-0.1-0.2-0.2-0.3-0.3-0.3-0.2 0.1-0.6 0.4-0.3 0.7 0.5 1.6 1.8 0.7 2.6q0 0-0.1 0.1c1.3 0.3 5.5 1.3 9.6 1.3 3.7 0 5-1.6 5.4-2.5q-0.2-0.7-0.4-1.5c-0.3-1-0.8-1.9-1.2-2.9-0.7-1.6-1.2-3.4-1.8-5.2-4.2-0.5-6.7-7.1-6.7-7.1 0 0-1.8 1.6-7.4 2-5.7 0.3-8.2-2-8.2-2-1.1 3.2-5.3 6.3-6.5 7.2-0.6 1.8-1.1 3.6-1.8 5.3-0.6 1.3-1.1 2.6-1.5 3.9 0.1 0.6 0.8 2.8 5 2.8zm15.7-12.8c1.8-2.2 4.5-2.2 6.5-0.3 0.2 0.3-0.2 0.7-0.4 0.4-1.8-1.8-4.1-1.6-5.7 0.3-0.2 0.3-0.6-0.1-0.4-0.4zm-14.1 7.8c0-1.9 0.5-5.2 2.8-5.4 2.6-0.2 3.5 2.9 3.6 5 0 0.3-0.6 0.3-0.6 0 0-1.7-0.8-4.9-3.1-4.4-1.9 0.3-2.2 3.2-2.1 4.8 0 0.3-0.6 0.3-0.6 0zm20.9 0c0 0.3-0.5 0.3-0.5 0 0-1.6-0.3-4.5-2.2-4.8-2.3-0.5-3 2.7-3.1 4.4 0 0.3-0.6 0.3-0.5 0 0-2.1 0.9-5.2 3.5-5 2.4 0.2 2.9 3.5 2.8 5.4zm31.5 45.1c-0.5-6-1.7-11.8-5.1-16.8-2.5-3.6-5.9-6.6-9.7-8.8-3.8-2.3-8.6-4.1-13-4.7 0 1.3-0.5 2.7-1.1 3.8-1.4 2.6-3.9 4.2-6.6 5.1q-1.1 0.3-2.3 0.6 0 0 0 0 0 2.7 0 5.4 0 18.8 0 37.6 4.8-0.1 9.6-0.3 0.7 0 1.4 0 0.3-9.2 0.6-18.3c0-0.4 0.6-0.4 0.6 0q-0.4 9.1-0.7 18.2 5.4-0.2 10.8-0.5 0.1-1.6 0.2-3.3 0.4-8 0.8-16.1-2-2.9-4-5.9c-0.2-0.3 0.2-0.6 0.5-0.3q1.8 2.7 3.6 5.3 0.1-3.4 0.3-6.8c0-0.3 0.6-0.3 0.6 0q-0.1 1.7-0.2 3.4-0.1 2.1-0.2 4.2 0 0.1 0 0.2-0.5 9.6-1 19.3 7.4-0.5 14.9-1.2c0-6.8 0.5-13.4 0-20.1zm-25.7-50.2q0.5 1.7 1.2 3.2 0.1 0.2 0.1 0.3c0.4-1.3 1.6-2.4 3-2.7 0.3-0.1 0.4 0.4 0.1 0.5-0.7 0.2-1.3 0.6-1.8 1.1 0.7 0.2 1.4 1.1 1.7 1.6 0.3 0.3-0.2 0.6-0.4 0.3-0.4-0.5-0.8-1-1.4-1.3 0 0-0.2-0.1-0.2-0.1q-0.1 0-0.1 0-0.3 0.6-0.5 1.3 0 0.1 0 0.1c0.4 1.1 0.8 2.2 1 3.3 2.5-0.8 4.4-3 3.6-5.7-0.9-2.9-3.9-3.1-6.3-1.9zm-33.2 5c0.1-0.3 0.2-0.6 0.4-0.9q-0.1-0.6-0.4-1.2-0.1 0-0.2 0c0.1 0 0 0 0 0-0.1 0-0.2 0.1-0.3 0.1-0.6 0.3-1 0.8-1.3 1.3-0.2 0.3-0.7 0-0.5-0.3 0.4-0.5 1.1-1.5 1.9-1.6-0.4-0.5-1-0.9-1.7-1.1-0.3-0.1-0.2-0.6 0.2-0.5 1.2 0.3 2.3 1.3 2.7 2.5q0-0.1 0.1-0.2 0.6-1.5 1.1-3.1c-2.4-1.2-5.4-1-6.2 1.9-0.8 2.7 1 4.9 3.4 5.7q0.3-1.3 0.8-2.6zm-0.2-2.1q0 0 0 0 0 0 0 0zm7.3-5.6c1.7-2.2 4.5-2.2 6.4-0.3 0.3 0.3-0.1 0.7-0.4 0.4-1.8-1.8-4.1-1.6-5.7 0.3-0.2 0.3-0.6-0.1-0.3-0.4zm14.5 16.1c-0.5-0.2-1 0.8-1.3 1q-0.3 0.2-0.6 0.4 0.1 1.1 0.2 2.2c0.6-0.4 1.1-0.9 1.4-1.5 0.3-0.5 0.8-1.5 0.3-2.1zm-2.2 3.9q0 0 0-0.1-0.1-1.1-0.2-2.2-0.7 0.2-1.3 0.3-0.9 0.1-1.7-0.2 0 1.1 0 2.3c0.8 0.3 1.7 0.4 2.6 0.1q0.3-0.1 0.6-0.2zm-3.5 7.2q0.8 2.1 1.7 4.2 0.8-2.2 1.7-4.3-1.7 0.2-3.4 0.1zm-0.4-9.7c-0.6-0.2-1.6-1.5-2.1-0.8-0.6 1 1.1 2.4 1.8 2.8q0.2 0.2 0.4 0.3 0-1.1 0-2.2 0 0-0.1-0.1zm-23.2 15.2c-0.2 1.1-0.6 1.2-1.5 2.1q-0.6 0.6-1.3 1.2l6.5 11c1.3-0.1 2.6-0.1 3.9-0.2 2 0 4.2 0.3 6.1-0.5 1.4-0.5 2.5-1.6 3.2-2.9-1.9-0.2-4-0.4-5.8-1.2-0.4-0.2-1-0.4-1.4-0.8-0.2-0.3 0.2-0.7 0.4-0.4 0.3 0.3 0.9 0.6 1.4 0.8 1.8 0.7 3.8 0.9 5.7 1.1 0.4-1.1 0.7-2.2 0.8-3.3-2.6 0.1-5.9 0.2-8.2-1.2-0.3-0.2 0-0.6 0.3-0.5 2.2 1.4 5.4 1.2 7.9 1.1q0 0 0 0 0.1-0.7 0-1.4c0-0.7-0.1-1.5-0.2-2.3-2.5 0.3-5.7 0.5-8-0.7-0.3-0.1 0-0.6 0.3-0.5 2.1 1.2 5.2 0.9 7.5 0.7-0.1-0.6-0.4-1.2-0.9-1.7-2.5-2.7-7.9-2.2-11.2-1.5-0.2 0-0.3-0.1-0.4-0.2q-0.3-2.1-0.7-4.3c-0.3-1.5-0.5-3-1.4-4.3-0.5-0.7-2.1-2-2.2-0.3 0 1.7 0.1 3.3-0.1 5q-0.3 2.6-0.7 5.2zm-11.9 20.4q1-0.6 2-1.2c0.3-0.2 0.6 0.3 0.3 0.4q-1 0.7-2 1.3c-0.3 0.2-0.6-0.3-0.3-0.5zm33.4-20.9q-1.7-0.3-3.3-0.9c-3.5-1.5-6.4-4.9-6.9-8.8-2.5 0-4.9 0.5-7.3 1.1 1 2.2 1.2 4.9 1.6 7.4 1.9-0.4 4-0.5 5.9-0.4 2.4 0.2 5.1 0.9 6.3 3.1 0.7 1.4 0.8 3.2 0.8 4.7 0 1.6-0.3 3.3-1 4.9q0 0 0 0 0 0 0 0 0 0 0 0 0 0 0 0c-3 6.1-10.5 3.3-15.9 4.6q0.9 1.6 1.7 3.2c0.1 0.1 0.1 0.3 0 0.4q-3.2 2.8-6.7 5.4 0 0 0 0 0.8 7.8 1.7 15.5c0 0.2-0.1 0.6 0 0.8-0.1-0.3 1 0 1.3 0.1q2.3 0.4 4.6 0.7 2.5 0.3 5 0.5-0.9-6.9-1.7-13.8c0-0.3 0.5-0.3 0.6 0q0.8 7 1.6 13.9 2.6 0.2 5.1 0.3 3.3 0.1 6.6 0.2 0-2.6 0-5.1 0-18.9 0-37.8zm3.4-0.3q-0.9-2.4-1.9-4.8c-2.5-0.2-5.1-0.9-7.6-2.2-1.2-0.7-2.4-1.4-3.5-2.3 0.1 1.2 0.7 2.5 1.3 3.5 2.3 4.2 7 5.9 11.7 5.8zm3.3 0.3c-2 0.3-4.1 0.4-6.1 0.1q0 2.6 0 5.2 0 18.8 0 37.6 3 0 6.1 0 0-2.6 0-5.1 0-18.9 0-37.8zm4.1-1.8c3-1.3 5.8-4.2 5.9-7.6q-0.9 0.6-1.8 1.2-1.1 0.6-2.1 1.1c-2.2 1-4.4 1.6-6.7 1.9q-1 2.5-2 4.9 0.6 0 1.1-0.1 0.9 0 1.7-0.2c1.4-0.3 2.7-0.7 3.9-1.2zm30.1 27.4q0 0.8 0 1.7c0 0.3-0.5 0.3-0.5 0q0-0.9-0.1-1.7c0-0.4 0.6-0.4 0.6 0zm-38.7-20.6c0.7-0.7 1.8-0.7 2.6 0 0.7 0.8 0.7 1.9 0 2.6-0.8 0.8-1.9 0.8-2.6 0-0.8-0.7-0.8-1.8 0-2.6zm0 11.8c-0.8-0.7-0.8-1.9 0-2.6 0.7-0.7 1.8-0.7 2.6 0 0.7 0.7 0.7 1.9 0 2.6-0.8 0.8-1.9 0.8-2.6 0zm3 8.6c-0.4 1-1.5 1.4-2.4 1-1-0.4-1.4-1.4-1-2.4 0.3-0.9 1.4-1.4 2.4-1 0.9 0.4 1.4 1.5 1 2.4zm-0.4 7.5c0.7 0.7 0.7 1.9 0 2.6-0.8 0.7-1.9 0.7-2.6 0-0.8-0.7-0.8-1.9 0-2.6 0.7-0.7 1.8-0.7 2.6 0z"/>
		</g>
	</g>
	<g id="Layer">
		<g id="Layer">
			<g id="Layer">
				<path id="Layer" fill-rule="evenodd" class="s9" d="m49 37.3h-10v-21.1h10v1.2h-8.9v18.7h8.9zm-1.8-7.9h-5.5v5.1h7.3v1.2h-8.5v-7.4h6.7zm-5.5-2.9h5.5v1.3h-6.7v-10.1h8.5v1.2h-7.3z"/>
			</g>
		</g>
	</g>
	<g id="Layer">
		<g id="Layer">
			<g id="Layer">
				<path id="Layer" fill-rule="evenodd" class="s9" d="m64.5 22.8l-5.2 14.5h-1.9l-5.2-14.5h1.3l0.9 2.5 3.8 10.7h0.3l3.6-10 1.1-3.2zm-2.9 0h1.3l-1.1 3.1-3.4 9.4-3.6-10.1-0.8-2.4h1.2l3.2 8.9z"/>
			</g>
		</g>
	</g>
	<g id="Layer">
		<g id="Layer">
			<g id="Layer">
				<path id="Layer" fill-rule="evenodd" class="s9" d="m70.3 31.5q0.4 1.4 1.7 2.4 1.2 0.9 2.7 0.9 1.3 0 2.3-0.6 1-0.5 1.7-1.5l0.9 0.7q-0.8 1.2-2 1.9-1.3 0.7-2.9 0.7-1.2 0-2.2-0.5-1.1-0.5-1.9-1.2-0.7-0.8-1.2-1.8-0.5-1.1-0.6-2.2h12.3v-0.2q0-1.3-0.5-2.5-0.5-1.1-1.4-2-0.8-0.9-2-1.4-1.2-0.5-2.5-0.5-1.3 0-2.4 0.5-1.1 0.5-2 1.4-0.9 0.9-1.4 2-0.4 1.2-0.4 2.5 0 1.3 0.5 2.5 0.5 1.1 1.3 2 0.9 0.8 2 1.3 1.2 0.5 2.4 0.5 1.7 0 3.1-0.8 1.4-0.8 2.2-2l1 0.7q-1.1 1.5-2.7 2.4-1.7 0.9-3.6 0.9-1.5 0-2.8-0.6-1.4-0.6-2.4-1.6-1-1.1-1.6-2.4-0.6-1.4-0.6-2.9 0-1.5 0.5-2.9 0.6-1.4 1.6-2.4h0.1q1-1.1 2.4-1.6 1.4-0.6 2.8-0.6 1.6 0 2.9 0.6 1.4 0.6 2.4 1.6 1.1 1 1.7 2.4 0.6 1.4 0.6 2.9v1.4zm-1.5-1.6q0.1-1.2 0.6-2.2 0.5-1.1 1.2-1.8 0.8-0.8 1.9-1.3 1-0.4 2.2-0.4 1.3 0 2.3 0.4 1.1 0.5 1.9 1.3 0.8 0.7 1.2 1.8 0.5 1 0.5 2.2zm10.5-1.2q-0.5-1.5-1.8-2.4-1.2-0.9-2.8-0.9-1.9 0-3.3 1.3-0.8 0.8-1.2 2z"/>
			</g>
		</g>
	</g>
	<g id="Layer">
		<g id="Layer">
			<g id="Layer">
				<path id="Layer" fill-rule="evenodd" class="s9" d="m87.6 23.6q0.8-0.5 1.7-0.7 0.9-0.3 1.9-0.3 1.2 0 2.4 0.5 1.1 0.5 2 1.3 0.8 0.9 1.3 2 0.5 1.1 0.5 2.4v8.5h-1.2v-8.5q0-1-0.4-1.9-0.4-0.9-1.1-1.6-0.7-0.7-1.6-1.1-0.9-0.5-1.9-0.5-1.7 0-2.9 0.9-1.2 0.9-1.8 2.2v-4h1.1zm8.2 13.7h-1.2v-8.5q0-0.7-0.3-1.3-0.2-0.6-0.7-1.1-0.5-0.5-1.1-0.8-0.6-0.2-1.3-0.2-0.8 0-1.4 0.2-0.6 0.3-1.1 0.8-0.5 0.5-0.8 1.1-0.3 0.6-0.3 1.3v8.5h-1.1v-8.5q0-0.9 0.3-1.8 0.4-0.8 1-1.5 0.7-0.6 1.5-1 0.9-0.3 1.9-0.3 0.9 0 1.8 0.3 0.8 0.4 1.5 1 0.6 0.7 1 1.5 0.3 0.9 0.3 1.8zm-9.7 0h-1.2v-14.4h1.2z"/>
			</g>
		</g>
	</g>
	<g id="Layer">
		<g id="Layer">
			<g id="Layer">
				<path id="Layer" fill-rule="evenodd" class="s9" d="m100.6 16.2h1.2v7.8h-2.6v-1.2h1.4zm1.2 8.3v7.3q0 0.9 0.3 1.7 0.4 0.9 1 1.5 0.6 0.6 1.4 1 0.8 0.4 1.8 0.4h0.2v1.2q-1.2 0-2.2-0.5-1.1-0.4-1.9-1.2-0.9-0.9-1.3-1.9-0.5-1.1-0.5-2.3v-6.1h-1.4v-1.1zm4.5 11.5q-0.9 0-1.6-0.4-0.8-0.3-1.3-0.9-0.6-0.6-0.9-1.3-0.3-0.8-0.3-1.6v-7.3h3.6v1.1h-2.4v6.1q0 1.3 0.9 2.2 0.9 0.9 2.2 0.9v1.2zm-4.1-11.9v-7.9h1.2v6.7h2.4v1.2z"/>
			</g>
		</g>
	</g>
	<g id="Layer">
		<g id="Layer">
			<g id="Layer">
				<path id="Layer" class="s10" d="m28.5 92.3l0.1-0.1q1.5-1 2.4-2.5 0.9-1.5 0.9-3.3v-16.7h0.9v16.7q0 2.2-0.9 3.8-1 1.6-2.9 2.9zm4.7-22.5h1v16.7q0 1.2-0.3 2.3-0.3 1.1-0.9 2.2-0.6 1-1.4 1.8-0.8 0.9-1.9 1.5l-0.5-0.8q2-1.4 3-3.1 1-1.7 1-3.9z"/>
			</g>
		</g>
	</g>
	<g id="Layer">
		<g id="Layer">
			<g id="Layer">
				<path id="Layer" fill-rule="evenodd" class="s10" d="m39.7 82.3q0.4 1.3 1.4 2 1 0.8 2.3 0.8 1 0 1.8-0.5 0.9-0.4 1.4-1.2l0.8 0.5q-0.7 1-1.7 1.6-1 0.5-2.3 0.5-1 0-1.9-0.3-0.9-0.4-1.5-1-0.7-0.7-1.1-1.5-0.4-0.9-0.4-1.9h10.1v-0.1q0-1.1-0.4-2-0.4-1-1.1-1.7-0.7-0.7-1.7-1.1-0.9-0.4-2-0.4-1.1 0-2 0.4-1 0.4-1.7 1.1-0.7 0.7-1.1 1.7-0.4 0.9-0.4 2 0 1.1 0.4 2 0.4 1 1.1 1.7 0.7 0.7 1.7 1.1 0.9 0.4 2 0.4 1.3 0 2.5-0.6 1.1-0.7 1.8-1.7l0.8 0.6q-0.9 1.2-2.2 2-1.4 0.7-2.9 0.7-1.3 0-2.4-0.5-1.1-0.5-2-1.3-0.8-0.9-1.3-2-0.5-1.1-0.5-2.4 0-1.3 0.5-2.4 0.4-1.1 1.3-2 0.9-0.9 2-1.3 1.2-0.5 2.4-0.5 1.3 0 2.4 0.5 1.1 0.5 2 1.3 0.8 0.9 1.3 2 0.5 1.1 0.5 2.4v1.1zm-1.2-1.3q0-0.9 0.5-1.8 0.4-0.9 1-1.5 0.7-0.7 1.5-1 0.9-0.4 1.9-0.4 1 0 1.9 0.4 0.9 0.3 1.5 1 0.7 0.6 1.1 1.5 0.3 0.9 0.4 1.8zm8.6-1q-0.4-1.2-1.4-2-1-0.7-2.3-0.7-1.6 0-2.8 1.1-0.7 0.7-1 1.6z"/>
			</g>
		</g>
	</g>
	<g id="Layer">
		<g id="Layer">
			<g id="Layer">
				<path id="Layer" fill-rule="evenodd" class="s10" d="m54.2 82.3q0.4 1.3 1.5 2 1 0.8 2.3 0.8 1 0 1.8-0.5 0.8-0.4 1.4-1.2l0.8 0.5q-0.7 1-1.7 1.6-1 0.5-2.3 0.5-1 0-1.9-0.3-0.9-0.4-1.5-1-0.7-0.7-1.1-1.5-0.4-0.9-0.4-1.9h10.1v-0.1q0-1.1-0.4-2-0.4-1-1.2-1.7-0.7-0.7-1.6-1.1-1-0.4-2-0.4-1.1 0-2.1 0.4-0.9 0.4-1.6 1.1-0.7 0.7-1.1 1.7-0.5 0.9-0.4 2 0 1.1 0.4 2 0.4 1 1.1 1.7 0.7 0.7 1.7 1.1 0.9 0.4 2 0.4 1.3 0 2.5-0.6 1.1-0.7 1.8-1.7l0.8 0.6q-0.9 1.2-2.3 2-1.3 0.7-2.8 0.7-1.3 0-2.4-0.5-1.1-0.5-2-1.3-0.9-0.9-1.3-2-0.5-1.1-0.5-2.4 0-1.3 0.4-2.4 0.5-1.1 1.4-2 0.9-0.9 2-1.3 1.1-0.5 2.4-0.5 1.2 0 2.4 0.5 1.1 0.5 1.9 1.3 0.9 0.9 1.4 2 0.5 1.1 0.5 2.4v1.1zm-1.2-1.3q0-0.9 0.4-1.8 0.4-0.9 1.1-1.5 0.6-0.7 1.5-1 0.9-0.4 1.9-0.4 1 0 1.9 0.4 0.9 0.3 1.5 1 0.7 0.6 1 1.5 0.4 0.9 0.5 1.8zm8.6-1q-0.4-1.2-1.5-2-1-0.7-2.3-0.7-1.6 0-2.7 1.1-0.7 0.7-1 1.6z"/>
			</g>
		</g>
	</g>
	<g id="Layer">
		<g id="Layer">
			<g id="Layer">
				<path id="Layer" fill-rule="evenodd" class="s10" d="m66.6 69.7h1v6.5h-2.2v-1h1.2zm1 6.8v6q0 0.8 0.3 1.5 0.3 0.7 0.8 1.2 0.5 0.5 1.2 0.9 0.6 0.3 1.4 0.3h0.2v1q-1 0-1.9-0.4-0.9-0.4-1.5-1.1-0.7-0.7-1.1-1.5-0.4-0.9-0.4-1.9v-5h-1.2v-1zm3.8 9.5q-0.7 0-1.4-0.2-0.6-0.3-1.1-0.8-0.4-0.5-0.7-1.1-0.2-0.6-0.2-1.4v-6h2.9v1h-2v5q0 1.1 0.8 1.8 0.8 0.8 1.8 0.8v0.9zm-3.4-9.8v-6.5h1v5.5h2v1z"/>
			</g>
		</g>
	</g>
	<g id="Layer">
		<g id="Layer">
			<g id="Layer">
			</g>
		</g>
	</g>
	<g id="Layer">
		<g id="Layer">
			<g id="Layer">
				<path id="Layer" class="s10" d="m87.9 72.5q-0.3-0.4-0.7-0.6-0.5-0.2-1-0.2-0.8 0-1.4 0.6-0.7 0.6-0.7 1.5 0 0.6 0.3 1 0.3 0.5 0.7 0.8 0.4 0.3 0.9 0.5 0.5 0.2 0.9 0.4 1 0.4 1.8 0.9 0.9 0.4 1.5 1.1 0.6 0.6 1 1.4 0.3 0.9 0.3 2.1 0 1.1-0.4 2.1-0.4 1-1.2 1.7-0.7 0.8-1.7 1.2-1 0.5-2.2 0.5-1.6 0-2.8-0.8-1.3-0.8-2-2.1l0.8-0.5q0.6 1.1 1.7 1.8 1.1 0.6 2.3 0.6 0.9 0 1.8-0.4 0.8-0.3 1.4-1 0.6-0.6 1-1.4 0.3-0.8 0.3-1.7 0-1.3-0.5-2.1-0.6-0.8-1.4-1.4-0.8-0.5-1.8-0.9-0.9-0.4-1.7-0.9-0.9-0.5-1.4-1.1-0.6-0.7-0.6-1.8 0-0.6 0.3-1.2 0.2-0.6 0.7-1 0.4-0.4 1-0.6 0.5-0.3 1.1-0.3 0.8 0 1.4 0.3 0.5 0.3 1.1 0.9zm-4.8 11h0.1q0.4 0.8 1.2 1.2 0.7 0.4 1.6 0.4 0.6 0.1 1.2-0.2 0.6-0.3 1.1-0.7 0.4-0.4 0.6-1 0.3-0.6 0.3-1.3 0-1-0.6-1.6-0.5-0.7-1.3-1.1-0.8-0.5-1.8-0.9-1-0.4-1.8-1-0.8-0.5-1.4-1.3-0.5-0.9-0.5-2.2 0-0.9 0.3-1.7 0.4-0.8 1-1.4 0.6-0.6 1.4-1 0.8-0.3 1.7-0.3 1 0 1.9 0.4 0.9 0.5 1.5 1.2l-0.7 0.6q-0.6-0.5-1.3-0.9-0.6-0.3-1.4-0.3-0.7 0-1.3 0.2-0.6 0.3-1.1 0.8-0.5 0.5-0.8 1.1-0.2 0.6-0.2 1.3 0 1.2 0.5 1.9 0.6 0.7 1.4 1.2 0.8 0.5 1.8 0.9 0.9 0.4 1.8 0.9 0.8 0.5 1.3 1.3 0.6 0.7 0.6 1.9 0 0.9-0.4 1.7-0.3 0.7-0.9 1.3-0.6 0.6-1.3 0.9-0.8 0.3-1.6 0.3-1.2 0-2.2-0.6-1-0.6-1.5-1.6z"/>
			</g>
		</g>
	</g>
	<g id="Layer">
		<g id="Layer">
			<g id="Layer">
				<path id="Layer" fill-rule="evenodd" class="s10" d="m96 75.9q0.6-0.5 1.4-0.7 0.7-0.2 1.5-0.2 1 0 2 0.4 0.9 0.4 1.6 1.1 0.7 0.7 1.2 1.6 0.4 1 0.4 2.1v7h-1v-7q0-0.9-0.4-1.7-0.3-0.7-0.9-1.3-0.5-0.6-1.3-0.9-0.7-0.3-1.6-0.3-1.3 0-2.4 0.7-1 0.7-1.5 1.8v-8.8h1zm6.8 11.3h-1v-7q0-0.6-0.3-1.1-0.2-0.5-0.6-0.9-0.4-0.4-0.9-0.6-0.5-0.3-1.1-0.3-1.2 0-2 0.8-0.9 0.9-0.9 2.1v7h-1v-7q0-0.8 0.3-1.5 0.3-0.7 0.9-1.2 0.5-0.5 1.2-0.8 0.7-0.4 1.5-0.4 0.8 0 1.5 0.4 0.7 0.3 1.2 0.8 0.6 0.5 0.9 1.2 0.3 0.7 0.3 1.5zm-8.1 0h-1v-17.5h1z"/>
			</g>
		</g>
	</g>
	<g id="Layer">
		<g id="Layer">
			<g id="Layer">
				<path id="Layer" fill-rule="evenodd" class="s10" d="m106.7 87.2v-12h1v12zm1.3-12h1v12h-1zm-0.2-5.7q0.6 0 1 0.4 0.5 0.4 0.5 1 0 0.6-0.5 1-0.4 0.4-1 0.4-0.5 0-0.9-0.4-0.4-0.4-0.4-1 0-0.6 0.4-1 0.4-0.4 0.9-0.4zm0 0.8q-0.2 0-0.4 0.2-0.2 0.2-0.2 0.4 0 0.3 0.2 0.5 0.2 0.1 0.4 0.1 0.3 0 0.5-0.1 0.2-0.2 0.2-0.5 0-0.2-0.2-0.4-0.2-0.2-0.5-0.2zm0 0.3q0.4 0 0.4 0.3 0 0.3-0.4 0.3-0.2 0-0.2-0.3 0-0.3 0.2-0.3z"/>
			</g>
		</g>
	</g>
	<g id="Layer">
		<g id="Layer">
			<g id="Layer">
				<path id="Layer" class="s10" d="m111.6 69.7h1v17.5h-1zm2.3 0v17.4h-1v-17.4z"/>
			</g>
		</g>
	</g>
	<g id="Layer">
		<g id="Layer">
			<g id="Layer">
				<path id="Layer" class="s10" d="m116.5 69.7h1v17.5h-1zm2.3 0v17.4h-0.9v-17.4z"/>
			</g>
		</g>
	</g>
	<g id="Layer">
		<g id="Layer">
			<g id="Layer">
				<path id="Layer" fill-rule="evenodd" class="s10" d="m14.6 219.8h-0.3v-6.2h1.6q0.4 0 0.8 0.2 0.4 0.1 0.6 0.4 0.3 0.3 0.5 0.7 0.1 0.3 0.1 0.7 0 0.3-0.1 0.6-0.1 0.3-0.2 0.6-0.2 0.2-0.4 0.4-0.3 0.2-0.6 0.3l1.7 2.3h-0.5l-1.3-1.9-0.5-0.6q0.4 0 0.6-0.2 0.3-0.1 0.5-0.3 0.2-0.2 0.3-0.5 0.2-0.3 0.2-0.7 0-0.3-0.2-0.6-0.1-0.3-0.3-0.5-0.2-0.3-0.5-0.4-0.3-0.1-0.7-0.1h-1.3zm0.1-2.6v-3.1h1.2q0.3 0 0.6 0.1 0.3 0.2 0.5 0.4 0.2 0.2 0.3 0.5 0.2 0.2 0.2 0.5 0 0.4-0.2 0.6-0.1 0.3-0.3 0.5-0.2 0.2-0.5 0.4-0.3 0.1-0.6 0.1zm1 0.4h-0.6v2.2h-0.4v-2.5h1.2l1.8 2.5h-0.4zm-0.7-3.2v2.4h0.9q0.2 0 0.4-0.1 0.3-0.1 0.4-0.3 0.2-0.2 0.3-0.4 0.1-0.2 0.1-0.4 0-0.3-0.1-0.5-0.1-0.2-0.3-0.4-0.2-0.1-0.4-0.2-0.2-0.1-0.4-0.1z"/>
			</g>
		</g>
	</g>
	<g id="Layer">
		<g id="Layer">
			<g id="Layer">
				<path id="Layer" fill-rule="evenodd" class="s10" d="m19.8 218.1q0.2 0.4 0.5 0.7 0.4 0.2 0.9 0.2 0.3 0 0.6-0.1 0.3-0.2 0.5-0.5l0.3 0.2q-0.3 0.4-0.6 0.6-0.4 0.2-0.8 0.2-0.4 0-0.7-0.2-0.3-0.1-0.5-0.3-0.3-0.2-0.4-0.5-0.2-0.3-0.2-0.7h3.6q0-0.4-0.2-0.7-0.1-0.4-0.4-0.6-0.2-0.3-0.5-0.4-0.4-0.2-0.7-0.2-0.4 0-0.8 0.2-0.3 0.1-0.5 0.4-0.3 0.2-0.4 0.6-0.2 0.3-0.2 0.7 0 0.3 0.2 0.7 0.1 0.3 0.4 0.6 0.2 0.2 0.5 0.3 0.4 0.2 0.8 0.2 0.4 0 0.8-0.2 0.4-0.3 0.7-0.6l0.2 0.2q-0.3 0.4-0.7 0.7-0.5 0.2-1 0.2-0.5 0-0.9-0.1-0.4-0.2-0.7-0.5-0.3-0.3-0.4-0.7-0.2-0.4-0.2-0.8 0-0.5 0.1-0.9 0.2-0.4 0.5-0.7 0.3-0.3 0.7-0.4 0.4-0.2 0.9-0.2 0.4 0 0.8 0.2 0.4 0.1 0.7 0.4 0.3 0.3 0.5 0.7 0.1 0.4 0.1 0.9v0.4zm-0.4-0.5q0-0.3 0.2-0.6 0.1-0.3 0.3-0.6 0.3-0.2 0.6-0.3 0.3-0.2 0.6-0.2 0.4 0 0.7 0.2 0.3 0.1 0.5 0.3 0.3 0.3 0.4 0.6 0.1 0.3 0.1 0.6zm3.1-0.3q-0.2-0.5-0.5-0.7-0.4-0.3-0.8-0.3-0.6 0-1 0.4-0.2 0.2-0.4 0.6z"/>
			</g>
		</g>
	</g>
	<g id="Layer">
		<g id="Layer">
			<g id="Layer">
				<path id="Layer" fill-rule="evenodd" class="s10" d="m28.1 218.7q-0.2 0.5-0.8 0.8-0.5 0.3-1 0.3-0.5 0-0.9-0.1-0.4-0.2-0.7-0.5-0.3-0.3-0.4-0.7-0.2-0.4-0.2-0.8 0-0.5 0.2-0.9 0.1-0.4 0.4-0.7 0.3-0.3 0.7-0.4 0.4-0.2 0.9-0.2 0.6 0 1.1 0.3 0.5 0.3 0.7 0.8l-0.2 0.1q-0.1-0.1-0.2-0.2 0-0.1-0.1-0.1-0.6-0.6-1.3-0.6-0.4 0-0.8 0.2-0.3 0.1-0.5 0.4-0.3 0.2-0.4 0.6-0.2 0.3-0.2 0.7 0 0.3 0.2 0.7 0.1 0.3 0.4 0.6 0.2 0.2 0.5 0.3 0.4 0.2 0.8 0.2 0.7 0 1.3-0.6 0.1 0 0.1-0.1 0.1-0.1 0.2-0.2zm-0.7-1.8q-0.2-0.3-0.5-0.5-0.4-0.2-0.7-0.2-0.6 0-1 0.4-0.4 0.4-0.4 1 0 0.3 0.1 0.5 0.1 0.3 0.3 0.4 0.2 0.2 0.5 0.3 0.2 0.1 0.5 0.1 0.3 0 0.7-0.1 0.3-0.2 0.5-0.5l0.3 0.1q-0.3 0.4-0.7 0.7-0.4 0.2-0.8 0.2-0.4 0-0.7-0.1-0.3-0.2-0.5-0.4-0.3-0.2-0.4-0.5-0.1-0.3-0.1-0.7 0-0.4 0.1-0.7 0.1-0.3 0.4-0.5 0.2-0.3 0.5-0.4 0.3-0.1 0.7-0.1 0.5 0 0.9 0.2 0.4 0.2 0.6 0.6z"/>
			</g>
		</g>
	</g>
	<g id="Layer">
		<g id="Layer">
			<g id="Layer">
				<path id="Layer" fill-rule="evenodd" class="s10" d="m29.8 218.1q0.1 0.4 0.5 0.7 0.3 0.2 0.8 0.2 0.3 0 0.6-0.1 0.3-0.2 0.5-0.5l0.3 0.2q-0.2 0.4-0.6 0.6-0.4 0.2-0.8 0.2-0.4 0-0.7-0.2-0.3-0.1-0.5-0.3-0.3-0.2-0.4-0.5-0.1-0.3-0.2-0.7h3.6q0-0.4-0.1-0.7-0.2-0.4-0.4-0.6-0.3-0.3-0.6-0.4-0.4-0.2-0.7-0.2-0.4 0-0.8 0.2-0.3 0.1-0.5 0.4-0.3 0.2-0.4 0.6-0.2 0.3-0.2 0.7 0 0.3 0.2 0.7 0.1 0.3 0.4 0.6 0.2 0.2 0.6 0.3 0.3 0.2 0.7 0.2 0.4 0 0.8-0.2 0.4-0.3 0.7-0.6l0.3 0.2q-0.3 0.4-0.8 0.7-0.5 0.2-1 0.2-0.5 0-0.9-0.1-0.4-0.2-0.7-0.5-0.3-0.3-0.4-0.7-0.2-0.4-0.2-0.8 0-0.5 0.2-0.9 0.1-0.4 0.4-0.7 0.3-0.3 0.7-0.4 0.4-0.2 0.9-0.2 0.4 0 0.8 0.2 0.4 0.1 0.7 0.4 0.3 0.3 0.5 0.7 0.1 0.4 0.1 0.9v0.4zm-0.4-0.5q0-0.3 0.2-0.6 0.1-0.3 0.4-0.6 0.2-0.2 0.5-0.3 0.3-0.2 0.7-0.2 0.3 0 0.6 0.2 0.3 0.1 0.6 0.3 0.2 0.3 0.3 0.6 0.2 0.3 0.2 0.6zm3-0.3q-0.2-0.5-0.5-0.7-0.4-0.3-0.8-0.3-0.6 0-1 0.4-0.2 0.2-0.3 0.6z"/>
			</g>
		</g>
	</g>
	<g id="Layer">
		<g id="Layer">
			<g id="Layer">
				<path id="Layer" fill-rule="evenodd" class="s10" d="m34.1 219.8v-4.2h0.4v4.2zm0.4-4.2h0.3v4.2h-0.3zm-0.1-2q0.2 0 0.4 0.1 0.1 0.2 0.1 0.4 0 0.2-0.1 0.3-0.2 0.2-0.4 0.2-0.2 0-0.3-0.2-0.1-0.1-0.1-0.3 0-0.2 0.1-0.4 0.1-0.1 0.3-0.1zm0 0.3q-0.1 0-0.1 0-0.1 0.1-0.1 0.2 0 0.1 0.1 0.1 0 0.1 0.1 0.1 0.1 0 0.2-0.1 0.1 0 0.1-0.1 0-0.1-0.1-0.2-0.1 0-0.2 0zm0 0.1q0.1 0 0.2 0.1-0.1 0.1-0.2 0.1-0.1 0-0.1-0.1 0-0.1 0.1-0.1z"/>
			</g>
		</g>
	</g>
	<g id="Layer">
		<g id="Layer">
			<g id="Layer">
				<path id="Layer" fill-rule="evenodd" class="s10" d="m39.4 215.6l-1.5 4.2h-0.6l-1.5-4.2h0.4l0.2 0.7 1.2 3.1 1.1-2.9 0.3-0.9zm-0.8 0h0.3l-0.3 0.8-1 2.8-1-3-0.3-0.6h0.4l0.9 2.5z"/>
			</g>
		</g>
	</g>
	<g id="Layer">
		<g id="Layer">
			<g id="Layer">
				<path id="Layer" fill-rule="evenodd" class="s10" d="m41 218.1q0.2 0.4 0.5 0.7 0.4 0.2 0.9 0.2 0.3 0 0.6-0.1 0.3-0.2 0.5-0.5l0.3 0.2q-0.3 0.4-0.6 0.6-0.4 0.2-0.8 0.2-0.4 0-0.7-0.2-0.3-0.1-0.5-0.3-0.3-0.2-0.4-0.5-0.1-0.3-0.2-0.7h3.6q0-0.4-0.2-0.7-0.1-0.4-0.3-0.6-0.3-0.3-0.6-0.4-0.4-0.2-0.7-0.2-0.4 0-0.8 0.2-0.3 0.1-0.5 0.4-0.3 0.2-0.4 0.6-0.2 0.3-0.2 0.7 0 0.3 0.2 0.7 0.1 0.3 0.4 0.6 0.2 0.2 0.6 0.3 0.3 0.2 0.7 0.2 0.4 0 0.8-0.2 0.4-0.3 0.7-0.6l0.3 0.2q-0.3 0.4-0.8 0.7-0.5 0.2-1 0.2-0.5 0-0.9-0.1-0.4-0.2-0.7-0.5-0.3-0.3-0.4-0.7-0.2-0.4-0.2-0.8 0-0.5 0.1-0.9 0.2-0.4 0.5-0.7 0.3-0.3 0.7-0.4 0.4-0.2 0.9-0.2 0.4 0 0.8 0.2 0.4 0.1 0.7 0.4 0.3 0.3 0.5 0.7 0.1 0.4 0.1 0.9v0.4zm-0.4-0.5q0-0.3 0.2-0.6 0.1-0.3 0.4-0.6 0.2-0.2 0.5-0.3 0.3-0.2 0.6-0.2 0.4 0 0.7 0.2 0.3 0.1 0.5 0.3 0.3 0.3 0.4 0.6 0.1 0.3 0.1 0.6zm3.1-0.3q-0.2-0.5-0.5-0.7-0.4-0.3-0.8-0.3-0.6 0-1 0.4-0.2 0.2-0.3 0.6z"/>
			</g>
		</g>
	</g>
	<g id="Layer">
		<g id="Layer">
			<g id="Layer">
			</g>
		</g>
	</g>
	<g id="Layer">
		<g id="Layer">
			<g id="Layer">
				<path id="Layer" fill-rule="evenodd" class="s10" d="m47.9 215.4q0.1-0.4 0.3-0.7 0.2-0.4 0.5-0.6 0.3-0.3 0.6-0.4 0.4-0.2 0.8-0.2 0.7 0 1.1 0.3 0.5 0.3 0.8 0.7 0.3 0.5 0.5 1 0.1 0.6 0.1 1.2 0 0.6-0.1 1.2-0.2 0.5-0.5 1-0.3 0.4-0.8 0.7-0.4 0.3-1.1 0.3-0.6 0-1-0.3-0.5-0.3-0.8-0.7-0.3-0.5-0.5-1-0.1-0.6-0.1-1.2 0-0.6 0.2-1.3zm0.3 0.2q-0.1 0.2-0.1 0.5-0.1 0.3-0.1 0.6 0 0.5 0.1 1 0.2 0.5 0.4 0.9 0.3 0.4 0.7 0.7 0.4 0.2 0.9 0.2 0.6 0 1-0.2 0.4-0.3 0.6-0.7 0.3-0.4 0.4-0.9 0.2-0.5 0.2-1 0-0.5-0.2-1-0.1-0.5-0.4-0.9-0.2-0.5-0.6-0.7-0.4-0.2-1-0.2-0.3 0-0.7 0.1-0.3 0.1-0.5 0.4-0.3 0.2-0.4 0.5-0.2 0.3-0.3 0.7zm1.9-1.6q0.6 0 0.9 0.2 0.4 0.3 0.7 0.7 0.2 0.3 0.3 0.8 0.1 0.5 0.1 1 0 0.5-0.1 0.9-0.1 0.5-0.3 0.9-0.3 0.4-0.6 0.7-0.4 0.2-1 0.2-0.5 0-0.9-0.3-0.3-0.2-0.6-0.6-0.2-0.4-0.4-0.9-0.1-0.4-0.1-0.9 0-0.5 0.2-1 0.1-0.5 0.3-0.8 0.3-0.4 0.7-0.7 0.3-0.2 0.8-0.2zm0 0.3q-0.4 0-0.7 0.3-0.3 0.2-0.5 0.5-0.2 0.4-0.3 0.8-0.1 0.4-0.1 0.8 0 0.4 0.1 0.8 0.1 0.4 0.3 0.8 0.2 0.3 0.5 0.5 0.3 0.3 0.7 0.3 0.5 0 0.8-0.3 0.3-0.2 0.5-0.5 0.2-0.4 0.3-0.8 0.1-0.4 0.1-0.8 0-0.4-0.1-0.8-0.1-0.4-0.3-0.8-0.2-0.3-0.5-0.5-0.3-0.3-0.8-0.3z"/>
			</g>
		</g>
	</g>
	<g id="Layer">
		<g id="Layer">
			<g id="Layer">
				<path id="Layer" fill-rule="evenodd" class="s10" d="m54 218.9q0.2 0 0.4 0.1 0.1 0.2 0.1 0.4 0 0.2-0.1 0.3-0.2 0.2-0.4 0.2-0.2 0-0.3-0.2-0.1-0.1-0.1-0.3 0-0.2 0.1-0.4 0.1-0.1 0.3-0.1zm0 0.2q-0.1 0-0.1 0.1-0.1 0.1-0.1 0.2 0 0.1 0.1 0.1 0 0.1 0.1 0.1 0.1 0 0.2-0.1 0.1 0 0.1-0.1 0-0.1-0.1-0.2-0.1-0.1-0.2-0.1zm0 0.2q0.1 0 0.1 0.1 0 0.1-0.1 0.1-0.1 0-0.1-0.1 0-0.1 0.1-0.1z"/>
			</g>
		</g>
	</g>
	<g id="Layer">
		<g id="Layer">
			<g id="Layer">
				<path id="Layer" class="s10" d="m57.4 213.6v6.2h-0.4v-5.8h-1.1l0.1-0.4zm-0.8 6.2v-5.4h-0.8l0.1-0.3h1v5.7z"/>
			</g>
		</g>
	</g>
	<g id="Layer">
		<g id="Layer">
			<g id="Layer">
				<path id="Layer" fill-rule="evenodd" class="s10" d="m62.9 215l-3.4 4.8h-0.4l3-4.4 0.4-0.4zm-4 4.8h-0.4l3.4-4.8h0.4zm3.2-2.1q0.2 0 0.4 0.1 0.1 0.1 0.3 0.2 0.1 0.1 0.2 0.3 0.1 0.2 0.1 0.4 0 0.2-0.1 0.4-0.1 0.2-0.2 0.3-0.2 0.2-0.3 0.3-0.2 0.1-0.4 0.1-0.3 0-0.4-0.1-0.2-0.1-0.4-0.3-0.1-0.1-0.2-0.3-0.1-0.2-0.1-0.4 0-0.2 0.1-0.4 0.1-0.2 0.2-0.3 0.2-0.1 0.4-0.2 0.1-0.1 0.4-0.1zm0 0.3q-0.3 0-0.5 0.2-0.2 0.2-0.2 0.5 0 0.3 0.2 0.5 0.2 0.2 0.5 0.2 0.3 0 0.5-0.2 0.2-0.2 0.2-0.5 0-0.3-0.3-0.5-0.2-0.2-0.4-0.2zm0.4 0.3q0.1 0.1 0.1 0.2 0 0.1 0 0.2 0 0.2-0.1 0.4-0.2 0.2-0.4 0.2-0.3 0-0.4-0.2-0.2-0.2-0.2-0.4 0-0.2 0.2-0.4 0.1-0.2 0.4-0.2 0.1 0 0.2 0.1 0.1 0 0.2 0.1zm-3.2-3.4q0.2 0 0.4 0.1 0.2 0.1 0.4 0.3 0.1 0.1 0.2 0.3 0.1 0.2 0.1 0.4 0 0.2-0.1 0.4-0.1 0.2-0.2 0.3-0.2 0.2-0.4 0.2-0.2 0.1-0.4 0.1-0.2 0-0.4-0.1-0.2 0-0.3-0.2-0.2-0.1-0.2-0.3-0.1-0.2-0.1-0.4 0-0.2 0.1-0.4 0-0.2 0.2-0.3 0.1-0.2 0.3-0.3 0.2-0.1 0.4-0.1zm0 0.4q-0.3 0-0.5 0.2-0.2 0.2-0.2 0.5 0 0.3 0.2 0.5 0.2 0.2 0.5 0.2 0.3 0 0.5-0.2 0.2-0.3 0.2-0.5 0-0.3-0.2-0.5-0.2-0.2-0.5-0.2zm0.4 0.3q0.2 0.1 0.2 0.4 0 0.2-0.2 0.4-0.1 0.2-0.4 0.2-0.2 0-0.4-0.2-0.2-0.2-0.2-0.4 0-0.3 0.2-0.4 0.2-0.2 0.4-0.2 0.3 0 0.4 0.2zm2.5 3q0-0.1-0.1-0.1-0.1 0-0.2 0.1-0.1 0-0.1 0.1 0 0.1 0.1 0.2 0.1 0 0.2 0 0 0 0.1 0 0.1-0.1 0.1-0.2 0-0.1-0.1-0.1zm-2.7-2.8q-0.1-0.1-0.2-0.1-0.1 0-0.1 0.1-0.1 0.1-0.1 0.2 0 0.1 0 0.1 0.1 0.1 0.2 0.1 0.1 0 0.2-0.1 0.1 0 0.1-0.1 0-0.1-0.1-0.2z"/>
			</g>
		</g>
	</g>
	<g id="Layer">
		<g id="Layer">
			<g id="Layer">
			</g>
		</g>
	</g>
	<g id="Layer">
		<g id="Layer">
			<g id="Layer">
				<path id="Layer" fill-rule="evenodd" class="s10" d="m70 219.2q-0.3 0.3-0.7 0.5-0.4 0.1-0.8 0.1-0.5 0-0.9-0.1-0.4-0.2-0.6-0.5-0.3-0.3-0.5-0.7-0.2-0.4-0.2-0.8 0-0.5 0.2-0.9 0.2-0.4 0.5-0.7 0.3-0.3 0.7-0.4 0.3-0.2 0.8-0.2 0.4 0 0.8 0.2 0.4 0.1 0.7 0.4 0.3 0.3 0.5 0.7 0.2 0.4 0.2 0.9 0 0.4-0.2 0.8-0.2 0.4-0.5 0.7zm-0.2-0.3q0.2-0.2 0.4-0.5 0.1-0.4 0.1-0.7 0-0.4-0.1-0.7-0.2-0.4-0.4-0.6-0.3-0.3-0.6-0.4-0.3-0.2-0.7-0.2-0.4 0-0.7 0.2-0.4 0.1-0.6 0.4-0.3 0.2-0.4 0.6-0.1 0.3-0.1 0.7 0 0.3 0.1 0.7 0.1 0.3 0.4 0.6 0.2 0.2 0.6 0.3 0.3 0.2 0.7 0.2 0.4 0 0.7-0.2 0.3-0.1 0.6-0.4zm-1.3 0.5q-0.4 0-0.7-0.2-0.3-0.1-0.5-0.3-0.3-0.3-0.4-0.6-0.1-0.3-0.1-0.6 0-0.4 0.1-0.7 0.1-0.3 0.4-0.5 0.2-0.3 0.5-0.4 0.3-0.2 0.7-0.2 0.3 0 0.7 0.2 0.3 0.1 0.5 0.4 0.2 0.2 0.4 0.5 0.1 0.3 0.1 0.7 0 0.3-0.1 0.6-0.2 0.3-0.4 0.6-0.2 0.2-0.5 0.3-0.4 0.2-0.7 0.2zm0-0.4q0.3 0 0.5-0.1 0.3-0.1 0.5-0.3 0.1-0.2 0.2-0.4 0.2-0.3 0.2-0.5 0-0.3-0.2-0.6-0.1-0.2-0.2-0.4-0.2-0.2-0.5-0.3-0.2-0.1-0.5-0.1-0.3 0-0.5 0.1-0.3 0.1-0.5 0.3-0.2 0.2-0.3 0.4-0.1 0.3-0.1 0.6 0 0.2 0.1 0.5 0.1 0.2 0.3 0.4 0.2 0.2 0.5 0.3 0.2 0.1 0.5 0.1z"/>
			</g>
		</g>
	</g>
	<g id="Layer">
		<g id="Layer">
			<g id="Layer">
				<path id="Layer" fill-rule="evenodd" class="s10" d="m71.5 216.4h-0.4v-0.4h0.8v3.8h-0.4zm-0.4-0.5v-0.4h0.4v-0.2q0-0.3 0.2-0.6 0.1-0.4 0.3-0.6 0.3-0.2 0.6-0.4 0.3-0.1 0.7-0.1v0.3q-0.3 0-0.6 0.2-0.2 0.1-0.4 0.3-0.2 0.1-0.3 0.4-0.1 0.2-0.1 0.5v0.6zm2.1-1.5q-0.2 0-0.3 0.1-0.2 0.1-0.3 0.2-0.1 0.1-0.2 0.3-0.1 0.1-0.1 0.3v0.2h0.7v0.4h-1v-0.6q0-0.2 0.1-0.5 0.1-0.2 0.2-0.4 0.2-0.1 0.4-0.2 0.3-0.1 0.5-0.1zm-0.2 1.6v0.3h-0.7v3.4h-0.3v-3.7z"/>
			</g>
		</g>
	</g>
	<g id="Layer">
		<g id="Layer">
			<g id="Layer">
			</g>
		</g>
	</g>
	<g id="Layer">
		<g id="Layer">
			<g id="Layer">
				<path id="Layer" fill-rule="evenodd" class="s10" d="m77.2 218.5q0.1 0.2 0.2 0.3 0.2 0.1 0.4 0.2v-2.4q-0.2-0.1-0.4-0.3-0.2-0.1-0.4-0.3-0.1-0.2-0.2-0.4-0.1-0.2-0.1-0.5 0-0.6 0.3-1 0.3-0.4 0.8-0.5v-0.8h0.4v1.1q-0.3 0-0.5 0.1-0.2 0.1-0.3 0.2-0.2 0.2-0.3 0.4-0.1 0.2-0.1 0.5 0 0.2 0.1 0.5 0.1 0.2 0.3 0.3 0.1 0.2 0.3 0.3 0.2 0.1 0.5 0.2v3q-0.5 0-0.8-0.2-0.4-0.2-0.5-0.6zm1.4-2.3q0.3 0.1 0.6 0.3 0.3 0.1 0.5 0.3 0.2 0.2 0.3 0.5 0.1 0.3 0.1 0.7 0 0.3-0.1 0.6-0.1 0.3-0.3 0.6-0.2 0.2-0.5 0.4-0.2 0.2-0.6 0.3v0.7h-0.3v-1q0.3-0.1 0.5-0.2 0.3-0.1 0.5-0.3 0.2-0.2 0.3-0.5 0.1-0.3 0.1-0.6 0-0.4-0.1-0.6-0.1-0.3-0.3-0.4-0.2-0.2-0.5-0.4-0.2-0.1-0.5-0.2v-2.3q0.5 0 0.8 0.4l-0.3 0.2q0-0.1-0.1-0.1 0 0-0.1-0.1zm-0.3 0.4q0.2 0.1 0.5 0.2 0.2 0.1 0.4 0.3 0.2 0.2 0.3 0.4 0.1 0.2 0.1 0.6 0 0.3-0.1 0.5-0.1 0.3-0.3 0.5-0.2 0.2-0.4 0.3-0.2 0.1-0.5 0.1zm-0.1-0.1q-0.2-0.1-0.4-0.2-0.2-0.1-0.4-0.3-0.1-0.1-0.2-0.3-0.1-0.2-0.1-0.4 0-0.3 0.1-0.4 0.1-0.2 0.2-0.4 0.2-0.1 0.4-0.2 0.2-0.1 0.4-0.1zm0 4.3h-0.4v-0.7q-0.4-0.1-0.8-0.4-0.4-0.2-0.6-0.6l0.4-0.2q0.1 0.4 0.5 0.6 0.4 0.3 0.8 0.3h0.1zm0.1-7.8h0.3v0.8q0.3 0 0.5 0.2 0.2 0.1 0.3 0.3l-0.2 0.2q-0.4-0.4-0.9-0.4zm-0.5 1.6q-0.1 0.1-0.2 0.2-0.1 0.2-0.1 0.4 0 0.2 0.1 0.4 0.1 0.1 0.2 0.2zm0.8 4.5q0.3-0.1 0.5-0.4 0.2-0.3 0.2-0.6 0-0.4-0.2-0.6-0.2-0.2-0.5-0.3z"/>
			</g>
		</g>
	</g>
	<g id="Layer">
		<g id="Layer">
			<g id="Layer">
				<path id="Layer" fill-rule="evenodd" class="s10" d="m80.9 213.6h1.8q0.6 0 1.1 0.3 0.6 0.2 1 0.6 0.4 0.4 0.7 1 0.2 0.6 0.2 1.2 0 0.6-0.2 1.2-0.3 0.5-0.7 0.9-0.4 0.5-1 0.7-0.5 0.3-1.1 0.3h-1.8zm0.3 0.3v5.4h1.5q0.5 0 1-0.2 0.5-0.2 0.9-0.6 0.3-0.3 0.6-0.8 0.2-0.5 0.2-1.1 0-0.5-0.2-1-0.3-0.5-0.6-0.9-0.4-0.4-0.9-0.6-0.5-0.2-1-0.2zm0.1 0.1h1.3q0.5 0 1 0.2 0.5 0.2 0.8 0.6 0.4 0.3 0.6 0.8 0.2 0.5 0.2 1 0 0.6-0.2 1-0.2 0.5-0.6 0.9-0.3 0.3-0.8 0.5-0.5 0.2-1 0.2h-1.3zm0.3 0.4v4.5h1q0.5 0 0.9-0.2 0.4-0.2 0.7-0.5 0.3-0.3 0.5-0.7 0.2-0.4 0.2-0.9 0-0.4-0.2-0.8-0.2-0.4-0.5-0.8-0.3-0.3-0.7-0.4-0.4-0.2-0.9-0.2z"/>
			</g>
		</g>
	</g>
	<g id="Layer">
		<g id="Layer">
			<g id="Layer">
				<path id="Layer" fill-rule="evenodd" class="s10" d="m87.2 217.6v2.2h-0.3v-2.5h1.2q0.3 0 0.6-0.1 0.3-0.2 0.5-0.4 0.3-0.2 0.4-0.5 0.1-0.3 0.1-0.7 0-0.3-0.1-0.6-0.1-0.3-0.4-0.5-0.2-0.3-0.5-0.4-0.3-0.1-0.6-0.1h-1.3v5.8h-0.4v-6.2h1.7q0.4 0 0.8 0.2 0.3 0.1 0.6 0.4 0.3 0.3 0.4 0.7 0.2 0.3 0.2 0.7 0 0.4-0.2 0.8-0.1 0.4-0.4 0.6-0.3 0.3-0.6 0.5-0.4 0.1-0.8 0.1zm-0.4-3.5h1.2q0.3 0 0.6 0.1 0.3 0.2 0.5 0.4 0.2 0.2 0.4 0.5 0.1 0.2 0.1 0.5 0 0.3-0.1 0.6-0.2 0.3-0.4 0.5-0.2 0.2-0.5 0.3-0.3 0.2-0.6 0.2h-1.2zm0.4 0.3v2.4h0.8q0.3 0 0.5-0.1 0.2-0.1 0.4-0.2 0.1-0.2 0.2-0.4 0.1-0.2 0.1-0.5 0-0.2-0.1-0.4-0.1-0.3-0.2-0.4-0.2-0.2-0.4-0.3-0.2-0.1-0.5-0.1z"/>
			</g>
		</g>
	</g>
	<g id="Layer">
		<g id="Layer">
			<g id="Layer">
				<path id="Layer" fill-rule="evenodd" class="s10" d="m91.7 214.4q0.5-0.4 1-0.6 0.6-0.3 1.3-0.3 0.6 0 1.2 0.3 0.6 0.2 1 0.7 0.4 0.4 0.7 1 0.2 0.6 0.2 1.2 0 0.6-0.2 1.2-0.3 0.6-0.7 1-0.5 0.5-1 0.7-0.6 0.3-1.2 0.3-0.7 0-1.3-0.3-0.5-0.2-1-0.7-0.4-0.4-0.7-1-0.2-0.6-0.2-1.2 0-0.6 0.2-1.2 0.3-0.6 0.7-1.1zm0.3 0.3q-0.4 0.4-0.7 0.9-0.2 0.5-0.2 1.1 0 0.6 0.2 1.1 0.3 0.5 0.7 0.9 0.3 0.4 0.9 0.6 0.5 0.2 1.1 0.2 0.5 0 1-0.2 0.5-0.2 0.9-0.6 0.4-0.4 0.6-0.9 0.3-0.5 0.3-1.1 0-0.6-0.3-1.1-0.2-0.5-0.6-0.9-0.3-0.4-0.9-0.6-0.5-0.2-1-0.2-0.6 0-1.1 0.2-0.6 0.2-0.9 0.6zm2-0.7q0.5 0 1 0.2 0.5 0.2 0.9 0.6 0.3 0.3 0.5 0.8 0.3 0.5 0.3 1.1 0 0.5-0.3 1-0.2 0.5-0.5 0.9-0.4 0.4-0.9 0.6-0.5 0.2-1 0.2-0.6 0-1.1-0.2-0.5-0.2-0.9-0.6-0.3-0.4-0.5-0.9-0.3-0.5-0.3-1 0-0.6 0.3-1.1 0.2-0.5 0.5-0.8 0.4-0.4 0.9-0.6 0.5-0.2 1.1-0.2zm0 0.3q-0.6 0-1 0.2-0.4 0.2-0.7 0.5-0.3 0.4-0.5 0.8-0.2 0.4-0.2 0.9 0 0.5 0.2 0.9 0.2 0.4 0.5 0.8 0.3 0.3 0.7 0.5 0.5 0.2 1 0.2 0.4 0 0.9-0.2 0.4-0.2 0.7-0.5 0.3-0.4 0.5-0.8 0.2-0.4 0.2-0.9 0-0.5-0.2-0.9-0.2-0.4-0.5-0.8-0.3-0.3-0.7-0.5-0.5-0.2-0.9-0.2z"/>
			</g>
		</g>
	</g>
	<g id="Layer">
		<g id="Layer">
			<g id="Layer">
				<path id="Layer" fill-rule="evenodd" class="s10" d="m101 219.8h-3.1v-6.2h0.3v5.8h2.8zm0-0.4h-2.6v-5.7h0.3v5.3h2.3z"/>
			</g>
		</g>
	</g>
	<g id="Layer">
		<g id="Layer">
			<g id="Layer">
				<path id="Layer" class="s10" d="m104.9 218.9v0.9h-0.3v-3l1.5-2.3 0.7-0.9h0.4l-0.6 0.9-1.7 2.4zm-0.8 0.8v-2.9l-2.3-3.2h0.5l2.1 3.1v3zm-1.2-6.1l0.1 0.2 1.6 2.2 1.6-2.4h0.5l-2.1 3-1.7-2.4-0.5-0.6z"/>
			</g>
		</g>
	</g>
	<g id="Layer">
		<g id="Layer">
			<g id="Layer">
			</g>
		</g>
	</g>
	<g id="Layer">
		<g id="Layer">
			<g id="Layer">
				<path id="Layer" class="s10" d="m111.9 216.4q-0.1-0.1-0.3-0.1-0.1 0-0.2 0.1-0.1 0.1-0.1 0.2 0 0.1 0 0.2 0.1 0.1 0.2 0.1 0.1 0.1 0.2 0.1 0 0.1 0.1 0.1 0.3 0.1 0.5 0.2 0.2 0.1 0.3 0.3 0.2 0.1 0.3 0.3 0 0.3 0 0.6 0 0.2-0.1 0.5-0.1 0.2-0.3 0.4-0.2 0.2-0.4 0.3-0.3 0.1-0.5 0.1-0.4 0-0.7-0.2-0.4-0.2-0.6-0.5l0.8-0.4q0.1 0.3 0.5 0.3 0.2 0 0.4-0.1 0.1-0.2 0.1-0.4 0-0.2 0-0.3-0.1-0.1-0.2-0.1-0.1-0.1-0.2-0.2-0.1 0-0.2-0.1-0.2-0.1-0.4-0.2-0.2-0.1-0.3-0.2-0.2-0.1-0.3-0.3 0-0.2 0-0.5 0-0.2 0.1-0.4 0-0.2 0.2-0.4 0.2-0.1 0.4-0.2 0.2-0.1 0.4-0.1 0.3 0 0.5 0.1 0.2 0.1 0.4 0.3l-0.3 0.2q-0.1-0.1-0.2-0.2-0.2-0.1-0.4-0.1-0.1 0-0.3 0.1-0.1 0.1-0.2 0.2-0.1 0.1-0.2 0.2-0.1 0.2-0.1 0.3 0 0.3 0.2 0.5 0.1 0.1 0.3 0.2 0.1 0.1 0.4 0.2 0.2 0.1 0.4 0.2 0.2 0.1 0.3 0.3 0.1 0.2 0.1 0.5 0 0.3-0.3 0.6-0.2 0.3-0.6 0.3-0.3 0-0.5-0.2-0.2-0.1-0.3-0.3h-0.1q0.1 0.3 0.3 0.4 0.3 0.2 0.6 0.2 0.2 0 0.4-0.1 0.2-0.1 0.3-0.2 0.2-0.2 0.2-0.4 0.1-0.1 0.1-0.3 0-0.4-0.1-0.5-0.1-0.2-0.3-0.4-0.2-0.1-0.4-0.2-0.2 0-0.4-0.1-0.2-0.1-0.3-0.3-0.1-0.1-0.1-0.4 0-0.3 0.2-0.5 0.2-0.2 0.4-0.2 0.3 0 0.5 0.3z"/>
			</g>
		</g>
	</g>
	<g id="Layer">
		<g id="Layer">
			<g id="Layer">
				<path id="Layer" fill-rule="evenodd" class="s10" d="m116.5 219.5q-0.4 0.3-1 0.3-0.3 0-0.7-0.1-0.3-0.1-0.5-0.4-0.3-0.2-0.4-0.6-0.2-0.3-0.2-0.7v-2.4h0.4v2.4q0 0.3 0.1 0.6 0.1 0.3 0.3 0.5 0.2 0.2 0.5 0.3 0.2 0.1 0.5 0.1 0.5 0 0.9-0.3 0.3-0.2 0.5-0.6v1.2h-0.4zm-2.3-4h0.3v2.5q0 0.2 0.1 0.3 0.1 0.2 0.2 0.4 0.2 0.1 0.3 0.2 0.2 0.1 0.4 0.1 0.2 0 0.4-0.1 0.2-0.1 0.3-0.2 0.2-0.2 0.3-0.4 0-0.1 0-0.3v-2.5h0.4v2.5q0 0.2-0.1 0.5-0.1 0.2-0.3 0.4-0.2 0.2-0.4 0.3-0.3 0.1-0.6 0.1-0.3 0-0.5-0.1-0.2-0.1-0.4-0.3-0.2-0.2-0.3-0.4-0.1-0.3-0.1-0.5zm2.8 0h0.4v4.2h-0.4z"/>
			</g>
		</g>
	</g>
	<g id="Layer">
		<g id="Layer">
			<g id="Layer">
				<path id="Layer" fill-rule="evenodd" class="s10" d="m119.1 216q0.5-0.5 1.3-0.5 0.5 0 0.9 0.2 0.4 0.1 0.7 0.4 0.3 0.3 0.4 0.7 0.2 0.4 0.2 0.9 0 0.4-0.2 0.8-0.1 0.4-0.4 0.7-0.3 0.3-0.7 0.5-0.4 0.1-0.9 0.1-0.7 0-1.3-0.5v2.4h-0.4v-3.4q0.2 0.5 0.7 0.9 0.4 0.3 1 0.3 0.4 0 0.7-0.2 0.4-0.1 0.6-0.3 0.3-0.3 0.4-0.6 0.2-0.4 0.2-0.7 0-0.4-0.2-0.7-0.1-0.4-0.4-0.6-0.2-0.3-0.6-0.4-0.3-0.2-0.7-0.2-0.3 0-0.5 0.1-0.3 0.1-0.5 0.3-0.3 0.1-0.4 0.3-0.2 0.3-0.3 0.5v-1.4h0.4zm1.3 3.4q-0.3 0-0.6-0.2-0.4-0.1-0.6-0.3-0.2-0.3-0.3-0.6-0.2-0.3-0.2-0.6 0-0.4 0.1-0.7 0.2-0.3 0.4-0.5 0.2-0.3 0.6-0.4 0.3-0.2 0.6-0.2 0.4 0 0.7 0.2 0.3 0.1 0.5 0.4 0.3 0.2 0.4 0.5 0.1 0.3 0.1 0.7 0 0.3-0.1 0.6-0.1 0.3-0.4 0.6-0.2 0.2-0.5 0.3-0.3 0.2-0.7 0.2zm-1.8 2.3h-0.3v-6.2h0.3zm1.8-5.4q-0.3 0-0.5 0.1-0.3 0.2-0.4 0.3-0.2 0.2-0.3 0.5-0.1 0.2-0.1 0.5 0 0.3 0.1 0.5 0.1 0.3 0.3 0.5 0.1 0.2 0.4 0.3 0.2 0.1 0.5 0.1 0.3 0 0.5-0.1 0.3-0.1 0.5-0.3 0.2-0.2 0.3-0.5 0.1-0.2 0.1-0.5 0-0.3-0.1-0.5-0.1-0.3-0.3-0.5-0.2-0.1-0.5-0.3-0.2-0.1-0.5-0.1z"/>
			</g>
		</g>
	</g>
	<g id="Layer">
		<g id="Layer">
			<g id="Layer">
				<path id="Layer" fill-rule="evenodd" class="s10" d="m124.2 216q0.6-0.5 1.3-0.5 0.5 0 0.9 0.2 0.4 0.1 0.7 0.4 0.3 0.3 0.4 0.7 0.2 0.4 0.2 0.9 0 0.4-0.2 0.8-0.1 0.4-0.4 0.7-0.3 0.3-0.7 0.5-0.4 0.1-0.9 0.1-0.7 0-1.3-0.5v2.4h-0.4v-3.4q0.2 0.5 0.7 0.9 0.5 0.3 1 0.3 0.4 0 0.7-0.2 0.4-0.1 0.6-0.3 0.3-0.3 0.4-0.6 0.2-0.4 0.2-0.7 0-0.4-0.2-0.7-0.1-0.4-0.4-0.6-0.2-0.3-0.6-0.4-0.3-0.2-0.7-0.2-0.3 0-0.5 0.1-0.3 0.1-0.5 0.3-0.2 0.1-0.4 0.3-0.2 0.3-0.3 0.5v-1.4h0.4zm1.3 3.4q-0.3 0-0.6-0.2-0.3-0.1-0.6-0.3-0.2-0.3-0.3-0.6-0.2-0.3-0.2-0.6 0-0.4 0.2-0.7 0.1-0.3 0.3-0.5 0.3-0.3 0.6-0.4 0.3-0.2 0.6-0.2 0.4 0 0.7 0.2 0.3 0.1 0.5 0.4 0.3 0.2 0.4 0.5 0.1 0.3 0.1 0.7 0 0.3-0.1 0.6-0.1 0.3-0.4 0.6-0.2 0.2-0.5 0.3-0.3 0.2-0.7 0.2zm-1.8 2.3h-0.3v-6.2h0.3zm1.8-5.4q-0.2 0-0.5 0.1-0.2 0.2-0.4 0.3-0.2 0.2-0.3 0.5-0.1 0.2-0.1 0.5 0 0.3 0.1 0.5 0.1 0.3 0.3 0.5 0.2 0.2 0.4 0.3 0.3 0.1 0.5 0.1 0.3 0 0.6-0.1 0.2-0.1 0.4-0.3 0.2-0.2 0.3-0.5 0.1-0.2 0.1-0.5 0-0.3-0.1-0.5-0.1-0.3-0.3-0.5-0.2-0.1-0.4-0.3-0.3-0.1-0.6-0.1z"/>
			</g>
		</g>
	</g>
	<g id="Layer">
		<g id="Layer">
			<g id="Layer">
				<path id="Layer" class="s10" d="m128.5 213.6h0.3v6.2h-0.3zm0.8 0v6.1h-0.4v-6.1z"/>
			</g>
		</g>
	</g>
	<g id="Layer">
		<g id="Layer">
			<g id="Layer">
				<path id="Layer" fill-rule="evenodd" class="s10" d="m133 219.5q-0.4 0.3-1 0.3-0.3 0-0.7-0.1-0.3-0.1-0.5-0.4-0.3-0.2-0.4-0.6-0.2-0.3-0.2-0.7v-2.4h0.4v2.4q0 0.3 0.1 0.6 0.1 0.3 0.3 0.5 0.2 0.2 0.5 0.3 0.2 0.1 0.5 0.1 0.5 0 0.9-0.3 0.4-0.2 0.5-0.6v1.4q0 0.3-0.1 0.5-0.1 0.2-0.3 0.4-0.2 0.2-0.4 0.3-0.3 0.1-0.6 0.1-0.5 0-0.9-0.4l0.2-0.2q0 0 0.2 0.1 0.1 0 0.2 0.1 0.2 0.1 0.3 0.1 0.2 0 0.4-0.1 0.2-0.1 0.4-0.2 0.1-0.2 0.2-0.4 0-0.1 0-0.3zm-1.9 1.4h-0.1q0 0 0 0l0.1-0.1q0 0.1 0 0.1zm0.4 0.4q0.3 0.1 0.5 0.1 0.4 0 0.6-0.1 0.3-0.1 0.5-0.3 0.2-0.2 0.3-0.5 0.1-0.3 0.1-0.6v-4.4h0.4v4.4q0 0.4-0.2 0.7-0.1 0.4-0.4 0.6-0.2 0.2-0.5 0.4-0.4 0.1-0.8 0.1-0.3 0-0.7-0.1-0.3-0.2-0.5-0.4l0.2-0.3q0.2 0.2 0.5 0.4zm-0.8-5.8h0.3v2.5q0 0.2 0.1 0.4 0.1 0.1 0.2 0.3 0.2 0.1 0.3 0.2 0.2 0.1 0.4 0.1 0.2 0 0.4-0.1 0.2-0.1 0.4-0.2 0.1-0.2 0.2-0.3 0-0.2 0-0.4v-2.5h0.4v2.5q0 0.3-0.1 0.5-0.1 0.2-0.3 0.4-0.2 0.2-0.4 0.3-0.3 0.1-0.6 0.1-0.2 0-0.5-0.1-0.2-0.1-0.4-0.3-0.2-0.2-0.3-0.4-0.1-0.2-0.1-0.5z"/>
			</g>
		</g>
	</g>
</svg>