<svg version="1.2" xmlns="http://www.w3.org/2000/svg" viewBox="0 0 149 248" width="149" height="248">
	<title>17-svg</title>
	<defs>
		<clipPath clipPathUnits="userSpaceOnUse" id="cp1">
			<path d="m-0.5 0.13l150-0.01v248.75h-150z"/>
		</clipPath>
		<clipPath clipPathUnits="userSpaceOnUse" id="cp2">
			<path d="m-0.5 0.13l150-0.01v249h-150z"/>
		</clipPath>
		<clipPath clipPathUnits="userSpaceOnUse" id="cp3">
			<path d="m4.29 5.07h140.42v43.47h-140.42z"/>
		</clipPath>
		<clipPath clipPathUnits="userSpaceOnUse" id="cp4">
			<path d="m4.3 5.07h140.23v43.5h-140.23z"/>
		</clipPath>
		<clipPath clipPathUnits="userSpaceOnUse" id="cp5">
			<path d="m20.62 95h108v48h-108z"/>
		</clipPath>
		<clipPath clipPathUnits="userSpaceOnUse" id="cp6">
			<path d="m128.58 136.93l-5.33-21.88q-0.13-0.53-0.53-0.91-0.4-0.37-0.94-0.47-0.55-0.09-1.05 0.12-0.51 0.21-0.82 0.67l-5.33 7.86-54.32-26.96q-0.55-0.27-1.15-0.16-0.6 0.1-1.02 0.55l-21.32 22.51-13.46-6.78q-0.21-0.1-0.44-0.15-0.23-0.05-0.47-0.04-0.24 0.01-0.47 0.08-0.22 0.07-0.43 0.19-0.2 0.13-0.36 0.3-0.17 0.16-0.28 0.37-0.12 0.21-0.18 0.44-0.06 0.23-0.06 0.47v14.49q0 0.53 0.28 0.97 0.27 0.45 0.74 0.69l14.85 7.39q0.54 0.27 1.13 0.17 0.59-0.09 1.01-0.51l23.19-23.12 44.41 21.42-3.35 4.94q-0.3 0.46-0.31 1-0.01 0.55 0.28 1.02 0.3 0.46 0.79 0.69 0.5 0.23 1.05 0.16l22.35-3.25q0.39-0.06 0.72-0.27 0.34-0.2 0.55-0.53 0.22-0.32 0.29-0.7 0.07-0.39-0.02-0.77z"/>
		</clipPath>
		<linearGradient id="g1" x2="1" gradientUnits="userSpaceOnUse" gradientTransform="matrix(108,0,0,47.371,20.621,118.816)">
			<stop offset="0" stop-color="#ff4d6c"/>
			<stop offset=".008" stop-color="#ff4d6c"/>
			<stop offset=".016" stop-color="#ff4c6b"/>
			<stop offset=".023" stop-color="#ff4c6b"/>
			<stop offset=".031" stop-color="#ff4b6a"/>
			<stop offset=".039" stop-color="#ff4b6a"/>
			<stop offset=".047" stop-color="#ff4a69"/>
			<stop offset=".055" stop-color="#ff4969"/>
			<stop offset=".063" stop-color="#ff4968"/>
			<stop offset=".07" stop-color="#ff4867"/>
			<stop offset=".078" stop-color="#ff4867"/>
			<stop offset=".086" stop-color="#ff4766"/>
			<stop offset=".094" stop-color="#ff4766"/>
			<stop offset=".102" stop-color="#ff4665"/>
			<stop offset=".109" stop-color="#ff4665"/>
			<stop offset=".117" stop-color="#ff4564"/>
			<stop offset=".125" stop-color="#ff4564"/>
			<stop offset=".133" stop-color="#ff4463"/>
			<stop offset=".141" stop-color="#ff4462"/>
			<stop offset=".148" stop-color="#ff4362"/>
			<stop offset=".156" stop-color="#ff4261"/>
			<stop offset=".164" stop-color="#ff4261"/>
			<stop offset=".172" stop-color="#ff4160"/>
			<stop offset=".18" stop-color="#ff4160"/>
			<stop offset=".188" stop-color="#ff405f"/>
			<stop offset=".195" stop-color="#ff405f"/>
			<stop offset=".203" stop-color="#ff3f5e"/>
			<stop offset=".211" stop-color="#ff3f5d"/>
			<stop offset=".219" stop-color="#ff3e5d"/>
			<stop offset=".227" stop-color="#ff3e5c"/>
			<stop offset=".234" stop-color="#ff3d5c"/>
			<stop offset=".242" stop-color="#ff3d5b"/>
			<stop offset=".25" stop-color="#ff3c5b"/>
			<stop offset=".258" stop-color="#ff3b5a"/>
			<stop offset=".266" stop-color="#ff3b59"/>
			<stop offset=".273" stop-color="#ff3a59"/>
			<stop offset=".281" stop-color="#ff3a58"/>
			<stop offset=".289" stop-color="#ff3958"/>
			<stop offset=".297" stop-color="#ff3957"/>
			<stop offset=".305" stop-color="#ff3857"/>
			<stop offset=".313" stop-color="#ff3856"/>
			<stop offset=".32" stop-color="#ff3756"/>
			<stop offset=".328" stop-color="#ff3755"/>
			<stop offset=".336" stop-color="#ff3654"/>
			<stop offset=".344" stop-color="#ff3654"/>
			<stop offset=".352" stop-color="#ff3553"/>
			<stop offset=".359" stop-color="#ff3453"/>
			<stop offset=".367" stop-color="#ff3452"/>
			<stop offset=".375" stop-color="#ff3352"/>
			<stop offset=".383" stop-color="#ff3351"/>
			<stop offset=".391" stop-color="#ff3251"/>
			<stop offset=".398" stop-color="#ff3250"/>
			<stop offset=".406" stop-color="#ff314f"/>
			<stop offset=".414" stop-color="#ff314f"/>
			<stop offset=".422" stop-color="#ff304e"/>
			<stop offset=".43" stop-color="#ff304e"/>
			<stop offset=".438" stop-color="#ff2f4d"/>
			<stop offset=".445" stop-color="#ff2f4d"/>
			<stop offset=".453" stop-color="#ff2e4c"/>
			<stop offset=".461" stop-color="#ff2d4c"/>
			<stop offset=".469" stop-color="#ff2d4b"/>
			<stop offset=".477" stop-color="#ff2c4a"/>
			<stop offset=".484" stop-color="#ff2c4a"/>
			<stop offset=".492" stop-color="#ff2b49"/>
			<stop offset=".5" stop-color="#ff2b49"/>
			<stop offset=".508" stop-color="#ff2a48"/>
			<stop offset=".516" stop-color="#ff2a48"/>
			<stop offset=".523" stop-color="#ff2947"/>
			<stop offset=".531" stop-color="#ff2947"/>
			<stop offset=".539" stop-color="#ff2846"/>
			<stop offset=".547" stop-color="#ff2745"/>
			<stop offset=".555" stop-color="#ff2745"/>
			<stop offset=".563" stop-color="#ff2644"/>
			<stop offset=".57" stop-color="#ff2644"/>
			<stop offset=".578" stop-color="#ff2543"/>
			<stop offset=".586" stop-color="#ff2543"/>
			<stop offset=".594" stop-color="#ff2442"/>
			<stop offset=".602" stop-color="#ff2442"/>
			<stop offset=".609" stop-color="#ff2341"/>
			<stop offset=".617" stop-color="#ff2340"/>
			<stop offset=".625" stop-color="#ff2240"/>
			<stop offset=".633" stop-color="#ff223f"/>
			<stop offset=".641" stop-color="#ff213f"/>
			<stop offset=".648" stop-color="#ff203e"/>
			<stop offset=".656" stop-color="#ff203e"/>
			<stop offset=".664" stop-color="#ff1f3d"/>
			<stop offset=".672" stop-color="#ff1f3d"/>
			<stop offset=".68" stop-color="#ff1e3c"/>
			<stop offset=".688" stop-color="#ff1e3b"/>
			<stop offset=".695" stop-color="#ff1d3b"/>
			<stop offset=".703" stop-color="#ff1d3a"/>
			<stop offset=".711" stop-color="#ff1c3a"/>
			<stop offset=".719" stop-color="#ff1c39"/>
			<stop offset=".727" stop-color="#ff1b39"/>
			<stop offset=".734" stop-color="#ff1b38"/>
			<stop offset=".742" stop-color="#ff1a38"/>
			<stop offset=".75" stop-color="#ff1937"/>
			<stop offset=".758" stop-color="#ff1936"/>
			<stop offset=".766" stop-color="#ff1836"/>
			<stop offset=".773" stop-color="#ff1835"/>
			<stop offset=".781" stop-color="#ff1735"/>
			<stop offset=".789" stop-color="#ff1734"/>
			<stop offset=".797" stop-color="#ff1634"/>
			<stop offset=".805" stop-color="#ff1633"/>
			<stop offset=".813" stop-color="#ff1533"/>
			<stop offset=".82" stop-color="#ff1532"/>
			<stop offset=".828" stop-color="#ff1431"/>
			<stop offset=".836" stop-color="#ff1431"/>
			<stop offset=".844" stop-color="#ff1330"/>
			<stop offset=".852" stop-color="#ff1230"/>
			<stop offset=".859" stop-color="#ff122f"/>
			<stop offset=".867" stop-color="#ff112f"/>
			<stop offset=".875" stop-color="#ff112e"/>
			<stop offset=".883" stop-color="#ff102e"/>
			<stop offset=".891" stop-color="#ff102d"/>
			<stop offset=".898" stop-color="#ff0f2c"/>
			<stop offset=".906" stop-color="#ff0f2c"/>
			<stop offset=".914" stop-color="#ff0e2b"/>
			<stop offset=".922" stop-color="#ff0e2b"/>
			<stop offset=".93" stop-color="#ff0d2a"/>
			<stop offset=".938" stop-color="#ff0c2a"/>
			<stop offset=".945" stop-color="#ff0c29"/>
			<stop offset=".953" stop-color="#ff0b29"/>
			<stop offset=".961" stop-color="#ff0b28"/>
			<stop offset=".969" stop-color="#ff0a27"/>
			<stop offset=".977" stop-color="#ff0a27"/>
			<stop offset=".984" stop-color="#ff0926"/>
			<stop offset=".992" stop-color="#ff0926"/>
			<stop offset="1" stop-color="#ff0825"/>
		</linearGradient>
		<clipPath clipPathUnits="userSpaceOnUse" id="cp7">
			<path d="m27 142h98v58h-98z"/>
		</clipPath>
		<clipPath clipPathUnits="userSpaceOnUse" id="cp8">
			<path d="m123.79 173.82c-1.71-1.82-3.72-4.08-4.24-4.78 0-1.33 0.65-4.56-0.9-7.1-1.83-2.99-7.49-4.67-10.71-6.02-3.82-1.6-11.79-10.78-16.57-11.62-8.09-1.41-12.04 1.16-16.82 0.71-4.8-0.45-5.05-1.39-10.71-2.3q-5.75-0.59-11.45 0.42-5.69 1-10.89 3.51c-5.42 3.01-13.38 10.54-14.02 15.97q-0.2 0.93 0.08 1.84 0.27 0.9 0.97 1.55 1.04 0.65 2.26 0.72 1.22 0.07 2.32-0.46-0.59 6.01 0.54 11.94c1.64 11.89 0.43 10.43-1.24 19.37q-0.08 0.41 0.03 0.81 0.1 0.39 0.36 0.71 0.27 0.32 0.65 0.49 0.37 0.18 0.78 0.18h21.18q0.41 0 0.79-0.18 0.37-0.17 0.64-0.49 0.26-0.32 0.36-0.72 0.11-0.4 0.03-0.81c-0.51-2.69-0.87-4.47-3.44-6.04-2.47-1.52-2.83-0.49-2.79-3.3q0.3-2.65 1.32-5.11 2.65 0.91 5.43 1.31 2.77 0.41 5.57 0.3 2.8-0.1 5.54-0.71 2.73-0.61 5.31-1.71 2.82 9.06 8.44 16.7 0.56 0.76 1.5 0.76h11.43q0.4 0 0.77-0.17 0.37-0.17 0.63-0.48 0.27-0.31 0.38-0.7 0.11-0.39 0.05-0.79c-0.73-4.66-5.4-6.37-6.39-9.74-0.97-3.27-0.09-7.21 1.01-11.03q3.54-1.55 7.29-2.46h0.08c2.86 0 17.54 7.05 19.56 7.11h0.07c1.83 0 3.56-1.92 5.15-5.7q0.22-0.5 0.12-1.04-0.1-0.54-0.47-0.94z"/>
		</clipPath>
		<linearGradient id="g2" x2="1" gradientUnits="userSpaceOnUse" gradientTransform="matrix(0,57.44,-96.975,0,75.864,142.316)">
			<stop offset="0" stop-color="#d6d6d6"/>
			<stop offset=".016" stop-color="#d6d6d6"/>
			<stop offset=".031" stop-color="#d5d5d5"/>
			<stop offset=".047" stop-color="#d4d4d4"/>
			<stop offset=".063" stop-color="#d3d3d3"/>
			<stop offset=".078" stop-color="#d2d2d2"/>
			<stop offset=".094" stop-color="#d1d1d1"/>
			<stop offset=".109" stop-color="#d1d1d1"/>
			<stop offset=".125" stop-color="#d0d0d0"/>
			<stop offset=".141" stop-color="#cfcfcf"/>
			<stop offset=".156" stop-color="#cecece"/>
			<stop offset=".172" stop-color="#cdcdcd"/>
			<stop offset=".188" stop-color="#cccccc"/>
			<stop offset=".203" stop-color="#cccccc"/>
			<stop offset=".219" stop-color="#cbcbcb"/>
			<stop offset=".234" stop-color="#cacaca"/>
			<stop offset=".25" stop-color="#c9c9c9"/>
			<stop offset=".266" stop-color="#c8c8c8"/>
			<stop offset=".281" stop-color="#c8c8c8"/>
			<stop offset=".297" stop-color="#c7c7c7"/>
			<stop offset=".313" stop-color="#c6c6c6"/>
			<stop offset=".328" stop-color="#c5c5c5"/>
			<stop offset=".344" stop-color="#c4c4c4"/>
			<stop offset=".359" stop-color="#c3c3c3"/>
			<stop offset=".375" stop-color="#c3c3c3"/>
			<stop offset=".391" stop-color="#c2c2c2"/>
			<stop offset=".406" stop-color="#c1c1c1"/>
			<stop offset=".422" stop-color="#c0c0c0"/>
			<stop offset=".438" stop-color="#bfbfbf"/>
			<stop offset=".453" stop-color="#bebebe"/>
			<stop offset=".469" stop-color="#bebebe"/>
			<stop offset=".484" stop-color="#bdbdbd"/>
			<stop offset=".5" stop-color="#bcbcbc"/>
			<stop offset=".516" stop-color="#bbbbbb"/>
			<stop offset=".531" stop-color="#bababa"/>
			<stop offset=".547" stop-color="#b9b9b9"/>
			<stop offset=".563" stop-color="#b9b9b9"/>
			<stop offset=".578" stop-color="#b8b8b8"/>
			<stop offset=".594" stop-color="#b7b7b7"/>
			<stop offset=".609" stop-color="#b6b6b6"/>
			<stop offset=".625" stop-color="#b5b5b5"/>
			<stop offset=".641" stop-color="#b4b4b4"/>
			<stop offset=".656" stop-color="#b4b4b4"/>
			<stop offset=".672" stop-color="#b3b3b3"/>
			<stop offset=".688" stop-color="#b2b2b2"/>
			<stop offset=".703" stop-color="#b1b1b1"/>
			<stop offset=".719" stop-color="#b0b0b0"/>
			<stop offset=".734" stop-color="#afafaf"/>
			<stop offset=".75" stop-color="#afafaf"/>
			<stop offset=".766" stop-color="#aeaeae"/>
			<stop offset=".781" stop-color="#adadad"/>
			<stop offset=".797" stop-color="#acacac"/>
			<stop offset=".813" stop-color="#ababab"/>
			<stop offset=".828" stop-color="#aaaaaa"/>
			<stop offset=".844" stop-color="#aaaaaa"/>
			<stop offset=".859" stop-color="#a9a9a9"/>
			<stop offset=".875" stop-color="#a8a8a8"/>
			<stop offset=".891" stop-color="#a7a7a7"/>
			<stop offset=".906" stop-color="#a6a6a6"/>
			<stop offset=".922" stop-color="#a5a5a5"/>
			<stop offset=".938" stop-color="#a5a5a5"/>
			<stop offset=".953" stop-color="#a4a4a4"/>
			<stop offset=".969" stop-color="#a3a3a3"/>
			<stop offset=".984" stop-color="#a2a2a2"/>
			<stop offset="1" stop-color="#a1a1a1"/>
		</linearGradient>
		<clipPath clipPathUnits="userSpaceOnUse" id="cp9">
			<path d="m91 167h6v10h-6z"/>
		</clipPath>
		<clipPath clipPathUnits="userSpaceOnUse" id="cp10">
			<path d="m96.2 175.23c-1.52 0.54-3.11 1.17-4.21 1.63 0.68-2.54 2.27-6.88 3.17-9.34q0.31 3.89 1.04 7.71z"/>
		</clipPath>
		<linearGradient id="g3" x2="1" gradientUnits="userSpaceOnUse" gradientTransform="matrix(0,-9.339,4.216,0,94.096,176.861)">
			<stop offset="0" stop-color="#838383"/>
			<stop offset=".031" stop-color="#848484"/>
			<stop offset=".063" stop-color="#848484"/>
			<stop offset=".094" stop-color="#858585"/>
			<stop offset=".125" stop-color="#868686"/>
			<stop offset=".156" stop-color="#878787"/>
			<stop offset=".188" stop-color="#888888"/>
			<stop offset=".219" stop-color="#898989"/>
			<stop offset=".25" stop-color="#8a8a8a"/>
			<stop offset=".281" stop-color="#8b8b8b"/>
			<stop offset=".313" stop-color="#8c8c8c"/>
			<stop offset=".344" stop-color="#8d8d8d"/>
			<stop offset=".375" stop-color="#8e8e8e"/>
			<stop offset=".406" stop-color="#8f8f8f"/>
			<stop offset=".438" stop-color="#909090"/>
			<stop offset=".469" stop-color="#919191"/>
			<stop offset=".5" stop-color="#929292"/>
			<stop offset=".531" stop-color="#929292"/>
			<stop offset=".563" stop-color="#939393"/>
			<stop offset=".594" stop-color="#949494"/>
			<stop offset=".625" stop-color="#959595"/>
			<stop offset=".656" stop-color="#969696"/>
			<stop offset=".688" stop-color="#979797"/>
			<stop offset=".719" stop-color="#989898"/>
			<stop offset=".75" stop-color="#999999"/>
			<stop offset=".781" stop-color="#9a9a9a"/>
			<stop offset=".813" stop-color="#9b9b9b"/>
			<stop offset=".844" stop-color="#9c9c9c"/>
			<stop offset=".875" stop-color="#9d9d9d"/>
			<stop offset=".906" stop-color="#9e9e9e"/>
			<stop offset=".938" stop-color="#9f9f9f"/>
			<stop offset=".969" stop-color="#a0a0a0"/>
			<stop offset="1" stop-color="#a0a0a0"/>
		</linearGradient>
		<clipPath clipPathUnits="userSpaceOnUse" id="cp11">
			<path d="m70 171h5v13h-5z"/>
		</clipPath>
		<clipPath clipPathUnits="userSpaceOnUse" id="cp12">
			<path d="m74.16 182.32c-1.27 0.46-2.47 0.88-3.64 1.2q0.79-5.94 2.82-11.58-0.57 5.27 0.82 10.38z"/>
		</clipPath>
		<linearGradient id="g4" x2="1" gradientUnits="userSpaceOnUse" gradientTransform="matrix(0,-11.577,3.636,0,72.338,183.519)">
			<stop offset="0" stop-color="#838383"/>
			<stop offset=".031" stop-color="#848484"/>
			<stop offset=".063" stop-color="#848484"/>
			<stop offset=".094" stop-color="#858585"/>
			<stop offset=".125" stop-color="#868686"/>
			<stop offset=".156" stop-color="#878787"/>
			<stop offset=".188" stop-color="#888888"/>
			<stop offset=".219" stop-color="#898989"/>
			<stop offset=".25" stop-color="#8a8a8a"/>
			<stop offset=".281" stop-color="#8b8b8b"/>
			<stop offset=".313" stop-color="#8c8c8c"/>
			<stop offset=".344" stop-color="#8d8d8d"/>
			<stop offset=".375" stop-color="#8e8e8e"/>
			<stop offset=".406" stop-color="#8f8f8f"/>
			<stop offset=".438" stop-color="#909090"/>
			<stop offset=".469" stop-color="#919191"/>
			<stop offset=".5" stop-color="#929292"/>
			<stop offset=".531" stop-color="#929292"/>
			<stop offset=".563" stop-color="#939393"/>
			<stop offset=".594" stop-color="#949494"/>
			<stop offset=".625" stop-color="#959595"/>
			<stop offset=".656" stop-color="#969696"/>
			<stop offset=".688" stop-color="#979797"/>
			<stop offset=".719" stop-color="#989898"/>
			<stop offset=".75" stop-color="#999999"/>
			<stop offset=".781" stop-color="#9a9a9a"/>
			<stop offset=".813" stop-color="#9b9b9b"/>
			<stop offset=".844" stop-color="#9c9c9c"/>
			<stop offset=".875" stop-color="#9d9d9d"/>
			<stop offset=".906" stop-color="#9e9e9e"/>
			<stop offset=".938" stop-color="#9f9f9f"/>
			<stop offset=".969" stop-color="#a0a0a0"/>
			<stop offset="1" stop-color="#a0a0a0"/>
		</linearGradient>
		<clipPath clipPathUnits="userSpaceOnUse" id="cp13">
			<path d="m52 176h4v8h-4z"/>
		</clipPath>
		<clipPath clipPathUnits="userSpaceOnUse" id="cp14">
			<path d="m54.6 176.8q0.2 3.61 0.96 7.15-1.56-0.34-3.24-0.84c1.22-3.36 1.66-4.38 2.28-6.31z"/>
		</clipPath>
		<linearGradient id="g5" x2="1" gradientUnits="userSpaceOnUse" gradientTransform="matrix(0,-7.139,3.245,0,53.939,183.944)">
			<stop offset="0" stop-color="#838383"/>
			<stop offset=".031" stop-color="#848484"/>
			<stop offset=".063" stop-color="#848484"/>
			<stop offset=".094" stop-color="#858585"/>
			<stop offset=".125" stop-color="#868686"/>
			<stop offset=".156" stop-color="#878787"/>
			<stop offset=".188" stop-color="#888888"/>
			<stop offset=".219" stop-color="#898989"/>
			<stop offset=".25" stop-color="#8a8a8a"/>
			<stop offset=".281" stop-color="#8b8b8b"/>
			<stop offset=".313" stop-color="#8c8c8c"/>
			<stop offset=".344" stop-color="#8d8d8d"/>
			<stop offset=".375" stop-color="#8e8e8e"/>
			<stop offset=".406" stop-color="#8f8f8f"/>
			<stop offset=".438" stop-color="#909090"/>
			<stop offset=".469" stop-color="#919191"/>
			<stop offset=".5" stop-color="#929292"/>
			<stop offset=".531" stop-color="#929292"/>
			<stop offset=".563" stop-color="#939393"/>
			<stop offset=".594" stop-color="#949494"/>
			<stop offset=".625" stop-color="#959595"/>
			<stop offset=".656" stop-color="#969696"/>
			<stop offset=".688" stop-color="#979797"/>
			<stop offset=".719" stop-color="#989898"/>
			<stop offset=".75" stop-color="#999999"/>
			<stop offset=".781" stop-color="#9a9a9a"/>
			<stop offset=".813" stop-color="#9b9b9b"/>
			<stop offset=".844" stop-color="#9c9c9c"/>
			<stop offset=".875" stop-color="#9d9d9d"/>
			<stop offset=".906" stop-color="#9e9e9e"/>
			<stop offset=".938" stop-color="#9f9f9f"/>
			<stop offset=".969" stop-color="#a0a0a0"/>
			<stop offset="1" stop-color="#a0a0a0"/>
		</linearGradient>
		<clipPath clipPathUnits="userSpaceOnUse" id="cp15">
			<path d="m29 161h6v6h-6z"/>
		</clipPath>
		<clipPath clipPathUnits="userSpaceOnUse" id="cp16">
			<path d="m33.11 166.27q-1.79 0.7-3.66 0.25 1.94-2.9 4.59-5.16-0.59 2.43-0.93 4.91z"/>
		</clipPath>
		<linearGradient id="g6" x2="1" gradientUnits="userSpaceOnUse" gradientTransform="matrix(0,-5.461,4.582,0,31.745,166.825)">
			<stop offset="0" stop-color="#838383"/>
			<stop offset=".031" stop-color="#838383"/>
			<stop offset=".063" stop-color="#848484"/>
			<stop offset=".094" stop-color="#858585"/>
			<stop offset=".125" stop-color="#868686"/>
			<stop offset=".156" stop-color="#878787"/>
			<stop offset=".188" stop-color="#888888"/>
			<stop offset=".219" stop-color="#898989"/>
			<stop offset=".25" stop-color="#8a8a8a"/>
			<stop offset=".281" stop-color="#8b8b8b"/>
			<stop offset=".313" stop-color="#8c8c8c"/>
			<stop offset=".344" stop-color="#8c8c8c"/>
			<stop offset=".375" stop-color="#8d8d8d"/>
			<stop offset=".406" stop-color="#8e8e8e"/>
			<stop offset=".438" stop-color="#8f8f8f"/>
			<stop offset=".469" stop-color="#909090"/>
			<stop offset=".5" stop-color="#919191"/>
			<stop offset=".531" stop-color="#929292"/>
			<stop offset=".563" stop-color="#939393"/>
			<stop offset=".594" stop-color="#949494"/>
			<stop offset=".625" stop-color="#959595"/>
			<stop offset=".656" stop-color="#969696"/>
			<stop offset=".688" stop-color="#979797"/>
			<stop offset=".719" stop-color="#989898"/>
			<stop offset=".75" stop-color="#999999"/>
			<stop offset=".781" stop-color="#9a9a9a"/>
			<stop offset=".813" stop-color="#9b9b9b"/>
			<stop offset=".844" stop-color="#9c9c9c"/>
			<stop offset=".875" stop-color="#9d9d9d"/>
			<stop offset=".906" stop-color="#9e9e9e"/>
			<stop offset=".938" stop-color="#9f9f9f"/>
			<stop offset=".969" stop-color="#9f9f9f"/>
			<stop offset="1" stop-color="#a0a0a0"/>
		</linearGradient>
	</defs>
	<style>
		.s0 { fill: #ffffff } 
		.s1 { fill: #cfe7d7 } 
		.s2 { fill: none;stroke: #000000;stroke-width: 6 } 
		.s3 { fill: #86c658 } 
		.s4 { fill: none;stroke: #000000;stroke-width: 1.5 } 
		.s5 { fill: url(#g1) } 
		.s6 { fill: url(#g2) } 
		.s7 { fill: url(#g3) } 
		.s8 { fill: url(#g4) } 
		.s9 { fill: url(#g5) } 
		.s10 { fill: url(#g6) } 
		.s11 { fill: #231f20 } 
		.s12 { fill: #000000 } 
	</style>
	<path id="Layer" class="s0" d="m-150.5-100.5h450v450h-450z"/>
	<path id="Layer" class="s0" d="m-150.5-100.5h450v450h-450z"/>
	<g id="Clip-Path" clip-path="url(#cp1)">
		<g id="Layer">
			<path id="Layer" class="s1" d="m-0.5 0.1h150v248.8h-150z"/>
		</g>
	</g>
	<g id="Clip-Path" clip-path="url(#cp2)">
		<g id="Layer">
			<path id="Layer" fill-rule="evenodd" class="s2" d="m-0.5 0.1h150v249h-150z"/>
		</g>
	</g>
	<g id="Clip-Path" clip-path="url(#cp3)">
		<g id="Layer">
			<path id="Layer" class="s3" d="m4.3 5.1h140.4v43.4h-140.4z"/>
		</g>
	</g>
	<g id="Clip-Path" clip-path="url(#cp4)">
		<g id="Layer">
			<path id="Layer" fill-rule="evenodd" class="s4" d="m4.3 5.1h140.2v43.5h-140.2z"/>
		</g>
	</g>
	<g id="Clip-Path" clip-path="url(#cp5)">
		<g id="Layer">
			<g id="Clip-Path" clip-path="url(#cp6)">
				<g id="Layer">
					<path id="Layer" class="s5" d="m20.6 95.1v47.4h108v-47.4z"/>
				</g>
			</g>
		</g>
	</g>
	<g id="Clip-Path" clip-path="url(#cp7)">
		<g id="Layer">
			<g id="Clip-Path" clip-path="url(#cp8)">
				<g id="Layer">
					<path id="Layer" class="s6" d="m27.3 142.3v57.5h97v-57.5z"/>
				</g>
			</g>
		</g>
	</g>
	<g id="Clip-Path" clip-path="url(#cp9)">
		<g id="Layer">
			<g id="Clip-Path" clip-path="url(#cp10)">
				<g id="Layer">
					<path id="Layer" class="s7" d="m92 167.5v9.4h4.2v-9.4z"/>
				</g>
			</g>
		</g>
	</g>
	<g id="Clip-Path" clip-path="url(#cp11)">
		<g id="Layer">
			<g id="Clip-Path" clip-path="url(#cp12)">
				<g id="Layer">
					<path id="Layer" class="s8" d="m70.5 171.9v11.6h3.7v-11.6z"/>
				</g>
			</g>
		</g>
	</g>
	<g id="Clip-Path" clip-path="url(#cp13)">
		<g id="Layer">
			<g id="Clip-Path" clip-path="url(#cp14)">
				<g id="Layer">
					<path id="Layer" class="s9" d="m52.3 176.8v7.1h3.3v-7.1z"/>
				</g>
			</g>
		</g>
	</g>
	<g id="Clip-Path" clip-path="url(#cp15)">
		<g id="Layer">
			<g id="Clip-Path" clip-path="url(#cp16)">
				<g id="Layer">
					<path id="Layer" class="s10" d="m29.5 161.4v5.4h4.5v-5.4z"/>
				</g>
			</g>
		</g>
	</g>
	<g id="Layer">
		<g id="Layer">
			<g id="Layer">
				<path id="Layer" fill-rule="evenodd" class="s11" d="m49 37.3h-10v-21.1h10v1.2h-8.9v18.7h8.9zm-1.8-7.9h-5.5v5.1h7.3v1.2h-8.5v-7.4h6.7zm-5.5-2.9h5.5v1.3h-6.7v-10.1h8.5v1.2h-7.3z"/>
			</g>
		</g>
	</g>
	<g id="Layer">
		<g id="Layer">
			<g id="Layer">
				<path id="Layer" fill-rule="evenodd" class="s11" d="m64.5 22.8l-5.2 14.5h-1.9l-5.2-14.5h1.3l0.9 2.5 3.8 10.7h0.3l3.6-10 1.1-3.2zm-2.9 0h1.3l-1.1 3.1-3.4 9.4-3.6-10.1-0.8-2.4h1.2l3.2 8.9z"/>
			</g>
		</g>
	</g>
	<g id="Layer">
		<g id="Layer">
			<g id="Layer">
				<path id="Layer" fill-rule="evenodd" class="s11" d="m70.3 31.5q0.4 1.4 1.7 2.4 1.2 0.9 2.7 0.9 1.3 0 2.3-0.6 1-0.5 1.7-1.5l0.9 0.7q-0.8 1.2-2 1.9-1.3 0.7-2.9 0.7-1.2 0-2.2-0.5-1.1-0.5-1.9-1.2-0.7-0.8-1.2-1.8-0.5-1.1-0.6-2.2h12.3v-0.2q0-1.3-0.5-2.5-0.5-1.1-1.4-2-0.8-0.9-2-1.4-1.2-0.5-2.5-0.5-1.3 0-2.4 0.5-1.1 0.5-2 1.4-0.9 0.9-1.4 2-0.4 1.2-0.4 2.5 0 1.3 0.5 2.5 0.5 1.1 1.3 2 0.9 0.8 2 1.3 1.2 0.5 2.4 0.5 1.7 0 3.1-0.8 1.4-0.8 2.2-2l1 0.7q-1.1 1.5-2.7 2.4-1.7 0.9-3.6 0.9-1.5 0-2.8-0.6-1.4-0.6-2.4-1.6-1-1.1-1.6-2.4-0.6-1.4-0.6-2.9 0-1.5 0.5-2.9 0.6-1.4 1.6-2.4h0.1q1-1.1 2.4-1.6 1.4-0.6 2.8-0.6 1.6 0 2.9 0.6 1.4 0.6 2.4 1.6 1.1 1 1.7 2.4 0.6 1.4 0.6 2.9v1.4zm-1.5-1.6q0.1-1.2 0.6-2.2 0.5-1.1 1.2-1.8 0.8-0.8 1.9-1.3 1-0.4 2.2-0.4 1.3 0 2.3 0.4 1.1 0.5 1.9 1.3 0.8 0.7 1.2 1.8 0.5 1 0.5 2.2zm10.5-1.2q-0.5-1.5-1.8-2.4-1.2-0.9-2.8-0.9-1.9 0-3.3 1.3-0.8 0.8-1.2 2z"/>
			</g>
		</g>
	</g>
	<g id="Layer">
		<g id="Layer">
			<g id="Layer">
				<path id="Layer" fill-rule="evenodd" class="s11" d="m87.6 23.6q0.8-0.5 1.7-0.7 0.9-0.3 1.9-0.3 1.2 0 2.4 0.5 1.1 0.5 2 1.3 0.8 0.9 1.3 2 0.5 1.1 0.5 2.4v8.5h-1.2v-8.5q0-1-0.4-1.9-0.4-0.9-1.1-1.6-0.7-0.7-1.6-1.1-0.9-0.5-1.9-0.5-1.7 0-2.9 0.9-1.2 0.9-1.8 2.2v-4h1.1zm8.2 13.7h-1.2v-8.5q0-0.7-0.3-1.3-0.2-0.6-0.7-1.1-0.5-0.5-1.1-0.8-0.6-0.2-1.3-0.2-0.8 0-1.4 0.2-0.6 0.3-1.1 0.8-0.5 0.5-0.8 1.1-0.3 0.6-0.3 1.3v8.5h-1.1v-8.5q0-0.9 0.3-1.8 0.4-0.8 1-1.5 0.7-0.6 1.5-1 0.9-0.3 1.9-0.3 0.9 0 1.8 0.3 0.8 0.4 1.5 1 0.6 0.7 1 1.5 0.3 0.9 0.3 1.8zm-9.7 0h-1.2v-14.4h1.2z"/>
			</g>
		</g>
	</g>
	<g id="Layer">
		<g id="Layer">
			<g id="Layer">
				<path id="Layer" fill-rule="evenodd" class="s11" d="m100.6 16.2h1.2v7.8h-2.6v-1.2h1.4zm1.2 8.3v7.3q0 0.9 0.3 1.7 0.4 0.9 1 1.5 0.6 0.6 1.4 1 0.8 0.4 1.8 0.4h0.2v1.2q-1.2 0-2.2-0.5-1.1-0.4-1.9-1.2-0.9-0.9-1.3-1.9-0.5-1.1-0.5-2.3v-6.1h-1.4v-1.1zm4.5 11.5q-0.9 0-1.6-0.4-0.8-0.3-1.3-0.9-0.6-0.6-0.9-1.3-0.3-0.8-0.3-1.6v-7.3h3.6v1.1h-2.4v6.1q0 1.3 0.9 2.2 0.9 0.9 2.2 0.9v1.2zm-4.1-11.9v-7.9h1.2v6.7h2.4v1.2z"/>
			</g>
		</g>
	</g>
	<g id="Layer">
		<g id="Layer">
			<g id="Layer">
				<path id="Layer" fill-rule="evenodd" class="s12" d="m12.8 74.3h-3.9v5.7h-1.9v-15.1h7.1v0.8h-6.3v13.4h0.3v-5.6h4.7zm-3.9-2h3.9v0.8h-4.7v-7.1h6v0.8h-5.2z"/>
			</g>
		</g>
	</g>
	<g id="Layer">
		<g id="Layer">
			<g id="Layer">
				<path id="Layer" fill-rule="evenodd" class="s12" d="m26.8 64.9h0.9v9.7q0 1.1-0.5 2.2-0.4 1-1.2 1.7-0.7 0.8-1.8 1.3-1 0.4-2.2 0.4-1.1 0-2.1-0.4-1-0.4-1.8-1.2v-0.1q-0.8-0.7-1.3-1.8-0.4-1-0.4-2.1v-9.7h0.9v9.7q0 1 0.3 1.8 0.4 0.9 1.1 1.6 0.6 0.6 1.5 1 0.9 0.4 1.8 0.4 1 0 1.9-0.4 0.9-0.4 1.5-1 0.7-0.7 1.1-1.6 0.3-0.8 0.3-1.8zm-8.4 0v9.7q0 0.7 0.3 1.4 0.3 0.6 0.8 1.1 0.5 0.5 1.1 0.8 0.7 0.3 1.4 0.3 0.8 0 1.5-0.3 0.7-0.3 1.1-0.8 0.5-0.5 0.8-1.1 0.3-0.7 0.3-1.4v-9.7h0.9v9.7q0 0.9-0.4 1.7-0.4 0.8-1 1.4-0.6 0.6-1.4 1-0.9 0.4-1.8 0.4-0.9 0-1.7-0.4-0.8-0.4-1.4-1-0.7-0.6-1-1.4-0.4-0.8-0.4-1.7v-9.7z"/>
			</g>
		</g>
	</g>
	<g id="Layer">
		<g id="Layer">
			<g id="Layer">
				<path id="Layer" fill-rule="evenodd" class="s12" d="m30 64.9h4.4q1.5 0 2.9 0.6 1.3 0.6 2.4 1.6 1 1 1.6 2.4 0.6 1.4 0.6 2.9 0 1.6-0.6 2.9-0.6 1.4-1.6 2.4-1 1.1-2.4 1.7-1.4 0.6-2.9 0.6h-4.4zm0.8 0.8v13.4h3.6q1.4 0 2.6-0.6 1.2-0.5 2.1-1.4 0.9-0.9 1.4-2.1 0.6-1.3 0.6-2.6 0-1.4-0.6-2.6-0.5-1.2-1.4-2.1-0.9-1-2.2-1.5-1.2-0.5-2.5-0.5zm0.3 0.3h3.3q1.3 0 2.4 0.5 1.2 0.5 2.1 1.4 0.9 0.8 1.4 2 0.5 1.2 0.5 2.5 0 1.3-0.5 2.5-0.5 1.1-1.4 2-0.9 0.8-2.1 1.4-1.1 0.5-2.4 0.5h-3.3zm0.8 0.8v11.1h2.5q1.1 0 2.1-0.4 1-0.5 1.8-1.2 0.7-0.8 1.2-1.8 0.4-1 0.4-2.1 0-1.2-0.4-2.2-0.5-1-1.2-1.7-0.8-0.8-1.8-1.2-1-0.5-2.1-0.5z"/>
			</g>
		</g>
	</g>
	<g id="Layer">
		<g id="Layer">
			<g id="Layer">
			</g>
		</g>
	</g>
	<g id="Layer">
		<g id="Layer">
			<g id="Layer">
				<path id="Layer" fill-rule="evenodd" class="s12" d="m59.4 77.5q-0.7 1.2-1.9 1.9-1.3 0.8-2.7 0.8-1.1 0-2-0.5-1-0.4-1.8-1.1-0.7-0.8-1.1-1.7-0.4-1-0.4-2.1 0-1.1 0.4-2 0.4-1 1.1-1.8 0.8-0.7 1.8-1.1 1-0.4 2-0.4 1.5 0 2.7 0.7 1.2 0.7 1.9 1.9l-0.7 0.4q-0.1-0.2-0.3-0.4-0.2-0.3-0.4-0.5-1.3-1.3-3.1-1.3h-0.1q-0.9 0-1.7 0.3-0.9 0.4-1.5 1-0.6 0.6-0.9 1.4-0.4 0.9-0.4 1.8 0 1 0.4 1.8 0.3 0.8 0.9 1.4 0.6 0.6 1.5 0.9 0.8 0.4 1.7 0.4h0.1q1.8 0 3.1-1.3 0.2-0.2 0.4-0.5 0.2-0.2 0.3-0.5zm-1.7-4.3q-0.5-0.8-1.3-1.2-0.8-0.5-1.6-0.5-1.4 0-2.4 1-1 1-1 2.4 0 0.7 0.3 1.3 0.2 0.6 0.7 1.1 0.5 0.4 1.1 0.7 0.6 0.2 1.3 0.2 0.8 0 1.6-0.4 0.8-0.4 1.3-1.3l0.7 0.5q-0.5 1-1.5 1.5-1 0.6-2.1 0.6-0.9 0-1.6-0.3-0.8-0.4-1.4-0.9-0.6-0.6-0.9-1.4-0.3-0.7-0.3-1.6 0-0.9 0.3-1.7 0.3-0.7 0.9-1.3 0.6-0.6 1.4-0.9 0.7-0.3 1.6-0.3h0.1q1.1 0 2.1 0.6 0.9 0.5 1.4 1.5z"/>
			</g>
		</g>
	</g>
	<g id="Layer">
		<g id="Layer">
			<g id="Layer">
				<path id="Layer" fill-rule="evenodd" class="s12" d="m70 79q-1.5 1.2-3.4 1.2-1.1 0-2.1-0.5-0.9-0.4-1.7-1.1-0.7-0.8-1.1-1.7-0.4-1-0.4-2.1 0-1.1 0.4-2.1 0.4-0.9 1.1-1.7 0.8-0.7 1.7-1.1 1-0.4 2.1-0.4 1.9 0 3.4 1.1v-1h0.8v3.6q-0.3-0.9-1-1.6-0.6-0.6-1.5-0.9-0.8-0.4-1.7-0.4-0.9 0-1.8 0.3-0.8 0.4-1.4 1-0.6 0.6-1 1.4-0.3 0.9-0.3 1.8 0 1 0.4 1.8 0.3 0.8 0.9 1.4 0.7 0.6 1.5 1 0.8 0.3 1.7 0.3 0.9 0 1.7-0.3 0.9-0.4 1.5-1 0.7-0.7 1-1.6v3.6h-0.8zm-6.4-1.2q-0.6-0.6-0.9-1.4-0.3-0.7-0.3-1.6 0-0.8 0.3-1.6 0.3-0.8 0.9-1.4 0.6-0.5 1.3-0.9 0.8-0.3 1.7-0.3 0.9 0 1.7 0.3 0.7 0.4 1.3 0.9 0.6 0.6 0.9 1.4 0.3 0.8 0.3 1.6 0 0.8-0.3 1.6-0.3 0.8-0.9 1.4-0.6 0.5-1.3 0.9-0.8 0.3-1.7 0.3-0.9 0-1.6-0.3-0.8-0.4-1.4-0.9zm7.5-8.2h0.8v10.4h-0.8zm-6.9 7.5q1 1 2.4 1 0.7 0 1.3-0.3 0.6-0.3 1.1-0.7 0.4-0.5 0.7-1.1 0.3-0.6 0.3-1.3 0-0.7-0.3-1.3-0.3-0.6-0.7-1-0.5-0.5-1.1-0.8-0.6-0.2-1.3-0.2-0.7 0-1.3 0.2-0.6 0.3-1.1 0.8-0.4 0.4-0.7 1-0.3 0.6-0.3 1.3 0 0.7 0.3 1.3 0.2 0.6 0.7 1.1z"/>
			</g>
		</g>
	</g>
	<g id="Layer">
		<g id="Layer">
			<g id="Layer">
				<path id="Layer" fill-rule="evenodd" class="s12" d="m76.2 70.2q0.5-0.4 1.2-0.5 0.6-0.2 1.3-0.2 0.9 0 1.9 0.4 0.9 0.4 1.5 1.2 0.7-0.8 1.6-1.2 0.9-0.4 1.9-0.4 0.9 0 1.7 0.3 0.9 0.4 1.5 1 0.6 0.6 0.9 1.4 0.4 0.8 0.4 1.7v6.1h-0.8v-6.1q0-0.7-0.3-1.4-0.3-0.6-0.8-1.1-0.5-0.5-1.2-0.8-0.6-0.3-1.4-0.3-1.2 0-2.2 0.7-0.9 0.7-1.3 1.9-0.3-1.1-1.2-1.9-1-0.7-2.2-0.7-1.2 0-2 0.6-0.9 0.6-1.4 1.6v-2.9h0.9zm12.8 9.8h-0.9v-6.1q0-0.5-0.2-0.9-0.2-0.5-0.5-0.8-0.4-0.3-0.8-0.5-0.5-0.2-1-0.2-0.5 0-1 0.2-0.4 0.2-0.7 0.5-0.4 0.3-0.6 0.8-0.2 0.4-0.2 0.9v6.1h-0.8v-6.1q0-0.7 0.2-1.3 0.3-0.6 0.8-1 0.4-0.5 1-0.7 0.6-0.3 1.3-0.3 0.7 0 1.3 0.3 0.6 0.2 1.1 0.7 0.4 0.4 0.7 1 0.3 0.6 0.3 1.3zm-7 0h-0.9v-6q0-0.5-0.2-0.9-0.1-0.5-0.5-0.8-0.3-0.4-0.8-0.6-0.4-0.2-0.9-0.2-0.6 0-1 0.2-0.5 0.2-0.8 0.6-0.3 0.3-0.5 0.8-0.2 0.4-0.2 0.9v6h-0.9v-6q0-0.7 0.3-1.3 0.2-0.6 0.7-1v-0.1q0.4-0.4 1-0.7 0.7-0.2 1.4-0.2 0.6 0 1.3 0.2 0.6 0.3 1 0.7v0.1q0.5 0.4 0.7 1 0.3 0.6 0.3 1.3zm-7 0h-0.8v-10.3h0.8z"/>
			</g>
		</g>
	</g>
	<g id="Layer">
		<g id="Layer">
			<g id="Layer">
				<path id="Layer" fill-rule="evenodd" class="s12" d="m94.2 70.6q1.4-1.1 3.3-1.1 1.1 0 2.1 0.4 1 0.4 1.7 1.1 0.7 0.8 1.1 1.7 0.5 1 0.5 2.1 0 1.1-0.5 2.1-0.4 0.9-1.1 1.7-0.8 0.7-1.7 1.1-1 0.5-2.1 0.5-1.9 0-3.3-1.2l-0.1 5.7h-0.8v-8.3q0.5 1.3 1.6 2.1 1.2 0.8 2.6 0.8 0.9 0 1.8-0.3 0.8-0.4 1.4-1 0.6-0.6 1-1.4 0.3-0.8 0.3-1.8 0-0.9-0.3-1.7-0.4-0.8-1-1.5-0.6-0.6-1.4-0.9-0.9-0.4-1.8-0.4-0.7 0-1.4 0.2-0.6 0.2-1.2 0.6-0.5 0.4-0.9 1-0.5 0.5-0.7 1.1v-3.6h0.9zm3.3 8.4q-0.9 0-1.6-0.3-0.8-0.4-1.4-0.9-0.5-0.6-0.9-1.3-0.3-0.8-0.3-1.7 0-0.8 0.3-1.6 0.4-0.8 0.9-1.4 0.6-0.5 1.4-0.9 0.7-0.3 1.6-0.3 0.9 0 1.7 0.3 0.7 0.4 1.3 0.9 0.6 0.6 0.9 1.4 0.3 0.8 0.3 1.6 0 0.9-0.3 1.6-0.3 0.8-0.9 1.4-0.6 0.5-1.3 0.9-0.8 0.3-1.7 0.3zm-4.5 5.7h-0.8v-15.1h0.8zm4.5-13.2q-0.7 0-1.3 0.2-0.6 0.3-1.1 0.8-0.4 0.4-0.7 1-0.2 0.6-0.2 1.3 0 0.7 0.2 1.3 0.3 0.7 0.8 1.1 0.4 0.5 1 0.7 0.6 0.3 1.3 0.3 0.7 0 1.3-0.3 0.6-0.2 1.1-0.7 0.4-0.4 0.7-1.1 0.3-0.6 0.3-1.3 0-0.6-0.3-1.2-0.3-0.7-0.7-1.1-0.5-0.5-1.1-0.8-0.6-0.2-1.3-0.2z"/>
			</g>
		</g>
	</g>
	<g id="Layer">
		<g id="Layer">
			<g id="Layer">
				<path id="Layer" fill-rule="evenodd" class="s12" d="m113.4 79q-1.4 1.2-3.3 1.2-1.1 0-2.1-0.5-0.9-0.4-1.7-1.1-0.7-0.8-1.1-1.7-0.5-1-0.5-2.1 0-1.1 0.5-2.1 0.4-0.9 1.1-1.7 0.8-0.7 1.7-1.1 1-0.4 2.1-0.4 1.9 0 3.3 1.1v-1h0.9v3.6q-0.3-0.9-1-1.6-0.7-0.6-1.5-0.9-0.8-0.4-1.7-0.4-1 0-1.8 0.3-0.8 0.4-1.4 1-0.6 0.6-1 1.4-0.3 0.9-0.3 1.8 0 1 0.3 1.8 0.4 0.8 1 1.4 0.6 0.6 1.4 1 0.9 0.3 1.8 0.3 0.9 0 1.7-0.3 0.8-0.4 1.5-1 0.7-0.7 1-1.6v3.6h-0.9zm-6.3-1.2q-0.6-0.6-0.9-1.4-0.3-0.7-0.3-1.6 0-0.8 0.3-1.6 0.3-0.8 0.9-1.4 0.5-0.5 1.3-0.9 0.8-0.3 1.7-0.3 0.9 0 1.6 0.3 0.8 0.4 1.4 0.9 0.5 0.6 0.9 1.4 0.3 0.8 0.3 1.6 0 0.8-0.3 1.6-0.4 0.8-0.9 1.4-0.6 0.5-1.4 0.9-0.7 0.3-1.6 0.3-0.9 0-1.7-0.3-0.7-0.4-1.3-0.9zm7.5-8.2h0.8v10.4h-0.8zm-6.9 7.5q1 1 2.4 1 0.7 0 1.3-0.3 0.6-0.3 1.1-0.7 0.4-0.5 0.7-1.1 0.2-0.6 0.2-1.3 0-0.7-0.2-1.3-0.3-0.6-0.7-1-0.5-0.5-1.1-0.8-0.6-0.2-1.3-0.2-0.7 0-1.3 0.2-0.6 0.3-1.1 0.8-0.5 0.4-0.7 1-0.3 0.6-0.3 1.3 0 0.7 0.3 1.3 0.2 0.6 0.7 1.1z"/>
			</g>
		</g>
	</g>
	<g id="Layer">
		<g id="Layer">
			<g id="Layer">
				<path id="Layer" fill-rule="evenodd" class="s12" d="m117.9 80v-10.4h0.9v10.4zm1.1-10.4h0.8v10.4h-0.8zm-0.2-4.9q0.5 0 0.9 0.4 0.4 0.3 0.4 0.8 0 0.5-0.4 0.9-0.4 0.3-0.9 0.3-0.5 0-0.8-0.3-0.4-0.4-0.4-0.9 0-0.5 0.4-0.8 0.3-0.4 0.8-0.4zm0 0.7q-0.2 0-0.4 0.1-0.1 0.2-0.1 0.4 0 0.2 0.1 0.4 0.2 0.1 0.4 0.1 0.3 0 0.4-0.1 0.2-0.2 0.2-0.4 0-0.2-0.2-0.4-0.1-0.1-0.4-0.1zm0 0.2q0.3 0.1 0.3 0.3 0 0.2-0.3 0.2-0.2 0-0.2-0.2 0-0.2 0.2-0.3z"/>
			</g>
		</g>
	</g>
	<g id="Layer">
		<g id="Layer">
			<g id="Layer">
				<path id="Layer" fill-rule="evenodd" class="s12" d="m130.8 69.6h0.9v3.6q-0.6-1.3-1.7-2.1-1.1-0.8-2.6-0.8-0.9 0-1.7 0.3-0.8 0.4-1.4 1-0.7 0.6-1 1.4-0.4 0.9-0.4 1.8 0 1 0.4 1.8 0.4 0.8 1 1.4 0.6 0.6 1.4 1 0.8 0.3 1.7 0.3 1.5 0 2.6-0.8 1.1-0.8 1.7-2.1v3.3q0 0.9-0.4 1.6-0.3 0.8-0.8 1.3-0.6 0.6-1.3 0.9-0.8 0.3-1.6 0.3-0.9 0-1.6-0.4-0.8-0.3-1.4-0.9l0.7-0.6q0.4 0.5 1 0.8 0.6 0.2 1.3 0.2 0.7 0 1.2-0.2 0.6-0.3 1.1-0.7 0.4-0.5 0.7-1 0.2-0.6 0.2-1.3v-0.7q-1.5 1.2-3.4 1.2-1 0-2-0.4-1-0.5-1.7-1.2h-0.1q-0.7-0.8-1.1-1.7-0.4-1-0.4-2.1 0-1.1 0.4-2.1 0.4-0.9 1.2-1.7 0.7-0.7 1.7-1.1 1-0.4 2-0.4 2 0 3.4 1.1zm-6.3 8.2q-0.6-0.6-0.9-1.4-0.4-0.7-0.4-1.6 0-0.8 0.4-1.6 0.3-0.8 0.8-1.4 0.6-0.5 1.4-0.9 0.8-0.3 1.6-0.3 0.9 0 1.7 0.3 0.7 0.4 1.3 0.9 0.6 0.6 0.9 1.4 0.3 0.7 0.4 1.6-0.1 0.9-0.4 1.7-0.3 0.7-0.9 1.3-0.6 0.5-1.3 0.9-0.8 0.3-1.7 0.3-0.8 0-1.6-0.3-0.7-0.4-1.3-0.9zm7.4-8.2h0.9v10.1q0 1.1-0.4 2-0.4 1-1.1 1.7-0.7 0.7-1.7 1.1-0.9 0.4-2 0.4-1.1 0-2.1-0.4-0.9-0.4-1.7-1.2l0.7-0.6q0.5 0.7 1.4 1 0.8 0.4 1.7 0.4 0.9 0 1.7-0.4 0.8-0.3 1.4-0.9 0.6-0.6 0.9-1.4 0.3-0.8 0.3-1.7zm-6.8 7.6q1 1 2.3 1 0.7 0 1.3-0.3 0.6-0.3 1.1-0.7 0.5-0.5 0.7-1.1 0.3-0.6 0.3-1.3 0-0.7-0.3-1.3-0.2-0.6-0.7-1.1-0.5-0.4-1.1-0.7-0.6-0.3-1.3-0.3-0.6 0-1.3 0.3-0.6 0.3-1 0.7-0.5 0.5-0.8 1.1-0.2 0.6-0.2 1.3 0 1.4 1 2.4z"/>
			</g>
		</g>
	</g>
	<g id="Layer">
		<g id="Layer">
			<g id="Layer">
				<path id="Layer" fill-rule="evenodd" class="s12" d="m136.9 70.2q0.6-0.4 1.2-0.5 0.7-0.2 1.3-0.2 0.9 0 1.7 0.3 0.9 0.4 1.5 1 0.6 0.6 0.9 1.4 0.4 0.8 0.4 1.7v6.1h-0.9v-6.1q0-0.7-0.2-1.4-0.3-0.6-0.8-1.1-0.5-0.5-1.2-0.8-0.6-0.3-1.4-0.3-1.1 0-2 0.6-0.9 0.7-1.3 1.6v-2.9h0.8zm5.9 9.8h-0.9v-6.1q0-0.5-0.2-0.9-0.2-0.5-0.5-0.8-0.4-0.3-0.8-0.5-0.5-0.2-1-0.2-0.5 0-0.9 0.2-0.5 0.2-0.8 0.5-0.4 0.3-0.6 0.8-0.2 0.4-0.2 0.9v6.1h-0.8v-6.1q0-0.7 0.3-1.3 0.2-0.6 0.7-1 0.4-0.5 1-0.7 0.6-0.3 1.3-0.3 0.7 0 1.3 0.3 0.7 0.2 1.1 0.7 0.4 0.4 0.7 1 0.3 0.6 0.3 1.3zm-7 0h-0.8v-10.3h0.8z"/>
			</g>
		</g>
	</g>
	<g id="Layer">
		<g id="Layer">
			<g id="Layer">
				<path id="Layer" fill-rule="evenodd" class="s12" d="m6.4 226.1h-0.3v-6.1h1.7q0.4 0 0.7 0.2 0.4 0.1 0.7 0.4 0.2 0.3 0.4 0.6 0.2 0.4 0.2 0.8 0 0.3-0.1 0.6-0.1 0.3-0.3 0.5-0.2 0.3-0.4 0.5-0.2 0.2-0.5 0.3l1.6 2.2h-0.4l-1.4-1.8-0.4-0.6q0.3-0.1 0.6-0.2 0.3-0.1 0.5-0.4 0.2-0.2 0.3-0.5 0.1-0.3 0.1-0.6 0-0.3-0.1-0.6-0.2-0.4-0.4-0.6-0.2-0.2-0.5-0.3-0.3-0.2-0.6-0.2h-1.4zm0.2-2.6v-3h1.2q0.3 0 0.5 0.1 0.3 0.1 0.5 0.3 0.2 0.2 0.4 0.5 0.1 0.3 0.1 0.6 0 0.3-0.1 0.6-0.2 0.3-0.4 0.5-0.2 0.2-0.5 0.3-0.2 0.1-0.5 0.1zm1 0.5h-0.7v2.1h-0.3v-2.4h1.1l1.8 2.4h-0.4zm-0.6-3.1v2.3h0.8q0.2 0 0.5-0.1 0.2-0.1 0.3-0.2 0.2-0.2 0.3-0.4 0.1-0.2 0.1-0.5 0-0.2-0.1-0.4-0.1-0.2-0.3-0.4-0.1-0.2-0.3-0.3-0.2 0-0.5 0z"/>
			</g>
		</g>
	</g>
	<g id="Layer">
		<g id="Layer">
			<g id="Layer">
				<path id="Layer" fill-rule="evenodd" class="s12" d="m11.7 224.4q0.1 0.5 0.5 0.7 0.3 0.3 0.8 0.3 0.3 0 0.6-0.2 0.3-0.1 0.5-0.4l0.3 0.2q-0.2 0.3-0.6 0.5-0.4 0.2-0.8 0.2-0.4 0-0.7-0.1-0.3-0.1-0.5-0.4-0.2-0.2-0.4-0.5-0.1-0.3-0.1-0.6h3.5v-0.1q0-0.3-0.1-0.7-0.2-0.3-0.4-0.6-0.3-0.2-0.6-0.4-0.3-0.1-0.7-0.1-0.4 0-0.7 0.1-0.4 0.2-0.6 0.4-0.3 0.3-0.4 0.6-0.1 0.4-0.1 0.7 0 0.4 0.1 0.7 0.2 0.4 0.4 0.6 0.3 0.3 0.6 0.4 0.3 0.2 0.7 0.2 0.5 0 0.9-0.3 0.4-0.2 0.6-0.5l0.3 0.1q-0.3 0.5-0.8 0.7-0.5 0.3-1 0.3-0.5 0-0.8-0.2-0.4-0.1-0.7-0.4-0.3-0.3-0.5-0.7-0.2-0.4-0.2-0.9 0-0.4 0.2-0.8 0.1-0.4 0.4-0.7h0.1q0.3-0.3 0.7-0.5 0.3-0.1 0.8-0.1 0.4 0 0.8 0.1 0.4 0.2 0.7 0.5 0.3 0.3 0.5 0.7 0.2 0.4 0.2 0.8v0.4zm-0.4-0.4q0-0.4 0.1-0.7 0.1-0.3 0.4-0.5 0.2-0.2 0.5-0.4 0.3-0.1 0.7-0.1 0.3 0 0.6 0.1 0.3 0.2 0.6 0.4 0.2 0.2 0.3 0.5 0.2 0.3 0.2 0.7zm3-0.4q-0.1-0.4-0.5-0.7-0.4-0.2-0.8-0.2-0.6 0-1 0.4-0.2 0.2-0.3 0.5z"/>
			</g>
		</g>
	</g>
	<g id="Layer">
		<g id="Layer">
			<g id="Layer">
				<path id="Layer" fill-rule="evenodd" class="s12" d="m20 225.1q-0.3 0.5-0.8 0.8-0.5 0.3-1.1 0.3-0.4 0-0.8-0.2-0.4-0.1-0.7-0.4-0.3-0.3-0.5-0.7-0.2-0.4-0.2-0.9 0-0.4 0.2-0.8 0.2-0.4 0.5-0.7 0.3-0.3 0.7-0.5 0.4-0.1 0.8-0.1 0.6 0 1.1 0.3 0.5 0.2 0.8 0.7l-0.3 0.2q-0.1-0.1-0.1-0.2-0.1-0.1-0.2-0.2-0.5-0.5-1.3-0.5-0.4 0-0.7 0.1-0.3 0.2-0.6 0.4-0.2 0.3-0.4 0.6-0.1 0.4-0.1 0.7 0 0.4 0.1 0.7 0.2 0.4 0.4 0.6 0.3 0.3 0.6 0.4 0.3 0.2 0.7 0.2 0.8-0.1 1.3-0.6 0.1-0.1 0.2-0.2 0-0.1 0.1-0.2zm-0.7-1.7q-0.2-0.4-0.5-0.5-0.3-0.2-0.7-0.2-0.5 0-0.9 0.4-0.4 0.4-0.4 1 0 0.2 0.1 0.5 0.1 0.2 0.3 0.4 0.1 0.2 0.4 0.3 0.2 0.1 0.5 0.1 0.4 0 0.7-0.2 0.3-0.1 0.5-0.5l0.3 0.2q-0.2 0.4-0.6 0.6-0.4 0.3-0.9 0.3-0.3 0-0.6-0.2-0.3-0.1-0.6-0.3-0.2-0.3-0.4-0.6-0.1-0.3-0.1-0.6 0-0.4 0.1-0.7 0.2-0.3 0.4-0.6 0.3-0.2 0.6-0.3 0.3-0.2 0.6-0.2h0.1q0.4 0.1 0.8 0.3 0.4 0.2 0.6 0.6z"/>
			</g>
		</g>
	</g>
	<g id="Layer">
		<g id="Layer">
			<g id="Layer">
				<path id="Layer" fill-rule="evenodd" class="s12" d="m21.6 224.4q0.1 0.5 0.5 0.7 0.3 0.3 0.8 0.3 0.4 0 0.6-0.2 0.3-0.1 0.5-0.4l0.3 0.2q-0.2 0.3-0.6 0.5-0.3 0.2-0.8 0.2-0.3 0-0.7-0.1-0.3-0.1-0.5-0.4-0.2-0.2-0.4-0.5-0.1-0.3-0.1-0.6h3.5v-0.1q0-0.3-0.1-0.7-0.2-0.3-0.4-0.6-0.3-0.2-0.6-0.4-0.3-0.1-0.7-0.1-0.4 0-0.7 0.1-0.3 0.2-0.6 0.4-0.2 0.3-0.4 0.6-0.1 0.4-0.1 0.7 0 0.4 0.1 0.7 0.2 0.4 0.4 0.6 0.3 0.3 0.6 0.4 0.3 0.2 0.7 0.2 0.5 0 0.9-0.3 0.4-0.2 0.6-0.5l0.3 0.1q-0.3 0.5-0.8 0.7-0.5 0.3-1 0.3-0.4 0-0.8-0.2-0.4-0.1-0.7-0.4-0.3-0.3-0.5-0.7-0.2-0.4-0.2-0.9 0-0.4 0.2-0.8 0.2-0.4 0.5-0.7 0.3-0.3 0.7-0.5 0.4-0.1 0.8-0.1 0.5 0 0.8 0.1 0.4 0.2 0.7 0.5 0.3 0.3 0.5 0.7 0.2 0.4 0.2 0.8v0.4zm-0.4-0.4q0-0.4 0.1-0.7 0.2-0.3 0.4-0.5 0.2-0.2 0.5-0.4 0.3-0.1 0.7-0.1 0.3 0 0.6 0.1 0.4 0.2 0.6 0.4 0.2 0.2 0.4 0.5 0.1 0.3 0.1 0.7zm3-0.4q-0.1-0.4-0.5-0.7-0.3-0.2-0.8-0.2-0.6 0-0.9 0.4h-0.1q-0.2 0.2-0.3 0.5z"/>
			</g>
		</g>
	</g>
	<g id="Layer">
		<g id="Layer">
			<g id="Layer">
				<path id="Layer" fill-rule="evenodd" class="s12" d="m25.9 226.1v-4.2h0.4v4.2zm0.4-4.2h0.4v4.2h-0.4zm0-1.9q0.2 0 0.3 0.1 0.2 0.1 0.2 0.3 0 0.2-0.2 0.4-0.1 0.1-0.3 0.1-0.2 0-0.4-0.1-0.1-0.2-0.1-0.4 0-0.2 0.1-0.3 0.2-0.1 0.4-0.1zm0 0.2q-0.1 0-0.2 0.1 0 0 0 0.1 0 0.1 0 0.2 0.1 0.1 0.2 0.1 0.1 0 0.1-0.1 0.1-0.1 0.1-0.2 0-0.1-0.1-0.1 0-0.1-0.1-0.1zm0 0.1q0.1 0 0.1 0.1 0 0.1-0.1 0.1-0.1 0-0.1-0.1 0-0.1 0.1-0.1z"/>
			</g>
		</g>
	</g>
	<g id="Layer">
		<g id="Layer">
			<g id="Layer">
				<path id="Layer" fill-rule="evenodd" class="s12" d="m31.2 221.9l-1.5 4.2h-0.5l-1.5-4.2h0.3l0.3 0.7 1.1 3.1h0.1l1-2.8 0.4-1zm-0.9 0h0.4l-0.4 0.9-0.9 2.7-1.1-2.9-0.2-0.7h0.4l0.9 2.6z"/>
			</g>
		</g>
	</g>
	<g id="Layer">
		<g id="Layer">
			<g id="Layer">
				<path id="Layer" fill-rule="evenodd" class="s12" d="m32.9 224.4q0.1 0.5 0.5 0.7 0.3 0.3 0.8 0.3 0.4 0 0.6-0.2 0.3-0.1 0.5-0.4l0.3 0.2q-0.2 0.3-0.6 0.5-0.4 0.2-0.8 0.2-0.3 0-0.7-0.1-0.3-0.1-0.5-0.4-0.2-0.2-0.4-0.5-0.1-0.3-0.1-0.6h3.5v-0.1q0-0.3-0.1-0.7-0.2-0.3-0.4-0.6-0.3-0.2-0.6-0.4-0.3-0.1-0.7-0.1-0.4 0-0.7 0.1-0.4 0.2-0.6 0.4-0.3 0.3-0.4 0.6-0.1 0.4-0.1 0.7 0 0.4 0.1 0.7 0.2 0.4 0.4 0.6 0.3 0.3 0.6 0.4 0.3 0.2 0.7 0.2 0.5 0 0.9-0.3 0.4-0.2 0.6-0.5l0.3 0.1q-0.3 0.5-0.8 0.7-0.5 0.3-1 0.3-0.4 0-0.8-0.2-0.4-0.1-0.7-0.4-0.3-0.3-0.5-0.7-0.2-0.4-0.2-0.9 0-0.4 0.2-0.8 0.2-0.4 0.4-0.7h0.1q0.3-0.3 0.7-0.5 0.4-0.1 0.8-0.1 0.4 0 0.8 0.1 0.4 0.2 0.7 0.5 0.3 0.3 0.5 0.7 0.2 0.4 0.2 0.8v0.4zm-0.4-0.4q0-0.4 0.1-0.7 0.2-0.3 0.4-0.5 0.2-0.2 0.5-0.4 0.3-0.1 0.7-0.1 0.3 0 0.6 0.1 0.3 0.2 0.6 0.4 0.2 0.2 0.3 0.5 0.2 0.3 0.2 0.7zm3-0.4q-0.1-0.4-0.5-0.7-0.3-0.2-0.8-0.2-0.6 0-1 0.4-0.2 0.2-0.3 0.5z"/>
			</g>
		</g>
	</g>
	<g id="Layer">
		<g id="Layer">
			<g id="Layer">
			</g>
		</g>
	</g>
	<g id="Layer">
		<g id="Layer">
			<g id="Layer">
				<path id="Layer" class="s12" d="m41.1 220v6.1h-0.4v-5.8h-1.1l0.1-0.3zm-0.8 6.1v-5.3h-0.8l0.1-0.4h1v5.7z"/>
			</g>
		</g>
	</g>
	<g id="Layer">
		<g id="Layer">
			<g id="Layer">
				<path id="Layer" fill-rule="evenodd" class="s12" d="m42.2 221.8q0.1-0.4 0.3-0.7 0.2-0.4 0.5-0.7 0.3-0.2 0.7-0.4 0.3-0.1 0.8-0.1 0.6 0 1 0.3 0.5 0.2 0.8 0.7 0.3 0.4 0.5 1 0.1 0.6 0.1 1.2 0 0.6-0.1 1.1-0.2 0.6-0.5 1-0.3 0.5-0.8 0.8-0.4 0.2-1 0.2-0.6 0-1.1-0.2-0.5-0.3-0.8-0.8-0.3-0.4-0.4-1-0.2-0.5-0.2-1.1 0-0.7 0.2-1.3zm0.3 0.1q-0.1 0.3-0.1 0.6 0 0.3 0 0.6 0 0.5 0.1 1 0.1 0.5 0.4 0.9 0.2 0.4 0.6 0.7 0.4 0.2 1 0.2 0.5 0 0.9-0.2 0.4-0.3 0.7-0.7 0.2-0.4 0.4-0.9 0.1-0.5 0.1-1 0-0.6-0.1-1.1-0.2-0.5-0.4-0.9-0.3-0.4-0.7-0.6-0.4-0.3-0.9-0.3-0.4 0-0.7 0.2-0.3 0.1-0.6 0.3-0.2 0.3-0.4 0.6-0.2 0.3-0.3 0.6zm2-1.6q0.5 0 0.9 0.3 0.3 0.2 0.6 0.6 0.2 0.4 0.4 0.9 0.1 0.5 0.1 1 0 0.4-0.1 0.9-0.2 0.5-0.4 0.9-0.2 0.4-0.6 0.6-0.4 0.3-0.9 0.3-0.5 0-0.9-0.3-0.4-0.2-0.7-0.6-0.2-0.4-0.3-0.9-0.1-0.5-0.1-0.9 0-0.5 0.1-1 0.1-0.5 0.4-0.9 0.2-0.4 0.6-0.6 0.4-0.3 0.9-0.3zm0 0.4q-0.5 0-0.8 0.2-0.3 0.2-0.5 0.6-0.2 0.3-0.3 0.8-0.1 0.4-0.1 0.8 0 0.3 0.1 0.8 0.1 0.4 0.3 0.7 0.2 0.4 0.5 0.6 0.3 0.2 0.8 0.2 0.4 0 0.7-0.2 0.4-0.2 0.6-0.6 0.2-0.3 0.3-0.7 0.1-0.5 0.1-0.8 0-0.4-0.1-0.8-0.1-0.5-0.3-0.8-0.2-0.4-0.6-0.6-0.3-0.2-0.7-0.2z"/>
			</g>
		</g>
	</g>
	<g id="Layer">
		<g id="Layer">
			<g id="Layer">
				<path id="Layer" fill-rule="evenodd" class="s12" d="m52.5 221.3l-3.4 4.8h-0.5l3.1-4.3 0.4-0.5zm-4 4.8h-0.4l3.4-4.8h0.4zm3.2-2.1q0.2 0 0.4 0.1 0.1 0.1 0.3 0.3 0.1 0.1 0.2 0.3 0.1 0.2 0.1 0.4 0 0.2-0.1 0.4-0.1 0.2-0.2 0.3-0.2 0.2-0.3 0.2-0.2 0.1-0.4 0.1-0.3 0-0.4-0.1-0.2 0-0.4-0.2-0.1-0.1-0.2-0.3-0.1-0.2-0.1-0.4 0-0.2 0.1-0.4 0.1-0.2 0.2-0.3 0.2-0.2 0.4-0.3 0.1-0.1 0.4-0.1zm0 0.4q-0.3 0-0.5 0.2-0.2 0.2-0.2 0.5 0 0.3 0.2 0.5 0.2 0.2 0.5 0.2 0.2 0 0.4-0.2 0.2-0.2 0.3-0.5 0-0.3-0.3-0.5-0.2-0.2-0.4-0.2zm0.4 0.3q0 0.1 0.1 0.2 0 0.1 0 0.2 0 0.2-0.1 0.4-0.2 0.2-0.4 0.2-0.3 0-0.4-0.2-0.2-0.2-0.2-0.4 0-0.2 0.2-0.4 0.1-0.2 0.4-0.2 0.1 0 0.2 0.1 0.1 0 0.2 0.1zm-3.2-3.4q0.2 0 0.4 0.1 0.2 0.1 0.3 0.2 0.2 0.2 0.3 0.4 0 0.1 0 0.3 0 0.3 0 0.4-0.1 0.2-0.3 0.4-0.1 0.1-0.3 0.2-0.2 0.1-0.4 0.1-0.2 0-0.4-0.1-0.2-0.1-0.3-0.2-0.2-0.2-0.2-0.4-0.1-0.1-0.1-0.4 0-0.2 0.1-0.3 0-0.2 0.2-0.4 0.1-0.1 0.3-0.2 0.2-0.1 0.4-0.1zm0 0.4q-0.3 0-0.5 0.2-0.2 0.2-0.2 0.4 0 0.3 0.2 0.5 0.2 0.2 0.5 0.2 0.3 0 0.5-0.2 0.2-0.2 0.2-0.5 0-0.2-0.2-0.4-0.2-0.2-0.5-0.2zm0.4 0.2q0.2 0.2 0.2 0.4 0 0.3-0.2 0.4-0.1 0.2-0.4 0.2-0.2 0-0.4-0.2-0.2-0.1-0.2-0.4 0-0.2 0.2-0.3 0.2-0.2 0.4-0.2 0.3 0 0.4 0.1zm2.5 3q0 0-0.1 0-0.1 0-0.2 0-0.1 0.1-0.1 0.2 0 0.1 0.1 0.1 0.1 0.1 0.2 0.1 0 0 0.1-0.1 0.1 0 0.1-0.1 0-0.1-0.1-0.2zm-2.7-2.7q-0.1-0.1-0.2-0.1-0.1 0-0.1 0.1-0.1 0.1-0.1 0.1 0 0.1 0 0.2 0.1 0.1 0.2 0.1 0.1 0 0.2-0.1 0-0.1 0-0.2 0-0.1 0-0.1z"/>
			</g>
		</g>
	</g>
	<g id="Layer">
		<g id="Layer">
			<g id="Layer">
			</g>
		</g>
	</g>
	<g id="Layer">
		<g id="Layer">
			<g id="Layer">
				<path id="Layer" fill-rule="evenodd" class="s12" d="m56.7 222.2q0.2-0.2 0.5-0.3 0.2 0 0.5 0 0.4 0 0.8 0.1 0.4 0.2 0.6 0.5 0.3-0.3 0.7-0.5 0.3-0.1 0.8-0.1 0.3 0 0.6 0.1 0.4 0.1 0.6 0.4 0.3 0.2 0.4 0.6 0.2 0.3 0.2 0.7v2.4h-0.4v-2.4q0-0.3-0.1-0.6-0.1-0.3-0.3-0.5-0.2-0.2-0.5-0.3-0.2-0.1-0.5-0.1-0.6 0-0.9 0.3-0.4 0.3-0.6 0.7-0.1-0.4-0.5-0.7-0.4-0.3-0.9-0.3-0.4 0-0.8 0.2-0.3 0.3-0.5 0.7v-1.2h0.3zm5.2 4h-0.3v-2.5q0-0.2-0.1-0.4-0.1-0.1-0.2-0.3-0.2-0.1-0.4-0.2-0.1-0.1-0.3-0.1-0.3 0-0.4 0.1-0.2 0.1-0.4 0.2-0.1 0.2-0.2 0.3-0.1 0.2-0.1 0.4v2.5h-0.3v-2.5q0-0.2 0.1-0.5 0.1-0.2 0.3-0.4 0.2-0.2 0.4-0.3 0.3-0.1 0.6-0.1 0.2 0 0.5 0.1 0.2 0.1 0.4 0.3 0.2 0.2 0.3 0.4 0.1 0.3 0.1 0.5zm-2.8 0h-0.4v-2.4q0-0.2 0-0.4-0.1-0.2-0.3-0.3-0.1-0.2-0.3-0.2-0.2-0.1-0.4-0.1-0.2 0-0.4 0.1-0.1 0-0.3 0.2-0.1 0.1-0.2 0.3-0.1 0.2-0.1 0.4v2.4h-0.3v-2.4q0-0.3 0.1-0.6 0.1-0.2 0.3-0.4 0.2-0.2 0.4-0.3 0.2-0.1 0.5-0.1 0.3 0 0.5 0.1 0.3 0.1 0.5 0.3 0.2 0.2 0.3 0.4 0.1 0.3 0.1 0.6zm-2.9 0h-0.3v-4.2h0.3z"/>
			</g>
		</g>
	</g>
	<g id="Layer">
		<g id="Layer">
			<g id="Layer">
				<path id="Layer" fill-rule="evenodd" class="s12" d="m66.8 225.7q-0.6 0.5-1.4 0.5-0.4 0-0.8-0.2-0.4-0.1-0.7-0.4-0.3-0.3-0.5-0.7-0.2-0.4-0.2-0.9 0-0.4 0.2-0.8 0.2-0.4 0.5-0.7 0.3-0.3 0.7-0.5 0.4-0.1 0.8-0.1 0.8 0 1.4 0.4v-0.4h0.3v1.5q-0.1-0.4-0.4-0.7-0.3-0.2-0.6-0.4-0.3-0.1-0.7-0.1-0.4 0-0.7 0.1-0.3 0.2-0.6 0.4-0.2 0.3-0.4 0.6-0.1 0.4-0.1 0.7 0 0.4 0.1 0.7 0.2 0.4 0.4 0.6 0.3 0.3 0.6 0.4 0.3 0.2 0.7 0.2 0.4 0 0.7-0.2 0.3-0.1 0.6-0.4 0.3-0.3 0.4-0.6v1.4h-0.3zm-2.6-0.5q-0.2-0.2-0.4-0.5-0.1-0.3-0.1-0.7 0-0.3 0.1-0.6 0.1-0.3 0.4-0.6 0.2-0.2 0.5-0.3 0.3-0.2 0.7-0.2 0.4 0 0.7 0.2 0.3 0.1 0.5 0.3 0.3 0.3 0.4 0.6 0.1 0.3 0.1 0.6 0 0.4-0.1 0.7-0.1 0.3-0.4 0.5-0.2 0.3-0.5 0.4-0.3 0.1-0.7 0.1-0.4 0-0.7-0.1-0.3-0.1-0.5-0.4zm3-3.3h0.4v4.2h-0.4zm-2.8 3.1q0.4 0.4 1 0.4 0.3 0 0.5-0.1 0.3-0.1 0.5-0.3 0.2-0.2 0.3-0.4 0.1-0.3 0.1-0.6 0-0.2-0.1-0.5-0.1-0.2-0.3-0.4-0.2-0.2-0.5-0.3-0.2-0.1-0.5-0.1-0.3 0-0.5 0.1-0.3 0.1-0.5 0.3-0.2 0.2-0.3 0.4-0.1 0.3-0.1 0.5 0 0.3 0.1 0.6 0.1 0.2 0.3 0.4z"/>
			</g>
		</g>
	</g>
	<g id="Layer">
		<g id="Layer">
			<g id="Layer">
				<path id="Layer" class="s12" d="m68.5 220h0.3v6.1h-0.3zm0.8 0v6.1h-0.3v-6.1z"/>
			</g>
		</g>
	</g>
	<g id="Layer">
		<g id="Layer">
			<g id="Layer">
				<path id="Layer" fill-rule="evenodd" class="s12" d="m73.1 225.9q-0.5 0.3-1 0.3-0.4 0-0.7-0.1-0.4-0.2-0.6-0.4-0.3-0.3-0.4-0.6-0.2-0.3-0.2-0.7v-2.5h0.4v2.5q0 0.3 0.1 0.6 0.1 0.2 0.3 0.4 0.2 0.2 0.5 0.3 0.2 0.2 0.6 0.2 0.4 0 0.8-0.3 0.4-0.3 0.5-0.6v1.1h-0.3zm-2.4-3.9h0.3v2.4q0 0.2 0.1 0.4 0.1 0.2 0.2 0.3 0.2 0.2 0.4 0.2 0.1 0.1 0.4 0.1 0.2 0 0.3-0.1 0.2 0 0.4-0.2 0.1-0.1 0.2-0.3 0.1-0.2 0.1-0.4v-2.4h0.3v2.4q0 0.3-0.1 0.6-0.1 0.2-0.3 0.4-0.2 0.2-0.4 0.3-0.3 0.1-0.5 0.1-0.3 0-0.6-0.1-0.2-0.1-0.4-0.3-0.2-0.2-0.3-0.4-0.1-0.3-0.1-0.6zm2.8 0h0.4v4.2h-0.4z"/>
			</g>
		</g>
	</g>
	<g id="Layer">
		<g id="Layer">
			<g id="Layer">
				<path id="Layer" class="s12" d="m76.3 222.8q-0.1-0.1-0.3-0.1-0.1 0-0.2 0.1-0.1 0.1-0.1 0.2 0 0.1 0.1 0.2 0 0 0.1 0.1 0.1 0 0.2 0.1 0.1 0 0.2 0.1 0.2 0.1 0.4 0.2 0.2 0.1 0.4 0.2 0.1 0.2 0.2 0.4 0.1 0.2 0.1 0.5 0 0.3-0.1 0.6-0.1 0.2-0.3 0.4-0.2 0.2-0.5 0.3-0.2 0.1-0.5 0.1-0.4 0-0.7-0.2-0.3-0.2-0.5-0.5l0.7-0.4q0.2 0.3 0.5 0.3 0.2 0 0.4-0.2 0.2-0.1 0.2-0.4 0-0.1-0.1-0.2 0-0.1-0.1-0.2-0.1-0.1-0.2-0.1-0.2-0.1-0.3-0.1-0.2-0.1-0.4-0.2-0.1-0.1-0.3-0.2-0.1-0.2-0.2-0.4-0.1-0.2-0.1-0.4 0-0.3 0.1-0.5 0.1-0.2 0.2-0.3 0.2-0.2 0.4-0.3 0.2 0 0.4 0 0.3 0 0.5 0.1 0.3 0.1 0.4 0.3l-0.2 0.2q-0.1-0.1-0.3-0.2-0.2-0.1-0.3-0.1-0.2 0-0.4 0.1-0.1 0-0.2 0.1-0.1 0.1-0.2 0.3 0 0.1 0 0.3 0 0.3 0.1 0.4 0.1 0.2 0.3 0.3 0.2 0.1 0.4 0.2 0.2 0.1 0.4 0.2 0.2 0.1 0.3 0.3 0.1 0.1 0.1 0.4 0 0.4-0.2 0.7-0.3 0.2-0.7 0.2-0.2 0-0.5-0.1-0.2-0.1-0.3-0.3h-0.1q0.1 0.2 0.4 0.4 0.2 0.2 0.5 0.2 0.2 0 0.4-0.1 0.2-0.1 0.4-0.2 0.1-0.2 0.2-0.4 0.1-0.2 0.1-0.4 0-0.3-0.2-0.5-0.1-0.2-0.3-0.3-0.2-0.1-0.4-0.2-0.2-0.1-0.4-0.2-0.2-0.1-0.3-0.2-0.1-0.2-0.1-0.4 0-0.3 0.2-0.5 0.2-0.2 0.5-0.2 0.3 0 0.5 0.2z"/>
			</g>
		</g>
	</g>
	<g id="Layer">
		<g id="Layer">
			<g id="Layer">
			</g>
		</g>
	</g>
	<g id="Layer">
		<g id="Layer">
			<g id="Layer">
				<path id="Layer" fill-rule="evenodd" class="s12" d="m84.2 225.6q-0.3 0.3-0.7 0.4-0.4 0.2-0.8 0.2-0.5 0-0.8-0.2-0.4-0.1-0.7-0.4-0.3-0.3-0.5-0.7-0.2-0.4-0.2-0.9 0-0.4 0.2-0.8 0.2-0.4 0.5-0.7 0.3-0.3 0.7-0.5 0.4-0.1 0.8-0.1 0.4 0 0.8 0.1 0.4 0.2 0.7 0.5 0.3 0.3 0.5 0.7 0.2 0.4 0.2 0.8 0 0.5-0.2 0.9-0.1 0.4-0.5 0.7zm-0.2-0.3q0.2-0.2 0.4-0.6 0.1-0.3 0.1-0.7 0-0.3-0.1-0.7-0.2-0.3-0.4-0.6-0.3-0.2-0.6-0.4-0.3-0.1-0.7-0.1-0.4 0-0.7 0.1-0.4 0.2-0.6 0.4-0.2 0.3-0.4 0.6-0.1 0.4-0.1 0.7 0 0.4 0.1 0.7 0.2 0.4 0.4 0.6 0.3 0.3 0.6 0.4 0.3 0.2 0.7 0.2 0.4 0 0.7-0.2 0.3-0.1 0.6-0.4zm-1.3 0.4q-0.4 0-0.7-0.1-0.3-0.1-0.5-0.4-0.3-0.2-0.4-0.5-0.1-0.3-0.1-0.7 0-0.3 0.1-0.6 0.1-0.3 0.4-0.6 0.2-0.2 0.5-0.4 0.3-0.1 0.7-0.1 0.4 0 0.7 0.1 0.3 0.2 0.5 0.4 0.2 0.3 0.4 0.6 0.1 0.3 0.1 0.6 0 0.4-0.1 0.7-0.2 0.3-0.4 0.5-0.2 0.3-0.5 0.4-0.3 0.1-0.7 0.1zm0-0.3q0.3 0 0.5-0.1 0.3-0.1 0.5-0.3 0.2-0.2 0.3-0.5 0.1-0.2 0.1-0.5 0-0.3-0.1-0.5-0.1-0.3-0.3-0.4-0.2-0.2-0.5-0.3-0.2-0.1-0.5-0.1-0.3 0-0.5 0.1-0.3 0.1-0.5 0.3-0.2 0.1-0.3 0.4-0.1 0.2-0.1 0.5 0 0.3 0.1 0.5 0.1 0.3 0.3 0.5 0.2 0.2 0.5 0.3 0.2 0.1 0.5 0.1z"/>
			</g>
		</g>
	</g>
	<g id="Layer">
		<g id="Layer">
			<g id="Layer">
				<path id="Layer" fill-rule="evenodd" class="s12" d="m86.5 222.2q0.2-0.2 0.4-0.3 0.3 0 0.6 0 0.3 0 0.7 0.1 0.3 0.1 0.6 0.4 0.2 0.2 0.3 0.6 0.2 0.3 0.2 0.7v2.4h-0.4v-2.4q0-0.3-0.1-0.6-0.1-0.3-0.3-0.5-0.2-0.2-0.5-0.3-0.2-0.1-0.5-0.1-0.5 0-0.9 0.2-0.3 0.3-0.5 0.7v-1.2h0.4zm2.3 4h-0.3v-2.5q0-0.2-0.1-0.4-0.1-0.1-0.2-0.3-0.2-0.1-0.4-0.2-0.1-0.1-0.3-0.1-0.3 0-0.4 0.1-0.2 0.1-0.3 0.2-0.2 0.2-0.3 0.3 0 0.2 0 0.4v2.5h-0.4v-2.5q0-0.2 0.1-0.5 0.1-0.2 0.3-0.4 0.2-0.2 0.4-0.3 0.3-0.1 0.6-0.1 0.2 0 0.5 0.1 0.2 0.1 0.4 0.3 0.2 0.2 0.3 0.4 0.1 0.3 0.1 0.5zm-2.8 0h-0.4v-4.2h0.4z"/>
			</g>
		</g>
	</g>
	<g id="Layer">
		<g id="Layer">
			<g id="Layer">
			</g>
		</g>
	</g>
	<g id="Layer">
		<g id="Layer">
			<g id="Layer">
				<path id="Layer" fill-rule="evenodd" class="s12" d="m95.3 225.9q-0.4 0.3-1 0.3-0.4 0-0.7-0.1-0.3-0.2-0.6-0.4-0.2-0.3-0.4-0.6-0.1-0.3-0.1-0.7v-2.5h0.3v2.5q0 0.3 0.1 0.6 0.2 0.2 0.4 0.4 0.2 0.2 0.4 0.3 0.3 0.2 0.6 0.2 0.5 0 0.8-0.3 0.4-0.3 0.6-0.6v1.3q0 0.3-0.1 0.6-0.1 0.2-0.3 0.4-0.2 0.2-0.5 0.3-0.2 0.1-0.5 0.1-0.5 0-0.9-0.4l0.2-0.3q0 0 0.1 0.1 0.1 0.1 0.2 0.1 0.2 0.1 0.4 0.1 0.2 0 0.4-0.1 0.2 0 0.3-0.2 0.2-0.1 0.2-0.3 0.1-0.2 0.1-0.4zm-1.9 1.4l-0.1 0.1q0 0 0 0l0.1-0.1q0 0 0 0zm0.3 0.4q0.3 0.2 0.6 0.2 0.3 0 0.6-0.2 0.3-0.1 0.5-0.3 0.2-0.2 0.3-0.4 0.1-0.3 0.1-0.6v-4.4h0.3v4.4q0 0.4-0.1 0.7-0.2 0.3-0.4 0.6-0.3 0.2-0.6 0.3-0.3 0.2-0.7 0.2-0.3 0-0.7-0.2-0.3-0.1-0.6-0.4l0.3-0.2q0.2 0.2 0.4 0.3zm-0.8-5.7h0.4v2.4q0 0.2 0.1 0.4 0.1 0.2 0.2 0.3 0.1 0.2 0.3 0.3 0.2 0 0.4 0 0.2 0 0.4 0 0.2-0.1 0.3-0.3 0.2-0.1 0.2-0.3 0.1-0.2 0.1-0.4v-2.4h0.4v2.4q0 0.3-0.1 0.6-0.1 0.2-0.3 0.4-0.2 0.2-0.5 0.3-0.2 0.1-0.5 0.1-0.3 0-0.5-0.1-0.3-0.1-0.4-0.3-0.2-0.2-0.3-0.4-0.2-0.3-0.2-0.6z"/>
			</g>
		</g>
	</g>
	<g id="Layer">
		<g id="Layer">
			<g id="Layer">
				<path id="Layer" fill-rule="evenodd" class="s12" d="m100.7 225.6q-0.3 0.3-0.7 0.4-0.4 0.2-0.8 0.2-0.5 0-0.9-0.2-0.4-0.1-0.7-0.4-0.3-0.3-0.4-0.7-0.2-0.4-0.2-0.9 0-0.4 0.2-0.8 0.1-0.4 0.4-0.7 0.4-0.3 0.7-0.5 0.4-0.1 0.9-0.1 0.4 0 0.8 0.1 0.4 0.2 0.7 0.5 0.3 0.3 0.5 0.7 0.1 0.4 0.1 0.8 0 0.5-0.1 0.9-0.2 0.4-0.5 0.7zm-0.2-0.3q0.2-0.2 0.4-0.6 0.1-0.3 0.1-0.7 0-0.3-0.1-0.7-0.2-0.3-0.4-0.6-0.3-0.2-0.6-0.4-0.3-0.1-0.7-0.1-0.4 0-0.7 0.1-0.4 0.2-0.6 0.4-0.3 0.3-0.4 0.6-0.2 0.4-0.2 0.7 0 0.4 0.2 0.7 0.1 0.4 0.4 0.6 0.2 0.3 0.6 0.4 0.3 0.2 0.7 0.2 0.4 0 0.7-0.2 0.3-0.1 0.6-0.4zm-1.3 0.4q-0.4 0-0.7-0.1-0.3-0.1-0.5-0.4-0.3-0.2-0.4-0.5-0.1-0.3-0.1-0.7 0-0.3 0.1-0.6 0.1-0.3 0.4-0.6 0.2-0.2 0.5-0.4 0.3-0.1 0.7-0.1 0.3 0 0.6 0.1 0.4 0.2 0.6 0.4 0.2 0.3 0.4 0.6 0.1 0.3 0.1 0.6 0 0.4-0.1 0.7-0.2 0.3-0.4 0.5-0.2 0.3-0.6 0.4-0.3 0.1-0.6 0.1zm0-0.3q0.3 0 0.5-0.1 0.3-0.1 0.4-0.3 0.2-0.2 0.3-0.5 0.2-0.2 0.2-0.5 0-0.3-0.2-0.5-0.1-0.3-0.3-0.4-0.1-0.2-0.4-0.3-0.2-0.1-0.5-0.1-0.3 0-0.6 0.1-0.2 0.1-0.4 0.3-0.2 0.1-0.3 0.4-0.1 0.2-0.1 0.5 0 0.3 0.1 0.5 0.1 0.3 0.3 0.5 0.2 0.2 0.4 0.3 0.3 0.1 0.6 0.1z"/>
			</g>
		</g>
	</g>
	<g id="Layer">
		<g id="Layer">
			<g id="Layer">
				<path id="Layer" fill-rule="evenodd" class="s12" d="m105 225.9q-0.5 0.3-1 0.3-0.4 0-0.8-0.1-0.3-0.2-0.5-0.4-0.3-0.3-0.4-0.6-0.2-0.3-0.2-0.7v-2.5h0.4v2.5q0 0.3 0.1 0.6 0.1 0.2 0.3 0.4 0.2 0.2 0.5 0.3 0.2 0.2 0.6 0.2 0.4 0 0.8-0.3 0.4-0.3 0.5-0.6v1.1h-0.3zm-2.4-3.9h0.3v2.4q0 0.2 0.1 0.4 0.1 0.2 0.2 0.3 0.2 0.2 0.3 0.2 0.2 0.1 0.5 0.1 0.1 0 0.3-0.1 0.2 0 0.4-0.2 0.1-0.1 0.2-0.3 0-0.2 0.1-0.4v-2.4h0.3v2.4q0 0.3-0.1 0.6-0.1 0.2-0.3 0.4-0.2 0.2-0.4 0.3-0.3 0.1-0.5 0.1-0.3 0-0.6-0.1-0.2-0.1-0.4-0.3-0.2-0.2-0.3-0.4-0.1-0.3-0.1-0.6zm2.8 0h0.4v4.2h-0.4z"/>
			</g>
		</g>
	</g>
	<g id="Layer">
		<g id="Layer">
			<g id="Layer">
				<path id="Layer" class="s12" d="m107.5 222.2q0.2-0.2 0.4-0.3 0.3 0 0.6 0v0.3q-0.5 0-0.8 0.2-0.4 0.3-0.6 0.7v-1.2h0.4zm1 0.5q-0.2 0-0.4 0.1-0.2 0.1-0.3 0.2-0.2 0.2-0.2 0.3-0.1 0.2-0.1 0.4v2.5h-0.4v-2.5q0-0.2 0.1-0.5 0.1-0.2 0.3-0.4 0.2-0.2 0.4-0.3 0.3-0.1 0.6-0.1zm-1.5 3.4h-0.3v-4.2h0.3z"/>
			</g>
		</g>
	</g>
	<g id="Layer">
		<g id="Layer">
			<g id="Layer">
			</g>
		</g>
	</g>
	<g id="Layer">
		<g id="Layer">
			<g id="Layer">
				<path id="Layer" class="s12" d="m112.5 222.2q0.3-0.2 0.5-0.3 0.3 0 0.6 0v0.3q-0.5 0-0.9 0.2-0.3 0.3-0.5 0.7v-1.2h0.3zm1.1 0.5q-0.3 0-0.5 0.1-0.1 0.1-0.3 0.2-0.1 0.2-0.2 0.3-0.1 0.2-0.1 0.4v2.5h-0.3v-2.5q0-0.2 0.1-0.5 0.1-0.2 0.3-0.4 0.2-0.2 0.4-0.3 0.3-0.1 0.6-0.1zm-1.5 3.4h-0.4v-4.2h0.4z"/>
			</g>
		</g>
	</g>
	<g id="Layer">
		<g id="Layer">
			<g id="Layer">
				<path id="Layer" fill-rule="evenodd" class="s12" d="m115.3 224.4q0.1 0.5 0.5 0.7 0.3 0.3 0.8 0.3 0.3 0 0.6-0.2 0.3-0.1 0.5-0.4l0.3 0.2q-0.2 0.3-0.6 0.5-0.4 0.2-0.8 0.2-0.4 0-0.7-0.1-0.3-0.1-0.5-0.4-0.2-0.2-0.4-0.5-0.1-0.3-0.1-0.6h3.5v-0.1q0-0.3-0.1-0.7-0.2-0.3-0.4-0.6-0.3-0.2-0.6-0.4-0.3-0.1-0.7-0.1-0.4 0-0.7 0.1-0.4 0.2-0.6 0.4-0.3 0.3-0.4 0.6-0.2 0.4-0.2 0.7 0 0.4 0.2 0.7 0.1 0.4 0.4 0.6 0.2 0.3 0.6 0.4 0.3 0.2 0.7 0.2 0.5 0 0.9-0.3 0.4-0.2 0.6-0.5l0.3 0.1q-0.3 0.5-0.8 0.7-0.5 0.3-1 0.3-0.5 0-0.9-0.2-0.3-0.1-0.7-0.4-0.3-0.3-0.4-0.7-0.2-0.4-0.2-0.9 0-0.4 0.2-0.8 0.1-0.4 0.4-0.7 0.4-0.3 0.7-0.5 0.4-0.1 0.9-0.1 0.4 0 0.8 0.1 0.4 0.2 0.7 0.5 0.3 0.3 0.5 0.7 0.1 0.4 0.1 0.8v0.4zm-0.4-0.4q0.1-0.4 0.2-0.7 0.1-0.3 0.4-0.5 0.2-0.2 0.5-0.4 0.3-0.1 0.7-0.1 0.3 0 0.6 0.1 0.3 0.2 0.6 0.4 0.2 0.2 0.3 0.5 0.2 0.3 0.2 0.7zm3-0.4q-0.1-0.4-0.5-0.7-0.4-0.2-0.8-0.2-0.6 0-1 0.4-0.2 0.2-0.3 0.5z"/>
			</g>
		</g>
	</g>
	<g id="Layer">
		<g id="Layer">
			<g id="Layer">
				<path id="Layer" fill-rule="evenodd" class="s12" d="m121.6 226.1h-0.6l-1.5-4.2h0.4l0.3 1 1 2.9h0.1l1.2-3.3 1.2 3.3h0.1l1.1-3 0.3-0.9h0.4l-1.5 4.2h-0.6l-1-2.7zm-1.2-4.2l1 2.6 0.9-2.6h0.6l0.9 2.6 0.9-2.6h0.4l-0.3 0.9-1 2.8-1.2-3.3h-0.1l-1.1 3.3-1-2.7-0.3-1z"/>
			</g>
		</g>
	</g>
	<g id="Layer">
		<g id="Layer">
			<g id="Layer">
				<path id="Layer" fill-rule="evenodd" class="s12" d="m129.9 225.7q-0.6 0.5-1.4 0.5-0.4 0-0.8-0.2-0.4-0.1-0.7-0.4-0.3-0.3-0.5-0.7-0.1-0.4-0.1-0.9 0-0.4 0.1-0.8 0.2-0.4 0.5-0.7 0.3-0.3 0.7-0.5 0.4-0.1 0.8-0.1 0.8 0 1.4 0.4v-0.4h0.4v1.5q-0.2-0.4-0.5-0.7-0.2-0.2-0.5-0.4-0.4-0.1-0.8-0.1-0.3 0-0.7 0.1-0.3 0.2-0.6 0.4-0.2 0.3-0.3 0.6-0.2 0.4-0.2 0.7 0 0.4 0.2 0.7 0.1 0.4 0.4 0.6 0.2 0.3 0.5 0.4 0.4 0.2 0.7 0.2 0.4 0 0.8-0.2 0.3-0.1 0.5-0.4 0.3-0.3 0.5-0.6v1.4h-0.4zm-2.6-0.5q-0.2-0.2-0.3-0.5-0.2-0.3-0.2-0.7 0-0.3 0.1-0.6 0.2-0.3 0.4-0.6 0.3-0.2 0.6-0.3 0.3-0.2 0.6-0.2 0.4 0 0.7 0.2 0.3 0.1 0.6 0.3 0.2 0.3 0.3 0.6 0.2 0.3 0.2 0.6 0 0.4-0.2 0.7-0.1 0.3-0.3 0.5-0.3 0.3-0.6 0.4-0.3 0.1-0.7 0.1-0.3 0-0.6-0.1-0.3-0.1-0.6-0.4zm3.1-3.3h0.3v4.2h-0.3zm-2.8 3.1q0.4 0.4 0.9 0.4 0.3 0 0.6-0.1 0.2-0.1 0.4-0.3 0.2-0.2 0.3-0.4 0.1-0.3 0.1-0.6 0-0.2-0.1-0.5-0.1-0.2-0.3-0.4-0.2-0.2-0.4-0.3-0.3-0.1-0.6-0.1-0.2 0-0.5 0.1-0.2 0.1-0.4 0.3-0.2 0.2-0.3 0.4-0.1 0.3-0.1 0.5 0 0.3 0.1 0.6 0.1 0.2 0.3 0.4z"/>
			</g>
		</g>
	</g>
	<g id="Layer">
		<g id="Layer">
			<g id="Layer">
				<path id="Layer" class="s12" d="m132.4 222.2q0.3-0.2 0.5-0.3 0.3 0 0.6 0v0.3q-0.5 0-0.9 0.2-0.3 0.3-0.5 0.7v-1.2h0.3zm1.1 0.5q-0.3 0-0.4 0.1-0.2 0.1-0.4 0.2-0.1 0.2-0.2 0.3-0.1 0.2-0.1 0.4v2.5h-0.3v-2.5q0-0.2 0.1-0.5 0.1-0.2 0.3-0.4 0.2-0.2 0.4-0.3 0.3-0.1 0.6-0.1zm-1.5 3.4h-0.4v-4.2h0.4z"/>
			</g>
		</g>
	</g>
	<g id="Layer">
		<g id="Layer">
			<g id="Layer">
				<path id="Layer" fill-rule="evenodd" class="s12" d="m137.9 225.7q-0.6 0.5-1.4 0.5-0.5 0-0.8-0.2-0.4-0.1-0.7-0.4-0.3-0.3-0.5-0.7-0.2-0.4-0.2-0.9 0-0.4 0.2-0.8 0.2-0.4 0.5-0.7 0.3-0.3 0.6-0.5 0.4-0.1 0.9-0.1 0.8 0 1.4 0.4v-2.3h0.3v3.4q-0.1-0.3-0.3-0.5-0.1-0.2-0.3-0.4-0.3-0.1-0.5-0.2-0.3-0.1-0.6-0.1-0.4 0-0.7 0.1-0.4 0.2-0.6 0.4-0.3 0.3-0.4 0.6-0.1 0.4-0.1 0.7 0 0.4 0.1 0.7 0.1 0.4 0.4 0.6 0.2 0.3 0.6 0.4 0.3 0.2 0.7 0.2 0.6 0 1.1-0.4 0.4-0.3 0.6-0.8v1.4h-0.3zm-1.4 0q-0.4 0-0.7-0.1-0.3-0.1-0.5-0.4-0.2-0.2-0.4-0.5-0.1-0.3-0.1-0.7 0-0.3 0.1-0.6 0.1-0.3 0.4-0.6 0.2-0.2 0.5-0.3 0.3-0.2 0.7-0.2 0.3 0 0.7 0.2 0.3 0.1 0.5 0.3 0.2 0.2 0.4 0.6 0.1 0.3 0.1 0.6 0 0.4-0.1 0.7-0.2 0.3-0.4 0.5-0.2 0.3-0.5 0.4-0.4 0.1-0.7 0.1zm1.8-1.7v-4h0.4v6.1h-0.4zm-1.8 1.4q0.3 0 0.5-0.1 0.3-0.1 0.4-0.3 0.2-0.2 0.3-0.4 0.1-0.3 0.1-0.6 0-0.3-0.1-0.5-0.1-0.3-0.3-0.4-0.1-0.2-0.4-0.3-0.2-0.1-0.5-0.1-0.3 0-0.5 0.1-0.3 0.1-0.5 0.3-0.2 0.1-0.3 0.4-0.1 0.2-0.1 0.5 0 0.3 0.1 0.6 0.1 0.2 0.3 0.4 0.2 0.2 0.5 0.3 0.2 0.1 0.5 0.1z"/>
			</g>
		</g>
	</g>
	<g id="Layer">
		<g id="Layer">
			<g id="Layer">
				<path id="Layer" class="s12" d="m141 222.8q-0.1-0.1-0.2-0.1-0.2 0-0.3 0.1 0 0.1 0 0.2 0 0.1 0 0.2 0.1 0 0.1 0.1 0.1 0 0.2 0.1 0.1 0 0.2 0.1 0.2 0.1 0.5 0.2 0.2 0.1 0.3 0.2 0.1 0.2 0.2 0.4 0.1 0.2 0.1 0.5 0 0.3-0.1 0.6-0.1 0.2-0.3 0.4-0.2 0.2-0.4 0.3-0.3 0.1-0.6 0.1-0.3 0-0.7-0.2-0.3-0.2-0.5-0.5l0.7-0.4q0.2 0.3 0.5 0.3 0.3 0 0.4-0.2 0.2-0.1 0.2-0.4 0-0.1-0.1-0.2 0-0.1-0.1-0.2-0.1-0.1-0.2-0.1-0.1-0.1-0.2-0.1-0.2-0.1-0.4-0.2-0.2-0.1-0.3-0.2-0.2-0.2-0.3-0.4-0.1-0.2-0.1-0.4 0-0.3 0.1-0.5 0.1-0.2 0.3-0.3 0.1-0.2 0.3-0.3 0.2 0 0.5 0 0.2 0 0.5 0.1 0.2 0.1 0.4 0.3l-0.3 0.2q-0.1-0.1-0.3-0.2-0.1-0.1-0.3-0.1-0.2 0-0.3 0.1-0.2 0-0.3 0.1-0.1 0.1-0.1 0.3-0.1 0.1-0.1 0.3 0 0.3 0.1 0.4 0.2 0.2 0.3 0.3 0.2 0.1 0.4 0.2 0.3 0.1 0.4 0.2 0.2 0.1 0.3 0.3 0.2 0.1 0.2 0.4 0 0.4-0.3 0.7-0.3 0.2-0.6 0.2-0.3 0-0.5-0.1-0.2-0.1-0.4-0.3h-0.1q0.2 0.2 0.4 0.4 0.3 0.2 0.6 0.2 0.2 0 0.4-0.1 0.2-0.1 0.3-0.2 0.1-0.2 0.2-0.4 0.1-0.2 0.1-0.4 0-0.3-0.1-0.5-0.2-0.2-0.3-0.3-0.2-0.1-0.4-0.2-0.3-0.1-0.4-0.2-0.2-0.1-0.4-0.2-0.1-0.2-0.1-0.4 0-0.3 0.2-0.5 0.2-0.2 0.5-0.2 0.3 0 0.5 0.2z"/>
			</g>
		</g>
	</g>
</svg>