<svg version="1.2" xmlns="http://www.w3.org/2000/svg" viewBox="0 0 151 249" width="151" height="249">
	<title>2-svg</title>
	<defs>
		<clipPath clipPathUnits="userSpaceOnUse" id="cp1">
			<path d="m0.5 0.13l150-0.01v248.75h-150z"/>
		</clipPath>
		<clipPath clipPathUnits="userSpaceOnUse" id="cp2">
			<path d="m0.5 0.13l150-0.01v249h-150z"/>
		</clipPath>
		<clipPath clipPathUnits="userSpaceOnUse" id="cp3">
			<path d="m5.29 5.07h140.42v43.47h-140.42z"/>
		</clipPath>
		<clipPath clipPathUnits="userSpaceOnUse" id="cp4">
			<path d="m5.3 5.07h140.23v43.5h-140.23z"/>
		</clipPath>
		<clipPath clipPathUnits="userSpaceOnUse" id="cp5">
			<path d="m34 180h22v20.65h-22z"/>
		</clipPath>
		<clipPath clipPathUnits="userSpaceOnUse" id="cp6">
			<path d="m30 129h91v71.65h-91z"/>
		</clipPath>
		<clipPath clipPathUnits="userSpaceOnUse" id="cp7">
			<path d="m29 103.15h94.92v39.85h-94.92z"/>
		</clipPath>
		<clipPath clipPathUnits="userSpaceOnUse" id="cp8">
			<path d="m115 103.15h8.92v8.85h-8.92z"/>
		</clipPath>
		<clipPath clipPathUnits="userSpaceOnUse" id="cp9">
			<path d="m30 129h89v71.65h-89z"/>
		</clipPath>
	</defs>
	<style>
		.s0 { fill: #ffffff } 
		.s1 { fill: #cfe7d7 } 
		.s2 { fill: none;stroke: #000000;stroke-width: 6 } 
		.s3 { fill: #86c658 } 
		.s4 { fill: none;stroke: #000000;stroke-width: 1.5 } 
		.s5 { fill: #3faa89 } 
		.s6 { fill: #71dfbf } 
		.s7 { fill: #87382a } 
		.s8 { fill: #7349dd } 
		.s9 { fill: #f9ea67 } 
		.s10 { opacity: .3;fill: #fcfcfc } 
		.s11 { fill: #231f20 } 
		.s12 { fill: #000000 } 
	</style>
	<path id="Layer" class="s0" d="m-149.5-100.5h450v450h-450z"/>
	<path id="Layer" class="s0" d="m-149.5-100.5h450v450h-450z"/>
	<g id="Clip-Path" clip-path="url(#cp1)">
		<g id="Layer">
			<path id="Layer" class="s1" d="m0.5 0.1h150v248.8h-150z"/>
		</g>
	</g>
	<g id="Clip-Path" clip-path="url(#cp2)">
		<g id="Layer">
			<path id="Layer" fill-rule="evenodd" class="s2" d="m0.5 0.1h150v249h-150z"/>
		</g>
	</g>
	<g id="Clip-Path" clip-path="url(#cp3)">
		<g id="Layer">
			<path id="Layer" class="s3" d="m5.3 5.1h140.4v43.4h-140.4z"/>
		</g>
	</g>
	<g id="Clip-Path" clip-path="url(#cp4)">
		<g id="Layer">
			<path id="Layer" fill-rule="evenodd" class="s4" d="m5.3 5.1h140.2v43.5h-140.2z"/>
		</g>
	</g>
	<g id="Clip-Path" clip-path="url(#cp5)">
		<g id="Layer">
			<path id="Layer" class="s5" d="m35.3 200.6h5.2l1.7-5.2 8.5-5.1 4.7-9.4-16 0.9-5 10.7z"/>
		</g>
	</g>
	<path id="Layer" class="s5" d="m88.1 173.3l11.4 10.2-2.3 14.4-3.8-3v-8l-10.7-2.9z"/>
	<path id="Layer" class="s5" d="m102.2 140.7l-3.2-0.7 2.3-2.6c9.1-2.4 9.5-10.3 9.5-10.6l3.4 0.1q-0.2 3-1.6 5.8c-1.4 2.8-4.4 6.4-10.4 8z"/>
	<g id="Clip-Path" clip-path="url(#cp6)">
		<g id="Layer">
			<path id="Layer" class="s6" d="m111.2 148.4q0-0.9-0.3-1.8-0.2-0.9-0.7-1.7-0.5-0.8-1.2-1.5-0.7-0.6-1.5-1.1 2.1 0 4.2-0.8c4-1.6 7.1-5.2 9.1-10.9l-3.2-1.2c-1.7 4.7-4.1 7.7-7.1 8.9-4.2 1.6-8.3-0.6-8.4-0.6l-3.5 2.2-10.5 2.6-9.5-4.2-15.5 4.6-2.2 6.4-20.4 6.9c-5.5 1.8-10.3 6.9-10.3 12.7v31.7h5.1l1.7-8.6 6.9-5.1 1.7-3.4h28.9v4.2l3.4 12.9h5.1l-1.7-12 12.1-26.2 4.6-5.1 15.3 4.2 5.9-4.6-8-6.3z"/>
		</g>
	</g>
	<path id="Layer" class="s6" d="m32.3 162.3c-0.6-0.7-5.1-7-2.7-11.9 1.5-3 5.1-4.5 10.9-4.5 0 0 7.5-0.1 10.4-5.9l3 1.6c-3.8 7.6-13.1 7.7-13.4 7.7-3 0-6.8 0.5-7.9 2.6-1.2 2.6 1.4 7 2.4 8.4z"/>
	<path id="Layer" class="s7" d="m101.8 144.2h3.4v3.4h-3.4z"/>
	<path id="Layer" class="s5" d="m45.6 183.5l5.1-13.7v13.7z"/>
	<path id="Layer" class="s5" d="m74.5 183.5v-6.8l-4.4 6.8z"/>
	<g id="Clip-Path" clip-path="url(#cp7)">
		<g id="Layer">
			<path id="Layer" class="s8" d="m31.3 142.2l-2.1-2.8 29-22.2q0.3-0.3 0.8-0.3 0.5 0 1 0.2l31.2 16.5 29.8-29.9 2.4 2.4-30.6 30.8q-0.4 0.4-1 0.5-0.5 0-1-0.2l-31.4-16.6z"/>
		</g>
	</g>
	<g id="Clip-Path" clip-path="url(#cp8)">
		<g id="Layer">
			<path id="Layer" class="s8" d="m123.9 111.8h-3.4v-5.2h-5.1v-3.4h6.8q0.3 0 0.7 0.2 0.3 0.1 0.5 0.3 0.3 0.3 0.4 0.6 0.1 0.3 0.1 0.6z"/>
		</g>
	</g>
	<path id="Layer" class="s9" d="m98.4 115.2q0 1-0.2 2-0.2 1-0.6 1.9-0.4 0.9-1 1.8-0.5 0.8-1.2 1.5-0.7 0.7-1.6 1.3-0.8 0.6-1.7 0.9-1 0.4-2 0.6-0.9 0.2-2 0.2-1 0-1.9-0.2-1-0.2-2-0.6-0.9-0.3-1.7-0.9-0.9-0.6-1.6-1.3-0.7-0.7-1.3-1.5-0.5-0.9-0.9-1.8-0.4-0.9-0.6-1.9-0.2-1-0.2-2 0-1 0.2-2 0.2-1 0.6-1.9 0.4-1 0.9-1.8 0.6-0.9 1.3-1.6 0.7-0.7 1.6-1.2 0.8-0.6 1.7-1 1-0.4 2-0.6 0.9-0.2 1.9-0.2 1.1 0 2 0.2 1 0.2 2 0.6 0.9 0.4 1.7 1 0.9 0.5 1.6 1.2 0.7 0.7 1.2 1.6 0.6 0.8 1 1.8 0.4 0.9 0.6 1.9 0.2 1 0.2 2z"/>
	<g id="Clip-Path" clip-path="url(#cp9)">
		<g id="Layer">
			<path id="Layer" class="s10" d="m117.6 129.4c-1.7 4.7-4.1 7.7-7.1 8.9-4.2 1.6-8.3-0.6-8.4-0.6l-0.1 0.1-0.9 0.6-2.5 1.5-10.5 2.6-9.5-4.2-15.5 4.6-2.2 6.4-20.4 6.9c-5.5 1.8-10.3 6.9-10.3 12.7v31.7h1.7l5.1-29.1c0 0 0-8.5 17.1-13.6l13.6-3.4 1.7-8.6 10.2-3.4 6.8 3.4 17-5.2 0.1 0.1c10 1.4 14-8 15-11z"/>
		</g>
	</g>
	<path id="Layer" class="s10" d="m95.2 107.8q-0.6-0.6-1.3-1.1-0.8-0.5-1.6-0.9-0.8-0.3-1.6-0.5-0.9-0.3-1.7-0.3-0.9-0.1-1.8 0-0.9 0.1-1.7 0.3-0.9 0.2-1.7 0.6-0.8 0.4-1.5 0.9-0.7 0.5-1.3 1.1-0.7 0.6-1.2 1.3-0.5 0.7-0.9 1.5-0.3 0.8-0.6 1.7-0.2 0.8-0.3 1.7-0.1 0.9-0.1 1.7 0.1 0.9 0.3 1.8 0.2 0.8 0.6 1.6c10-2.9 14.5-7.6 16.4-11.4z"/>
	<g id="Layer">
		<g id="Layer">
			<g id="Layer">
				<path id="Layer" fill-rule="evenodd" class="s11" d="m50 37.3h-10v-21.1h10v1.2h-8.9v18.7h8.9zm-1.8-7.9h-5.5v5.1h7.3v1.2h-8.5v-7.4h6.7zm-5.5-2.9h5.5v1.3h-6.7v-10.1h8.5v1.2h-7.3z"/>
			</g>
		</g>
	</g>
	<g id="Layer">
		<g id="Layer">
			<g id="Layer">
				<path id="Layer" fill-rule="evenodd" class="s11" d="m65.5 22.8l-5.2 14.5h-1.9l-5.2-14.5h1.3l0.9 2.5 3.8 10.7h0.3l3.6-10 1.1-3.2zm-2.9 0h1.3l-1.1 3.1-3.4 9.4-3.6-10.1-0.8-2.4h1.2l3.2 8.9z"/>
			</g>
		</g>
	</g>
	<g id="Layer">
		<g id="Layer">
			<g id="Layer">
				<path id="Layer" fill-rule="evenodd" class="s11" d="m71.3 31.5q0.4 1.4 1.7 2.4 1.2 0.9 2.7 0.9 1.3 0 2.3-0.6 1-0.5 1.7-1.5l0.9 0.7q-0.8 1.2-2 1.9-1.3 0.7-2.9 0.7-1.2 0-2.2-0.5-1.1-0.5-1.9-1.2-0.7-0.8-1.2-1.8-0.5-1.1-0.6-2.2h12.3v-0.2q0-1.3-0.5-2.5-0.5-1.1-1.4-2-0.8-0.9-2-1.4-1.2-0.5-2.5-0.5-1.3 0-2.4 0.5-1.1 0.5-2 1.4-0.9 0.9-1.4 2-0.4 1.2-0.4 2.5 0 1.3 0.5 2.5 0.5 1.1 1.3 2 0.9 0.8 2 1.3 1.2 0.5 2.4 0.5 1.7 0 3.1-0.8 1.4-0.8 2.2-2l1 0.7q-1.1 1.5-2.7 2.4-1.7 0.9-3.6 0.9-1.5 0-2.8-0.6-1.4-0.6-2.4-1.6-1-1.1-1.6-2.4-0.6-1.4-0.6-2.9 0-1.5 0.5-2.9 0.6-1.4 1.6-2.4h0.1q1-1.1 2.4-1.6 1.4-0.6 2.8-0.6 1.6 0 2.9 0.6 1.4 0.6 2.4 1.6 1.1 1 1.7 2.4 0.6 1.4 0.6 2.9v1.4zm-1.5-1.6q0.1-1.2 0.6-2.2 0.5-1.1 1.2-1.8 0.8-0.8 1.9-1.3 1-0.4 2.2-0.4 1.3 0 2.3 0.4 1.1 0.5 1.9 1.3 0.8 0.7 1.2 1.8 0.5 1 0.5 2.2zm10.5-1.2q-0.5-1.5-1.8-2.4-1.2-0.9-2.8-0.9-1.9 0-3.3 1.3-0.8 0.8-1.2 2z"/>
			</g>
		</g>
	</g>
	<g id="Layer">
		<g id="Layer">
			<g id="Layer">
				<path id="Layer" fill-rule="evenodd" class="s11" d="m88.6 23.6q0.8-0.5 1.7-0.7 0.9-0.3 1.9-0.3 1.2 0 2.4 0.5 1.1 0.5 2 1.3 0.8 0.9 1.3 2 0.5 1.1 0.5 2.4v8.5h-1.2v-8.5q0-1-0.4-1.9-0.4-0.9-1.1-1.6-0.7-0.7-1.6-1.1-0.9-0.5-1.9-0.5-1.7 0-2.9 0.9-1.2 0.9-1.8 2.2v-4h1.1zm8.2 13.7h-1.2v-8.5q0-0.7-0.3-1.3-0.2-0.6-0.7-1.1-0.5-0.5-1.1-0.8-0.6-0.2-1.3-0.2-0.8 0-1.4 0.2-0.6 0.3-1.1 0.8-0.5 0.5-0.8 1.1-0.3 0.6-0.3 1.3v8.5h-1.1v-8.5q0-0.9 0.3-1.8 0.4-0.8 1-1.5 0.7-0.6 1.5-1 0.9-0.3 1.9-0.3 0.9 0 1.8 0.3 0.8 0.4 1.5 1 0.6 0.7 1 1.5 0.3 0.9 0.3 1.8zm-9.7 0h-1.2v-14.4h1.2z"/>
			</g>
		</g>
	</g>
	<g id="Layer">
		<g id="Layer">
			<g id="Layer">
				<path id="Layer" fill-rule="evenodd" class="s11" d="m101.6 16.2h1.2v7.8h-2.6v-1.2h1.4zm1.2 8.3v7.3q0 0.9 0.3 1.7 0.4 0.9 1 1.5 0.6 0.6 1.4 1 0.8 0.4 1.8 0.4h0.2v1.2q-1.2 0-2.2-0.5-1.1-0.4-1.9-1.2-0.9-0.9-1.3-1.9-0.5-1.1-0.5-2.3v-6.1h-1.4v-1.1zm4.5 11.5q-0.9 0-1.6-0.4-0.8-0.3-1.3-0.9-0.6-0.6-0.9-1.3-0.3-0.8-0.3-1.6v-7.3h3.6v1.1h-2.4v6.1q0 1.3 0.9 2.2 0.9 0.9 2.2 0.9v1.2zm-4.1-11.9v-7.9h1.2v6.7h2.4v1.2z"/>
			</g>
		</g>
	</g>
	<g id="Layer">
		<g id="Layer">
			<g id="Layer">
				<path id="Layer" fill-rule="evenodd" class="s12" d="m23 77.5q1 0.9 1.6 1.9 0.6 1.1 0.6 2.4 0 1-0.4 2-0.3 0.9-1 1.6-0.7 0.7-1.5 1.2-0.9 0.4-1.9 0.5l-6.3 0.1v-17.5h5.7q1 0 1.8 0.4 0.8 0.3 1.5 1 0.6 0.6 0.9 1.4 0.4 0.8 0.4 1.7 0 2-1.4 3.3zm-7.9-6.8v15.5h4.9q0.9 0 1.7-0.4 0.8-0.3 1.4-0.9 0.6-0.6 0.9-1.4 0.4-0.8 0.4-1.7 0-0.8-0.3-1.5-0.2-0.7-0.7-1.2-0.4-0.6-1-1-0.6-0.4-1.3-0.6 1-0.3 1.6-1.2 0.7-0.9 0.7-2.1 0-0.7-0.3-1.4-0.3-0.6-0.7-1.1-0.5-0.5-1.2-0.7-0.6-0.3-1.4-0.3zm0.4 15.1v-8h4.4q0.1 0 0.1 0 0.9 0 1.6 0.3 0.8 0.3 1.3 0.8 0.5 0.6 0.9 1.3 0.3 0.8 0.3 1.6 0 0.9-0.3 1.6-0.4 0.7-0.9 1.3-0.5 0.5-1.3 0.8-0.7 0.3-1.6 0.3zm0-8.4v-6.4h4.4q0.7 0 1.3 0.3 0.5 0.2 1 0.7 0.4 0.4 0.7 1 0.2 0.5 0.2 1.2 0 0.7-0.2 1.3-0.3 0.5-0.7 1-0.5 0.4-1 0.7-0.6 0.2-1.3 0.2zm1-5.4v4.4h3.4q0.5 0 0.9-0.1 0.4-0.2 0.7-0.5 0.3-0.3 0.5-0.8 0.2-0.4 0.2-0.8 0-0.4-0.2-0.8-0.2-0.4-0.5-0.7-0.3-0.3-0.7-0.5-0.4-0.2-0.9-0.2zm0 6.7v6.2h3.4q0.6 0 1.2-0.3 0.6-0.2 1-0.6 0.4-0.4 0.6-1 0.3-0.5 0.3-1.2 0-0.6-0.3-1.2-0.2-0.5-0.6-1-0.4-0.4-1-0.6-0.5-0.3-1.2-0.3z"/>
			</g>
		</g>
	</g>
	<g id="Layer">
		<g id="Layer">
			<g id="Layer">
				<path id="Layer" fill-rule="evenodd" class="s12" d="m35.3 86.5q-1.3 0.9-2.9 0.9-1 0-2-0.4-0.9-0.4-1.6-1.1-0.7-0.7-1.1-1.7-0.5-0.9-0.5-2v-7h1v7q0 0.9 0.4 1.6 0.3 0.8 0.9 1.4 0.5 0.5 1.3 0.9 0.8 0.3 1.6 0.3 1.3 0 2.4-0.7 1.1-0.8 1.5-1.9v3.4h-1zm-6.7-11.3h0.9v7q0 0.5 0.3 1.1 0.2 0.5 0.6 0.9 0.4 0.4 0.9 0.6 0.5 0.2 1.1 0.2 0.6 0 1.1-0.2 0.6-0.2 1-0.6 0.3-0.4 0.6-0.9 0.2-0.6 0.2-1.1v-7h1v7q0 0.8-0.3 1.5-0.3 0.7-0.8 1.2-0.6 0.5-1.3 0.8-0.7 0.3-1.5 0.3-0.8 0-1.5-0.3-0.7-0.3-1.2-0.8-0.5-0.5-0.9-1.2-0.3-0.7-0.2-1.5zm8 0h1v11.9h-1z"/>
			</g>
		</g>
	</g>
	<g id="Layer">
		<g id="Layer">
			<g id="Layer">
				<path id="Layer" class="s12" d="m40.2 69.7h1v17.5h-1zm2.3 0v17.4h-1v-17.4z"/>
			</g>
		</g>
	</g>
	<g id="Layer">
		<g id="Layer">
			<g id="Layer">
				<path id="Layer" class="s12" d="m45.1 69.7h1v17.5h-1zm2.3 0v17.4h-1v-17.4z"/>
			</g>
		</g>
	</g>
	<g id="Layer">
		<g id="Layer">
			<g id="Layer">
				<path id="Layer" fill-rule="evenodd" class="s12" d="m50.3 87.2v-12h1v12zm1.3-12h1v12h-1zm-0.2-5.7q0.6 0 1 0.4 0.4 0.4 0.4 1 0 0.6-0.4 1-0.4 0.4-1 0.4-0.6 0-1-0.4-0.4-0.4-0.4-1 0-0.6 0.4-1 0.4-0.4 1-0.4zm0 0.8q-0.2 0-0.4 0.2-0.2 0.2-0.2 0.4 0 0.3 0.2 0.5 0.2 0.1 0.4 0.1 0.3 0 0.5-0.1 0.2-0.2 0.2-0.5 0-0.2-0.2-0.4-0.2-0.2-0.5-0.2zm0 0.3q0.4 0 0.4 0.3 0 0.3-0.4 0.3-0.3 0-0.3-0.3 0-0.3 0.3-0.3z"/>
			</g>
		</g>
	</g>
	<g id="Layer">
		<g id="Layer">
			<g id="Layer">
				<path id="Layer" class="s12" d="m59.5 77.6q-0.3-0.3-0.7-0.3-0.4 0-0.7 0.3-0.2 0.2-0.2 0.6 0 0.3 0.1 0.5 0.2 0.2 0.4 0.4 0.3 0.1 0.5 0.3 0.3 0.1 0.5 0.2 0.7 0.3 1.3 0.6 0.6 0.3 1 0.8 0.4 0.4 0.7 1 0.2 0.6 0.2 1.4 0 0.9-0.3 1.6-0.3 0.7-0.9 1.2-0.5 0.6-1.2 0.9-0.8 0.3-1.6 0.3-1 0-2-0.6-0.9-0.5-1.4-1.5l2-1.1v0.1q0.5 0.8 1.4 0.8 0.7 0 1.2-0.5 0.5-0.5 0.5-1.2 0-0.4-0.2-0.6-0.1-0.3-0.4-0.5-0.3-0.2-0.6-0.3-0.3-0.2-0.6-0.3-0.6-0.3-1.2-0.6-0.5-0.3-0.9-0.7-0.4-0.3-0.6-0.9-0.2-0.5-0.2-1.3 0-0.6 0.2-1.2 0.3-0.6 0.7-1 0.4-0.5 1-0.7 0.6-0.3 1.3-0.3 0.7 0 1.4 0.3 0.7 0.3 1.1 0.9l-0.7 0.6q-0.3-0.4-0.8-0.6-0.4-0.2-0.9-0.2-0.5 0-0.9 0.1-0.4 0.2-0.8 0.5-0.3 0.3-0.4 0.7-0.2 0.5-0.2 0.9 0 0.8 0.4 1.3 0.3 0.4 0.8 0.7 0.6 0.3 1.2 0.6 0.6 0.2 1.1 0.5 0.5 0.4 0.9 0.9 0.3 0.4 0.3 1.2 0 1.2-0.7 1.9-0.8 0.7-1.9 0.7-0.7 0-1.3-0.3-0.7-0.4-1-1l-0.3 0.1q0.4 0.7 1.1 1.2 0.7 0.4 1.5 0.4 0.6 0 1.2-0.2 0.5-0.3 0.9-0.7 0.4-0.4 0.7-0.9 0.2-0.6 0.2-1.2 0-0.8-0.4-1.4-0.3-0.5-0.8-0.8-0.6-0.4-1.2-0.6-0.6-0.3-1.1-0.6-0.5-0.2-0.9-0.7-0.3-0.4-0.3-1.1-0.1-0.8 0.5-1.3 0.6-0.6 1.4-0.6 0.8 0 1.4 0.7z"/>
			</g>
		</g>
	</g>
	<g id="Layer">
		<g id="Layer">
			<g id="Layer">
				<path id="Layer" fill-rule="evenodd" class="s12" d="m67.1 75.9q0.6-0.5 1.4-0.7 0.7-0.2 1.5-0.2 1 0 2 0.4 0.9 0.4 1.6 1.1 0.7 0.7 1.1 1.6 0.5 1 0.5 2.1v7h-1v-7q0-0.9-0.4-1.7-0.3-0.7-0.9-1.3-0.5-0.6-1.3-0.9-0.7-0.3-1.6-0.3-1.4 0-2.4 0.7-1 0.7-1.5 1.8v-8.8h1zm6.8 11.3h-1v-7q0-0.6-0.3-1.1-0.2-0.5-0.6-0.9-0.4-0.4-0.9-0.6-0.5-0.3-1.1-0.3-1.2 0-2 0.8-0.9 0.9-0.9 2.1v7h-1v-7q0-0.8 0.3-1.5 0.3-0.7 0.8-1.2 0.6-0.5 1.3-0.8 0.7-0.4 1.5-0.4 0.8 0 1.5 0.4 0.7 0.3 1.2 0.8 0.5 0.5 0.8 1.2 0.4 0.7 0.4 1.5zm-8.1 0h-1v-17.5h1z"/>
			</g>
		</g>
	</g>
	<g id="Layer">
		<g id="Layer">
			<g id="Layer">
			</g>
		</g>
	</g>
	<g id="Layer">
		<g id="Layer">
			<g id="Layer">
				<path id="Layer" fill-rule="evenodd" class="s12" d="m86.6 75.9q0.7-0.5 1.4-0.7 0.7-0.2 1.5-0.2 1.1 0 2 0.4 0.9 0.4 1.7 1.1 0.7 0.7 1.1 1.6 0.4 1 0.4 2.1v7h-1v-7q0-0.9-0.3-1.7-0.4-0.7-0.9-1.3-0.6-0.6-1.4-0.9-0.7-0.3-1.6-0.3-1.3 0-2.3 0.7-1 0.7-1.6 1.8v-3.3h1zm6.8 11.3h-1v-7q0-0.6-0.2-1.1-0.3-0.5-0.7-0.9-0.4-0.4-0.9-0.6-0.5-0.3-1.1-0.3-0.6 0-1.1 0.3-0.5 0.2-0.9 0.6-0.4 0.4-0.6 0.9-0.3 0.5-0.3 1.1v7h-1v-7q0-0.8 0.3-1.5 0.3-0.7 0.9-1.2 0.5-0.5 1.2-0.8 0.7-0.4 1.5-0.4 0.8 0 1.5 0.4 0.7 0.3 1.2 0.8 0.6 0.5 0.9 1.2 0.3 0.7 0.3 1.5zm-8.1 0h-1v-12h1z"/>
			</g>
		</g>
	</g>
	<g id="Layer">
		<g id="Layer">
			<g id="Layer">
				<path id="Layer" fill-rule="evenodd" class="s12" d="m99.5 82.3q0.4 1.3 1.5 2 1 0.8 2.3 0.8 1 0 1.8-0.5 0.8-0.4 1.4-1.2l0.8 0.5q-0.7 1-1.7 1.6-1.1 0.5-2.3 0.5-1 0-1.9-0.3-0.9-0.4-1.5-1-0.7-0.7-1.1-1.5-0.4-0.9-0.4-1.9h10.1v-0.1q0-1.1-0.4-2-0.4-1-1.2-1.7-0.7-0.7-1.6-1.1-1-0.4-2-0.4-1.1 0-2.1 0.4-0.9 0.4-1.6 1.1-0.7 0.7-1.1 1.7-0.5 0.9-0.5 2 0 1.1 0.5 2 0.4 1 1.1 1.7 0.7 0.7 1.7 1.1 0.9 0.4 2 0.4 1.3 0 2.5-0.6 1.1-0.7 1.8-1.7l0.8 0.6q-0.9 1.2-2.3 2-1.3 0.7-2.8 0.7-1.3 0-2.4-0.5-1.1-0.5-2-1.3-0.9-0.9-1.4-2-0.4-1.1-0.4-2.4 0-1.3 0.4-2.4 0.5-1.1 1.4-2 0.9-0.9 2-1.3 1.1-0.5 2.4-0.5 1.2 0 2.4 0.5 1.1 0.5 1.9 1.3 0.9 0.9 1.4 2 0.5 1.1 0.5 2.4v1.1zm-1.2-1.3q0-0.9 0.4-1.8 0.4-0.9 1.1-1.5 0.6-0.7 1.5-1 0.9-0.4 1.9-0.4 1 0 1.9 0.4 0.9 0.3 1.5 1 0.7 0.6 1 1.5 0.4 0.9 0.4 1.8zm8.7-1q-0.5-1.2-1.5-2-1-0.7-2.3-0.7-1.6 0-2.7 1.1-0.7 0.7-1 1.6z"/>
			</g>
		</g>
	</g>
	<g id="Layer">
		<g id="Layer">
			<g id="Layer">
				<path id="Layer" fill-rule="evenodd" class="s12" d="m117.5 87.2h-1.6l-4.3-12h1l1 2.8 2.9 8.2h0.4l3.3-9.5 3.4 9.5h0.3l3-8.5 0.9-2.5h1l-4.2 12h-1.7l-2.7-7.7zm-3.4-11.9l2.6 7.4 2.6-7.4h1.8l2.6 7.4 2.7-7.4h1.1l-0.9 2.4-2.9 8-3.3-9.4h-0.3l-3.4 9.4-2.7-7.7-1-2.7z"/>
			</g>
		</g>
	</g>
	<g id="Layer">
		<g id="Layer">
			<g id="Layer">
				<path id="Layer" class="s12" d="m135.5 77.6q-0.3-0.3-0.8-0.3-0.3 0-0.6 0.3-0.3 0.2-0.3 0.6 0 0.3 0.2 0.5 0.1 0.2 0.4 0.4 0.2 0.1 0.5 0.3 0.2 0.1 0.5 0.2 0.7 0.3 1.3 0.6 0.5 0.3 1 0.8 0.4 0.4 0.6 1 0.2 0.6 0.2 1.4 0 0.9-0.3 1.6-0.3 0.7-0.8 1.2-0.5 0.6-1.3 0.9-0.7 0.3-1.5 0.3-1.1 0-2-0.6-0.9-0.5-1.5-1.5l2.1-1.1v0.1q0.5 0.8 1.4 0.8 0.7 0 1.2-0.5 0.4-0.5 0.4-1.2 0-0.4-0.1-0.6-0.2-0.3-0.4-0.5-0.3-0.2-0.6-0.3-0.3-0.2-0.7-0.3-0.6-0.3-1.1-0.6-0.5-0.3-0.9-0.7-0.4-0.3-0.7-0.9-0.2-0.5-0.2-1.3 0-0.6 0.3-1.2 0.2-0.6 0.7-1 0.4-0.5 1-0.7 0.6-0.3 1.2-0.3 0.8 0 1.5 0.3 0.6 0.3 1.1 0.9l-0.8 0.6q-0.3-0.4-0.7-0.6-0.5-0.2-1-0.2-0.4 0-0.9 0.1-0.4 0.2-0.7 0.5-0.3 0.3-0.5 0.7-0.1 0.5-0.1 0.9 0 0.8 0.3 1.3 0.4 0.4 0.9 0.7 0.5 0.3 1.1 0.6 0.6 0.2 1.2 0.5 0.5 0.4 0.8 0.9 0.4 0.4 0.4 1.2 0 1.2-0.8 1.9-0.7 0.7-1.8 0.7-0.8 0-1.4-0.3-0.6-0.4-0.9-1l-0.3 0.1q0.4 0.7 1.1 1.2 0.6 0.4 1.5 0.4 0.6 0 1.1-0.2 0.6-0.3 1-0.7 0.4-0.4 0.6-0.9 0.2-0.6 0.2-1.2 0-0.8-0.3-1.4-0.4-0.5-0.9-0.8-0.5-0.4-1.1-0.6-0.7-0.3-1.2-0.6-0.5-0.2-0.9-0.7-0.3-0.4-0.3-1.1 0-0.8 0.5-1.3 0.6-0.6 1.4-0.6 0.9 0 1.5 0.7z"/>
			</g>
		</g>
	</g>
	<g id="Layer">
		<g id="Layer">
			<g id="Layer">
				<path id="Layer" fill-rule="evenodd" class="s12" d="m8.9 223.1h-0.3v-6.1h1.6q0.4 0 0.8 0.1 0.3 0.2 0.6 0.5 0.3 0.2 0.5 0.6 0.1 0.4 0.1 0.8 0 0.3-0.1 0.6-0.1 0.3-0.2 0.5-0.2 0.2-0.5 0.4-0.2 0.2-0.5 0.3l1.7 2.3h-0.5l-1.3-1.9-0.5-0.6q0.3 0 0.6-0.1 0.3-0.2 0.5-0.4 0.2-0.2 0.3-0.5 0.2-0.3 0.2-0.6 0-0.4-0.2-0.7-0.1-0.3-0.3-0.5-0.3-0.2-0.5-0.4-0.3-0.1-0.7-0.1h-1.3zm0.1-2.6v-3.1h1.2q0.3 0 0.6 0.2 0.3 0.1 0.5 0.3 0.2 0.2 0.3 0.5 0.2 0.3 0.2 0.6 0 0.3-0.2 0.6-0.1 0.3-0.3 0.5-0.2 0.2-0.5 0.3-0.3 0.1-0.6 0.1zm1 0.5h-0.6v2.1h-0.4v-2.5h1.2l1.8 2.5h-0.4zm-0.7-3.2v2.4h0.9q0.2 0 0.4-0.1 0.2-0.1 0.4-0.2 0.2-0.2 0.3-0.4 0.1-0.2 0.1-0.5 0-0.2-0.1-0.4-0.1-0.3-0.3-0.4-0.2-0.2-0.4-0.3-0.2-0.1-0.4-0.1z"/>
			</g>
		</g>
	</g>
	<g id="Layer">
		<g id="Layer">
			<g id="Layer">
				<path id="Layer" fill-rule="evenodd" class="s12" d="m14.1 221.4q0.2 0.4 0.5 0.7 0.4 0.3 0.8 0.3 0.4 0 0.7-0.2 0.3-0.2 0.5-0.4l0.3 0.2q-0.3 0.3-0.6 0.5-0.4 0.2-0.9 0.2-0.3 0-0.6-0.1-0.3-0.2-0.5-0.4-0.3-0.2-0.4-0.5-0.2-0.3-0.2-0.6h3.6v-0.1q0-0.4-0.2-0.7-0.1-0.3-0.4-0.6-0.2-0.2-0.6-0.4-0.3-0.1-0.7-0.1-0.3 0-0.7 0.1-0.3 0.2-0.6 0.4-0.2 0.3-0.3 0.6-0.2 0.3-0.2 0.7 0 0.4 0.2 0.7 0.1 0.3 0.4 0.6 0.2 0.2 0.5 0.4 0.4 0.1 0.7 0.1 0.5 0 0.9-0.2 0.4-0.2 0.7-0.6l0.2 0.2q-0.3 0.5-0.7 0.7-0.5 0.3-1.1 0.3-0.4 0-0.8-0.2-0.4-0.2-0.7-0.5-0.3-0.3-0.5-0.7-0.1-0.4-0.1-0.8 0-0.4 0.1-0.8 0.2-0.4 0.5-0.8 0.3-0.2 0.7-0.4 0.4-0.2 0.8-0.2 0.5 0 0.9 0.2 0.4 0.2 0.7 0.5 0.3 0.3 0.4 0.7 0.2 0.4 0.2 0.8v0.4zm-0.4-0.5q0-0.3 0.2-0.6 0.1-0.3 0.3-0.5 0.3-0.3 0.6-0.4 0.3-0.1 0.6-0.1 0.4 0 0.7 0.1 0.3 0.1 0.5 0.4 0.3 0.2 0.4 0.5 0.1 0.3 0.1 0.6zm3.1-0.3q-0.2-0.4-0.5-0.7-0.4-0.3-0.8-0.3-0.6 0-1 0.4-0.2 0.3-0.4 0.6z"/>
			</g>
		</g>
	</g>
	<g id="Layer">
		<g id="Layer">
			<g id="Layer">
				<path id="Layer" fill-rule="evenodd" class="s12" d="m22.4 222.1q-0.2 0.5-0.8 0.8-0.5 0.3-1 0.3-0.5 0-0.9-0.2-0.4-0.2-0.7-0.5-0.3-0.3-0.4-0.7-0.2-0.4-0.2-0.8 0-0.4 0.1-0.8 0.2-0.4 0.5-0.8 0.3-0.2 0.7-0.4 0.4-0.2 0.9-0.2 0.6 0 1.1 0.3 0.5 0.3 0.7 0.8l-0.2 0.2q-0.1-0.1-0.2-0.2 0-0.1-0.1-0.2-0.6-0.5-1.3-0.5-0.4 0-0.8 0.1-0.3 0.2-0.5 0.4-0.3 0.3-0.4 0.6-0.2 0.3-0.2 0.7 0 0.4 0.2 0.7 0.1 0.3 0.4 0.6 0.2 0.2 0.5 0.4 0.4 0.1 0.8 0.1 0.7 0 1.3-0.5 0.1-0.1 0.1-0.2 0.1-0.1 0.2-0.2zm-0.7-1.8q-0.2-0.3-0.5-0.5-0.4-0.2-0.7-0.2-0.6 0-1 0.5-0.4 0.3-0.4 0.9 0 0.3 0.1 0.5 0.1 0.3 0.3 0.5 0.2 0.2 0.4 0.3 0.3 0.1 0.6 0.1 0.3 0 0.7-0.2 0.3-0.2 0.5-0.5l0.3 0.2q-0.3 0.4-0.7 0.6-0.4 0.2-0.8 0.2-0.4 0-0.7-0.1-0.3-0.1-0.5-0.4-0.3-0.2-0.4-0.5-0.1-0.3-0.1-0.7 0-0.3 0.1-0.7 0.1-0.3 0.4-0.5 0.2-0.2 0.5-0.4 0.3-0.1 0.7-0.1 0.5 0 0.9 0.3 0.4 0.2 0.6 0.6z"/>
			</g>
		</g>
	</g>
	<g id="Layer">
		<g id="Layer">
			<g id="Layer">
				<path id="Layer" fill-rule="evenodd" class="s12" d="m24 221.4q0.2 0.4 0.5 0.7 0.4 0.3 0.9 0.3 0.3 0 0.6-0.2 0.3-0.2 0.5-0.4l0.3 0.2q-0.3 0.3-0.6 0.5-0.4 0.2-0.8 0.2-0.4 0-0.7-0.1-0.3-0.2-0.5-0.4-0.3-0.2-0.4-0.5-0.1-0.3-0.2-0.6h3.6v-0.1q0-0.4-0.2-0.7-0.1-0.3-0.3-0.6-0.3-0.2-0.6-0.4-0.4-0.1-0.7-0.1-0.4 0-0.8 0.1-0.3 0.2-0.5 0.4-0.3 0.3-0.4 0.6-0.2 0.3-0.2 0.7 0 0.4 0.2 0.7 0.1 0.3 0.4 0.6 0.2 0.2 0.6 0.4 0.3 0.1 0.7 0.1 0.4 0 0.8-0.2 0.4-0.2 0.7-0.6l0.3 0.2q-0.3 0.5-0.8 0.7-0.5 0.3-1 0.3-0.5 0-0.9-0.2-0.4-0.2-0.7-0.5-0.3-0.3-0.4-0.7-0.2-0.4-0.2-0.8 0-0.4 0.1-0.8 0.2-0.4 0.5-0.8 0.3-0.2 0.7-0.4 0.4-0.2 0.9-0.2 0.4 0 0.8 0.2 0.4 0.2 0.7 0.5 0.3 0.3 0.5 0.7 0.1 0.4 0.1 0.8v0.4zm-0.4-0.5q0-0.3 0.2-0.6 0.1-0.3 0.4-0.5 0.2-0.3 0.5-0.4 0.3-0.1 0.6-0.1 0.4 0 0.7 0.1 0.3 0.1 0.5 0.4 0.3 0.2 0.4 0.5 0.1 0.3 0.1 0.6zm3.1-0.3q-0.2-0.4-0.5-0.7-0.4-0.3-0.8-0.3-0.6 0-1 0.4-0.2 0.3-0.3 0.6z"/>
			</g>
		</g>
	</g>
	<g id="Layer">
		<g id="Layer">
			<g id="Layer">
				<path id="Layer" fill-rule="evenodd" class="s12" d="m28.4 223.1v-4.2h0.3v4.2zm0.5-4.2h0.3v4.2h-0.3zm-0.1-2q0.2 0 0.4 0.2 0.1 0.1 0.1 0.3 0 0.2-0.1 0.3-0.2 0.2-0.4 0.2-0.2 0-0.3-0.2-0.2-0.1-0.2-0.3 0-0.2 0.2-0.3 0.1-0.2 0.3-0.2zm0 0.3q-0.1 0-0.1 0-0.1 0.1-0.1 0.2 0 0.1 0.1 0.2 0 0 0.1 0 0.1 0 0.2 0 0.1-0.1 0.1-0.2 0-0.1-0.1-0.2-0.1 0-0.2 0zm0 0.1q0.1 0 0.1 0.1 0 0.1-0.1 0.1-0.1 0-0.1-0.1 0-0.1 0.1-0.1z"/>
			</g>
		</g>
	</g>
	<g id="Layer">
		<g id="Layer">
			<g id="Layer">
				<path id="Layer" fill-rule="evenodd" class="s12" d="m33.7 218.9l-1.5 4.2h-0.6l-1.5-4.2h0.4l0.2 0.7 1.1 3.1h0.1l1.1-2.9 0.3-0.9zm-0.8 0h0.3l-0.3 0.9-1 2.7-1-2.9-0.3-0.7h0.4l0.9 2.6z"/>
			</g>
		</g>
	</g>
	<g id="Layer">
		<g id="Layer">
			<g id="Layer">
				<path id="Layer" fill-rule="evenodd" class="s12" d="m35.3 221.4q0.2 0.4 0.5 0.7 0.4 0.3 0.9 0.3 0.3 0 0.6-0.2 0.3-0.2 0.5-0.4l0.3 0.2q-0.3 0.3-0.6 0.5-0.4 0.2-0.8 0.2-0.4 0-0.7-0.1-0.3-0.2-0.5-0.4-0.3-0.2-0.4-0.5-0.2-0.3-0.2-0.6h3.6v-0.1q0-0.4-0.2-0.7-0.1-0.3-0.4-0.6-0.2-0.2-0.5-0.4-0.4-0.1-0.7-0.1-0.4 0-0.8 0.1-0.3 0.2-0.5 0.4-0.3 0.3-0.4 0.6-0.2 0.3-0.2 0.7 0 0.4 0.2 0.7 0.1 0.3 0.4 0.6 0.2 0.2 0.5 0.4 0.4 0.1 0.8 0.1 0.4 0 0.8-0.2 0.4-0.2 0.7-0.6l0.2 0.2q-0.2 0.5-0.7 0.7-0.5 0.3-1 0.3-0.5 0-0.9-0.2-0.4-0.2-0.7-0.5-0.3-0.3-0.4-0.7-0.2-0.4-0.2-0.8 0-0.4 0.1-0.8 0.2-0.4 0.5-0.8 0.3-0.2 0.7-0.4 0.4-0.2 0.9-0.2 0.4 0 0.8 0.2 0.4 0.2 0.7 0.5 0.3 0.3 0.5 0.7 0.1 0.4 0.1 0.8v0.4zm-0.4-0.5q0-0.3 0.2-0.6 0.1-0.3 0.3-0.5 0.3-0.3 0.6-0.4 0.3-0.1 0.6-0.1 0.4 0 0.7 0.1 0.3 0.1 0.5 0.4 0.3 0.2 0.4 0.5 0.1 0.3 0.1 0.6zm3.1-0.3q-0.2-0.4-0.5-0.7-0.4-0.3-0.8-0.3-0.6 0-1 0.4-0.2 0.3-0.4 0.6z"/>
			</g>
		</g>
	</g>
	<g id="Layer">
		<g id="Layer">
			<g id="Layer">
			</g>
		</g>
	</g>
	<g id="Layer">
		<g id="Layer">
			<g id="Layer">
				<path id="Layer" class="s12" d="m43.6 217v6.1h-0.4v-5.8h-1.1l0.1-0.3zm-0.8 6.1v-5.3h-0.8l0.1-0.4h1v5.7z"/>
			</g>
		</g>
	</g>
	<g id="Layer">
		<g id="Layer">
			<g id="Layer">
				<path id="Layer" fill-rule="evenodd" class="s12" d="m44.7 218.8q0.1-0.4 0.3-0.8 0.2-0.3 0.5-0.6 0.2-0.2 0.6-0.4 0.4-0.1 0.8-0.1 0.6 0 1.1 0.2 0.5 0.3 0.8 0.8 0.3 0.4 0.5 1 0.1 0.5 0.1 1.1 0 0.6-0.1 1.2-0.2 0.6-0.5 1-0.3 0.5-0.8 0.7-0.5 0.3-1.1 0.3-0.6 0-1-0.3-0.5-0.2-0.8-0.7-0.3-0.4-0.5-1-0.1-0.6-0.1-1.2 0-0.6 0.2-1.2zm0.3 0.1q-0.1 0.3-0.2 0.5 0 0.3 0 0.6 0 0.5 0.1 1.1 0.2 0.5 0.4 0.9 0.3 0.4 0.7 0.6 0.4 0.3 0.9 0.3 0.6 0 1-0.3 0.4-0.2 0.6-0.6 0.3-0.4 0.4-0.9 0.2-0.6 0.2-1.1 0-0.5-0.2-1-0.1-0.5-0.4-0.9-0.2-0.4-0.6-0.7-0.4-0.2-1-0.2-0.4 0-0.7 0.1-0.3 0.2-0.5 0.4-0.3 0.2-0.4 0.5-0.2 0.3-0.3 0.7zm1.9-1.6q0.6 0 0.9 0.3 0.4 0.2 0.7 0.6 0.2 0.4 0.3 0.9 0.1 0.4 0.1 0.9 0 0.5-0.1 1-0.1 0.5-0.3 0.9-0.3 0.3-0.7 0.6-0.3 0.2-0.9 0.2-0.5 0-0.9-0.2-0.3-0.3-0.6-0.6-0.2-0.4-0.4-0.9-0.1-0.5-0.1-1 0-0.5 0.1-0.9 0.2-0.5 0.4-0.9 0.3-0.4 0.6-0.6 0.4-0.3 0.9-0.3zm0 0.4q-0.4 0-0.7 0.2-0.3 0.2-0.5 0.6-0.2 0.3-0.3 0.7-0.1 0.4-0.1 0.8 0 0.4 0.1 0.8 0.1 0.5 0.3 0.8 0.2 0.4 0.5 0.6 0.3 0.2 0.7 0.2 0.5 0 0.8-0.2 0.3-0.3 0.5-0.6 0.2-0.3 0.3-0.8 0.1-0.4 0.1-0.8 0-0.3-0.1-0.8-0.1-0.4-0.3-0.7-0.2-0.4-0.5-0.6-0.3-0.2-0.8-0.2z"/>
			</g>
		</g>
	</g>
	<g id="Layer">
		<g id="Layer">
			<g id="Layer">
				<path id="Layer" fill-rule="evenodd" class="s12" d="m54.9 218.3l-3.4 4.8h-0.4l3.1-4.4 0.3-0.4zm-4 4.8h-0.4l3.4-4.8h0.5zm3.1-2.1q0.2 0 0.4 0.1 0.2 0.1 0.3 0.2 0.2 0.2 0.3 0.4 0.1 0.1 0.1 0.3 0 0.3-0.1 0.5-0.1 0.1-0.3 0.3-0.1 0.1-0.3 0.2-0.2 0.1-0.4 0.1-0.2 0-0.4-0.1-0.2-0.1-0.3-0.2-0.2-0.2-0.2-0.3-0.1-0.2-0.1-0.5 0-0.2 0.1-0.3 0-0.2 0.2-0.4 0.1-0.1 0.3-0.2 0.2-0.1 0.4-0.1zm0 0.4q-0.3 0-0.5 0.2-0.2 0.2-0.2 0.4 0 0.3 0.2 0.5 0.2 0.2 0.5 0.2 0.3 0 0.5-0.2 0.2-0.2 0.2-0.5 0-0.2-0.2-0.4-0.2-0.2-0.5-0.2zm0.4 0.3q0.1 0 0.1 0.1 0.1 0.1 0.1 0.2 0 0.3-0.2 0.5-0.2 0.1-0.4 0.1-0.2 0-0.4-0.1-0.2-0.2-0.2-0.5 0-0.2 0.2-0.3 0.2-0.2 0.4-0.2 0.1 0 0.2 0 0.1 0.1 0.2 0.2zm-3.1-3.4q0.2 0 0.4 0.1 0.2 0 0.3 0.2 0.1 0.1 0.2 0.3 0.1 0.2 0.1 0.4 0 0.2-0.1 0.4-0.1 0.2-0.2 0.3-0.1 0.2-0.3 0.3-0.2 0-0.4 0-0.2 0-0.4 0-0.2-0.1-0.4-0.3-0.1-0.1-0.2-0.3-0.1-0.2-0.1-0.4 0-0.2 0.1-0.4 0.1-0.2 0.2-0.3 0.2-0.2 0.4-0.2 0.2-0.1 0.4-0.1zm0 0.3q-0.3 0-0.5 0.2-0.2 0.2-0.2 0.5 0 0.3 0.2 0.5 0.2 0.2 0.5 0.2 0.3 0 0.5-0.2 0.2-0.2 0.2-0.5 0-0.3-0.2-0.5-0.2-0.2-0.5-0.2zm0.4 0.3q0.1 0.2 0.1 0.4 0 0.2-0.1 0.4-0.2 0.2-0.4 0.2-0.3 0-0.5-0.2-0.1-0.2-0.1-0.4 0-0.2 0.2-0.4 0.1-0.2 0.4-0.2 0.2 0.1 0.4 0.2zm2.5 3q-0.1-0.1-0.2-0.1-0.1 0-0.2 0.1 0 0.1 0 0.1 0 0.1 0 0.2 0.1 0.1 0.2 0.1 0.1 0 0.2-0.1 0-0.1 0-0.2 0 0 0-0.1zm-2.8-2.7q0-0.1-0.1-0.1-0.1 0-0.2 0.1 0 0 0 0.1 0 0.1 0 0.2 0.1 0 0.2 0 0.1 0 0.1 0 0.1-0.1 0.1-0.2 0-0.1-0.1-0.1z"/>
			</g>
		</g>
	</g>
	<g id="Layer">
		<g id="Layer">
			<g id="Layer">
			</g>
		</g>
	</g>
	<g id="Layer">
		<g id="Layer">
			<g id="Layer">
				<path id="Layer" fill-rule="evenodd" class="s12" d="m59.2 223.1h-0.4v-1.5q0.2 0.6 0.7 0.9 0.5 0.3 1 0.3 0.4 0 0.7-0.1 0.4-0.2 0.6-0.4 0.3-0.3 0.4-0.6 0.2-0.3 0.2-0.7 0-0.4-0.2-0.7-0.1-0.3-0.4-0.6-0.2-0.2-0.6-0.4-0.3-0.1-0.7-0.1-0.3 0-0.5 0-0.3 0.1-0.5 0.3-0.3 0.2-0.4 0.4-0.2 0.2-0.3 0.5v-3.4h0.4v2.3q0.5-0.5 1.3-0.5 0.5 0 0.9 0.2 0.4 0.2 0.7 0.5 0.3 0.3 0.4 0.7 0.2 0.3 0.2 0.8 0 0.4-0.2 0.8-0.1 0.4-0.4 0.7-0.3 0.3-0.7 0.5-0.4 0.2-0.9 0.2-0.7 0-1.3-0.5zm1.3-0.4q-0.3 0-0.6-0.1-0.4-0.2-0.6-0.4-0.2-0.2-0.4-0.5-0.1-0.3-0.1-0.7 0-0.4 0.1-0.7 0.2-0.3 0.4-0.5 0.2-0.2 0.6-0.4 0.3-0.1 0.6-0.1 0.4 0 0.7 0.1 0.3 0.2 0.5 0.4 0.3 0.2 0.4 0.5 0.1 0.3 0.1 0.7 0 0.4-0.1 0.7-0.1 0.3-0.4 0.5-0.2 0.2-0.5 0.4-0.3 0.1-0.7 0.1zm-1.8 0.4h-0.3v-6.1h0.3zm1.8-0.8q0.3 0 0.5-0.1 0.3-0.1 0.5-0.3 0.2-0.2 0.3-0.4 0.1-0.3 0.1-0.5 0-0.3-0.1-0.6-0.1-0.2-0.3-0.4-0.2-0.2-0.5-0.3-0.2-0.1-0.5-0.1-0.3 0-0.5 0.1-0.3 0.1-0.4 0.3-0.2 0.2-0.3 0.4-0.1 0.3-0.1 0.6 0 0.2 0.1 0.5 0.1 0.2 0.3 0.4 0.1 0.2 0.4 0.3 0.2 0.1 0.5 0.1z"/>
			</g>
		</g>
	</g>
	<g id="Layer">
		<g id="Layer">
			<g id="Layer">
				<path id="Layer" fill-rule="evenodd" class="s12" d="m67.2 222.5q-0.3 0.3-0.7 0.5-0.4 0.2-0.9 0.2-0.4 0-0.8-0.2-0.4-0.2-0.7-0.5-0.3-0.3-0.5-0.7-0.1-0.4-0.1-0.8 0-0.5 0.1-0.9 0.2-0.4 0.5-0.7 0.3-0.2 0.7-0.4 0.4-0.2 0.8-0.2 0.5 0 0.9 0.2 0.4 0.2 0.7 0.5 0.3 0.3 0.4 0.7 0.2 0.4 0.2 0.8 0 0.4-0.2 0.8-0.1 0.4-0.4 0.7zm-0.3-0.2q0.3-0.3 0.4-0.6 0.2-0.3 0.2-0.7 0-0.4-0.2-0.7-0.1-0.3-0.4-0.6-0.2-0.2-0.6-0.4-0.3-0.1-0.7-0.1-0.3 0-0.7 0.1-0.3 0.2-0.6 0.4-0.2 0.3-0.4 0.6-0.1 0.3-0.1 0.7 0 0.4 0.1 0.7 0.2 0.3 0.4 0.6 0.3 0.2 0.6 0.4 0.4 0.1 0.7 0.1 0.4 0 0.7-0.1 0.4-0.2 0.6-0.4zm-1.3 0.4q-0.3 0-0.6-0.1-0.4-0.2-0.6-0.4-0.2-0.2-0.4-0.5-0.1-0.4-0.1-0.7 0-0.3 0.1-0.7 0.2-0.3 0.4-0.5 0.2-0.2 0.6-0.4 0.3-0.1 0.6-0.1 0.4 0 0.7 0.1 0.3 0.2 0.5 0.4 0.3 0.2 0.4 0.5 0.1 0.4 0.1 0.7 0 0.4-0.1 0.7-0.1 0.3-0.4 0.5-0.2 0.2-0.5 0.4-0.3 0.1-0.7 0.1zm0-0.3q0.3 0 0.6-0.2 0.2-0.1 0.4-0.3 0.2-0.1 0.3-0.4 0.1-0.2 0.1-0.5 0-0.3-0.1-0.5-0.1-0.3-0.3-0.5-0.2-0.2-0.4-0.3-0.3-0.1-0.6-0.1-0.3 0-0.5 0.1-0.3 0.1-0.4 0.3-0.2 0.2-0.3 0.5-0.1 0.2-0.1 0.5 0 0.3 0.1 0.5 0.1 0.3 0.3 0.4 0.1 0.2 0.4 0.3 0.2 0.2 0.5 0.2z"/>
			</g>
		</g>
	</g>
	<g id="Layer">
		<g id="Layer">
			<g id="Layer">
				<path id="Layer" fill-rule="evenodd" class="s12" d="m69.4 219.1q0.2-0.1 0.5-0.2 0.2-0.1 0.5-0.1 0.4 0 0.7 0.2 0.3 0.1 0.6 0.4 0.2 0.2 0.4 0.5 0.1 0.4 0.1 0.7v2.5h-0.3v-2.5q0-0.3-0.2-0.5-0.1-0.3-0.3-0.5-0.2-0.2-0.4-0.3-0.3-0.1-0.6-0.1-0.5 0-0.8 0.2-0.4 0.3-0.6 0.7v-1.2h0.4zm2.3 4h-0.3v-2.5q0-0.2-0.1-0.4-0.1-0.2-0.2-0.3-0.1-0.1-0.3-0.2-0.2-0.1-0.4-0.1-0.2 0-0.4 0.1-0.2 0.1-0.3 0.2-0.2 0.1-0.2 0.3-0.1 0.2-0.1 0.4v2.5h-0.4v-2.5q0-0.3 0.1-0.5 0.1-0.3 0.3-0.5 0.2-0.1 0.5-0.2 0.2-0.2 0.5-0.2 0.3 0 0.5 0.2 0.3 0.1 0.5 0.2 0.1 0.2 0.2 0.5 0.1 0.2 0.1 0.5zm-2.8 0h-0.3v-4.2h0.3z"/>
			</g>
		</g>
	</g>
	<g id="Layer">
		<g id="Layer">
			<g id="Layer">
				<path id="Layer" fill-rule="evenodd" class="s12" d="m75.9 222.9q-0.5 0.3-1 0.3-0.4 0-0.7-0.2-0.4-0.1-0.6-0.4-0.3-0.2-0.4-0.5-0.2-0.4-0.2-0.7v-2.5h0.4v2.5q0 0.3 0.1 0.5 0.1 0.3 0.3 0.5 0.2 0.2 0.5 0.3 0.3 0.1 0.6 0.1 0.4 0 0.8-0.2 0.4-0.3 0.5-0.7v1.2h-0.3zm-2.4-4h0.4v2.5q0 0.2 0 0.4 0.1 0.2 0.3 0.3 0.1 0.1 0.3 0.2 0.2 0.1 0.4 0.1 0.2 0 0.3-0.1 0.2-0.1 0.4-0.2 0.1-0.1 0.2-0.3 0.1-0.2 0.1-0.4v-2.5h0.3v2.5q0 0.3-0.1 0.5-0.1 0.3-0.3 0.4-0.2 0.2-0.4 0.3-0.3 0.1-0.5 0.1-0.3 0-0.6-0.1-0.2-0.1-0.4-0.3-0.2-0.1-0.3-0.4-0.1-0.2-0.1-0.5zm2.8 0h0.4v4.2h-0.4z"/>
			</g>
		</g>
	</g>
	<g id="Layer">
		<g id="Layer">
			<g id="Layer">
				<path id="Layer" class="s12" d="m79.1 219.7q-0.1-0.1-0.2-0.1-0.2 0-0.3 0.1-0.1 0.1-0.1 0.2 0 0.2 0.1 0.2 0 0.1 0.1 0.2 0.1 0 0.2 0.1 0.1 0 0.2 0 0.2 0.1 0.4 0.3 0.2 0.1 0.4 0.2 0.1 0.2 0.2 0.4 0.1 0.2 0.1 0.5 0 0.3-0.1 0.5-0.1 0.3-0.3 0.5-0.2 0.2-0.5 0.3-0.2 0.1-0.5 0.1-0.4 0-0.7-0.2-0.3-0.2-0.5-0.6l0.7-0.3q0.2 0.3 0.5 0.3 0.2 0 0.4-0.2 0.2-0.2 0.2-0.4 0-0.2-0.1-0.3 0-0.1-0.1-0.1-0.1-0.1-0.2-0.1-0.1-0.1-0.3-0.1-0.2-0.1-0.3-0.2-0.2-0.1-0.4-0.3-0.1-0.1-0.2-0.3-0.1-0.2-0.1-0.5 0-0.2 0.1-0.4 0.1-0.2 0.3-0.3 0.1-0.2 0.3-0.3 0.2-0.1 0.5-0.1 0.2 0 0.5 0.1 0.2 0.1 0.3 0.3l-0.2 0.2q-0.1-0.1-0.3-0.2-0.1 0-0.3 0-0.2 0-0.3 0-0.2 0.1-0.3 0.2-0.1 0.1-0.1 0.3-0.1 0.1-0.1 0.2 0 0.3 0.1 0.5 0.1 0.1 0.3 0.3 0.2 0.1 0.4 0.2 0.2 0 0.4 0.2 0.2 0.1 0.3 0.2 0.1 0.2 0.1 0.5 0 0.4-0.2 0.6-0.3 0.3-0.7 0.3-0.2 0-0.4-0.1-0.3-0.2-0.4-0.4l-0.1 0.1q0.2 0.2 0.4 0.4 0.2 0.1 0.5 0.1 0.2 0 0.4-0.1 0.2 0 0.4-0.2 0.1-0.1 0.2-0.3 0.1-0.2 0.1-0.4 0-0.3-0.2-0.5-0.1-0.2-0.3-0.3-0.1-0.1-0.4-0.2-0.2-0.1-0.4-0.2-0.1-0.1-0.3-0.2-0.1-0.2-0.1-0.5 0-0.2 0.2-0.4 0.2-0.2 0.5-0.2 0.3 0 0.5 0.2z"/>
			</g>
		</g>
	</g>
	<g id="Layer">
		<g id="Layer">
			<g id="Layer">
			</g>
		</g>
	</g>
	<g id="Layer">
		<g id="Layer">
			<g id="Layer">
				<path id="Layer" fill-rule="evenodd" class="s12" d="m87 222.5q-0.3 0.3-0.7 0.5-0.4 0.2-0.8 0.2-0.4 0-0.8-0.2-0.4-0.2-0.7-0.5-0.3-0.3-0.5-0.7-0.2-0.4-0.2-0.8 0-0.5 0.2-0.9 0.2-0.4 0.5-0.7 0.3-0.2 0.7-0.4 0.4-0.2 0.8-0.2 0.5 0 0.9 0.2 0.3 0.2 0.6 0.5 0.3 0.3 0.5 0.7 0.2 0.4 0.2 0.8 0 0.4-0.2 0.8-0.1 0.4-0.5 0.7zm-0.2-0.2q0.3-0.3 0.4-0.6 0.1-0.3 0.1-0.7 0-0.4-0.1-0.7-0.1-0.3-0.4-0.6-0.2-0.2-0.6-0.4-0.3-0.1-0.7-0.1-0.4 0-0.7 0.1-0.3 0.2-0.6 0.4-0.2 0.3-0.4 0.6-0.1 0.3-0.1 0.7 0 0.4 0.1 0.7 0.2 0.3 0.4 0.6 0.3 0.2 0.6 0.4 0.3 0.1 0.7 0.1 0.4 0 0.7-0.1 0.4-0.2 0.6-0.4zm-1.3 0.4q-0.4 0-0.7-0.1-0.3-0.2-0.5-0.4-0.2-0.2-0.4-0.5-0.1-0.4-0.1-0.7 0-0.3 0.1-0.7 0.2-0.3 0.4-0.5 0.2-0.2 0.5-0.4 0.3-0.1 0.7-0.1 0.4 0 0.7 0.1 0.3 0.2 0.5 0.4 0.3 0.2 0.4 0.5 0.1 0.4 0.1 0.7 0 0.4-0.1 0.7-0.1 0.3-0.4 0.5-0.2 0.2-0.5 0.4-0.3 0.1-0.7 0.1zm0-0.3q0.3 0 0.5-0.2 0.3-0.1 0.5-0.3 0.2-0.1 0.3-0.4 0.1-0.2 0.1-0.5 0-0.3-0.1-0.5-0.1-0.3-0.3-0.5-0.2-0.2-0.5-0.3-0.2-0.1-0.5-0.1-0.3 0-0.5 0.1-0.3 0.1-0.5 0.3-0.1 0.2-0.3 0.5 0 0.2 0 0.5 0 0.3 0 0.5 0.2 0.3 0.3 0.4 0.2 0.2 0.5 0.3 0.2 0.2 0.5 0.2z"/>
			</g>
		</g>
	</g>
	<g id="Layer">
		<g id="Layer">
			<g id="Layer">
				<path id="Layer" fill-rule="evenodd" class="s12" d="m89.3 219.1q0.2-0.1 0.4-0.2 0.3-0.1 0.6-0.1 0.3 0 0.7 0.2 0.3 0.1 0.6 0.4 0.2 0.2 0.4 0.5 0.1 0.4 0.1 0.7v2.5h-0.3v-2.5q0-0.3-0.2-0.5-0.1-0.3-0.3-0.5-0.2-0.2-0.5-0.3-0.2-0.1-0.5-0.1-0.5 0-0.8 0.2-0.4 0.3-0.6 0.7v-1.2h0.4zm2.3 4h-0.3v-2.5q0-0.2-0.1-0.4-0.1-0.2-0.2-0.3-0.2-0.1-0.3-0.2-0.2-0.1-0.4-0.1-0.2 0-0.4 0.1-0.2 0.1-0.3 0.2-0.2 0.1-0.3 0.3 0 0.2 0 0.4v2.5h-0.4v-2.5q0-0.3 0.1-0.5 0.1-0.3 0.3-0.5 0.2-0.1 0.4-0.2 0.3-0.2 0.6-0.2 0.2 0 0.5 0.2 0.2 0.1 0.4 0.2 0.2 0.2 0.3 0.5 0.1 0.2 0.1 0.5zm-2.8 0h-0.3v-4.2h0.3z"/>
			</g>
		</g>
	</g>
	<g id="Layer">
		<g id="Layer">
			<g id="Layer">
			</g>
		</g>
	</g>
	<g id="Layer">
		<g id="Layer">
			<g id="Layer">
				<path id="Layer" fill-rule="evenodd" class="s12" d="m98.1 222.9q-0.4 0.3-1 0.3-0.3 0-0.7-0.2-0.3-0.1-0.5-0.4-0.3-0.2-0.5-0.5-0.1-0.4-0.1-0.7v-2.5h0.3v2.5q0 0.3 0.2 0.5 0.1 0.3 0.3 0.5 0.2 0.2 0.5 0.3 0.2 0.1 0.5 0.1 0.5 0 0.9-0.2 0.3-0.3 0.5-0.7v1.4q0 0.3-0.1 0.5-0.1 0.3-0.3 0.5-0.2 0.1-0.5 0.2-0.2 0.2-0.5 0.2-0.5 0-0.9-0.5l0.2-0.2q0 0 0.1 0.1 0.2 0.1 0.2 0.1 0.3 0.1 0.4 0.1 0.2 0 0.4-0.1 0.2-0.1 0.3-0.2 0.2-0.1 0.3-0.3 0-0.2 0-0.4zm-1.9 1.4l-0.1 0.1q0 0 0 0l0.1-0.1q0 0 0 0zm0.4 0.4q0.2 0.1 0.5 0.1 0.3 0 0.6-0.1 0.3-0.1 0.5-0.3 0.2-0.2 0.3-0.5 0.1-0.2 0.1-0.5v-4.5h0.3v4.5q0 0.3-0.1 0.6-0.1 0.4-0.4 0.6-0.2 0.3-0.6 0.4-0.3 0.2-0.7 0.2-0.3 0-0.7-0.2-0.3-0.1-0.6-0.4l0.3-0.2q0.2 0.2 0.5 0.3zm-0.8-5.8h0.3v2.5q0 0.2 0.1 0.4 0.1 0.2 0.2 0.3 0.2 0.2 0.3 0.2 0.2 0.1 0.4 0.1 0.2 0 0.4-0.1 0.2 0 0.3-0.2 0.2-0.1 0.3-0.3 0-0.2 0-0.4v-2.5h0.4v2.5q0 0.3-0.1 0.5-0.1 0.3-0.3 0.5-0.2 0.2-0.5 0.3-0.2 0.1-0.5 0.1-0.3 0-0.5-0.1-0.2-0.1-0.4-0.3-0.2-0.2-0.3-0.5-0.1-0.2-0.1-0.5z"/>
			</g>
		</g>
	</g>
	<g id="Layer">
		<g id="Layer">
			<g id="Layer">
				<path id="Layer" fill-rule="evenodd" class="s12" d="m103.5 222.5q-0.3 0.3-0.7 0.5-0.4 0.2-0.8 0.2-0.5 0-0.9-0.2-0.3-0.2-0.6-0.5-0.3-0.3-0.5-0.7-0.2-0.4-0.2-0.8 0-0.5 0.2-0.9 0.2-0.4 0.5-0.7 0.3-0.2 0.7-0.4 0.4-0.2 0.8-0.2 0.4 0 0.8 0.2 0.4 0.2 0.7 0.5 0.3 0.3 0.5 0.7 0.2 0.4 0.2 0.8 0 0.4-0.2 0.8-0.2 0.4-0.5 0.7zm-0.2-0.2q0.2-0.3 0.4-0.6 0.1-0.3 0.1-0.7 0-0.4-0.1-0.7-0.2-0.3-0.4-0.6-0.3-0.2-0.6-0.4-0.3-0.1-0.7-0.1-0.4 0-0.7 0.1-0.4 0.2-0.6 0.4-0.3 0.3-0.4 0.6-0.1 0.3-0.1 0.7 0 0.4 0.1 0.7 0.2 0.3 0.4 0.6 0.3 0.2 0.6 0.4 0.3 0.1 0.7 0.1 0.4 0 0.7-0.1 0.3-0.2 0.6-0.4zm-1.3 0.4q-0.4 0-0.7-0.1-0.3-0.2-0.5-0.4-0.3-0.2-0.4-0.5-0.1-0.4-0.1-0.7 0-0.3 0.1-0.7 0.1-0.3 0.4-0.5 0.2-0.2 0.5-0.4 0.3-0.1 0.7-0.1 0.3 0 0.7 0.1 0.3 0.2 0.5 0.4 0.2 0.2 0.4 0.5 0.1 0.4 0.1 0.7 0 0.4-0.1 0.7-0.2 0.3-0.4 0.5-0.2 0.2-0.5 0.4-0.4 0.1-0.7 0.1zm0-0.3q0.3 0 0.5-0.2 0.3-0.1 0.5-0.3 0.1-0.1 0.3-0.4 0.1-0.2 0.1-0.5 0-0.3-0.1-0.5-0.2-0.3-0.3-0.5-0.2-0.2-0.5-0.3-0.2-0.1-0.5-0.1-0.3 0-0.5 0.1-0.3 0.1-0.5 0.3-0.2 0.2-0.3 0.5-0.1 0.2-0.1 0.5 0 0.3 0.1 0.5 0.1 0.3 0.3 0.4 0.2 0.2 0.5 0.3 0.2 0.2 0.5 0.2z"/>
			</g>
		</g>
	</g>
	<g id="Layer">
		<g id="Layer">
			<g id="Layer">
				<path id="Layer" fill-rule="evenodd" class="s12" d="m107.8 222.9q-0.5 0.3-1 0.3-0.4 0-0.7-0.2-0.4-0.1-0.6-0.4-0.3-0.2-0.4-0.5-0.2-0.4-0.2-0.7v-2.5h0.4v2.5q0 0.3 0.1 0.5 0.1 0.3 0.3 0.5 0.2 0.2 0.5 0.3 0.2 0.1 0.6 0.1 0.4 0 0.8-0.2 0.4-0.3 0.5-0.7v1.2h-0.3zm-2.4-4h0.3v2.5q0 0.2 0.1 0.4 0.1 0.2 0.2 0.3 0.2 0.1 0.4 0.2 0.1 0.1 0.4 0.1 0.2 0 0.3-0.1 0.2-0.1 0.4-0.2 0.1-0.1 0.2-0.3 0.1-0.2 0.1-0.4v-2.5h0.3v2.5q0 0.3-0.1 0.5-0.1 0.3-0.3 0.4-0.2 0.2-0.4 0.3-0.3 0.1-0.5 0.1-0.3 0-0.6-0.1-0.2-0.1-0.4-0.3-0.2-0.1-0.3-0.4-0.1-0.2-0.1-0.5zm2.8 0h0.4v4.2h-0.4z"/>
			</g>
		</g>
	</g>
	<g id="Layer">
		<g id="Layer">
			<g id="Layer">
				<path id="Layer" class="s12" d="m110.3 219.1q0.2-0.1 0.5-0.2 0.2-0.1 0.5-0.1v0.4q-0.5 0-0.8 0.2-0.4 0.3-0.6 0.7v-1.2h0.4zm1 0.5q-0.2 0-0.4 0.1-0.2 0.1-0.3 0.2-0.2 0.1-0.2 0.3-0.1 0.2-0.1 0.4v2.5h-0.4v-2.5q0-0.3 0.1-0.5 0.2-0.3 0.3-0.5 0.2-0.1 0.5-0.2 0.2-0.2 0.5-0.2zm-1.5 3.5h-0.3v-4.2h0.3z"/>
			</g>
		</g>
	</g>
	<g id="Layer">
		<g id="Layer">
			<g id="Layer">
			</g>
		</g>
	</g>
	<g id="Layer">
		<g id="Layer">
			<g id="Layer">
				<path id="Layer" class="s12" d="m115.3 219.1q0.3-0.1 0.5-0.2 0.3-0.1 0.6-0.1v0.4q-0.5 0-0.9 0.2-0.3 0.3-0.5 0.7v-1.2h0.3zm1.1 0.5q-0.3 0-0.4 0.1-0.2 0.1-0.4 0.2-0.1 0.1-0.2 0.3-0.1 0.2-0.1 0.4v2.5h-0.3v-2.5q0-0.3 0.1-0.5 0.1-0.3 0.3-0.5 0.2-0.1 0.4-0.2 0.3-0.2 0.6-0.2zm-1.5 3.5h-0.4v-4.2h0.4z"/>
			</g>
		</g>
	</g>
	<g id="Layer">
		<g id="Layer">
			<g id="Layer">
				<path id="Layer" fill-rule="evenodd" class="s12" d="m118.1 221.4q0.1 0.4 0.5 0.7 0.3 0.3 0.8 0.3 0.3 0 0.6-0.2 0.3-0.2 0.5-0.4l0.3 0.2q-0.2 0.3-0.6 0.5-0.4 0.2-0.8 0.2-0.4 0-0.7-0.1-0.3-0.2-0.5-0.4-0.2-0.2-0.4-0.5-0.1-0.3-0.1-0.6h3.5v-0.1q0-0.4-0.1-0.7-0.2-0.3-0.4-0.6-0.3-0.2-0.6-0.4-0.3-0.1-0.7-0.1-0.4 0-0.7 0.1-0.4 0.2-0.6 0.4-0.3 0.3-0.4 0.6-0.1 0.3-0.1 0.7 0 0.4 0.1 0.7 0.2 0.3 0.4 0.6 0.3 0.2 0.6 0.4 0.3 0.1 0.7 0.1 0.5 0 0.9-0.2 0.4-0.2 0.6-0.6l0.3 0.2q-0.3 0.5-0.8 0.7-0.5 0.3-1 0.3-0.5 0-0.8-0.2-0.4-0.2-0.7-0.5-0.3-0.3-0.5-0.7-0.2-0.4-0.2-0.8 0-0.4 0.2-0.8 0.1-0.4 0.4-0.8h0.1q0.3-0.2 0.7-0.4 0.3-0.2 0.8-0.2 0.4 0 0.8 0.2 0.4 0.2 0.7 0.5 0.3 0.3 0.5 0.7 0.2 0.4 0.2 0.8v0.4zm-0.4-0.5q0-0.3 0.1-0.6 0.2-0.3 0.4-0.5 0.2-0.3 0.5-0.4 0.3-0.1 0.7-0.1 0.3 0 0.6 0.1 0.3 0.1 0.6 0.4 0.2 0.2 0.3 0.5 0.2 0.3 0.2 0.6zm3-0.3q-0.1-0.4-0.5-0.7-0.4-0.3-0.8-0.3-0.6 0-1 0.4-0.2 0.3-0.3 0.6z"/>
			</g>
		</g>
	</g>
	<g id="Layer">
		<g id="Layer">
			<g id="Layer">
				<path id="Layer" fill-rule="evenodd" class="s12" d="m124.4 223.1h-0.6l-1.5-4.2h0.4l0.3 1 1.1 2.8h0.1l1.1-3.3 1.2 3.3h0.1l1.1-2.9 0.3-0.9h0.4l-1.5 4.2h-0.6l-1-2.7zm-1.2-4.2l1 2.6 0.9-2.6h0.6l0.9 2.6 1-2.6h0.3l-0.3 0.9-1 2.8-1.2-3.3-1.2 3.3-1-2.7-0.3-1z"/>
			</g>
		</g>
	</g>
	<g id="Layer">
		<g id="Layer">
			<g id="Layer">
				<path id="Layer" fill-rule="evenodd" class="s12" d="m132.7 222.7q-0.6 0.5-1.3 0.5-0.5 0-0.9-0.2-0.4-0.2-0.7-0.5-0.3-0.3-0.4-0.7-0.2-0.4-0.2-0.8 0-0.5 0.2-0.9 0.1-0.4 0.4-0.7 0.3-0.2 0.7-0.4 0.4-0.2 0.9-0.2 0.7 0 1.3 0.5v-0.4h0.4v1.5q-0.2-0.4-0.4-0.7-0.3-0.2-0.6-0.4-0.4-0.1-0.7-0.1-0.4 0-0.8 0.1-0.3 0.2-0.5 0.4-0.3 0.3-0.4 0.6-0.2 0.3-0.2 0.7 0 0.4 0.2 0.7 0.1 0.3 0.4 0.6 0.2 0.2 0.6 0.4 0.3 0.1 0.7 0.1 0.3 0 0.7-0.1 0.3-0.2 0.6-0.4 0.2-0.3 0.4-0.7v1.5h-0.4zm-2.5-0.5q-0.3-0.2-0.4-0.5-0.2-0.3-0.2-0.7 0-0.3 0.2-0.7 0.1-0.3 0.3-0.5 0.3-0.2 0.6-0.4 0.3-0.1 0.7-0.1 0.3 0 0.6 0.1 0.3 0.2 0.6 0.4 0.2 0.2 0.3 0.5 0.2 0.4 0.2 0.7 0 0.3-0.2 0.7-0.1 0.3-0.3 0.5-0.3 0.2-0.6 0.4-0.3 0.1-0.6 0.1-0.4 0-0.7-0.1-0.3-0.2-0.5-0.4zm3-3.3h0.3v4.2h-0.3zm-2.8 3.1q0.4 0.4 1 0.4 0.2 0 0.5-0.1 0.2-0.2 0.4-0.3 0.2-0.2 0.3-0.5 0.1-0.2 0.1-0.5 0-0.3-0.1-0.5-0.1-0.3-0.3-0.5-0.2-0.2-0.4-0.3-0.3-0.1-0.5-0.1-0.3 0-0.6 0.1-0.2 0.1-0.4 0.3-0.2 0.2-0.3 0.5-0.1 0.2-0.1 0.5 0 0.3 0.1 0.5 0.1 0.3 0.3 0.5z"/>
			</g>
		</g>
	</g>
	<g id="Layer">
		<g id="Layer">
			<g id="Layer">
				<path id="Layer" class="s12" d="m135.3 219.1q0.2-0.1 0.4-0.2 0.3-0.1 0.6-0.1v0.4q-0.5 0-0.8 0.2-0.4 0.3-0.6 0.7v-1.2h0.4zm1 0.5q-0.2 0-0.4 0.1-0.2 0.1-0.3 0.2-0.2 0.1-0.3 0.3 0 0.2 0 0.4v2.5h-0.4v-2.5q0-0.3 0.1-0.5 0.1-0.3 0.3-0.5 0.2-0.1 0.4-0.2 0.3-0.2 0.6-0.2zm-1.5 3.5h-0.3v-4.2h0.3z"/>
			</g>
		</g>
	</g>
	<g id="Layer">
		<g id="Layer">
			<g id="Layer">
				<path id="Layer" fill-rule="evenodd" class="s12" d="m140.7 222.7q-0.6 0.5-1.4 0.5-0.4 0-0.8-0.2-0.4-0.2-0.7-0.5-0.3-0.3-0.5-0.7-0.2-0.4-0.2-0.8 0-0.5 0.2-0.8 0.2-0.4 0.5-0.7 0.3-0.3 0.7-0.5 0.4-0.2 0.8-0.2 0.8 0 1.4 0.5v-2.3h0.3v3.4q-0.1-0.3-0.2-0.5-0.2-0.2-0.4-0.4-0.3-0.2-0.5-0.3-0.3 0-0.6 0-0.4 0-0.7 0.1-0.3 0.2-0.6 0.4-0.2 0.3-0.4 0.6-0.1 0.3-0.1 0.7 0 0.4 0.1 0.7 0.2 0.3 0.4 0.6 0.3 0.2 0.6 0.4 0.3 0.1 0.7 0.1 0.6 0 1.1-0.3 0.4-0.3 0.6-0.9v1.5h-0.3zm-1.4 0q-0.3 0-0.7-0.1-0.3-0.2-0.5-0.4-0.2-0.2-0.4-0.5-0.1-0.3-0.1-0.7 0-0.3 0.1-0.7 0.1-0.3 0.4-0.5 0.2-0.2 0.5-0.4 0.3-0.1 0.7-0.1 0.4 0 0.7 0.1 0.3 0.2 0.5 0.4 0.3 0.2 0.4 0.5 0.1 0.4 0.1 0.7 0 0.4-0.1 0.7-0.1 0.3-0.4 0.5-0.2 0.2-0.5 0.4-0.3 0.1-0.7 0.1zm1.8-1.7v-4h0.4v6.1h-0.4zm-1.8 1.4q0.3 0 0.5-0.2 0.3-0.1 0.5-0.2 0.1-0.2 0.3-0.5 0.1-0.2 0.1-0.5 0-0.3-0.1-0.6-0.2-0.2-0.3-0.4-0.2-0.2-0.5-0.3-0.2-0.1-0.5-0.1-0.3 0-0.5 0.1-0.3 0.1-0.5 0.3-0.2 0.2-0.3 0.5-0.1 0.2-0.1 0.5 0 0.3 0.1 0.5 0.1 0.3 0.3 0.5 0.2 0.1 0.5 0.2 0.2 0.2 0.5 0.2z"/>
			</g>
		</g>
	</g>
	<g id="Layer">
		<g id="Layer">
			<g id="Layer">
				<path id="Layer" class="s12" d="m143.9 219.7q-0.2-0.1-0.3-0.1-0.1 0-0.2 0.1-0.1 0.1-0.1 0.2 0 0.2 0 0.2 0.1 0.1 0.2 0.2 0 0 0.1 0.1 0.1 0 0.2 0 0.3 0.1 0.5 0.3 0.2 0.1 0.3 0.2 0.2 0.2 0.2 0.4 0.1 0.2 0.1 0.5 0 0.3-0.1 0.5-0.1 0.3-0.3 0.5-0.2 0.2-0.4 0.3-0.3 0.1-0.6 0.1-0.3 0-0.7-0.2-0.3-0.2-0.5-0.6l0.7-0.3q0.2 0.3 0.5 0.3 0.3 0 0.5-0.2 0.1-0.2 0.1-0.4 0-0.2 0-0.3-0.1-0.1-0.2-0.1-0.1-0.1-0.2-0.1-0.1-0.1-0.2-0.1-0.2-0.1-0.4-0.2-0.2-0.1-0.3-0.3-0.2-0.1-0.3-0.3 0-0.2 0-0.5 0-0.2 0-0.4 0.1-0.2 0.3-0.3 0.2-0.2 0.4-0.3 0.2-0.1 0.4-0.1 0.3 0 0.5 0.1 0.2 0.1 0.4 0.3l-0.3 0.2q-0.1-0.1-0.2-0.2-0.2 0-0.4 0-0.2 0-0.3 0-0.1 0.1-0.3 0.2 0 0.1-0.1 0.3-0.1 0.1-0.1 0.2 0 0.3 0.2 0.5 0.1 0.1 0.3 0.3 0.1 0.1 0.4 0.2 0.2 0 0.4 0.2 0.1 0.1 0.3 0.2 0.1 0.2 0.1 0.5 0 0.4-0.3 0.6-0.2 0.3-0.6 0.3-0.3 0-0.5-0.1-0.2-0.2-0.3-0.4l-0.1 0.1q0.1 0.2 0.3 0.4 0.3 0.1 0.6 0.1 0.2 0 0.4-0.1 0.2 0 0.3-0.2 0.2-0.1 0.2-0.3 0.1-0.2 0.1-0.4 0-0.3-0.1-0.5-0.1-0.2-0.3-0.3-0.2-0.1-0.4-0.2-0.2-0.1-0.4-0.2-0.2-0.1-0.3-0.2-0.1-0.2-0.1-0.5 0-0.2 0.1-0.4 0.2-0.2 0.5-0.2 0.3 0 0.5 0.2z"/>
			</g>
		</g>
	</g>
</svg>