<svg version="1.2" xmlns="http://www.w3.org/2000/svg" viewBox="0 0 150 249" width="150" height="249">
	<title>7-svg</title>
	<defs>
		<clipPath clipPathUnits="userSpaceOnUse" id="cp1">
			<path d="m0.5 0.43h150v248.75h-150z"/>
		</clipPath>
		<clipPath clipPathUnits="userSpaceOnUse" id="cp2">
			<path d="m0.5 0.43h150v249h-150z"/>
		</clipPath>
		<clipPath clipPathUnits="userSpaceOnUse" id="cp3">
			<path d="m5.29 5.37h140.42v43.47h-140.42z"/>
		</clipPath>
		<clipPath clipPathUnits="userSpaceOnUse" id="cp4">
			<path d="m5.3 5.37h140.23v43.5h-140.23z"/>
		</clipPath>
		<clipPath clipPathUnits="userSpaceOnUse" id="cp5">
			<path d="m37 116h68v80.45h-68z"/>
		</clipPath>
		<clipPath clipPathUnits="userSpaceOnUse" id="cp6">
			<path d="m120 130h5.79v21h-5.79z"/>
		</clipPath>
	</defs>
	<style>
		.s0 { fill: #ffffff } 
		.s1 { fill: #cfe7d7 } 
		.s2 { fill: none;stroke: #000000;stroke-width: 6 } 
		.s3 { fill: #86c658 } 
		.s4 { fill: none;stroke: #000000;stroke-width: 1.5 } 
		.s5 { fill: #000000 } 
		.s6 { fill: #231f20 } 
	</style>
	<path id="Layer" class="s0" d="m-149.5-90.5h450v450h-450z"/>
	<path id="Layer" class="s0" d="m-149.5-90.5h450v450h-450z"/>
	<g id="Clip-Path" clip-path="url(#cp1)">
		<g id="Layer">
			<path id="Layer" class="s1" d="m0.5 0.4h150v248.8h-150z"/>
		</g>
	</g>
	<g id="Clip-Path" clip-path="url(#cp2)">
		<g id="Layer">
			<path id="Layer" fill-rule="evenodd" class="s2" d="m0.5 0.4h150v249h-150z"/>
		</g>
	</g>
	<g id="Clip-Path" clip-path="url(#cp3)">
		<g id="Layer">
			<path id="Layer" class="s3" d="m5.3 5.4h140.4v43.4h-140.4z"/>
		</g>
	</g>
	<g id="Clip-Path" clip-path="url(#cp4)">
		<g id="Layer">
			<path id="Layer" fill-rule="evenodd" class="s4" d="m5.3 5.4h140.2v43.5h-140.2z"/>
		</g>
	</g>
	<g id="Clip-Path" clip-path="url(#cp5)">
		<g id="Layer">
			<path id="Layer" class="s5" d="m49.3 121.1c0 0-9.1 0.9-11.3 2.9-2.2 2 8.8 68.9 9.3 70.7 0.5 1.7 4.1 1.5 6 1.4 2-0.1 48.1-8.1 49.5-8.8 1.4-0.7 1.5-2.5 1.5-3.6 0.1-1.2-9.7-65.8-10.4-66.4-0.7-0.7-3.2-1.3-5.2-0.9-2.1 0.3-11 1.3-11 1.3z"/>
		</g>
	</g>
	<path id="Layer" class="s0" d="m52.1 125.7c0 0-7.9 0.7-9.8 2.5-1.9 1.7 7.6 60 8.1 61.5 0.4 1.5 3.5 1.3 5.2 1.2 1.7 0 41.9-7.1 43.1-7.6 1.2-0.6 1.3-2.2 1.3-3.2 0-1-8.4-57.2-9.1-57.8-0.6-0.6-2.8-1.1-4.5-0.8-1.8 0.4-9.6 1.2-9.6 1.2z"/>
	<path id="Layer" class="s5" d="m56.6 115c0 0-5.3 1.2-6.7 1.8-1.3 0.6-0.6 2.6-0.6 4.3 0 1.8 0.2 2.2 2.1 2.2 2 0 27.8-3.7 28.7-4.4 0.9-0.6 0.8-6.4-0.8-6.7-1.5-0.2-22.7 2.8-22.7 2.8z"/>
	<path id="Layer" fill-rule="evenodd" class="s5" d="m68.6 113.8c-1 0.2-8.9 1.1-8.9 1.1 0 0-2.3-3.1 0.3-4.7 2.7-1.7 8.3-2.3 9.1-1.1 0.8 1.1 0.6 4.5-0.5 4.7zm-2.4-2.7q-0.1-0.2-0.1-0.4 0 0 0-0.1-0.2-0.2-0.3-0.4 0 0 0 0-0.2-0.2-0.4-0.4 0 0 0 0l-0.4-0.3q-0.4-0.1-0.7-0.1-0.3-0.1-0.5 0-0.4 0.1-0.7 0.3l-0.3 0.4q-0.1 0-0.1 0.1 0 0-0.1 0.1-0.2 0.3-0.3 0.6-0.1 0.4 0 0.8l0.1 0.5q0.2 0.4 0.6 0.7l0.4 0.3q0.1 0 0.3 0 0.4 0.2 0.8 0.1 0.5-0.1 0.9-0.4 0.1 0 0.2-0.1 0.1-0.1 0.2-0.2 0 0 0-0.1 0.2-0.2 0.3-0.6 0.2-0.4 0.1-0.8z"/>
	<path id="Layer" class="s3" d="m51 137.9c0 0-3.3 0.6-3.6 3.2-0.4 2.6 1.6 4.7 5 3.9 3.4-0.9 6.3-8.4-1.4-7.1z"/>
	<path id="Layer" class="s3" d="m52.8 149.1c0 0-3.3 0.6-3.6 3.2-0.4 2.6 1.6 4.7 5 3.8 3.4-0.8 6.3-8.4-1.4-7z"/>
	<path id="Layer" class="s3" d="m54.6 160.3c0 0-3.3 0.6-3.6 3.2-0.4 2.6 1.6 4.7 5 3.8 3.4-0.8 6.3-8.4-1.4-7z"/>
	<path id="Layer" class="s3" d="m56.4 171.5c0 0-3.3 0.6-3.6 3.2-0.4 2.6 1.6 4.6 5 3.8 3.4-0.8 6.3-8.4-1.4-7z"/>
	<path id="Layer" class="s5" d="m57 132.5q-0.3-0.1-0.6 0.1-0.1 0.1-0.2 0.2 0 0.1-0.1 0.2-0.1 0.1-0.2 0.2-0.1 0.3-0.3 0.5-0.3 0.5-0.6 1-0.7 1.1-1.4 2.1-1.2 1.7-2.5 3.3-0.5-0.4-1-0.8-0.4-0.5-0.9-0.8c-0.2-0.2-0.5-0.4-0.7-0.6q-0.1-0.1-0.3 0-0.2 0.1-0.1 0.3c0.2 0.3 0.3 0.6 0.4 0.9q0.4 0.6 0.9 1.2 0.3 0.4 0.7 0.8 0.1 0.2 0.3 0.4c0.2 0.2 0.5 0.2 0.8 0.3q0.4 0.1 0.7-0.2 1.6-1.9 3-4 0.7-0.9 1.3-1.9 0.7-1 1.3-2.1 0.1-0.2 0.1-0.4 0-0.1-0.1-0.3 0-0.2-0.2-0.3-0.1-0.1-0.3-0.1z"/>
	<path id="Layer" class="s5" d="m58.2 144.3c-0.5-0.2-0.8 0.1-1 0.4q-0.7 1.4-1.5 2.7-0.6 1-1.2 2-0.2 0.2-0.4 0.5-0.1 0.1-0.1 0.2-0.2-0.2-0.3-0.4-0.3-0.4-0.6-0.7-0.8-0.9-1.6-1.6c-0.2-0.3-0.7 0.1-0.5 0.5q0.9 1.7 2 3.2c0.2 0.3 0.3 0.5 0.7 0.6 0.3 0.2 0.6 0.2 1-0.1 0.3-0.3 0.6-0.8 0.8-1.1q1.8-2.5 3.1-5.2c0.2-0.4-0.1-0.9-0.4-1z"/>
	<path id="Layer" class="s5" d="m61.5 154.9q-0.3-0.1-0.6 0-0.3 0.1-0.4 0.4-1.5 2.3-3.2 4.4-0.6 0.8-1.3 1.5-0.4 0.4-0.8 0.8c-0.1 0.1-0.2 0.2-0.3 0.4-0.2-0.3-0.4-0.7-0.7-0.9q-0.5-0.8-1-1.6c-0.4-0.6-1.4-0.2-1.1 0.5q0.5 1 1.1 1.9 0.3 0.5 0.6 0.9c0.2 0.3 0.4 0.6 0.8 0.8 0.7 0.2 1.2-0.5 1.6-0.9q0.6-0.6 1.2-1.3 2.5-2.7 4.4-5.8c0.2-0.4 0-0.9-0.3-1.1z"/>
	<path id="Layer" class="s5" d="m62 167.4q-0.3-0.1-0.6 0-0.3 0.1-0.4 0.3-1 2.6-2.6 4.9-0.2 0.3-0.4 0.6-0.1 0.1-0.2 0.3-0.1-0.1-0.1-0.1-0.2-0.2-0.4-0.4-0.4-0.4-0.7-0.9c-0.2-0.3-0.4-0.8-0.7-1.1q-0.2-0.3-0.6-0.2-0.3 0.1-0.4 0.3-0.1 0.2-0.1 0.5 0.1 0 0.1 0.1 0 0.1 0.1 0.2 0.1 0.1 0.1 0.1 0 0.2 0.1 0.3 0.2 0.3 0.3 0.6 0.1 0.1 0.1 0.1l1.4 1.7q0.2 0.1 0.3 0.2 0.4 0.2 0.8 0.2c0.5-0.2 0.8-0.6 1-1q0.4-0.5 0.8-1 1.5-2.2 2.4-4.7 0.2-0.3 0.1-0.6-0.2-0.3-0.4-0.4z"/>
	<path id="Layer" class="s5" d="m93 168.8c-1.8-0.1-3.6 0.3-5.3 0.6q-2.4 0.4-4.8 0.8-5.2 1-10.4 1.9-1.3 0.3-2.7 0.5c-1.1 0.3-2.3 0.4-3.4 0.8q-0.2 0.1-0.2 0.3c-1 0.2-0.8 1.7 0.2 1.6 3.8-0.4 7.5-1.2 11.2-2 1.8-0.4 3.7-0.8 5.6-1.1 1.6-0.3 3.3-0.5 5-0.7 1.8-0.2 3.5-0.6 5.1-1.5 0.5-0.3 0.2-1.1-0.3-1.2z"/>
	<path id="Layer" class="s5" d="m87 156.7q-0.4 0-0.9 0.1-0.5 0.1-1.1 0.2-4.3 0.9-8.6 1.8c-3.3 0.7-6.6 1.4-9.9 2.2q-0.3 0-0.4 0.3-0.2 0.3-0.1 0.6 0 0.3 0.3 0.5 0.2 0.2 0.5 0.1c5.8-1.1 11.6-2.3 17.5-2.6 1.3-0.1 2.8-0.1 3.5-1.4 0.3-0.8 0.1-1.7-0.8-1.8z"/>
	<path id="Layer" class="s5" d="m87.5 146.8c-1.4-0.7-3-0.2-4.5 0.1q-2.3 0.5-4.7 1-4.1 0.8-8.2 1.8h-0.1q-1.2 0.1-2.3 0.3-1.5 0.1-2.9 0.3c-0.8 0.1-1.6 0.3-2.2 0.9q-0.2 0.1-0.2 0.3 0 0-0.1 0c-0.3 0.2-0.3 0.8 0.1 0.7q0.1 0 0.2 0 0.3 0.3 0.7 0.2 3.7-0.7 7.3-1.3 1.2-0.2 2.3-0.3 5.2-0.7 10.3-1.4c0.9-0.1 1.8-0.2 2.6-0.3 0.8-0.2 1.6-0.5 1.9-1.3q0.2-0.2 0.1-0.5-0.1-0.3-0.3-0.5z"/>
	<path id="Layer" fill-rule="evenodd" class="s5" d="m84.7 135.8q0.1 0.2 0.2 0.5 0.1 0.3 0 0.6 0 0.3-0.2 0.5c-0.4 0.7-1.1 0.9-1.9 1q-1.2 0.2-2.5 0.3-4.8 0.7-9.7 1.3-2.6 0.4-5.2 0.7-1.2 0.2-2.4 0.3c-0.7 0.1-1.5 0.1-2.1-0.3q-0.3-0.2-0.4-0.5-0.2-0.1-0.2-0.3 0-0.3 0.2-0.3 0.1-0.1 0.2-0.1 0 0 0.1-0.1c0.7-0.5 1.6-0.6 2.4-0.8q1.2-0.3 2.3-0.5 4.3-0.9 8.6-1.6 2.1-0.4 4.2-0.7 0.1 0 0.1 0 1.9-0.3 3.8-0.6c0.7-0.1 1.4-0.1 2 0.2q0.3 0.2 0.5 0.4zm-1.2 0.9q0 0 0 0-0.1-0.1-0.1-0.1-0.1 0-0.2 0 0 0.1 0 0.2-0.1 0.1-0.1 0.1 0.2 0 0.3-0.1 0.1-0.1 0.1-0.1z"/>
	<path id="Layer" class="s5" d="m119.4 127.5c0 0-1.5-0.5-2.6 1.5-1.2 2.1-0.1 2.2 0.6 2.6 0.7 0.5 5.3 1.3 5.8 1 0.5-0.3 0.7-2.5 0-3.2-0.8-0.7-3.8-1.9-3.8-1.9z"/>
	<path id="Layer" class="s5" d="m116.8 131.3q-0.6 0.1-1.1 0.5-0.5 0.3-0.7 0.9c-0.6 1.2-8.6 26.5-9.1 29.3-0.5 2.8 1.5 3.5 2.6 3.8 1.1 0.3 3.1-0.8 3.4-1.1 0.3-0.3 10.5-29.3 10.9-30.7 0.4-1.4-4.4-2.9-6-2.7z"/>
	<path id="Layer" class="s5" d="m106 163.8c0 0-0.2 2.1 0.1 3.6 0.4 1.4 2.2 1.5 2.5 1.3 0.4-0.1 3.3-4 3.3-4z"/>
	<path id="Layer" class="s5" d="m107.4 167.6q-0.6 1-0.7 2c-0.2 1.2-0.7 3.4-0.5 3.4 0.2 0.1 1-0.5 1.2-1.8 0.2-1.3 1.3-4.5 0-3.6z"/>
	<g id="Clip-Path" clip-path="url(#cp6)">
		<g id="Layer">
			<path id="Layer" class="s5" d="m122.8 130.6c0 0 2.5 1.2 2.7 2.1 0.3 0.9-1.8 9.6-2.4 11.9-0.5 2.3-1.1 6.2-1.9 6-0.9-0.1-0.7-1.9-0.4-2.6 0.4-0.7 3.5-14 3.3-14.7-0.2-0.7-2.3-1.3-1.3-2.7z"/>
		</g>
	</g>
	<path id="Layer" class="s5" d="m119.4 127.5c0 0 0-1.3 1.2-1.6 1.1-0.2 2.1 0.1 2.2 0.4 0.2 0.3 0.2 2.4 0 2.8-0.1 0.5-3.4-1.6-3.4-1.6z"/>
	<g id="Layer">
		<g id="Layer">
			<g id="Layer">
				<path id="Layer" fill-rule="evenodd" class="s6" d="m50 37.6h-10v-21.1h10v1.2h-8.9v18.7h8.9zm-1.8-7.8h-5.5v5h7.3v1.2h-8.5v-7.4h6.7zm-5.5-2.8h5.5v1.2h-6.7v-10.1h8.5v1.2h-7.3z"/>
			</g>
		</g>
	</g>
	<g id="Layer">
		<g id="Layer">
			<g id="Layer">
				<path id="Layer" fill-rule="evenodd" class="s6" d="m65.5 23.1l-5.2 14.5h-1.9l-5.2-14.5h1.3l0.9 2.5 3.8 10.7h0.3l3.6-10 1.1-3.2zm-2.9 0h1.3l-1.1 3.1-3.4 9.4-3.6-10.1-0.8-2.4h1.2l3.2 9z"/>
			</g>
		</g>
	</g>
	<g id="Layer">
		<g id="Layer">
			<g id="Layer">
				<path id="Layer" fill-rule="evenodd" class="s6" d="m71.3 31.8q0.4 1.4 1.7 2.4 1.2 0.9 2.7 0.9 1.3 0 2.3-0.6 1-0.5 1.7-1.5l0.9 0.7q-0.8 1.2-2 1.9-1.3 0.7-2.9 0.7-1.2 0-2.2-0.5-1.1-0.4-1.9-1.2-0.7-0.8-1.2-1.8-0.5-1.1-0.6-2.2h12.3v-0.2q0-1.3-0.5-2.5-0.5-1.1-1.4-2-0.8-0.9-2-1.3-1.2-0.5-2.5-0.5-1.3 0-2.4 0.5-1.1 0.4-2 1.3-0.9 0.9-1.4 2-0.4 1.2-0.4 2.5 0 1.3 0.5 2.5 0.5 1.1 1.3 2 0.9 0.8 2 1.3 1.2 0.5 2.4 0.5 1.7 0 3.1-0.8 1.4-0.8 2.2-2l1 0.7q-1.1 1.5-2.7 2.4-1.7 0.9-3.6 0.9-1.5 0-2.8-0.6-1.4-0.6-2.4-1.6-1-1.1-1.6-2.4-0.6-1.4-0.6-2.9 0-1.5 0.5-2.9 0.6-1.4 1.6-2.4h0.1q1-1.1 2.4-1.6 1.4-0.6 2.8-0.6 1.6 0 2.9 0.6 1.4 0.6 2.4 1.6 1.1 1 1.7 2.4 0.6 1.4 0.6 2.9v1.4zm-1.5-1.6q0.1-1.2 0.6-2.2 0.5-1.1 1.2-1.8 0.8-0.8 1.9-1.3 1-0.4 2.2-0.4 1.3 0 2.3 0.4 1.1 0.5 1.9 1.3 0.8 0.7 1.2 1.8 0.5 1 0.5 2.2zm10.5-1.2q-0.5-1.5-1.8-2.4-1.2-0.9-2.8-0.9-1.9 0-3.3 1.3-0.8 0.9-1.2 2z"/>
			</g>
		</g>
	</g>
	<g id="Layer">
		<g id="Layer">
			<g id="Layer">
				<path id="Layer" fill-rule="evenodd" class="s6" d="m88.6 23.9q0.8-0.5 1.7-0.7 0.9-0.3 1.9-0.3 1.2 0 2.4 0.5 1.1 0.5 2 1.3 0.8 0.9 1.3 2 0.5 1.2 0.5 2.4v8.5h-1.2v-8.5q0-1-0.4-1.9-0.4-0.9-1.1-1.6-0.7-0.7-1.6-1.1-0.9-0.4-1.9-0.4-1.7 0-2.9 0.8-1.2 0.9-1.8 2.2v-4h1.1zm8.2 13.7h-1.2v-8.5q0-0.7-0.3-1.3-0.2-0.6-0.7-1.1-0.5-0.5-1.1-0.8-0.6-0.2-1.3-0.2-0.8 0-1.4 0.2-0.6 0.3-1.1 0.8-0.5 0.5-0.8 1.1-0.3 0.6-0.3 1.3v8.5h-1.1v-8.5q0-0.9 0.3-1.8 0.4-0.8 1-1.4 0.7-0.7 1.5-1 0.9-0.4 1.9-0.4 0.9 0 1.8 0.4 0.8 0.3 1.5 1 0.6 0.6 1 1.4 0.3 0.9 0.3 1.8zm-9.7 0h-1.2v-14.4h1.2z"/>
			</g>
		</g>
	</g>
	<g id="Layer">
		<g id="Layer">
			<g id="Layer">
				<path id="Layer" fill-rule="evenodd" class="s6" d="m101.6 16.5h1.2v7.8h-2.6v-1.2h1.4zm1.2 8.3v7.3q0 0.9 0.3 1.7 0.4 0.9 1 1.5 0.6 0.6 1.4 1 0.8 0.4 1.8 0.4h0.2v1.2q-1.2 0-2.2-0.4-1.1-0.5-1.9-1.3-0.9-0.9-1.3-1.9-0.5-1.1-0.5-2.3v-6h-1.4v-1.2zm4.5 11.5q-0.9 0-1.6-0.4-0.8-0.3-1.3-0.9-0.6-0.5-0.9-1.3-0.3-0.8-0.3-1.6v-7.3h3.6v1.2h-2.4v6q0 1.3 0.9 2.2 0.9 0.9 2.2 0.9v1.2zm-4.1-11.9v-7.9h1.2v6.7h2.4v1.2z"/>
			</g>
		</g>
	</g>
	<g id="Layer">
		<g id="Layer">
			<g id="Layer">
				<path id="Layer" fill-rule="evenodd" class="s5" d="m32.1 83.3q-0.6 1-1.4 1.8-0.9 0.9-1.9 1.5-1 0.6-2.2 0.9-1.1 0.3-2.4 0.3-1.8 0-3.4-0.7-1.7-0.7-2.9-1.9-1.2-1.3-2-2.9-0.7-1.6-0.7-3.5 0-1.8 0.7-3.5 0.7-1.6 2-2.9 1.2-1.2 2.8-1.9 1.7-0.7 3.5-0.7 2.4 0 4.4 1.1 2 1.1 3.3 3.1l-0.8 0.5q-1.2-1.8-3-2.8-1.8-1-3.9-1-1.6 0-3.1 0.7-1.5 0.6-2.5 1.7-1.1 1.1-1.8 2.6-0.6 1.4-0.6 3.1 0 1.6 0.6 3.1 0.7 1.5 1.8 2.6 1.1 1.1 2.5 1.7 1.5 0.7 3.1 0.6 1.1 0.1 2.1-0.2 1.1-0.3 2-0.8 0.9-0.5 1.6-1.3 0.8-0.8 1.3-1.7zm-2.1-8.1q-1-1.5-2.5-2.3-1.5-0.8-3.2-0.8-1.4 0-2.6 0.5-1.3 0.5-2.2 1.5-0.9 0.9-1.4 2.1-0.5 1.2-0.5 2.6-0.1 1.4 0.5 2.6 0.5 1.2 1.4 2.2 1 0.9 2.2 1.4 1.2 0.5 2.6 0.5 1.8 0 3.4-0.9 1.6-0.9 2.4-2.5l0.9 0.5q-0.5 0.9-1.2 1.6-0.8 0.8-1.7 1.3-0.8 0.5-1.8 0.7-1 0.3-2 0.3-1.6 0-3-0.6-1.4-0.6-2.5-1.7-1-1-1.6-2.4-0.6-1.4-0.6-3 0-1.6 0.6-3 0.6-1.4 1.6-2.5 1.1-1 2.5-1.6 1.4-0.6 3-0.6 2 0 3.6 0.9 1.7 0.9 2.9 2.7z"/>
			</g>
		</g>
	</g>
	<g id="Layer">
		<g id="Layer">
			<g id="Layer">
				<path id="Layer" fill-rule="evenodd" class="s5" d="m42.4 87.5h-8.3v-17.4h8.3v0.9h-7.3v15.5h7.3zm-1.5-6.5h-4.5v4.2h6v1h-7v-6.1h5.5zm-4.5-2.4h4.5v1h-5.5v-8.3h7v1h-6z"/>
			</g>
		</g>
	</g>
	<g id="Layer">
		<g id="Layer">
			<g id="Layer">
				<path id="Layer" class="s5" d="m60 87.5h-1.2l-6.1-8.7 3.9-5.6 2.2-3.1h1.2l-1.3 1.8-4.8 6.9zm-2.7 0l-4.7-6.7-4 5.7-0.7 1h-1.2l2-2.9 3.9-5.6 4.2 6 1.6 2.5zm-12.1 0l6.1-8.7-6.1-8.8h1.2l6.1 8.8-6.1 8.7zm2.8-17.5l0.5 0.8 4.2 6 4.6-6.8h1.2l-5.8 8.5-4.6-6.5-1.3-2z"/>
			</g>
		</g>
	</g>
	<g id="Layer">
		<g id="Layer">
			<g id="Layer">
			</g>
		</g>
	</g>
	<g id="Layer">
		<g id="Layer">
			<g id="Layer">
				<path id="Layer" fill-rule="evenodd" class="s5" d="m77.8 87.5h-8.8v-17.4h0.9v16.4h7.9zm0-1.3h-7.5v-16.1h1v15.1h6.5z"/>
			</g>
		</g>
	</g>
	<g id="Layer">
		<g id="Layer">
			<g id="Layer">
				<path id="Layer" fill-rule="evenodd" class="s5" d="m80.4 87.5v-11.9h1v11.9zm1.3-11.9h1v11.9h-1zm-0.2-5.6q0.6 0 1 0.4 0.5 0.4 0.5 1 0 0.6-0.5 1-0.4 0.4-1 0.4-0.5 0-0.9-0.4-0.5-0.4-0.5-1 0-0.6 0.5-1 0.4-0.4 0.9-0.4zm0 0.7q-0.2 0-0.4 0.2-0.2 0.2-0.2 0.5 0 0.2 0.2 0.4 0.2 0.2 0.4 0.2 0.3 0 0.5-0.2 0.2-0.2 0.2-0.4 0-0.3-0.2-0.5-0.2-0.2-0.5-0.2zm0 0.4q0.4 0 0.4 0.3 0 0.3-0.4 0.3-0.2 0-0.2-0.3 0-0.3 0.2-0.3z"/>
			</g>
		</g>
	</g>
	<g id="Layer">
		<g id="Layer">
			<g id="Layer">
				<path id="Layer" class="s5" d="m89.7 78q-0.3-0.4-0.8-0.4-0.4 0-0.7 0.3-0.2 0.3-0.2 0.7 0 0.3 0.1 0.5 0.2 0.2 0.4 0.3 0.3 0.2 0.5 0.3 0.3 0.2 0.5 0.2 0.7 0.3 1.3 0.7 0.6 0.3 1 0.7 0.4 0.4 0.7 1 0.2 0.7 0.2 1.5 0 0.8-0.3 1.5-0.3 0.7-0.8 1.3-0.6 0.5-1.3 0.8-0.7 0.4-1.5 0.4-1.1 0-2-0.6-1-0.6-1.5-1.5l2-1.1h0.1q0.4 0.8 1.4 0.8 0.7 0 1.1-0.4 0.5-0.5 0.5-1.2 0-0.4-0.1-0.7-0.2-0.2-0.5-0.5-0.2-0.2-0.6-0.3-0.3-0.1-0.6-0.3-0.6-0.2-1.1-0.5-0.6-0.3-1-0.7-0.4-0.4-0.6-0.9-0.2-0.6-0.2-1.3 0-0.7 0.2-1.3 0.3-0.5 0.7-1 0.5-0.4 1-0.7 0.6-0.2 1.3-0.3 0.8 0 1.4 0.4 0.7 0.3 1.1 0.9l-0.7 0.5q-0.3-0.3-0.8-0.5-0.4-0.3-0.9-0.3-0.5 0-0.9 0.2-0.4 0.2-0.7 0.5-0.3 0.3-0.5 0.7-0.2 0.4-0.2 0.9 0 0.8 0.4 1.2 0.3 0.5 0.8 0.8 0.6 0.3 1.2 0.5 0.6 0.3 1.1 0.6 0.6 0.3 0.9 0.8 0.4 0.5 0.4 1.3 0 1.1-0.8 1.9-0.8 0.7-1.9 0.7-0.7 0-1.3-0.4-0.6-0.3-1-0.9l-0.3 0.1q0.4 0.7 1.1 1.1 0.7 0.5 1.5 0.5 0.7 0 1.2-0.3 0.5-0.2 0.9-0.6 0.4-0.4 0.7-0.9 0.2-0.6 0.2-1.2 0-0.9-0.3-1.4-0.4-0.5-0.9-0.9-0.5-0.3-1.2-0.6-0.6-0.2-1.1-0.5-0.5-0.3-0.9-0.7-0.3-0.4-0.3-1.1 0-0.8 0.5-1.4 0.6-0.5 1.4-0.5 0.9 0 1.4 0.6z"/>
			</g>
		</g>
	</g>
	<g id="Layer">
		<g id="Layer">
			<g id="Layer">
				<path id="Layer" fill-rule="evenodd" class="s5" d="m95.2 70.1h1v6.5h-2.2v-1h1.2zm1 6.8v6q0 0.8 0.2 1.5 0.3 0.7 0.8 1.2 0.6 0.5 1.2 0.8 0.7 0.3 1.5 0.4h0.2v1q-1 0-1.9-0.4-0.9-0.4-1.6-1.1-0.6-0.7-1-1.6-0.4-0.9-0.4-1.9v-5h-1.2v-0.9zm3.7 9.5q-0.7 0-1.3-0.3-0.6-0.3-1.1-0.7-0.4-0.5-0.7-1.1-0.3-0.7-0.3-1.4v-6h3v0.9h-2v5q0 1.1 0.8 1.9 0.7 0.7 1.8 0.7v1zm-3.4-9.8v-6.5h1v5.5h2v1z"/>
			</g>
		</g>
	</g>
	<g id="Layer">
		<g id="Layer">
			<g id="Layer">
				<path id="Layer" fill-rule="evenodd" class="s5" d="m103.2 87.5v-11.9h1v11.9zm1.3-11.9h1v11.9h-1zm-0.1-5.6q0.5 0 1 0.4 0.4 0.4 0.4 1 0 0.6-0.4 1-0.5 0.4-1 0.4-0.6 0-1-0.4-0.4-0.4-0.4-1 0-0.6 0.4-1 0.4-0.4 1-0.4zm0 0.7q-0.3 0-0.5 0.2-0.2 0.2-0.2 0.5 0 0.2 0.2 0.4 0.2 0.2 0.5 0.2 0.2 0 0.4-0.2 0.2-0.2 0.2-0.4 0-0.3-0.2-0.5-0.2-0.2-0.4-0.2zm0 0.4q0.3 0 0.3 0.3 0 0.3-0.3 0.3-0.3 0-0.3-0.3 0-0.3 0.3-0.3z"/>
			</g>
		</g>
	</g>
	<g id="Layer">
		<g id="Layer">
			<g id="Layer">
				<path id="Layer" fill-rule="evenodd" class="s5" d="m110.4 76.2q0.6-0.4 1.4-0.6 0.7-0.2 1.5-0.3 1 0 2 0.5 0.9 0.4 1.6 1.1 0.8 0.7 1.2 1.6 0.4 0.9 0.4 2v7h-1v-7q0-0.9-0.4-1.6-0.3-0.8-0.8-1.3-0.6-0.6-1.4-0.9-0.7-0.4-1.6-0.4-1.3 0-2.3 0.8-1.1 0.7-1.6 1.8v-3.3h1zm6.8 11.3h-1v-7q0-0.6-0.2-1.1-0.3-0.6-0.7-1-0.4-0.3-0.9-0.6-0.5-0.2-1.1-0.2-0.6 0-1.1 0.2-0.5 0.3-0.9 0.6-0.4 0.4-0.7 1-0.2 0.5-0.2 1.1v7h-1v-7q0-0.8 0.3-1.5 0.3-0.7 0.9-1.3 0.5-0.5 1.2-0.8 0.7-0.3 1.5-0.3 0.8 0 1.5 0.3 0.7 0.3 1.2 0.8 0.6 0.6 0.9 1.3 0.3 0.7 0.3 1.5zm-8.1 0h-1v-12h1z"/>
			</g>
		</g>
	</g>
	<g id="Layer">
		<g id="Layer">
			<g id="Layer">
				<path id="Layer" fill-rule="evenodd" class="s5" d="m131 75.6h0.9v4.1q-0.6-1.5-1.9-2.4-1.3-1-3-1-1 0-2 0.4-0.9 0.4-1.6 1.1-0.8 0.8-1.2 1.7-0.4 1-0.4 2 0 1.2 0.5 2.1 0.4 1 1.1 1.7 0.7 0.7 1.6 1.1 1 0.4 2 0.4 1.7 0 3-1 1.3-0.9 1.9-2.4v3.9q0 0.9-0.3 1.8-0.4 0.9-1.1 1.5-0.6 0.6-1.5 1-0.8 0.4-1.8 0.4-1 0-1.9-0.4-0.9-0.5-1.5-1.1l0.7-0.7q0.5 0.6 1.2 0.9 0.8 0.3 1.5 0.3 0.8 0 1.5-0.3 0.7-0.3 1.2-0.9 0.5-0.5 0.8-1.1 0.3-0.7 0.3-1.4v-0.9q-1.8 1.4-4 1.4-1.2 0-2.3-0.5-1.1-0.5-2-1.4-0.9-0.8-1.4-2-0.4-1.1-0.4-2.4 0-1.3 0.4-2.4 0.5-1.1 1.4-1.9 0.9-0.9 2-1.4 1.1-0.4 2.3-0.5 2.3 0.1 4 1.4zm-7.4 9.4q-0.7-0.6-1-1.5-0.4-0.9-0.4-1.9 0-1 0.3-1.9 0.4-0.9 1.1-1.5 0.6-0.7 1.5-1.1 0.9-0.4 1.9-0.4 1.1 0 1.9 0.4 0.9 0.4 1.6 1 0.7 0.7 1 1.6 0.4 0.9 0.4 1.9 0 1-0.4 1.9-0.3 0.9-1 1.6-0.7 0.6-1.6 1-0.8 0.4-1.9 0.4-1 0-1.8-0.4-0.9-0.4-1.6-1.1zm8.7-9.4h0.9v11.7q0 1.2-0.4 2.3-0.5 1.1-1.3 2-0.8 0.8-1.9 1.2-1.1 0.5-2.4 0.5-1.2 0-2.4-0.5-1.1-0.5-1.9-1.3l0.7-0.7q0.6 0.7 1.6 1.2 1 0.4 2 0.4 1.1 0 2-0.4 0.9-0.4 1.6-1.1 0.7-0.7 1.1-1.6 0.4-0.9 0.4-2zm-8 8.7q1.2 1.2 2.7 1.2 0.8 0 1.5-0.3 0.7-0.3 1.3-0.9 0.5-0.5 0.8-1.2 0.4-0.7 0.4-1.5v-0.1q0-0.7-0.4-1.4-0.3-0.7-0.8-1.3-0.6-0.5-1.3-0.8-0.7-0.3-1.5-0.3-0.7 0-1.5 0.3-0.7 0.3-1.2 0.8-0.5 0.6-0.9 1.3-0.3 0.7-0.2 1.5 0 1.6 1.1 2.7z"/>
			</g>
		</g>
	</g>
	<g id="Layer">
		<g id="Layer">
			<g id="Layer">
				<path id="Layer" fill-rule="evenodd" class="s5" d="m16 209.7h0.6v6.1h-0.3v-5.8h-0.1l-2.5 2.5-2.5-2.5v5.8h-0.4v-6.1h0.6l2.3 2.3zm-0.2 6.1v-4.7l-2.1 2.1-2.1-2.1v4.7h-0.4v-5.5l2.5 2.4 2.4-2.4v5.5z"/>
			</g>
		</g>
	</g>
	<g id="Layer">
		<g id="Layer">
			<g id="Layer">
				<path id="Layer" fill-rule="evenodd" class="s5" d="m21.3 215.2q-0.3 0.3-0.7 0.5-0.4 0.2-0.9 0.2-0.4 0-0.8-0.2-0.4-0.2-0.7-0.5-0.3-0.3-0.5-0.7-0.1-0.4-0.1-0.8 0-0.5 0.1-0.9 0.2-0.3 0.5-0.6 0.3-0.3 0.7-0.5 0.4-0.2 0.8-0.2 0.5 0 0.9 0.2 0.4 0.2 0.7 0.5 0.3 0.3 0.4 0.7 0.2 0.4 0.2 0.8 0 0.4-0.1 0.8-0.2 0.4-0.5 0.7zm-0.3-0.2q0.3-0.3 0.4-0.6 0.2-0.3 0.2-0.7 0-0.4-0.2-0.7-0.1-0.3-0.4-0.6-0.2-0.2-0.6-0.4-0.3-0.1-0.7-0.1-0.3 0-0.7 0.1-0.3 0.2-0.6 0.4-0.2 0.3-0.4 0.6-0.1 0.3-0.1 0.7 0 0.4 0.1 0.7 0.2 0.3 0.5 0.6 0.2 0.2 0.5 0.4 0.4 0.1 0.7 0.1 0.4 0 0.8-0.1 0.3-0.2 0.5-0.4zm-1.3 0.4q-0.3 0-0.6-0.1-0.3-0.2-0.6-0.4-0.2-0.2-0.4-0.5-0.1-0.4-0.1-0.7 0-0.3 0.1-0.7 0.2-0.3 0.4-0.5 0.3-0.2 0.6-0.4 0.3-0.1 0.6-0.1 0.4 0 0.7 0.1 0.3 0.2 0.6 0.4 0.2 0.2 0.3 0.5 0.2 0.4 0.2 0.7 0 0.4-0.2 0.7-0.1 0.3-0.3 0.5-0.3 0.2-0.6 0.4-0.3 0.1-0.7 0.1zm0-0.3q0.3 0 0.6-0.2 0.2-0.1 0.4-0.2 0.2-0.2 0.3-0.5 0.1-0.2 0.1-0.5 0-0.3-0.1-0.5-0.1-0.3-0.3-0.5-0.2-0.2-0.4-0.3-0.3-0.1-0.6-0.1-0.2 0-0.5 0.1-0.2 0.1-0.4 0.3-0.2 0.2-0.3 0.5-0.1 0.2-0.1 0.5 0 0.3 0.1 0.5 0.1 0.3 0.3 0.5 0.2 0.1 0.4 0.2 0.3 0.2 0.5 0.2z"/>
			</g>
		</g>
	</g>
	<g id="Layer">
		<g id="Layer">
			<g id="Layer">
				<path id="Layer" fill-rule="evenodd" class="s5" d="m26.2 211.6l-1.5 4.2h-0.5l-1.5-4.2h0.3l0.3 0.7 1.1 3.1h0.1l1-2.9 0.4-0.9zm-0.9 0h0.4l-0.3 0.9-1 2.7-1-2.9-0.3-0.7h0.4l0.9 2.6z"/>
			</g>
		</g>
	</g>
	<g id="Layer">
		<g id="Layer">
			<g id="Layer">
				<path id="Layer" fill-rule="evenodd" class="s5" d="m27.9 214.1q0.2 0.4 0.5 0.7 0.4 0.3 0.8 0.3 0.4 0 0.7-0.2 0.3-0.2 0.5-0.4l0.2 0.2q-0.2 0.3-0.6 0.5-0.3 0.2-0.8 0.2-0.3 0-0.6-0.1-0.3-0.2-0.6-0.4-0.2-0.2-0.3-0.5-0.2-0.3-0.2-0.6h3.6v-0.1q0-0.4-0.2-0.7-0.1-0.3-0.4-0.6-0.2-0.2-0.6-0.4-0.3-0.1-0.7-0.1-0.4 0-0.7 0.1-0.3 0.2-0.6 0.4-0.2 0.3-0.4 0.6-0.1 0.3-0.1 0.7 0 0.4 0.1 0.7 0.2 0.3 0.4 0.6 0.3 0.2 0.6 0.4 0.4 0.1 0.7 0.1 0.5 0 0.9-0.2 0.4-0.2 0.6-0.6l0.3 0.2q-0.3 0.5-0.8 0.7-0.4 0.3-1 0.3-0.4 0-0.8-0.2-0.4-0.2-0.7-0.5-0.3-0.3-0.5-0.7-0.1-0.4-0.1-0.8 0-0.4 0.1-0.8 0.2-0.4 0.5-0.7 0.3-0.3 0.7-0.5 0.4-0.2 0.8-0.2 0.5 0 0.9 0.2 0.4 0.2 0.7 0.5 0.2 0.3 0.4 0.7 0.2 0.4 0.2 0.8v0.4zm-0.4-0.5q0-0.3 0.1-0.6 0.2-0.3 0.4-0.5 0.3-0.3 0.6-0.4 0.3-0.1 0.6-0.1 0.4 0 0.7 0.1 0.3 0.1 0.5 0.4 0.2 0.2 0.4 0.5 0.1 0.3 0.1 0.6zm3-0.3q-0.1-0.4-0.5-0.7-0.3-0.3-0.8-0.3-0.5 0-0.9 0.4-0.3 0.3-0.4 0.6z"/>
			</g>
		</g>
	</g>
	<g id="Layer">
		<g id="Layer">
			<g id="Layer">
			</g>
		</g>
	</g>
	<g id="Layer">
		<g id="Layer">
			<g id="Layer">
				<path id="Layer" fill-rule="evenodd" class="s5" d="m34.6 209.7h0.4v2.2h-0.8v-0.3h0.4zm0.4 2.4v2.1q0 0.3 0.1 0.5 0.1 0.3 0.3 0.4 0.1 0.2 0.4 0.3 0.2 0.1 0.5 0.1h0.1v0.4q-0.4 0-0.7-0.1-0.3-0.2-0.6-0.4-0.2-0.3-0.3-0.6-0.2-0.3-0.2-0.6v-1.8h-0.4v-0.3zm1.3 3.3q-0.2 0-0.4-0.1-0.3-0.1-0.4-0.2-0.2-0.2-0.3-0.4-0.1-0.2-0.1-0.5v-2.1h1.1v0.3h-0.7v1.8q0 0.4 0.3 0.6 0.2 0.3 0.6 0.3v0.3zm-1.2-3.4v-2.3h0.3v1.9h0.7v0.4z"/>
			</g>
		</g>
	</g>
	<g id="Layer">
		<g id="Layer">
			<g id="Layer">
				<path id="Layer" fill-rule="evenodd" class="s5" d="m41.1 215.2q-0.3 0.3-0.7 0.5-0.4 0.2-0.9 0.2-0.4 0-0.8-0.2-0.4-0.2-0.7-0.5-0.3-0.3-0.5-0.7-0.1-0.4-0.1-0.8 0-0.5 0.1-0.9 0.2-0.3 0.5-0.6 0.3-0.3 0.7-0.5 0.4-0.2 0.8-0.2 0.5 0 0.9 0.2 0.4 0.2 0.7 0.5 0.3 0.3 0.4 0.7 0.2 0.4 0.2 0.8 0 0.4-0.1 0.8-0.2 0.4-0.5 0.7zm-0.3-0.2q0.3-0.3 0.4-0.6 0.2-0.3 0.2-0.7 0-0.4-0.2-0.7-0.1-0.3-0.4-0.6-0.2-0.2-0.5-0.4-0.4-0.1-0.8-0.1-0.3 0-0.7 0.1-0.3 0.2-0.5 0.4-0.3 0.3-0.4 0.6-0.2 0.3-0.2 0.7 0 0.4 0.2 0.7 0.1 0.3 0.4 0.6 0.2 0.2 0.5 0.4 0.4 0.1 0.7 0.1 0.4 0 0.8-0.1 0.3-0.2 0.5-0.4zm-1.3 0.4q-0.3 0-0.6-0.1-0.3-0.2-0.6-0.4-0.2-0.2-0.3-0.5-0.2-0.4-0.2-0.7 0-0.3 0.2-0.7 0.1-0.3 0.3-0.5 0.3-0.2 0.6-0.4 0.3-0.1 0.6-0.1 0.4 0 0.7 0.1 0.3 0.2 0.6 0.4 0.2 0.2 0.3 0.5 0.2 0.4 0.2 0.7 0 0.4-0.2 0.7-0.1 0.3-0.3 0.5-0.3 0.2-0.6 0.4-0.3 0.1-0.7 0.1zm0-0.3q0.3 0 0.6-0.2 0.2-0.1 0.4-0.2 0.2-0.2 0.3-0.5 0.1-0.2 0.1-0.5 0-0.3-0.1-0.5-0.1-0.3-0.3-0.5-0.2-0.2-0.4-0.3-0.3-0.1-0.6-0.1-0.2 0-0.5 0.1-0.2 0.1-0.4 0.3-0.2 0.2-0.3 0.5-0.1 0.2-0.1 0.5 0 0.3 0.1 0.5 0.1 0.3 0.3 0.5 0.2 0.1 0.4 0.2 0.3 0.2 0.5 0.2z"/>
			</g>
		</g>
	</g>
	<g id="Layer">
		<g id="Layer">
			<g id="Layer">
			</g>
		</g>
	</g>
	<g id="Layer">
		<g id="Layer">
			<g id="Layer">
				<path id="Layer" fill-rule="evenodd" class="s5" d="m45 209.7h0.3v2.2h-0.8v-0.3h0.5zm0.3 2.4v2.1q0 0.3 0.1 0.5 0.1 0.3 0.3 0.4 0.2 0.2 0.4 0.3 0.2 0.1 0.5 0.1h0.1v0.4q-0.4 0-0.7-0.1-0.3-0.2-0.5-0.4-0.3-0.3-0.4-0.6-0.1-0.3-0.1-0.6v-1.8h-0.5v-0.3zm1.4 3.3q-0.3 0-0.5-0.1-0.2-0.1-0.4-0.2-0.1-0.2-0.2-0.4-0.1-0.2-0.1-0.5v-2.1h1v0.3h-0.7v1.8q0 0.4 0.3 0.6 0.2 0.3 0.6 0.3v0.3zm-1.2-3.4v-2.3h0.4v1.9h0.7v0.4z"/>
			</g>
		</g>
	</g>
	<g id="Layer">
		<g id="Layer">
			<g id="Layer">
				<path id="Layer" fill-rule="evenodd" class="s5" d="m48.5 211.8q0.2-0.1 0.5-0.2 0.2-0.1 0.5-0.1 0.4 0 0.7 0.2 0.4 0.1 0.6 0.4 0.3 0.2 0.4 0.5 0.1 0.4 0.1 0.7v2.5h-0.3v-2.5q0-0.3-0.1-0.5-0.1-0.3-0.3-0.5-0.2-0.2-0.5-0.3-0.3-0.1-0.6-0.1-0.4 0-0.8 0.2-0.4 0.3-0.5 0.7v-3.1h0.3zm2.4 3.9h-0.4v-2.4q0-0.2 0-0.4-0.1-0.2-0.3-0.3-0.1-0.2-0.3-0.2-0.2-0.1-0.4-0.1-0.4 0-0.7 0.3-0.3 0.2-0.3 0.7v2.4h-0.3v-2.4q0-0.3 0.1-0.5 0.1-0.3 0.3-0.5 0.1-0.2 0.4-0.3 0.2-0.1 0.5-0.1 0.3 0 0.5 0.1 0.3 0.1 0.5 0.3 0.2 0.2 0.3 0.5 0.1 0.2 0.1 0.5zm-2.9 0h-0.3v-6.1h0.3z"/>
			</g>
		</g>
	</g>
	<g id="Layer">
		<g id="Layer">
			<g id="Layer">
				<path id="Layer" fill-rule="evenodd" class="s5" d="m53 214.1q0.2 0.4 0.5 0.7 0.4 0.3 0.9 0.3 0.3 0 0.6-0.2 0.3-0.2 0.5-0.4l0.3 0.2q-0.3 0.3-0.6 0.5-0.4 0.2-0.8 0.2-0.4 0-0.7-0.1-0.3-0.2-0.5-0.4-0.3-0.2-0.4-0.5-0.1-0.3-0.2-0.6h3.6v-0.1q0-0.4-0.2-0.7-0.1-0.3-0.3-0.6-0.3-0.2-0.6-0.4-0.4-0.1-0.7-0.1-0.4 0-0.8 0.1-0.3 0.2-0.5 0.4-0.3 0.3-0.4 0.6-0.2 0.3-0.2 0.7 0 0.4 0.2 0.7 0.1 0.3 0.4 0.6 0.2 0.2 0.6 0.4 0.3 0.1 0.7 0.1 0.4 0 0.8-0.2 0.4-0.2 0.7-0.6l0.3 0.2q-0.3 0.5-0.8 0.7-0.5 0.3-1 0.3-0.5 0-0.9-0.2-0.4-0.2-0.7-0.5-0.3-0.3-0.4-0.7-0.2-0.4-0.2-0.8 0-0.4 0.1-0.8 0.2-0.4 0.5-0.7 0.3-0.3 0.7-0.5 0.4-0.2 0.9-0.2 0.4 0 0.8 0.2 0.4 0.2 0.7 0.5 0.3 0.3 0.5 0.7 0.1 0.4 0.1 0.8v0.4zm-0.4-0.5q0-0.3 0.2-0.6 0.1-0.3 0.4-0.5 0.2-0.3 0.5-0.4 0.3-0.1 0.6-0.1 0.4 0 0.7 0.1 0.3 0.1 0.5 0.4 0.3 0.2 0.4 0.5 0.1 0.3 0.1 0.6zm3.1-0.3q-0.2-0.4-0.5-0.7-0.4-0.3-0.8-0.3-0.6 0-1 0.4-0.2 0.3-0.3 0.6z"/>
			</g>
		</g>
	</g>
	<g id="Layer">
		<g id="Layer">
			<g id="Layer">
			</g>
		</g>
	</g>
	<g id="Layer">
		<g id="Layer">
			<g id="Layer">
				<path id="Layer" fill-rule="evenodd" class="s5" d="m63.7 214.8q-0.3 0.5-0.8 0.8-0.5 0.3-1.1 0.3-0.4 0-0.8-0.2-0.4-0.2-0.7-0.5-0.3-0.3-0.5-0.7-0.1-0.4-0.1-0.8 0-0.4 0.1-0.8 0.2-0.4 0.5-0.7 0.3-0.3 0.7-0.5 0.4-0.2 0.8-0.2 0.6 0 1.1 0.3 0.5 0.3 0.8 0.8l-0.3 0.2q0-0.1-0.1-0.2-0.1-0.1-0.2-0.2-0.5-0.5-1.2-0.5h-0.1q-0.3 0-0.7 0.1-0.3 0.2-0.5 0.4-0.3 0.3-0.4 0.6-0.2 0.3-0.2 0.7 0 0.4 0.2 0.7 0.1 0.3 0.4 0.6 0.2 0.2 0.5 0.4 0.4 0.1 0.7 0.1h0.1q0.7 0 1.2-0.5 0.1-0.1 0.2-0.2 0.1-0.1 0.1-0.2zm-0.6-1.8q-0.2-0.3-0.6-0.5-0.3-0.1-0.6-0.1-0.6 0-1 0.4-0.4 0.4-0.4 0.9 0 0.3 0.1 0.5 0.1 0.3 0.3 0.5 0.2 0.2 0.4 0.3 0.3 0.1 0.6 0.1 0.3 0 0.6-0.2 0.4-0.2 0.6-0.5l0.3 0.2q-0.3 0.4-0.7 0.6-0.4 0.2-0.8 0.2-0.4 0-0.7-0.1-0.3-0.1-0.5-0.4-0.3-0.2-0.4-0.5-0.2-0.3-0.2-0.7 0-0.3 0.2-0.7 0.1-0.3 0.4-0.5 0.2-0.2 0.5-0.4 0.3-0.1 0.7-0.1 0.5 0 0.9 0.3 0.3 0.2 0.6 0.6z"/>
			</g>
		</g>
	</g>
	<g id="Layer">
		<g id="Layer">
			<g id="Layer">
				<path id="Layer" fill-rule="evenodd" class="s5" d="m68 215.4q-0.6 0.5-1.4 0.5-0.4 0-0.8-0.2-0.4-0.2-0.7-0.5-0.3-0.3-0.5-0.7-0.1-0.4-0.1-0.8 0-0.5 0.1-0.9 0.2-0.3 0.5-0.6 0.3-0.3 0.7-0.5 0.4-0.2 0.8-0.2 0.8 0 1.4 0.5v-0.4h0.4v1.5q-0.2-0.4-0.5-0.7-0.2-0.2-0.5-0.4-0.4-0.1-0.8-0.1-0.3 0-0.7 0.1-0.3 0.2-0.5 0.4-0.3 0.3-0.4 0.6-0.2 0.3-0.2 0.7 0 0.4 0.2 0.7 0.1 0.3 0.4 0.6 0.2 0.2 0.5 0.4 0.4 0.1 0.7 0.1 0.4 0 0.8-0.1 0.3-0.2 0.5-0.4 0.3-0.3 0.5-0.7v1.5h-0.4zm-2.6-0.5q-0.2-0.2-0.3-0.5-0.2-0.3-0.2-0.7 0-0.3 0.2-0.7 0.1-0.3 0.3-0.5 0.3-0.2 0.6-0.4 0.3-0.1 0.6-0.1 0.4 0 0.7 0.1 0.3 0.2 0.6 0.4 0.2 0.2 0.3 0.5 0.2 0.4 0.2 0.7 0 0.4-0.2 0.7-0.1 0.3-0.3 0.5-0.3 0.2-0.6 0.4-0.3 0.1-0.7 0.1-0.3 0-0.6-0.1-0.3-0.2-0.6-0.4zm3.1-3.3h0.3v4.2h-0.3zm-2.8 3.1q0.4 0.4 0.9 0.4 0.3 0 0.6-0.1 0.2-0.1 0.4-0.3 0.2-0.2 0.3-0.5 0.1-0.2 0.1-0.5 0-0.3-0.1-0.5-0.1-0.3-0.3-0.5-0.2-0.1-0.4-0.3-0.3-0.1-0.6-0.1-0.2 0-0.5 0.1-0.2 0.2-0.4 0.3-0.2 0.2-0.3 0.5-0.1 0.2-0.1 0.5 0 0.3 0.1 0.5 0.1 0.3 0.3 0.5z"/>
			</g>
		</g>
	</g>
	<g id="Layer">
		<g id="Layer">
			<g id="Layer">
				<path id="Layer" class="s5" d="m71.3 212.4q-0.1-0.1-0.3-0.1-0.1 0-0.2 0.1-0.1 0.1-0.1 0.3 0 0.1 0 0.1 0.1 0.1 0.2 0.2 0.1 0 0.2 0.1 0.1 0 0.1 0 0.3 0.1 0.5 0.3 0.2 0.1 0.3 0.2 0.2 0.2 0.3 0.4 0 0.2 0 0.5 0 0.3-0.1 0.5-0.1 0.3-0.3 0.5-0.2 0.2-0.4 0.3-0.3 0.1-0.5 0.1-0.4 0-0.7-0.2-0.4-0.2-0.6-0.5l0.8-0.4q0.1 0.3 0.5 0.3 0.2 0 0.4-0.2 0.1-0.2 0.1-0.4 0-0.2 0-0.3-0.1 0-0.2-0.1-0.1-0.1-0.2-0.1-0.1-0.1-0.2-0.1-0.2-0.1-0.4-0.2-0.2-0.1-0.3-0.3-0.2-0.1-0.3-0.3 0-0.2 0-0.4 0-0.3 0.1-0.5 0.1-0.2 0.2-0.3 0.2-0.2 0.4-0.3 0.2-0.1 0.4-0.1 0.3 0 0.5 0.1 0.2 0.1 0.4 0.3l-0.3 0.3q-0.1-0.2-0.2-0.3-0.2 0-0.4 0-0.1 0-0.3 0-0.1 0.1-0.2 0.2-0.1 0.1-0.2 0.3-0.1 0.1-0.1 0.3 0 0.2 0.2 0.4 0.1 0.1 0.3 0.3 0.2 0.1 0.4 0.2 0.2 0 0.4 0.2 0.2 0.1 0.3 0.2 0.1 0.2 0.1 0.5 0 0.4-0.3 0.6-0.2 0.3-0.6 0.3-0.3 0-0.5-0.1-0.2-0.2-0.3-0.4l-0.1 0.1q0.1 0.2 0.3 0.4 0.3 0.1 0.6 0.1 0.2 0 0.4-0.1 0.2 0 0.3-0.2 0.2-0.1 0.2-0.3 0.1-0.2 0.1-0.4 0-0.3-0.1-0.5-0.1-0.2-0.3-0.3-0.2-0.1-0.4-0.2-0.2-0.1-0.4-0.2-0.2-0.1-0.3-0.2-0.1-0.2-0.1-0.4 0-0.3 0.2-0.5 0.2-0.2 0.4-0.2 0.3 0 0.5 0.2z"/>
			</g>
		</g>
	</g>
	<g id="Layer">
		<g id="Layer">
			<g id="Layer">
				<path id="Layer" fill-rule="evenodd" class="s5" d="m74 214.1q0.1 0.4 0.5 0.7 0.3 0.3 0.8 0.3 0.3 0 0.6-0.2 0.3-0.2 0.5-0.4l0.3 0.2q-0.2 0.3-0.6 0.5-0.4 0.2-0.8 0.2-0.4 0-0.7-0.1-0.3-0.2-0.5-0.4-0.2-0.2-0.4-0.5-0.1-0.3-0.1-0.6h3.5v-0.1q0-0.4-0.1-0.7-0.2-0.3-0.4-0.6-0.3-0.2-0.6-0.4-0.3-0.1-0.7-0.1-0.4 0-0.7 0.1-0.4 0.2-0.6 0.4-0.3 0.3-0.4 0.6-0.1 0.3-0.1 0.7 0 0.4 0.1 0.7 0.2 0.3 0.4 0.6 0.3 0.2 0.6 0.4 0.3 0.1 0.7 0.1 0.5 0 0.9-0.2 0.4-0.2 0.6-0.6l0.3 0.2q-0.3 0.5-0.8 0.7-0.5 0.3-1 0.3-0.4 0-0.8-0.2-0.4-0.2-0.7-0.5-0.3-0.3-0.5-0.7-0.2-0.4-0.2-0.8 0-0.4 0.2-0.8 0.1-0.4 0.4-0.7h0.1q0.3-0.3 0.7-0.5 0.4-0.2 0.8-0.2 0.4 0 0.8 0.2 0.4 0.2 0.7 0.5 0.3 0.3 0.5 0.7 0.2 0.4 0.2 0.8v0.4zm-0.4-0.5q0-0.3 0.1-0.6 0.2-0.3 0.4-0.5 0.2-0.3 0.5-0.4 0.3-0.1 0.7-0.1 0.3 0 0.6 0.1 0.3 0.1 0.6 0.4 0.2 0.2 0.3 0.5 0.2 0.3 0.2 0.6zm3-0.3q-0.1-0.4-0.5-0.7-0.4-0.3-0.8-0.3-0.6 0-1 0.4-0.2 0.3-0.3 0.6z"/>
			</g>
		</g>
	</g>
	<g id="Layer">
		<g id="Layer">
			<g id="Layer">
			</g>
		</g>
	</g>
	<g id="Layer">
		<g id="Layer">
			<g id="Layer">
				<path id="Layer" fill-rule="evenodd" class="s5" d="m84.3 215.2q-0.3 0.3-0.7 0.5-0.4 0.2-0.8 0.2-0.5 0-0.9-0.2-0.4-0.2-0.6-0.5-0.3-0.3-0.5-0.7-0.2-0.4-0.2-0.8 0-0.5 0.2-0.9 0.2-0.3 0.5-0.6 0.3-0.3 0.7-0.5 0.3-0.2 0.8-0.2 0.4 0 0.8 0.2 0.4 0.2 0.7 0.5 0.3 0.3 0.5 0.7 0.2 0.4 0.2 0.8 0 0.4-0.2 0.8-0.2 0.4-0.5 0.7zm-0.2-0.2q0.2-0.3 0.4-0.6 0.1-0.3 0.1-0.7 0-0.4-0.1-0.7-0.2-0.3-0.4-0.6-0.3-0.2-0.6-0.4-0.3-0.1-0.7-0.1-0.4 0-0.7 0.1-0.4 0.2-0.6 0.4-0.3 0.3-0.4 0.6-0.1 0.3-0.1 0.7 0 0.4 0.1 0.7 0.1 0.3 0.4 0.6 0.2 0.2 0.6 0.4 0.3 0.1 0.7 0.1 0.4 0 0.7-0.1 0.3-0.2 0.6-0.4zm-1.3 0.4q-0.4 0-0.7-0.1-0.3-0.2-0.5-0.4-0.3-0.2-0.4-0.5-0.1-0.4-0.1-0.7 0-0.3 0.1-0.7 0.1-0.3 0.4-0.5 0.2-0.2 0.5-0.4 0.3-0.1 0.7-0.1 0.3 0 0.7 0.1 0.3 0.2 0.5 0.4 0.2 0.2 0.4 0.5 0.1 0.4 0.1 0.7 0 0.4-0.1 0.7-0.2 0.3-0.4 0.5-0.2 0.2-0.5 0.4-0.4 0.1-0.7 0.1zm0-0.3q0.3 0 0.5-0.2 0.3-0.1 0.5-0.2 0.1-0.2 0.2-0.5 0.2-0.2 0.2-0.5 0-0.3-0.2-0.5-0.1-0.3-0.2-0.5-0.2-0.2-0.5-0.3-0.2-0.1-0.5-0.1-0.3 0-0.5 0.1-0.3 0.1-0.5 0.3-0.2 0.2-0.3 0.5-0.1 0.2-0.1 0.5 0 0.3 0.1 0.5 0.1 0.3 0.3 0.5 0.2 0.1 0.5 0.2 0.2 0.2 0.5 0.2z"/>
			</g>
		</g>
	</g>
	<g id="Layer">
		<g id="Layer">
			<g id="Layer">
				<path id="Layer" fill-rule="evenodd" class="s5" d="m85.8 212.4h-0.4v-0.3h0.8v3.7h-0.4zm-0.4-0.5v-0.3h0.4v-0.2q0-0.4 0.2-0.7 0.1-0.3 0.3-0.6 0.3-0.2 0.6-0.3 0.3-0.2 0.7-0.2v0.4q-0.3 0-0.6 0.1-0.2 0.1-0.4 0.3-0.2 0.2-0.3 0.4-0.1 0.3-0.1 0.6v0.5zm2.1-1.5q-0.2 0-0.3 0.1-0.2 0.1-0.3 0.2-0.1 0.1-0.2 0.3-0.1 0.2-0.1 0.4v0.2h0.7v0.3h-1v-0.5q0-0.3 0.1-0.5 0.1-0.3 0.2-0.4 0.2-0.2 0.4-0.3 0.3-0.1 0.5-0.1zm-0.2 1.6v0.4h-0.7v3.4h-0.3v-3.8z"/>
			</g>
		</g>
	</g>
	<g id="Layer">
		<g id="Layer">
			<g id="Layer">
			</g>
		</g>
	</g>
	<g id="Layer">
		<g id="Layer">
			<g id="Layer">
				<path id="Layer" fill-rule="evenodd" class="s5" d="m93.6 215.6q-0.5 0.3-1 0.3-0.4 0-0.7-0.2-0.4-0.1-0.6-0.4-0.3-0.2-0.4-0.5-0.1-0.4-0.1-0.7v-2.5h0.3v2.5q0 0.3 0.1 0.5 0.1 0.3 0.3 0.5 0.2 0.2 0.5 0.3 0.3 0.1 0.6 0.1 0.4 0 0.8-0.2 0.4-0.3 0.5-0.7v1.4q0 0.3-0.1 0.5-0.1 0.3-0.3 0.5-0.2 0.2-0.4 0.2-0.2 0.2-0.5 0.2-0.6 0-1-0.5l0.3-0.2q0 0 0.1 0.1 0.1 0.1 0.2 0.1 0.2 0.1 0.4 0.1 0.2 0 0.4-0.1 0.1-0.1 0.3-0.2 0.1-0.1 0.2-0.3 0.1-0.2 0.1-0.4zm-2 1.4l-0.1 0.1q0 0 0 0l0.1-0.1q0 0 0 0zm0.4 0.4q0.3 0.1 0.6 0.1 0.3 0 0.6-0.1 0.2-0.1 0.4-0.3 0.2-0.2 0.3-0.5 0.1-0.2 0.1-0.5v-4.5h0.4v4.5q0 0.3-0.1 0.7-0.2 0.3-0.4 0.5-0.3 0.3-0.6 0.4-0.3 0.2-0.7 0.2-0.4 0-0.7-0.2-0.4-0.1-0.6-0.4l0.2-0.2q0.2 0.2 0.5 0.3zm-0.8-5.8h0.4v2.5q0 0.2 0 0.4 0.1 0.2 0.3 0.3 0.1 0.2 0.3 0.2 0.2 0.1 0.4 0.1 0.2 0 0.4-0.1 0.1 0 0.3-0.2 0.1-0.1 0.2-0.3 0.1-0.2 0.1-0.4v-2.5h0.3v2.5q0 0.3-0.1 0.5-0.1 0.3-0.3 0.5-0.2 0.2-0.4 0.3-0.3 0.1-0.5 0.1-0.3 0-0.6-0.1-0.2-0.1-0.4-0.3-0.2-0.2-0.3-0.5-0.1-0.2-0.1-0.5z"/>
			</g>
		</g>
	</g>
	<g id="Layer">
		<g id="Layer">
			<g id="Layer">
				<path id="Layer" fill-rule="evenodd" class="s5" d="m99 215.2q-0.3 0.3-0.7 0.5-0.4 0.2-0.9 0.2-0.4 0-0.8-0.2-0.4-0.2-0.7-0.5-0.3-0.3-0.5-0.7-0.1-0.4-0.1-0.8 0-0.5 0.1-0.9 0.2-0.3 0.5-0.6 0.3-0.3 0.7-0.5 0.4-0.2 0.8-0.2 0.5 0 0.9 0.2 0.4 0.2 0.7 0.5 0.3 0.3 0.4 0.7 0.2 0.4 0.2 0.8 0 0.4-0.1 0.8-0.2 0.4-0.5 0.7zm-0.3-0.2q0.3-0.3 0.4-0.6 0.2-0.3 0.2-0.7 0-0.4-0.2-0.7-0.1-0.3-0.4-0.6-0.2-0.2-0.6-0.4-0.3-0.1-0.7-0.1-0.3 0-0.7 0.1-0.3 0.2-0.6 0.4-0.2 0.3-0.3 0.6-0.2 0.3-0.2 0.7 0 0.4 0.2 0.7 0.1 0.3 0.4 0.6 0.2 0.2 0.5 0.4 0.4 0.1 0.7 0.1 0.4 0 0.8-0.1 0.3-0.2 0.5-0.4zm-1.3 0.4q-0.3 0-0.6-0.1-0.3-0.2-0.6-0.4-0.2-0.2-0.4-0.5-0.1-0.4-0.1-0.7 0-0.3 0.1-0.7 0.2-0.3 0.4-0.5 0.3-0.2 0.6-0.4 0.3-0.1 0.6-0.1 0.4 0 0.7 0.1 0.3 0.2 0.6 0.4 0.2 0.2 0.3 0.5 0.2 0.4 0.2 0.7 0 0.4-0.2 0.7-0.1 0.3-0.3 0.5-0.3 0.2-0.6 0.4-0.3 0.1-0.7 0.1zm0-0.3q0.3 0 0.6-0.2 0.2-0.1 0.4-0.2 0.2-0.2 0.3-0.5 0.1-0.2 0.1-0.5 0-0.3-0.1-0.5-0.1-0.3-0.3-0.5-0.2-0.2-0.4-0.3-0.3-0.1-0.6-0.1-0.2 0-0.5 0.1-0.2 0.1-0.4 0.3-0.2 0.2-0.3 0.5-0.1 0.2-0.1 0.5 0 0.3 0.1 0.5 0.1 0.3 0.3 0.5 0.2 0.1 0.4 0.2 0.3 0.2 0.5 0.2z"/>
			</g>
		</g>
	</g>
	<g id="Layer">
		<g id="Layer">
			<g id="Layer">
				<path id="Layer" fill-rule="evenodd" class="s5" d="m103.2 215.6q-0.4 0.3-1 0.3-0.4 0-0.7-0.2-0.3-0.1-0.6-0.4-0.2-0.2-0.4-0.5-0.1-0.4-0.1-0.7v-2.5h0.3v2.5q0 0.3 0.1 0.5 0.2 0.3 0.4 0.5 0.2 0.2 0.4 0.3 0.3 0.1 0.6 0.1 0.5 0 0.8-0.2 0.4-0.3 0.6-0.7v1.2h-0.4zm-2.4-4h0.4v2.5q0 0.2 0.1 0.4 0 0.2 0.2 0.3 0.1 0.1 0.3 0.2 0.2 0.1 0.4 0.1 0.2 0 0.4-0.1 0.2-0.1 0.3-0.2 0.2-0.1 0.2-0.3 0.1-0.2 0.1-0.4v-2.5h0.4v2.5q0 0.3-0.2 0.5 0 0.3-0.2 0.4-0.2 0.2-0.5 0.3-0.2 0.1-0.5 0.1-0.3 0-0.5-0.1-0.3-0.1-0.5-0.3-0.1-0.1-0.3-0.4-0.1-0.2-0.1-0.5zm2.9 0h0.3v4.2h-0.3z"/>
			</g>
		</g>
	</g>
	<g id="Layer">
		<g id="Layer">
			<g id="Layer">
				<path id="Layer" class="s5" d="m105.7 211.8q0.3-0.1 0.5-0.2 0.3-0.1 0.6-0.1v0.4q-0.5 0-0.9 0.2-0.3 0.3-0.5 0.7v-1.2h0.3zm1.1 0.5q-0.3 0-0.5 0.1-0.1 0.1-0.3 0.2-0.1 0.1-0.2 0.3-0.1 0.2-0.1 0.4v2.5h-0.3v-2.5q0-0.3 0.1-0.5 0.1-0.3 0.3-0.4 0.2-0.2 0.4-0.3 0.3-0.2 0.6-0.2zm-1.5 3.5h-0.4v-4.2h0.4z"/>
			</g>
		</g>
	</g>
	<g id="Layer">
		<g id="Layer">
			<g id="Layer">
			</g>
		</g>
	</g>
	<g id="Layer">
		<g id="Layer">
			<g id="Layer">
				<path id="Layer" fill-rule="evenodd" class="s5" d="m114 214.8q-0.3 0.5-0.8 0.8-0.5 0.3-1 0.3-0.5 0-0.9-0.2-0.4-0.2-0.7-0.5-0.3-0.3-0.4-0.7-0.2-0.4-0.2-0.8 0-0.4 0.1-0.8 0.2-0.4 0.5-0.7 0.3-0.3 0.7-0.5 0.4-0.2 0.9-0.2 0.5 0 1 0.3 0.5 0.3 0.8 0.8l-0.3 0.2q0-0.1-0.1-0.2-0.1-0.1-0.1-0.2-0.6-0.5-1.3-0.5-0.4 0-0.8 0.1-0.3 0.2-0.5 0.4-0.3 0.3-0.4 0.6-0.2 0.3-0.2 0.7 0 0.4 0.2 0.7 0.1 0.3 0.4 0.6 0.2 0.2 0.5 0.4 0.4 0.1 0.8 0.1 0.7 0 1.3-0.5 0-0.1 0.1-0.2 0.1-0.1 0.1-0.2zm-0.6-1.8q-0.2-0.3-0.6-0.5-0.3-0.1-0.6-0.1-0.6 0-1 0.4-0.4 0.4-0.4 0.9 0 0.3 0.1 0.5 0.1 0.3 0.3 0.5 0.2 0.2 0.4 0.3 0.3 0.1 0.6 0.1 0.3 0 0.6-0.2 0.4-0.2 0.6-0.5l0.3 0.2q-0.3 0.4-0.7 0.6-0.4 0.2-0.8 0.2-0.4 0-0.7-0.1-0.3-0.1-0.5-0.4-0.3-0.2-0.4-0.5-0.1-0.3-0.1-0.7 0-0.3 0.1-0.7 0.1-0.3 0.4-0.5 0.2-0.2 0.5-0.4 0.3-0.1 0.7-0.1 0.5 0 0.9 0.3 0.4 0.2 0.6 0.6z"/>
			</g>
		</g>
	</g>
	<g id="Layer">
		<g id="Layer">
			<g id="Layer">
				<path id="Layer" fill-rule="evenodd" class="s5" d="m115.6 211.8q0.2-0.1 0.5-0.2 0.2-0.1 0.5-0.1 0.4 0 0.7 0.2 0.3 0.1 0.6 0.4 0.2 0.2 0.4 0.5 0.1 0.4 0.1 0.7v2.5h-0.3v-2.5q0-0.3-0.1-0.5-0.2-0.3-0.4-0.5-0.2-0.2-0.4-0.3-0.3-0.1-0.6-0.1-0.5 0-0.8 0.2-0.4 0.3-0.6 0.7v-3.1h0.4zm2.4 3.9h-0.4v-2.4q0-0.2-0.1-0.4 0-0.2-0.2-0.3-0.1-0.2-0.3-0.2-0.2-0.1-0.4-0.1-0.4 0-0.7 0.3-0.3 0.2-0.3 0.7v2.4h-0.4v-2.4q0-0.3 0.2-0.5 0.1-0.3 0.2-0.5 0.2-0.2 0.5-0.3 0.2-0.1 0.5-0.1 0.3 0 0.5 0.1 0.3 0.1 0.5 0.3 0.2 0.2 0.2 0.5 0.2 0.2 0.2 0.5zm-2.9 0h-0.3v-6.1h0.3z"/>
			</g>
		</g>
	</g>
	<g id="Layer">
		<g id="Layer">
			<g id="Layer">
				<path id="Layer" fill-rule="evenodd" class="s5" d="m123 215.2q-0.3 0.3-0.7 0.5-0.4 0.2-0.9 0.2-0.4 0-0.8-0.2-0.4-0.2-0.7-0.5-0.3-0.3-0.5-0.7-0.1-0.4-0.1-0.8 0-0.5 0.1-0.9 0.2-0.3 0.5-0.6 0.3-0.3 0.7-0.5 0.4-0.2 0.8-0.2 0.5 0 0.9 0.2 0.4 0.2 0.7 0.5 0.3 0.3 0.4 0.7 0.2 0.4 0.2 0.8 0 0.4-0.1 0.8-0.2 0.4-0.5 0.7zm-0.3-0.2q0.3-0.3 0.4-0.6 0.2-0.3 0.2-0.7 0-0.4-0.2-0.7-0.1-0.3-0.4-0.6-0.2-0.2-0.6-0.4-0.3-0.1-0.7-0.1-0.3 0-0.7 0.1-0.3 0.2-0.6 0.4-0.2 0.3-0.3 0.6-0.2 0.3-0.2 0.7 0 0.4 0.2 0.7 0.1 0.3 0.4 0.6 0.2 0.2 0.5 0.4 0.4 0.1 0.7 0.1 0.4 0 0.8-0.1 0.3-0.2 0.5-0.4zm-1.3 0.4q-0.3 0-0.6-0.1-0.3-0.2-0.6-0.4-0.2-0.2-0.4-0.5-0.1-0.4-0.1-0.7 0-0.3 0.1-0.7 0.2-0.3 0.4-0.5 0.3-0.2 0.6-0.4 0.3-0.1 0.6-0.1 0.4 0 0.7 0.1 0.3 0.2 0.6 0.4 0.2 0.2 0.3 0.5 0.2 0.4 0.2 0.7 0 0.4-0.2 0.7-0.1 0.3-0.3 0.5-0.3 0.2-0.6 0.4-0.3 0.1-0.7 0.1zm0-0.3q0.3 0 0.6-0.2 0.2-0.1 0.4-0.2 0.2-0.2 0.3-0.5 0.1-0.2 0.1-0.5 0-0.3-0.1-0.5-0.1-0.3-0.3-0.5-0.2-0.2-0.4-0.3-0.3-0.1-0.6-0.1-0.2 0-0.5 0.1-0.2 0.1-0.4 0.3-0.2 0.2-0.3 0.5-0.1 0.2-0.1 0.5 0 0.3 0.1 0.5 0.1 0.3 0.3 0.5 0.2 0.1 0.4 0.2 0.3 0.2 0.5 0.2z"/>
			</g>
		</g>
	</g>
	<g id="Layer">
		<g id="Layer">
			<g id="Layer">
				<path id="Layer" fill-rule="evenodd" class="s5" d="m124.5 215.8v-4.2h0.3v4.2zm0.5-4.2h0.3v4.2h-0.3zm-0.1-2q0.2 0 0.4 0.2 0.1 0.1 0.1 0.3 0 0.2-0.1 0.4-0.2 0.1-0.4 0.1-0.2 0-0.3-0.1-0.2-0.2-0.2-0.4 0-0.2 0.2-0.3 0.1-0.2 0.3-0.2zm0 0.3q-0.1 0-0.1 0.1-0.1 0-0.1 0.1 0 0.1 0.1 0.2 0 0 0.1 0 0.1 0 0.2 0 0-0.1 0-0.2 0-0.1 0-0.1-0.1-0.1-0.2-0.1zm0 0.1q0.1 0 0.1 0.1 0 0.1-0.1 0.1-0.1 0-0.1-0.1 0-0.1 0.1-0.1z"/>
			</g>
		</g>
	</g>
	<g id="Layer">
		<g id="Layer">
			<g id="Layer">
				<path id="Layer" fill-rule="evenodd" class="s5" d="m130.2 214.8q-0.2 0.5-0.8 0.8-0.5 0.3-1 0.3-0.5 0-0.9-0.2-0.4-0.2-0.7-0.5-0.3-0.3-0.4-0.7-0.2-0.4-0.2-0.8 0-0.4 0.1-0.8 0.2-0.4 0.5-0.7 0.3-0.3 0.7-0.5 0.4-0.2 0.9-0.2 0.5 0 1.1 0.3 0.5 0.3 0.7 0.8l-0.2 0.2q-0.1-0.1-0.2-0.2-0.1-0.1-0.1-0.2-0.6-0.5-1.3-0.5-0.4 0-0.8 0.1-0.3 0.2-0.5 0.4-0.3 0.3-0.4 0.6-0.2 0.3-0.2 0.7 0 0.4 0.2 0.7 0.1 0.3 0.4 0.6 0.2 0.2 0.5 0.4 0.4 0.1 0.8 0.1 0.7 0 1.3-0.5 0-0.1 0.1-0.2 0.1-0.1 0.2-0.2zm-0.7-1.8q-0.2-0.3-0.6-0.5-0.3-0.1-0.6-0.1-0.6 0-1 0.4-0.4 0.4-0.4 0.9 0 0.3 0.1 0.5 0.1 0.3 0.3 0.5 0.2 0.2 0.4 0.3 0.3 0.1 0.6 0.1 0.3 0 0.6-0.2 0.4-0.2 0.6-0.5l0.3 0.2q-0.3 0.4-0.7 0.6-0.4 0.2-0.8 0.2-0.4 0-0.7-0.1-0.3-0.1-0.5-0.4-0.3-0.2-0.4-0.5-0.1-0.3-0.1-0.7 0-0.3 0.1-0.7 0.1-0.3 0.4-0.5 0.2-0.2 0.5-0.4 0.3-0.1 0.7-0.1 0.5 0 0.9 0.3 0.4 0.2 0.6 0.6z"/>
			</g>
		</g>
	</g>
	<g id="Layer">
		<g id="Layer">
			<g id="Layer">
				<path id="Layer" fill-rule="evenodd" class="s5" d="m131.8 214.1q0.2 0.4 0.5 0.7 0.4 0.3 0.9 0.3 0.3 0 0.6-0.2 0.3-0.2 0.5-0.4l0.3 0.2q-0.3 0.3-0.6 0.5-0.4 0.2-0.8 0.2-0.4 0-0.7-0.1-0.3-0.2-0.5-0.4-0.3-0.2-0.4-0.5-0.1-0.3-0.2-0.6h3.6v-0.1q0-0.4-0.2-0.7-0.1-0.3-0.3-0.6-0.3-0.2-0.6-0.4-0.4-0.1-0.7-0.1-0.4 0-0.8 0.1-0.3 0.2-0.5 0.4-0.3 0.3-0.4 0.6-0.2 0.3-0.2 0.7 0 0.4 0.2 0.7 0.1 0.3 0.4 0.6 0.2 0.2 0.6 0.4 0.3 0.1 0.7 0.1 0.4 0 0.8-0.2 0.4-0.2 0.7-0.6l0.3 0.2q-0.3 0.5-0.8 0.7-0.5 0.3-1 0.3-0.5 0-0.9-0.2-0.4-0.2-0.7-0.5-0.3-0.3-0.4-0.7-0.2-0.4-0.2-0.8 0-0.4 0.1-0.8 0.2-0.4 0.5-0.7 0.3-0.3 0.7-0.5 0.4-0.2 0.9-0.2 0.4 0 0.8 0.2 0.4 0.2 0.7 0.5 0.3 0.3 0.5 0.7 0.1 0.4 0.1 0.8v0.4zm-0.4-0.5q0-0.3 0.2-0.6 0.1-0.3 0.4-0.5 0.2-0.3 0.5-0.4 0.3-0.1 0.6-0.1 0.4 0 0.7 0.1 0.3 0.1 0.5 0.4 0.3 0.2 0.4 0.5 0.1 0.3 0.1 0.6zm3.1-0.3q-0.2-0.4-0.5-0.7-0.4-0.3-0.8-0.3-0.6 0-1 0.4-0.2 0.3-0.3 0.6z"/>
			</g>
		</g>
	</g>
	<g id="Layer">
		<g id="Layer">
			<g id="Layer">
				<path id="Layer" class="s5" d="m138.1 212.9h-0.3v-1.6l1.4 0.8-0.2 0.3-0.9-0.5zm-0.8 0v-0.9l-0.8 0.4-0.2-0.3 1.4-0.7v1.5zm-1.3-1.2l0.9-0.4-0.9-0.5 0.2-0.3 1.4 0.8-1.4 0.7zm0.4-1.6l0.9 0.5v-1h0.3v1.6l-1.3-0.8zm1.6-0.5v1l0.8-0.5 0.2 0.3-1.3 0.8v-1.6zm1.2 1.2l-0.8 0.5 0.8 0.4-0.2 0.3-1.3-0.7 1.3-0.8z"/>
			</g>
		</g>
	</g>
	<g id="Layer">
		<g id="Layer">
			<g id="Layer">
				<path id="Layer" class="s5" d="m93.7 239.8h-0.3v-1l0.9 0.5-0.1 0.2-0.5-0.3zm-0.6 0v-0.7l-0.6 0.4-0.1-0.2 0.9-0.6v1.1zm-0.8-0.8l0.6-0.3-0.6-0.4 0.1-0.2 0.9 0.6-0.9 0.5zm0.3-1.2l0.6 0.4v-0.7h0.2v1.1l-0.9-0.5zm1.1-0.4v0.7l0.6-0.3 0.1 0.2-0.9 0.5v-1.1zm0.8 0.8l-0.6 0.4 0.6 0.3-0.1 0.2-0.9-0.5 0.9-0.6z"/>
			</g>
		</g>
	</g>
	<g id="Layer">
		<g id="Layer">
			<g id="Layer">
				<path id="Layer" fill-rule="evenodd" class="s5" d="m95.6 240.7q0.1 0.3 0.4 0.5 0.2 0.2 0.5 0.2 0.3 0 0.5-0.2 0.2-0.1 0.3-0.3l0.2 0.2q-0.2 0.2-0.4 0.3-0.2 0.2-0.6 0.2-0.2 0-0.4-0.1-0.2-0.1-0.4-0.2-0.1-0.2-0.2-0.4-0.1-0.2-0.1-0.5h2.4q0-0.2-0.1-0.5-0.1-0.2-0.3-0.4-0.1-0.1-0.4-0.2-0.2-0.1-0.5-0.1-0.2 0-0.4 0.1-0.3 0.1-0.4 0.2-0.2 0.2-0.3 0.4-0.1 0.3-0.1 0.5 0 0.3 0.1 0.5 0.1 0.2 0.3 0.4 0.1 0.2 0.4 0.3 0.2 0.1 0.4 0.1 0.4 0 0.6-0.2 0.3-0.1 0.5-0.4l0.2 0.1q-0.2 0.4-0.6 0.5-0.3 0.2-0.7 0.2-0.3 0-0.5-0.1-0.3-0.1-0.5-0.3-0.2-0.2-0.3-0.5-0.1-0.3-0.1-0.6 0-0.3 0.1-0.6 0.1-0.2 0.3-0.4 0.2-0.2 0.5-0.4 0.3-0.1 0.5-0.1 0.3 0 0.6 0.1 0.3 0.2 0.5 0.4 0.2 0.2 0.3 0.4 0.1 0.3 0.1 0.6v0.3zm-0.2-0.3q0-0.3 0.1-0.5 0.1-0.2 0.2-0.3 0.2-0.2 0.4-0.3 0.2-0.1 0.4-0.1 0.3 0 0.5 0.1 0.2 0.1 0.4 0.3 0.1 0.1 0.2 0.3 0.1 0.2 0.1 0.5zm2.1-0.3q-0.1-0.3-0.3-0.4-0.3-0.2-0.6-0.2-0.4 0-0.7 0.2-0.1 0.2-0.2 0.4z"/>
			</g>
		</g>
	</g>
	<g id="Layer">
		<g id="Layer">
			<g id="Layer">
				<path id="Layer" class="s5" d="m101.6 241.9h-0.3l-1.2-1.5 1-1.2 0.2-0.2h0.3l-1.2 1.4zm-0.7 0l-0.8-1-0.8 1h-0.3l1.1-1.4 1.1 1.4zm-2.3 0l1.2-1.5-1.2-1.4h0.3l1.2 1.4-1.2 1.5zm0.8-2.9l0.7 1 0.8-1h0.3l-0.1 0.1-1 1.3-1.1-1.4z"/>
			</g>
		</g>
	</g>
	<g id="Layer">
		<g id="Layer">
			<g id="Layer">
				<path id="Layer" fill-rule="evenodd" class="s5" d="m104.9 241.2q-0.2 0.3-0.5 0.5-0.4 0.2-0.8 0.2-0.3 0-0.6-0.1-0.2-0.1-0.4-0.3-0.2-0.2-0.4-0.5-0.1-0.3-0.1-0.6 0-0.3 0.1-0.6 0.1-0.2 0.4-0.4 0.2-0.2 0.4-0.4 0.3-0.1 0.6-0.1 0.4 0 0.8 0.2 0.3 0.2 0.5 0.6l-0.2 0.1q0-0.1-0.1-0.1 0-0.1-0.1-0.2-0.4-0.3-0.9-0.3-0.2 0-0.5 0.1-0.2 0.1-0.4 0.2-0.1 0.2-0.2 0.4-0.1 0.3-0.1 0.5 0 0.3 0.1 0.5 0.1 0.2 0.2 0.4 0.2 0.2 0.4 0.3 0.3 0.1 0.5 0.1 0.5 0 0.9-0.4 0.1-0.1 0.1-0.1 0.1-0.1 0.1-0.2zm-0.5-1.2q-0.1-0.2-0.3-0.3-0.2-0.1-0.5-0.1-0.4 0-0.6 0.2-0.3 0.3-0.3 0.7 0 0.2 0 0.4 0.1 0.1 0.3 0.2 0.1 0.2 0.2 0.3 0.2 0 0.4 0 0.3 0 0.5-0.1 0.2-0.1 0.3-0.3l0.2 0.1q-0.1 0.3-0.4 0.4-0.3 0.2-0.6 0.2-0.2 0-0.4-0.1-0.3-0.1-0.4-0.3-0.2-0.1-0.3-0.4-0.1-0.2-0.1-0.4 0-0.3 0.1-0.5 0.1-0.2 0.3-0.4 0.1-0.1 0.4-0.2 0.2-0.1 0.4-0.1h0.1q0.2 0 0.5 0.2 0.3 0.1 0.4 0.4z"/>
			</g>
		</g>
	</g>
	<g id="Layer">
		<g id="Layer">
			<g id="Layer">
				<path id="Layer" fill-rule="evenodd" class="s5" d="m106 240.7q0.1 0.3 0.4 0.5 0.2 0.2 0.5 0.2 0.3 0 0.5-0.2 0.2-0.1 0.3-0.3l0.2 0.2q-0.2 0.2-0.4 0.3-0.3 0.2-0.6 0.2-0.2 0-0.4-0.1-0.3-0.1-0.4-0.2-0.2-0.2-0.3-0.4-0.1-0.2-0.1-0.5h2.5q0-0.2-0.1-0.5-0.1-0.2-0.3-0.4-0.2-0.1-0.4-0.2-0.2-0.1-0.5-0.1-0.2 0-0.5 0.1-0.2 0.1-0.4 0.2-0.1 0.2-0.2 0.4-0.1 0.3-0.1 0.5 0 0.3 0.1 0.5 0.1 0.2 0.2 0.4 0.2 0.2 0.4 0.3 0.3 0.1 0.5 0.1 0.3 0 0.6-0.2 0.3-0.1 0.5-0.4l0.2 0.1q-0.3 0.4-0.6 0.5-0.3 0.2-0.7 0.2-0.3 0-0.6-0.1-0.2-0.1-0.4-0.3-0.2-0.2-0.4-0.5-0.1-0.3-0.1-0.6 0-0.3 0.1-0.6 0.1-0.2 0.4-0.4 0.2-0.2 0.4-0.4 0.3-0.1 0.6-0.1 0.3 0 0.6 0.1 0.3 0.2 0.5 0.4 0.2 0.2 0.3 0.4 0.1 0.3 0.1 0.6v0.3zm-0.3-0.3q0-0.3 0.1-0.5 0.1-0.2 0.3-0.3 0.1-0.2 0.3-0.3 0.3-0.1 0.5-0.1 0.2 0 0.5 0.1 0.2 0.1 0.3 0.3 0.2 0.1 0.3 0.3 0.1 0.2 0.1 0.5zm2.1-0.3q-0.1-0.3-0.4-0.4-0.2-0.2-0.5-0.2-0.4 0-0.7 0.2-0.2 0.2-0.2 0.4z"/>
			</g>
		</g>
	</g>
	<g id="Layer">
		<g id="Layer">
			<g id="Layer">
				<path id="Layer" fill-rule="evenodd" class="s5" d="m109.5 239.2q0.4-0.3 0.9-0.3 0.3 0 0.6 0.1 0.3 0.2 0.5 0.4 0.2 0.2 0.3 0.4 0.1 0.3 0.1 0.6 0 0.3-0.1 0.6-0.1 0.3-0.3 0.5-0.2 0.2-0.5 0.3-0.3 0.1-0.6 0.1-0.5 0-0.9-0.3v1.6h-0.3v-2.3q0.2 0.3 0.5 0.5 0.3 0.3 0.7 0.3 0.3 0 0.5-0.1 0.3-0.1 0.4-0.3 0.2-0.2 0.3-0.4 0.1-0.2 0.1-0.5 0-0.2-0.1-0.5-0.1-0.2-0.3-0.4-0.1-0.1-0.4-0.2-0.2-0.1-0.5-0.1-0.2 0-0.4 0-0.1 0.1-0.3 0.2-0.2 0.1-0.3 0.3-0.1 0.1-0.2 0.3v-1h0.3zm0.9 2.3q-0.2 0-0.4-0.1-0.3-0.1-0.4-0.2-0.2-0.2-0.3-0.4-0.1-0.2-0.1-0.5 0-0.2 0.1-0.4 0.1-0.2 0.3-0.4 0.1-0.1 0.4-0.2 0.2-0.1 0.4-0.2 0.3 0.1 0.5 0.2 0.2 0.1 0.4 0.2 0.1 0.2 0.2 0.4 0.1 0.2 0.1 0.4 0 0.3-0.1 0.5-0.1 0.2-0.2 0.4-0.2 0.1-0.4 0.2-0.2 0.1-0.5 0.1zm-1.2 1.6h-0.3v-4.2h0.3zm1.2-3.7q-0.2 0-0.3 0.1-0.2 0-0.3 0.1-0.2 0.2-0.2 0.3-0.1 0.2-0.1 0.4 0 0.2 0.1 0.4 0 0.2 0.2 0.3 0.1 0.1 0.3 0.2 0.1 0.1 0.3 0.1 0.2 0 0.4-0.1 0.1-0.1 0.3-0.2 0.1-0.1 0.2-0.3 0.1-0.2 0.1-0.4 0-0.2-0.1-0.3-0.1-0.2-0.2-0.3-0.2-0.2-0.3-0.2-0.2-0.1-0.4-0.1z"/>
			</g>
		</g>
	</g>
	<g id="Layer">
		<g id="Layer">
			<g id="Layer">
				<path id="Layer" fill-rule="evenodd" class="s5" d="m112.5 237.7h0.2v1.5h-0.5v-0.2h0.3zm0.2 1.6v1.5q0 0.1 0.1 0.3 0.1 0.2 0.2 0.3 0.1 0.1 0.3 0.2 0.2 0.1 0.4 0.1v0.2q-0.2 0-0.5-0.1-0.2-0.1-0.3-0.2-0.2-0.2-0.3-0.4-0.1-0.2-0.1-0.5v-1.2h-0.3v-0.2zm0.9 2.3q-0.1 0-0.3-0.1-0.1 0-0.2-0.1-0.2-0.2-0.2-0.3-0.1-0.2-0.1-0.3v-1.5h0.7v0.2h-0.4v1.2q0 0.3 0.1 0.5 0.2 0.2 0.5 0.2v0.2zm-0.8-2.4v-1.5h0.2v1.3h0.5v0.2z"/>
			</g>
		</g>
	</g>
	<g id="Layer">
		<g id="Layer">
			<g id="Layer">
			</g>
		</g>
	</g>
	<g id="Layer">
		<g id="Layer">
			<g id="Layer">
				<path id="Layer" fill-rule="evenodd" class="s5" d="m116 237.7h1.3q0.4 0 0.8 0.1 0.3 0.2 0.6 0.5 0.3 0.2 0.5 0.6 0.2 0.4 0.2 0.8 0 0.5-0.2 0.9-0.2 0.3-0.5 0.6-0.2 0.3-0.6 0.5-0.4 0.2-0.8 0.2h-1.3zm0.3 0.2v3.7h1q0.4 0 0.7-0.1 0.3-0.2 0.6-0.4 0.2-0.3 0.4-0.6 0.1-0.4 0.1-0.8 0-0.3-0.1-0.7-0.2-0.3-0.4-0.6-0.3-0.2-0.6-0.4-0.4-0.1-0.7-0.1zm0 0.1h1q0.3 0 0.6 0.1 0.4 0.2 0.6 0.4 0.3 0.2 0.4 0.6 0.2 0.3 0.2 0.6 0 0.4-0.2 0.8-0.1 0.3-0.4 0.5-0.2 0.3-0.6 0.4-0.3 0.1-0.6 0.1h-1zm0.3 0.3v3.1h0.7q0.3 0 0.6-0.1 0.3-0.2 0.5-0.4 0.2-0.2 0.3-0.5 0.1-0.2 0.1-0.6 0-0.3-0.1-0.6-0.1-0.2-0.3-0.5-0.3-0.2-0.5-0.3-0.3-0.1-0.6-0.1z"/>
			</g>
		</g>
	</g>
	<g id="Layer">
		<g id="Layer">
			<g id="Layer">
				<path id="Layer" fill-rule="evenodd" class="s5" d="m120.5 240.7q0 0.3 0.3 0.5 0.2 0.2 0.5 0.2 0.3 0 0.5-0.2 0.2-0.1 0.3-0.3l0.2 0.2q-0.2 0.2-0.4 0.3-0.2 0.2-0.6 0.2-0.2 0-0.4-0.1-0.2-0.1-0.4-0.2-0.1-0.2-0.2-0.4-0.1-0.2-0.1-0.5h2.4q0-0.2-0.1-0.5-0.1-0.2-0.3-0.4-0.1-0.1-0.4-0.2-0.2-0.1-0.5-0.1-0.2 0-0.4 0.1-0.3 0.1-0.4 0.2-0.2 0.2-0.3 0.4-0.1 0.3-0.1 0.5 0 0.3 0.1 0.5 0.1 0.2 0.3 0.4 0.1 0.2 0.4 0.3 0.2 0.1 0.4 0.1 0.4 0 0.7-0.2 0.2-0.1 0.4-0.4l0.2 0.1q-0.2 0.4-0.6 0.5-0.3 0.2-0.7 0.2-0.3 0-0.5-0.1-0.3-0.1-0.5-0.3-0.2-0.2-0.3-0.5-0.1-0.3-0.1-0.6 0-0.3 0.1-0.6 0.1-0.2 0.3-0.4 0.2-0.2 0.5-0.4 0.3-0.1 0.5-0.1 0.4 0 0.6 0.1 0.3 0.2 0.5 0.4 0.2 0.2 0.3 0.4 0.1 0.3 0.1 0.6v0.3zm-0.2-0.3q0-0.3 0.1-0.5 0.1-0.2 0.2-0.3 0.2-0.2 0.4-0.3 0.2-0.1 0.4-0.1 0.3 0 0.5 0.1 0.2 0.1 0.4 0.3 0.1 0.1 0.2 0.3 0.1 0.2 0.1 0.5zm2.1-0.3q-0.1-0.3-0.3-0.4-0.3-0.2-0.6-0.2-0.4 0-0.7 0.2-0.1 0.2-0.2 0.4z"/>
			</g>
		</g>
	</g>
	<g id="Layer">
		<g id="Layer">
			<g id="Layer">
				<path id="Layer" fill-rule="evenodd" class="s5" d="m125.8 239l-1 2.9h-0.4l-1-2.9h0.2l0.2 0.5 0.8 2.1 0.7-2 0.3-0.6zm-0.6 0h0.2l-0.2 0.6-0.6 1.8-0.8-2-0.1-0.4h0.2l0.7 1.7z"/>
			</g>
		</g>
	</g>
	<g id="Layer">
		<g id="Layer">
			<g id="Layer">
			</g>
		</g>
	</g>
	<g id="Layer">
		<g id="Layer">
			<g id="Layer">
				<path id="Layer" fill-rule="evenodd" class="s5" d="m132.8 237.7l-0.8 4.2h-0.4l-1.2-1.8-1.3 1.8h-0.3l-0.8-4.2h0.2l0.8 3.9 1.4-1.9 1.3 1.9h0.1l0.6-3.2 0.1-0.7zm-2.4 1.5l1.3 1.7 0.6-3.2h0.2l-0.7 3.8-1.4-1.9-1.3 1.9-0.6-3.1-0.1-0.7h0.2l0.6 3.2z"/>
			</g>
		</g>
	</g>
	<g id="Layer">
		<g id="Layer">
			<g id="Layer">
				<path id="Layer" fill-rule="evenodd" class="s5" d="m135.7 241.6q-0.4 0.3-0.9 0.3-0.3 0-0.6-0.1-0.2-0.1-0.5-0.3-0.2-0.2-0.3-0.5-0.1-0.3-0.1-0.6 0-0.3 0.1-0.6 0.1-0.2 0.3-0.4 0.3-0.2 0.5-0.4 0.3-0.1 0.6-0.1 0.5 0 0.9 0.3v-0.2h0.3v1q-0.1-0.3-0.3-0.5-0.2-0.1-0.4-0.2-0.2-0.1-0.5-0.1-0.3 0-0.5 0.1-0.2 0.1-0.4 0.2-0.2 0.2-0.3 0.4-0.1 0.3-0.1 0.5 0 0.3 0.1 0.5 0.1 0.2 0.3 0.4 0.2 0.2 0.4 0.3 0.2 0.1 0.5 0.1 0.3 0 0.5-0.1 0.2-0.1 0.4-0.3 0.2-0.2 0.3-0.4v1h-0.3zm-1.7-0.4q-0.2-0.1-0.3-0.3-0.1-0.3-0.1-0.5 0-0.2 0.1-0.5 0.1-0.2 0.3-0.3 0.1-0.2 0.3-0.3 0.3-0.1 0.5-0.1 0.3 0 0.5 0.1 0.2 0.1 0.3 0.3 0.2 0.1 0.3 0.3 0.1 0.3 0.1 0.5 0 0.2-0.1 0.5-0.1 0.2-0.3 0.3-0.1 0.2-0.3 0.3-0.2 0.1-0.5 0.1-0.2 0-0.5-0.1-0.2-0.1-0.3-0.3zm2.1-2.3h0.2v2.9h-0.2zm-2 2.1q0.3 0.3 0.7 0.3 0.2 0 0.4-0.1 0.1 0 0.3-0.2 0.1-0.1 0.2-0.3 0-0.1 0-0.3 0-0.2 0-0.4-0.1-0.1-0.2-0.3-0.2-0.1-0.3-0.2-0.2 0-0.4 0-0.2 0-0.4 0-0.1 0.1-0.3 0.2-0.1 0.2-0.2 0.3 0 0.2 0 0.4 0 0.2 0 0.3 0.1 0.2 0.2 0.3z"/>
			</g>
		</g>
	</g>
	<g id="Layer">
		<g id="Layer">
			<g id="Layer">
				<path id="Layer" class="s5" d="m136.9 237.7h0.3v4.2h-0.3zm0.6 0v4.2h-0.3v-4.2z"/>
			</g>
		</g>
	</g>
	<g id="Layer">
		<g id="Layer">
			<g id="Layer">
				<path id="Layer" class="s5" d="m138.1 237.7h0.3v4.2h-0.3zm0.6 0v4.2h-0.3v-4.2z"/>
			</g>
		</g>
	</g>
	<g id="Layer">
		<g id="Layer">
			<g id="Layer">
				<path id="Layer" fill-rule="evenodd" class="s5" d="m139.9 240.7q0.1 0.3 0.3 0.5 0.3 0.2 0.6 0.2 0.2 0 0.4-0.2 0.2-0.1 0.4-0.3l0.2 0.2q-0.2 0.2-0.4 0.3-0.3 0.2-0.6 0.2-0.2 0-0.5-0.1-0.2-0.1-0.3-0.2-0.2-0.2-0.3-0.4-0.1-0.2-0.1-0.5h2.5q0-0.2-0.1-0.5-0.1-0.2-0.3-0.4-0.2-0.1-0.4-0.2-0.2-0.1-0.5-0.1-0.3 0-0.5 0.1-0.2 0.1-0.4 0.2-0.2 0.2-0.3 0.4-0.1 0.3-0.1 0.5 0 0.3 0.1 0.5 0.1 0.2 0.3 0.4 0.2 0.2 0.4 0.3 0.2 0.1 0.5 0.1 0.3 0 0.6-0.2 0.3-0.1 0.4-0.4l0.2 0.1q-0.2 0.4-0.5 0.5-0.3 0.2-0.7 0.2-0.3 0-0.6-0.1-0.2-0.1-0.5-0.3-0.2-0.2-0.3-0.5-0.1-0.3-0.1-0.6 0-0.3 0.1-0.6 0.1-0.2 0.3-0.4 0.3-0.2 0.5-0.4 0.3-0.1 0.6-0.1 0.3 0 0.6 0.1 0.3 0.2 0.5 0.4 0.2 0.2 0.3 0.4 0.1 0.3 0.1 0.6v0.3zm-0.3-0.3q0-0.3 0.1-0.5 0.1-0.2 0.3-0.3 0.1-0.2 0.3-0.3 0.2-0.1 0.5-0.1 0.2 0 0.4 0.1 0.3 0.1 0.4 0.3 0.2 0.1 0.3 0.3 0.1 0.2 0.1 0.5zm2.1-0.3q-0.1-0.3-0.4-0.4-0.2-0.2-0.6-0.2-0.3 0-0.6 0.2-0.2 0.2-0.2 0.4z"/>
			</g>
		</g>
	</g>
	<g id="Layer">
		<g id="Layer">
			<g id="Layer">
				<path id="Layer" fill-rule="evenodd" class="s5" d="m142.9 237.7h0.2v1.5h-0.5v-0.2h0.3zm0.2 1.6v1.5q0 0.1 0.1 0.3 0.1 0.2 0.2 0.3 0.1 0.1 0.3 0.2 0.1 0.1 0.3 0.1h0.1v0.2q-0.3 0-0.5-0.1-0.2-0.1-0.4-0.2-0.1-0.2-0.2-0.4-0.1-0.2-0.1-0.5v-1.2h-0.3v-0.2zm0.9 2.3q-0.2 0-0.3-0.1-0.2 0-0.3-0.1-0.1-0.2-0.1-0.3-0.1-0.2-0.1-0.3v-1.5h0.7v0.2h-0.5v1.2q0 0.3 0.2 0.5 0.2 0.2 0.5 0.2v0.2zm-0.9-2.4v-1.5h0.3v1.3h0.4v0.2z"/>
			</g>
		</g>
	</g>
</svg>