<svg xmlns="http://www.w3.org/2000/svg" viewBox="0 0 253.51 253.51"><defs><style>.cls-1{fill:#cfe7d7;stroke-width:5px;}.cls-1,.cls-3{stroke:#000;}.cls-2{fill:#114da1;}.cls-3{fill:none;}.cls-4,.cls-5{fill:#e6e7e8;stroke:#231f20;stroke-miterlimit:10;}.cls-4{stroke-width:2px;}.cls-6{fill:#231f20;}.cls-7{fill:#253140;}.cls-8{fill:#55bd85;}.cls-9{fill:#93c99b;}.cls-10{fill:#d85c91;}</style></defs><g id="Layer_2" data-name="Layer 2"><g id="Layer_1-2" data-name="Layer 1"><rect class="cls-1" x="2.5" y="2.5" width="248.51" height="248.51"/><rect class="cls-2" x="8.36" y="8.36" width="236.8" height="62.45"/><rect class="cls-3" x="8.36" y="8.36" width="236.8" height="62.45"/><rect class="cls-4" x="122.32" y="86.45" width="48.36" height="108.81"/><rect class="cls-4" x="170.68" y="119.5" width="25.32" height="75.75"/><rect class="cls-5" x="133.14" y="97.93" width="7.98" height="11.46"/><rect class="cls-5" x="154.7" y="97.93" width="7.98" height="11.46"/><rect class="cls-5" x="133.43" y="147.45" width="7.98" height="11.46"/><rect class="cls-5" x="133.14" y="169.58" width="7.98" height="11.46"/><rect class="cls-5" x="154.99" y="147.45" width="7.98" height="11.46"/><rect class="cls-5" x="154.7" y="169.58" width="7.98" height="11.46"/><rect class="cls-5" x="133.43" y="122.69" width="7.98" height="11.46"/><rect class="cls-5" x="154.99" y="122.69" width="7.98" height="11.46"/><path class="cls-6" d="M125.36,123c1.08-.43,2.12-.85,3.15-1.28a51.67,51.67,0,0,1,18.1-3.58c2.25-.08,3.23,1.38,2.22,3.6a77.21,77.21,0,0,0-2.91,7.28,55.73,55.73,0,0,0-1.78,6.83c-.77,3.79-3.25,5.68-6.77,6.57-.31.07-.62.15-.93.19a4.52,4.52,0,0,0-4,3.28,7.24,7.24,0,0,1-8.77,4.29,1.75,1.75,0,0,0-2.41,1.13,36.81,36.81,0,0,1-10.1,12.48c-2,1.63-1.87,3.33.34,4.66,5.34,3.2,10.79,6.22,15.94,9.71a19.44,19.44,0,0,1,8.35,12.3A5.28,5.28,0,0,1,131,197c-.31,0-.63,0-.94,0H65.41c-3.76,0-6.52-2.59-5.75-5.78a27.7,27.7,0,0,1,2.91-7.36c2.24-3.86,5.84-6.37,9.63-8.59,4.11-2.41,8.23-4.78,12.34-7.2a2.41,2.41,0,0,0,.22-4,39.51,39.51,0,0,1-10.82-13.3,1.68,1.68,0,0,0-1.4-.67c-5.25.82-8.16-.81-10.18-5.66a3.07,3.07,0,0,0-1.58-1.45c-2-.83-4.17-1.35-6.14-2.27a5.75,5.75,0,0,1-3.07-4.33,66.55,66.55,0,0,0-5-14.84c-.94-1.94-.07-3.3,2.08-3.28a48,48,0,0,1,20.55,4.52,4.29,4.29,0,0,0,.72.22c3.89-15.69,13.56-24.43,30-23.82C111,99.53,122.68,107.71,125.36,123Z"/><path class="cls-7" d="M126.09,192.66c1.41,0,2.83.06,4.24.07,1.17,0,1.56-.53,1.29-1.72-1.18-5-4.44-8.45-8.69-11-5.09-3.08-10.27-6-15.42-9a2.88,2.88,0,0,1-1.73-2.6,3.69,3.69,0,0,0-.27-1l-5.57,1.43H95.48l-.29,0-5.54-1.5c.66,2.61-1.18,3.38-2.77,4.31-4.43,2.6-8.88,5.15-13.31,7.74-4.26,2.51-7.8,5.69-9.43,10.54-.84,2.49-.52,2.87,2.06,2.87h58.32C125,192.74,125.57,192.69,126.09,192.66Z"/><path class="cls-7" d="M91.48,104.19a6.56,6.56,0,0,0-1.08.17,23.7,23.7,0,0,0-16.33,21.79c0,3.61.32,7.22.51,10.83.5,9.37,4.63,17,11.59,23,3.34,2.91,7.19,4.88,11.85,4.57,1.69-.28,3.51-.25,5-.89,8.7-3.64,13.72-10.67,16.57-19.25,1.87-5.6,1.79-11.57,1.8-17.46a22.87,22.87,0,0,0-4.86-14.48,22.28,22.28,0,0,0-15.74-9l-.91-.17-1.28-.06-1.88,0-1.58.13-2.83.48Z"/><path class="cls-7" d="M142.81,124.51c-1.54.83-2.75,1.47-3.95,2.14a53.89,53.89,0,0,0-12.39,8.79,4.74,4.74,0,0,0-1.36,2c-.55,2.45-.85,4.95-1.37,7.41-.23,1.06.22,1.32,1.08,1.42a3.78,3.78,0,0,0,4.14-2.68c.72-3.22,3-4.32,5.81-4.88s5.63-1.6,5.57-5.38a2.29,2.29,0,0,1,.18-.6C141.24,130.16,142,127.56,142.81,124.51Z"/><path class="cls-7" d="M52.68,124.85c.12.51.19.9.31,1.28.69,2.25,1.82,4.46,2,6.74.29,4.1,2.76,5.34,6.2,6,2.66.49,4.78,1.66,5.34,4.74a3.83,3.83,0,0,0,4.11,2.72c.86-.1,1.32-.38,1.07-1.43a27.21,27.21,0,0,1-.94-5.24c-.08-2.48-1.42-4-3.12-5.52a75.94,75.94,0,0,0-14.21-9.17A2.83,2.83,0,0,0,52.68,124.85Z"/><path class="cls-7" d="M125.68,130.35l9.07-6.27-.24-.41c-2.45,1.08-4.9,2.18-7.37,3.21C125.51,127.56,125.22,128.72,125.68,130.35Z"/><path class="cls-7" d="M61.29,124.47l8.8,6.18c-.24-1.26-.11-2.53-.63-2.9A15.58,15.58,0,0,0,61.29,124.47Z"/><path class="cls-8" d="M98,164.59c-4.66.31-8.51-1.66-11.85-4.57-7-6.08-11.09-13.67-11.59-23-.19-3.61-.53-7.22-.51-10.83A23.7,23.7,0,0,1,90.4,104.36a6.56,6.56,0,0,1,1.08-.17l.87-.32,2.83-.48,1.58-.13,1.88,0,1.28.06.91.17a35.56,35.56,0,0,1,4.46,3,29,29,0,0,1,6.8,8,23,23,0,0,1,3,11c0,1.72,0,3.45,0,5.18-4.3,0-8.59,0-12.89.06-1.77,0-2.48.74-2.51,2.48a8.65,8.65,0,0,0,8.37,8.64,10.22,10.22,0,0,0,6.31-2.38c-.38,1.9-.61,3.85-1.17,5.7A33.69,33.69,0,0,1,98,164.59ZM87.35,130.68c-2,0-4.08,0-6.13,0-1.84,0-2.63.91-2.61,2.76a8.71,8.71,0,0,0,8.51,8.38,8.57,8.57,0,0,0,8.68-8.15c.08-2.31-.57-3-2.94-3C91,130.67,89.19,130.68,87.35,130.68Z"/><path class="cls-8" d="M95.48,168.81h4.46a5.58,5.58,0,0,1,.57,1.58c0,1.07,0,2.07,1.29,2.49.21.06.31.48.47.74-.71,1.78-1.36,3.59-2.13,5.35a1.93,1.93,0,0,0,.93,2.75A2.1,2.1,0,0,0,104,180.5l2.15-4.62a6.24,6.24,0,0,1,1.3.45c3.19,1.89,6.37,3.81,9.56,5.71a20.11,20.11,0,0,1,9.1,10.62c-.52,0-1,.08-1.57.08H66.2c-2.58,0-2.9-.38-2.06-2.87,1.63-4.85,5.17-8,9.43-10.54,4.43-2.59,8.88-5.14,13.31-7.74,1.59-.93,3.43-1.7,2.77-4.31l5.54,1.5Zm-18.6,19.68a11.54,11.54,0,0,0,2.08.33c3.6,0,7.21-.1,10.82-.17a12.91,12.91,0,0,1,2.39,1.51c1,.93,1.89,1.33,3,.6s1.14-1.93.23-3.17a7.19,7.19,0,0,0-6-3.17c-3.82,0-7.65,0-11.48,0-1.19,0-2.23.18-2.59,1.51S75.83,188,76.88,188.49Zm34.86-4.07h0c-2,0-4.09-.05-6.14,0a7.06,7.06,0,0,0-5.81,3.48,2,2,0,0,0,3.31,2.38,4.3,4.3,0,0,1,4.07-1.83q5.27.06,10.53,0c1.53,0,2.54-.89,2.52-2s-1-2-2.51-2C115.72,184.4,113.73,184.42,111.74,184.42Zm-18.8-2.54c1.89,0,2.84-1.08,2.37-2.48-.65-1.92-1.46-3.8-2.28-5.66a1.93,1.93,0,0,0-2.65-1.26,2,2,0,0,0-1.12,2.88,49.67,49.67,0,0,0,2.36,5.46C91.9,181.38,92.68,181.68,92.94,181.88Z"/><path class="cls-8" d="M98,164.59a33.69,33.69,0,0,0,15.13-19.43c.56-1.85.79-3.8,1.17-5.7a36.15,36.15,0,0,0,2.31-4.67c.72-2.11.22-3.09-1.59-4.13,0-1.73,0-3.46,0-5.18a23,23,0,0,0-3-11,29,29,0,0,0-6.8-8,35.56,35.56,0,0,0-4.46-3,22.28,22.28,0,0,1,15.74,9A22.87,22.87,0,0,1,121.43,127c0,5.89.07,11.86-1.8,17.46-2.85,8.58-7.87,15.61-16.57,19.25C101.53,164.34,99.71,164.31,98,164.59Z"/><path class="cls-8" d="M102.27,173.62c-.16-.26-.26-.68-.47-.74-1.28-.42-1.25-1.42-1.29-2.49a5.58,5.58,0,0,0-.57-1.58l5.57-1.43a3.69,3.69,0,0,1,.27,1,2.88,2.88,0,0,0,1.73,2.6c5.15,3,10.33,6,15.42,9,4.25,2.58,7.51,6,8.69,11,.27,1.19-.12,1.72-1.29,1.72-1.41,0-2.83,0-4.24-.07A20.11,20.11,0,0,0,117,182c-3.19-1.9-6.37-3.82-9.56-5.71a6.24,6.24,0,0,0-1.3-.45c-.12-1,.08-2.19-.42-2.91C104.93,171.85,103.7,172.19,102.27,173.62Z"/><path class="cls-9" d="M142.81,124.51c-.85,3-1.57,5.65-2.29,8.25a2.29,2.29,0,0,0-.18.6c.06,3.78-2.57,4.79-5.57,5.38s-5.09,1.66-5.81,4.88a3.78,3.78,0,0,1-4.14,2.68c-.86-.1-1.31-.36-1.08-1.42.52-2.46.82-5,1.37-7.41a4.74,4.74,0,0,1,1.36-2,53.89,53.89,0,0,1,12.39-8.79C140.06,126,141.27,125.34,142.81,124.51Z"/><path class="cls-9" d="M52.68,124.85a2.83,2.83,0,0,1,.75.09,75.94,75.94,0,0,1,14.21,9.17c1.7,1.47,3,3,3.12,5.52a27.21,27.21,0,0,0,.94,5.24c.25,1-.21,1.33-1.07,1.43a3.83,3.83,0,0,1-4.11-2.72c-.56-3.08-2.68-4.25-5.34-4.74-3.44-.63-5.91-1.87-6.2-6-.17-2.28-1.3-4.49-2-6.74C52.87,125.75,52.8,125.36,52.68,124.85Z"/><path class="cls-9" d="M125.68,130.35c-.46-1.63-.17-2.79,1.46-3.47,2.47-1,4.92-2.13,7.37-3.21l.24.41Z"/><path class="cls-9" d="M61.29,124.47a15.58,15.58,0,0,1,8.17,3.28c.52.37.39,1.64.63,2.9Z"/><path class="cls-9" d="M96.76,103.26l-1.58.13Z"/><path class="cls-9" d="M99.92,103.35l-1.28-.06Z"/><path class="cls-9" d="M92.35,103.87l-.87.32Z"/><path class="cls-9" d="M95.48,168.81l-.29,0Z"/><path class="cls-6" d="M87.35,130.68c1.84,0,3.67,0,5.51,0,2.37,0,3,.69,2.94,3a8.57,8.57,0,0,1-8.68,8.15,8.71,8.71,0,0,1-8.51-8.38c0-1.85.77-2.73,2.61-2.76C83.27,130.65,85.31,130.68,87.35,130.68ZM90.88,135H83.61A4.12,4.12,0,0,0,90.88,135Z"/><path class="cls-6" d="M115,130.66c1.81,1,2.31,2,1.59,4.13a36.15,36.15,0,0,1-2.31,4.67,10.22,10.22,0,0,1-6.31,2.38,8.65,8.65,0,0,1-8.37-8.64c0-1.74.74-2.46,2.51-2.48C106.45,130.68,110.74,130.68,115,130.66ZM111.82,135h-7.21C105.53,137.89,110.75,137.83,111.82,135Z"/><path class="cls-6" d="M111.74,184.42c2,0,4,0,6,0,1.52,0,2.49.82,2.51,2s-1,2-2.52,2q-5.26.06-10.53,0a4.3,4.3,0,0,0-4.07,1.83,2,2,0,0,1-3.31-2.38,7.06,7.06,0,0,1,5.81-3.48c2.05-.07,4.09,0,6.14,0Z"/><path class="cls-6" d="M76.88,188.49c-1-.53-1.86-1.24-1.51-2.57s1.4-1.52,2.59-1.51c3.83,0,7.66,0,11.48,0a7.19,7.19,0,0,1,6,3.17c.91,1.24.82,2.51-.23,3.17s-2.1.33-3-.6a12.91,12.91,0,0,0-2.39-1.51c-.13-.08-.26-.23-.39-.23Q83.14,188.44,76.88,188.49Z"/><path class="cls-8" d="M102.27,173.62c1.43-1.43,2.66-1.77,3.44-.65.5.72.3,1.92.42,2.91L104,180.5a2.1,2.1,0,0,1-2.91,1.22,1.93,1.93,0,0,1-.93-2.75C100.91,177.21,101.56,175.4,102.27,173.62Z"/><path class="cls-8" d="M92.94,181.88c-.26-.2-1-.5-1.32-1.06a49.67,49.67,0,0,1-2.36-5.46,2,2,0,0,1,1.12-2.88A1.93,1.93,0,0,1,93,173.74c.82,1.86,1.63,3.74,2.28,5.66C95.78,180.8,94.83,181.92,92.94,181.88Z"/><path class="cls-9" d="M76.88,188.49q6.25,0,12.51-.07c.13,0,.26.15.39.23-3.61.07-7.22.15-10.82.17A11.54,11.54,0,0,1,76.88,188.49Z"/><path class="cls-10" d="M90.88,135a4.12,4.12,0,0,1-7.27,0Z"/><path class="cls-10" d="M111.82,135c-1.07,2.82-6.29,2.88-7.21,0Z"/><path class="cls-6" d="M58.37,40.15V38.91h11.3l0,1.42a11.25,11.25,0,0,1-1.51,5.72,11.6,11.6,0,0,1-4.13,4.19l-.37.18a11.1,11.1,0,0,1-5.32,1.35,11.58,11.58,0,0,1-3-.4,11.05,11.05,0,0,1-2.71-1.15,11.72,11.72,0,0,1-2.31-1.79,10.08,10.08,0,0,1-1.79-2.35l-.22-.36a11,11,0,0,1-1-2.53A11.25,11.25,0,0,1,47,40.47a11.45,11.45,0,0,1,.4-3,12.25,12.25,0,0,1,1.13-2.74,11.74,11.74,0,0,1,1.77-2.33,11.1,11.1,0,0,1,2.35-1.82l.36-.18a11.1,11.1,0,0,1,5.32-1.35h0a11,11,0,0,1,5.28,1.35l.37.18a12.59,12.59,0,0,1,2.33,1.79l-.88.87a9.43,9.43,0,0,0-1.33-1.11,10.11,10.11,0,0,0-1.55-.89l-.14-.08a9.77,9.77,0,0,0-4.05-.87h-.07a10,10,0,0,0-4.73,1.17l-.33.18a10,10,0,0,0-5,8.7,10.12,10.12,0,0,0,1.17,4.78l.18.33a10.12,10.12,0,0,0,3.66,3.69,9.82,9.82,0,0,0,5.08,1.37,9.71,9.71,0,0,0,4.74-1.2l.33-.19a9.74,9.74,0,0,0,3.66-3.66,10,10,0,0,0,1.36-5.12v-.21H58.37Zm0,1.64V40.55h9.69A7.35,7.35,0,0,1,68,41.89l0,.11a9.71,9.71,0,0,1-1.13,3.19,9.69,9.69,0,0,1-5,4.28,9.33,9.33,0,0,1-3.41.62,9.45,9.45,0,0,1-3.71-.74,9.79,9.79,0,0,1-5.2-5.11,9.67,9.67,0,0,1,0-7.61,10.38,10.38,0,0,1,2.1-3.08,9.82,9.82,0,0,1,3.08-2.07,9.3,9.3,0,0,1,3.73-.77h.07A11.78,11.78,0,0,1,62,31.4a9,9,0,0,1,3.22,2.15l-.87.88a8.44,8.44,0,0,0-2.74-1.83,8.32,8.32,0,0,0-3.2-.65h0a8.14,8.14,0,0,0-3.29.67,8.52,8.52,0,0,0-4.5,4.54,8.18,8.18,0,0,0-.66,3.28,8.05,8.05,0,0,0,.67,3.28,8.58,8.58,0,0,0,1.83,2.67,8.36,8.36,0,0,0,5.95,2.46,8.36,8.36,0,0,0,7.29-4.19,8.74,8.74,0,0,0,1-2.87Z"/><path class="cls-6" d="M85.73,49.36a7.91,7.91,0,0,1-2.51,1.7,7.64,7.64,0,0,1-3,.6,7.44,7.44,0,0,1-3-.62,8.05,8.05,0,0,1-2.46-1.69,8.39,8.39,0,0,1-1.67-2.48,7.69,7.69,0,0,1,0-6,8.05,8.05,0,0,1,1.69-2.46,8.18,8.18,0,0,1,2.48-1.66,7.66,7.66,0,0,1,6,0,7.93,7.93,0,0,1,2.48,1.68,8.18,8.18,0,0,1,1.68,2.47,7.48,7.48,0,0,1,.62,3,7.78,7.78,0,0,1-.59,3A7.38,7.38,0,0,1,85.73,49.36Zm-.87-.87a6.28,6.28,0,0,0,1.42-2.05,6.39,6.39,0,0,0,.51-2.56,6.24,6.24,0,0,0-.51-2.52,6.6,6.6,0,0,0-1.41-2.08,6.75,6.75,0,0,0-2.09-1.41,6.46,6.46,0,0,0-5.08,0,6.74,6.74,0,0,0-2.08,1.4,6.56,6.56,0,0,0-1.4,2.09,6.4,6.4,0,0,0-.51,2.54,6.21,6.21,0,0,0,.53,2.58,6.41,6.41,0,0,0,1.42,2.07,6.7,6.7,0,0,0,2.07,1.38,6.28,6.28,0,0,0,2.5.51,6.44,6.44,0,0,0,2.57-.51A6.28,6.28,0,0,0,84.86,48.49ZM80.23,50a5.89,5.89,0,0,1-2.4-.49,6,6,0,0,1-2-1.33,6.34,6.34,0,0,1-1.3-1.95,6.11,6.11,0,0,1,0-4.7,6.34,6.34,0,0,1,1.3-1.95,6.13,6.13,0,0,1,2-1.33,6.17,6.17,0,0,1,4.82,0,6.61,6.61,0,0,1,1.95,1.33,6,6,0,0,1,1.31,1.95,5.88,5.88,0,0,1,.48,2.35,6,6,0,0,1-.48,2.39,5.84,5.84,0,0,1-1.31,1.93,6.58,6.58,0,0,1-2,1.31A5.89,5.89,0,0,1,80.23,50Zm0-1.24a4.69,4.69,0,0,0,1.91-.38,5,5,0,0,0,1.57-1,4.92,4.92,0,0,0,1.05-1.57,4.66,4.66,0,0,0,.39-1.88A4.61,4.61,0,0,0,84.76,42a4.81,4.81,0,0,0-1.05-1.57,5,5,0,0,0-1.57-1.06,4.91,4.91,0,0,0-3.79,0,5.07,5.07,0,0,0-1.56,1.06A5,5,0,0,0,75.73,42a4.77,4.77,0,0,0-.38,1.87,4.82,4.82,0,0,0,.38,1.88,5.12,5.12,0,0,0,1.06,1.57,5,5,0,0,0,1.56,1A4.65,4.65,0,0,0,80.23,48.74Z"/><path class="cls-6" d="M91.67,51.37H90.39V29.47h1.24V43.86Zm1.64,0H92V46.16a6.51,6.51,0,0,0,6.12,4.26,6.6,6.6,0,0,0,4.65-1.91,6.58,6.58,0,0,0,1.4-2.07,6.39,6.39,0,0,0,.51-2.56,6.24,6.24,0,0,0-.51-2.52,6.55,6.55,0,0,0-3.5-3.49,6.49,6.49,0,0,0-4.55-.22,6.66,6.66,0,0,0-1.77.88A6.79,6.79,0,0,0,93,39.89,6.3,6.3,0,0,0,92,41.57l0-12.1h1.27l0,8.34a7.73,7.73,0,0,1,7.88-1.09,7.95,7.95,0,0,1,4.14,4.14,7.36,7.36,0,0,1,.62,3,7.44,7.44,0,0,1-.62,3,8.27,8.27,0,0,1-1.69,2.48,8.11,8.11,0,0,1-2.5,1.69,7.62,7.62,0,0,1-7.87-1.13ZM98.17,50a6.14,6.14,0,0,1-2.39-.47,6.24,6.24,0,0,1-2-1.31,6,6,0,0,1-1.31-2A6,6,0,0,1,92,43.86a6,6,0,0,1,.48-2.37,5.69,5.69,0,0,1,1.31-1.94,6.63,6.63,0,0,1,2-1.32,6,6,0,0,1,2.39-.49,6.06,6.06,0,0,1,2.43.49,6.44,6.44,0,0,1,1.94,1.33,6.14,6.14,0,0,1,1.29,1.95,5.88,5.88,0,0,1,.48,2.35,6,6,0,0,1-.48,2.39,6.14,6.14,0,0,1-1.29,2,5.92,5.92,0,0,1-2,1.31A6.27,6.27,0,0,1,98.17,50Zm0-1.24a4.57,4.57,0,0,0,1.87-.38,5,5,0,0,0,1.56-1,4.72,4.72,0,0,0,1.07-1.55,4.54,4.54,0,0,0,.4-1.91,4.46,4.46,0,0,0-.4-1.87A5.07,5.07,0,0,0,100,39.36,4.74,4.74,0,0,0,98.17,39a4.81,4.81,0,0,0-1.87.38A4.92,4.92,0,0,0,93.71,42a4.57,4.57,0,0,0-.4,1.91,4.86,4.86,0,0,0,.38,1.91,4.53,4.53,0,0,0,1,1.55,5,5,0,0,0,1.56,1A4.63,4.63,0,0,0,98.17,48.74Z"/><path class="cls-6" d="M108.24,29.47h1.24v21.9h-1.24Zm2.88,0v21.9h-1.24V29.47Z"/><path class="cls-6" d="M116.19,29.29a1.71,1.71,0,0,1,1.25.52,1.74,1.74,0,0,1,0,2.5,1.74,1.74,0,0,1-1.25.51,1.68,1.68,0,0,1-1.24-.51,1.79,1.79,0,0,1,0-2.5A1.65,1.65,0,0,1,116.19,29.29Zm-1.42,22.08v-15H116v15Zm1.42-21.13a.75.75,0,0,0-.55.23.8.8,0,0,0-.22.57.76.76,0,0,0,.22.56.72.72,0,0,0,.55.24.76.76,0,0,0,.56-.24A.74.74,0,0,0,117,31a.8.8,0,0,0-.8-.8Zm0,.43c.26,0,.4.13.4.37s-.14.36-.4.36a.32.32,0,0,1-.37-.36A.33.33,0,0,1,116.19,30.67Zm.22,5.69h1.23v15h-1.23Z"/><path class="cls-6" d="M122.12,51.37h-1.23v-15h1.23v15Zm1.64-14.14a6.06,6.06,0,0,1,1.73-.85,6.86,6.86,0,0,1,1.92-.28,6.23,6.23,0,0,1,2.49.51A6.71,6.71,0,0,1,132,38a6.43,6.43,0,0,1,1.4,2.06,6.28,6.28,0,0,1,.51,2.53v8.78h-1.24V42.61a4.89,4.89,0,0,0-.42-2,5.64,5.64,0,0,0-1.13-1.68,5.3,5.3,0,0,0-1.65-1.14,5,5,0,0,0-2-.42,5,5,0,0,0-3,.9,5.81,5.81,0,0,0-1.94,2.27V36.36h1.24Zm8.49,14.14H131V42.59a3.3,3.3,0,0,0-.29-1.39,3.5,3.5,0,0,0-.78-1.14,3.86,3.86,0,0,0-1.15-.79,3.45,3.45,0,0,0-1.38-.29,3.5,3.5,0,0,0-1.42.29,3.86,3.86,0,0,0-1.15.79,3.69,3.69,0,0,0-.79,1.14,3.46,3.46,0,0,0-.29,1.39v8.78h-1.24V42.59a4.65,4.65,0,0,1,.39-1.9,4.91,4.91,0,0,1,2.58-2.57,4.94,4.94,0,0,1,1.92-.38,4.77,4.77,0,0,1,1.87.38,4.91,4.91,0,0,1,1.55,1,5.06,5.06,0,0,1,1,1.53,4.81,4.81,0,0,1,.38,1.9Z"/><path class="cls-6" d="M145.69,29.47h1.24V37.6H144.2V36.36h1.49ZM146.93,38v7.57a4.52,4.52,0,0,0,.37,1.84,4.84,4.84,0,0,0,1,1.52,5,5,0,0,0,1.47,1,4.48,4.48,0,0,0,1.83.44h.25v1.24a5.85,5.85,0,0,1-2.35-.49,6.52,6.52,0,0,1-2-1.35,6.32,6.32,0,0,1-1.34-2,5.7,5.7,0,0,1-.5-2.35V39.24H144.2V38Zm.44-.4V29.47h1.24v6.89h2.48V37.6ZM151.63,50A4.52,4.52,0,0,1,150,49.6a4.33,4.33,0,0,1-1.36-1,4.42,4.42,0,0,1-.91-1.38,4.33,4.33,0,0,1-.33-1.7V38h3.72v1.24h-2.48V45.5a3.23,3.23,0,0,0,3.24,3.24V50Z"/><path class="cls-6" d="M166.93,49.36a7.8,7.8,0,0,1-2.51,1.7,7.6,7.6,0,0,1-3,.6,7.36,7.36,0,0,1-3-.62A7.82,7.82,0,0,1,156,49.35a8.24,8.24,0,0,1-1.68-2.48,7.69,7.69,0,0,1,0-6,7.91,7.91,0,0,1,1.7-2.46,8,8,0,0,1,2.47-1.66,7.68,7.68,0,0,1,6,0,8,8,0,0,1,2.47,1.68,7.84,7.84,0,0,1,1.68,2.47,7.48,7.48,0,0,1,.62,3,7.78,7.78,0,0,1-.59,3A7.1,7.1,0,0,1,166.93,49.36Zm-.87-.87a6.13,6.13,0,0,0,1.42-2.05,6.39,6.39,0,0,0,.51-2.56,6.24,6.24,0,0,0-.51-2.52,6.74,6.74,0,0,0-1.4-2.08,6.92,6.92,0,0,0-2.1-1.41,6.46,6.46,0,0,0-5.08,0,6.74,6.74,0,0,0-2.08,1.4,6.56,6.56,0,0,0-1.4,2.09,6.52,6.52,0,0,0,1.44,7.19,6.75,6.75,0,0,0,2.08,1.38,6.23,6.23,0,0,0,2.49.51,6.44,6.44,0,0,0,2.57-.51A6.17,6.17,0,0,0,166.06,48.49ZM161.43,50a5.89,5.89,0,0,1-2.4-.49,6,6,0,0,1-1.95-1.33,6.34,6.34,0,0,1-1.3-1.95,6.11,6.11,0,0,1,0-4.7,6.34,6.34,0,0,1,1.3-1.95A6.13,6.13,0,0,1,159,38.23a6.17,6.17,0,0,1,4.82,0,6.48,6.48,0,0,1,2,1.33,6.22,6.22,0,0,1,1.32,1.95,6,6,0,0,1,.47,2.35,6.14,6.14,0,0,1-.47,2.39,6,6,0,0,1-1.32,1.93,6.66,6.66,0,0,1-2,1.31A6,6,0,0,1,161.43,50Zm0-1.24a4.69,4.69,0,0,0,1.91-.38,5,5,0,0,0,1.57-1A5.12,5.12,0,0,0,166,45.74a4.82,4.82,0,0,0,.38-1.88A4.77,4.77,0,0,0,166,42a5,5,0,0,0-2.63-2.63,4.86,4.86,0,0,0-1.91-.38,4.77,4.77,0,0,0-1.87.38A5,5,0,0,0,156.93,42a4.77,4.77,0,0,0-.38,1.87,4.82,4.82,0,0,0,.38,1.88A5.12,5.12,0,0,0,158,47.31a5,5,0,0,0,1.57,1A4.6,4.6,0,0,0,161.43,48.74Z"/><path class="cls-6" d="M177.9,51.37h-2l-5.36-15h1.28L173,39.85l3.64,10.28h.4l4.23-11.84,4.22,11.84h.4l3.75-10.6,1.13-3.17h1.28l-5.36,15h-2l-3.38-9.55Zm-4.34-15,3.32,9.25,3.28-9.25h2.26l3.27,9.25L189,36.36h1.35l-1.06,3-3.61,10.06L181.47,37.6h-.37l-4.22,11.84-3.46-9.73-1.2-3.35Z"/><path class="cls-6" d="M196.22,51.37H195v-15h1.24v15Zm1.64-14.14a6.06,6.06,0,0,1,1.73-.85,6.84,6.84,0,0,1,1.91-.28,6.25,6.25,0,0,1,2.5.51A6.71,6.71,0,0,1,206.08,38a6.43,6.43,0,0,1,1.4,2.06,6.28,6.28,0,0,1,.51,2.53v8.78h-1.24V42.61a4.89,4.89,0,0,0-.42-2,5.64,5.64,0,0,0-1.13-1.68,5.23,5.23,0,0,0-1.66-1.14,5.24,5.24,0,0,0-5,.48,5.86,5.86,0,0,0-1.93,2.27V36.36h1.24Zm8.49,14.14h-1.24V42.59a3.46,3.46,0,0,0-.29-1.39,3.67,3.67,0,0,0-.78-1.14,3.86,3.86,0,0,0-1.15-.79A3.46,3.46,0,0,0,201.5,39a3.53,3.53,0,0,0-1.42.29,3.81,3.81,0,0,0-1.14.79,3.69,3.69,0,0,0-.79,1.14,3.46,3.46,0,0,0-.29,1.39v8.78h-1.24V42.59a4.65,4.65,0,0,1,.39-1.9,4.82,4.82,0,0,1,2.58-2.57,4.9,4.9,0,0,1,1.91-.38,4.78,4.78,0,0,1,1.88.38,4.91,4.91,0,0,1,1.55,1,5.06,5.06,0,0,1,1,1.53,4.81,4.81,0,0,1,.38,1.9Z"/><path class="cls-6" d="M35.58,236.21v-19H32.81L33.1,216h3.72v20.26Zm2.88-21.9v21.9H37.22V215.55h-4l.33-1.24Z"/><path class="cls-6" d="M43.49,233a1.81,1.81,0,0,1,1.78,1.78v1a2.38,2.38,0,0,1-.75,1.78,2.46,2.46,0,0,1-1.8.73v-1a1.44,1.44,0,0,0,1.49-1.46v-1a.7.7,0,0,0-.22-.51.69.69,0,0,0-.5-.21.67.67,0,0,0-.5.21.76.76,0,0,0-.2.51.68.68,0,0,0,.7.7.42.42,0,0,0,.29-.08v.37a1.08,1.08,0,0,1-.28.75,1,1,0,0,1-.78.3v-.47a1.75,1.75,0,0,1-.71-.64,1.66,1.66,0,0,1-.27-.93,1.74,1.74,0,0,1,.51-1.25A1.66,1.66,0,0,1,43.49,233Zm0,1.38a.36.36,0,0,1,.4.4c0,.25-.14.37-.4.37a.32.32,0,0,1-.37-.37C43.12,234.56,43.24,234.42,43.49,234.42Z"/><path class="cls-6" d="M54.27,217.16l-1,5.21a8.59,8.59,0,0,1,2.92-.51,7.84,7.84,0,0,1,3,.56A7,7,0,0,1,61.61,224a7.61,7.61,0,0,1,1.58,2.38,7.37,7.37,0,0,1,.59,2.93,6.79,6.79,0,0,1-.61,2.85,7.66,7.66,0,0,1-1.6,2.34,7.5,7.5,0,0,1-2.35,1.59,7,7,0,0,1-2.84.58,7.19,7.19,0,0,1-2.15-.33,7.53,7.53,0,0,1-2-.92,7.26,7.26,0,0,1-2.73-3.34l1.13-.47a7.18,7.18,0,0,0,2.3,2.79,5.74,5.74,0,0,0,3.42,1,5.81,5.81,0,0,0,2.39-.49,6.35,6.35,0,0,0,3.28-3.28,5.85,5.85,0,0,0,.49-2.35,6.86,6.86,0,0,0-.37-2.2,5.74,5.74,0,0,0-3.09-3.46,6.66,6.66,0,0,0-2.88-.57,8.42,8.42,0,0,0-2.5.41,5.1,5.1,0,0,0-2.13,1.23c.22-1.43.48-2.9.79-4.39s.6-3,.89-4.42H61.7v1.24Zm6.19-1.61H52.88c-.29,1.6-.59,3.17-.89,4.72s-.6,3.11-.89,4.68l.27.13.24.13a6.62,6.62,0,0,1,2.13-1.28,7.08,7.08,0,0,1,2.46-.43,6.27,6.27,0,0,1,2.38.43,5.52,5.52,0,0,1,1.86,1.22A5.62,5.62,0,0,1,61.66,227a6.13,6.13,0,0,1,.44,2.31,5.34,5.34,0,0,1-.46,2.21,5.85,5.85,0,0,1-1.23,1.82,6.1,6.1,0,0,1-1.83,1.24,5.45,5.45,0,0,1-2.2.45,5.85,5.85,0,0,1-3.21-1,5.28,5.28,0,0,1-2.11-2.64l1.13-.44,0,.07a4.23,4.23,0,0,0,1.66,2,4.49,4.49,0,0,0,4.22.4,4.13,4.13,0,0,0,1.42-1,5,5,0,0,0,1-1.42,4.18,4.18,0,0,0,.36-1.75,5.46,5.46,0,0,0-.25-1.62,4.3,4.3,0,0,0-.8-1.47,4.2,4.2,0,0,0-1.44-1.08,5.09,5.09,0,0,0-2.17-.42,6.41,6.41,0,0,0-2.1.37,4.21,4.21,0,0,0-1.76,1.16l-.44.48-2.19-1.1,2.15-11.33H61.7v1.24Z"/><path class="cls-6" d="M71.54,217.16l-1,5.21a8.59,8.59,0,0,1,2.92-.51,7.84,7.84,0,0,1,3,.56A7.15,7.15,0,0,1,78.88,224a7.79,7.79,0,0,1,1.58,2.38,7.37,7.37,0,0,1,.58,2.93,6.94,6.94,0,0,1-.6,2.85,7.66,7.66,0,0,1-1.6,2.34,7.5,7.5,0,0,1-2.35,1.59,7.07,7.07,0,0,1-2.84.58,7.15,7.15,0,0,1-2.15-.33,7.39,7.39,0,0,1-2-.92,7.09,7.09,0,0,1-1.6-1.44,7.35,7.35,0,0,1-1.13-1.9l1.13-.47a7.25,7.25,0,0,0,2.29,2.79A6.14,6.14,0,0,0,76,235a6.31,6.31,0,0,0,2-1.33,6.14,6.14,0,0,0,1.33-2,5.7,5.7,0,0,0,.5-2.35,7.15,7.15,0,0,0-.37-2.2,5.71,5.71,0,0,0-3.1-3.46,6.65,6.65,0,0,0-2.87-.57,8.32,8.32,0,0,0-2.5.41,5.1,5.1,0,0,0-2.13,1.23c.22-1.43.48-2.9.78-4.39s.6-3,.9-4.42H79v1.24Zm6.19-1.61H70.15c-.29,1.6-.59,3.17-.89,4.72s-.6,3.11-.89,4.68l.27.13.24.13A6.62,6.62,0,0,1,71,223.93a7.08,7.08,0,0,1,2.46-.43,6.27,6.27,0,0,1,2.38.43,5.52,5.52,0,0,1,1.86,1.22A5.62,5.62,0,0,1,78.93,227a6.13,6.13,0,0,1,.44,2.31,5.34,5.34,0,0,1-.46,2.21,5.71,5.71,0,0,1-1.24,1.82,6.05,6.05,0,0,1-1.82,1.24,5.45,5.45,0,0,1-2.2.45,5.85,5.85,0,0,1-3.21-1,5.28,5.28,0,0,1-2.11-2.64l1.13-.44,0,.07a4.27,4.27,0,0,0,1.65,2,4.5,4.5,0,0,0,2.5.75,4.42,4.42,0,0,0,1.73-.35,4.13,4.13,0,0,0,1.42-1,5,5,0,0,0,1-1.42,4.18,4.18,0,0,0,.36-1.75,5.48,5.48,0,0,0-.26-1.62,4.13,4.13,0,0,0-.8-1.47,4,4,0,0,0-1.44-1.08,5,5,0,0,0-2.16-.42,6.36,6.36,0,0,0-2.1.37,4.21,4.21,0,0,0-1.76,1.16l-.44.48L67,225.64l2.15-11.33H79v1.24Z"/><path class="cls-6" d="M84.14,220.8a12.19,12.19,0,0,1,1.17-2.71,8.75,8.75,0,0,1,1.75-2.19,7.59,7.59,0,0,1,2.33-1.46,7.73,7.73,0,0,1,2.91-.53,7.32,7.32,0,0,1,3.84,1,8.72,8.72,0,0,1,2.77,2.57,11.69,11.69,0,0,1,1.68,3.62,15.81,15.81,0,0,1,0,8.34,11.86,11.86,0,0,1-1.68,3.63,8.66,8.66,0,0,1-2.77,2.55,8.16,8.16,0,0,1-7.68,0,8.49,8.49,0,0,1-2.75-2.55,12.06,12.06,0,0,1-1.66-3.63,15.45,15.45,0,0,1-.56-4.19A15,15,0,0,1,84.14,220.8Zm1.17.35a13.73,13.73,0,0,0-.44,2,14.35,14.35,0,0,0,.33,5.75,10.84,10.84,0,0,0,1.4,3.25A7.3,7.3,0,0,0,89,234.46a6.82,6.82,0,0,0,6.7,0A7.46,7.46,0,0,0,98,232.15a10.62,10.62,0,0,0,1.42-3.25,14.32,14.32,0,0,0,.47-3.67,14.13,14.13,0,0,0-.47-3.66A10.78,10.78,0,0,0,98,218.33a7.54,7.54,0,0,0-2.37-2.3,6.77,6.77,0,0,0-5.84-.4,6.76,6.76,0,0,0-2,1.27,7.77,7.77,0,0,0-1.51,1.91A10.51,10.51,0,0,0,85.31,221.15Zm7-5.6a5.8,5.8,0,0,1,3.21.88,7.46,7.46,0,0,1,2.25,2.26,10,10,0,0,1,1.31,3.11,14.34,14.34,0,0,1,0,6.89,10.41,10.41,0,0,1-1.29,3.11,7.4,7.4,0,0,1-2.23,2.26,5.89,5.89,0,0,1-3.25.87,5.65,5.65,0,0,1-3.21-.89,7.53,7.53,0,0,1-2.25-2.28,10,10,0,0,1-1.32-3.11,14.4,14.4,0,0,1-.42-3.41,14.11,14.11,0,0,1,.44-3.44,10.24,10.24,0,0,1,1.34-3.11,7.32,7.32,0,0,1,2.24-2.26A5.75,5.75,0,0,1,92.32,215.55Zm0,1.24a4.53,4.53,0,0,0-2.71.8,6.68,6.68,0,0,0-1.84,2,9.24,9.24,0,0,0-1.06,2.74,13.24,13.24,0,0,0-.33,2.87,13.8,13.8,0,0,0,.33,2.94,9,9,0,0,0,1.06,2.73,6.42,6.42,0,0,0,1.84,2,5,5,0,0,0,5.44,0,6.32,6.32,0,0,0,1.86-2A9,9,0,0,0,98,228.16a13.55,13.55,0,0,0,.33-2.92A13.26,13.26,0,0,0,98,222.4a9.52,9.52,0,0,0-1.06-2.75A6.36,6.36,0,0,0,95,217.59,4.61,4.61,0,0,0,92.3,216.79Z"/><path class="cls-6" d="M119.15,239.09h-1.24V236.5a7.09,7.09,0,0,1-2.91-1.22,6.44,6.44,0,0,1-2-2.31l1.09-.59a5.32,5.32,0,0,0,2,2.17,5.54,5.54,0,0,0,3,.82h.11Zm-3.64-7.51a3.48,3.48,0,0,0,1,1.22,5.06,5.06,0,0,0,1.4.75V225a17.1,17.1,0,0,1-1.64-.93,5.54,5.54,0,0,1-1.31-1.13,4.67,4.67,0,0,1-.86-1.47,5.86,5.86,0,0,1-.31-2,5.39,5.39,0,0,1,1.15-3.37,5.61,5.61,0,0,1,3-2v-2.7h1.24v3.75a4.32,4.32,0,0,0-1.59.39,4.6,4.6,0,0,0-1.31.91,4.19,4.19,0,0,0-.89,1.34,4.28,4.28,0,0,0-.33,1.66,4.08,4.08,0,0,0,.35,1.75,4.15,4.15,0,0,0,.91,1.27,5.31,5.31,0,0,0,1.31.95c.5.27,1,.52,1.55.77v10.74H119a5.13,5.13,0,0,1-2.73-.74,5,5,0,0,1-1.9-2Zm3.64-7.87c-.49-.21-1-.45-1.4-.69a5.55,5.55,0,0,1-1.19-.85,4,4,0,0,1-.82-1.15,3.76,3.76,0,0,1-.31-1.57,3.88,3.88,0,0,1,.29-1.49,4.06,4.06,0,0,1,.81-1.22,3.58,3.58,0,0,1,1.18-.82,3.89,3.89,0,0,1,1.44-.33Zm-1.24-6.52a3.43,3.43,0,0,0-.89,1,2.45,2.45,0,0,0-.35,1.29,2.28,2.28,0,0,0,.35,1.31,3.65,3.65,0,0,0,.89.91Zm1.68-5.79h1.23v2.73a5.06,5.06,0,0,1,1.57.71,5.25,5.25,0,0,1,1.24,1.15l-.95.77a4.13,4.13,0,0,0-3.09-1.61Zm1.23,11.69a23.15,23.15,0,0,1,2.05,1.08,7.12,7.12,0,0,1,1.63,1.33,5.69,5.69,0,0,1,1.08,1.77,7.39,7.39,0,0,1,0,4.62,6.94,6.94,0,0,1-1.06,2,7.33,7.33,0,0,1-1.64,1.55,6.23,6.23,0,0,1-2.08.94v2.74h-1.23v-3.75a5.76,5.76,0,0,0,2-.59,5.47,5.47,0,0,0,1.62-1.24,5.93,5.93,0,0,0,1.09-1.75,5.34,5.34,0,0,0,.4-2.07,4.94,4.94,0,0,0-.44-2.22,5.16,5.16,0,0,0-1.14-1.57,6.62,6.62,0,0,0-1.61-1.09c-.59-.3-1.19-.57-1.8-.84l-.14-.07v-8.31a3.78,3.78,0,0,1,2.76,1.42l-.94.77-.28-.28a1.31,1.31,0,0,0-.31-.23Zm-1.23,1.28,1.73.82a6.46,6.46,0,0,1,1.51,1,4.83,4.83,0,0,1,1.07,1.44,4.52,4.52,0,0,1,.42,2,5.08,5.08,0,0,1-.36,1.89,5.43,5.43,0,0,1-1,1.62,5.52,5.52,0,0,1-1.51,1.17,4.76,4.76,0,0,1-1.84.53Zm1.23,8.93a3.76,3.76,0,0,0,1.64-1.5,3.94,3.94,0,0,0,.62-2.11,3.12,3.12,0,0,0-.65-2.11,5.52,5.52,0,0,0-1.61-1.28Z"/><path class="cls-6" d="M128.69,214.31h6.45a10.53,10.53,0,0,1,4.21.86,11.1,11.1,0,0,1,5.86,5.81,10.62,10.62,0,0,1,0,8.51,11.45,11.45,0,0,1-2.36,3.48,11.63,11.63,0,0,1-3.5,2.37,10.54,10.54,0,0,1-4.23.87h-6.45Zm1.24,1.24V235h5.21a9.37,9.37,0,0,0,3.77-.76,10,10,0,0,0,3.1-2.09A9.92,9.92,0,0,0,144.1,229a9.38,9.38,0,0,0,.77-3.77,9.06,9.06,0,0,0-.79-3.76,9.92,9.92,0,0,0-2.11-3.09,9.81,9.81,0,0,0-3.09-2.09,9.34,9.34,0,0,0-3.74-.77Zm.4.4h4.82a8.8,8.8,0,0,1,3.6.75,10.06,10.06,0,0,1,3,2,9.35,9.35,0,0,1,2,3,9,9,0,0,1,.73,3.58,9.19,9.19,0,0,1-.73,3.63,9.3,9.3,0,0,1-2,2.95,9.7,9.7,0,0,1-3,2,8.8,8.8,0,0,1-3.6.75h-4.82Zm1.24,1.24v16.14h3.57a7.74,7.74,0,0,0,3.12-.64,8.14,8.14,0,0,0,2.57-1.73,8.39,8.39,0,0,0,1.74-2.57,7.6,7.6,0,0,0,.66-3.15,7.51,7.51,0,0,0-.66-3.13,8.25,8.25,0,0,0-1.76-2.55,8.55,8.55,0,0,0-2.57-1.73,7.75,7.75,0,0,0-3.1-.64Z"/><path class="cls-6" d="M151.5,228.63v7.58h-1.24v-8.82h4.3a5.46,5.46,0,0,0,2.27-.47,6,6,0,0,0,1.88-1.27,6.12,6.12,0,0,0,1.28-1.89,5.76,5.76,0,0,0,.47-2.29,5.54,5.54,0,0,0-.47-2.23,6.64,6.64,0,0,0-1.28-1.89,6.28,6.28,0,0,0-1.88-1.31,5.48,5.48,0,0,0-2.27-.49h-4.7v20.66h-1.24v-21.9h5.94a6.74,6.74,0,0,1,2.75.57,7.43,7.43,0,0,1,2.28,1.55,7.24,7.24,0,0,1,1.54,2.27,6.94,6.94,0,0,1,0,5.51,7.24,7.24,0,0,1-1.54,2.27,7.67,7.67,0,0,1-2.28,1.57,6.59,6.59,0,0,1-2.75.58ZM150.26,216h4.3a5.16,5.16,0,0,1,2.13.46,5.8,5.8,0,0,1,1.75,1.2,5.57,5.57,0,0,1,1.18,1.75,5.21,5.21,0,0,1,0,4.19,5.57,5.57,0,0,1-1.18,1.75,5.8,5.8,0,0,1-1.75,1.2,5,5,0,0,1-2.13.46h-4.3Zm1.24,1.24v8.53h3.06a4,4,0,0,0,1.64-.35,4.65,4.65,0,0,0,1.35-.91,4.31,4.31,0,0,0,.92-1.35,4,4,0,0,0,.35-1.65,3.92,3.92,0,0,0-.35-1.64,4.68,4.68,0,0,0-.92-1.35,4.52,4.52,0,0,0-1.35-.93,4,4,0,0,0-1.64-.35Z"/><path class="cls-6" d="M166.94,217.23a11.76,11.76,0,0,1,3.68-2.46,11.13,11.13,0,0,1,4.34-.86,11,11,0,0,1,4.41.91,11.51,11.51,0,0,1,3.6,2.48,12.2,12.2,0,0,1,2.43,3.61,10.75,10.75,0,0,1,.89,4.33,11,11,0,0,1-.89,4.39,11.57,11.57,0,0,1-6.05,6.05,10.84,10.84,0,0,1-4.39.89,10.72,10.72,0,0,1-4.35-.89,11.51,11.51,0,0,1-3.61-2.42,11.7,11.7,0,0,1-2.46-3.59,10.77,10.77,0,0,1-.91-4.43,10.9,10.9,0,0,1,.86-4.33A11.62,11.62,0,0,1,166.94,217.23Zm.88.87a9.92,9.92,0,0,0-2.95,7.13,9.6,9.6,0,0,0,.8,3.91,10.17,10.17,0,0,0,2.19,3.21,10.59,10.59,0,0,0,3.2,2.19,9.91,9.91,0,0,0,7.8,0,10.59,10.59,0,0,0,3.2-2.19,10.34,10.34,0,0,0,2.19-3.21,9.77,9.77,0,0,0,.8-3.91,9.57,9.57,0,0,0-.8-3.89,10.59,10.59,0,0,0-2.17-3.2,10.11,10.11,0,0,0-3.21-2.19,9.73,9.73,0,0,0-3.91-.8,10.07,10.07,0,0,0-7.14,2.95Zm7.14-2.55a9,9,0,0,1,3.73.79,10.39,10.39,0,0,1,3.1,2.09,9.65,9.65,0,0,1,2.09,3.08,9.44,9.44,0,0,1,0,7.47,9.7,9.7,0,0,1-2.09,3.09,9.88,9.88,0,0,1-3.1,2.1,9.56,9.56,0,0,1-7.47,0,9.84,9.84,0,0,1-3.09-2.1A9.72,9.72,0,0,1,166,229a9.56,9.56,0,0,1,0-7.47,9.83,9.83,0,0,1,5.16-5.17A9.07,9.07,0,0,1,175,215.55Zm0,1.24a8.16,8.16,0,0,0-3.3.68,8.41,8.41,0,0,0-2.69,1.84,8.55,8.55,0,0,0-1.81,2.69,8.26,8.26,0,0,0-.65,3.24,8.15,8.15,0,0,0,.67,3.3,8.86,8.86,0,0,0,1.82,2.7,8.63,8.63,0,0,0,2.7,1.8,8.38,8.38,0,0,0,6.52,0,8.47,8.47,0,0,0,2.69-1.8,8.71,8.71,0,0,0,1.83-2.7,8.15,8.15,0,0,0,.67-3.3,7.93,7.93,0,0,0-.67-3.24,8.78,8.78,0,0,0-1.83-2.69,8.44,8.44,0,0,0-2.67-1.84A8.06,8.06,0,0,0,175,216.79Z"/><path class="cls-6" d="M200.13,236.21h-11v-21.9h1.24V235h9.8Zm0-1.64h-9.4V214.31H192v19h8.16v1.24Z"/><path class="cls-6" d="M205.56,236.21V226l-8.09-11.66H199l7.83,11.26v10.64ZM201,214.31l.62.84L207,223l6-8.68h1.5L207,225.13l-5.9-8.48-1.64-2.34Zm7.5,19v2.88h-1.23V225.57l5.61-8.12,2.22-3.14h1.49l-2.18,3.1L208.47,226Z"/></g></g></svg>