<svg xmlns="http://www.w3.org/2000/svg" viewBox="0 0 253.51 253.51"><defs><style>.cls-1{fill:#cfe7d7;stroke-width:5px;}.cls-1,.cls-3{stroke:#000;}.cls-2{fill:#f79051;}.cls-17,.cls-3{fill:none;}.cls-4{fill:#1a1a1a;}.cls-5{fill:#363636;}.cls-6{fill:#4e4e4e;}.cls-7{fill:#979797;}.cls-8{fill:#676767;}.cls-9{fill:#040404;}.cls-10{fill:#0a0c0c;}.cls-11{fill:#ced7db;}.cls-12{fill:#7e8d93;}.cls-13{fill:#607c8a;}.cls-14{fill:#9d9e9e;}.cls-15{fill:#555d61;}.cls-16{fill:#f0f0ef;}.cls-18{fill:#231f20;}</style></defs><g id="Layer_2" data-name="Layer 2"><g id="Layer_1-2" data-name="Layer 1"><rect class="cls-1" x="2.5" y="2.5" width="248.51" height="248.51"/><rect class="cls-2" x="8.36" y="8.36" width="236.8" height="62.45"/><rect class="cls-3" x="8.36" y="8.36" width="236.8" height="62.45"/><path class="cls-4" d="M194.67,153.26c-.38-2-.85-4-1.27-6-.33-1-.65-2.09-1-3.13-1.31-4.26-2.79-8.48-3.43-12.92-.17-1.16-.23-2.33-.3-3.5s-.08-2.31-.11-3.46l-.39-3a5.12,5.12,0,0,0,0-.56,37.48,37.48,0,0,0-12.49-22.56,42.48,42.48,0,0,0-12.52-7.56,46.09,46.09,0,0,0-14.75-3.08,42.71,42.71,0,0,0-23.36,5.78A40.34,40.34,0,0,0,115,101.69a39,39,0,0,0-5.82,9.08,37.39,37.39,0,0,0-3.09,10.76c-.08.85-.16,1.71-.25,2.56,0,.26-.07.52-.11.78A32.7,32.7,0,0,1,103,139.24c-.68,1.72-1.34,3.45-2,5.17l-1.11,3c-.09.38-.16.76-.28,1.13a41,41,0,0,0-2,12.14,47.87,47.87,0,0,0,.26,5.48,49.31,49.31,0,0,0,2.5,11.82,39.14,39.14,0,0,0,11.48,17,42.92,42.92,0,0,0,10.24,6.5,56.57,56.57,0,0,0,22.07,4.79,41.79,41.79,0,0,0,4.19-.12c2.08-.15,4.15-.3,6.2-.58A55,55,0,0,0,166,202.63a50.94,50.94,0,0,0,8.48-4,43.7,43.7,0,0,0,10.89-9.12,40.53,40.53,0,0,0,6-9.34,48.14,48.14,0,0,0,3.34-26.9Zm-22.85,35.67a21.34,21.34,0,0,1-4.53,5.69,51.76,51.76,0,0,1-4.26,3.13,29,29,0,0,1-12.41,3.82,36.55,36.55,0,0,1-14.69-1.52,29.22,29.22,0,0,1-9.58-5.14,4.83,4.83,0,0,1-.38-.4,20.87,20.87,0,0,1-4.85-5.69,1,1,0,0,1,0-.81c.6-.95,1.25-1.86,1.89-2.79a22,22,0,0,1,10-7.05,43.92,43.92,0,0,1,24.07-.86,24.8,24.8,0,0,1,8.19,3.67,43.36,43.36,0,0,1,3.72,3.33,11.93,11.93,0,0,1,.85,1c.69,1,1.39,1.94,2,2.94C172,188.4,171.93,188.74,171.82,188.93Zm18-38.09c-2.51,0-5,0-7.53,0a15.13,15.13,0,0,0-1.88.25,17.87,17.87,0,0,1-13.12,9.64l2.55,3.79c.36.59.74,1.15,1.05,1.76a26.55,26.55,0,0,1,2.13,6c.15.64.29,1.29.44,1.94,0,.16.05.32.08.49.16,1.89.42,3.78.44,5.67a42.61,42.61,0,0,1-.43,4.49h-.21c-.54-.74-1-1.5-1.62-2.22a25,25,0,0,0-9.92-7.44l-.77-.35a39.54,39.54,0,0,0-8.37-2.06,46.46,46.46,0,0,0-9.79-.3,40.84,40.84,0,0,0-9.91,1.94l-1.45.51c-1.4.72-2.84,1.38-4.2,2.18a22.24,22.24,0,0,0-7.09,6.63l-.76,1.09h-.19a15.84,15.84,0,0,1-.47-2.62c0-1.8,0-3.61.08-5.42.13-.66.27-1.32.4-2a27.58,27.58,0,0,1,5.78-12.65c.37-.45.74-.87,1.11-1.31a37.18,37.18,0,0,1-4.2-1.15c-6.19-2.52-10-7-11.06-13.7a30.38,30.38,0,0,1,0-4.27c0-.14,0-.29,0-.43-1.31,0-2.62-.09-3.94-.12-1,0-1.27-.36-1-1.35.76-2.49,1.56-5,2.23-7.5a27.52,27.52,0,0,0,.5-3.53v-.5a37.25,37.25,0,0,1,2.57-14.91c.11-.27.24-.53.36-.79a30.88,30.88,0,0,1,4.51-7.63,37.69,37.69,0,0,1,22.7-13.75,34.69,34.69,0,0,1,7.6-.75A43.34,43.34,0,0,1,163,93.79a38.77,38.77,0,0,1,9.12,5.33,35.24,35.24,0,0,1,10.53,13.38,35.89,35.89,0,0,1,3,15.08c.31,2.42.43,4.89,1,7.26.64,2.9,1.63,5.73,2.46,8.6.58,2,1.17,4.07,1.73,6.11C191.11,150.42,190.77,150.84,189.86,150.84Z"/><path class="cls-5" d="M101,144.41l-1.11,3A16.34,16.34,0,0,1,94,137.14a19.13,19.13,0,0,1,1.47-11.88,7.55,7.55,0,0,1,8.07-4.14c.83.1,1.66.27,2.49.41-.08.86-.16,1.71-.25,2.56,0,.29-.07.64-.42.72a1.2,1.2,0,0,1-.56,0c-.72-.19-1.42-.41-2.15-.53-2.4-.41-4.06,1-5,3.13a15.68,15.68,0,0,0-.81,9.91A12.56,12.56,0,0,0,101,144.41Z"/><path class="cls-5" d="M188.59,124.26l-.39-3a30.36,30.36,0,0,1,3.56-.14c3.16.24,5.18,2.1,6.4,4.9a18.59,18.59,0,0,1,1.33,6.31,19.45,19.45,0,0,1-1.09,7.94,15.85,15.85,0,0,1-4.5,6.62c-.15.13-.33.23-.5.35l-1-3.13a1.82,1.82,0,0,0,.36-.22,14.05,14.05,0,0,0,3.08-5.36,17.59,17.59,0,0,0,.59-7.39,12.2,12.2,0,0,0-1.25-4.5,4.43,4.43,0,0,0-3.44-2.53A22.6,22.6,0,0,0,188.59,124.26Z"/><path class="cls-6" d="M101,144.41a12.56,12.56,0,0,1-4.12-7.14,15.68,15.68,0,0,1,.81-9.91,5.19,5.19,0,0,1,3.5-3.23,3.76,3.76,0,0,1,1.15.05,10,10,0,0,1,1.44.32,2.17,2.17,0,0,0,2-.19A35.25,35.25,0,0,1,103,139.24C102.34,141,101.67,142.69,101,144.41Z"/><path class="cls-6" d="M188.59,124.26a22.6,22.6,0,0,1,3.18-.12,4.43,4.43,0,0,1,3.44,2.53,12.2,12.2,0,0,1,1.25,4.5,17.59,17.59,0,0,1-.59,7.39,14.05,14.05,0,0,1-3.08,5.36,1.82,1.82,0,0,1-.36.22c-1.31-4.26-2.79-8.48-3.43-12.92-.17-1.16-.23-2.33-.3-3.5S188.62,125.41,188.59,124.26Z"/><path class="cls-6" d="M189.86,150.84c-2.51,0-5,0-7.53,0a15.13,15.13,0,0,0-1.88.25,36.41,36.41,0,0,0,1.21-3.61,16.59,16.59,0,0,0,.26-5.58,15.58,15.58,0,0,0-2.76-7.32,16.4,16.4,0,0,0-5.72-5.23c-.92-.5-1.87-.93-2.81-1.39a20.23,20.23,0,0,0-7.86-1.13,28.62,28.62,0,0,0-2.89.39c-.29-.39-.49-.32-.62.12l-.5.22a17.38,17.38,0,0,0-5.55,3.27,18.84,18.84,0,0,1-4.78,2.83,4.61,4.61,0,0,1-2.88.25c-.85-.25-1.77-.3-2.58-.63a33.11,33.11,0,0,1-3.78-1.86c-2-1.16-4-2.41-6-3.62l-1.12-.46-.16-.29-.21.17a22,22,0,0,0-2.63-.47,15.44,15.44,0,0,0-2.63.11,18.87,18.87,0,0,0-5.22,1.36c-.45.19-.87.42-1.32.62a3.74,3.74,0,0,1-.48.12c-.44.35-.87.71-1.32,1a17.18,17.18,0,0,0-6.87,10.2c-.09.38-.22.74-.33,1.11-1.31,0-2.62-.09-3.94-.12-1,0-1.27-.36-1-1.35.76-2.49,1.56-5,2.23-7.5a27.52,27.52,0,0,0,.5-3.53v-.5a37.25,37.25,0,0,1,2.57-14.91c.11-.27.24-.53.36-.79a30.88,30.88,0,0,1,4.51-7.63,37.69,37.69,0,0,1,22.7-13.75,34.69,34.69,0,0,1,7.6-.75A43.34,43.34,0,0,1,163,93.79a38.77,38.77,0,0,1,9.12,5.33,35.24,35.24,0,0,1,10.53,13.38,35.89,35.89,0,0,1,3,15.08c.31,2.42.43,4.89,1,7.26.64,2.9,1.63,5.73,2.46,8.6.58,2,1.17,4.07,1.73,6.11C191.11,150.42,190.77,150.84,189.86,150.84Z"/><path class="cls-7" d="M119.32,174.83h11.33a6.94,6.94,0,0,1,.9.12c-1.4.72-2.84,1.38-4.2,2.18a22.24,22.24,0,0,0-7.09,6.63l-.76,1.09h-.19a15.84,15.84,0,0,1-.47-2.62c0-1.8,0-3.61.08-5.41Z"/><path class="cls-5" d="M108.69,128.32a2.17,2.17,0,0,1,0,.26A2.17,2.17,0,0,0,108.69,128.32Z"/><path class="cls-8" d="M132.76,162.64l1.55,1.21a1.56,1.56,0,0,1,.67,1.56,1.36,1.36,0,0,1-1.2,1.17,1.85,1.85,0,0,1-1.1-.23,12.42,12.42,0,0,1-5.56-5.76,8,8,0,0,1,.34-5.9,7.31,7.31,0,0,1,8.61-4.35,50.54,50.54,0,0,1,6.19,2.27c1.22.49,2.41,1.06,3.6,1.62a1.21,1.21,0,0,0,1.11,0c2.57-1.12,5.14-2.23,7.73-3.31a8.44,8.44,0,0,1,6.38-.34,7.92,7.92,0,0,1,3.26,12.31c-.44.54-.94,1-1.41,1.55-.67.47-1.34.94-2,1.39a7.12,7.12,0,0,1-1,.55A1.43,1.43,0,0,1,158,166a1.55,1.55,0,0,1,.48-2.11,11.31,11.31,0,0,0,3-2.59c.12-.16.22-.34.33-.51A4.37,4.37,0,0,0,162,156a3.63,3.63,0,0,0-3.75-2,6,6,0,0,0-1.9.47q-4.37,1.89-8.69,3.87a2.81,2.81,0,0,1-2.6,0c-1.38-.69-2.76-1.38-4.17-2a45,45,0,0,0-5.26-2.15c-3.11-.92-5.35,1.12-5.43,4.11C130.17,160.17,131.37,161.49,132.76,162.64Z"/><path class="cls-9" d="M134,142.2c0,2.81-1.33,5.85-4.86,6.25a4.56,4.56,0,0,1-4-1.85,6.06,6.06,0,0,1-1.37-3.82,6.15,6.15,0,0,1,1.22-3.89,4.73,4.73,0,0,1,6.78-1A5.83,5.83,0,0,1,134,142.2Z"/><path class="cls-9" d="M164,136.25a5.1,5.1,0,0,1,4.69,3.53,6.27,6.27,0,0,1-.32,5.18,4.78,4.78,0,0,1-7,2,5.48,5.48,0,0,1-2.44-3.92,6.06,6.06,0,0,1,1.82-5.59A4.46,4.46,0,0,1,164,136.25Z"/><path class="cls-5" d="M159.26,127.35c.13-.44.33-.51.62-.12Z"/><path class="cls-5" d="M131.67,127.23l.21-.17.16.29Z"/><path class="cls-7" d="M126,194.52a20.85,20.85,0,0,1-4.84-5.7.92.92,0,0,1,0-.81c.6-.95,1.25-1.86,1.89-2.79a11.11,11.11,0,0,0,1.16.12h44.66l1,0c.68,1,1.39,1.94,2.05,2.94.09.14,0,.48-.11.67a21.34,21.34,0,0,1-4.53,5.69,10.09,10.09,0,0,0-1.09-.12H126.83Z"/><path class="cls-7" d="M169.88,185.32l-1,0H124.17a11.11,11.11,0,0,1-1.16-.12,22,22,0,0,1,10-7.05,43.92,43.92,0,0,1,24.07-.86,25,25,0,0,1,8.2,3.67,44.79,44.79,0,0,1,3.71,3.33A11.93,11.93,0,0,1,169.88,185.32Z"/><path class="cls-7" d="M126,194.52l.86,0H166.2a10.09,10.09,0,0,1,1.09.12c-1.41,1-2.76,2.23-4.26,3.13a29,29,0,0,1-12.41,3.82,36.73,36.73,0,0,1-14.69-1.52,29.22,29.22,0,0,1-9.58-5.14A4.68,4.68,0,0,1,126,194.52Z"/><path class="cls-7" d="M161.07,174.87l1.15,0h10.13c.41,0,.82-.08,1.23-.12.16,1.89.42,3.78.44,5.68a42.68,42.68,0,0,1-.43,4.48h-.21c-.54-.74-1.06-1.5-1.62-2.22a25,25,0,0,0-9.91-7.44C161.58,175.11,161.33,175,161.07,174.87Z"/><path class="cls-7" d="M181.92,141.91a15.58,15.58,0,0,0-2.76-7.32,16.4,16.4,0,0,0-5.72-5.23c-.92-.5-1.87-.93-2.81-1.39a20.23,20.23,0,0,0-7.86-1.13,28.62,28.62,0,0,0-2.89.39l-.62.12-.5.22a17.38,17.38,0,0,0-5.55,3.27,18.84,18.84,0,0,1-4.78,2.83,4.61,4.61,0,0,1-2.88.25c-.58-.17-1.2-.25-1.8-.39a8.4,8.4,0,0,1-1.64-.63,49.84,49.84,0,0,1-6.64-3.75,13.62,13.62,0,0,0-6.43-2.39,15.44,15.44,0,0,0-2.63.11,16.91,16.91,0,0,0-4,.94,17.22,17.22,0,0,0-3.59,1.66,17.87,17.87,0,0,0-7.6,10.74c-.09.38-.22.74-.33,1.11,0,.14,0,.29,0,.43a30.38,30.38,0,0,0,0,4.27c1,6.67,4.87,11.18,11.06,13.7a37.18,37.18,0,0,0,4.2,1.15c-.37.44-.74.86-1.11,1.31a27.58,27.58,0,0,0-5.78,12.65h11.33a6.94,6.94,0,0,1,.9.12l1.45-.51a40.84,40.84,0,0,1,9.91-1.94,46.46,46.46,0,0,1,9.79.3,39.54,39.54,0,0,1,8.37,2.06l1.15,0h10.13c.41,0,.82-.08,1.23-.12,0-.17-.05-.33-.08-.49-.15-.65-.29-1.3-.44-1.94a26.55,26.55,0,0,0-2.13-6c-.31-.61-.69-1.17-1.05-1.76l-2.55-3.79a17.87,17.87,0,0,0,13.12-9.64,36.41,36.41,0,0,0,1.21-3.61A16.59,16.59,0,0,0,181.92,141.91Zm-56.75,4.69a6.06,6.06,0,0,1-1.37-3.82,6.21,6.21,0,0,1,1.22-3.89,4.73,4.73,0,0,1,6.78-1,5.83,5.83,0,0,1,2.22,4.3c0,2.81-1.33,5.85-4.86,6.25A4.54,4.54,0,0,1,125.17,146.6ZM168.33,145a4.79,4.79,0,0,1-7,2,5.48,5.48,0,0,1-2.44-3.92,6.06,6.06,0,0,1,1.82-5.59,4.47,4.47,0,0,1,3.23-1.2,5.12,5.12,0,0,1,4.69,3.54A6.23,6.23,0,0,1,168.33,145Z"/><path class="cls-9" d="M137.5,162.46c-.69-.43-1.39-.88-2.09-1.3a2.33,2.33,0,0,1-1-3.07,2.3,2.3,0,0,1,3.24-.91c1.61.91,3.22,1.83,4.8,2.79a5.91,5.91,0,0,1,1,1c.48,1.76-.31,3.11-2.07,3.27a4.11,4.11,0,0,1-1.83-.66C138.88,163.26,138.2,162.85,137.5,162.46Z"/><path class="cls-9" d="M149.46,160.85a9.71,9.71,0,0,1,1.15-1c1.44-.88,2.91-1.7,4.37-2.54a2.32,2.32,0,0,1,3,.17,2.37,2.37,0,0,1,.3,3c-.86.55-1.71,1.11-2.58,1.64-1.07.64-2.14,1.3-3.25,1.85a2.45,2.45,0,0,1-1.55.19C149.41,163.8,148.89,162.51,149.46,160.85Z"/><path class="cls-10" d="M143.79,131.58v0m-49.42,60.1H76.32c0-.07-.15-.13-.15-.2.12-4.45-.17-9,.46-13.34s4.83-6.88,9.84-6.59a8.71,8.71,0,0,1,7.85,7.65C94.58,183.32,94.37,187.43,94.37,191.71Zm12.39.06H98.69c0-3.49,0-6.92,0-10.35a19.28,19.28,0,0,0-.46-4.22,13.31,13.31,0,0,0-26.16,2.64c-.15,3.52,0,7-.06,10.56v1.35H64l-.17-.23q0-9.09,0-18.17V123.83c0-.48,0-1,.05-1.42l.15-.17a2.11,2.11,0,0,1,.35,0l38.11,0h4.31Zm30.78,0h-4l-21.74.05c-.19,0-.39,0-.67-.06V143c.11,0,.22-.14.32-.14l22.08,0h4Zm-.78-53.26-1.3,0-24,0a1.71,1.71,0,0,1-.32-.1v-5.95c1.08,0,2.14-.05,3.18,0,.26,0,.61.48.7.8a10.83,10.83,0,0,1,.07,1.41,2,2,0,0,0,2.13,1.8,1.92,1.92,0,0,0,1.88-1.91c.2-2.14.2-2.15,2.39-2.14,2,0,1.76-.15,1.78,1.66a3.59,3.59,0,0,0,.16,1,1.92,1.92,0,0,0,.14.36,2.53,2.53,0,0,0,.13.22.61.61,0,0,0,.12.16.48.48,0,0,0,.09.11c0,.06.11.11.16.16h0l.17.13,0,0a1.7,1.7,0,0,0,.39.18l.17,0a2.1,2.1,0,0,0,.51.05,2.2,2.2,0,0,0,2-2.45c0-1.73-.3-1.7,1.76-1.69h2.19c.29,1.45-.42,3.27,1.51,3.94l.18.05a.31.31,0,0,0,.13,0l.12,0,.11,0a1.6,1.6,0,0,0,.38,0h.07l.15,0,.1,0a1.73,1.73,0,0,0,.55-.26,2.24,2.24,0,0,0,.38-.31l.18-.18c.1-.78.26-1.55.29-2.33a1.07,1.07,0,0,1,.22-.69l.06,0a.68.68,0,0,1,.31-.14l.09,0,.06,0h.17c3.27-.22,3.27-.24,3.27,3.07C139.72,138.5,139.72,138.5,136.76,138.49Zm7-6.59a2.84,2.84,0,0,0-.06-.31,4.38,4.38,0,0,0-3.76-3.21,11.5,11.5,0,0,0-1.3-.15c-1.13-.07-2.27,0-3.39,0H123.13c-.88,0-1.73,0-2.59,0-1.59,0-3.17,0-4.74,0s-2.91,0-4.36,0c-.13,0-.37,0-.43-.1a1.49,1.49,0,0,1,0-.56c0-.43,0-.85,0-1.26,0-.67,0-1.33,0-2a9.26,9.26,0,0,1,.21-1.88,4.53,4.53,0,0,1,1.06-2,2,2,0,0,0,.43-.59s0,0,0,0a1,1,0,0,0,.13-.3l.09-.25a7.88,7.88,0,0,0,.24-2.85c0-1.32,0-2.65,0-4,0-.81,0-1.63,0-2.42l-.09-3.08a10.17,10.17,0,0,0-.16-2.34,3.87,3.87,0,0,0-2.12-2.41,9.4,9.4,0,0,0-3.62-.59c-1.32-.08-2.63-.06-3.93-.06-3.66,0-7.31.06-11,.06H73.48c-2.5,0-5,0-7.48,0H64.74a22.16,22.16,0,0,0-3.65.15,3.56,3.56,0,0,0-.85.17c-.2.09-.41.21-.6.31a4,4,0,0,0-1.11,1c-.11.13-.21.27-.3.4a4.54,4.54,0,0,0-.65,2.06v.17c0,4-.1,8.08.05,12.12.06,1.06.88,2.1,1.36,3.15.22.52.66,1,.66,1.52q0,31.57,0,63.18v10.28H132.4l2.16,0c.83,0,1.66,0,2.49,0a2.29,2.29,0,0,1,.39,0,1,1,0,0,1,.74.51,2,2,0,0,1,.09.2,2,2,0,0,1,.08.29c.28,1.32.68,2.61,1,3.89.07.33.09.68.15,1.11H59.68v4.1H76.6c2.64,0,5.27,0,7.9,0h48.71c1.5,0,3,0,4.47,0,.64,0,1.26,0,1.89,0a3.5,3.5,0,0,0,1.87-.2,4.55,4.55,0,0,0,2.22-2.73,6.64,6.64,0,0,0-.33-3.71c-.43-1.57-.9-3.13-1.18-4.73-.06-.16-.1-.33-.16-.49s0-.31-.05-.47c-.07-.79-.19-1.57-.19-2.36V143.2a1.94,1.94,0,0,1,.44-1.38,7,7,0,0,0,1.16-1.33,5.34,5.34,0,0,0,.44-3c0-1.12,0-2.26,0-3.38A12.05,12.05,0,0,0,143.78,131.9Zm-35-13.89h-6.14l-.65,0H61.89V105.83h6c0,.88,0,1.71,0,2.52a10.35,10.35,0,0,0,.12,1.76,2,2,0,0,0,2.14,1.77,2,2,0,0,0,1.89-2c0-1.29,0-2.59,0-4h6.19v3.62c0,1.5.8,2.43,2,2.41s2-.91,2.07-2.38c0-1.18,0-2.36,0-3.64h6.17c0,1.17,0,2.37,0,3.58,0,1.47.78,2.43,2,2.46a1.23,1.23,0,0,0,.27,0h.07a1.9,1.9,0,0,0,1-.49.93.93,0,0,0,.13-.15,1.81,1.81,0,0,0,.24-.37,2.51,2.51,0,0,0,.24-.6l0-.22a1.13,1.13,0,0,0,0-.18,2.9,2.9,0,0,0,0-.43c0-1.17,0-2.35,0-3.6h6.15c0,1.16,0,2.25,0,3.35s.24,2.17,1.42,2.6,2-.22,2.61-1.11v-4.79h6.09Z"/><path class="cls-11" d="M102.5,160.18l-.27.33-.09.1-.2.17a1.9,1.9,0,0,1-.62.31l-.1,0h-.09l-.11,0a2.17,2.17,0,0,1-2.37-2.39q0-3.72,0-7.44a3.64,3.64,0,0,1,0-.48.77.77,0,0,1,0-.15.52.52,0,0,1,0-.18.43.43,0,0,1,0-.11.75.75,0,0,1,0-.16,1.18,1.18,0,0,1,.07-.2l0-.11a1.13,1.13,0,0,1,.12-.21l.09-.13.08-.1a2.29,2.29,0,0,1,.94-.58,2.09,2.09,0,0,1,2.49,1.07q0-5.25,0-10.51a2.57,2.57,0,0,1-.28.37l-.2.22-.14.13a1.79,1.79,0,0,1-.48.31l-.12.05-.19.06-.12,0a2,2,0,0,1-1-.09,2.22,2.22,0,0,1-1.48-2.44c0-2.45,0-4.91,0-7.36a2.17,2.17,0,0,1,1.35-2.29,2,2,0,0,1,2.49.81l0-.5c0-.34,0-.68.07-1a2.28,2.28,0,0,0,0-.26l.06-.88c0-.13,0-.26,0-.39s0-.33,0-.5,0-.34,0-.51,0-.24,0-.36a.86.86,0,0,0,0-.16,2.26,2.26,0,0,0,0-.26c0-.19,0-.38-.05-.57l-.09-.81-.09-.84-38.11,0a2.11,2.11,0,0,0-.35,0l-.15.17c0,.47-.05.94-.05,1.42v49.52q0,9.09,0,18.17l.17.23h8V190.4c0-3.52-.09-7,.06-10.56a13.31,13.31,0,0,1,26.16-2.64,19.28,19.28,0,0,1,.46,4.22c.07,3.43,0,6.86,0,10.35h4q0-15.36,0-30.72A4,4,0,0,0,102.5,160.18ZM72,158.82c0,1.43-.77,2.28-2,2.31a2.06,2.06,0,0,1-2.16-2.28q-.06-3.84,0-7.7A2.15,2.15,0,0,1,70,148.8l.19,0,.18,0h.09a1.63,1.63,0,0,1,.37.13.56.56,0,0,1,.17.09.66.66,0,0,1,.17.12.58.58,0,0,1,.12.1.34.34,0,0,1,.06.06,1.61,1.61,0,0,1,.24.28,2.27,2.27,0,0,1,.27.54,1.41,1.41,0,0,1,.06.22s0,0,0,0a1.84,1.84,0,0,1,0,.25.07.07,0,0,1,0,.05.44.44,0,0,1,0,.1c0,.13,0,.27,0,.41,0,1.27,0,2.53,0,3.79S72.06,157.55,72,158.82Zm0-20.42A2.1,2.1,0,0,1,70,140.65h-.18l-.2,0-.19,0-.23-.08h0a1.67,1.67,0,0,1-.23-.12,1.1,1.1,0,0,1-.14-.09.48.48,0,0,1-.11-.09,1.88,1.88,0,0,1-.63-.92.56.56,0,0,1,0-.12.74.74,0,0,1,0-.14s0-.07,0-.1a2.54,2.54,0,0,1,0-.29v-.12c0-.65,0-1.31,0-2q0-3,0-6.09A2,2,0,0,1,70,128.32a2.45,2.45,0,0,1,.62.08,2.39,2.39,0,0,1,.37.15l.17.1.1.08,0,0,.17.15,0,.06a1.09,1.09,0,0,1,.13.17,1.75,1.75,0,0,1,.2.35,1.89,1.89,0,0,1,.09.21c0,.06,0,.13,0,.2a.08.08,0,0,1,0,0,.68.68,0,0,1,0,.14.8.8,0,0,1,0,.15,1.69,1.69,0,0,1,0,.23c0,1.35,0,2.69,0,4S72.07,137.09,72,138.4Zm10.24,20.48a2,2,0,0,1-2,2.26,2,2,0,0,1-2-2.24c0-2.6,0-5.21,0-7.81a2.05,2.05,0,1,1,4.08,0c0,1.3,0,2.6,0,3.9S82.29,157.58,82.27,158.88Zm0-20.38a1.53,1.53,0,0,1,0,.3.69.69,0,0,1,0,.2s0,0,0,.05a1.52,1.52,0,0,1-.06.2v0a1.8,1.8,0,0,1-.08.21h0l-.11.2a1.76,1.76,0,0,1-.29.37l-.17.15-.2.14a.94.94,0,0,1-.22.12l-.11.05-.16,0h0l-.15,0-.19,0H80l-.19,0a1.37,1.37,0,0,1-.36-.11l-.1,0-.15-.08a.42.42,0,0,1-.14-.09,1.81,1.81,0,0,1-.3-.25,2.2,2.2,0,0,1-.34-.5,1.26,1.26,0,0,1-.12-.29,1.81,1.81,0,0,1-.09-.31,2.28,2.28,0,0,1,0-.45c0-1.39,0-2.77,0-4.15s0-2.61,0-3.91a2,2,0,1,1,4.08,0C82.29,133.13,82.29,135.82,82.27,138.5Zm6.15-8a2.07,2.07,0,1,1,4.13-.05c0,1.38,0,2.76,0,4.15s0,2.52,0,3.78c0,.09,0,.17,0,.25a3,3,0,0,1-.09.45,2.12,2.12,0,0,1-.51.92,1.94,1.94,0,0,1-.64.46,2,2,0,0,1-.85.16,2,2,0,0,1-.55-.08,2.26,2.26,0,0,1-.33-.13,1.75,1.75,0,0,1-.29-.18A2,2,0,0,1,89,140l-.13-.17h0a.81.81,0,0,1-.1-.18.39.39,0,0,1-.08-.14,1.19,1.19,0,0,1-.08-.2h0a.84.84,0,0,1,0-.17.5.5,0,0,1,0-.13.52.52,0,0,1,0-.14,1.57,1.57,0,0,1,0-.23c0-.08,0-.17,0-.25Q88.38,134.44,88.42,130.53Zm4.13,28.35a2.09,2.09,0,0,1,0,.25,3.06,3.06,0,0,1-.08.47,2.29,2.29,0,0,1-.15.42,1.85,1.85,0,0,1-.83.89l-.1,0-.08,0-.17.06a2.7,2.7,0,0,1-.41.07h-.49l-.25,0a.67.67,0,0,1-.24-.07l-.13,0a1.48,1.48,0,0,1-.45-.28l-.16-.15-.13-.17-.05-.06-.09-.15a1.5,1.5,0,0,1-.09-.18c0-.06,0-.13-.07-.21a.48.48,0,0,1,0-.17l0-.13a1.18,1.18,0,0,1,0-.2,3.58,3.58,0,0,1,0-.48c0-1.26,0-2.53,0-3.79s0-2.61,0-3.91c0-.08,0-.16,0-.23l0-.22s0-.06,0-.08a1.89,1.89,0,0,1,.09-.34c0-.05,0-.09,0-.13a1,1,0,0,1,.08-.18,2.17,2.17,0,0,1,.32-.47.93.93,0,0,1,.14-.14l.15-.13.17-.11.18-.09a2,2,0,0,1,.81-.17h.24l.21,0,.2,0a2.08,2.08,0,0,1,.69.4.93.93,0,0,1,.14.14,2.39,2.39,0,0,1,.61,1.63Q92.6,155,92.55,158.88Z"/><path class="cls-12" d="M133.57,142.85l-22.08,0c-.1,0-.21.09-.32.14v48.79c.28,0,.48.06.67.06l21.74-.05Q133.57,167.3,133.57,142.85ZM121.25,159a2,2,0,1,1-4.09,0c0-1.39,0-2.77,0-4.16s0-2.53,0-3.8a2.07,2.07,0,0,1,2.09-2.23h.22l.2,0,.19,0a.59.59,0,0,1,.14.06,1.12,1.12,0,0,1,.22.1l.14.09,0,0,.18.15a1.29,1.29,0,0,1,.16.17,2.1,2.1,0,0,1,.48,1,.17.17,0,0,1,0,.07,2.71,2.71,0,0,1,0,.41Q121.3,155,121.25,159Zm10.29-.67c0,.2,0,.41,0,.61l0,.38,0,.18a1.18,1.18,0,0,1-.06.27.78.78,0,0,1,0,.14v0a.67.67,0,0,1-.06.15,1.82,1.82,0,0,1-.43.61l-.11.1-.1.07-.11.07a2.14,2.14,0,0,1-.81.25h-.25A2,2,0,0,1,127.4,159c0-2.65,0-5.29,0-7.94a1.93,1.93,0,0,1,0-.24l0-.23a3.49,3.49,0,0,1,.1-.38.36.36,0,0,1,0-.09,1.91,1.91,0,0,1,1.24-1.18.49.49,0,0,1,.2,0l.21,0a1.15,1.15,0,0,1,.26,0,1.93,1.93,0,0,1,.42.05l.2,0,.21.08.13.07a1.18,1.18,0,0,1,.19.11,2.26,2.26,0,0,1,.29.25,2.34,2.34,0,0,1,.6,1.56c0,1.25,0,2.5,0,3.74a2.72,2.72,0,0,0,0,.28c0,.28,0,.56,0,.83,0,.47,0,.94,0,1.41S131.55,157.93,131.54,158.28Z"/><path class="cls-6" d="M139.52,202.14H59.68v-6.06h74.89c.82,0,1.65,0,2.47,0a2.54,2.54,0,0,1,.41,0,.94.94,0,0,1,.74.52.75.75,0,0,1,.08.18,2.17,2.17,0,0,1,.08.3c.27,1.31.68,2.6,1,3.9A8.91,8.91,0,0,1,139.52,202.14Z"/><path class="cls-13" d="M102.66,118c-.44,0-.87,0-1.3,0H61.89V105.84h6c0,.87,0,1.69,0,2.51a14.89,14.89,0,0,0,.11,1.77,2,2,0,0,0,4-.29c0-1.3,0-2.6,0-4h6.18c0,1.2,0,2.42,0,3.63,0,1.49.8,2.42,2,2.41s2-.93,2.06-2.39c0-1.18,0-2.36,0-3.64h6.16c0,1.17,0,2.37,0,3.58,0,1.47.78,2.42,2,2.45s2.08-.93,2.1-2.46c0-1.17,0-2.35,0-3.59h6.15c0,1.15,0,2.25,0,3.34a2.36,2.36,0,0,0,1.42,2.61c1.18.43,2-.23,2.61-1.11Q102.67,114.34,102.66,118Z"/><path class="cls-6" d="M94.32,179.23a8.71,8.71,0,0,0-7.85-7.65c-5-.29-9.21,2.17-9.84,6.59s-.34,8.89-.46,13.34c0,.07.1.13.15.2H94.37C94.37,187.43,94.58,183.32,94.32,179.23Zm-9.94,3.44c0,2.06-.69,3.1-2.08,3.12s-2.14-1.07-2.14-3.08a6.66,6.66,0,0,1,0-1.18,2,2,0,0,1,2.16-1.89,2.57,2.57,0,0,1,.4.05,1.63,1.63,0,0,1,.37.13l.17.08.15.1.18.15a.77.77,0,0,1,.18.18l.13.17a1.64,1.64,0,0,1,.14.22,2.56,2.56,0,0,1,.11.24,2.09,2.09,0,0,1,.08.23.36.36,0,0,1,0,.1.44.44,0,0,1,0,.1,1.86,1.86,0,0,1,.05.34C84.39,182,84.38,182.36,84.38,182.67Zm5.92,1.75a1.63,1.63,0,0,1-.21.53l-.09.13-.12.14-.14.13a1.28,1.28,0,0,1-.4.25l-.18.07a2.21,2.21,0,0,1-1.09.05l-.39-.1-.34-.15a1.88,1.88,0,0,1-.51-.41l-.08-.1-.14-.21h0c0-.08-.07-.15-.1-.24v0a1.83,1.83,0,0,1-.08-.25c0-.1,0-.2-.06-.3s0-.2,0-.3c0-.32,0-.64,0-1h0a9.37,9.37,0,0,1,0-1.06,2.77,2.77,0,0,1,.18-.74,1.47,1.47,0,0,1,.1-.22l.06-.1a1.94,1.94,0,0,1,.21-.29,1.06,1.06,0,0,1,.15-.15l.18-.14a2.14,2.14,0,0,1,.48-.23,2.23,2.23,0,0,1,.39-.09,2.33,2.33,0,0,1,1.09.05l.17.07.07,0h0l.2.11.18.14.08.07.08.08a1,1,0,0,1,.12.17.41.41,0,0,1,.07.11,1.39,1.39,0,0,1,.11.21.4.4,0,0,1,0,.13.36.36,0,0,1,0,.09l0,.13A7.94,7.94,0,0,1,90.3,184.42Z"/><path class="cls-14" d="M102.64,150c0-3.5,0-7,0-10.51.05-3,.1-6.05.12-9.07a5.21,5.21,0,0,0-.26-1.14c.08-1.35.22-2.7.22-4,0-1-.17-2-.26-3h4.3v69.56h-4q0-15.36,0-30.72a3.5,3.5,0,0,0-.23-.87,3.34,3.34,0,0,0,.24-.9C102.71,156.18,102.67,153.08,102.64,150Z"/><path class="cls-15" d="M133.58,191.75q0-24.45,0-48.9h4v48.9Z"/><path class="cls-13" d="M135.46,138.46l-24,0a1.32,1.32,0,0,1-.32-.11v-5.94c1.08,0,2.14-.05,3.18,0,.26,0,.61.48.7.8a10.92,10.92,0,0,1,.07,1.41,2,2,0,0,0,2.13,1.8,1.93,1.93,0,0,0,1.89-1.9c.19-2.15.19-2.15,2.38-2.15,2,0,1.76-.15,1.78,1.67,0,1.53.86,2.5,2.1,2.47a2.2,2.2,0,0,0,2-2.45c0-1.73-.3-1.69,1.76-1.69h2.18c.3,1.46-.41,3.27,1.52,3.94a2.06,2.06,0,0,0,2.35-.7Z"/><path class="cls-15" d="M102.66,118q0-3.67,0-7.33v-4.81h6.08V118Z"/><path class="cls-15" d="M135.46,138.46l-.21-2.78c.1-.78.26-1.55.3-2.33s.24-.89.9-.93c3.27-.22,3.27-.24,3.27,3.07,0,3,0,3-3,3Z"/><path class="cls-11" d="M142,194.38l.16.49Z"/><path class="cls-16" d="M133.37,128.24h0Z"/><path class="cls-11" d="M112.75,104.09l.14.3Z"/><path class="cls-14" d="M64,122.24l-.15.17Z"/><path class="cls-14" d="M63.81,191.52l.17.23Z"/><path class="cls-11" d="M112.92,119.28l-.1.25Z"/><path class="cls-17" d="M112.62,120l.08-.17"/><path class="cls-11" d="M112.51,103.61l.16.27Z"/><path class="cls-10" d="M72,155c0,1.27,0,2.53,0,3.8,0,1.43-.78,2.27-2,2.31a2.06,2.06,0,0,1-2.16-2.28c0-2.56,0-5.13,0-7.7A2.15,2.15,0,0,1,70,148.8c1.22,0,2,1,2,2.43C72.05,152.49,72,153.76,72,155Z"/><path class="cls-10" d="M72,134.49c0,1.3,0,2.6,0,3.91a2.08,2.08,0,1,1-4.15.09c0-2.69,0-5.37,0-8.06a2.08,2.08,0,1,1,4.15,0C72.07,131.8,72,133.14,72,134.49Z"/><path class="cls-10" d="M92.56,134.62c0,1.27,0,2.53,0,3.8a2.08,2.08,0,1,1-4.14-.07c0-2.61,0-5.21,0-7.82a2.07,2.07,0,1,1,4.13-.05C92.59,131.86,92.56,133.24,92.56,134.62Z"/><path class="cls-10" d="M88.41,155c0-1.3,0-2.61,0-3.91a2.08,2.08,0,1,1,4.14,0q0,3.9,0,7.82a2,2,0,0,1-2.06,2.25c-1.27,0-2.06-.86-2.08-2.34C88.39,157.53,88.41,156.26,88.41,155Z"/><path class="cls-10" d="M102.64,150c0,3.1.07,6.2.09,9.3a3.34,3.34,0,0,1-.24.9A2,2,0,0,1,100,161a2.14,2.14,0,0,1-1.37-2.25q0-3.72,0-7.44a2.21,2.21,0,0,1,1.5-2.41A2.08,2.08,0,0,1,102.64,150Z"/><path class="cls-10" d="M102.49,129.26a5.21,5.21,0,0,1,.26,1.14c0,3-.07,6-.12,9.07a2.05,2.05,0,0,1-2.5,1.07,2.22,2.22,0,0,1-1.48-2.44c0-2.45,0-4.91,0-7.36a2.19,2.19,0,0,1,1.35-2.29A2,2,0,0,1,102.49,129.26Z"/><path class="cls-10" d="M78.19,134.35c0-1.3,0-2.61,0-3.91a2,2,0,1,1,4.08,0c0,2.68,0,5.37,0,8.05a2,2,0,1,1-4.08,0C78.17,137.11,78.19,135.73,78.19,134.35Z"/><path class="cls-10" d="M82.27,155c0,1.31,0,2.61,0,3.91a2,2,0,0,1-2,2.26,2,2,0,0,1-2-2.24c0-2.6,0-5.21,0-7.81a2.05,2.05,0,1,1,4.08,0C82.29,152.37,82.27,153.67,82.27,155Z"/><path class="cls-10" d="M131.54,155c0,1.3,0,2.6,0,3.9a2,2,0,0,1-2.05,2.25,2,2,0,0,1-2.08-2.2q0-4,0-7.93a2.07,2.07,0,1,1,4.13,0C131.56,152.3,131.53,153.64,131.54,155Z"/><path class="cls-10" d="M117.15,154.82c0-1.26,0-2.53,0-3.8a2.05,2.05,0,1,1,4.09,0q0,4,0,7.95a2,2,0,1,1-4.09,0C117.13,157.59,117.15,156.21,117.15,154.82Z"/><path class="cls-10" d="M86.33,182.68a9.37,9.37,0,0,1,0-1.06,2,2,0,0,1,1.74-2,1.87,1.87,0,0,1,2.31,1.4,7.94,7.94,0,0,1-.09,3.36,1.79,1.79,0,0,1-2.23,1.3,2,2,0,0,1-1.74-2.08c0-.32,0-.64,0-1Z"/><path class="cls-10" d="M84.37,182.67q0,3.09-2.07,3.12c-1.38,0-2.14-1.07-2.14-3.08a6.66,6.66,0,0,1,0-1.18,2,2,0,0,1,2.16-1.89,2.11,2.11,0,0,1,2,2.09C84.4,182,84.37,182.36,84.37,182.67Z"/><path class="cls-10" d="M143.39,140.34a.57.57,0,0,1-.08.13v-.13Z"/><rect class="cls-10" x="59.68" y="187.12" width="4.1" height="18.94"/><path class="cls-10" d="M73.48,101.62h0Z"/><path class="cls-10" d="M86.07,101.62h0Z"/><path class="cls-7" d="M138.66,128.23h-3.39C136.39,128.21,137.53,128.16,138.66,128.23Z"/><path class="cls-18" d="M45.28,52.62h-1l.51-1.28,8.34-20.61h1.24l8.34,20.61.51,1.28H61.89L53.73,32.51,45.57,52.62Zm4.41-5.72-2.34,5.72H46l1-2.53,1.79-4.43h9.76l1.68,4.14,1.13,2.82H60.11L57.77,46.9Zm8.74-1.64H49l4.7-11.66ZM50.85,44h5.76l-2.88-7.14Z"/><path class="cls-18" d="M68.7,45v7.58H67.46V43.8h4.3A5.54,5.54,0,0,0,74,43.33a5.94,5.94,0,0,0,3.15-3.16,5.59,5.59,0,0,0,.47-2.29,5.41,5.41,0,0,0-.47-2.23,6.61,6.61,0,0,0-1.27-1.89A6.2,6.2,0,0,0,74,32.46a5.41,5.41,0,0,0-2.28-.5h-4.7V52.62H65.82V30.73h5.94a6.9,6.9,0,0,1,2.75.56,7.36,7.36,0,0,1,3.83,3.83,7,7,0,0,1,0,5.5,7.27,7.27,0,0,1-1.55,2.27,7.67,7.67,0,0,1-2.28,1.57,6.59,6.59,0,0,1-2.75.58ZM67.46,32.37h4.3a5.12,5.12,0,0,1,2.13.45A6,6,0,0,1,75.64,34a5.77,5.77,0,0,1,1.19,1.75,5.32,5.32,0,0,1,0,4.19,5.72,5.72,0,0,1-2.94,2.95,5,5,0,0,1-2.13.46h-4.3ZM68.7,33.6v8.53h3.06a3.92,3.92,0,0,0,1.64-.35,4.65,4.65,0,0,0,1.35-.91,4.18,4.18,0,0,0,1.27-3,3.92,3.92,0,0,0-.34-1.64A4.52,4.52,0,0,0,73.4,34a3.92,3.92,0,0,0-1.64-.35Z"/><path class="cls-18" d="M91.76,52.62H81.38V30.73H91.76V32H82.62V51.38h9.14Zm-7.5-11.07h5.68v1.23H83V32.37h8.74V33.6h-7.5Zm5.68,2.91H84.26v5.28h7.5V51H83V43.22h6.92Z"/><path class="cls-18" d="M103.64,30.73H117V32H103.64Zm5.24,21.89v-19h-5.24V32.37h6.48V52.62Zm2.88,0h-1.24V32.37H117V33.6h-5.25Z"/><path class="cls-18" d="M118.72,46.57a5,5,0,0,0,1.78,2.48,4.72,4.72,0,0,0,2.88,1,4.77,4.77,0,0,0,2.32-.57,5.21,5.21,0,0,0,1.76-1.55l1,.7a6.47,6.47,0,0,1-2.13,1.93,6,6,0,0,1-2.94.73,5.75,5.75,0,0,1-2.33-.48,6.13,6.13,0,0,1-1.91-1.27,6.47,6.47,0,0,1-1.33-1.88,5.7,5.7,0,0,1-.55-2.27h12.68v-.22a6.4,6.4,0,0,0-.51-2.54A6.51,6.51,0,0,0,128,40.5a6.72,6.72,0,0,0-2.1-1.4,6.45,6.45,0,0,0-2.55-.51,6.32,6.32,0,0,0-2.53.51,6.74,6.74,0,0,0-2.08,1.4,6.56,6.56,0,0,0-1.4,2.09,6.44,6.44,0,0,0-.51,2.54,6.33,6.33,0,0,0,.53,2.58,6.58,6.58,0,0,0,1.42,2.07,6.71,6.71,0,0,0,2.08,1.39,6.22,6.22,0,0,0,2.49.5,6.54,6.54,0,0,0,5.43-2.87l1,.69A7.76,7.76,0,0,1,127,52a7.66,7.66,0,0,1-3.65.91,7.19,7.19,0,0,1-3-.62,8.22,8.22,0,0,1-2.47-1.67,7.94,7.94,0,0,1-1.7-2.48,7.56,7.56,0,0,1-.62-3,7.78,7.78,0,0,1,.59-3,7.45,7.45,0,0,1,1.67-2.52h0a7.71,7.71,0,0,1,5.46-2.25,7.4,7.4,0,0,1,3,.62,8,8,0,0,1,2.47,1.67,7.88,7.88,0,0,1,1.68,2.48,7.45,7.45,0,0,1,.62,3v1.45Zm-1.46-1.67a5.79,5.79,0,0,1,.55-2.28,6.42,6.42,0,0,1,1.33-1.87,6.16,6.16,0,0,1,1.91-1.28,5.74,5.74,0,0,1,2.33-.47,6,6,0,0,1,2.39.47,6.25,6.25,0,0,1,1.93,1.28A5.8,5.8,0,0,1,129,42.62a5.92,5.92,0,0,1,.51,2.28Zm10.82-1.24a5,5,0,0,0-1.78-2.48,4.76,4.76,0,0,0-2.92-.94A4.66,4.66,0,0,0,120,41.66h0a5.38,5.38,0,0,0-1.2,2Z"/><path class="cls-18" d="M135.15,52.62h-1.24v-15h1.24v15Zm1.64-14.14a6.16,6.16,0,0,1,1.73-.84,6.49,6.49,0,0,1,1.91-.28v1.23a5,5,0,0,0-3,.91,5.83,5.83,0,0,0-1.93,2.26V37.61h1.24Zm3.64,1.76a3.37,3.37,0,0,0-1.42.29,3.66,3.66,0,0,0-1.15.78,3.83,3.83,0,0,0-.78,1.15,3.38,3.38,0,0,0-.29,1.38v8.78h-1.24V43.84a4.73,4.73,0,0,1,.38-1.89,4.82,4.82,0,0,1,1-1.53,4.75,4.75,0,0,1,1.55-1,4.69,4.69,0,0,1,1.91-.38Z"/><path class="cls-18" d="M144.73,52.62h-1.24v-15h1.24v15Zm1.64-14.14a6.16,6.16,0,0,1,1.73-.84,6.49,6.49,0,0,1,1.91-.28v1.23a5,5,0,0,0-2.95.91,5.83,5.83,0,0,0-1.93,2.26V37.61h1.24ZM150,40.24a3.37,3.37,0,0,0-1.42.29,3.66,3.66,0,0,0-1.15.78,3.83,3.83,0,0,0-.78,1.15,3.38,3.38,0,0,0-.29,1.38v8.78h-1.24V43.84a4.73,4.73,0,0,1,.38-1.89,4.82,4.82,0,0,1,1-1.53,4.75,4.75,0,0,1,1.55-1A4.69,4.69,0,0,1,150,39Z"/><path class="cls-18" d="M154.82,30.54a1.77,1.77,0,0,1,1.26.52,1.74,1.74,0,0,1,0,2.5,1.73,1.73,0,0,1-1.26.52,1.65,1.65,0,0,1-1.24-.52,1.77,1.77,0,0,1,1.24-3ZM153.4,52.62v-15h1.24v15Zm1.42-21.13a.72.72,0,0,0-.55.24.81.81,0,0,0-.21.56.84.84,0,0,0,.21.57.75.75,0,0,0,.55.23.79.79,0,0,0,.8-.8.8.8,0,0,0-.8-.8Zm0,.44c.27,0,.4.12.4.36s-.13.37-.4.37a.37.37,0,0,1,0-.73Zm.22,5.68h1.24v15H155Z"/><path class="cls-18" d="M160.21,30.73h1.24v8.12h-2.73V37.61h1.49Zm1.24,8.52v7.58a4.72,4.72,0,0,0,.36,1.84,5.12,5.12,0,0,0,2.48,2.57,4.63,4.63,0,0,0,1.82.43h.26v1.24a5.69,5.69,0,0,1-2.35-.49,6.52,6.52,0,0,1-2-1.35,6.4,6.4,0,0,1-1.35-2,5.84,5.84,0,0,1-.49-2.34V40.49h-1.49V39.25Zm.44-.4V30.73h1.24v6.88h2.47v1.24Zm4.26,12.39a4.48,4.48,0,0,1-1.66-.39,4.19,4.19,0,0,1-1.36-.94,4.4,4.4,0,0,1-1.24-3.08V39.25h3.71v1.24h-2.47v6.27A3.23,3.23,0,0,0,166.37,50v1.24Z"/><path class="cls-18" d="M181.45,50.62a8,8,0,0,1-2.51,1.69,7.64,7.64,0,0,1-3,.6,7.28,7.28,0,0,1-3-.62,7.88,7.88,0,0,1-2.46-1.69,8.27,8.27,0,0,1-1.67-2.48,7.39,7.39,0,0,1-.62-3,7.52,7.52,0,0,1,.62-3,8.05,8.05,0,0,1,1.69-2.46A8.15,8.15,0,0,1,173,38a7.44,7.44,0,0,1,3-.6,7.32,7.32,0,0,1,3,.62,7.91,7.91,0,0,1,2.48,1.67,8.23,8.23,0,0,1,1.68,2.48,7.45,7.45,0,0,1,.62,3,7.73,7.73,0,0,1-.59,3A7.41,7.41,0,0,1,181.45,50.62Zm-.87-.87a6.28,6.28,0,0,0,1.93-4.62,6.31,6.31,0,0,0-.51-2.52,6.45,6.45,0,0,0-1.41-2.07,6.78,6.78,0,0,0-2.09-1.42,6.46,6.46,0,0,0-5.08,0,6.74,6.74,0,0,0-2.08,1.4,6.56,6.56,0,0,0-1.4,2.09,6.44,6.44,0,0,0-.51,2.54,6.17,6.17,0,0,0,.53,2.58,6.41,6.41,0,0,0,1.42,2.07,6.55,6.55,0,0,0,2.07,1.39,6.27,6.27,0,0,0,2.5.5,6.27,6.27,0,0,0,4.63-1.92ZM176,51.24a6,6,0,0,1-4.35-1.82,6.34,6.34,0,0,1-1.3-2,6.11,6.11,0,0,1,0-4.7,6.34,6.34,0,0,1,1.3-2,6,6,0,0,1,1.94-1.33A6,6,0,0,1,176,39a5.88,5.88,0,0,1,2.42.49,6.43,6.43,0,0,1,1.95,1.33,6,6,0,0,1,1.31,2,5.85,5.85,0,0,1,.48,2.35,5.92,5.92,0,0,1-.48,2.38,5.74,5.74,0,0,1-1.31,1.93,6.43,6.43,0,0,1-2,1.32A6.06,6.06,0,0,1,176,51.24ZM176,50a4.69,4.69,0,0,0,1.91-.39A4.85,4.85,0,0,0,180.48,47a4.61,4.61,0,0,0,.39-1.87,4.66,4.66,0,0,0-.39-1.88,4.92,4.92,0,0,0-1-1.57,4.81,4.81,0,0,0-1.57-1.05,4.91,4.91,0,0,0-3.79,0,4.87,4.87,0,0,0-1.56,1.05,5.12,5.12,0,0,0-1.06,1.57,4.82,4.82,0,0,0-.38,1.88,4.77,4.77,0,0,0,.38,1.87,5,5,0,0,0,1.06,1.57,4.87,4.87,0,0,0,1.56,1A4.66,4.66,0,0,0,176,50Z"/><path class="cls-18" d="M187.72,52.62h-1.24v-15h1.24v15Zm1.64-14.14a6.16,6.16,0,0,1,1.73-.84,6.45,6.45,0,0,1,1.91-.28v1.23a5,5,0,0,0-2.95.91,5.75,5.75,0,0,0-1.93,2.26V37.61h1.24ZM193,40.24a3.37,3.37,0,0,0-1.42.29,3.69,3.69,0,0,0-1.93,1.93,3.22,3.22,0,0,0-.29,1.38v8.78h-1.24V43.84A4.56,4.56,0,0,1,188.5,42a4.87,4.87,0,0,1,4.5-3Z"/><path class="cls-18" d="M206.19,51.78a6.35,6.35,0,0,1-6.11.62A6.58,6.58,0,0,1,198,51a6.68,6.68,0,0,1-1.42-2.08,6,6,0,0,1-.53-2.53V37.61h1.24v8.78a5.09,5.09,0,0,0,.42,2.06,5.23,5.23,0,0,0,1.13,1.68,5.41,5.41,0,0,0,1.67,1.13,5.26,5.26,0,0,0,2.06.41,5.27,5.27,0,0,0,4.84-3.2v4.92a4.56,4.56,0,0,1-.38,1.89,4.88,4.88,0,0,1-1,1.53,4.46,4.46,0,0,1-1.53,1,4.88,4.88,0,0,1-5.35-1.13l-.29.29a5,5,0,0,0,1.69,1.17,5.23,5.23,0,0,0,2.1.43,5.07,5.07,0,0,0,2-.41,5.1,5.1,0,0,0,2.75-2.8,5.21,5.21,0,0,0,.41-2V37.61h1.23V53.39a6.23,6.23,0,0,1-.51,2.49,6.39,6.39,0,0,1-3.44,3.44,6.23,6.23,0,0,1-2.49.51,6.54,6.54,0,0,1-2.52-.49A6.35,6.35,0,0,1,198,57.87l2.08-2a3.1,3.1,0,0,1,.45.35,2.89,2.89,0,0,0,.72.46,4,4,0,0,0,1.42.29,3.29,3.29,0,0,0,1.36-.29,3.9,3.9,0,0,0,1.13-.79,3.69,3.69,0,0,0,.78-1.13,3.14,3.14,0,0,0,.3-1.36ZM197.7,37.61h1.24v8.78a3.3,3.3,0,0,0,.29,1.39,3.73,3.73,0,0,0,.78,1.14,3.86,3.86,0,0,0,1.15.79,3.53,3.53,0,0,0,1.42.29,3.41,3.41,0,0,0,1.38-.29,3.86,3.86,0,0,0,1.15-.79,3.73,3.73,0,0,0,.78-1.14,3.31,3.31,0,0,0,.3-1.39V37.61h1.23v8.78a4.64,4.64,0,0,1-.38,1.9,4.85,4.85,0,0,1-2.58,2.56,4.8,4.8,0,0,1-3.79,0,4.88,4.88,0,0,1-1.55-1,5.06,5.06,0,0,1-1-1.53,4.81,4.81,0,0,1-.38-1.9Z"/><path class="cls-18" d="M43.71,218.81v-1.24H56.86l-1.13,2.11a54.06,54.06,0,0,0-4,9.62,57,57,0,0,0-2.15,10.16H48.27l.18-1.23a64.38,64.38,0,0,1,2.27-9.8,56.88,56.88,0,0,1,3.92-9.3l.15-.32Zm0,1.64v-1.24H54.06L53.22,221a50.38,50.38,0,0,0-3.28,8.45,68,68,0,0,0-1.89,8.78l-.18,1.24H46.63a64.7,64.7,0,0,1,1.95-9.71,57.8,57.8,0,0,1,3.51-9.3Z"/><path class="cls-18" d="M60.51,224.05a12.87,12.87,0,0,1,1.16-2.71,9.22,9.22,0,0,1,1.75-2.19,7.62,7.62,0,0,1,5.25-2,7.36,7.36,0,0,1,3.84,1,9,9,0,0,1,2.77,2.57A11.56,11.56,0,0,1,77,224.34a15.57,15.57,0,0,1,0,8.35,11.56,11.56,0,0,1-1.67,3.62,8.65,8.65,0,0,1-2.77,2.55,8.11,8.11,0,0,1-7.69,0,8.48,8.48,0,0,1-2.75-2.55,12,12,0,0,1-1.66-3.62,15.91,15.91,0,0,1-.56-4.19A15.13,15.13,0,0,1,60.51,224.05Zm1.16.36a14.83,14.83,0,0,0-.44,2,15.64,15.64,0,0,0-.14,2.07,14.72,14.72,0,0,0,.47,3.67A11.29,11.29,0,0,0,63,235.41a7.48,7.48,0,0,0,2.34,2.31,6.9,6.9,0,0,0,6.71,0,7.79,7.79,0,0,0,2.37-2.31,11,11,0,0,0,1.42-3.26,14.52,14.52,0,0,0,0-7.33,11,11,0,0,0-1.42-3.23A7.56,7.56,0,0,0,72,219.28a6.31,6.31,0,0,0-3.35-.87,6.23,6.23,0,0,0-2.5.47,6.84,6.84,0,0,0-2,1.27,7.8,7.8,0,0,0-1.52,1.91A10.86,10.86,0,0,0,61.67,224.41Zm7-5.6a5.81,5.81,0,0,1,3.22.87,7.43,7.43,0,0,1,2.24,2.26,10,10,0,0,1,1.32,3.11,14.34,14.34,0,0,1,0,6.89,10.17,10.17,0,0,1-1.3,3.11,7.08,7.08,0,0,1-2.23,2.26,5.79,5.79,0,0,1-3.25.88,5.65,5.65,0,0,1-3.21-.9A7.73,7.73,0,0,1,63.22,235a10.25,10.25,0,0,1-1.31-3.12,14.38,14.38,0,0,1-.42-3.4,14.19,14.19,0,0,1,.44-3.45,10.22,10.22,0,0,1,1.33-3.11,7.58,7.58,0,0,1,2.25-2.26A5.73,5.73,0,0,1,68.68,218.81Zm0,1.24a4.49,4.49,0,0,0-2.72.8,6.58,6.58,0,0,0-1.84,2,9.06,9.06,0,0,0-1,2.73,13.26,13.26,0,0,0-.33,2.88,13.78,13.78,0,0,0,.33,2.93,8.86,8.86,0,0,0,1,2.73,6.58,6.58,0,0,0,1.84,2,5.09,5.09,0,0,0,5.45,0,6.79,6.79,0,0,0,1.86-2,9.27,9.27,0,0,0,1-2.72,13.46,13.46,0,0,0,.33-2.91,13.12,13.12,0,0,0-.33-2.84,9.75,9.75,0,0,0-1-2.76,6.55,6.55,0,0,0-1.86-2.05A4.56,4.56,0,0,0,68.67,220.05Z"/><path class="cls-18" d="M80.65,224.05a12.39,12.39,0,0,1,1.17-2.71,9,9,0,0,1,1.75-2.19,7.62,7.62,0,0,1,5.24-2,7.38,7.38,0,0,1,3.85,1,8.91,8.91,0,0,1,2.76,2.57,11.8,11.8,0,0,1,1.68,3.62,15.84,15.84,0,0,1,0,8.35,11.8,11.8,0,0,1-1.68,3.62,8.62,8.62,0,0,1-2.76,2.55,8.11,8.11,0,0,1-7.69,0,8.38,8.38,0,0,1-2.75-2.55,12,12,0,0,1-1.66-3.62A15.51,15.51,0,0,1,80,228.5,15.12,15.12,0,0,1,80.65,224.05Zm1.17.36a13.45,13.45,0,0,0-.44,2,14.11,14.11,0,0,0-.15,2.07,14.28,14.28,0,0,0,.48,3.67,11,11,0,0,0,1.4,3.26,7.51,7.51,0,0,0,2.35,2.31,6.88,6.88,0,0,0,6.7,0,7.68,7.68,0,0,0,2.37-2.31A10.79,10.79,0,0,0,96,232.15a14.23,14.23,0,0,0,0-7.33,10.72,10.72,0,0,0-1.42-3.23,7.46,7.46,0,0,0-2.37-2.31,6.86,6.86,0,0,0-5.84-.4,6.89,6.89,0,0,0-2,1.27,7.77,7.77,0,0,0-1.51,1.91A10.39,10.39,0,0,0,81.82,224.41Zm7-5.6a5.8,5.8,0,0,1,3.21.87,7.58,7.58,0,0,1,2.25,2.26,9.72,9.72,0,0,1,1.31,3.11,14,14,0,0,1,0,6.89,10.16,10.16,0,0,1-1.29,3.11,7.29,7.29,0,0,1-2.23,2.26,5.79,5.79,0,0,1-3.25.88,5.65,5.65,0,0,1-3.21-.9A7.73,7.73,0,0,1,83.37,235a10,10,0,0,1-1.31-3.12,14.38,14.38,0,0,1-.42-3.4,14.17,14.17,0,0,1,.43-3.45,10.49,10.49,0,0,1,1.34-3.11,7.43,7.43,0,0,1,2.24-2.26A5.74,5.74,0,0,1,88.83,218.81Zm0,1.24a4.46,4.46,0,0,0-2.71.8,6.46,6.46,0,0,0-1.84,2,9.08,9.08,0,0,0-1.06,2.73,13.26,13.26,0,0,0-.33,2.88,13.78,13.78,0,0,0,.33,2.93,8.88,8.88,0,0,0,1.06,2.73,6.46,6.46,0,0,0,1.84,2,5.08,5.08,0,0,0,5.44,0,6.54,6.54,0,0,0,1.86-2,9,9,0,0,0,1.06-2.72,13.46,13.46,0,0,0,.33-2.91,13.12,13.12,0,0,0-.33-2.84,9.47,9.47,0,0,0-1.06-2.76,6.32,6.32,0,0,0-1.86-2.05A4.54,4.54,0,0,0,88.81,220.05Z"/><path class="cls-18" d="M115.66,242.34h-1.24v-2.59a7.09,7.09,0,0,1-2.91-1.22,6.44,6.44,0,0,1-2-2.31l1.09-.58a5.29,5.29,0,0,0,2,2.16,5.54,5.54,0,0,0,3,.82h.11Zm-3.64-7.5a3.57,3.57,0,0,0,1,1.22,5.32,5.32,0,0,0,1.4.74v-8.59c-.58-.3-1.13-.61-1.64-.93a6.28,6.28,0,0,1-1.31-1.13,5,5,0,0,1-.86-1.48,5.83,5.83,0,0,1-.3-2,5.38,5.38,0,0,1,1.14-3.37,5.61,5.61,0,0,1,3-2v-2.7h1.24v3.76a4,4,0,0,0-1.58.38,4.51,4.51,0,0,0-1.32.91,4.31,4.31,0,0,0-1.22,3,4,4,0,0,0,.35,1.75,4.32,4.32,0,0,0,.91,1.28,6.12,6.12,0,0,0,1.31,1c.5.26,1,.52,1.55.76v10.75h-.11a5.17,5.17,0,0,1-2.73-.75,5,5,0,0,1-1.9-2Zm3.64-7.87c-.49-.22-1-.45-1.4-.7a5.22,5.22,0,0,1-1.19-.85,4,4,0,0,1-.82-1.15,3.76,3.76,0,0,1-.31-1.57,3.71,3.71,0,0,1,.3-1.49A3.85,3.85,0,0,1,113,220a3.74,3.74,0,0,1,1.18-.82,4.33,4.33,0,0,1,1.44-.33Zm-1.24-6.52a3.26,3.26,0,0,0-.89,1,2.45,2.45,0,0,0-.35,1.29,2.31,2.31,0,0,0,.35,1.32,3.83,3.83,0,0,0,.89.91Zm1.68-5.8h1.24v2.74a4.89,4.89,0,0,1,1.56.71,5.22,5.22,0,0,1,1.24,1.14l-1,.77a4.09,4.09,0,0,0-3.09-1.6Zm1.24,11.7c.72.34,1.4.7,2,1.07a7.4,7.4,0,0,1,1.64,1.33,5.48,5.48,0,0,1,1.07,1.77,6.68,6.68,0,0,1,.38,2.42,6.85,6.85,0,0,1-.36,2.2,6.58,6.58,0,0,1-1.06,2,7.33,7.33,0,0,1-1.64,1.55,6.5,6.5,0,0,1-2.07,1v2.73H116.1v-3.75a5.9,5.9,0,0,0,2-.58,5.64,5.64,0,0,0,1.62-1.24,5.86,5.86,0,0,0,1.09-1.75,5.42,5.42,0,0,0,.4-2.08,4.81,4.81,0,0,0-1.58-3.79,6.85,6.85,0,0,0-1.6-1.09c-.6-.29-1.2-.57-1.81-.84l-.14-.07v-8.31a3.85,3.85,0,0,1,2.77,1.42l-1,.77-.27-.27a1.5,1.5,0,0,0-.31-.24Zm-1.24,1.27,1.73.82a6.46,6.46,0,0,1,1.51,1,4.67,4.67,0,0,1,1.07,1.44,4.52,4.52,0,0,1,.42,2,5.13,5.13,0,0,1-.36,1.9,5.28,5.28,0,0,1-1,1.62,5.69,5.69,0,0,1-1.51,1.16,4.54,4.54,0,0,1-1.84.53Zm1.24,8.93a3.81,3.81,0,0,0,1.64-1.5,4,4,0,0,0,.61-2.11,3.12,3.12,0,0,0-.65-2.11,5.61,5.61,0,0,0-1.6-1.28Z"/><path class="cls-18" d="M125.2,217.57h6.45a10.53,10.53,0,0,1,4.21.85,11.22,11.22,0,0,1,3.48,2.34,11.48,11.48,0,0,1,2.39,3.47,10.47,10.47,0,0,1,.89,4.27,10.29,10.29,0,0,1-.88,4.24,11.45,11.45,0,0,1-2.36,3.48,11.28,11.28,0,0,1-3.5,2.37,10.54,10.54,0,0,1-4.23.87H125.2Zm1.24,1.24v19.41h5.21a9.37,9.37,0,0,0,3.77-.76,10,10,0,0,0,3.1-2.09,9.92,9.92,0,0,0,2.09-3.09,9.38,9.38,0,0,0,.77-3.77,9.21,9.21,0,0,0-.78-3.76,10.37,10.37,0,0,0-2.12-3.09,10,10,0,0,0-3.09-2.09,9.33,9.33,0,0,0-3.74-.76Zm.4.4h4.82a9,9,0,0,1,3.6.74,9.9,9.9,0,0,1,3,2,9.3,9.3,0,0,1,2,2.95,8.9,8.9,0,0,1,.73,3.59,9,9,0,0,1-.73,3.62,9.3,9.3,0,0,1-2,2.95,9.9,9.9,0,0,1-3,2,9,9,0,0,1-3.6.74h-4.82Zm1.24,1.24v16.13h3.57a7.87,7.87,0,0,0,3.12-.63,8.14,8.14,0,0,0,4.31-4.3,7.67,7.67,0,0,0,.66-3.15,7.56,7.56,0,0,0-.66-3.14,8.25,8.25,0,0,0-1.76-2.55,8.74,8.74,0,0,0-2.57-1.73,7.71,7.71,0,0,0-3.1-.63Z"/><path class="cls-18" d="M148,231.88v7.58h-1.24v-8.81h4.3a5.55,5.55,0,0,0,2.28-.48A6,6,0,0,0,156.5,227a5.71,5.71,0,0,0,.47-2.28,5.59,5.59,0,0,0-.47-2.24,6.44,6.44,0,0,0-1.28-1.89,6.15,6.15,0,0,0-1.87-1.3,5.4,5.4,0,0,0-2.28-.49h-4.7v20.65h-1.24V217.57h5.94a6.9,6.9,0,0,1,2.75.56,7.43,7.43,0,0,1,2.28,1.55,7.61,7.61,0,0,1,1.55,2.28,7,7,0,0,1,0,5.5,7.61,7.61,0,0,1-1.55,2.28,7.83,7.83,0,0,1-2.28,1.56,6.59,6.59,0,0,1-2.75.58Zm-1.24-12.67h4.3a5.15,5.15,0,0,1,2.13.45,6.18,6.18,0,0,1,1.75,1.2,5.68,5.68,0,0,1,1.18,1.75,5.21,5.21,0,0,1,0,4.19,5.57,5.57,0,0,1-1.18,1.75,5.8,5.8,0,0,1-1.75,1.2,5,5,0,0,1-2.13.46h-4.3Zm1.24,1.24V229h3.06a3.81,3.81,0,0,0,1.64-.35,4.65,4.65,0,0,0,1.35-.91,4.29,4.29,0,0,0,.93-1.34,4.11,4.11,0,0,0,.34-1.66,4,4,0,0,0-.34-1.64,4.71,4.71,0,0,0-.93-1.35,4.52,4.52,0,0,0-1.35-.93,4,4,0,0,0-1.64-.34Z"/><path class="cls-18" d="M163.46,220.48a11.54,11.54,0,0,1,3.68-2.46,11,11,0,0,1,4.33-.85,10.85,10.85,0,0,1,4.41.91,11.32,11.32,0,0,1,3.6,2.47,12.2,12.2,0,0,1,2.43,3.61,10.8,10.8,0,0,1,.89,4.34,11,11,0,0,1-.89,4.39,11.63,11.63,0,0,1-2.44,3.6,11.45,11.45,0,0,1-3.61,2.44,10.84,10.84,0,0,1-4.39.9,10.73,10.73,0,0,1-4.35-.9,11.53,11.53,0,0,1-6.07-6,10.73,10.73,0,0,1-.91-4.42,11.13,11.13,0,0,1,.86-4.34A11.76,11.76,0,0,1,163.46,220.48Zm.87.87a10,10,0,0,0-3,7.13,9.77,9.77,0,0,0,.8,3.91,10.4,10.4,0,0,0,5.39,5.4,9.91,9.91,0,0,0,7.8,0,10.4,10.4,0,0,0,5.39-5.4,9.77,9.77,0,0,0,.8-3.91,9.6,9.6,0,0,0-.8-3.89,10.53,10.53,0,0,0-2.17-3.2,10.15,10.15,0,0,0-3.2-2.18,9.65,9.65,0,0,0-3.92-.8,10,10,0,0,0-7.14,2.94Zm7.14-2.54a9.1,9.1,0,0,1,3.73.78,10.39,10.39,0,0,1,3.1,2.09,9.79,9.79,0,0,1,2.1,3.08,9.56,9.56,0,0,1,0,7.47,9.88,9.88,0,0,1-2.1,3.1,10,10,0,0,1-3.1,2.09,9.42,9.42,0,0,1-7.46,0,9.85,9.85,0,0,1-5.2-5.19,9.56,9.56,0,0,1,0-7.47,9.83,9.83,0,0,1,5.16-5.17A9.22,9.22,0,0,1,171.47,218.81Zm0,1.24a8.18,8.18,0,0,0-3.3.67,8.41,8.41,0,0,0-2.69,1.84,8.67,8.67,0,0,0-1.81,2.69,8.31,8.31,0,0,0-.65,3.25,8.14,8.14,0,0,0,.67,3.29,8.74,8.74,0,0,0,1.82,2.7,8.46,8.46,0,0,0,2.7,1.8,8.38,8.38,0,0,0,6.52,0,8.46,8.46,0,0,0,2.7-1.8,8.74,8.74,0,0,0,1.82-2.7,8.14,8.14,0,0,0,.67-3.29,8,8,0,0,0-.67-3.25,9.06,9.06,0,0,0-1.82-2.69,8.6,8.6,0,0,0-2.68-1.84A8,8,0,0,0,171.47,220.05Z"/><path class="cls-18" d="M196.64,239.46h-11V217.57h1.24v20.65h9.8Zm0-1.64h-9.4V217.57h1.24v19h8.16v1.24Z"/><path class="cls-18" d="M202.07,239.46V229.22L194,217.57h1.5l7.83,11.25v10.64Zm-4.59-21.89.62.84,5.43,7.83,6.05-8.67h1.49l-7.54,10.82-5.9-8.49L196,217.57Zm7.51,19v2.88h-1.24V228.82l5.61-8.12,2.22-3.13h1.49l-2.18,3.09-5.9,8.56Z"/></g></g></svg>