<svg xmlns="http://www.w3.org/2000/svg" viewBox="0 0 253.51 253.51"><defs><style>.cls-1{fill:#cfe7d7;stroke-width:5px;}.cls-1,.cls-3{stroke:#000;}.cls-2{fill:#f15959;}.cls-3,.cls-6{fill:none;}.cls-4{fill:#f7941d;stroke:#fff200;stroke-miterlimit:10;}.cls-5{fill:#009444;}.cls-6{stroke:#231f20;stroke-linecap:round;stroke-linejoin:round;stroke-width:2px;}.cls-7{fill:#231f20;}</style></defs><g id="Layer_2" data-name="Layer 2"><g id="Layer_1-2" data-name="Layer 1"><rect class="cls-1" x="2.5" y="2.5" width="248.51" height="248.51"/><rect class="cls-2" x="8.36" y="8.36" width="236.8" height="62.45"/><rect class="cls-3" x="8.36" y="8.36" width="236.8" height="62.45"/><circle class="cls-4" cx="162.87" cy="135.13" r="47.05"/><path id="Layer_6" data-name="Layer 6" class="cls-5" d="M188.52,153.11c-5.65-5.7-9.16-13.56-16.69-21.1-.94-.94-1.94-1.87-3-2.81-17.92-15.39-49.79-12.79-62-5.54S89,128.8,89,128.8a47.85,47.85,0,0,0,2.28-13.67c0-.68,0-1.37-.08-2l-7.51-1.16L88.32,104a10.65,10.65,0,0,0-1.21-1.4,12.27,12.27,0,0,0-5.32-3l-4.62,6.4-2.79-7a38.2,38.2,0,0,0-5,.7s-1.93,31.61-6.08,34.87a107.53,107.53,0,0,0-13.75-1c-5.32,0-11,.53-14.55,2.36,0,0,20.87,1.18,25.28,4.42,0,0-1.5,8.58-11,7.3a7.5,7.5,0,0,1,.47,2.7,8,8,0,0,1-1.56,4.75s-2.76,3.11-2.76,5.85a3.11,3.11,0,0,0,1,2.32,6,6,0,0,0,2.9,1.4v-.11a3.72,3.72,0,0,1,3.55-4,13.44,13.44,0,0,0,1.8,2.25c2.4,2.45,7,5.32,12.79-.12,1-.27,3.76,3.14,11.28-1.25s13.34-6.9,20.15-1.26l2.59.61c-.36,4.75-1.43,13.8-4.25,15.31l-4.66,3.3h11l7.93-14.42,4.47,7.47a16.2,16.2,0,0,1,.3,3.12c0,2.49-.59,5.79-3.42,7.1A80.52,80.52,0,0,0,124,181c1.7-.43,2.35-2.1,2.35-4.38,0-4-2-9.71-3.55-13.8a28.28,28.28,0,0,0,10.7,2,41.93,41.93,0,0,0,13.21-2.22s-.31,13.07-4.89,15.08l8.36,1.9c-1.46,1.6-2.79,2.77-2.79,2.77h11.76l2.73-12.21a2.06,2.06,0,0,1-.31-.28c-2.06-2-2.32-5.82-2.32-7.57,0-.58,0-.92,0-.92,9.12-4,15.93-.82,15.93-.82,20.9,12.78,40.58.9,40.58.9-14.58.64-21.89-2.82-27.26-8.26Z"/><g id="STROKES"><path class="cls-6" d="M81.79,99.66A11.82,11.82,0,0,1,88.32,104"/><path class="cls-6" d="M52.86,160.66c-3.77.22-3.55,4.09-3.55,4.09-8-1.83-1.07-9.57-1.07-9.57a7.9,7.9,0,0,0,1.07-7.43c9.48,1.27,11-7.31,11-7.31C55.87,137.22,35,136,35,136c3.58-1.83,9.23-2.36,14.54-2.36a106.5,106.5,0,0,1,13.76,1c4.16-3.26,6.08-34.88,6.08-34.88a38.18,38.18,0,0,1,5-.69"/><path class="cls-6" d="M91.24,113.08C91.78,120.79,89,128.8,89,128.8s5.64,2.12,17.81-5.14,44-9.85,62,5.55,15.23,33.58,46.92,32.14c0,0-19.68,11.87-40.58-.9,0,0-6.8-3.14-15.93.83,0,0-.48,6.26,2.6,8.78l-2.74,12.21H147.32s1.33-1.17,2.79-2.77c2-2.15,4.12-5.09,3.6-7-.91-3.43-7.08-9.93-7.08-9.93s-12.86,4.78-23.9.27l-.08,0"/><path class="cls-6" d="M109.45,148.1c6.89,2.5,11.18,9.76,11.18,9.76s1,2,2.11,4.93c2.53,6.42,5.9,17,1.21,18.17a80.52,80.52,0,0,1-11.1,1.8c4.84-2.24,3.14-10.22,3.14-10.22l-4.48-7.48-1.25-2.1-8.78-2.08-2.59-.61c-6.81-5.64-12.62-3.14-20.15,1.25s-10.3,1-11.28,1.26c-8.5,8.06-14.6-2.13-14.6-2.13"/><path class="cls-6" d="M140.94,129c-1.14,22.37,5.71,33.55,5.71,33.55s-.3,13.06-4.89,15.08l8.36,1.9"/><path class="cls-6" d="M159.22,161.28v-6.75l8.88-12.32"/><path class="cls-6" d="M89,128.8s-4.18,10.41-10.6,12.64"/><path class="cls-6" d="M67.46,162.79,73,154.9"/><path class="cls-6" d="M101.48,160.89c-.36,4.75-1.43,13.8-4.25,15.31l-4.66,3.3h11l7.93-14.42"/><path class="cls-6" d="M74.38,99.06l2.79,7,4.62-6.4"/><path class="cls-6" d="M88.32,104l-4.58,7.89,7.5,1.15"/></g><path class="cls-7" d="M22.93,26.91h6.45a10.4,10.4,0,0,1,4.21.86,11.1,11.1,0,0,1,5.86,5.81,10.23,10.23,0,0,1,.89,4.26,10.45,10.45,0,0,1-.87,4.24,11.24,11.24,0,0,1-5.87,5.85,10.45,10.45,0,0,1-4.22.87H22.93Zm1.24,1.24V47.57h5.21a9.42,9.42,0,0,0,3.77-.77,9.81,9.81,0,0,0,5.19-5.18,9.37,9.37,0,0,0,.77-3.76,9.23,9.23,0,0,0-.79-3.77A10.16,10.16,0,0,0,36.21,31a10,10,0,0,0-3.1-2.09,9.29,9.29,0,0,0-3.73-.76Zm.4.4h4.82a8.8,8.8,0,0,1,3.6.75,9.82,9.82,0,0,1,3,2,9.12,9.12,0,0,1,2,2.95,9.23,9.23,0,0,1-2,10.16,10,10,0,0,1-3,2,8.79,8.79,0,0,1-3.6.74H24.57Zm1.24,1.24V45.93h3.57a7.83,7.83,0,0,0,3.11-.64,8.19,8.19,0,0,0,2.57-1.73A8.54,8.54,0,0,0,36.81,41a7.6,7.6,0,0,0,.66-3.15,7.48,7.48,0,0,0-.66-3.13A8.37,8.37,0,0,0,35,32.15a8.61,8.61,0,0,0-2.57-1.73,7.69,7.69,0,0,0-3.09-.63Z"/><path class="cls-7" d="M44.61,26.73a1.74,1.74,0,0,1,1.25.51,1.66,1.66,0,0,1,.53,1.25,1.69,1.69,0,0,1-.53,1.26,1.74,1.74,0,0,1-1.25.51,1.68,1.68,0,0,1-1.24-.51,1.74,1.74,0,0,1-.51-1.26,1.72,1.72,0,0,1,.51-1.25A1.68,1.68,0,0,1,44.61,26.73ZM43.19,48.8v-15h1.23v15Zm1.42-21.13a.72.72,0,0,0-.55.24.84.84,0,0,0,0,1.13.72.72,0,0,0,.55.24.76.76,0,0,0,.56-.24.79.79,0,0,0,0-1.13A.76.76,0,0,0,44.61,27.67Zm0,.44c.26,0,.4.12.4.37s-.14.36-.4.36a.37.37,0,1,1,0-.73Zm.22,5.68h1.23v15H44.83Z"/><path class="cls-7" d="M50.54,48.8H49.31v-15h1.23v15Zm1.64-14.13a6.19,6.19,0,0,1,1.73-.85,6.51,6.51,0,0,1,1.92-.28,6.23,6.23,0,0,1,2.49.51,6.87,6.87,0,0,1,2.08,1.38,6.54,6.54,0,0,1,1.4,2.06A6.35,6.35,0,0,1,62.31,40V48.8H61.07V40.05a5,5,0,0,0-.42-2,5.76,5.76,0,0,0-1.12-1.67,5.46,5.46,0,0,0-1.66-1.14,5.24,5.24,0,0,0-5,.48A5.78,5.78,0,0,0,51,38V33.79h1.23ZM60.67,48.8H59.43V40a3.29,3.29,0,0,0-.29-1.38,3.69,3.69,0,0,0-1.93-1.93,3.45,3.45,0,0,0-1.38-.29,3.5,3.5,0,0,0-1.42.29,3.69,3.69,0,0,0-1.93,1.93,3.3,3.3,0,0,0-.3,1.38V48.8H51V40a4.56,4.56,0,0,1,.38-1.89,4.91,4.91,0,0,1,2.58-2.57,4.94,4.94,0,0,1,1.92-.38,4.77,4.77,0,0,1,1.87.38,4.91,4.91,0,0,1,1.55,1,5.06,5.06,0,0,1,1,1.53A4.56,4.56,0,0,1,60.67,40Z"/><path class="cls-7" d="M77.83,46.8a7.88,7.88,0,0,1-2.51,1.69,7.47,7.47,0,0,1-3,.61,7.36,7.36,0,0,1-3-.62,7.85,7.85,0,0,1-2.46-1.7,8.07,8.07,0,0,1-1.68-2.47,7.69,7.69,0,0,1,0-6.05,7.82,7.82,0,0,1,1.69-2.46,8,8,0,0,1,2.48-1.66,7.66,7.66,0,0,1,6,0,7.91,7.91,0,0,1,2.48,1.67,8.05,8.05,0,0,1,1.68,2.48,7.48,7.48,0,0,1,.62,3,7.81,7.81,0,0,1-.59,3A7.33,7.33,0,0,1,77.83,46.8ZM77,45.93a6.28,6.28,0,0,0,1.42-2,6.39,6.39,0,0,0,.51-2.56,6.32,6.32,0,0,0-.51-2.53A6.82,6.82,0,0,0,77,36.72a6.92,6.92,0,0,0-2.1-1.41,6.13,6.13,0,0,0-2.55-.53,6.32,6.32,0,0,0-2.53.51,6.51,6.51,0,0,0-3.48,3.49A6.52,6.52,0,0,0,67.76,46a6.82,6.82,0,0,0,2.07,1.38,6.28,6.28,0,0,0,2.5.51,6.44,6.44,0,0,0,2.57-.51A6.28,6.28,0,0,0,77,45.93Zm-4.63,1.49a5.89,5.89,0,0,1-2.4-.49,6,6,0,0,1-2-1.33,6.34,6.34,0,0,1-1.3-2,6.11,6.11,0,0,1,0-4.7A6.34,6.34,0,0,1,68,37a6,6,0,0,1,2-1.33,6.17,6.17,0,0,1,4.82,0,6.43,6.43,0,0,1,2,1.33A6,6,0,0,1,78,39a5.85,5.85,0,0,1,.48,2.35A6,6,0,0,1,78,43.69a5.84,5.84,0,0,1-1.31,1.93,6.66,6.66,0,0,1-2,1.31A6,6,0,0,1,72.33,47.42Zm0-1.24a4.86,4.86,0,0,0,1.91-.38,5,5,0,0,0,1.57-1.06,5.07,5.07,0,0,0,1.06-1.56,4.84,4.84,0,0,0,0-3.76,5.07,5.07,0,0,0-1.06-1.56,5,5,0,0,0-1.57-1.06,4.91,4.91,0,0,0-3.79,0,5,5,0,0,0-2.62,2.62,4.84,4.84,0,0,0,0,3.76,5,5,0,0,0,2.62,2.62A4.82,4.82,0,0,0,72.33,46.18Z"/><path class="cls-7" d="M112.55,43.45a12,12,0,0,1-1.82,2.37,12.4,12.4,0,0,1-2.33,1.82,10.56,10.56,0,0,1-2.74,1.16,11,11,0,0,1-3,.4,10.8,10.8,0,0,1-4.36-.89,11.46,11.46,0,0,1-3.6-2.44,11.69,11.69,0,0,1-2.46-3.6,11.16,11.16,0,0,1,0-8.78,11.39,11.39,0,0,1,2.44-3.61,11.91,11.91,0,0,1,3.61-2.46,10.66,10.66,0,0,1,4.39-.91,11,11,0,0,1,5.48,1.42,11.49,11.49,0,0,1,4.1,3.86l-1,.66A10.27,10.27,0,0,0,107.52,29a9.85,9.85,0,0,0-4.84-1.24,9.61,9.61,0,0,0-3.92.8,10,10,0,0,0-3.2,2.18,10.52,10.52,0,0,0-2.17,3.21,9.45,9.45,0,0,0-.8,3.9,9.57,9.57,0,0,0,.8,3.91A10.28,10.28,0,0,0,95.57,45a10.43,10.43,0,0,0,3.21,2.18,9.46,9.46,0,0,0,3.9.81,10.34,10.34,0,0,0,5-1.35A10.28,10.28,0,0,0,109.84,45a9.82,9.82,0,0,0,1.62-2.17Zm-2.73-10.13a8.61,8.61,0,0,0-3.1-2.9,8.29,8.29,0,0,0-4-1,8.15,8.15,0,0,0-3.3.67,8.57,8.57,0,0,0-2.7,1.84,8.86,8.86,0,0,0-1.8,2.7,8.08,8.08,0,0,0-.65,3.24,8.22,8.22,0,0,0,.67,3.3,8.69,8.69,0,0,0,1.82,2.69,8.52,8.52,0,0,0,6,2.46,8.47,8.47,0,0,0,4.24-1.13A8.16,8.16,0,0,0,110,42l1,.62a9,9,0,0,1-1.54,2,9.92,9.92,0,0,1-2,1.53,10.39,10.39,0,0,1-2.33,1,9.35,9.35,0,0,1-6.25-.42,9.94,9.94,0,0,1-5.19-5.2,9.58,9.58,0,0,1,0-7.48A9.84,9.84,0,0,1,95.83,31a10,10,0,0,1,3.08-2.08,9.69,9.69,0,0,1,8.36.4,11,11,0,0,1,3.6,3.36Z"/><path class="cls-7" d="M127.78,46.8a7.81,7.81,0,0,1-2.52,1.69,7.6,7.6,0,0,1-6,0,8.08,8.08,0,0,1-2.46-1.7,8.22,8.22,0,0,1-1.67-2.47,7.69,7.69,0,0,1,0-6.05,7.66,7.66,0,0,1,1.69-2.46,7.88,7.88,0,0,1,2.48-1.66,7.44,7.44,0,0,1,3-.6,7.52,7.52,0,0,1,3,.62,7.8,7.8,0,0,1,4.15,4.15,7.32,7.32,0,0,1,.62,3,7.81,7.81,0,0,1-.58,3A7.47,7.47,0,0,1,127.78,46.8Zm-.88-.87a6.31,6.31,0,0,0,1.43-2,6.57,6.57,0,0,0,.5-2.56,6.49,6.49,0,0,0-.5-2.53,6.85,6.85,0,0,0-1.41-2.07,6.75,6.75,0,0,0-2.09-1.41,6.13,6.13,0,0,0-2.55-.53,6.28,6.28,0,0,0-2.53.51,6.51,6.51,0,0,0-3.48,3.49,6.62,6.62,0,0,0,0,5.12A6.6,6.6,0,0,0,117.71,46a6.7,6.7,0,0,0,2.07,1.38,6.25,6.25,0,0,0,2.5.51,6.44,6.44,0,0,0,2.57-.51A6.24,6.24,0,0,0,126.9,45.93Zm-4.62,1.49a6,6,0,0,1-2.41-.49,6.19,6.19,0,0,1-2-1.33,6.5,6.5,0,0,1-1.29-2,6.11,6.11,0,0,1,0-4.7,6.5,6.5,0,0,1,1.29-2,6.19,6.19,0,0,1,2-1.33,6,6,0,0,1,2.41-.49,5.88,5.88,0,0,1,2.42.49,6.43,6.43,0,0,1,2,1.33A6.2,6.2,0,0,1,128,39a5.84,5.84,0,0,1,.47,2.35,6,6,0,0,1-1.78,4.32,6.71,6.71,0,0,1-2,1.31A5.89,5.89,0,0,1,122.28,47.42Zm0-1.24a4.9,4.9,0,0,0,1.91-.38,5.12,5.12,0,0,0,1.57-1.06,4.87,4.87,0,0,0,1-1.56,4.73,4.73,0,0,0,0-3.76,4.87,4.87,0,0,0-1-1.56,5.12,5.12,0,0,0-1.57-1.06,4.9,4.9,0,0,0-1.91-.38,4.82,4.82,0,0,0-1.88.38,5.12,5.12,0,0,0-1.57,1.06,4.87,4.87,0,0,0-1,1.56,4.84,4.84,0,0,0,0,3.76,4.87,4.87,0,0,0,1,1.56,5.12,5.12,0,0,0,1.57,1.06A4.82,4.82,0,0,0,122.28,46.18Z"/><path class="cls-7" d="M134.19,26.73a1.74,1.74,0,0,1,1.26.51,1.7,1.7,0,0,1,.53,1.25,1.72,1.72,0,0,1-.53,1.26,1.74,1.74,0,0,1-1.26.51,1.68,1.68,0,0,1-1.24-.51,1.74,1.74,0,0,1-.51-1.26,1.72,1.72,0,0,1,.51-1.25A1.68,1.68,0,0,1,134.19,26.73ZM132.77,48.8v-15H134v15Zm1.42-21.13a.72.72,0,0,0-.55.24.87.87,0,0,0,0,1.13.72.72,0,0,0,.55.24.78.78,0,0,0,.57-.24.81.81,0,0,0,0-1.13A.78.78,0,0,0,134.19,27.67Zm0,.44c.27,0,.4.12.4.37s-.13.36-.4.36a.37.37,0,0,1,0-.73Zm.22,5.68h1.24v15h-1.24Z"/><path class="cls-7" d="M140.13,48.8h-1.24v-15h1.24v15Zm1.64-14.13a5.93,5.93,0,0,1,1.73-.85,6.45,6.45,0,0,1,1.91-.28,6.28,6.28,0,0,1,2.5.51A6.7,6.7,0,0,1,150,35.43,6.37,6.37,0,0,1,151.9,40V48.8h-1.24V40.05a5,5,0,0,0-.42-2,5.79,5.79,0,0,0-1.13-1.67,5.34,5.34,0,0,0-1.66-1.14,5.24,5.24,0,0,0-5,.48A5.86,5.86,0,0,0,140.53,38V33.79h1.24Zm8.49,14.13H149V40a3.45,3.45,0,0,0-.29-1.38,3.86,3.86,0,0,0-.79-1.15,3.73,3.73,0,0,0-1.14-.78,3.46,3.46,0,0,0-1.39-.29,3.53,3.53,0,0,0-1.42.29,3.69,3.69,0,0,0-1.93,1.93,3.29,3.29,0,0,0-.29,1.38V48.8h-1.24V40a4.73,4.73,0,0,1,.38-1.89,5.06,5.06,0,0,1,1-1.53,4.91,4.91,0,0,1,1.55-1,4.91,4.91,0,0,1,3.79,0,4.82,4.82,0,0,1,2.58,2.57,4.57,4.57,0,0,1,.39,1.89Z"/><path class="cls-7" d="M159.8,36.86a1.15,1.15,0,0,0-1-.44,1.16,1.16,0,0,0-1.16,1.16.92.92,0,0,0,.2.62,1.9,1.9,0,0,0,.51.46,8,8,0,0,0,1.26.64,15.91,15.91,0,0,1,1.6.76,5.22,5.22,0,0,1,1.25.95,3.6,3.6,0,0,1,.82,1.31,5,5,0,0,1,.3,1.82,4.69,4.69,0,0,1-.39,1.91,4.81,4.81,0,0,1-1.05,1.57,5,5,0,0,1-1.59,1.07,4.71,4.71,0,0,1-1.93.41,4.8,4.8,0,0,1-2.49-.71,5,5,0,0,1-1.84-1.88l2.55-1.39,0,.08a1.91,1.91,0,0,0,1.75,1,2,2,0,0,0,1.48-.6,2,2,0,0,0,.6-1.44,1.76,1.76,0,0,0-.2-.86,2.16,2.16,0,0,0-.53-.6,2.75,2.75,0,0,0-.73-.41l-.8-.35q-.77-.33-1.44-.69a5.21,5.21,0,0,1-1.17-.86,4,4,0,0,1-.78-1.17,4.08,4.08,0,0,1-.29-1.62,3.73,3.73,0,0,1,.33-1.56,4.13,4.13,0,0,1,2.15-2.15,3.7,3.7,0,0,1,1.56-.33,4.05,4.05,0,0,1,1.79.41A3.9,3.9,0,0,1,162,35.07l-.91.73a3.34,3.34,0,0,0-1-.73,2.61,2.61,0,0,0-1.19-.29,2.79,2.79,0,0,0-1.11.23,3.25,3.25,0,0,0-.91.62,3,3,0,0,0-.6.89,2.69,2.69,0,0,0-.22,1.09,2.48,2.48,0,0,0,.44,1.55,4.07,4.07,0,0,0,1.09,1,9.6,9.6,0,0,0,1.44.69,7.42,7.42,0,0,1,1.44.71,3.91,3.91,0,0,1,1.09,1,2.71,2.71,0,0,1,.44,1.62,3.23,3.23,0,0,1-3.28,3.27,3.23,3.23,0,0,1-1.71-.47,3.47,3.47,0,0,1-1.2-1.24l-.37.18a4.14,4.14,0,0,0,1.37,1.42,3.44,3.44,0,0,0,1.91.55,3.8,3.8,0,0,0,1.46-.29,3.65,3.65,0,0,0,1.18-.81,4,4,0,0,0,.79-1.18,3.67,3.67,0,0,0,.29-1.44,3.22,3.22,0,0,0-.44-1.77A4,4,0,0,0,161,41.26a7.48,7.48,0,0,0-1.44-.73,10.61,10.61,0,0,1-1.44-.65A3.7,3.7,0,0,1,157,39a2.11,2.11,0,0,1-.44-1.41,2.36,2.36,0,0,1,2.4-2.4,2.3,2.3,0,0,1,1.82.84Z"/><path class="cls-7" d="M196.09,43.45a11.72,11.72,0,0,1-1.83,2.37,12.08,12.08,0,0,1-2.33,1.82,10.64,10.64,0,0,1-2.73,1.16,11.11,11.11,0,0,1-3,.4,10.72,10.72,0,0,1-4.35-.89,11.51,11.51,0,0,1-3.61-2.44,11.87,11.87,0,0,1-2.46-3.6,11,11,0,0,1-.91-4.43,10.73,10.73,0,0,1,.9-4.35,11.23,11.23,0,0,1,2.44-3.61,11.87,11.87,0,0,1,3.6-2.46,10.72,10.72,0,0,1,4.39-.91,11,11,0,0,1,5.49,1.42,11.46,11.46,0,0,1,4.09,3.86l-1,.66A10.32,10.32,0,0,0,191.06,29a9.89,9.89,0,0,0-4.85-1.24,9.57,9.57,0,0,0-3.91.8,10.08,10.08,0,0,0-3.21,2.18,10.89,10.89,0,0,0-2.17,3.21,9.62,9.62,0,0,0-.8,3.9,9.73,9.73,0,0,0,.8,3.91A10.48,10.48,0,0,0,179.11,45a10.31,10.31,0,0,0,3.21,2.18,9.45,9.45,0,0,0,3.89.81,10.07,10.07,0,0,0,2.61-.35A10,10,0,0,0,193.37,45,9.24,9.24,0,0,0,195,42.83Zm-2.74-10.13a8.58,8.58,0,0,0-3.09-2.9,8.32,8.32,0,0,0-4-1,8.14,8.14,0,0,0-3.29.67,8.46,8.46,0,0,0-2.7,1.84,8.69,8.69,0,0,0-1.8,2.7,8.09,8.09,0,0,0-.66,3.24,8.23,8.23,0,0,0,.68,3.3,8.36,8.36,0,0,0,1.82,2.69,8.47,8.47,0,0,0,6,2.46,8.5,8.5,0,0,0,4.25-1.13A8.13,8.13,0,0,0,193.57,42l1.06.62a8.73,8.73,0,0,1-1.55,2,9.86,9.86,0,0,1-2,1.53,10.58,10.58,0,0,1-2.33,1,9.4,9.4,0,0,1-2.52.35,9.3,9.3,0,0,1-3.73-.77,9.85,9.85,0,0,1-5.19-5.2,9.47,9.47,0,0,1,0-7.48A10,10,0,0,1,179.36,31a10.14,10.14,0,0,1,3.08-2.08,9.41,9.41,0,0,1,3.77-.76,9.26,9.26,0,0,1,4.59,1.16,10.94,10.94,0,0,1,3.61,3.36Z"/><path class="cls-7" d="M200.35,26.73a1.74,1.74,0,0,1,1.25.51,1.66,1.66,0,0,1,.53,1.25,1.69,1.69,0,0,1-.53,1.26,1.74,1.74,0,0,1-1.25.51,1.68,1.68,0,0,1-1.24-.51,1.74,1.74,0,0,1-.51-1.26,1.72,1.72,0,0,1,.51-1.25A1.68,1.68,0,0,1,200.35,26.73ZM198.93,48.8v-15h1.24v15Zm1.42-21.13a.72.72,0,0,0-.55.24.84.84,0,0,0,0,1.13.72.72,0,0,0,.55.24.76.76,0,0,0,.56-.24.79.79,0,0,0,0-1.13A.76.76,0,0,0,200.35,27.67Zm0,.44c.27,0,.4.12.4.37s-.13.36-.4.36a.37.37,0,1,1,0-.73Zm.22,5.68h1.24v15h-1.24Z"/><path class="cls-7" d="M205.74,26.91H207V35h-2.73V33.79h1.49ZM207,35.43V43a4.68,4.68,0,0,0,.36,1.84,4.85,4.85,0,0,0,1,1.51,5.2,5.2,0,0,0,1.48,1.06,4.64,4.64,0,0,0,1.82.44h.26V49.1a5.7,5.7,0,0,1-2.35-.5,6.32,6.32,0,0,1-2-1.34,6.52,6.52,0,0,1-1.35-2,5.69,5.69,0,0,1-.49-2.35V36.67h-1.49V35.43Zm.44-.4V26.91h1.23v6.88h2.48V35Zm4.26,12.39A4.43,4.43,0,0,1,210,47a4.37,4.37,0,0,1-1.37-.95,4.42,4.42,0,0,1-.91-1.38,4.36,4.36,0,0,1-.32-1.7V35.43h3.71v1.24h-2.48v6.27a3.24,3.24,0,0,0,3.25,3.24v1.24Z"/><path class="cls-7" d="M224.57,48a6.33,6.33,0,0,1-6.1.62,6.45,6.45,0,0,1-2.07-1.41A6.84,6.84,0,0,1,215,45.11a6.21,6.21,0,0,1-.52-2.54V33.79h1.23v8.78a5.09,5.09,0,0,0,.42,2.06,5.34,5.34,0,0,0,1.13,1.68,5.46,5.46,0,0,0,1.68,1.13,5.28,5.28,0,0,0,6.9-2.79v4.92a4.56,4.56,0,0,1-.38,1.89A4.8,4.8,0,0,1,221,54.38a4.76,4.76,0,0,1-3.49-1.5l-.3.3a5.28,5.28,0,0,0,1.7,1.16,5.23,5.23,0,0,0,2.09.44,5.09,5.09,0,0,0,2.06-.42,5,5,0,0,0,1.66-1.13,5.33,5.33,0,0,0,1.49-3.69V33.79h1.24V49.57a6.28,6.28,0,0,1-.51,2.5,6.61,6.61,0,0,1-1.38,2,6.51,6.51,0,0,1-2.06,1.39A6.25,6.25,0,0,1,221,56a6.72,6.72,0,0,1-2.51-.49,6.24,6.24,0,0,1-2.15-1.48l2.08-2a3.13,3.13,0,0,1,.45.34,2.75,2.75,0,0,0,.71.46,4.13,4.13,0,0,0,1.42.29,3.33,3.33,0,0,0,1.37-.29,4.22,4.22,0,0,0,1.13-.78,3.81,3.81,0,0,0,.78-1.13,3.18,3.18,0,0,0,.29-1.37Zm-8.48-14.18h1.23v8.78a3.31,3.31,0,0,0,.3,1.39,3.66,3.66,0,0,0,.78,1.15,3.83,3.83,0,0,0,1.15.78,3.5,3.5,0,0,0,1.42.29,3.45,3.45,0,0,0,1.38-.29,3.83,3.83,0,0,0,1.15-.78,3.66,3.66,0,0,0,.78-1.15,3.3,3.3,0,0,0,.29-1.39V33.79h1.24v8.78a4.61,4.61,0,0,1-.38,1.9A4.88,4.88,0,0,1,222.84,47a4.77,4.77,0,0,1-1.87.38,4.94,4.94,0,0,1-1.92-.38,4.91,4.91,0,0,1-2.58-2.57,4.61,4.61,0,0,1-.38-1.9Z"/><path class="cls-7" d="M54.57,227.61a2.63,2.63,0,0,1-.47,0h-.44a7,7,0,0,1-2.86-.59,8,8,0,0,1-2.35-1.56,7.2,7.2,0,0,1-2.18-5.21,7,7,0,0,1,.58-2.84,7.5,7.5,0,0,1,1.59-2.35,7.87,7.87,0,0,1,2.34-1.61,7.22,7.22,0,0,1,5.74,0,7.12,7.12,0,0,1,2.33,1.6,7.74,7.74,0,0,1,1.59,2.35,7,7,0,0,1,.58,2.86,7.86,7.86,0,0,1-.29,2.09,6.55,6.55,0,0,1-.91,2l-6.34,10.86H52.06l6.67-11.44a5.88,5.88,0,0,0,1.05-3.46,6,6,0,0,0-.47-2.39A6.2,6.2,0,0,0,58,216a6.61,6.61,0,0,0-2-1.33,6,6,0,0,0-2.39-.49,6.06,6.06,0,0,0-2.4.49,6.58,6.58,0,0,0-2,1.33,6.2,6.2,0,0,0-1.31,2,6.14,6.14,0,0,0,1.31,6.72,6.26,6.26,0,0,0,6.39,1.46,5.44,5.44,0,0,0,1.74-1l-5.83,10.06H50.13Zm-.91-13.08a5.34,5.34,0,0,1,2.21.46,5.71,5.71,0,0,1,1.82,1.24,6.05,6.05,0,0,1,1.24,1.82,5.8,5.8,0,0,1,0,4.48,5.84,5.84,0,0,1-1.24,1.8,6,6,0,0,1-1.82,1.22,5.34,5.34,0,0,1-2.21.46,5.44,5.44,0,0,1-2.24-.46,6,6,0,0,1-1.82-1.22,5.84,5.84,0,0,1-1.24-1.8,5.8,5.8,0,0,1,0-4.48,6.05,6.05,0,0,1,1.24-1.82A5.71,5.71,0,0,1,51.42,215,5.44,5.44,0,0,1,53.66,214.53Zm0,10.24a4.34,4.34,0,0,0,1.72-.35,4.69,4.69,0,0,0,1.42-1,4.94,4.94,0,0,0,1-1.42,4.38,4.38,0,0,0,0-3.48,4.62,4.62,0,0,0-1-1.44,4.45,4.45,0,0,0-1.42-1,4.07,4.07,0,0,0-1.73-.37,4.15,4.15,0,0,0-1.76.37,4.53,4.53,0,0,0-2.39,2.4,4.39,4.39,0,0,0-.36,1.75,4.25,4.25,0,0,0,.36,1.75,4.94,4.94,0,0,0,1,1.42,4.66,4.66,0,0,0,1.44,1A4.46,4.46,0,0,0,53.66,224.77Z"/><path class="cls-7" d="M69.29,232.49h8.27v1.24h-11l8.59-10A5.72,5.72,0,0,0,76.43,220a5.35,5.35,0,0,0-.44-2.16A5.54,5.54,0,0,0,74.77,216,6.08,6.08,0,0,0,73,214.79a5.27,5.27,0,0,0-2.24-.48,5.8,5.8,0,0,0-1.82.31,6,6,0,0,0-3,2.28,4.87,4.87,0,0,0-.73,1.79l-1.2-.33a6.14,6.14,0,0,1,.91-2.13,7.54,7.54,0,0,1,1.55-1.68,6.63,6.63,0,0,1,2-1.09,6.8,6.8,0,0,1,5,.16,7.22,7.22,0,0,1,2.22,1.51,7,7,0,0,1,1.51,2.23,6.51,6.51,0,0,1,.55,2.67,7.79,7.79,0,0,1-.36,2.35,6.22,6.22,0,0,1-1.17,2.1Zm8.27,1.64v1.24H64.7l-.58-1.27,9.8-11.44a3.33,3.33,0,0,0,.64-1.17,5.46,5.46,0,0,0,.23-1.31V220a3.74,3.74,0,0,0-.33-1.54,4.18,4.18,0,0,0-.87-1.3,4.31,4.31,0,0,0-1.29-.87,3.9,3.9,0,0,0-1.59-.33,4,4,0,0,0-2.48.84,4,4,0,0,0-1.45,2.22v0l-1.2-.33a5.54,5.54,0,0,1,.74-1.66,4.77,4.77,0,0,1,1.19-1.26A5.9,5.9,0,0,1,69,215a5.17,5.17,0,0,1,3.75.13,5.58,5.58,0,0,1,1.68,1.13A5.42,5.42,0,0,1,76,220v.26a4.74,4.74,0,0,1-.31,1.67,6.24,6.24,0,0,1-.82,1.53l-9.22,10.71Z"/><path class="cls-7" d="M85.28,216.14l-1,5.2a8.58,8.58,0,0,1,2.91-.51,7.9,7.9,0,0,1,3,.57A7,7,0,0,1,92.62,223a7.69,7.69,0,0,1,1.59,2.39,7.37,7.37,0,0,1,.58,2.93,6.86,6.86,0,0,1-.6,2.84,7.59,7.59,0,0,1-1.6,2.35,7.5,7.5,0,0,1-2.35,1.59,7.07,7.07,0,0,1-2.84.58,7.15,7.15,0,0,1-2.15-.33,7.41,7.41,0,0,1-2-.93,7,7,0,0,1-1.6-1.43,7.35,7.35,0,0,1-1.13-1.9l1.13-.47A7.14,7.14,0,0,0,84,233.38a6.12,6.12,0,0,0,5.81.55,6.35,6.35,0,0,0,3.28-3.28,5.69,5.69,0,0,0,.49-2.35,7.08,7.08,0,0,0-.36-2.2,5.71,5.71,0,0,0-3.1-3.46,6.66,6.66,0,0,0-2.88-.57,8.62,8.62,0,0,0-2.49.4,5.11,5.11,0,0,0-2.13,1.24c.22-1.44.48-2.9.78-4.39s.6-3,.89-4.42h8.46v1.24Zm6.2-1.61H83.9c-.29,1.6-.59,3.17-.89,4.72s-.6,3.11-.9,4.68l.28.13a1.71,1.71,0,0,1,.23.13,6.77,6.77,0,0,1,2.14-1.28,7,7,0,0,1,2.45-.44,6.32,6.32,0,0,1,2.39.44A5.47,5.47,0,0,1,92.68,226a6.13,6.13,0,0,1,.44,2.31,5.5,5.5,0,0,1-.46,2.21,5.88,5.88,0,0,1-1.24,1.82,6.05,6.05,0,0,1-1.82,1.24,5.48,5.48,0,0,1-2.2.45,5.83,5.83,0,0,1-3.21-1,5.23,5.23,0,0,1-2.11-2.64l1.13-.44,0,.07a4.29,4.29,0,0,0,1.66,2,4.57,4.57,0,0,0,2.5.74,4.45,4.45,0,0,0,1.73-.34,4.22,4.22,0,0,0,1.42-1,4.81,4.81,0,0,0,1-1.42,4.07,4.07,0,0,0,.37-1.75,5.48,5.48,0,0,0-.26-1.62,4.13,4.13,0,0,0-.8-1.47,4,4,0,0,0-1.44-1.08,5.06,5.06,0,0,0-2.17-.42,6.1,6.1,0,0,0-2.09.37,4.3,4.3,0,0,0-1.77,1.16l-.43.48-2.19-1.1,2.15-11.33h9.84v1.24Z"/><path class="cls-7" d="M112.5,238.07h-1.24v-2.59a7.33,7.33,0,0,1-2.92-1.22,6.64,6.64,0,0,1-2-2.31l1.1-.59a5.38,5.38,0,0,0,2,2.17,5.51,5.51,0,0,0,3,.82h.11Zm-3.65-7.51a3.59,3.59,0,0,0,1,1.22,5.4,5.4,0,0,0,1.41.75v-8.6a16,16,0,0,1-1.64-.93,5.77,5.77,0,0,1-1.31-1.13,4.67,4.67,0,0,1-.86-1.47,5.62,5.62,0,0,1-.31-2,5.31,5.31,0,0,1,1.15-3.37,5.61,5.61,0,0,1,3-2v-2.69h1.24v3.75a4.31,4.31,0,0,0-1.59.38,4.66,4.66,0,0,0-1.31.91,4.18,4.18,0,0,0-.89,1.35,4.28,4.28,0,0,0-.33,1.66,3.93,3.93,0,0,0,.35,1.75,4.28,4.28,0,0,0,.91,1.27,5.58,5.58,0,0,0,1.31,1c.5.27,1,.52,1.55.77v10.74h-.11a5.29,5.29,0,0,1-2.74-.74,5.06,5.06,0,0,1-1.89-2Zm3.65-7.87q-.73-.33-1.41-.69a5.19,5.19,0,0,1-1.18-.86,3.9,3.9,0,0,1-.82-1.14,3.61,3.61,0,0,1-.31-1.57,3.88,3.88,0,0,1,.29-1.49,4,4,0,0,1,.8-1.22,3.48,3.48,0,0,1,1.19-.82,3.89,3.89,0,0,1,1.44-.33Zm-1.24-6.52a3.29,3.29,0,0,0-.89,1,2.31,2.31,0,0,0-.35,1.29,2.22,2.22,0,0,0,.35,1.31,3.49,3.49,0,0,0,.89.91Zm1.67-5.79h1.24v2.73a5.17,5.17,0,0,1,1.57.71A5.45,5.45,0,0,1,117,215l-1,.76a4.12,4.12,0,0,0-3.1-1.6Zm1.24,11.69a21.63,21.63,0,0,1,2,1.08,7.18,7.18,0,0,1,1.64,1.33,5.76,5.76,0,0,1,1.08,1.76,7,7,0,0,1,.38,2.43,6.94,6.94,0,0,1-1.42,4.17,7.56,7.56,0,0,1-1.64,1.55,6.53,6.53,0,0,1-2.08.94v2.74h-1.24v-3.76a5.54,5.54,0,0,0,2-.58,5.73,5.73,0,0,0,1.62-1.24,5.93,5.93,0,0,0,1.09-1.75,5.34,5.34,0,0,0,.4-2.07,5.15,5.15,0,0,0-.44-2.23,5.24,5.24,0,0,0-1.14-1.56,6.62,6.62,0,0,0-1.61-1.09c-.59-.3-1.19-.57-1.8-.84l-.15-.08v-8.3A3.76,3.76,0,0,1,115.7,216l-1,.76-.27-.27a2.09,2.09,0,0,0-.31-.24Zm-1.24,1.28,1.73.82a6.52,6.52,0,0,1,1.52,1,5,5,0,0,1,1.07,1.44,4.52,4.52,0,0,1,.42,2,5.12,5.12,0,0,1-.36,1.89,5.26,5.26,0,0,1-1,1.62,5.57,5.57,0,0,1-1.51,1.17,4.66,4.66,0,0,1-1.84.53Zm1.24,8.92a3.68,3.68,0,0,0,1.64-1.49,4,4,0,0,0,.62-2.11,3.15,3.15,0,0,0-.66-2.12,5.45,5.45,0,0,0-1.6-1.27Z"/><path class="cls-7" d="M122,213.29h6.45a10.57,10.57,0,0,1,4.21.86,11.37,11.37,0,0,1,3.48,2.33,11.21,11.21,0,0,1,2.38,3.48,10.3,10.3,0,0,1,.89,4.26,10.49,10.49,0,0,1-.87,4.25,11.31,11.31,0,0,1-2.37,3.48,11.19,11.19,0,0,1-3.5,2.36,10.3,10.3,0,0,1-4.22.88H122Zm1.24,1.24V234h5.21a9.58,9.58,0,0,0,3.77-.76,9.79,9.79,0,0,0,5.19-5.19,9.33,9.33,0,0,0,.77-3.76,9.18,9.18,0,0,0-.79-3.76,9.94,9.94,0,0,0-5.21-5.18,9.3,9.3,0,0,0-3.73-.77Zm.4.4h4.82a8.8,8.8,0,0,1,3.6.75,10.19,10.19,0,0,1,3,2,9.12,9.12,0,0,1,2,2.95,9.18,9.18,0,0,1,0,7.22,9.12,9.12,0,0,1-2,3,10,10,0,0,1-3,2,8.8,8.8,0,0,1-3.6.75h-4.82Zm1.24,1.24v16.14h3.57a7.66,7.66,0,0,0,3.11-.64,8,8,0,0,0,2.57-1.73,8.42,8.42,0,0,0,1.75-2.57,7.6,7.6,0,0,0,.66-3.15,7.51,7.51,0,0,0-.66-3.13,8.45,8.45,0,0,0-1.77-2.55,8.32,8.32,0,0,0-2.56-1.73,7.62,7.62,0,0,0-3.1-.64Z"/><path class="cls-7" d="M144.85,227.61v7.58h-1.24v-8.82h4.3a5.63,5.63,0,0,0,2.27-.47,6.11,6.11,0,0,0,1.88-1.27,5.93,5.93,0,0,0,1.27-1.89,5.63,5.63,0,0,0,.48-2.29,5.39,5.39,0,0,0-.48-2.23,6.28,6.28,0,0,0-1.27-1.89,6.41,6.41,0,0,0-1.88-1.31,5.48,5.48,0,0,0-2.27-.49h-4.7v20.66H142v-21.9h5.94a6.77,6.77,0,0,1,2.75.57,7.42,7.42,0,0,1,3.82,3.82,6.77,6.77,0,0,1,.57,2.75,6.71,6.71,0,0,1-.57,2.75,7.2,7.2,0,0,1-1.55,2.28,7.5,7.5,0,0,1-2.27,1.57,6.62,6.62,0,0,1-2.75.58Zm-1.24-12.68h4.3a5,5,0,0,1,2.13.46,5.92,5.92,0,0,1,1.75,1.2,5.74,5.74,0,0,1,1.18,1.75,5.21,5.21,0,0,1,0,4.19,5.74,5.74,0,0,1-1.18,1.75,5.92,5.92,0,0,1-1.75,1.2,5.16,5.16,0,0,1-2.13.46h-4.3Zm1.24,1.24v8.53h3.06a4,4,0,0,0,1.64-.35,4.6,4.6,0,0,0,1.34-.91,4.28,4.28,0,0,0,.93-1.35,4.05,4.05,0,0,0,.35-1.66,4,4,0,0,0-.35-1.64,4.59,4.59,0,0,0-2.27-2.27,4,4,0,0,0-1.64-.35Z"/><path class="cls-7" d="M160.29,216.21a11.65,11.65,0,0,1,3.68-2.46,11.13,11.13,0,0,1,4.34-.86,10.94,10.94,0,0,1,4.4.91,11.44,11.44,0,0,1,3.61,2.48,12,12,0,0,1,2.42,3.61,10.6,10.6,0,0,1,.9,4.33,10.81,10.81,0,0,1-.9,4.39,11.5,11.5,0,0,1-6,6,11.2,11.2,0,0,1-8.75,0,11.58,11.58,0,0,1-3.6-2.42,11.36,11.36,0,0,1-2.46-3.59,10.77,10.77,0,0,1-.91-4.43,11.07,11.07,0,0,1,.85-4.33A11.65,11.65,0,0,1,160.29,216.21Zm.88.87a9.92,9.92,0,0,0-2.95,7.12,9.53,9.53,0,0,0,.8,3.91,10.31,10.31,0,0,0,5.39,5.4,9.88,9.88,0,0,0,7.79,0,10.31,10.31,0,0,0,3.21-2.18,10.44,10.44,0,0,0,2.19-3.22,9.91,9.91,0,0,0,0-7.8,10.71,10.71,0,0,0-2.17-3.2,10.25,10.25,0,0,0-3.21-2.18,9.73,9.73,0,0,0-3.91-.8,10,10,0,0,0-3.88.77A9.68,9.68,0,0,0,161.17,217.08Zm7.14-2.55a9,9,0,0,1,3.73.79,10.39,10.39,0,0,1,3.1,2.09,9.71,9.71,0,0,1,2.09,3.08,9.44,9.44,0,0,1,0,7.47,9.88,9.88,0,0,1-5.19,5.19,9.56,9.56,0,0,1-7.47,0,10,10,0,0,1-5.19-5.19,9.56,9.56,0,0,1,0-7.47,9.68,9.68,0,0,1,2.08-3.08,10,10,0,0,1,3.08-2.09A9,9,0,0,1,168.31,214.53Zm0,1.24a8.32,8.32,0,0,0-3.3.67,8.74,8.74,0,0,0-2.7,1.84,8.86,8.86,0,0,0-1.8,2.7,8.32,8.32,0,0,0,0,6.54,8.68,8.68,0,0,0,1.82,2.7,8.51,8.51,0,0,0,2.7,1.8,8.5,8.5,0,0,0,6.52,0,8.47,8.47,0,0,0,2.69-1.8,8.68,8.68,0,0,0,1.82-2.7,8.16,8.16,0,0,0,.68-3.3,7.94,7.94,0,0,0-.68-3.24,8.92,8.92,0,0,0-1.82-2.7,8.65,8.65,0,0,0-2.68-1.84A8.17,8.17,0,0,0,168.31,215.77Z"/><path class="cls-7" d="M193.48,235.19h-11v-21.9h1.24V234h9.8Zm0-1.64h-9.4V213.29h1.24v19h8.16v1.24Z"/><path class="cls-7" d="M198.91,235.19V225l-8.09-11.66h1.49l7.84,11.26v10.64Zm-4.59-21.9.62.84,5.42,7.83,6-8.67h1.5l-7.55,10.82-5.9-8.48-1.64-2.34Zm7.5,19v2.88h-1.24V224.55l5.61-8.12,2.23-3.14h1.49l-2.19,3.1-5.9,8.56Z"/></g></g></svg>