<svg xmlns="http://www.w3.org/2000/svg" viewBox="0 0 253.51 253.51"><defs><style>.cls-1{fill:#cfe7d7;stroke-width:5px;}.cls-1,.cls-3,.cls-5{stroke:#000;}.cls-2{fill:#86c658;}.cls-3{fill:none;}.cls-4{fill:#231f20;}.cls-5{fill:#fff;stroke-miterlimit:10;stroke-width:2px;}</style></defs><g id="Layer_2" data-name="Layer 2"><g id="Layer_1-2" data-name="Layer 1"><rect class="cls-1" x="2.5" y="2.5" width="248.51" height="248.51"/><rect class="cls-2" x="8.36" y="8.36" width="236.8" height="62.45"/><rect class="cls-3" x="8.36" y="8.36" width="236.8" height="62.45"/><path class="cls-4" d="M102.62,52.65H92.24V30.75h10.38V32H93.48V51.41h9.14Zm-7.5-11.08h5.68v1.24H93.88V32.39h8.74v1.24h-7.5Zm5.68,2.92H95.12v5.28h7.5V51H93.88V43.25h6.92Z"/><path class="cls-4" d="M117.27,37.64l-5.32,15h-2l-5.35-15h1.31l.91,2.55,4,11.07h.36L114.79,41l1.2-3.31Zm-3.06,0h1.35l-1.17,3.17-3.46,9.76L107.18,40l-.88-2.4h1.32l3.31,9.25Z"/><path class="cls-4" d="M121.28,46.6a5,5,0,0,0,1.78,2.48,4.89,4.89,0,0,0,5.19.38A5.24,5.24,0,0,0,130,47.91l1,.69a6.39,6.39,0,0,1-2.13,1.94,5.92,5.92,0,0,1-2.93.72,5.71,5.71,0,0,1-2.33-.47,6.13,6.13,0,0,1-1.91-1.27,6.47,6.47,0,0,1-1.33-1.88,5.62,5.62,0,0,1-.55-2.28H132.5v-.22a6.54,6.54,0,0,0-6.56-6.52,6.32,6.32,0,0,0-2.53.51,6.74,6.74,0,0,0-2.08,1.4,6.56,6.56,0,0,0-1.4,2.09,6.44,6.44,0,0,0-.51,2.54,6.21,6.21,0,0,0,.53,2.58,6.41,6.41,0,0,0,1.42,2.07,6.82,6.82,0,0,0,2.07,1.38,6.28,6.28,0,0,0,2.5.51,6.52,6.52,0,0,0,5.43-2.88l1,.7A7.89,7.89,0,0,1,129.58,52a7.59,7.59,0,0,1-3.64.91,7.35,7.35,0,0,1-3-.62,8.24,8.24,0,0,1-2.48-1.68,7.86,7.86,0,0,1-1.69-2.47,7.57,7.57,0,0,1-.62-3,7.72,7.72,0,0,1,.58-3,7.63,7.63,0,0,1,1.68-2.52h0A7.46,7.46,0,0,1,123,38a7.69,7.69,0,0,1,3-.59,7.49,7.49,0,0,1,3,.62,8.11,8.11,0,0,1,2.48,1.68,7.93,7.93,0,0,1,1.68,2.48,7.4,7.4,0,0,1,.62,3V46.6Zm-1.46-1.67a5.58,5.58,0,0,1,.55-2.28,6.47,6.47,0,0,1,1.33-1.88,6.13,6.13,0,0,1,1.91-1.27,5.72,5.72,0,0,1,2.33-.48,6,6,0,0,1,2.39.48,6,6,0,0,1,3.22,3.15,5.88,5.88,0,0,1,.51,2.28Zm10.82-1.24a5,5,0,0,0-1.79-2.48,4.76,4.76,0,0,0-2.91-1,4.67,4.67,0,0,0-3.42,1.42h0a5.24,5.24,0,0,0-1.2,2Z"/><path class="cls-4" d="M137.34,52.65H136.1v-15h1.24v15ZM139,38.51a6,6,0,0,1,1.73-.84,6.5,6.5,0,0,1,1.91-.29,6.25,6.25,0,0,1,2.5.51,6.89,6.89,0,0,1,2.08,1.39,6.43,6.43,0,0,1,1.4,2.06,6.32,6.32,0,0,1,.51,2.53v8.78h-1.24V43.89a5,5,0,0,0-.42-2,5.47,5.47,0,0,0-1.13-1.67A5.1,5.1,0,0,0,144.66,39a5.24,5.24,0,0,0-5,.48,5.86,5.86,0,0,0-1.93,2.27V37.64H139Zm8.49,14.14h-1.24V43.87a3.46,3.46,0,0,0-.29-1.39,3.91,3.91,0,0,0-.78-1.14,3.86,3.86,0,0,0-1.15-.79,3.46,3.46,0,0,0-1.39-.29,3.53,3.53,0,0,0-1.42.29,3.81,3.81,0,0,0-1.14.79,4,4,0,0,0-.79,1.14,3.46,3.46,0,0,0-.29,1.39v8.78h-1.24V43.87a4.65,4.65,0,0,1,.39-1.9,4.76,4.76,0,0,1,2.58-2.56,4.73,4.73,0,0,1,1.91-.39,4.62,4.62,0,0,1,1.88.39,4.88,4.88,0,0,1,1.55,1,5.06,5.06,0,0,1,1,1.53,4.81,4.81,0,0,1,.38,1.9Z"/><path class="cls-4" d="M152.42,30.75h1.24v8.13h-2.73V37.64h1.49Zm1.24,8.53v7.58A4.55,4.55,0,0,0,154,48.7a4.79,4.79,0,0,0,1,1.51,5.13,5.13,0,0,0,1.47,1,4.48,4.48,0,0,0,1.83.44h.25v1.24a5.72,5.72,0,0,1-2.35-.49,6.52,6.52,0,0,1-2-1.35,6.32,6.32,0,0,1-1.34-2,5.7,5.7,0,0,1-.5-2.35V40.52h-1.49V39.28Zm.44-.4V30.75h1.24v6.89h2.48v1.24Zm4.26,12.38a4.52,4.52,0,0,1-1.66-.38,4.17,4.17,0,0,1-1.36-1,4.42,4.42,0,0,1-.91-1.38,4.32,4.32,0,0,1-.33-1.69V39.28h3.72v1.24h-2.48v6.26A3.24,3.24,0,0,0,158.58,50v1.23Z"/><path class="cls-5" d="M89.64,132.49a27.4,27.4,0,0,1,4.61-14.56,35.58,35.58,0,0,1,13.47-12.22,42.43,42.43,0,0,1,20.65-4.84,44.06,44.06,0,0,1,19.36,4,31.48,31.48,0,0,1,13,11,27,27,0,0,1,4.57,15.12,23.43,23.43,0,0,1-2.61,11.28,34.63,34.63,0,0,1-6.2,8.35q-3.6,3.52-12.9,11.84a52.79,52.79,0,0,0-4.12,4.13,16.83,16.83,0,0,0-2.31,3.25,16.16,16.16,0,0,0-1.17,2.95c-.28,1-.69,2.71-1.25,5.18q-1.44,7.88-9,7.87a9.23,9.23,0,0,1-6.62-2.57q-2.68-2.58-2.68-7.65a28.15,28.15,0,0,1,2-11,27.84,27.84,0,0,1,5.22-8.17,120,120,0,0,1,8.78-8.36c3.22-2.82,5.56-5,7-6.39A22,22,0,0,0,143,137a11.69,11.69,0,0,0,1.47-5.75A13.39,13.39,0,0,0,140,121a16.44,16.44,0,0,0-11.61-4.16q-8.33,0-12.26,4.2t-6.65,12.37Q106.88,142,99.7,142a9.6,9.6,0,0,1-7.15-3A9.14,9.14,0,0,1,89.64,132.49Zm36.91,82.91a11.9,11.9,0,0,1-8-3,10.47,10.47,0,0,1-3.45-8.36,10.77,10.77,0,0,1,3.33-8,11.27,11.27,0,0,1,8.17-3.25,11.1,11.1,0,0,1,11.27,11.27,10.54,10.54,0,0,1-3.4,8.32A11.48,11.48,0,0,1,126.55,215.4Z"/></g></g></svg>