<svg xmlns="http://www.w3.org/2000/svg" viewBox="0 0 253.51 253.51"><defs><style>.cls-1{fill:#cfe7d7;stroke-width:5px;}.cls-1,.cls-3{stroke:#000;}.cls-2{fill:#fdbc5a;}.cls-3{fill:none;}.cls-4,.cls-8{fill:#3abeef;}.cls-4{stroke:#231f20;stroke-miterlimit:10;}.cls-5{fill:#2095d3;}.cls-6{fill:#231f20;}.cls-7{fill:#8bd7f8;}</style></defs><g id="Layer_2" data-name="Layer 2"><g id="Layer_1-2" data-name="Layer 1"><rect class="cls-1" x="2.5" y="2.5" width="248.51" height="248.51"/><rect class="cls-2" x="8.36" y="8.36" width="236.8" height="62.45"/><rect class="cls-3" x="8.36" y="8.36" width="236.8" height="62.45"/><path class="cls-4" d="M157.11,88.37v12.91a3,3,0,0,1-3,3H98.64a3,3,0,0,1-3-3V88.37h7.8c0,1.15,0,2.21,0,3.27a19.8,19.8,0,0,0,.13,2.32,2.93,2.93,0,0,0,.3.92,2.4,2.4,0,0,0,1.89,1.36,2.29,2.29,0,0,0,1.49-.1c1.57-.57,1.91-1.88,1.89-3.4s0-2.83,0-4.34h7.82v4.73c0,2,1.06,3.15,2.64,3.15h.33c1.56,0,2.57-1.29,2.59-3.19V88.4h7.82c0,1.54,0,3.1,0,4.69,0,1.9,1,3.15,2.58,3.19a.55.55,0,0,0,.18,0,.47.47,0,0,0,.16,0c1.59,0,2.6-1.19,2.62-3.15,0-1.58,0-3.17,0-4.73h7.82c0,1.51,0,2.92,0,4.34s.3,2.83,1.86,3.4a2.39,2.39,0,0,0,1.52.1h0a2.35,2.35,0,0,0,1.84-1.41,2.62,2.62,0,0,0,.28-.87,14.91,14.91,0,0,0,.16-2.32c0-1.06,0-2.12,0-3.27Z"/><path class="cls-5" d="M126.35,191.29c-2.64-3.07-5.29-6.12-7.92-9.2q-13.65-16-27.27-32-7.25-8.49-14.48-17c-.27-.32-.6-.59-.9-.89v-.39c.27-.23.57-.44.82-.7L96.09,111.7c.25-.25.53-.47.8-.71a.75.75,0,0,1,.1.17c2.17,5.89,4.32,11.78,6.5,17.66.39,1,.89,2,1.33,3.05l0,.19a5,5,0,0,0,.16.87q4.89,13.22,9.79,26.41,5.39,14.57,10.75,29.12C125.9,189.38,126.09,190.35,126.35,191.29Z"/><path class="cls-6" d="M128.36,190.74a4.6,4.6,0,0,1-.13-.5v0a2.68,2.68,0,0,1-.1-.35l-.25-.94c-.1-.39-.23-.78-.37-1.18-.23-.62-.46-1.26-.71-1.88v0c-3-8.17-6-16.34-9-24.5l-10.06-27.22-.58-1.57-.16-.46v0l-.06-.38-.5-1.28v0l-.15-.35s0,0,0,0c-.25-.54-.47-1.06-.7-1.62a2.49,2.49,0,0,0-.11-.27q-2.33-6.31-4.66-12.67L99.88,113l-.77-2.07-.16-.48-.9-1.6h-.76a3.79,3.79,0,0,0-.64.07L96,109l-.68.58-.69.62-.37.38L75.13,129.72c-.1.1-.25.2-.37.31l-1.06.87v2.24l1,.93a4.41,4.41,0,0,1,.44.43l41.74,48.94c1.81,2.11,3.63,4.21,5.43,6.32l2.22,2.57.15.17,2.07,2.42,2.14-2.34Zm-8.36-10L78.55,132.16l17.51-17.51.81,2.21c1.56,4.23,3.11,8.46,4.69,12.67.27.77.6,1.49.93,2.22l.33.7v0l0,0,0,.09h0a4,4,0,0,0,.13.64,3.75,3.75,0,0,0,.1.39l.19.48,10.61,28.67c2.34,6.3,4.66,12.62,7,18.94C120.59,181.41,120.27,181.08,120,180.75Zm-16.43-48.32.45-.21.17-.08.66-.08Z"/><path class="cls-7" d="M104.86,132.06a1.29,1.29,0,0,0,0-.19c1.72-1.61,3.44-3.21,5.14-4.83q6.56-6.23,13.08-12.49c1.21-1.17,2.36-2.4,3.54-3.6H127c.23.28.44.57.69.82,2.83,2.71,5.67,5.4,8.49,8.11l12,11.5a8.45,8.45,0,0,0,.65.54c.12-.27.23-.47.31-.68,1.84-5,3.67-9.92,5.53-14.88.65-1.75,1.37-3.48,2.06-5.22a3.88,3.88,0,0,1,.72.47q10,10,20,20c.12.12.22.25.41.45-1.22,1.44-2.42,2.88-3.64,4.3l-8.83,10.37-8.45,9.91c-3,3.47-5.93,7-8.9,10.43s-5.69,6.65-8.52,10c-3.36,3.93-6.7,7.88-10.06,11.8-.77.9-1.6,1.76-2.4,2.63a10.44,10.44,0,0,1,.31-1.13Q132.65,176,138,161.64q4.9-13.29,9.83-26.57c.35-.95.67-1.91,1.06-3Z"/><path class="cls-6" d="M179.24,130.5a3.82,3.82,0,0,0-.33-.35l-1.33-1.35q-9.22-9.2-18.44-18.42l-.23-.23a4.45,4.45,0,0,0-1.06-.75l-.31-.18-.48-.13a3.81,3.81,0,0,0-1.16-.2h-.51l-.83,2.07-.42,1.05-.41,1q-.53,1.31-1,2.61c-1.16,3.09-2.3,6.2-3.46,9.29L148,128.35,129.83,111l-.17-.17-.54-.52c-.1-.1-.18-.22-.29-.35l-.87-1H125.7L124,110.61l0,0-.31.31c-.68.7-1.34,1.39-2,2.07l0,0c-4.33,4.19-8.7,8.33-13.08,12.5l-3,2.82-.6.56-1,.95-.21.19-1.14,1.08,0,0,.17.78.08.36,1.39-.17.66-.08-.83.16-1.2.23v0l0,0v.09a4,4,0,0,0,.13.64l.16.87h42.78a1,1,0,0,1-.08.23l-19,51.49v0l-1.1,3v0l-.29.75c0,.14-.1.27-.14.41s-.1.4-.15.6l-.41,1.6-.06.21v0l2.07,2.42,2.14-2.34.08-.08.41-.46c.56-.6,1.14-1.2,1.68-1.84,2.05-2.41,4.08-4.81,6.14-7.19l43.42-51Zm-46.51,51.32,17-46c.25-.66.47-1.35.72-2.07l.6-1.7s0,0,0,0l.13-.34,2-5.26c1.14-3.11,2.3-6.2,3.44-9.29.31-.83.64-1.63.95-2.44l17.52,17.51-41,48.15C133.58,180.81,133.17,181.31,132.73,181.82ZM109.87,130c.52-.48,1-1,1.51-1.43q6.57-6.25,13.1-12.52c.79-.75,1.54-1.52,2.28-2.3l17,16.25Z"/><path class="cls-8" d="M104.86,132.06h44c-.39,1.1-.71,2.06-1.06,3q-4.92,13.29-9.83,26.57-5.31,14.36-10.6,28.71a10.44,10.44,0,0,0-.31,1.13l-.59,0-.11-.18v0c-.26-.94-.45-1.91-.79-2.83q-5.36-14.57-10.75-29.12-4.89-13.2-9.79-26.41A5,5,0,0,1,104.86,132.06Z"/><path class="cls-6" d="M104.85,130l-.85.06-.29,0-1.3.1.16,1,.15.8.08.36,0,.14v0l0,.13a4,4,0,0,0,.13.64,3.75,3.75,0,0,0,.1.39l.19.48,10.61,28.67c2.34,6.3,4.66,12.62,7,18.94l2.05,5.58.68,1.86a15.21,15.21,0,0,1,.5,1.7c.08.31.16.64.25,1l.14.49.09.36.06-.19,2.07,2.42,2.14-2.34,0,.08,0-.16.23-.89a3.86,3.86,0,0,1,.14-.54l1.33-3.61,2.09-5.64,17-46c.25-.66.47-1.35.72-2.07l.6-1.7s0,0,0,0l.13-.34.58-1.65Zm22,55.86c-3-8.17-6-16.34-9-24.5l-10.06-27.22h38.2a1,1,0,0,1-.08.23Z"/><path class="cls-8" d="M126.58,111c-1.18,1.2-2.33,2.43-3.54,3.6Q116.51,120.82,110,127c-1.7,1.62-3.42,3.22-5.14,4.83-.44-1-.94-2-1.33-3.05-2.18-5.88-4.33-11.77-6.5-17.66a.75.75,0,0,0-.1-.17,2.73,2.73,0,0,1,.4,0Z"/><path class="cls-6" d="M122.55,108.89l-24.5,0h-.76a3.79,3.79,0,0,0-.64.07L96,109l-.68.58-.69.62-.37.38.85,1.43.19.47.78,2.14.81,2.21c1.56,4.23,3.11,8.46,4.69,12.67.27.77.6,1.49.93,2.22l.33.7v0l0,0,0,.09.67,1.51.56,1.27,1.34-1.27,1.68-1.57.54-.5.11-.11,2.09-2c.52-.48,1-1,1.51-1.43q6.57-6.25,13.1-12.52c.79-.75,1.54-1.52,2.28-2.3l.21-.21,1.24-1.27,1.29-1.3.16-.17,1.87-1.9Zm-1,4.16c-4.33,4.19-8.7,8.33-13.08,12.5l-3,2.82a2.49,2.49,0,0,0-.11-.27q-2.33-6.31-4.66-12.67L99.88,113l21.74,0Z"/><path class="cls-8" d="M156.72,111.14c-.69,1.74-1.41,3.47-2.06,5.22-1.86,5-3.69,9.92-5.53,14.88-.08.21-.19.41-.31.68a8.45,8.45,0,0,1-.65-.54l-12-11.5c-2.82-2.71-5.66-5.4-8.49-8.11-.25-.25-.46-.54-.69-.82q14.44,0,28.89,0A3.59,3.59,0,0,1,156.72,111.14Z"/><path class="cls-6" d="M158.91,110.15a4.45,4.45,0,0,0-1.06-.75l-.31-.18-.48-.13a3.81,3.81,0,0,0-1.16-.2h-.51c-8,0-15.92,0-23.86,0h-9l1.48,1.72.27.35,1.07,1.24.23.29a7.35,7.35,0,0,0,.66.77l.5.48,17,16.25,2.15,2.07.85.81c.19.16.35.31.56.47l.87.71,1.41,1.16,1.25-2.61c.1-.21.16-.42.24-.58s0,0,0,0l.13-.34,2-5.26c1.14-3.11,2.3-6.2,3.44-9.29.31-.83.64-1.63.95-2.44.15-.38.29-.73.44-1.08l.39-1,.27-.66.5-1.51ZM148,128.35,132,113c7.23,0,14.48,0,21.7,0q-.53,1.31-1,2.61c-1.16,3.09-2.3,6.2-3.46,9.29Z"/><path class="cls-5" d="M126.35,191.27l.11.18Z"/><polygon class="cls-6" points="124.69 192.52 124.57 192.34 128.13 190.21 126.35 191.27 128.18 190.29 127.53 190.71 128.23 190.37 124.69 192.52"/><path class="cls-6" d="M34.51,41.39V40.15H45.8l0,1.42a11.35,11.35,0,0,1-1.51,5.72,11.55,11.55,0,0,1-4.14,4.19l-.36.18A11.1,11.1,0,0,1,34.51,53a11.52,11.52,0,0,1-3-.4,10.89,10.89,0,0,1-2.71-1.15,12.08,12.08,0,0,1-2.32-1.79,10,10,0,0,1-1.78-2.35L24.49,47a10.56,10.56,0,0,1-1-2.53,11.77,11.77,0,0,1-.32-2.72,11,11,0,0,1,.4-3,11.53,11.53,0,0,1,2.89-5.07,11.63,11.63,0,0,1,2.35-1.82l.37-.18a11.07,11.07,0,0,1,5.32-1.35h0a11,11,0,0,1,5.29,1.35l.36.18a12.27,12.27,0,0,1,2.33,1.79l-.87.87a10.72,10.72,0,0,0-1.33-1.11,10.61,10.61,0,0,0-1.55-.89l-.15-.08a9.69,9.69,0,0,0-4-.87h-.07a10.13,10.13,0,0,0-4.74,1.16l-.33.19a9.95,9.95,0,0,0-5,8.7,10.14,10.14,0,0,0,1.16,4.78l.18.32a10,10,0,0,0,3.67,3.7,9.8,9.8,0,0,0,5.08,1.37,9.64,9.64,0,0,0,4.73-1.2l.33-.19a9.74,9.74,0,0,0,3.66-3.66A10,10,0,0,0,44.6,41.6v-.21H34.51Zm0,1.63V41.79H44.2a8.36,8.36,0,0,1-.11,1.34l0,.11a9.49,9.49,0,0,1-1.13,3.19,9.59,9.59,0,0,1-5,4.28,9.49,9.49,0,0,1-3.4.62,9.37,9.37,0,0,1-3.72-.75,9.85,9.85,0,0,1-3.08-2,9.72,9.72,0,0,1-2.11-3.06,9.38,9.38,0,0,1-.78-3.84,9.22,9.22,0,0,1,.78-3.77,10.17,10.17,0,0,1,2.09-3.08,10,10,0,0,1,3.08-2.08A9.33,9.33,0,0,1,34.51,32h.07a11.71,11.71,0,0,1,3.55.69,9,9,0,0,1,3.23,2.15l-.88.88a8.51,8.51,0,0,0-2.73-1.83,8.37,8.37,0,0,0-3.21-.65h0a8.15,8.15,0,0,0-3.3.67,8.57,8.57,0,0,0-2.7,1.84,8.86,8.86,0,0,0-1.8,2.7,8.17,8.17,0,0,0-.65,3.28A8.05,8.05,0,0,0,26.73,45a8.72,8.72,0,0,0,1.82,2.67A8.39,8.39,0,0,0,41.79,45.9,8.73,8.73,0,0,0,42.85,43Z"/><path class="cls-6" d="M51.7,46.56A5,5,0,0,0,53.49,49a5,5,0,0,0,5.19.38,5.45,5.45,0,0,0,1.77-1.55l1,.69a6.36,6.36,0,0,1-2.13,1.93,5.82,5.82,0,0,1-2.93.73A5.93,5.93,0,0,1,54,50.75a6.4,6.4,0,0,1-1.91-1.28,6.62,6.62,0,0,1-1.33-1.87,5.61,5.61,0,0,1-.54-2.28H62.92V45.1A6.55,6.55,0,0,0,61,40.48a6.6,6.6,0,0,0-4.64-1.9,6.54,6.54,0,0,0-6,9.12,6.58,6.58,0,0,0,1.42,2.07,6.87,6.87,0,0,0,2.08,1.38,6.25,6.25,0,0,0,2.5.51,6.41,6.41,0,0,0,3.15-.8,6.34,6.34,0,0,0,2.27-2.08l1,.69a7.78,7.78,0,0,1-6.44,3.43,7.28,7.28,0,0,1-3-.62,8.11,8.11,0,0,1-2.48-1.68,7.82,7.82,0,0,1-1.7-2.48,7.48,7.48,0,0,1-.61-3,7.71,7.71,0,0,1,2.25-5.5h0a7.69,7.69,0,0,1,2.51-1.68,7.92,7.92,0,0,1,3-.58,7.56,7.56,0,0,1,3,.62,7.88,7.88,0,0,1,2.48,1.68,8,8,0,0,1,1.67,2.47,7.32,7.32,0,0,1,.62,3v1.46Zm-1.45-1.68a5.53,5.53,0,0,1,.54-2.27,6.53,6.53,0,0,1,1.33-1.88A6.6,6.6,0,0,1,54,39.45,5.93,5.93,0,0,1,56.37,39a6.09,6.09,0,0,1,2.38.47,6.31,6.31,0,0,1,1.93,1.28A5.91,5.91,0,0,1,62,42.61a6.21,6.21,0,0,1,.51,2.27Zm10.82-1.24a5,5,0,0,0-1.79-2.47,4.76,4.76,0,0,0-2.91-1,4.67,4.67,0,0,0-3.43,1.42h0a5.54,5.54,0,0,0-1.2,2Z"/><path class="cls-6" d="M68.13,52.61H66.89v-15h1.24v15Zm1.64-14.14a6.11,6.11,0,0,1,1.74-.85,6.79,6.79,0,0,1,1.91-.28A6.66,6.66,0,0,1,76.2,38a6.35,6.35,0,0,1,2.3,1.79A6.31,6.31,0,0,1,80.76,38a6.52,6.52,0,0,1,2.81-.62,6.28,6.28,0,0,1,2.5.51,6.71,6.71,0,0,1,2.08,1.39,6.49,6.49,0,0,1,1.4,2,6.37,6.37,0,0,1,.51,2.54v8.78H88.83V43.85a5,5,0,0,0-.42-2,5.93,5.93,0,0,0-1.13-1.67A5.27,5.27,0,0,0,85.61,39a5.36,5.36,0,0,0-5.24.61,5.15,5.15,0,0,0-1.87,2.72,5.41,5.41,0,0,0-1.88-2.69,5.39,5.39,0,0,0-6.13-.2,5.89,5.89,0,0,0-2,2.31V37.6h1.24Zm8.49,14.14H77V43.83a3.3,3.3,0,0,0-.29-1.39A3.66,3.66,0,0,0,76,41.29a4,4,0,0,0-1.15-.78,3.45,3.45,0,0,0-1.38-.29,3.58,3.58,0,0,0-1.43.29,4.12,4.12,0,0,0-1.14.78,3.86,3.86,0,0,0-.79,1.15,3.46,3.46,0,0,0-.29,1.39v8.78H68.53V43.85A4.57,4.57,0,0,1,68.92,42a5,5,0,0,1,1-1.53v0a5,5,0,0,1,1.55-1A4.94,4.94,0,0,1,73.42,39a4.77,4.77,0,0,1,1.87.38,4.91,4.91,0,0,1,1.55,1v0a5.06,5.06,0,0,1,1,1.53,4.73,4.73,0,0,1,.38,1.89Zm10.13,0H87.15V43.83a3.46,3.46,0,0,0-.29-1.39,3.69,3.69,0,0,0-1.93-1.93,3.46,3.46,0,0,0-1.39-.29,3.53,3.53,0,0,0-1.42.29,4.17,4.17,0,0,0-1.15.78,4,4,0,0,0-.78,1.15,3.46,3.46,0,0,0-.29,1.39v8.78H78.66V43.85A4.73,4.73,0,0,1,79,42a4.83,4.83,0,0,1,1.08-1.53v0a5.06,5.06,0,0,1,1.53-1A4.73,4.73,0,0,1,83.54,39a4.77,4.77,0,0,1,1.9.38,5.06,5.06,0,0,1,1.53,1v0A5.06,5.06,0,0,1,88,42a4.73,4.73,0,0,1,.38,1.89Z"/><path class="cls-6" d="M98.19,40.66a1.15,1.15,0,0,0-1-.44,1.13,1.13,0,0,0-.82.34,1.15,1.15,0,0,0-.34.83.92.92,0,0,0,.2.61,1.9,1.9,0,0,0,.51.46,6.44,6.44,0,0,0,.63.36c.22.11.43.2.62.28a17.38,17.38,0,0,1,1.61.76,5.22,5.22,0,0,1,1.25,1,3.74,3.74,0,0,1,.82,1.31,5,5,0,0,1,.29,1.82,4.69,4.69,0,0,1-.38,1.91,5,5,0,0,1-1,1.57A5.2,5.2,0,0,1,99,52.5a4.87,4.87,0,0,1-1.93.4,4.81,4.81,0,0,1-2.5-.71,5.1,5.1,0,0,1-1.84-1.88l2.55-1.38,0,.07a1.91,1.91,0,0,0,1.75,1,2,2,0,0,0,1.47-.6,1.94,1.94,0,0,0,.61-1.44,1.7,1.7,0,0,0-.2-.85,2.16,2.16,0,0,0-.53-.6,3.09,3.09,0,0,0-.73-.42l-.8-.35q-.76-.33-1.44-.69a4.92,4.92,0,0,1-1.17-.86A3.59,3.59,0,0,1,93.49,43a4,4,0,0,1-.29-1.62,3.74,3.74,0,0,1,.33-1.57,4.2,4.2,0,0,1,.87-1.28,4.26,4.26,0,0,1,1.28-.87,3.7,3.7,0,0,1,1.56-.33,4.08,4.08,0,0,1,1.79.41,4,4,0,0,1,1.38,1.12l-.91.73a3.58,3.58,0,0,0-1-.73,2.57,2.57,0,0,0-1.18-.29,2.64,2.64,0,0,0-1.11.24,2.91,2.91,0,0,0-.91.61,2.79,2.79,0,0,0-.82,2A2.42,2.42,0,0,0,95,43a4.07,4.07,0,0,0,1.09,1,8,8,0,0,0,1.44.69,7.42,7.42,0,0,1,1.44.71,4.09,4.09,0,0,1,1.09,1,2.67,2.67,0,0,1,.44,1.61,3.23,3.23,0,0,1-3.28,3.27,3.23,3.23,0,0,1-1.71-.47,3.59,3.59,0,0,1-1.21-1.24l-.36.18a4,4,0,0,0,1.37,1.42,3.41,3.41,0,0,0,1.91.55,3.84,3.84,0,0,0,1.46-.29,3.62,3.62,0,0,0,1.18-.8,3.84,3.84,0,0,0,.78-1.19,3.5,3.5,0,0,0,.29-1.44,3.19,3.19,0,0,0-.43-1.76,3.91,3.91,0,0,0-1.1-1.12,6.61,6.61,0,0,0-1.43-.72,10.72,10.72,0,0,1-1.44-.66,3.88,3.88,0,0,1-1.1-.89,2.13,2.13,0,0,1-.43-1.4A2.36,2.36,0,0,1,97.35,39a2.3,2.3,0,0,1,1.82.84Z"/><path class="cls-6" d="M113.27,52.61V30.71h1.24v21.9Zm11.62-21.9h1.75L116.22,41.13,127.7,52.61H126l-9.8-9.8v9.8h-1.24V30.71h1.24v8.71Zm4.08,0L118.55,41.13,130,52.61h-1.75l-3.21-3.21-8.27-8.27,7.29-7.32,3.13-3.1Z"/><path class="cls-6" d="M133.82,30.53a1.74,1.74,0,0,1,1.25.51,1.69,1.69,0,0,1,.53,1.26,1.66,1.66,0,0,1-.53,1.25,1.74,1.74,0,0,1-1.25.51,1.68,1.68,0,0,1-1.24-.51,1.72,1.72,0,0,1-.51-1.25,1.74,1.74,0,0,1,.51-1.26A1.68,1.68,0,0,1,133.82,30.53ZM132.4,52.61v-15h1.24v15Zm1.42-21.13a.75.75,0,0,0-.55.23.85.85,0,0,0-.22.57.82.82,0,0,0,.22.56.72.72,0,0,0,.55.24.82.82,0,0,0,.8-.8.8.8,0,0,0-.8-.8Zm0,.43c.26,0,.4.12.4.37s-.14.36-.4.36a.37.37,0,1,1,0-.73ZM134,37.6h1.24v15H134Z"/><path class="cls-6" d="M139.76,52.61h-1.24v-15h1.24v15Zm1.63-14.14a6.11,6.11,0,0,1,1.74-.85,6.74,6.74,0,0,1,1.91-.28,6.23,6.23,0,0,1,2.49.51,6.71,6.71,0,0,1,2.08,1.39,6.37,6.37,0,0,1,1.91,4.59v8.78h-1.24V43.85a5.13,5.13,0,0,0-.41-2,5.93,5.93,0,0,0-1.13-1.67A5.46,5.46,0,0,0,147.08,39a5.24,5.24,0,0,0-5,.48,5.78,5.78,0,0,0-1.93,2.27V37.6h1.23Zm8.49,14.14h-1.24V43.83a3.3,3.3,0,0,0-.29-1.39,3.66,3.66,0,0,0-.78-1.15,4,4,0,0,0-1.15-.78,3.41,3.41,0,0,0-1.38-.29,3.5,3.5,0,0,0-1.42.29,4,4,0,0,0-1.15.78,3.66,3.66,0,0,0-.78,1.15,3.31,3.31,0,0,0-.3,1.39v8.78h-1.23V43.83a4.61,4.61,0,0,1,.38-1.9,4.88,4.88,0,0,1,1-1.53,4.8,4.8,0,0,1,1.55-1A4.86,4.86,0,0,1,145,39a4.86,4.86,0,0,1,3.42,1.42,4.88,4.88,0,0,1,1,1.53,4.61,4.61,0,0,1,.38,1.9Z"/><path class="cls-6" d="M166.64,37.6h1.24v5.21a7.26,7.26,0,0,0-2.4-3.06,6.2,6.2,0,0,0-3.76-1.17,6.32,6.32,0,0,0-2.53.51,6.55,6.55,0,0,0-3.46,8.61,6.58,6.58,0,0,0,1.42,2.07,6.87,6.87,0,0,0,2.08,1.38,6.5,6.5,0,0,0,6.26-.67,7,7,0,0,0,2.39-3v4.85a5.78,5.78,0,0,1-.47,2.31,6.14,6.14,0,0,1-1.28,1.88,5.72,5.72,0,0,1-1.89,1.25,5.83,5.83,0,0,1-2.3.46,5.54,5.54,0,0,1-2.37-.51,6.27,6.27,0,0,1-1.89-1.35l.87-.84a4.31,4.31,0,0,0,1.55,1.1,4.9,4.9,0,0,0,1.84.36,4.52,4.52,0,0,0,1.84-.38,5.24,5.24,0,0,0,1.5-1,5,5,0,0,0,1-1.48,4.46,4.46,0,0,0,.36-1.78V51.15a7.6,7.6,0,0,1-4.92,1.75,7.52,7.52,0,0,1-2.95-.6,7.91,7.91,0,0,1-2.51-1.7h0a7.41,7.41,0,0,1-1.67-2.51,7.78,7.78,0,0,1-.59-3,7.48,7.48,0,0,1,.62-3,7.85,7.85,0,0,1,1.7-2.46,8,8,0,0,1,2.47-1.66,7.51,7.51,0,0,1,3-.6,7.6,7.6,0,0,1,4.92,1.71Zm-9.22,11.84a6.4,6.4,0,0,1-1.32-1.95,5.82,5.82,0,0,1-.5-2.39,5.88,5.88,0,0,1,.48-2.35,6.1,6.1,0,0,1,3.24-3.28,5.89,5.89,0,0,1,2.4-.49,6.14,6.14,0,0,1,2.39.47,6.22,6.22,0,0,1,1.95,1.32,6,6,0,0,1,1.31,1.94,6.32,6.32,0,0,1,.51,2.35v.08a6.21,6.21,0,0,1-.51,2.37,6.34,6.34,0,0,1-1.31,1.93,6.06,6.06,0,0,1-4.34,1.78,5.92,5.92,0,0,1-2.36-.47A6.27,6.27,0,0,1,157.42,49.44ZM168.28,37.6h1.24V52.28a7.22,7.22,0,0,1-.6,2.91,7.55,7.55,0,0,1-4,4,7.31,7.31,0,0,1-2.95.6,7.18,7.18,0,0,1-3-.64,7.81,7.81,0,0,1-2.47-1.73l.91-.87a5.8,5.8,0,0,0,2,1.47,6.21,6.21,0,0,0,2.51.53,6.12,6.12,0,0,0,2.48-.51,6.34,6.34,0,0,0,3.37-3.36,6.14,6.14,0,0,0,.49-2.46Zm-10,11a4.9,4.9,0,0,0,5.34,1,5,5,0,0,0,1.57-1.06A5.32,5.32,0,0,0,166.24,47a4.41,4.41,0,0,0,.4-1.86v-.08a4.34,4.34,0,0,0-.4-1.85,5.24,5.24,0,0,0-1.07-1.55,5.12,5.12,0,0,0-1.57-1.06,4.82,4.82,0,0,0-1.88-.38,4.77,4.77,0,0,0-1.87.38,5,5,0,0,0-2.63,2.63,4.88,4.88,0,0,0,1,5.33Z"/><path class="cls-6" d="M184.82,51.15a7.55,7.55,0,0,1-4.88,1.75,7.44,7.44,0,0,1-3-.62,8,8,0,0,1-2.47-1.7,8.13,8.13,0,0,1-1.7-2.47,7.44,7.44,0,0,1-.62-3,7.36,7.36,0,0,1,.62-3,8,8,0,0,1,1.68-2.46A7.77,7.77,0,0,1,176.92,38a7.76,7.76,0,0,1,7.9,1.09l0-8.34h1.24v12.1a6,6,0,0,0-.93-1.68,6.79,6.79,0,0,0-1.42-1.36,6.63,6.63,0,0,0-1.79-.88,6.41,6.41,0,0,0-2-.31,6.3,6.3,0,0,0-2.58.53,7,7,0,0,0-2.08,1.41,6.67,6.67,0,0,0-1.41,2.07,6.32,6.32,0,0,0-.51,2.53,6.39,6.39,0,0,0,.51,2.56,6.51,6.51,0,0,0,3.5,3.47,6.58,6.58,0,0,0,6.3-.67,6.37,6.37,0,0,0,2.37-3.08v5.21h-1.24Zm-4.88.07a6.31,6.31,0,0,1-2.41-.47,5.83,5.83,0,0,1-1.94-1.31,6.34,6.34,0,0,1-1.3-1.95,6.14,6.14,0,0,1-.47-2.39,6.22,6.22,0,0,1,.45-2.35,6.11,6.11,0,0,1,1.28-2,6.19,6.19,0,0,1,1.95-1.33,6,6,0,0,1,2.44-.49,5.84,5.84,0,0,1,2.39.49,6.57,6.57,0,0,1,1.94,1.31,6,6,0,0,1,1.32,1.95,6.22,6.22,0,0,1,.47,2.37,6.14,6.14,0,0,1-.47,2.39,6.22,6.22,0,0,1-1.32,1.95,6,6,0,0,1-1.94,1.31A6.17,6.17,0,0,1,179.94,51.22ZM180,50a4.81,4.81,0,0,0,1.87-.38,5,5,0,0,0,1.56-1A4.78,4.78,0,0,0,184.44,47a4.86,4.86,0,0,0,.38-1.91,4.54,4.54,0,0,0-.4-1.91,5.11,5.11,0,0,0-1-1.55,5,5,0,0,0-1.54-1,4.81,4.81,0,0,0-1.87-.38,4.74,4.74,0,0,0-1.87.38,4.84,4.84,0,0,0-1.56,1.06,5,5,0,0,0-1.07,1.57,4.43,4.43,0,0,0-.4,1.87,4.54,4.54,0,0,0,.4,1.91,5,5,0,0,0,2.63,2.59A4.74,4.74,0,0,0,180,50Zm6.54-4.88V30.71h1.24v21.9h-1.28Z"/><path class="cls-6" d="M203.62,50.6a7.91,7.91,0,0,1-2.51,1.7,7.64,7.64,0,0,1-3,.6,7.44,7.44,0,0,1-3-.62,7.91,7.91,0,0,1-2.46-1.7A8.22,8.22,0,0,1,191,48.11a7.69,7.69,0,0,1,0-6,7.82,7.82,0,0,1,1.69-2.46,8.06,8.06,0,0,1,2.48-1.66,7.66,7.66,0,0,1,6,0,7.88,7.88,0,0,1,2.48,1.68,8.18,8.18,0,0,1,1.68,2.47,7.47,7.47,0,0,1,.61,3,7.77,7.77,0,0,1-.58,3A7.38,7.38,0,0,1,203.62,50.6Zm-.87-.87a6.28,6.28,0,0,0,1.42-2,6.39,6.39,0,0,0,.51-2.56,6.32,6.32,0,0,0-.51-2.53,6.67,6.67,0,0,0-1.41-2.07,6.75,6.75,0,0,0-2.09-1.41,6.46,6.46,0,0,0-5.08,0,6.54,6.54,0,0,0-4,6,6.21,6.21,0,0,0,.53,2.58,6.41,6.41,0,0,0,1.42,2.07,6.7,6.7,0,0,0,2.07,1.38,6.25,6.25,0,0,0,2.5.51,6.44,6.44,0,0,0,2.57-.51A6.28,6.28,0,0,0,202.75,49.73Zm-4.63,1.49a6,6,0,0,1-2.41-.49,6.19,6.19,0,0,1-2-1.33,6.5,6.5,0,0,1-1.29-1.95,6.11,6.11,0,0,1,0-4.7,6.5,6.5,0,0,1,1.29-2,6.19,6.19,0,0,1,2-1.33,6,6,0,0,1,2.41-.49,5.88,5.88,0,0,1,2.42.49,6.43,6.43,0,0,1,2,1.33,6,6,0,0,1,1.31,2,5.88,5.88,0,0,1,.48,2.35,6,6,0,0,1-.48,2.39,5.84,5.84,0,0,1-1.31,1.93,6.58,6.58,0,0,1-2,1.31A5.89,5.89,0,0,1,198.12,51.22Zm0-1.24a4.91,4.91,0,0,0,4.53-3A4.66,4.66,0,0,0,203,45.1a4.58,4.58,0,0,0-.39-1.87,4.81,4.81,0,0,0-1.05-1.57A5,5,0,0,0,200,40.6a4.91,4.91,0,0,0-3.79,0,5,5,0,0,0-1.56,1.06,4.84,4.84,0,0,0-1.06,1.57,4.57,4.57,0,0,0-.38,1.87,4.65,4.65,0,0,0,.38,1.88,4.9,4.9,0,0,0,1.06,1.56A4.82,4.82,0,0,0,198.12,50Z"/><path class="cls-6" d="M209.89,52.61h-1.24v-15h1.24v15Zm1.64-14.14a5.93,5.93,0,0,1,1.73-.85,6.86,6.86,0,0,1,1.92-.28A6.64,6.64,0,0,1,218,38a6.27,6.27,0,0,1,2.3,1.79A6.39,6.39,0,0,1,222.51,38a6.56,6.56,0,0,1,2.81-.62,6.25,6.25,0,0,1,2.5.51,6.6,6.6,0,0,1,2.08,1.39,6.32,6.32,0,0,1,1.92,4.59v8.78h-1.24V43.85a5,5,0,0,0-.42-2A5.73,5.73,0,0,0,229,40.14,5.27,5.27,0,0,0,227.36,39a5.36,5.36,0,0,0-5.24.61,5.15,5.15,0,0,0-1.87,2.72,5.41,5.41,0,0,0-1.88-2.69,5.39,5.39,0,0,0-6.13-.2,5.79,5.79,0,0,0-2,2.31V37.6h1.24ZM220,52.61h-1.23V43.83a3.31,3.31,0,0,0-.3-1.39,3.66,3.66,0,0,0-.78-1.15,4,4,0,0,0-1.15-.78,3.41,3.41,0,0,0-1.38-.29,3.5,3.5,0,0,0-1.42.29,4,4,0,0,0-1.15.78,3.66,3.66,0,0,0-.78,1.15,3.3,3.3,0,0,0-.29,1.39v8.78h-1.24V43.85a4.56,4.56,0,0,1,.38-1.89,4.88,4.88,0,0,1,1-1.53v0a4.8,4.8,0,0,1,1.55-1,4.86,4.86,0,0,1,1.91-.38,4.86,4.86,0,0,1,3.42,1.42v0a4.88,4.88,0,0,1,1,1.53,4.56,4.56,0,0,1,.38,1.89Zm10.13,0H228.9V43.83a3.3,3.3,0,0,0-.29-1.39,3.66,3.66,0,0,0-.78-1.15,4,4,0,0,0-1.15-.78,3.45,3.45,0,0,0-1.38-.29,3.5,3.5,0,0,0-1.42.29,4,4,0,0,0-1.15.78,3.86,3.86,0,0,0-.79,1.15,3.46,3.46,0,0,0-.29,1.39v8.78h-1.24V43.85A4.57,4.57,0,0,1,220.8,42a4.65,4.65,0,0,1,1.07-1.53v0a5.06,5.06,0,0,1,1.53-1,4.77,4.77,0,0,1,1.9-.38,4.73,4.73,0,0,1,1.89.38,5.06,5.06,0,0,1,1.53,1v0a5.06,5.06,0,0,1,1,1.53,4.73,4.73,0,0,1,.38,1.89Z"/><path class="cls-6" d="M38.07,233.52v-19H35.3l.29-1.23H39.3v20.25Zm2.87-21.89v21.89H39.7V212.86h-4l.33-1.23Z"/><path class="cls-6" d="M46,230.35a1.81,1.81,0,0,1,1.79,1.79v1A2.38,2.38,0,0,1,47,234.9a2.48,2.48,0,0,1-1.81.73v-1a1.46,1.46,0,0,0,1.08-.42,1.42,1.42,0,0,0,.42-1v-1a.67.67,0,0,0-.22-.51.7.7,0,0,0-.51-.22.63.63,0,0,0-.49.22.69.69,0,0,0-.2.51.66.66,0,0,0,.2.49.68.68,0,0,0,.49.2.47.47,0,0,0,.29-.07v.36a1.11,1.11,0,0,1-.27.75,1,1,0,0,1-.79.31v-.48a1.81,1.81,0,0,1-.71-.64,1.63,1.63,0,0,1-.27-.92,1.74,1.74,0,0,1,.51-1.26A1.66,1.66,0,0,1,46,230.35Zm0,1.38a.36.36,0,0,1,.4.41c0,.24-.13.36-.4.36a.32.32,0,0,1-.36-.36C45.61,231.87,45.73,231.73,46,231.73Z"/><path class="cls-6" d="M57.34,230.82h8.27v1.24h-11l8.6-10a5.78,5.78,0,0,0,1.24-3.68A5.53,5.53,0,0,0,64,216.2a5.65,5.65,0,0,0-1.22-1.82A6.11,6.11,0,0,0,61,213.12a5.29,5.29,0,0,0-2.24-.47,5.48,5.48,0,0,0-1.82.31,5.65,5.65,0,0,0-1.68.89A5.92,5.92,0,0,0,54,215.23a4.55,4.55,0,0,0-.73,1.79l-1.2-.33a6,6,0,0,1,.91-2.13,7.52,7.52,0,0,1,1.55-1.68,6.58,6.58,0,0,1,2-1.09,6.82,6.82,0,0,1,2.28-.38,6.67,6.67,0,0,1,2.67.54,7.22,7.22,0,0,1,3.74,3.74,6.71,6.71,0,0,1,.54,2.67,7.85,7.85,0,0,1-.36,2.36,5.94,5.94,0,0,1-1.17,2.09Zm8.27,1.64v1.24H52.75l-.59-1.27L62,221a3.18,3.18,0,0,0,.64-1.17,5.92,5.92,0,0,0,.24-1.31v-.15a3.74,3.74,0,0,0-.33-1.54,4.11,4.11,0,0,0-2.17-2.17,3.86,3.86,0,0,0-1.58-.33,4.06,4.06,0,0,0-3.94,3.06v0l-1.2-.33a5.82,5.82,0,0,1,.75-1.66,5,5,0,0,1,1.18-1.25,6.1,6.1,0,0,1,1.51-.81,5.2,5.2,0,0,1,3.76.13,5.41,5.41,0,0,1,1.67,1.13,5.49,5.49,0,0,1,1.59,3.66v.26a4.93,4.93,0,0,1-.31,1.67,6.24,6.24,0,0,1-.82,1.53l-9.22,10.71Z"/><path class="cls-6" d="M73.33,214.47l-1,5.21a8.59,8.59,0,0,1,2.92-.51,7.84,7.84,0,0,1,3,.56,7,7,0,0,1,2.39,1.59,7.59,7.59,0,0,1,2.17,5.31,6.94,6.94,0,0,1-.6,2.85,7.92,7.92,0,0,1-1.61,2.35,7.65,7.65,0,0,1-2.35,1.58,7,7,0,0,1-2.84.58,7.52,7.52,0,0,1-2.15-.32,7.67,7.67,0,0,1-2-.93,7.13,7.13,0,0,1-1.61-1.44,7.35,7.35,0,0,1-1.13-1.9l1.13-.47a7.11,7.11,0,0,0,2.3,2.79,5.75,5.75,0,0,0,3.42,1,5.82,5.82,0,0,0,2.39-.5,6.25,6.25,0,0,0,2-1.33,6.36,6.36,0,0,0,1.33-2,5.85,5.85,0,0,0,.49-2.35,6.86,6.86,0,0,0-.37-2.2A5.74,5.74,0,0,0,78.14,221a6.66,6.66,0,0,0-2.88-.57,8.42,8.42,0,0,0-2.5.41A5.1,5.1,0,0,0,70.63,222c.22-1.43.48-2.9.79-4.39s.6-3,.89-4.42h8.45v1.24Zm6.19-1.61H71.94c-.29,1.6-.59,3.17-.89,4.72s-.6,3.11-.89,4.68l.27.13a1.36,1.36,0,0,1,.24.13,6.62,6.62,0,0,1,2.13-1.28,7.08,7.08,0,0,1,2.46-.43,6.35,6.35,0,0,1,2.39.43,5.57,5.57,0,0,1,1.85,1.22,5.47,5.47,0,0,1,1.22,1.86,5.94,5.94,0,0,1,.44,2.31,5.34,5.34,0,0,1-.46,2.21,5.85,5.85,0,0,1-1.23,1.82,6,6,0,0,1-1.82,1.24,5.53,5.53,0,0,1-2.21.45,5.79,5.79,0,0,1-3.2-1,5.21,5.21,0,0,1-2.12-2.64l1.13-.44,0,.07a4.23,4.23,0,0,0,1.66,2,4.49,4.49,0,0,0,4.22.4,4.13,4.13,0,0,0,1.42-1,5,5,0,0,0,1-1.42,4.18,4.18,0,0,0,.36-1.75,5.46,5.46,0,0,0-.25-1.62,4.39,4.39,0,0,0-.8-1.47,4.2,4.2,0,0,0-1.44-1.08,5.25,5.25,0,0,0-2.17-.42,6.41,6.41,0,0,0-2.1.37,4.21,4.21,0,0,0-1.76,1.16l-.44.48L68.77,223l2.15-11.33h9.84v1.23Z"/><path class="cls-6" d="M85.93,218.11a12.19,12.19,0,0,1,1.17-2.71,9,9,0,0,1,1.75-2.19,7.59,7.59,0,0,1,2.33-1.46,7.73,7.73,0,0,1,2.91-.52,7.38,7.38,0,0,1,3.85,1,8.94,8.94,0,0,1,2.77,2.57,11.68,11.68,0,0,1,1.67,3.62,15.54,15.54,0,0,1,0,8.34,11.84,11.84,0,0,1-1.67,3.63,8.76,8.76,0,0,1-2.77,2.55,8.18,8.18,0,0,1-7.69,0,8.38,8.38,0,0,1-2.75-2.55,12.06,12.06,0,0,1-1.66-3.63,15.86,15.86,0,0,1-.56-4.19A15.34,15.34,0,0,1,85.93,218.11Zm1.17.35a14,14,0,0,0-.44,2,14.89,14.89,0,0,0,.33,5.75,10.84,10.84,0,0,0,1.4,3.25,7.3,7.3,0,0,0,2.35,2.31,6.84,6.84,0,0,0,6.71,0,7.53,7.53,0,0,0,2.36-2.31,10.62,10.62,0,0,0,1.42-3.25,14.33,14.33,0,0,0,.48-3.67,14.14,14.14,0,0,0-.48-3.66,10.78,10.78,0,0,0-1.42-3.24,7.61,7.61,0,0,0-2.36-2.3,6.79,6.79,0,0,0-5.85-.4,7,7,0,0,0-2,1.27,8,8,0,0,0-1.51,1.91A11,11,0,0,0,87.1,218.46Zm7-5.6a5.86,5.86,0,0,1,3.22.88A7.32,7.32,0,0,1,99.57,216a10,10,0,0,1,1.32,3.11,14.34,14.34,0,0,1,0,6.89,10.43,10.43,0,0,1-1.3,3.11,7.18,7.18,0,0,1-2.23,2.26,5.86,5.86,0,0,1-3.25.87,5.65,5.65,0,0,1-3.21-.89,7.73,7.73,0,0,1-2.25-2.27A10.35,10.35,0,0,1,87.34,226a14.4,14.4,0,0,1-.42-3.41,13.64,13.64,0,0,1,.44-3.44A10.22,10.22,0,0,1,88.69,216a7.32,7.32,0,0,1,2.24-2.26A5.75,5.75,0,0,1,94.11,212.86Zm0,1.24a4.53,4.53,0,0,0-2.71.8,6.81,6.81,0,0,0-1.84,2,9.24,9.24,0,0,0-1.06,2.74,13.21,13.21,0,0,0-.32,2.87,13.77,13.77,0,0,0,.32,2.94,8.88,8.88,0,0,0,1.06,2.73,6.54,6.54,0,0,0,1.84,2,4.52,4.52,0,0,0,2.71.79,4.6,4.6,0,0,0,2.74-.81,6.41,6.41,0,0,0,1.85-2,8.86,8.86,0,0,0,1.06-2.71,13.55,13.55,0,0,0,.33-2.92,13.26,13.26,0,0,0-.33-2.84A9.52,9.52,0,0,0,98.68,217a6.44,6.44,0,0,0-1.85-2.06A4.66,4.66,0,0,0,94.09,214.1Z"/><path class="cls-6" d="M120.94,236.4H119.7v-2.59a7.09,7.09,0,0,1-2.91-1.22,6.44,6.44,0,0,1-2-2.31l1.09-.59a5.32,5.32,0,0,0,2,2.17,5.54,5.54,0,0,0,3,.82h.11Zm-3.64-7.51a3.59,3.59,0,0,0,1,1.22,5.06,5.06,0,0,0,1.4.75v-8.6a17.1,17.1,0,0,1-1.64-.93,5.74,5.74,0,0,1-1.31-1.13,4.65,4.65,0,0,1-.85-1.47,5.58,5.58,0,0,1-.31-2,5.38,5.38,0,0,1,1.14-3.37,5.61,5.61,0,0,1,3-2v-2.7h1.24v3.75a4.22,4.22,0,0,0-1.58.39,4.33,4.33,0,0,0-1.31.91,4.05,4.05,0,0,0-.9,1.34,4.27,4.27,0,0,0-.32,1.66,4.08,4.08,0,0,0,.34,1.75,4.32,4.32,0,0,0,.91,1.28,6,6,0,0,0,1.31.94c.5.27,1,.53,1.55.77v10.74h-.11a5.18,5.18,0,0,1-2.73-.74,4.9,4.9,0,0,1-1.89-2Zm3.64-7.87c-.48-.21-1-.44-1.4-.69a5.48,5.48,0,0,1-1.18-.85,3.58,3.58,0,0,1-1.13-2.72,3.7,3.7,0,0,1,.29-1.49,3.85,3.85,0,0,1,.8-1.22,3.58,3.58,0,0,1,1.18-.82,4.09,4.09,0,0,1,1.44-.33Zm-1.24-6.52a3.43,3.43,0,0,0-.89,1,2.45,2.45,0,0,0-.35,1.29,2.28,2.28,0,0,0,.35,1.31,3.65,3.65,0,0,0,.89.91Zm1.68-5.79h1.24v2.73a5.33,5.33,0,0,1,2.8,1.86l-.94.77a4.16,4.16,0,0,0-3.1-1.61Zm1.24,11.69c.73.35,1.41.7,2,1.08a7.18,7.18,0,0,1,1.64,1.33,5.48,5.48,0,0,1,1.07,1.77,6.65,6.65,0,0,1,.38,2.42,6.85,6.85,0,0,1-.36,2.2,6.58,6.58,0,0,1-1.06,2,7.12,7.12,0,0,1-1.64,1.55,6.5,6.5,0,0,1-2.07.95v2.73h-1.24v-3.75a5.7,5.7,0,0,0,2-.59,5.47,5.47,0,0,0,1.62-1.24,6,6,0,0,0,1.1-1.74,5.62,5.62,0,0,0,.4-2.08,5.08,5.08,0,0,0-.44-2.22,5.18,5.18,0,0,0-1.15-1.57,6.56,6.56,0,0,0-1.6-1.09c-.6-.29-1.2-.57-1.81-.84l-.14-.07V212.9a3.8,3.8,0,0,1,2.77,1.42l-1,.77-.27-.28a1.92,1.92,0,0,0-.31-.23Zm-1.24,1.28,1.73.82a6.46,6.46,0,0,1,1.51,1A4.86,4.86,0,0,1,125.7,225a4.66,4.66,0,0,1,.42,2,5.24,5.24,0,0,1-1.39,3.51,5.52,5.52,0,0,1-1.51,1.17,4.71,4.71,0,0,1-1.84.53Zm1.24,8.93a3.81,3.81,0,0,0,1.64-1.5,4,4,0,0,0,.62-2.11,3.12,3.12,0,0,0-.66-2.11,5.61,5.61,0,0,0-1.6-1.28Z"/><path class="cls-6" d="M130.49,211.63h6.44a10.53,10.53,0,0,1,4.21.85,11.16,11.16,0,0,1,5.87,5.81,10.73,10.73,0,0,1,0,8.51,11.24,11.24,0,0,1-5.87,5.85,10.54,10.54,0,0,1-4.23.87h-6.44Zm1.23,1.23v19.42h5.21a9.34,9.34,0,0,0,3.77-.76,9.88,9.88,0,0,0,5.2-5.18,9.37,9.37,0,0,0,.76-3.77,9.21,9.21,0,0,0-.78-3.76,10,10,0,0,0-2.12-3.09,9.7,9.7,0,0,0-3.09-2.09,9.31,9.31,0,0,0-3.74-.77Zm.4.41H137a8.78,8.78,0,0,1,3.59.74,9.78,9.78,0,0,1,3,2,9.19,9.19,0,0,1,2,2.95,8.89,8.89,0,0,1,.73,3.58,9,9,0,0,1-.73,3.63,9.3,9.3,0,0,1-2,2.95,9.58,9.58,0,0,1-3,2,8.79,8.79,0,0,1-3.59.75h-4.83Zm1.24,1.23v16.14h3.57a7.68,7.68,0,0,0,3.12-.64,8.14,8.14,0,0,0,2.57-1.73,8.37,8.37,0,0,0,1.75-2.56,7.84,7.84,0,0,0,.65-3.16,7.66,7.66,0,0,0-.65-3.13,8.45,8.45,0,0,0-1.77-2.55,8.55,8.55,0,0,0-2.57-1.73,7.71,7.71,0,0,0-3.1-.64Z"/><path class="cls-6" d="M153.29,225.94v7.58h-1.24V224.7h4.3a5.54,5.54,0,0,0,2.28-.47A6.07,6.07,0,0,0,160.5,223a6,6,0,0,0,1.28-1.89,5.76,5.76,0,0,0,.47-2.29,5.58,5.58,0,0,0-.47-2.23,6.44,6.44,0,0,0-1.28-1.89,6.36,6.36,0,0,0-1.87-1.31,5.56,5.56,0,0,0-2.28-.49h-4.7v20.66h-1.24V211.63h5.94a6.73,6.73,0,0,1,2.75.56,7.36,7.36,0,0,1,3.83,3.83,6.86,6.86,0,0,1,.56,2.75,6.93,6.93,0,0,1-.56,2.75,7.44,7.44,0,0,1-1.55,2.27,7.67,7.67,0,0,1-2.28,1.57,6.59,6.59,0,0,1-2.75.58Zm-1.24-12.67h4.3a5.15,5.15,0,0,1,2.13.45,6,6,0,0,1,1.75,1.2,5.57,5.57,0,0,1,1.18,1.75,5.21,5.21,0,0,1,0,4.19,5.57,5.57,0,0,1-1.18,1.75,5.8,5.8,0,0,1-1.75,1.2,5,5,0,0,1-2.13.46h-4.3Zm1.24,1.23V223h3.06a4,4,0,0,0,1.64-.35,4.65,4.65,0,0,0,1.35-.91,4.17,4.17,0,0,0,.93-1.35,4,4,0,0,0,.34-1.65,3.92,3.92,0,0,0-.34-1.64,4.52,4.52,0,0,0-2.28-2.28,4,4,0,0,0-1.64-.35Z"/><path class="cls-6" d="M168.74,214.54a11.65,11.65,0,0,1,3.68-2.46,11.07,11.07,0,0,1,4.33-.85,10.78,10.78,0,0,1,4.41.91,11.37,11.37,0,0,1,3.61,2.47,12.17,12.17,0,0,1,2.42,3.61,10.75,10.75,0,0,1,.89,4.33,11,11,0,0,1-.89,4.39,11.47,11.47,0,0,1-6.05,6.05,11.17,11.17,0,0,1-8.74,0,11.53,11.53,0,0,1-6.07-6,10.94,10.94,0,0,1-.91-4.43,11.08,11.08,0,0,1,.86-4.33A11.65,11.65,0,0,1,168.74,214.54Zm.87.87a9.89,9.89,0,0,0-2.18,3.25,10,10,0,0,0-.77,3.88,9.77,9.77,0,0,0,.8,3.91,10.5,10.5,0,0,0,5.39,5.4,9.91,9.91,0,0,0,7.8,0,10.58,10.58,0,0,0,3.21-2.19,10.31,10.31,0,0,0,2.18-3.21,9.6,9.6,0,0,0,.8-3.91,9.41,9.41,0,0,0-.8-3.89,10.41,10.41,0,0,0-2.17-3.2,10.18,10.18,0,0,0-3.2-2.19,9.78,9.78,0,0,0-3.92-.8,10.07,10.07,0,0,0-7.14,2.95Zm7.14-2.55a9.19,9.19,0,0,1,3.74.79,10.34,10.34,0,0,1,3.09,2.09,9.68,9.68,0,0,1,2.1,3.08,9.56,9.56,0,0,1,0,7.47,9.88,9.88,0,0,1-5.19,5.19,9.56,9.56,0,0,1-7.47,0,10,10,0,0,1-3.1-2.09,9.85,9.85,0,0,1-2.09-3.1,9.44,9.44,0,0,1,0-7.47,9.93,9.93,0,0,1,2.07-3.08,10.17,10.17,0,0,1,3.08-2.09A9.26,9.26,0,0,1,176.75,212.86Zm0,1.24a8.23,8.23,0,0,0-3.3.68,8.57,8.57,0,0,0-4.49,4.53,8.37,8.37,0,0,0,0,6.54,8.71,8.71,0,0,0,1.83,2.7,8.47,8.47,0,0,0,2.69,1.8,8.38,8.38,0,0,0,6.52,0,8.63,8.63,0,0,0,2.7-1.8,8.86,8.86,0,0,0,1.82-2.7,8.15,8.15,0,0,0,.67-3.3,7.93,7.93,0,0,0-.67-3.24,8.93,8.93,0,0,0-1.82-2.69,8.6,8.6,0,0,0-2.68-1.84A8,8,0,0,0,176.75,214.1Z"/><path class="cls-6" d="M201.92,233.52h-11V211.63h1.23v20.65h9.8Zm0-1.64h-9.39V211.63h1.23v19h8.16v1.24Z"/><path class="cls-6" d="M207.35,233.52V223.28l-8.09-11.65h1.5l7.83,11.25v10.64Zm-4.59-21.89.62.83,5.43,7.84,6.05-8.67h1.49l-7.54,10.81-5.9-8.48-1.64-2.33Zm7.51,19v2.88H209V222.88l5.61-8.12,2.22-3.13h1.49l-2.18,3.09-5.9,8.56Z"/></g></g></svg>