<svg xmlns="http://www.w3.org/2000/svg" viewBox="0 0 253.51 253.51"><defs><style>.cls-1{fill:#cfe7d7;stroke-width:5px;}.cls-1,.cls-3{stroke:#000;}.cls-2{fill:#946538;}.cls-3,.cls-5{fill:none;}.cls-4{fill:#fbb040;}.cls-4,.cls-5,.cls-6,.cls-7,.cls-8,.cls-9{stroke:#231f20;stroke-miterlimit:10;}.cls-4,.cls-5,.cls-6,.cls-7{stroke-width:2px;}.cls-6{fill:#c49a6c;}.cls-7{fill:#f7941d;}.cls-8,.cls-9{fill:#f15a29;stroke-width:0.75px;}.cls-8{opacity:0.29;}.cls-9{opacity:0.32;}.cls-10{fill:#231f20;}</style></defs><g id="Layer_2" data-name="Layer 2"><g id="Layer_1-2" data-name="Layer 1"><rect class="cls-1" x="2.5" y="2.5" width="248.51" height="248.51"/><rect class="cls-2" x="8.36" y="8.36" width="236.8" height="62.45"/><rect class="cls-3" x="8.36" y="8.36" width="236.8" height="62.45"/><path class="cls-4" d="M53.21,179.57H190.84a0,0,0,0,1,0,0v15.94a4.72,4.72,0,0,1-4.72,4.72H57.93a4.72,4.72,0,0,1-4.72-4.72V179.57A0,0,0,0,1,53.21,179.57Z"/><circle class="cls-5" cx="50.91" cy="181.51" r="1.94"/><circle class="cls-5" cx="193.15" cy="181.51" r="1.94"/><rect class="cls-6" x="65.28" y="139.28" width="47.7" height="11.61" transform="matrix(0.79, -0.62, 0.62, 0.79, -70.57, 86.02)"/><rect class="cls-7" x="102.51" y="94.97" width="55.04" height="36" rx="4.2" transform="translate(-42.01 104.42) rotate(-38.14)"/><path class="cls-5" d="M111.9,104s-1.59,21.68,15.38,34.37"/><path class="cls-5" d="M125.9,93.81s-1.6,21.68,15.37,34.38"/><path class="cls-5" d="M145.16,89.12s-7.74,16.08,9.23,28.78"/><path class="cls-8" d="M103.13,111.65a5.86,5.86,0,0,0-.71,7.92c6.89,8.91,13.82,17.76,20.25,27l2.93,4.21c1.42,2.05,2.51,4,5.35,3.08a9,9,0,0,0,4.92-4.12c2.07-3.36,3.88-6.86,6.11-10.12a101.82,101.82,0,0,1,10.16-12.16,47,47,0,0,0,4.69-5.1,26.89,26.89,0,0,0,2.4-4.29c1.47-3.31,2.75-7.71.88-11.12-4.3-7.83-11.19-13.44-17.24-19.82a6.29,6.29,0,0,0-1.61-1.35c-2.65-1.36-6.44.94-8.69,2.27a124,124,0,0,0-12.92,9.47q-6.42,5.09-12.52,10.55Z"/><path class="cls-9" d="M131.29,162.39a9.2,9.2,0,0,0-2.56,1.67,4.78,4.78,0,0,0-.92.82c-1.36,1.7.63,4,1.86,5.17,1,.9,2.45,2,3.88,1.73.8-.14,1.13-1,1.41-1.7a5.37,5.37,0,0,0,.26-4.48,7,7,0,0,0-2.11-3A2,2,0,0,0,131.29,162.39Z"/><path class="cls-10" d="M27.27,50.29h-.66V28.39h1.24v21.9Zm1.56-21.9h.66V39.25h6.78V28.39h1.24v12.1H28.25V28.39Zm8.09,21.9h-.65V42.16H29.49v8.13H28.25V40.92h9.26v9.37Zm2.22-21.9v21.9H37.91V28.39h1.23Z"/><path class="cls-10" d="M55.36,48.28A7.84,7.84,0,0,1,52.84,50a7.56,7.56,0,0,1-3,.6,7.4,7.4,0,0,1-3-.62,7.82,7.82,0,0,1-2.46-1.69,8.62,8.62,0,0,1-1.68-2.48,7.81,7.81,0,0,1,0-6,8.08,8.08,0,0,1,1.7-2.46,7.94,7.94,0,0,1,2.48-1.66,7.44,7.44,0,0,1,3-.6,7.56,7.56,0,0,1,3,.62,8.05,8.05,0,0,1,2.48,1.68A7.91,7.91,0,0,1,57,39.8a7.4,7.4,0,0,1,.62,3,7.77,7.77,0,0,1-.58,3A7.28,7.28,0,0,1,55.36,48.28Zm-.88-.87a6.13,6.13,0,0,0,1.42-2,6.36,6.36,0,0,0,.51-2.56,6.27,6.27,0,0,0-.51-2.52,6.58,6.58,0,0,0-1.4-2.07,6.73,6.73,0,0,0-2.09-1.42,6.49,6.49,0,0,0-5.09,0,6.58,6.58,0,0,0-2.07,1.4,6.54,6.54,0,0,0-1.39,7.21,6.58,6.58,0,0,0,1.42,2.07,6.87,6.87,0,0,0,2.08,1.38,6.25,6.25,0,0,0,2.5.51,6.39,6.39,0,0,0,2.56-.51A6.17,6.17,0,0,0,54.48,47.41ZM49.86,48.9a5.9,5.9,0,0,1-2.41-.49,6.19,6.19,0,0,1-2-1.33,6.31,6.31,0,0,1-1.29-1.95,6,6,0,0,1,0-4.7,6.31,6.31,0,0,1,1.29-2,6.16,6.16,0,0,1,2-1.32,6.08,6.08,0,0,1,4.83,0,6.16,6.16,0,0,1,3.26,3.27A6,6,0,0,1,56,42.78a6,6,0,0,1-1.78,4.32,6.52,6.52,0,0,1-2,1.31A5.92,5.92,0,0,1,49.86,48.9Zm0-1.24a4.76,4.76,0,0,0,1.91-.38,5,5,0,0,0,1.56-1.05,5,5,0,0,0,1.06-1.57,4.65,4.65,0,0,0,.38-1.88,4.6,4.6,0,0,0-.38-1.87,4.84,4.84,0,0,0-1.06-1.57,5.07,5.07,0,0,0-1.56-1.06,4.93,4.93,0,0,0-1.91-.38,4.78,4.78,0,0,0-1.88.38,5,5,0,0,0-1.57,1.06,4.81,4.81,0,0,0-1,1.57A4.61,4.61,0,0,0,45,42.78a4.66,4.66,0,0,0,.39,1.88,4.92,4.92,0,0,0,1,1.57A5,5,0,0,0,48,47.28,4.61,4.61,0,0,0,49.86,47.66Z"/><path class="cls-10" d="M61.26,50.29H60v-15h1.24v15ZM62.9,36.15a5.66,5.66,0,0,1,1.73-.84A6.45,6.45,0,0,1,66.54,35a6.28,6.28,0,0,1,2.5.51,6.67,6.67,0,0,1,2.07,1.39A6.41,6.41,0,0,1,73,41.51v8.78H71.79V41.53a4.92,4.92,0,0,0-.42-2,5.66,5.66,0,0,0-1.13-1.67,5.32,5.32,0,0,0-1.66-1.15,5.24,5.24,0,0,0-5,.48,5.86,5.86,0,0,0-1.93,2.27V35.28H62.9Zm8.49,14.14H70.15V41.51a3.46,3.46,0,0,0-.29-1.39A3.81,3.81,0,0,0,69.07,39a3.86,3.86,0,0,0-1.15-.79,3.38,3.38,0,0,0-1.38-.29,3.53,3.53,0,0,0-1.42.29A3.86,3.86,0,0,0,64,39a3.61,3.61,0,0,0-.78,1.14,3.3,3.3,0,0,0-.29,1.39v8.78H61.66V41.51a4.81,4.81,0,0,1,.38-1.9,5.06,5.06,0,0,1,1-1.53,4.88,4.88,0,0,1,1.55-1,4.8,4.8,0,0,1,3.79,0A4.85,4.85,0,0,1,71,39.61a4.65,4.65,0,0,1,.39,1.9Z"/><path class="cls-10" d="M78.56,44.24a5,5,0,0,0,1.79,2.48,5,5,0,0,0,5.19.38,5.45,5.45,0,0,0,1.77-1.55l1,.69a6.26,6.26,0,0,1-2.13,1.93,5.83,5.83,0,0,1-2.94.73,5.91,5.91,0,0,1-2.33-.47A6.44,6.44,0,0,1,79,47.16a6.61,6.61,0,0,1-1.33-1.88A5.79,5.79,0,0,1,77.1,43H89.78v-.22a6.39,6.39,0,0,0-.51-2.53,6.67,6.67,0,0,0-1.4-2.09,6.58,6.58,0,0,0-2.1-1.39,6.45,6.45,0,0,0-2.55-.51,6.35,6.35,0,0,0-2.53.51,6.58,6.58,0,0,0-2.07,1.4,6.54,6.54,0,0,0-1.39,7.21,6.58,6.58,0,0,0,1.42,2.07,6.87,6.87,0,0,0,2.08,1.38,6.23,6.23,0,0,0,2.49.51,6.48,6.48,0,0,0,5.43-2.88l1,.7a7.86,7.86,0,0,1-2.8,2.51,7.63,7.63,0,0,1-3.65.91,7.27,7.27,0,0,1-3-.62,8,8,0,0,1-2.48-1.68,7.89,7.89,0,0,1-1.7-2.47,7.56,7.56,0,0,1-.61-3,7.76,7.76,0,0,1,2.25-5.5h0a7.51,7.51,0,0,1,2.51-1.67,7.69,7.69,0,0,1,3-.59,7.57,7.57,0,0,1,3,.62,8.05,8.05,0,0,1,2.48,1.68A7.91,7.91,0,0,1,90.4,39.8a7.4,7.4,0,0,1,.62,3v1.46ZM77.1,42.56a5.7,5.7,0,0,1,.55-2.27A6.47,6.47,0,0,1,79,38.41a6.25,6.25,0,0,1,1.91-1.27,5.75,5.75,0,0,1,2.33-.48,6,6,0,0,1,2.39.48,6.11,6.11,0,0,1,1.93,1.27,5.84,5.84,0,0,1,1.29,1.88,6,6,0,0,1,.52,2.27Zm10.82-1.23a5,5,0,0,0-1.78-2.48,4.77,4.77,0,0,0-2.92-1,4.66,4.66,0,0,0-3.42,1.42h0a5.5,5.5,0,0,0-1.2,2Z"/><path class="cls-10" d="M103.88,49.45a6.33,6.33,0,0,1-6.1.62,6.74,6.74,0,0,1-2.08-1.4,7,7,0,0,1-1.42-2.08,6.17,6.17,0,0,1-.53-2.53V35.28H95v8.78a5.13,5.13,0,0,0,.42,2.06,5.41,5.41,0,0,0,1.13,1.67,5.18,5.18,0,0,0,1.68,1.13,5.29,5.29,0,0,0,6.9-2.79v4.92a4.81,4.81,0,0,1-.38,1.9,5.06,5.06,0,0,1-1,1.53,5,5,0,0,1-1.53,1,4.9,4.9,0,0,1-5.36-1.13l-.29.29a5.2,5.2,0,0,0,1.7,1.17A5.27,5.27,0,0,0,104,54.72,5.35,5.35,0,0,0,105.12,53a5.13,5.13,0,0,0,.4-2V35.28h1.24V51.05a6.25,6.25,0,0,1-.51,2.5A6.48,6.48,0,0,1,102.81,57a6.28,6.28,0,0,1-2.5.51A6.53,6.53,0,0,1,97.8,57a6.24,6.24,0,0,1-2.15-1.48l2.07-2a2.85,2.85,0,0,1,.46.35,2.67,2.67,0,0,0,.71.45,3.87,3.87,0,0,0,1.42.29,3.18,3.18,0,0,0,1.37-.29,3.81,3.81,0,0,0,1.13-.78,4.22,4.22,0,0,0,.78-1.13,3.33,3.33,0,0,0,.29-1.37ZM95.39,35.28h1.24v8.78a3.45,3.45,0,0,0,.29,1.38,3.86,3.86,0,0,0,.79,1.15,3.61,3.61,0,0,0,1.14.78,3.37,3.37,0,0,0,1.42.29,3.3,3.3,0,0,0,1.39-.29,3.66,3.66,0,0,0,1.15-.78,4,4,0,0,0,.78-1.15,3.45,3.45,0,0,0,.29-1.38V35.28h1.24v8.78a4.73,4.73,0,0,1-.38,1.89,4.82,4.82,0,0,1-1,1.53,4.75,4.75,0,0,1-1.55,1,4.61,4.61,0,0,1-1.88.38,4.72,4.72,0,0,1-1.91-.38,4.86,4.86,0,0,1-1.55-1,4.8,4.8,0,0,1-1-1.53,4.57,4.57,0,0,1-.39-1.89Z"/><path class="cls-10" d="M112.77,42.71v7.58h-1.24V41.47h4.3a5.71,5.71,0,0,0,2.28-.47A6.25,6.25,0,0,0,120,39.73a6,6,0,0,0,1.28-1.89,5.79,5.79,0,0,0,.47-2.29,5.54,5.54,0,0,0-.47-2.23,6.3,6.3,0,0,0-3.15-3.2,5.56,5.56,0,0,0-2.28-.49h-4.7V50.29h-1.24V28.39h5.94a6.74,6.74,0,0,1,2.75.57,7.26,7.26,0,0,1,2.28,1.55,7.44,7.44,0,0,1,1.55,2.27,7,7,0,0,1,0,5.5,7.37,7.37,0,0,1-1.55,2.28,7.67,7.67,0,0,1-2.28,1.57,6.59,6.59,0,0,1-2.75.58ZM111.53,30h4.3a5,5,0,0,1,2.13.46,5.8,5.8,0,0,1,1.75,1.2,5.57,5.57,0,0,1,1.18,1.75,5.21,5.21,0,0,1,0,4.19,5.57,5.57,0,0,1-1.18,1.75,6,6,0,0,1-1.75,1.2,5.15,5.15,0,0,1-2.13.45h-4.3Zm1.24,1.24V39.8h3.06a4,4,0,0,0,1.64-.35,4.86,4.86,0,0,0,1.35-.91,4.64,4.64,0,0,0,.93-1.35,4,4,0,0,0,.34-1.66,4,4,0,0,0-.34-1.64,4.72,4.72,0,0,0-.93-1.34,4.52,4.52,0,0,0-1.35-.93,4,4,0,0,0-1.64-.35Z"/><path class="cls-10" d="M137.25,48.28a7.91,7.91,0,0,1-2.51,1.7,7.64,7.64,0,0,1-3,.6,7.44,7.44,0,0,1-3-.62,8.05,8.05,0,0,1-2.46-1.69,8.39,8.39,0,0,1-1.67-2.48,7.69,7.69,0,0,1,0-6,8.05,8.05,0,0,1,1.69-2.46,8.18,8.18,0,0,1,2.48-1.66,7.66,7.66,0,0,1,6,0,7.93,7.93,0,0,1,2.48,1.68,8.11,8.11,0,0,1,1.68,2.48,7.4,7.4,0,0,1,.62,3,7.78,7.78,0,0,1-.59,3A7.28,7.28,0,0,1,137.25,48.28Zm-.87-.87a6.28,6.28,0,0,0,1.42-2,6.36,6.36,0,0,0,.51-2.56,6.27,6.27,0,0,0-.51-2.52,6.45,6.45,0,0,0-1.41-2.07,6.61,6.61,0,0,0-2.09-1.42,6.46,6.46,0,0,0-5.08,0,6.74,6.74,0,0,0-2.08,1.4,6.56,6.56,0,0,0-1.4,2.09,6.44,6.44,0,0,0-.51,2.54,6.21,6.21,0,0,0,.53,2.58,6.41,6.41,0,0,0,1.42,2.07,6.7,6.7,0,0,0,2.07,1.38,6.25,6.25,0,0,0,2.5.51,6.44,6.44,0,0,0,2.57-.51A6.28,6.28,0,0,0,136.38,47.41Zm-4.63,1.49a6,6,0,0,1-2.41-.49,6,6,0,0,1-1.94-1.33,6.34,6.34,0,0,1-1.3-1.95,6.11,6.11,0,0,1,0-4.7,6.34,6.34,0,0,1,1.3-2,6.16,6.16,0,0,1,4.35-1.82,5.89,5.89,0,0,1,2.42.5,6.4,6.4,0,0,1,2,1.32,6,6,0,0,1,1.31,2,5.88,5.88,0,0,1,.48,2.35,6,6,0,0,1-.48,2.39,5.84,5.84,0,0,1-1.31,1.93,6.4,6.4,0,0,1-2,1.31A5.89,5.89,0,0,1,131.75,48.9Zm0-1.24a4.69,4.69,0,0,0,1.91-.38,5,5,0,0,0,1.57-1.05,4.92,4.92,0,0,0,1.05-1.57,4.66,4.66,0,0,0,.39-1.88,4.61,4.61,0,0,0-.39-1.87,4.81,4.81,0,0,0-1.05-1.57,5,5,0,0,0-1.57-1.06,4.91,4.91,0,0,0-3.79,0,5.07,5.07,0,0,0-1.56,1.06,5,5,0,0,0-1.06,1.57,4.6,4.6,0,0,0-.38,1.87,4.65,4.65,0,0,0,.38,1.88,5.12,5.12,0,0,0,1.06,1.57,5,5,0,0,0,1.56,1.05A4.65,4.65,0,0,0,131.75,47.66Z"/><path class="cls-10" d="M142.79,28.39H144v8.13h-2.74V35.28h1.5ZM144,36.92v7.57a4.68,4.68,0,0,0,.36,1.84,4.9,4.9,0,0,0,1,1.52,5.17,5.17,0,0,0,1.48,1,4.43,4.43,0,0,0,1.82.44h.25v1.24a5.89,5.89,0,0,1-2.35-.49,6.54,6.54,0,0,1-3.31-3.32,5.69,5.69,0,0,1-.49-2.35V38.16h-1.5V36.92Zm.43-.4V28.39h1.24v6.89h2.48v1.24Zm4.27,12.38a4.43,4.43,0,0,1-1.66-.38,4.37,4.37,0,0,1-1.37-1,4.42,4.42,0,0,1-.91-1.38,4.33,4.33,0,0,1-.33-1.7V36.92h3.72v1.24H145.7v6.26a3.23,3.23,0,0,0,3.24,3.24V48.9Z"/><path class="cls-10" d="M172.11,50.29h-11V28.39h1.24V49.05h9.8Zm0-1.64h-9.4V28.39H164v19h8.16v1.24Z"/><path class="cls-10" d="M186.72,48.83a7.55,7.55,0,0,1-4.92,1.75,7.35,7.35,0,0,1-3-.62,8.07,8.07,0,0,1-2.47-1.68,7.89,7.89,0,0,1-1.7-2.47,7.74,7.74,0,0,1,0-6.07,8,8,0,0,1,4.17-4.12,7.81,7.81,0,0,1,7.89,1.12V35.28H188v5.21a6.9,6.9,0,0,0-1.49-2.31h0a6.74,6.74,0,0,0-2.06-1.39,6.51,6.51,0,0,0-5.1,0,6.74,6.74,0,0,0-2.08,1.4,6.56,6.56,0,0,0-1.4,2.09,6.44,6.44,0,0,0-.51,2.54,6.37,6.37,0,0,0,.53,2.58,6.58,6.58,0,0,0,1.42,2.07,6.87,6.87,0,0,0,2.08,1.38,6.23,6.23,0,0,0,2.49.51,6.44,6.44,0,0,0,2.57-.51,6.17,6.17,0,0,0,2.06-1.42h0A7.08,7.08,0,0,0,188,45.08v5.21h-1.24Zm-9.22-1.71a6.43,6.43,0,0,1-1.33-1.95,6,6,0,0,1-.49-2.39,5.88,5.88,0,0,1,.48-2.35,6.14,6.14,0,0,1,1.29-2,6.05,6.05,0,0,1,2-1.32,6.06,6.06,0,0,1,4.82,0,6.22,6.22,0,0,1,3.27,3.27,6.11,6.11,0,0,1,0,4.7,6.29,6.29,0,0,1-3.27,3.28,5.85,5.85,0,0,1-2.42.49,6,6,0,0,1-2.37-.47A6.34,6.34,0,0,1,177.5,47.12Zm.88-.88a4.66,4.66,0,0,0,3.42,1.42,4.77,4.77,0,0,0,1.92-.38,5,5,0,0,0,1.56-1.05,5.12,5.12,0,0,0,1.06-1.57,4.82,4.82,0,0,0,.38-1.88,4.77,4.77,0,0,0-.38-1.87,5,5,0,0,0-1.06-1.57,5.07,5.07,0,0,0-1.56-1.06,4.94,4.94,0,0,0-1.92-.38,4.77,4.77,0,0,0-1.87.38,5,5,0,0,0-2.63,2.63,4.77,4.77,0,0,0-.38,1.87,5,5,0,0,0,.36,1.88A4.61,4.61,0,0,0,178.38,46.24Zm10-11h1.24v15h-1.24Z"/><path class="cls-10" d="M194.12,50.29h-1.24v-15h1.24v15Zm1.64-14.14a5.66,5.66,0,0,1,1.73-.84A6.4,6.4,0,0,1,199.4,35a6.23,6.23,0,0,1,2.49.51A6.71,6.71,0,0,1,204,36.92a6.41,6.41,0,0,1,1.91,4.59v8.78h-1.24V41.53a5.08,5.08,0,0,0-.41-2,5.66,5.66,0,0,0-1.13-1.67,5.32,5.32,0,0,0-1.66-1.15,5.24,5.24,0,0,0-5,.48,5.78,5.78,0,0,0-1.93,2.27V35.28h1.24Zm8.48,14.14H203V41.51a3.3,3.3,0,0,0-.29-1.39,3.61,3.61,0,0,0-.78-1.14,3.86,3.86,0,0,0-1.15-.79,3.41,3.41,0,0,0-1.38-.29,3.5,3.5,0,0,0-1.42.29,3.86,3.86,0,0,0-1.15.79,3.61,3.61,0,0,0-.78,1.14,3.3,3.3,0,0,0-.29,1.39v8.78h-1.24V41.51a4.64,4.64,0,0,1,.38-1.9,4.88,4.88,0,0,1,1-1.53,4.78,4.78,0,0,1,1.55-1,4.69,4.69,0,0,1,1.91-.39,4.61,4.61,0,0,1,1.87.39,4.78,4.78,0,0,1,1.55,1,4.88,4.88,0,0,1,1,1.53,4.64,4.64,0,0,1,.38,1.9Z"/><path class="cls-10" d="M221,48.83A7.66,7.66,0,0,1,213.11,50a8.1,8.1,0,0,1-2.47-1.69,8.3,8.3,0,0,1-1.7-2.48,7.44,7.44,0,0,1-.62-3,7.36,7.36,0,0,1,.62-3,8,8,0,0,1,4.16-4.14,7.74,7.74,0,0,1,7.9,1.1l0-8.35h1.24v12.1a6.3,6.3,0,0,0-.93-1.68,6.79,6.79,0,0,0-1.42-1.36,6.63,6.63,0,0,0-1.79-.88,6.41,6.41,0,0,0-2-.31,6.3,6.3,0,0,0-2.58.53,6.8,6.8,0,0,0-2.08,1.42,6.45,6.45,0,0,0-1.41,2.07,6.27,6.27,0,0,0-.51,2.52,6.36,6.36,0,0,0,.51,2.56,6.51,6.51,0,0,0,3.5,3.47,6.45,6.45,0,0,0,2.55.51,6.51,6.51,0,0,0,6.12-4.26v5.21H221Zm-4.88.07a6.22,6.22,0,0,1-2.4-.47,5.77,5.77,0,0,1-1.95-1.31,6.34,6.34,0,0,1-1.3-1.95,6.14,6.14,0,0,1-.47-2.39,6.22,6.22,0,0,1,.45-2.35,6,6,0,0,1,3.23-3.27,6,6,0,0,1,2.44-.5,5.85,5.85,0,0,1,2.39.5,6.21,6.21,0,0,1,1.94,1.31,5.86,5.86,0,0,1,1.32,1.94,6.22,6.22,0,0,1,.47,2.37,6.14,6.14,0,0,1-.47,2.39,6.22,6.22,0,0,1-1.32,1.95,6,6,0,0,1-1.94,1.31A6.17,6.17,0,0,1,216.12,48.9Zm0-1.24a4.63,4.63,0,0,0,1.87-.38,5,5,0,0,0,1.56-1,4.73,4.73,0,0,0,1.05-1.54,4.94,4.94,0,0,0,.38-1.92,4.57,4.57,0,0,0-.4-1.91,5.24,5.24,0,0,0-1-1.55,5.16,5.16,0,0,0-1.54-1,4.81,4.81,0,0,0-1.87-.38,4.74,4.74,0,0,0-1.87.38,5.07,5.07,0,0,0-2.63,2.63,4.46,4.46,0,0,0-.4,1.87,4.62,4.62,0,0,0,.4,1.92,4.79,4.79,0,0,0,1.07,1.54,5,5,0,0,0,1.56,1A4.57,4.57,0,0,0,216.14,47.66Zm6.54-4.88V28.39h1.24v21.9h-1.28Z"/><path class="cls-10" d="M47.39,238.37h8.27v1.24h-11l8.6-10a5.72,5.72,0,0,0,1.24-3.68,5.53,5.53,0,0,0-.44-2.16,5.65,5.65,0,0,0-1.22-1.82,6.11,6.11,0,0,0-1.82-1.26,5.26,5.26,0,0,0-2.24-.47,5.53,5.53,0,0,0-1.82.31,5.65,5.65,0,0,0-1.68.89A6.13,6.13,0,0,0,44,222.78a4.71,4.71,0,0,0-.73,1.79l-1.2-.33a6,6,0,0,1,.91-2.13,7.76,7.76,0,0,1,1.55-1.68,6.58,6.58,0,0,1,2-1.09,6.82,6.82,0,0,1,2.28-.38,6.72,6.72,0,0,1,2.68.54,7.25,7.25,0,0,1,3.73,3.74,6.55,6.55,0,0,1,.55,2.67,7.85,7.85,0,0,1-.36,2.36,6.27,6.27,0,0,1-1.17,2.09ZM55.66,240v1.24H42.8L42.22,240,52,228.54a3.16,3.16,0,0,0,.63-1.17,5,5,0,0,0,.24-1.31v-.15a3.78,3.78,0,0,0-.33-1.54,4.36,4.36,0,0,0-.87-1.3,4.31,4.31,0,0,0-1.29-.87,3.9,3.9,0,0,0-1.59-.33,4,4,0,0,0-2.48.84,4,4,0,0,0-1.45,2.22v0l-1.21-.33a5.82,5.82,0,0,1,.75-1.66,4.89,4.89,0,0,1,1.19-1.25,5.93,5.93,0,0,1,1.51-.81,5.17,5.17,0,0,1,3.75.13,5.35,5.35,0,0,1,2.8,2.79,5.27,5.27,0,0,1,.46,2v.26a4.69,4.69,0,0,1-.31,1.67A6.24,6.24,0,0,1,53,229.3L43.78,240Z"/><path class="cls-10" d="M60.1,225.66A12.65,12.65,0,0,1,61.26,223,9.22,9.22,0,0,1,63,220.76a7.91,7.91,0,0,1,2.33-1.46,7.82,7.82,0,0,1,2.92-.52,7.31,7.31,0,0,1,3.84,1,8.72,8.72,0,0,1,2.77,2.57A11.69,11.69,0,0,1,76.55,226a15.81,15.81,0,0,1,0,8.34,11.86,11.86,0,0,1-1.68,3.63,8.55,8.55,0,0,1-2.77,2.55,8.18,8.18,0,0,1-7.69,0,8.48,8.48,0,0,1-2.75-2.55A12,12,0,0,1,60,234.29a15.46,15.46,0,0,1-.57-4.19A15.06,15.06,0,0,1,60.1,225.66Zm1.16.35a14,14,0,0,0-.43,2,14.24,14.24,0,0,0-.15,2.08,14.78,14.78,0,0,0,.47,3.67A11.11,11.11,0,0,0,62.56,237a7.3,7.3,0,0,0,2.35,2.31,6.82,6.82,0,0,0,6.7,0A7.46,7.46,0,0,0,74,237a10.87,10.87,0,0,0,1.42-3.25,14.78,14.78,0,0,0,.47-3.67,14.58,14.58,0,0,0-.47-3.66A10.86,10.86,0,0,0,74,223.2a7.46,7.46,0,0,0-2.37-2.31,6.79,6.79,0,0,0-5.85-.4,6.84,6.84,0,0,0-2,1.27,7.54,7.54,0,0,0-1.51,1.91A11,11,0,0,0,61.26,226Zm7-5.6a5.8,5.8,0,0,1,3.21.88,7.46,7.46,0,0,1,2.25,2.26,10.19,10.19,0,0,1,1.31,3.11,14.34,14.34,0,0,1,0,6.89,10.17,10.17,0,0,1-1.3,3.11,7.15,7.15,0,0,1-2.22,2.26,5.89,5.89,0,0,1-3.25.87,5.66,5.66,0,0,1-3.22-.89,7.58,7.58,0,0,1-2.24-2.27,10.12,10.12,0,0,1-1.32-3.12,14.4,14.4,0,0,1-.42-3.41,14.11,14.11,0,0,1,.44-3.44,10.48,10.48,0,0,1,1.33-3.11,7.46,7.46,0,0,1,2.25-2.26A5.75,5.75,0,0,1,68.28,220.41Zm0,1.24a4.56,4.56,0,0,0-2.72.8,6.81,6.81,0,0,0-1.84,2,9.51,9.51,0,0,0-1.05,2.74,13.24,13.24,0,0,0-.33,2.87,13.8,13.8,0,0,0,.33,2.94,9.12,9.12,0,0,0,1.05,2.73,6.54,6.54,0,0,0,1.84,2,5,5,0,0,0,5.45,0,6.55,6.55,0,0,0,1.86-2A9.12,9.12,0,0,0,73.91,233a14.18,14.18,0,0,0,.32-2.92,13.89,13.89,0,0,0-.32-2.84,9.82,9.82,0,0,0-1.06-2.75A6.59,6.59,0,0,0,71,222.45,4.61,4.61,0,0,0,68.26,221.65Z"/><path class="cls-10" d="M80.24,225.66A12.19,12.19,0,0,1,81.41,223a9.22,9.22,0,0,1,1.75-2.19,7.91,7.91,0,0,1,2.33-1.46,7.73,7.73,0,0,1,2.91-.52,7.38,7.38,0,0,1,3.85,1A8.83,8.83,0,0,1,95,222.33,11.45,11.45,0,0,1,96.69,226a15.54,15.54,0,0,1,0,8.34A11.61,11.61,0,0,1,95,237.92a8.65,8.65,0,0,1-2.77,2.55,8.18,8.18,0,0,1-7.69,0,8.38,8.38,0,0,1-2.75-2.55,12.06,12.06,0,0,1-1.66-3.63,15.86,15.86,0,0,1-.56-4.19A15.39,15.39,0,0,1,80.24,225.66Zm1.17.35a14,14,0,0,0-.44,2,14.89,14.89,0,0,0,.33,5.75A11.1,11.1,0,0,0,82.7,237a7.4,7.4,0,0,0,2.35,2.31,6.84,6.84,0,0,0,6.71,0A7.53,7.53,0,0,0,94.12,237a10.62,10.62,0,0,0,1.42-3.25,14.33,14.33,0,0,0,.48-3.67,14.14,14.14,0,0,0-.48-3.66,10.61,10.61,0,0,0-1.42-3.23,7.53,7.53,0,0,0-2.36-2.31,6.79,6.79,0,0,0-5.85-.4,7,7,0,0,0-2,1.27,8,8,0,0,0-1.51,1.91A11,11,0,0,0,81.41,226Zm7-5.6a5.84,5.84,0,0,1,3.22.88,7.32,7.32,0,0,1,2.24,2.26,10,10,0,0,1,1.32,3.11,14.34,14.34,0,0,1,0,6.89,10.43,10.43,0,0,1-1.3,3.11,7.18,7.18,0,0,1-2.23,2.26,5.86,5.86,0,0,1-3.25.87,5.65,5.65,0,0,1-3.21-.89A7.73,7.73,0,0,1,83,236.63a10.35,10.35,0,0,1-1.31-3.12,14.4,14.4,0,0,1-.42-3.41,13.64,13.64,0,0,1,.44-3.44A10.22,10.22,0,0,1,83,223.55a7.43,7.43,0,0,1,2.24-2.26A5.77,5.77,0,0,1,88.42,220.41Zm0,1.24a4.53,4.53,0,0,0-2.71.8,6.81,6.81,0,0,0-1.84,2,9.24,9.24,0,0,0-1.06,2.74,13.86,13.86,0,0,0-.32,2.87,14.44,14.44,0,0,0,.32,2.94,8.88,8.88,0,0,0,1.06,2.73,6.54,6.54,0,0,0,1.84,2,4.52,4.52,0,0,0,2.71.79,4.6,4.6,0,0,0,2.74-.81,6.41,6.41,0,0,0,1.85-2A8.86,8.86,0,0,0,94.05,233a13.55,13.55,0,0,0,.33-2.92,13.26,13.26,0,0,0-.33-2.84A9.52,9.52,0,0,0,93,224.51a6.44,6.44,0,0,0-1.85-2.06A4.66,4.66,0,0,0,88.4,221.65Z"/><path class="cls-10" d="M116.4,244h-1.24v-2.59a7.19,7.19,0,0,1-2.92-1.22,6.64,6.64,0,0,1-2-2.31l1.1-.59a5.32,5.32,0,0,0,2,2.17,5.54,5.54,0,0,0,3,.82h.11Zm-3.65-7.51a3.61,3.61,0,0,0,1,1.22,4.92,4.92,0,0,0,1.4.75v-8.6a17.1,17.1,0,0,1-1.64-.93,5.54,5.54,0,0,1-1.31-1.13,4.67,4.67,0,0,1-.86-1.47,5.82,5.82,0,0,1-.31-2,5.33,5.33,0,0,1,1.15-3.37,5.54,5.54,0,0,1,3-2v-2.7h1.24V220a4.32,4.32,0,0,0-1.59.39,4.46,4.46,0,0,0-1.31.91,4,4,0,0,0-.89,1.35,4.19,4.19,0,0,0-.33,1.65,4,4,0,0,0,.35,1.75,4.32,4.32,0,0,0,.91,1.28,5.55,5.55,0,0,0,1.31.94c.5.27,1,.53,1.55.77v10.74h-.11a5.13,5.13,0,0,1-2.73-.74,5,5,0,0,1-1.9-2Zm3.65-7.86c-.49-.22-1-.45-1.41-.7a5.48,5.48,0,0,1-1.18-.85,4,4,0,0,1-.82-1.15,3.61,3.61,0,0,1-.31-1.57,3.88,3.88,0,0,1,.29-1.49,4,4,0,0,1,.8-1.22,3.62,3.62,0,0,1,1.19-.82,4.09,4.09,0,0,1,1.44-.33Zm-1.24-6.53a3.29,3.29,0,0,0-.89,1,2.36,2.36,0,0,0-.35,1.29,2.2,2.2,0,0,0,.35,1.31,3.49,3.49,0,0,0,.89.91Zm1.67-5.79h1.24V219a5.31,5.31,0,0,1,2.81,1.86l-.95.77a4.13,4.13,0,0,0-3.1-1.61ZM118.07,228c.73.35,1.41.7,2,1.08a7.18,7.18,0,0,1,1.64,1.33,5.69,5.69,0,0,1,1.08,1.77,7,7,0,0,1-1,6.59,7.33,7.33,0,0,1-1.64,1.55,6.45,6.45,0,0,1-2.08.95V244h-1.24V240.2a5.75,5.75,0,0,0,2-.59,5.47,5.47,0,0,0,1.62-1.24,6,6,0,0,0,1.09-1.74,5.42,5.42,0,0,0,.4-2.08,4.94,4.94,0,0,0-.44-2.22,5.16,5.16,0,0,0-1.14-1.57,6.62,6.62,0,0,0-1.61-1.09q-.89-.43-1.8-.84l-.15-.07v-8.31a3.8,3.8,0,0,1,2.77,1.42l-.94.77-.28-.28a1.56,1.56,0,0,0-.31-.23Zm-1.24,1.28,1.74.82a6.46,6.46,0,0,1,1.51,1,5,5,0,0,1,1.07,1.44,4.52,4.52,0,0,1,.42,2,5.08,5.08,0,0,1-.36,1.89,5.43,5.43,0,0,1-1,1.62,5.57,5.57,0,0,1-1.52,1.17,4.66,4.66,0,0,1-1.84.53Zm1.24,8.93a3.76,3.76,0,0,0,1.64-1.5,4,4,0,0,0,.62-2.11,3.17,3.17,0,0,0-.65-2.11,5.66,5.66,0,0,0-1.61-1.28Z"/><path class="cls-10" d="M125.94,219.18h6.45a10.56,10.56,0,0,1,4.21.85,11.1,11.1,0,0,1,5.86,5.81,10.31,10.31,0,0,1,.9,4.26,10.47,10.47,0,0,1-.88,4.25,11.31,11.31,0,0,1-2.37,3.48,11.46,11.46,0,0,1-3.49,2.37,10.54,10.54,0,0,1-4.23.87h-6.45Zm1.24,1.23v19.42h5.21a9.37,9.37,0,0,0,3.77-.76,9.81,9.81,0,0,0,5.19-5.18,9.38,9.38,0,0,0,.77-3.77,9.06,9.06,0,0,0-.79-3.76,9.94,9.94,0,0,0-5.21-5.18,9.26,9.26,0,0,0-3.73-.77Zm.4.41h4.82a8.79,8.79,0,0,1,3.6.74,10,10,0,0,1,3,2,9.19,9.19,0,0,1,2,3,9.06,9.06,0,0,1,.73,3.58,9.19,9.19,0,0,1-.73,3.63,9.3,9.3,0,0,1-2,3,9.82,9.82,0,0,1-3,2,8.8,8.8,0,0,1-3.6.75h-4.82Zm1.24,1.23v16.14h3.57a7.66,7.66,0,0,0,3.11-.64,8,8,0,0,0,2.57-1.73,8.37,8.37,0,0,0,1.75-2.56,7.68,7.68,0,0,0,.66-3.16,7.51,7.51,0,0,0-.66-3.13,8.42,8.42,0,0,0-4.33-4.28,7.78,7.78,0,0,0-3.1-.64Z"/><path class="cls-10" d="M148.75,233.49v7.58h-1.24v-8.82h4.3a5.46,5.46,0,0,0,2.27-.47,6,6,0,0,0,1.88-1.27,6.12,6.12,0,0,0,1.28-1.89,5.76,5.76,0,0,0,.47-2.29,5.58,5.58,0,0,0-.47-2.23,6.64,6.64,0,0,0-1.28-1.89,6.08,6.08,0,0,0-1.88-1.3,5.34,5.34,0,0,0-2.27-.5h-4.7v20.66h-1.24V219.18h5.94a6.73,6.73,0,0,1,2.75.56,7.27,7.27,0,0,1,2.27,1.55,7,7,0,0,1,1.55,2.28,6.71,6.71,0,0,1,.57,2.75,6.77,6.77,0,0,1-.57,2.75,7.1,7.1,0,0,1-1.55,2.27,7.5,7.5,0,0,1-2.27,1.57,6.59,6.59,0,0,1-2.75.58Zm-1.24-12.67h4.3a5.15,5.15,0,0,1,2.13.45,6,6,0,0,1,1.75,1.2,5.74,5.74,0,0,1,1.18,1.75,5.21,5.21,0,0,1,0,4.19,5.65,5.65,0,0,1-2.93,3,5,5,0,0,1-2.13.46h-4.3Zm1.24,1.23v8.53h3.06a4,4,0,0,0,1.64-.35,4.47,4.47,0,0,0,1.34-.91,4.25,4.25,0,0,0,1.28-3,3.92,3.92,0,0,0-.35-1.64,4.52,4.52,0,0,0-.93-1.35,4.35,4.35,0,0,0-1.34-.93,4,4,0,0,0-1.64-.35Z"/><path class="cls-10" d="M164.19,222.09a11.76,11.76,0,0,1,3.68-2.46,11.12,11.12,0,0,1,4.34-.85,10.85,10.85,0,0,1,4.41.91,11.32,11.32,0,0,1,3.6,2.47,12,12,0,0,1,2.42,3.61,10.63,10.63,0,0,1,.9,4.33,10.81,10.81,0,0,1-.9,4.39,11.23,11.23,0,0,1-2.44,3.61,11.46,11.46,0,0,1-3.6,2.44,11.2,11.2,0,0,1-8.75,0,11.56,11.56,0,0,1-6.06-6,10.77,10.77,0,0,1-.91-4.43,11.11,11.11,0,0,1,.85-4.33A11.65,11.65,0,0,1,164.19,222.09Zm.88.87a9.92,9.92,0,0,0-2.95,7.13,9.6,9.6,0,0,0,.8,3.91,10.31,10.31,0,0,0,2.18,3.21,10.46,10.46,0,0,0,3.21,2.19,9.91,9.91,0,0,0,7.8,0,10.5,10.5,0,0,0,5.39-5.4,9.77,9.77,0,0,0,.8-3.91,9.57,9.57,0,0,0-.8-3.89,10.59,10.59,0,0,0-2.17-3.2,10.28,10.28,0,0,0-3.21-2.19,9.73,9.73,0,0,0-3.91-.8,10,10,0,0,0-3.88.77A9.83,9.83,0,0,0,165.07,223Zm7.14-2.55a9.15,9.15,0,0,1,3.73.79,10.39,10.39,0,0,1,3.1,2.09,9.82,9.82,0,0,1,2.09,3.08,9.44,9.44,0,0,1,0,7.47,9.79,9.79,0,0,1-5.19,5.19,9.56,9.56,0,0,1-7.47,0,9.88,9.88,0,0,1-5.19-5.19,9.56,9.56,0,0,1,0-7.47,9.79,9.79,0,0,1,2.08-3.08,10,10,0,0,1,3.08-2.09A9.2,9.2,0,0,1,172.21,220.41Zm0,1.24a8.16,8.16,0,0,0-3.3.68,8.57,8.57,0,0,0-2.7,1.84,8.7,8.7,0,0,0-1.8,2.69,8.43,8.43,0,0,0,0,6.54,8.86,8.86,0,0,0,1.82,2.7,8.51,8.51,0,0,0,2.7,1.8,8.38,8.38,0,0,0,6.52,0,8.47,8.47,0,0,0,2.69-1.8,8.89,8.89,0,0,0,1.83-2.7,8.32,8.32,0,0,0,.67-3.3,8.1,8.1,0,0,0-.67-3.24,9,9,0,0,0-1.83-2.69,8.44,8.44,0,0,0-2.67-1.84A8.06,8.06,0,0,0,172.21,221.65Z"/><path class="cls-10" d="M197.38,241.07h-11V219.18h1.24v20.65h9.8Zm0-1.64H188V219.18h1.24v19h8.16v1.24Z"/><path class="cls-10" d="M202.81,241.07V230.83l-8.09-11.65h1.49l7.84,11.25v10.64Zm-4.59-21.89.62.83,5.42,7.84,6.05-8.67h1.5L204.26,230l-5.9-8.48-1.64-2.33Zm7.5,19v2.88h-1.24V230.43l5.61-8.12,2.23-3.13h1.49l-2.19,3.09-5.9,8.56Z"/></g></g></svg>