<svg xmlns="http://www.w3.org/2000/svg" viewBox="0 0 253.51 253.51"><defs><style>.cls-1{fill:#cfe7d7;stroke-width:5px;}.cls-1,.cls-3{stroke:#000;}.cls-2{fill:#f15959;}.cls-3{fill:none;}.cls-4{fill:#eaaa7c;}.cls-5{fill:#ac7d67;}.cls-6,.cls-7,.cls-8{fill:#231f20;}.cls-7{font-size:24.08px;letter-spacing:0.05em;}.cls-7,.cls-8{font-family:BerlinSansFBDemi-Bold, Berlin Sans FB Demi;font-weight:700;}.cls-8{font-size:20.24px;letter-spacing:-0.01em;}</style></defs><g id="Layer_2" data-name="Layer 2"><g id="Layer_1-2" data-name="Layer 1"><rect class="cls-1" x="2.5" y="2.5" width="248.51" height="248.51"/><rect class="cls-2" x="8.36" y="8.36" width="236.8" height="62.45"/><rect class="cls-3" x="8.36" y="8.36" width="236.8" height="62.45"/><path class="cls-4" d="M80.06,99.25c0-.09-.11-.17-.16-.25q-3.15-5.43-6.29-10.87a.67.67,0,0,0-.12-.16l7.88,13.65Z"/><path class="cls-4" d="M85.88,109.84c-.15.87-.26,1.74-.38,2.61-.16,1.07-.31,2.15-.46,3.23-.19,1.31-.37,2.62-.55,3.93s-.37,2.59-.55,3.89-.36,2.68-.55,4c-.15,1.06-.31,2.12-.46,3.18-.18,1.31-.35,2.63-.54,3.94s-.36,2.62-.55,3.93c-.17,1.14-.34,2.28-.5,3.41s-.28,2.05-.43,3.07c-.18,1.34-.36,2.68-.55,4l-.54,3.81c-.19,1.34-.37,2.68-.56,4-.23,1.66-.47,3.31-.7,5-.19,1.32-.36,2.65-.54,4s-.43,2.91-.64,4.38c-.25,1.73-.49,3.47-.73,5.21l-.54,3.94-.45,3.32c-.21,1.43-.43,2.86-.64,4.3s-.36,2.65-.55,4-.37,2.51-.55,3.76-.33,2.46-.5,3.69a5.2,5.2,0,0,1-.57-.46c-.93-1.06-1.85-2.13-2.78-3.2-.78-.89-1.57-1.78-2.33-2.7a.86.86,0,0,0-.73-.36H56.11c-.49,0-1,0-1.47,0-.27,0-.38-.11-.39-.37s-.06-.44-.09-.66c-.13-1-.26-2.05-.4-3.07s-.3-2.1-.44-3.15l-.54-3.75c-.18-1.29-.37-2.57-.55-3.85-.14-1-.27-2-.41-3.06s-.29-2-.44-3.06c-.19-1.31-.36-2.63-.55-3.93s-.37-2.48-.54-3.72-.29-2.38-.46-3.57c-.2-1.46-.43-2.92-.64-4.38s-.4-2.9-.61-4.34-.44-2.92-.64-4.38c-.24-1.78-.45-3.57-.7-5.35s-.5-3.28-.73-4.91c-.27-1.92-.52-3.84-.78-5.76-.21-1.5-.44-3-.65-4.51-.24-1.66-.46-3.33-.69-5l-.75-5.3c-.21-1.47-.41-2.95-.6-4.43a1,1,0,0,1,.08-.58c.92-1.61,1.86-3.21,2.79-4.82,1.12-1.92,2.22-3.84,3.32-5.77,1-1.69,1.93-3.37,2.91-5a.56.56,0,0,0,0-.65l-3.71-6.43a3.12,3.12,0,0,1,.41-.06H73.07a.52.52,0,0,1,.42.16l7.88,13.65.12.21.11.18.07.13c1.28,2.22,2.59,4.44,3.87,6.66A1.49,1.49,0,0,1,85.88,109.84Z"/><path class="cls-5" d="M73.42,198.43a1.13,1.13,0,0,1-.43.18H53.2l-2.89,0c-.54,0-1.07,0-1.6,0-.25,0-.34-.08-.38-.33-.26-2-.54-3.94-.82-5.91l-1.29-9.15c-.44-3.12-.87-6.24-1.32-9.37-.54-3.92-1.1-7.85-1.65-11.77q-.77-5.49-1.54-11L40.15,140q-.7-5-1.39-10-.78-5.55-1.57-11.11c-.42-3-.85-6-1.26-9a1.3,1.3,0,0,1,.15-.75Q41.6,99.53,47.15,90c.37-.64.7-1.28,1.06-1.91,0-.07.15-.11.22-.16l3.71,6.43a.56.56,0,0,1,0,.65c-1,1.67-1.94,3.35-2.91,5-1.1,1.93-2.2,3.85-3.32,5.77C45,107.38,44,109,43.12,110.59a1,1,0,0,0-.08.58c.19,1.48.39,3,.6,4.43l.75,5.3c.23,1.67.45,3.34.69,5,.21,1.51.44,3,.65,4.51.26,1.92.51,3.84.78,5.76.23,1.63.5,3.27.73,4.91s.46,3.57.7,5.35c.2,1.46.44,2.92.64,4.38s.41,2.89.61,4.34.44,2.92.64,4.38c.17,1.19.3,2.38.46,3.57s.36,2.48.54,3.72.36,2.62.55,3.93c.15,1,.29,2,.44,3.06s.27,2,.41,3.06c.18,1.28.37,2.56.55,3.85l.54,3.75c.14,1.05.29,2.1.44,3.15s.27,2,.4,3.07c0,.22.07.44.09.66s.12.38.39.37c.49,0,1,0,1.47,0H67a.86.86,0,0,1,.73.36c.76.92,1.55,1.81,2.33,2.7.93,1.07,1.85,2.14,2.78,3.2A5.2,5.2,0,0,0,73.42,198.43Z"/><path class="cls-6" d="M90,110.31c-.3,2.13-.65,4.26-1,6.39-.34,2.3-.63,4.6-1,6.89-.18,1.22-.44,2.42-.62,3.63s-.28,2.39-.45,3.59c-.22,1.54-.47,3.07-.7,4.61-.12.78-.2,1.57-.32,2.36s-.29,1.69-.41,2.53-.22,1.67-.34,2.5c-.14,1.06-.29,2.12-.44,3.17-.18,1.23-.36,2.45-.55,3.67-.1.66-.24,1.31-.33,2s-.11,1.21-.2,1.81c-.17,1.22-.37,2.44-.54,3.66s-.36,2.41-.53,3.62l-.57,4c-.21,1.45-.4,2.89-.62,4.34-.18,1.19-.39,2.38-.56,3.57-.23,1.58-.41,3.17-.64,4.75-.12.8-.29,1.6-.41,2.4-.07.44-.1.88-.16,1.32-.18,1.24-.38,2.48-.56,3.72s-.33,2.42-.51,3.62c-.15,1-.31,2-.45,3-.07.48-.11,1-.17,1.46l-.45,3.06L77.14,199c-.14.93-.28,1.86-.44,2.85H54.08c-.3,0-.48-.07-.52-.38l-.36-2.81H73a1.13,1.13,0,0,0,.43-.18c.17-1.23.33-2.46.5-3.69s.37-2.51.55-3.76.37-2.66.55-4,.43-2.87.64-4.3l.45-3.32.54-3.94c.24-1.74.48-3.48.73-5.21.21-1.47.43-2.93.64-4.38s.35-2.66.54-4c.23-1.66.47-3.31.7-5,.19-1.34.37-2.68.56-4l.54-3.81c.19-1.34.37-2.68.55-4,.15-1,.29-2,.43-3.07s.33-2.27.5-3.41c.19-1.31.37-2.62.55-3.93s.36-2.63.54-3.94c.15-1.06.31-2.12.46-3.18.19-1.34.37-2.68.55-4s.37-2.59.55-3.89.36-2.62.55-3.93c.15-1.08.3-2.16.46-3.23.12-.87.23-1.74.38-2.61a1.49,1.49,0,0,0-.34-1c-1.28-2.22-2.59-4.44-3.87-6.66L81.6,102l-.11-.18-.12-.21L73.49,88l-.09-.16h3.84c1.62,2.69,8,13,8.88,14.63.72,1.23,1.4,2.47,2.11,3.7.57,1,1.11,2,1.73,3A1.49,1.49,0,0,1,90,110.31Z"/><path class="cls-4" d="M142.89,99.25l-.17-.25q-3.14-5.43-6.28-10.87a1.11,1.11,0,0,0-.12-.16c1.2,2.1,6.49,11.25,7.87,13.65C143.75,100.83,143.33,100,142.89,99.25Z"/><path class="cls-4" d="M148.71,109.84c-.15.87-.26,1.74-.39,2.61-.15,1.07-.3,2.15-.46,3.23-.18,1.31-.36,2.62-.55,3.93l-.54,3.89c-.19,1.34-.36,2.68-.55,4-.15,1.06-.31,2.12-.46,3.18-.19,1.31-.36,2.63-.54,3.94s-.37,2.62-.56,3.93c-.16,1.14-.33,2.28-.49,3.41s-.29,2.05-.43,3.07c-.19,1.34-.37,2.68-.56,4s-.36,2.54-.54,3.81-.37,2.68-.55,4c-.24,1.66-.47,3.31-.71,5-.18,1.32-.35,2.65-.54,4s-.43,2.91-.64,4.38c-.24,1.73-.49,3.47-.73,5.21-.18,1.31-.35,2.63-.53,3.94-.16,1.1-.3,2.21-.46,3.32-.21,1.43-.43,2.86-.63,4.3s-.37,2.65-.56,4l-.54,3.76-.51,3.69a5.08,5.08,0,0,1-.56-.46c-.94-1.06-1.86-2.13-2.79-3.2-.77-.89-1.57-1.78-2.32-2.7a.87.87,0,0,0-.74-.36H118.94c-.49,0-1,0-1.48,0-.27,0-.37-.11-.39-.37s0-.44-.08-.66c-.14-1-.27-2.05-.41-3.07s-.29-2.1-.44-3.15l-.54-3.75c-.18-1.29-.37-2.57-.55-3.85-.14-1-.27-2-.41-3.06s-.29-2-.43-3.06c-.19-1.31-.37-2.63-.55-3.93s-.37-2.48-.54-3.72-.3-2.38-.46-3.57c-.21-1.46-.43-2.92-.64-4.38s-.4-2.9-.61-4.34-.44-2.92-.64-4.38c-.25-1.78-.46-3.57-.71-5.35s-.49-3.28-.73-4.91c-.27-1.92-.51-3.84-.78-5.76-.21-1.5-.44-3-.65-4.51l-.69-5c-.24-1.77-.5-3.53-.75-5.3-.2-1.47-.41-2.95-.6-4.43a1,1,0,0,1,.08-.58c.92-1.61,1.87-3.21,2.8-4.82q1.67-2.88,3.31-5.77c1-1.69,1.93-3.37,2.92-5a.57.57,0,0,0,0-.65l-3.71-6.43a3,3,0,0,1,.4-.06h24.23a.54.54,0,0,1,.43.16c1.2,2.1,6.49,11.25,7.87,13.65a2.39,2.39,0,0,1,.13.21l.1.18a.56.56,0,0,1,.07.13l3.88,6.66A1.54,1.54,0,0,1,148.71,109.84Z"/><path class="cls-5" d="M136.24,198.43a1.09,1.09,0,0,1-.42.18H116c-1,0-1.93,0-2.9,0-.53,0-1.07,0-1.6,0-.25,0-.34-.08-.37-.33-.27-2-.55-3.94-.82-5.91-.43-3.05-.87-6.1-1.3-9.15s-.87-6.24-1.31-9.37q-.83-5.88-1.66-11.77-.76-5.49-1.54-11c-.51-3.69-1-7.38-1.56-11.06q-.69-5-1.39-10-.78-5.55-1.57-11.11c-.42-3-.85-6-1.25-9a1.3,1.3,0,0,1,.14-.75Q104.44,99.53,110,90c.36-.64.7-1.28,1.06-1.91,0-.07.14-.11.22-.16L115,94.31a.57.57,0,0,1,0,.65c-1,1.67-2,3.35-2.92,5q-1.65,2.9-3.31,5.77c-.93,1.61-1.88,3.21-2.8,4.82a1,1,0,0,0-.08.58c.19,1.48.4,3,.6,4.43.25,1.77.51,3.53.75,5.3l.69,5c.21,1.51.44,3,.65,4.51.27,1.92.51,3.84.78,5.76.24,1.63.51,3.27.73,4.91s.46,3.57.71,5.35c.2,1.46.43,2.92.64,4.38s.4,2.89.61,4.34.43,2.92.64,4.38c.16,1.19.3,2.38.46,3.57s.36,2.48.54,3.72.36,2.62.55,3.93c.14,1,.29,2,.43,3.06s.27,2,.41,3.06c.18,1.28.37,2.56.55,3.85l.54,3.75c.15,1.05.3,2.1.44,3.15s.27,2,.41,3.07c0,.22.07.44.08.66s.12.38.39.37c.5,0,1,0,1.48,0h10.89a.87.87,0,0,1,.74.36c.75.92,1.55,1.81,2.32,2.7.93,1.07,1.85,2.14,2.79,3.2A5.08,5.08,0,0,0,136.24,198.43Z"/><path class="cls-6" d="M152.87,110.31c-.31,2.13-.66,4.26-1,6.39-.33,2.3-.62,4.6-1,6.89-.18,1.22-.44,2.42-.62,3.63s-.28,2.39-.45,3.59c-.22,1.54-.47,3.07-.7,4.61-.11.78-.2,1.57-.32,2.36s-.28,1.69-.41,2.53-.22,1.67-.33,2.5l-.45,3.17c-.18,1.23-.35,2.45-.54,3.67-.1.66-.25,1.31-.34,2s-.11,1.21-.19,1.81c-.17,1.22-.37,2.44-.55,3.66s-.35,2.41-.52,3.62-.39,2.67-.58,4-.4,2.89-.62,4.34c-.17,1.19-.39,2.38-.56,3.57-.22,1.58-.41,3.17-.63,4.75-.12.8-.29,1.6-.42,2.4-.07.44-.09.88-.15,1.32-.19,1.24-.38,2.48-.56,3.72s-.34,2.42-.52,3.62c-.14,1-.3,2-.44,3-.07.48-.11,1-.18,1.46-.14,1-.3,2-.45,3.06L140,199l-.43,2.85H116.9c-.29,0-.48-.07-.51-.38-.13-.94-.24-1.87-.36-2.81h19.79a1.09,1.09,0,0,0,.42-.18l.51-3.69.54-3.76c.19-1.33.37-2.66.56-4s.42-2.87.63-4.3c.16-1.11.3-2.22.46-3.32.18-1.31.35-2.63.53-3.94.24-1.74.49-3.48.73-5.21.21-1.47.44-2.93.64-4.38s.36-2.66.54-4c.24-1.66.47-3.31.71-5,.18-1.34.37-2.68.55-4s.37-2.54.54-3.81.37-2.68.56-4c.14-1,.28-2,.43-3.07s.33-2.27.49-3.41c.19-1.31.38-2.62.56-3.93s.35-2.63.54-3.94c.15-1.06.31-2.12.46-3.18.19-1.34.36-2.68.55-4l.54-3.89c.19-1.31.37-2.62.55-3.93.16-1.08.31-2.16.46-3.23.13-.87.24-1.74.39-2.61a1.54,1.54,0,0,0-.34-1l-3.88-6.66a.56.56,0,0,0-.07-.13l-.1-.18a2.39,2.39,0,0,0-.13-.21c-1.38-2.4-6.67-11.55-7.87-13.65,0-.06-.06-.11-.09-.16h3.83c1.62,2.69,8,13,8.88,14.63.72,1.23,1.41,2.47,2.11,3.7.57,1,1.12,2,1.74,3A1.53,1.53,0,0,1,152.87,110.31Z"/><path class="cls-4" d="M205.71,99.25c-.05-.09-.11-.17-.16-.25q-3.15-5.43-6.29-10.87a.67.67,0,0,0-.12-.16L207,101.62Z"/><path class="cls-4" d="M211.53,109.84c-.15.87-.26,1.74-.38,2.61-.16,1.07-.31,2.15-.46,3.23-.19,1.31-.37,2.62-.55,3.93s-.37,2.59-.55,3.89-.36,2.68-.55,4c-.15,1.06-.31,2.12-.46,3.18-.18,1.31-.35,2.63-.54,3.94s-.37,2.62-.55,3.93c-.17,1.14-.34,2.28-.5,3.41s-.28,2.05-.43,3.07c-.18,1.34-.36,2.68-.55,4l-.54,3.81c-.19,1.34-.37,2.68-.56,4-.23,1.66-.47,3.31-.7,5-.19,1.32-.36,2.65-.54,4s-.43,2.91-.64,4.38c-.25,1.73-.49,3.47-.74,5.21-.17,1.31-.35,2.63-.53,3.94l-.45,3.32c-.21,1.43-.43,2.86-.64,4.3s-.36,2.65-.55,4-.37,2.51-.55,3.76-.33,2.46-.5,3.69a5.2,5.2,0,0,1-.57-.46c-.93-1.06-1.85-2.13-2.78-3.2-.78-.89-1.57-1.78-2.33-2.7a.86.86,0,0,0-.73-.36h-10.9c-.49,0-1,0-1.47,0-.27,0-.38-.11-.39-.37s-.06-.44-.09-.66c-.13-1-.27-2.05-.4-3.07s-.3-2.1-.44-3.15l-.54-3.75c-.19-1.29-.37-2.57-.55-3.85-.14-1-.27-2-.41-3.06s-.29-2-.44-3.06c-.19-1.31-.36-2.63-.55-3.93s-.37-2.48-.54-3.72-.29-2.38-.46-3.57c-.2-1.46-.43-2.92-.64-4.38s-.4-2.9-.61-4.34-.44-2.92-.64-4.38c-.24-1.78-.45-3.57-.7-5.35s-.5-3.28-.73-4.91c-.27-1.92-.52-3.84-.78-5.76-.21-1.5-.44-3-.65-4.51-.24-1.66-.46-3.33-.69-5l-.75-5.3c-.21-1.47-.41-2.95-.6-4.43a1,1,0,0,1,.08-.58c.92-1.61,1.86-3.21,2.79-4.82q1.66-2.88,3.32-5.77c1-1.69,1.93-3.37,2.91-5a.56.56,0,0,0,0-.65l-3.71-6.43a2.9,2.9,0,0,1,.41-.06h24.23a.52.52,0,0,1,.42.16L207,101.62l.12.21.11.18.07.13c1.28,2.22,2.59,4.44,3.87,6.66A1.49,1.49,0,0,1,211.53,109.84Z"/><path class="cls-5" d="M199.07,198.43a1.13,1.13,0,0,1-.43.18H178.85c-1,0-1.93,0-2.9,0-.53,0-1.06,0-1.6,0-.24,0-.33-.08-.37-.33-.26-2-.54-3.94-.82-5.91q-.65-4.58-1.3-9.15c-.43-3.12-.86-6.24-1.31-9.37-.54-3.92-1.1-7.85-1.65-11.77q-.78-5.49-1.54-11L165.8,140q-.7-5-1.39-10-.79-5.55-1.57-11.11c-.42-3-.85-6-1.26-9a1.23,1.23,0,0,1,.15-.75q5.52-9.6,11.07-19.18c.36-.64.7-1.28,1.06-1.91,0-.07.15-.11.22-.16l3.71,6.43a.56.56,0,0,1,0,.65c-1,1.67-1.94,3.35-2.91,5q-1.65,2.9-3.32,5.77c-.93,1.61-1.87,3.21-2.79,4.82a1,1,0,0,0-.08.58c.19,1.48.39,3,.6,4.43l.75,5.3c.23,1.67.45,3.34.69,5,.21,1.51.44,3,.65,4.51.26,1.92.51,3.84.78,5.76.23,1.63.5,3.27.73,4.91s.46,3.57.7,5.35c.2,1.46.44,2.92.64,4.38s.41,2.89.61,4.34.44,2.92.64,4.38c.17,1.19.3,2.38.46,3.57s.36,2.48.54,3.72.36,2.62.55,3.93c.15,1,.29,2,.44,3.06s.27,2,.41,3.06c.18,1.28.36,2.56.55,3.85l.54,3.75c.14,1.05.29,2.1.44,3.15s.27,2,.4,3.07c0,.22.07.44.09.66s.12.38.39.37c.49,0,1,0,1.47,0h10.9a.86.86,0,0,1,.73.36c.76.92,1.55,1.81,2.33,2.7.93,1.07,1.85,2.14,2.78,3.2A5.2,5.2,0,0,0,199.07,198.43Z"/><path class="cls-6" d="M215.69,110.31c-.3,2.13-.65,4.26-1,6.39-.34,2.3-.63,4.6-1,6.89-.17,1.22-.43,2.42-.61,3.63s-.29,2.39-.45,3.59c-.22,1.54-.47,3.07-.7,4.61-.12.78-.2,1.57-.32,2.36s-.29,1.69-.42,2.53-.21,1.67-.33,2.5c-.14,1.06-.29,2.12-.44,3.17-.18,1.23-.36,2.45-.55,3.67-.1.66-.24,1.31-.33,2s-.11,1.21-.2,1.81c-.17,1.22-.37,2.44-.55,3.66s-.35,2.41-.52,3.62l-.57,4c-.21,1.45-.41,2.89-.62,4.34-.18,1.19-.39,2.38-.56,3.57-.23,1.58-.42,3.17-.64,4.75-.12.8-.29,1.6-.41,2.4-.07.44-.1.88-.16,1.32-.18,1.24-.38,2.48-.56,3.72l-.51,3.62c-.15,1-.31,2-.45,3-.07.48-.11,1-.18,1.46-.14,1-.3,2-.44,3.06s-.3,2-.46,3.05-.27,1.86-.43,2.85H179.73c-.3,0-.48-.07-.52-.38l-.36-2.81h19.79a1.13,1.13,0,0,0,.43-.18c.17-1.23.33-2.46.5-3.69s.37-2.51.55-3.76.36-2.66.55-4,.43-2.87.64-4.3l.45-3.32c.18-1.31.36-2.63.53-3.94.25-1.74.49-3.48.74-5.21.21-1.47.43-2.93.64-4.38s.35-2.66.54-4c.23-1.66.47-3.31.7-5,.19-1.34.37-2.68.56-4l.54-3.81c.19-1.34.37-2.68.55-4,.15-1,.29-2,.43-3.07s.33-2.27.5-3.41c.18-1.31.37-2.62.55-3.93s.36-2.63.54-3.94c.15-1.06.31-2.12.46-3.18.19-1.34.37-2.68.55-4s.37-2.59.55-3.89.36-2.62.55-3.93c.15-1.08.3-2.16.46-3.23.12-.87.23-1.74.38-2.61a1.49,1.49,0,0,0-.34-1c-1.28-2.22-2.59-4.44-3.87-6.66l-.07-.13-.11-.18-.12-.21L199.14,88l-.09-.16h3.83c1.63,2.69,8,13,8.89,14.63.72,1.23,1.4,2.47,2.11,3.7.56,1,1.11,2,1.73,3A1.49,1.49,0,0,1,215.69,110.31Z"/><text class="cls-7" transform="translate(70.3 174.43) rotate(-90)">$NEO</text><text class="cls-7" transform="translate(134.49 167.63) rotate(-90)">$ICX</text><text class="cls-8" transform="translate(197.37 170.12) rotate(-90)">$WAN</text><path class="cls-6" d="M24.19,50.46V28.57h1.24V50.46Zm2.88-21.89V50.46H25.83V28.57h1.24Z"/><path class="cls-6" d="M51.48,45.11a11.69,11.69,0,0,1-1.82,2.36,12,12,0,0,1-2.33,1.83,10.64,10.64,0,0,1-2.73,1.16,11.17,11.17,0,0,1-3,.4A10.8,10.8,0,0,1,37.25,50a11.46,11.46,0,0,1-3.6-2.44,11.79,11.79,0,0,1-2.46-3.61,10.73,10.73,0,0,1-.91-4.42,10.93,10.93,0,0,1,.89-4.36,11.63,11.63,0,0,1,6-6.06,10.66,10.66,0,0,1,4.39-.91,11,11,0,0,1,5.48,1.42,11.33,11.33,0,0,1,4.1,3.86l-1,.65a10.35,10.35,0,0,0-3.72-3.46,10,10,0,0,0-4.84-1.24,9.62,9.62,0,0,0-3.92.81,10.15,10.15,0,0,0-3.2,2.18,10.58,10.58,0,0,0-2.17,3.21,9.45,9.45,0,0,0-.8,3.9,9.57,9.57,0,0,0,.8,3.91,10.4,10.4,0,0,0,2.18,3.23,10.55,10.55,0,0,0,3.21,2.18,9.45,9.45,0,0,0,3.9.8,10,10,0,0,0,2.6-.34,10.09,10.09,0,0,0,4.56-2.62,9.82,9.82,0,0,0,1.62-2.17ZM48.75,35a8.52,8.52,0,0,0-3.1-2.9,8.3,8.3,0,0,0-4-1,8.16,8.16,0,0,0-3.3.68,8.41,8.41,0,0,0-2.69,1.84,8.67,8.67,0,0,0-1.81,2.69,8.43,8.43,0,0,0,0,6.54,8.74,8.74,0,0,0,1.82,2.7,8.46,8.46,0,0,0,2.7,1.8,8.22,8.22,0,0,0,3.26.66,8.47,8.47,0,0,0,4.24-1.13A8.16,8.16,0,0,0,49,43.69L50,44.3a8.3,8.3,0,0,1-1.54,2,10,10,0,0,1-2,1.54,10.39,10.39,0,0,1-2.33,1,9.35,9.35,0,0,1-6.25-.42,9.94,9.94,0,0,1-5.19-5.2,9.58,9.58,0,0,1,0-7.48,10,10,0,0,1,2.08-3.09,9.85,9.85,0,0,1,3.08-2.08,9.37,9.37,0,0,1,3.77-.76A9.21,9.21,0,0,1,46.2,31a11.11,11.11,0,0,1,3.61,3.35Z"/><path class="cls-6" d="M57.31,31.48A11.65,11.65,0,0,1,61,29a11.07,11.07,0,0,1,4.33-.85,10.78,10.78,0,0,1,4.41.91,11.25,11.25,0,0,1,3.61,2.47,12,12,0,0,1,2.42,3.61,10.64,10.64,0,0,1,.89,4.34,10.87,10.87,0,0,1-.89,4.39,11.46,11.46,0,0,1-2.44,3.6,11.23,11.23,0,0,1-3.61,2.44,11.06,11.06,0,0,1-8.74,0,11.74,11.74,0,0,1-3.61-2.42,11.39,11.39,0,0,1-2.45-3.59A10.73,10.73,0,0,1,54,39.5a11.13,11.13,0,0,1,.86-4.34A11.65,11.65,0,0,1,57.31,31.48Zm.87.87A10.09,10.09,0,0,0,56,35.61a9.94,9.94,0,0,0-.77,3.87,9.77,9.77,0,0,0,.8,3.91,10.68,10.68,0,0,0,2.19,3.22,10.31,10.31,0,0,0,3.21,2.18,9.88,9.88,0,0,0,7.79,0,10.31,10.31,0,0,0,3.21-2.18,10.47,10.47,0,0,0,2.18-3.22,9.61,9.61,0,0,0,.81-3.91,9.45,9.45,0,0,0-.81-3.89,10.5,10.5,0,0,0-2.16-3.2,10.08,10.08,0,0,0-3.21-2.18,9.62,9.62,0,0,0-3.92-.81,10,10,0,0,0-3.88.77A10.2,10.2,0,0,0,58.18,32.35Zm7.14-2.54a9.15,9.15,0,0,1,3.74.78,10.39,10.39,0,0,1,3.1,2.09,9.82,9.82,0,0,1,2.09,3.08,9.44,9.44,0,0,1,0,7.47,9.79,9.79,0,0,1-5.19,5.19,9.44,9.44,0,0,1-7.47,0,9.79,9.79,0,0,1-5.19-5.19,9.44,9.44,0,0,1,0-7.47,9.79,9.79,0,0,1,2.08-3.08,10.12,10.12,0,0,1,3.07-2.09A9.26,9.26,0,0,1,65.32,29.81Zm0,1.23a8.14,8.14,0,0,0-3.29.68,8.46,8.46,0,0,0-2.7,1.84,8.82,8.82,0,0,0-1.8,2.69,8.32,8.32,0,0,0,0,6.54,8.57,8.57,0,0,0,1.82,2.7,8.45,8.45,0,0,0,11.91,0,8.57,8.57,0,0,0,1.82-2.7,8.14,8.14,0,0,0,.68-3.29,8,8,0,0,0-.68-3.25,8.88,8.88,0,0,0-1.82-2.69,8.48,8.48,0,0,0-2.68-1.84A8,8,0,0,0,65.32,31Z"/><path class="cls-6" d="M98.91,39.24V38h11.3l0,1.42a11.22,11.22,0,0,1-1.51,5.72,11.44,11.44,0,0,1-4.13,4.19l-.37.18a11.21,11.21,0,0,1-8.3,1,10.6,10.6,0,0,1-2.72-1.15,11.67,11.67,0,0,1-2.31-1.78,10.29,10.29,0,0,1-1.79-2.35l-.22-.36a11,11,0,0,1-1-2.54,11.17,11.17,0,0,1-.33-2.71,11.52,11.52,0,0,1,.4-3,12.17,12.17,0,0,1,1.13-2.73,11.46,11.46,0,0,1,1.77-2.33,11,11,0,0,1,2.35-1.82l.36-.19a11.2,11.2,0,0,1,5.32-1.34h0a11.08,11.08,0,0,1,5.28,1.34l.37.19a12.53,12.53,0,0,1,2.33,1.78l-.88.88a8.87,8.87,0,0,0-1.33-1.12,12.67,12.67,0,0,0-1.54-.89l-.15-.07a9.77,9.77,0,0,0-4-.88h-.08a10,10,0,0,0-4.73,1.17l-.33.18a10,10,0,0,0-3.66,3.63,9.8,9.8,0,0,0-1.37,5.08A10.08,10.08,0,0,0,90,44.23l.18.33a10.15,10.15,0,0,0,3.66,3.7,9.82,9.82,0,0,0,5.08,1.36,9.71,9.71,0,0,0,4.74-1.2l.33-.18a9.81,9.81,0,0,0,3.66-3.66A10,10,0,0,0,109,39.46v-.22H98.91Zm0,1.64V39.64h9.69a7.53,7.53,0,0,1-.11,1.35l0,.11a9.88,9.88,0,0,1-1.13,3.19,9.7,9.7,0,0,1-2.11,2.57,10.14,10.14,0,0,1-2.9,1.71,9.54,9.54,0,0,1-3.41.62,9.28,9.28,0,0,1-3.71-.75,10.09,10.09,0,0,1-3.08-2A9.56,9.56,0,0,1,90,43.34a9.26,9.26,0,0,1-.79-3.84A9,9,0,0,1,90,35.73a10,10,0,0,1,2.09-3.08,9.68,9.68,0,0,1,3.08-2.08,9.29,9.29,0,0,1,3.73-.76H99a11.48,11.48,0,0,1,3.55.69,8.88,8.88,0,0,1,3.22,2.15l-.87.87a8.48,8.48,0,0,0-2.73-1.82A8.24,8.24,0,0,0,99,31h0a8.14,8.14,0,0,0-3.29.68,8.46,8.46,0,0,0-2.7,1.84,8.64,8.64,0,0,0-1.8,2.69,8.21,8.21,0,0,0-.66,3.28,8,8,0,0,0,.68,3.28A8.54,8.54,0,0,0,93,45.49a8.47,8.47,0,0,0,6,2.46,8.35,8.35,0,0,0,5.41-2,8.52,8.52,0,0,0,1.88-2.24,9.13,9.13,0,0,0,1.06-2.88Z"/><path class="cls-6" d="M114.8,50.46h-1.24v-15h1.24v15Zm1.64-14.14a6.16,6.16,0,0,1,1.73-.84,6.45,6.45,0,0,1,1.91-.28v1.24a5,5,0,0,0-3,.9,5.79,5.79,0,0,0-1.93,2.27V35.45h1.24Zm3.64,1.76a3.37,3.37,0,0,0-1.42.29,3.69,3.69,0,0,0-1.93,1.93,3.26,3.26,0,0,0-.29,1.38v8.78H115.2V41.68a4.73,4.73,0,0,1,.38-1.89,4.94,4.94,0,0,1,1-1.53,4.75,4.75,0,0,1,1.55-1,4.69,4.69,0,0,1,1.91-.38Z"/><path class="cls-6" d="M134.18,49a7.61,7.61,0,0,1-4.92,1.74,7.19,7.19,0,0,1-3-.62,8.39,8.39,0,0,1-2.48-1.67A7.91,7.91,0,0,1,122.12,46a7.52,7.52,0,0,1-.62-3,7.44,7.44,0,0,1,.62-3,7.82,7.82,0,0,1,1.69-2.46,8,8,0,0,1,2.48-1.66,7.51,7.51,0,0,1,3-.6,7.6,7.6,0,0,1,4.92,1.71V35.45h1.24v5.21a6.87,6.87,0,0,0-1.5-2.31h0A6.86,6.86,0,0,0,131.83,37a6.28,6.28,0,0,0-2.57-.52,6.49,6.49,0,0,0-2.53.5,6.74,6.74,0,0,0-2.08,1.4,6.67,6.67,0,0,0-1.4,2.09,6.45,6.45,0,0,0-.51,2.55,6.13,6.13,0,0,0,.53,2.57,6.46,6.46,0,0,0,1.42,2.08A6.7,6.7,0,0,0,126.76,49a6.27,6.27,0,0,0,2.5.5,6.62,6.62,0,0,0,2.57-.5,6.3,6.3,0,0,0,2.06-1.43h0a6.85,6.85,0,0,0,1.5-2.33v5.21h-1.24ZM125,47.29a6.43,6.43,0,0,1-1.33-1.95,5.76,5.76,0,0,1-.49-2.38,6,6,0,0,1,.47-2.35,6.34,6.34,0,0,1,1.3-2,6,6,0,0,1,2-1.33,6.17,6.17,0,0,1,4.82,0,6.43,6.43,0,0,1,1.95,1.33,6,6,0,0,1,1.31,2,6,6,0,0,1,0,4.7,6,6,0,0,1-1.31,1.95,6.61,6.61,0,0,1-1.95,1.33,6,6,0,0,1-2.42.49,5.84,5.84,0,0,1-2.37-.48A6.06,6.06,0,0,1,125,47.29Zm.88-.87a4.63,4.63,0,0,0,3.42,1.42,4.86,4.86,0,0,0,1.91-.38,5,5,0,0,0,2.63-2.63,4.77,4.77,0,0,0,.38-1.87,4.82,4.82,0,0,0-.38-1.88,5.12,5.12,0,0,0-1.06-1.57,5,5,0,0,0-1.57-1,4.91,4.91,0,0,0-3.79,0,5,5,0,0,0-1.56,1,5.12,5.12,0,0,0-1.06,1.57,4.82,4.82,0,0,0-.38,1.88,4.94,4.94,0,0,0,.36,1.87A4.42,4.42,0,0,0,125.84,46.42Zm10-11h1.24v15h-1.24Z"/><path class="cls-6" d="M152.32,35.45l-5.32,15h-2l-5.35-15h1.31l.91,2.55,4,11.08h.36l3.68-10.31,1.21-3.32Zm-3.06,0h1.35l-1.17,3.17L146,48.39l-3.75-10.53-.87-2.41h1.31L146,44.71Z"/><path class="cls-6" d="M156.33,44.41a5,5,0,0,0,1.78,2.48,4.72,4.72,0,0,0,2.88,1,4.77,4.77,0,0,0,2.32-.57,5.29,5.29,0,0,0,1.76-1.54l1,.69a6.4,6.4,0,0,1-2.14,1.93,5.82,5.82,0,0,1-2.93.73,5.75,5.75,0,0,1-2.33-.48,6.13,6.13,0,0,1-1.91-1.27,6.34,6.34,0,0,1-1.33-1.88,5.54,5.54,0,0,1-.55-2.27h12.68V43a6.4,6.4,0,0,0-.51-2.54,6.63,6.63,0,0,0-1.4-2.08,6.72,6.72,0,0,0-2.1-1.4,6.7,6.7,0,0,0-5.08,0,6.74,6.74,0,0,0-2.08,1.4,6.67,6.67,0,0,0-1.4,2.09,6.45,6.45,0,0,0-.51,2.55,6.29,6.29,0,0,0,.53,2.57,6.46,6.46,0,0,0,1.42,2.08A6.75,6.75,0,0,0,158.5,49a6.19,6.19,0,0,0,2.49.5,6.54,6.54,0,0,0,5.43-2.87l1,.69A7.84,7.84,0,0,1,161,50.75a7.19,7.19,0,0,1-3-.62,8.22,8.22,0,0,1-2.47-1.67,7.77,7.77,0,0,1-1.7-2.48,7.52,7.52,0,0,1-.62-3,8,8,0,0,1,.58-3,7.48,7.48,0,0,1,1.68-2.51h0A7.59,7.59,0,0,1,158,35.78a7.68,7.68,0,0,1,3-.58,7.4,7.4,0,0,1,3,.62,8,8,0,0,1,2.47,1.67A7.88,7.88,0,0,1,168.17,40a7.45,7.45,0,0,1,.62,3v1.45Zm-1.46-1.67a5.62,5.62,0,0,1,.55-2.28,6.42,6.42,0,0,1,1.33-1.87,6.16,6.16,0,0,1,1.91-1.28,5.91,5.91,0,0,1,2.33-.47,6.14,6.14,0,0,1,2.39.47,6.25,6.25,0,0,1,1.93,1.28,5.8,5.8,0,0,1,1.29,1.87,5.92,5.92,0,0,1,.51,2.28Zm10.82-1.24A5,5,0,0,0,163.91,39a4.78,4.78,0,0,0-2.92-.94,4.64,4.64,0,0,0-3.42,1.42h0a5.38,5.38,0,0,0-1.2,2Z"/><path class="cls-6" d="M181.65,49.62a6.33,6.33,0,0,1-6.1.62,6.46,6.46,0,0,1-2.08-1.4,6.68,6.68,0,0,1-1.42-2.08,6.13,6.13,0,0,1-.53-2.53V35.45h1.24v8.78a5.09,5.09,0,0,0,.42,2.06A5.3,5.3,0,0,0,176,49.1a5.12,5.12,0,0,0,2.06.41,5.07,5.07,0,0,0,3-.92,5.13,5.13,0,0,0,1.88-2.28v4.92a4.57,4.57,0,0,1-.39,1.89,5,5,0,0,1-1,1.53,4.66,4.66,0,0,1-1.53,1,4.9,4.9,0,0,1-1.86.37,4.79,4.79,0,0,1-3.5-1.5l-.29.29A5,5,0,0,0,176,56a5.24,5.24,0,0,0,2.1.44,5.13,5.13,0,0,0,2.06-.42,5.19,5.19,0,0,0,2.75-2.8,5.35,5.35,0,0,0,.4-2V35.45h1.24V51.23a6.23,6.23,0,0,1-.51,2.49,6.52,6.52,0,0,1-3.45,3.45,6.23,6.23,0,0,1-2.49.51,6.59,6.59,0,0,1-2.52-.5,6.3,6.3,0,0,1-2.15-1.47l2.08-2a2.85,2.85,0,0,1,.46.35,2.86,2.86,0,0,0,.71.46,4.09,4.09,0,0,0,1.42.29,3.29,3.29,0,0,0,1.36-.29,3.77,3.77,0,0,0,1.13-.79,3.9,3.9,0,0,0,.79-1.13,3.29,3.29,0,0,0,.29-1.36Zm-8.49-14.17h1.24v8.78a3.46,3.46,0,0,0,.29,1.39,3.79,3.79,0,0,0,.78,1.14,3.86,3.86,0,0,0,1.15.79,3.53,3.53,0,0,0,1.42.29,3.46,3.46,0,0,0,1.39-.29,3.89,3.89,0,0,0,1.93-1.93,3.46,3.46,0,0,0,.29-1.39V35.45h1.24v8.78a4.65,4.65,0,0,1-.39,1.9,5,5,0,0,1-1,1.53,5.21,5.21,0,0,1-1.55,1,4.91,4.91,0,0,1-3.79,0,4.88,4.88,0,0,1-2.59-2.57,4.81,4.81,0,0,1-.38-1.9Z"/><path class="cls-6" d="M200,49a7.58,7.58,0,0,1-4.91,1.74,7.12,7.12,0,0,1-3-.62,8.14,8.14,0,0,1-2.48-1.67,7.94,7.94,0,0,1-1.7-2.48,7.51,7.51,0,0,1-.61-3,7.44,7.44,0,0,1,.61-3,8,8,0,0,1,4.18-4.12,7.44,7.44,0,0,1,3-.6A7.57,7.57,0,0,1,200,36.91V35.45h1.24v5.21a7,7,0,0,0-1.49-2.31h0A6.74,6.74,0,0,0,197.62,37a6.23,6.23,0,0,0-2.56-.52,6.53,6.53,0,0,0-6,4,6.45,6.45,0,0,0-.51,2.55,6.29,6.29,0,0,0,.53,2.57,6.62,6.62,0,0,0,1.42,2.08A6.87,6.87,0,0,0,192.56,49a6.24,6.24,0,0,0,2.5.5,6.57,6.57,0,0,0,2.56-.5,6.2,6.2,0,0,0,2.06-1.43h0a7,7,0,0,0,1.49-2.33v5.21H200Zm-9.21-1.72a6.25,6.25,0,0,1-1.33-1.95,5.77,5.77,0,0,1-.5-2.38,5.85,5.85,0,0,1,.48-2.35,6.31,6.31,0,0,1,1.29-2,6.19,6.19,0,0,1,2-1.33,6.2,6.2,0,0,1,4.83,0,6.43,6.43,0,0,1,2,1.33,6.2,6.2,0,0,1,1.31,2,6.11,6.11,0,0,1,0,4.7,6.2,6.2,0,0,1-1.31,1.95,6.61,6.61,0,0,1-2,1.33,6,6,0,0,1-2.42.49,5.8,5.8,0,0,1-2.37-.48A6,6,0,0,1,190.76,47.29Zm.87-.87a4.67,4.67,0,0,0,3.43,1.42,4.93,4.93,0,0,0,1.91-.38,5.07,5.07,0,0,0,1.56-1.06,4.84,4.84,0,0,0,1.06-1.57A4.6,4.6,0,0,0,200,43a4.65,4.65,0,0,0-.38-1.88,5,5,0,0,0-1.06-1.57,5,5,0,0,0-1.56-1,4.76,4.76,0,0,0-1.91-.38,4.61,4.61,0,0,0-1.88.38,5,5,0,0,0-1.57,1,4.92,4.92,0,0,0-1.05,1.57,4.66,4.66,0,0,0-.39,1.88,4.76,4.76,0,0,0,.37,1.87A4.39,4.39,0,0,0,191.63,46.42Zm10-11h1.24v15h-1.24Z"/><path class="cls-6" d="M207.37,50.46h-1.24v-15h1.24v15ZM209,36.32a6.16,6.16,0,0,1,1.73-.84,6.49,6.49,0,0,1,1.91-.28v1.24a5,5,0,0,0-3,.9,5.79,5.79,0,0,0-1.93,2.27V35.45H209Zm3.64,1.76a3.37,3.37,0,0,0-1.42.29,3.66,3.66,0,0,0-1.15.78,3.83,3.83,0,0,0-.78,1.15,3.41,3.41,0,0,0-.29,1.38v8.78h-1.24V41.68a4.73,4.73,0,0,1,.38-1.89,4.94,4.94,0,0,1,1-1.53,4.75,4.75,0,0,1,1.55-1,4.69,4.69,0,0,1,1.91-.38Z"/><path class="cls-6" d="M226.75,49a7.54,7.54,0,0,1-4.88,1.74,7.28,7.28,0,0,1-3-.62A8.16,8.16,0,0,1,214.69,46a7.36,7.36,0,0,1-.62-3,7.44,7.44,0,0,1,.62-3,7.95,7.95,0,0,1,4.15-4.13,7.4,7.4,0,0,1,3-.62,7.55,7.55,0,0,1,4.88,1.71l0-8.34H228V40.66a6.3,6.3,0,0,0-.93-1.68,6.56,6.56,0,0,0-1.43-1.35,6.46,6.46,0,0,0-1.78-.89,6.73,6.73,0,0,0-2-.3,6.28,6.28,0,0,0-2.57.52,6.86,6.86,0,0,0-2.08,1.42,6.45,6.45,0,0,0-1.41,2.07,6.32,6.32,0,0,0-.51,2.53,6.39,6.39,0,0,0,.51,2.56,6.82,6.82,0,0,0,1.4,2.07,6.72,6.72,0,0,0,2.1,1.4,6.44,6.44,0,0,0,2.55.5A6.51,6.51,0,0,0,228,45.25v5.21h-1.24Zm-4.88.07a6.14,6.14,0,0,1-2.41-.48,5.83,5.83,0,0,1-2-1.31,6.5,6.5,0,0,1-1.29-1.95,6.09,6.09,0,0,1-.47-2.38,6.18,6.18,0,0,1,.45-2.35,6.11,6.11,0,0,1,1.28-2,6.1,6.1,0,0,1,4.39-1.82,5.76,5.76,0,0,1,2.38.49,6.55,6.55,0,0,1,1.95,1.31,5.83,5.83,0,0,1,1.31,2,6.11,6.11,0,0,1-5.64,8.49Zm0-1.24a4.81,4.81,0,0,0,1.87-.38,5.19,5.19,0,0,0,1.56-1A4.82,4.82,0,0,0,226.75,43a4.62,4.62,0,0,0-.4-1.92,5.25,5.25,0,0,0-1-1.54,4.81,4.81,0,0,0-1.54-1,4.63,4.63,0,0,0-1.87-.38,4.57,4.57,0,0,0-1.87.38,4.82,4.82,0,0,0-1.56,1,5.15,5.15,0,0,0-1.07,1.57A4.5,4.5,0,0,0,217,43a4.57,4.57,0,0,0,.4,1.91,4.83,4.83,0,0,0,1.07,1.55,5,5,0,0,0,1.56,1A4.74,4.74,0,0,0,221.89,47.84ZM228.43,43V28.57h1.23V50.46h-1.27Z"/><path class="cls-6" d="M50.79,223.5a5.15,5.15,0,0,1-1.45-3.68,5.1,5.1,0,0,1,.43-2.08A5.59,5.59,0,0,1,51,216a5.74,5.74,0,0,1,1.73-1.17,5.1,5.1,0,0,1,2.08-.43,4.93,4.93,0,0,1,2,.43A5.82,5.82,0,0,1,58.54,216a5.56,5.56,0,0,1,1.18,1.71,5.11,5.11,0,0,1,.44,2.08,5.16,5.16,0,0,1-1.46,3.68,7.08,7.08,0,0,1,2.55,2.69,7.29,7.29,0,0,1,.91,3.54,7,7,0,0,1-.58,2.86A7.65,7.65,0,0,1,60,234.92a7.52,7.52,0,0,1-2.36,1.58,7.2,7.2,0,0,1-5.71,0,8.08,8.08,0,0,1-2.36-1.56,7.2,7.2,0,0,1-2.19-5.21,7.5,7.5,0,0,1,.89-3.54A7.1,7.1,0,0,1,50.79,223.5Zm4,12.35a5.93,5.93,0,0,0,2.38-.49,6.38,6.38,0,0,0,3.28-3.27,5.76,5.76,0,0,0,.49-2.38,6,6,0,0,0-1.36-3.83,6.8,6.8,0,0,0-1.48-1.35,5.62,5.62,0,0,0-1.87-.78,4.15,4.15,0,0,0,2-1.49,4.07,4.07,0,0,0,.76-2.44,3.91,3.91,0,0,0-.33-1.62,4.27,4.27,0,0,0-.89-1.32,4.4,4.4,0,0,0-1.31-.89,4.17,4.17,0,0,0-3.25,0,4.63,4.63,0,0,0-1.33.89,4.16,4.16,0,0,0-.91,1.32,3.91,3.91,0,0,0-.33,1.62,4,4,0,0,0,.78,2.44,4.34,4.34,0,0,0,2,1.49,5.67,5.67,0,0,0-1.88.78,6.9,6.9,0,0,0-1.5,1.35,5.82,5.82,0,0,0-1,1.76,5.92,5.92,0,0,0-.35,2.07,5.76,5.76,0,0,0,.49,2.38,6.38,6.38,0,0,0,3.28,3.27A6,6,0,0,0,54.77,235.85Zm0-.4a5.54,5.54,0,0,1-2.24-.46,5.72,5.72,0,0,1-1.81-1.22A6,6,0,0,1,49.5,232a5.6,5.6,0,0,1-.45-2.24,5.53,5.53,0,0,1,.45-2.24,5.71,5.71,0,0,1,3-3,5.53,5.53,0,0,1,2.24-.45,5.6,5.6,0,0,1,2.24.45,6,6,0,0,1,1.8,1.22A5.72,5.72,0,0,1,60,227.49a5.54,5.54,0,0,1,.46,2.24A5.61,5.61,0,0,1,60,232a5.76,5.76,0,0,1-3,3A5.61,5.61,0,0,1,54.77,235.45Zm0-10.2a4.22,4.22,0,0,0-1.75.36,4.78,4.78,0,0,0-1.42,1,4.42,4.42,0,0,0-1,1.42,4.38,4.38,0,0,0-.34,1.73,4.17,4.17,0,0,0,.36,1.74,4.88,4.88,0,0,0,1,1.43,4.43,4.43,0,0,0,1.44,1,4.38,4.38,0,0,0,1.73.35,4.32,4.32,0,0,0,1.71-.35,4.57,4.57,0,0,0,1.42-1,4.85,4.85,0,0,0,1-1.43,4.17,4.17,0,0,0,.37-1.74,4.23,4.23,0,0,0-.37-1.73,4.58,4.58,0,0,0-2.38-2.39,4.29,4.29,0,0,0-1.73-.36Zm.05-1.68a3.8,3.8,0,0,1-1.46-.29,3.89,3.89,0,0,1-1.21-.81A3.88,3.88,0,0,1,51,219.8a3.55,3.55,0,0,1,.3-1.45,3.84,3.84,0,0,1,.8-1.19,3.7,3.7,0,0,1,1.21-.8,3.63,3.63,0,0,1,1.46-.3,3.52,3.52,0,0,1,1.45.3,3.72,3.72,0,0,1,1.19.8,3.84,3.84,0,0,1,.8,1.19,3.55,3.55,0,0,1,.3,1.45,3.63,3.63,0,0,1-.3,1.46,3.62,3.62,0,0,1-2,2A3.85,3.85,0,0,1,54.78,223.57Zm0-1.24a2.44,2.44,0,0,0,1.74-.73,2.36,2.36,0,0,0,.77-1.78,2.64,2.64,0,0,0-2.51-2.52,2.38,2.38,0,0,0-1.79.77,2.44,2.44,0,0,0-.73,1.75,2.49,2.49,0,0,0,2.48,2.51Z"/><path class="cls-6" d="M64.13,216.06v-1.23H77.28l-1.13,2.11a53,53,0,0,0-4,9.62A57,57,0,0,0,70,236.72H68.68l.18-1.24a63.49,63.49,0,0,1,2.28-9.8,56.28,56.28,0,0,1,3.92-9.29l.14-.33Zm0,1.64v-1.23H74.47l-.83,1.78a49.53,49.53,0,0,0-3.28,8.45,68,68,0,0,0-1.9,8.78l-.18,1.24H67A64.7,64.7,0,0,1,69,227a58.92,58.92,0,0,1,3.52-9.31Z"/><path class="cls-6" d="M83.58,217.67l-1,5.21a8.58,8.58,0,0,1,2.91-.51,8.09,8.09,0,0,1,3,.56,7.1,7.1,0,0,1,2.38,1.59,7.64,7.64,0,0,1,1.59,2.38,7.38,7.38,0,0,1,.58,2.94,6.93,6.93,0,0,1-.6,2.84,7.89,7.89,0,0,1-1.6,2.35,7.59,7.59,0,0,1-2.35,1.58,7.3,7.3,0,0,1-5,.26,7.58,7.58,0,0,1-2-.93,7.26,7.26,0,0,1-2.73-3.34l1.13-.47a7,7,0,0,0,2.29,2.79,5.75,5.75,0,0,0,3.42,1,5.82,5.82,0,0,0,2.39-.5,6.38,6.38,0,0,0,3.28-3.27,5.76,5.76,0,0,0,.49-2.35,7.15,7.15,0,0,0-.36-2.21,5.92,5.92,0,0,0-1.13-2,5.8,5.8,0,0,0-2-1.46,6.67,6.67,0,0,0-2.88-.56A8.29,8.29,0,0,0,83,224a5,5,0,0,0-2.13,1.24c.21-1.44.48-2.91.78-4.39s.6-3,.89-4.43H91v1.24Zm6.2-1.61H82.2c-.29,1.6-.59,3.17-.89,4.72s-.61,3.11-.9,4.68l.28.13a1.71,1.71,0,0,1,.23.13,6.8,6.8,0,0,1,2.13-1.28,7.08,7.08,0,0,1,2.46-.43,6.32,6.32,0,0,1,2.39.43A5.47,5.47,0,0,1,91,227.52a6.14,6.14,0,0,1,.43,2.32A5.48,5.48,0,0,1,91,232a5.91,5.91,0,0,1-3.06,3.06,5.49,5.49,0,0,1-2.21.45,5.79,5.79,0,0,1-3.2-1A5.15,5.15,0,0,1,80.38,232l1.13-.44,0,.07a4.23,4.23,0,0,0,1.66,2,4.51,4.51,0,0,0,4.23.4,4.35,4.35,0,0,0,1.42-1,5,5,0,0,0,1-1.43,4.17,4.17,0,0,0,.37-1.74,5.49,5.49,0,0,0-.26-1.63,4.39,4.39,0,0,0-.8-1.47,4,4,0,0,0-1.44-1.08,5.25,5.25,0,0,0-2.17-.41,6.34,6.34,0,0,0-2.09.36,4.23,4.23,0,0,0-1.77,1.17l-.44.47L79,226.16l2.15-11.33H91v1.23Z"/><path class="cls-6" d="M110.79,239.6h-1.23V237a7.19,7.19,0,0,1-2.92-1.22,6.64,6.64,0,0,1-2-2.31l1.09-.58a5.49,5.49,0,0,0,2,2.16,5.57,5.57,0,0,0,3,.82h.1Zm-3.64-7.51a3.59,3.59,0,0,0,1,1.22,5,5,0,0,0,1.41.75v-8.6a18.05,18.05,0,0,1-1.64-.92,6.34,6.34,0,0,1-1.32-1.13,4.81,4.81,0,0,1-.85-1.48,5.58,5.58,0,0,1-.31-2,5.33,5.33,0,0,1,1.15-3.37,5.54,5.54,0,0,1,3-2v-2.7h1.23v3.75a4.44,4.44,0,0,0-2.89,1.3,3.83,3.83,0,0,0-.89,1.35,4.19,4.19,0,0,0-.33,1.65,4,4,0,0,0,.34,1.75,4.51,4.51,0,0,0,.91,1.28,5.82,5.82,0,0,0,1.32.94c.49.27,1,.53,1.54.77v10.75h-.1a5.2,5.2,0,0,1-2.74-.75,5,5,0,0,1-1.89-2Zm3.64-7.86c-.48-.22-1-.45-1.4-.7a5.16,5.16,0,0,1-1.18-.85,3.77,3.77,0,0,1-.82-1.15,3.61,3.61,0,0,1-.31-1.57,3.86,3.86,0,0,1,1.09-2.71,3.62,3.62,0,0,1,1.19-.82,4.21,4.21,0,0,1,1.43-.33Zm-1.23-6.53a3.32,3.32,0,0,0-.9,1,2.44,2.44,0,0,0-.34,1.29,2.28,2.28,0,0,0,.34,1.31,3.57,3.57,0,0,0,.9.92Zm1.67-5.79h1.24v2.73a5.42,5.42,0,0,1,1.57.71,5.67,5.67,0,0,1,1.24,1.15l-1,.77a4.15,4.15,0,0,0-3.1-1.61Zm1.24,11.7a21.61,21.61,0,0,1,2,1.07,7.18,7.18,0,0,1,1.64,1.33,5.48,5.48,0,0,1,1.07,1.77,6.67,6.67,0,0,1,.39,2.42,6.94,6.94,0,0,1-1.42,4.17,7.55,7.55,0,0,1-1.64,1.55,6.65,6.65,0,0,1-2.08,1v2.73h-1.24v-3.75a5.7,5.7,0,0,0,2-.59,5.3,5.3,0,0,0,1.62-1.24,5.84,5.84,0,0,0,1.1-1.74,5.62,5.62,0,0,0,.4-2.08,5.14,5.14,0,0,0-.44-2.22,5,5,0,0,0-1.15-1.57,6.37,6.37,0,0,0-1.6-1.09c-.59-.29-1.2-.57-1.8-.84l-.15-.07V216.1a3.8,3.8,0,0,1,2.77,1.42l-1,.77-.27-.28a1.92,1.92,0,0,0-.31-.23Zm-1.24,1.27,1.73.82a6.26,6.26,0,0,1,1.51,1,4.86,4.86,0,0,1,1.08,1.44,4.52,4.52,0,0,1,.42,2,4.86,4.86,0,0,1-.37,1.89,5.21,5.21,0,0,1-1,1.63,5.53,5.53,0,0,1-1.51,1.16,4.66,4.66,0,0,1-1.84.53Zm1.24,8.93a3.76,3.76,0,0,0,1.64-1.5,4,4,0,0,0,.62-2.11,3.12,3.12,0,0,0-.66-2.11,5.48,5.48,0,0,0-1.6-1.28Z"/><path class="cls-6" d="M120.34,214.83h6.45a10.48,10.48,0,0,1,4.2.85,11.13,11.13,0,0,1,3.48,2.33,11.47,11.47,0,0,1,2.39,3.48,10.73,10.73,0,0,1,0,8.51,11.31,11.31,0,0,1-2.37,3.48,11.51,11.51,0,0,1-3.5,2.37,10.45,10.45,0,0,1-4.22.87h-6.45Zm1.24,1.23v19.42h5.21a9.41,9.41,0,0,0,3.77-.76,9.9,9.9,0,0,0,5.19-5.18,9.37,9.37,0,0,0,.76-3.77,9.21,9.21,0,0,0-.78-3.76,9.94,9.94,0,0,0-5.21-5.18,9.3,9.3,0,0,0-3.73-.77Zm.4.41h4.82a9,9,0,0,1,3.6.74,9.86,9.86,0,0,1,3,2,9,9,0,0,1,2,2.95,8.9,8.9,0,0,1,.73,3.59,9,9,0,0,1-.73,3.62,9.14,9.14,0,0,1-2,3,9.86,9.86,0,0,1-3,2,9,9,0,0,1-3.6.74H122Zm1.24,1.23v16.14h3.57a7.82,7.82,0,0,0,3.11-.63,8.22,8.22,0,0,0,2.57-1.74,8.37,8.37,0,0,0,1.75-2.56,7.66,7.66,0,0,0,.65-3.15,7.52,7.52,0,0,0-.65-3.14,8.45,8.45,0,0,0-1.77-2.55,8.55,8.55,0,0,0-2.57-1.73,7.7,7.7,0,0,0-3.09-.64Z"/><path class="cls-6" d="M143.14,229.14v7.58h-1.23V227.9h4.29a5.51,5.51,0,0,0,2.28-.47,6.11,6.11,0,0,0,1.88-1.27,5.93,5.93,0,0,0,1.27-1.89,5.6,5.6,0,0,0,.48-2.29,5.42,5.42,0,0,0-.48-2.23,6.41,6.41,0,0,0-1.27-1.89,6.2,6.2,0,0,0-1.88-1.3,5.38,5.38,0,0,0-2.28-.5h-4.7v20.66h-1.23V214.83h5.93a6.7,6.7,0,0,1,2.75.56,7.36,7.36,0,0,1,3.83,3.83,7,7,0,0,1,0,5.5,7.27,7.27,0,0,1-1.55,2.27,7.42,7.42,0,0,1-2.28,1.57,6.55,6.55,0,0,1-2.75.58Zm-1.23-12.67h4.29a5.17,5.17,0,0,1,2.14.45,5.93,5.93,0,0,1,1.74,1.2,5.59,5.59,0,0,1,1.19,1.75,5.32,5.32,0,0,1,0,4.19,5.59,5.59,0,0,1-1.19,1.75,5.75,5.75,0,0,1-1.74,1.2,5,5,0,0,1-2.14.46h-4.29Zm1.23,1.23v8.53h3.06a3.92,3.92,0,0,0,1.64-.35,4.65,4.65,0,0,0,1.35-.91,4.25,4.25,0,0,0,1.28-3,3.92,3.92,0,0,0-.35-1.64,4.52,4.52,0,0,0-2.28-2.28,3.92,3.92,0,0,0-1.64-.35Z"/><path class="cls-6" d="M158.59,217.74a11.65,11.65,0,0,1,3.68-2.46,11.07,11.07,0,0,1,4.33-.85,10.78,10.78,0,0,1,4.41.91,11.25,11.25,0,0,1,3.61,2.47,12,12,0,0,1,2.42,3.61,10.64,10.64,0,0,1,.89,4.34,10.87,10.87,0,0,1-.89,4.39,11.5,11.5,0,0,1-6,6,11.06,11.06,0,0,1-8.74,0,11.74,11.74,0,0,1-3.61-2.42,11.5,11.5,0,0,1-2.45-3.59,10.77,10.77,0,0,1-.92-4.42,11.13,11.13,0,0,1,.86-4.34A11.65,11.65,0,0,1,158.59,217.74Zm.87.87a10.15,10.15,0,0,0-2.18,3.25,10,10,0,0,0-.77,3.88,9.77,9.77,0,0,0,.8,3.91,10.68,10.68,0,0,0,2.19,3.22,10.48,10.48,0,0,0,3.21,2.18,9.88,9.88,0,0,0,7.79,0,10.6,10.6,0,0,0,3.21-2.18,10.47,10.47,0,0,0,2.18-3.22,9.61,9.61,0,0,0,.81-3.91,9.45,9.45,0,0,0-.81-3.89,10.38,10.38,0,0,0-2.16-3.2,10.08,10.08,0,0,0-3.21-2.18,9.62,9.62,0,0,0-3.92-.81,10.07,10.07,0,0,0-7.14,3Zm7.14-2.55a9.16,9.16,0,0,1,3.74.79,10.21,10.21,0,0,1,3.09,2.09,9.68,9.68,0,0,1,2.1,3.08,9.56,9.56,0,0,1,0,7.47,9.88,9.88,0,0,1-5.19,5.19,9.44,9.44,0,0,1-7.47,0,9.79,9.79,0,0,1-5.19-5.19,9.44,9.44,0,0,1,0-7.47,9.79,9.79,0,0,1,2.08-3.08,10.12,10.12,0,0,1,3.07-2.09A9.26,9.26,0,0,1,166.6,216.06Zm0,1.24a8.14,8.14,0,0,0-3.29.68,8.57,8.57,0,0,0-2.7,1.84,8.7,8.7,0,0,0-1.8,2.69,8.32,8.32,0,0,0,0,6.54,8.57,8.57,0,0,0,1.82,2.7,8.47,8.47,0,0,0,2.69,1.8,8.41,8.41,0,0,0,6.53,0,8.47,8.47,0,0,0,2.69-1.8,8.57,8.57,0,0,0,1.82-2.7,8.14,8.14,0,0,0,.68-3.29,8,8,0,0,0-.68-3.25,8.75,8.75,0,0,0-1.82-2.69,8.48,8.48,0,0,0-2.68-1.84A8,8,0,0,0,166.6,217.3Z"/><path class="cls-6" d="M191.78,236.72h-11V214.83H182v20.65h9.8Zm0-1.64h-9.4V214.83h1.24v19h8.16v1.24Z"/><path class="cls-6" d="M197.2,236.72V226.48l-8.08-11.65h1.49l7.83,11.25v10.64Zm-4.59-21.89.62.83,5.43,7.84,6.05-8.67h1.49l-7.54,10.82-5.9-8.49-1.64-2.33Zm7.51,19v2.88h-1.24V226.08l5.61-8.12,2.22-3.13h1.5L206,217.92l-5.9,8.56Z"/></g></g></svg>