<svg xmlns="http://www.w3.org/2000/svg" viewBox="0 0 253.51 253.51"><defs><style>.cls-1{fill:#cfe7d7;stroke-width:5px;}.cls-1,.cls-3{stroke:#000;}.cls-2{fill:#946538;}.cls-11,.cls-12,.cls-17,.cls-3{fill:none;}.cls-4{fill:#f15a29;}.cls-4,.cls-5,.cls-6,.cls-7,.cls-8,.cls-9{stroke:#231f20;stroke-miterlimit:10;}.cls-13,.cls-5,.cls-9{fill:#fff;}.cls-6{fill:#009444;}.cls-19,.cls-20,.cls-7{fill:#231f20;}.cls-7,.cls-8,.cls-9{stroke-width:2px;}.cls-8{fill:#a46d5e;}.cls-10{fill:#a8aecf;}.cls-11{stroke:#f9a876;}.cls-11,.cls-12,.cls-17{stroke-linecap:round;}.cls-11,.cls-17{stroke-miterlimit:62.5;}.cls-12{stroke:#535671;stroke-linejoin:round;opacity:0.4;}.cls-12,.cls-14,.cls-19{isolation:isolate;}.cls-14,.cls-15{fill:#3a3d54;}.cls-14{opacity:0.1;}.cls-16{fill:#f05866;}.cls-17{stroke:#603913;}.cls-18{fill:#535671;}.cls-19{opacity:0.5;}</style></defs><g id="Layer_2" data-name="Layer 2"><g id="Layer_1-2" data-name="Layer 1"><rect class="cls-1" x="2.5" y="2.5" width="248.51" height="248.51"/><rect class="cls-2" x="8.36" y="8.36" width="236.8" height="62.45"/><rect class="cls-3" x="8.36" y="8.36" width="236.8" height="62.45"/><rect class="cls-4" x="64.76" y="112.45" width="118.86" height="22.58"/><rect class="cls-5" x="64.76" y="135.04" width="118.86" height="22.58"/><rect class="cls-6" x="64.76" y="157.62" width="118.86" height="22.58"/><path class="cls-7" d="M153.79,100.13c-8.52-7.84-17.46-11.76-25.88-12.67h-.26l-1-.09h-5.37l-1,.09H120c-8.42.91-17.36,4.83-25.87,12.67a19.48,19.48,0,0,0-5.46,12.51v23.63c0,19.46,70.54,19.46,70.54,0V112.64A19.55,19.55,0,0,0,153.79,100.13Z"/><circle class="cls-8" cx="153.76" cy="137.78" r="8.65"/><path class="cls-9" d="M124,207.31a65.16,65.16,0,0,0,43.43-16.48l-2.4-5.9c-1.86-4.37-6.78-7.25-12.32-7.25H95.24c-5.53,0-10.45,2.91-12.32,7.25l-2.4,5.9A65.16,65.16,0,0,0,124,207.31Z"/><polygon class="cls-10" points="134.86 180.96 113.04 180.96 112.19 174.98 135.72 174.98 134.86 180.96"/><line class="cls-11" x1="123.95" y1="164.31" x2="123.95" y2="179.32"/><path class="cls-10" d="M124,207.26H125v-19.7a1.09,1.09,0,0,0-2.18,0V207.2Z"/><circle class="cls-8" cx="94.14" cy="137.78" r="8.65"/><path class="cls-8" d="M124,174.81a30.88,30.88,0,0,1-30.9-30.88V130.14a30.91,30.91,0,0,1,61.81,0h0v13.77A30.89,30.89,0,0,1,124,174.81Z"/><line class="cls-12" x1="135.29" y1="129.67" x2="145.78" y2="129.39"/><line class="cls-12" x1="111.95" y1="129.67" x2="101.46" y2="129.39"/><path class="cls-13" d="M124,184.56A12,12,0,0,1,112.19,175a12.16,12.16,0,0,0-.24,2.41,12,12,0,0,0,24,0,13.86,13.86,0,0,0-.24-2.41A12,12,0,0,1,124,184.56Z"/><path class="cls-14" d="M124,184.56A12,12,0,0,1,112.19,175a12.16,12.16,0,0,0-.24,2.41,12,12,0,0,0,24,0,13.86,13.86,0,0,0-.24-2.41A12,12,0,0,1,124,184.56Z"/><path class="cls-15" d="M132.19,154.82a1.09,1.09,0,0,1,1.09,1.09V156a9.33,9.33,0,0,1-18.55,0,1.09,1.09,0,0,1,1-1.16h16.44Z"/><path class="cls-16" d="M124,164.22a9.31,9.31,0,0,0,6.87-3.05,9.9,9.9,0,0,0-13.73,0A9.29,9.29,0,0,0,124,164.22Z"/><path class="cls-15" d="M124,165.83a9.12,9.12,0,0,1-3.53-.71.55.55,0,0,0-.65.82l2.49,3.72a2,2,0,0,0,2.81.57,1.94,1.94,0,0,0,.57-.57l2.49-3.72a.55.55,0,0,0-.14-.76.56.56,0,0,0-.5-.06A9.13,9.13,0,0,1,124,165.83Z"/><path class="cls-13" d="M117.4,154.82h5.46V157h-3.27a2.18,2.18,0,0,1-2.19-2.18Z"/><path class="cls-13" d="M125,154.82h5.46a2.18,2.18,0,0,1-2.18,2.18H125v-2.18Z"/><path class="cls-15" d="M123.47,151.69h0a2.82,2.82,0,0,1-2.3,3.27h0l-2.55.41A20.8,20.8,0,0,1,103.66,152l16.58-2.66A2.84,2.84,0,0,1,123.47,151.69Z"/><path class="cls-15" d="M124.43,151.69h0a2.84,2.84,0,0,0,2.3,3.27h0l2.54.41A20.8,20.8,0,0,0,144.24,152l-16.58-2.66A2.84,2.84,0,0,0,124.43,151.69Z"/><circle class="cls-15" cx="139.23" cy="136.52" r="3.27"/><circle class="cls-15" cx="108.67" cy="136.52" r="3.27"/><line class="cls-17" x1="123.95" y1="138.12" x2="123.95" y2="147.4"/><circle class="cls-18" cx="128.32" cy="195.14" r="1.64"/><circle class="cls-18" cx="128.32" cy="202.78" r="1.64"/><path class="cls-7" d="M154.77,111.17a13.73,13.73,0,0,0-5.31-8.73l-.41-.44v-.71C149.05,92.86,137.81,86,124,86s-25.1,6.84-25.1,15.33a8,8,0,0,0,.07,1.09h0a13.71,13.71,0,0,0-5.31,8.73l-3,18.72,2.45,9.9s1.09-27.68,11.61-27.64a10.91,10.91,0,0,0,1.51-.07,37,37,0,0,0,35.62,0,13.74,13.74,0,0,0,1.92.11c10.57,0,11.63,27.64,11.63,27.64l2.44-9.9Z"/><path class="cls-19" d="M130.11,176.65a34.87,34.87,0,0,1-12.31,0c-1.42,0-2.58-1.65-2.58-3.61v-.76a52.74,52.74,0,0,0,17.46,0v.82C132.68,175,131.52,176.65,130.11,176.65Z"/><path class="cls-20" d="M26.48,48.19V26.29h1.24v21.9Zm2.88-21.9v21.9H28.12V26.29h1.24Z"/><path class="cls-20" d="M34.35,48.19H33.11v-15h1.24v15ZM36,34.05a5.93,5.93,0,0,1,1.73-.85,6.84,6.84,0,0,1,1.91-.28,6.25,6.25,0,0,1,2.5.51,6.55,6.55,0,0,1,2.07,1.39,6.32,6.32,0,0,1,1.92,4.59v8.78H44.88V39.43a4.89,4.89,0,0,0-.42-2,5.71,5.71,0,0,0-1.13-1.68,5.34,5.34,0,0,0-1.66-1.14,5.24,5.24,0,0,0-5,.48,5.86,5.86,0,0,0-1.93,2.27V33.18H36Zm8.49,14.14H43.24V39.41A3.46,3.46,0,0,0,43,38,3.79,3.79,0,0,0,41,36.09a3.46,3.46,0,0,0-1.39-.29,3.53,3.53,0,0,0-1.42.29A3.69,3.69,0,0,0,36.28,38,3.46,3.46,0,0,0,36,39.41v8.78H34.75V39.41a4.81,4.81,0,0,1,.38-1.9,5.24,5.24,0,0,1,1-1.53,5,5,0,0,1,1.55-1,4.9,4.9,0,0,1,1.91-.38,4.82,4.82,0,0,1,1.88.38,5,5,0,0,1,1.55,1,5.24,5.24,0,0,1,1,1.53,4.81,4.81,0,0,1,.38,1.9Z"/><path class="cls-20" d="M61.24,46.73a7.52,7.52,0,0,1-4.89,1.75,7.39,7.39,0,0,1-3-.62,8.14,8.14,0,0,1-2.48-1.69,8.27,8.27,0,0,1-1.69-2.48,7.28,7.28,0,0,1-.62-3,7.2,7.2,0,0,1,.62-3,7.92,7.92,0,0,1,4.15-4.14,7.78,7.78,0,0,1,7.91,1.09l0-8.34h1.24v12.1a6.15,6.15,0,0,0-.93-1.68,6.84,6.84,0,0,0-1.43-1.36,6.49,6.49,0,0,0-1.79-.88,6.37,6.37,0,0,0-2-.31,6.29,6.29,0,0,0-2.57.53,7,7,0,0,0-2.09,1.41,6.74,6.74,0,0,0-1.4,2.08,6.24,6.24,0,0,0-.51,2.52,6.51,6.51,0,0,0,4,6,6.52,6.52,0,0,0,2.55.51A6.48,6.48,0,0,0,62.47,43v5.21H61.24Zm-4.89.07a6.22,6.22,0,0,1-2.4-.47A6,6,0,0,1,52,45a6.14,6.14,0,0,1-1.29-2,6,6,0,0,1-.48-2.39,6.23,6.23,0,0,1,.46-2.35A6.09,6.09,0,0,1,52,36.38a6.36,6.36,0,0,1,1.95-1.33,6.22,6.22,0,0,1,2.44-.49,6,6,0,0,1,2.39.49,6.75,6.75,0,0,1,1.95,1.31,5.83,5.83,0,0,1,1.31,2,6,6,0,0,1,.47,2.37A6,6,0,0,1,62,43.07a6,6,0,0,1-1.31,2,6.06,6.06,0,0,1-4.34,1.78Zm0-1.24a4.57,4.57,0,0,0,1.87-.38,5,5,0,0,0,1.56-1,4.58,4.58,0,0,0,1.05-1.54,4.78,4.78,0,0,0,.39-1.92,4.7,4.7,0,0,0-.4-1.91,5.27,5.27,0,0,0-1.06-1.55,4.87,4.87,0,0,0-1.54-1,4.74,4.74,0,0,0-1.87-.38,4.81,4.81,0,0,0-1.87.38,5.07,5.07,0,0,0-1.56,1.06,5.2,5.2,0,0,0-1.07,1.57,4.62,4.62,0,0,0-.4,1.87,4.78,4.78,0,0,0,.4,1.92,5,5,0,0,0,1.07,1.54,5,5,0,0,0,1.56,1A4.63,4.63,0,0,0,56.37,45.56Zm6.54-4.88V26.29h1.24v21.9H62.88Z"/><path class="cls-20" d="M68.89,26.11a1.71,1.71,0,0,1,1.25.52,1.74,1.74,0,0,1,0,2.5,1.74,1.74,0,0,1-1.25.51,1.68,1.68,0,0,1-1.24-.51,1.79,1.79,0,0,1,0-2.5A1.65,1.65,0,0,1,68.89,26.11ZM67.47,48.19v-15H68.7v15Zm1.42-21.13a.75.75,0,0,0-.55.23.8.8,0,0,0-.22.57.78.78,0,0,0,.22.56.72.72,0,0,0,.55.24.77.77,0,0,0,.56-.24.76.76,0,0,0,.24-.56.78.78,0,0,0-.24-.57A.8.8,0,0,0,68.89,27.06Zm0,.43c.26,0,.4.13.4.37s-.14.36-.4.36a.32.32,0,0,1-.37-.36A.33.33,0,0,1,68.89,27.49Zm.21,5.69h1.24v15H69.1Z"/><path class="cls-20" d="M85.72,46.73a7.58,7.58,0,0,1-4.92,1.75,7.28,7.28,0,0,1-3-.62,8.11,8.11,0,0,1-2.48-1.68,7.86,7.86,0,0,1-1.69-2.47,7.74,7.74,0,0,1,0-6.07,7.94,7.94,0,0,1,1.69-2.46,8.06,8.06,0,0,1,2.48-1.66,7.44,7.44,0,0,1,3-.6,7.6,7.6,0,0,1,4.92,1.71V33.18H87v5.21a6.92,6.92,0,0,0-1.5-2.31h0a6.89,6.89,0,0,0-2.06-1.4,6.45,6.45,0,0,0-2.57-.52,6.32,6.32,0,0,0-2.53.51,6.63,6.63,0,0,0-2.08,1.4,6.55,6.55,0,0,0-1.91,4.63,6.21,6.21,0,0,0,.53,2.58,6.41,6.41,0,0,0,1.42,2.07,6.7,6.7,0,0,0,2.07,1.38,6.25,6.25,0,0,0,2.5.51,6.44,6.44,0,0,0,2.57-.51,6.28,6.28,0,0,0,2.06-1.42h0A7.11,7.11,0,0,0,87,43v5.21H85.72ZM76.5,45a6.43,6.43,0,0,1-1.33-2,5.81,5.81,0,0,1-.49-2.39,6,6,0,0,1,.47-2.35,6.34,6.34,0,0,1,1.3-1.95,6,6,0,0,1,4.35-1.82,6,6,0,0,1,2.42.49,6.61,6.61,0,0,1,2,1.33,6,6,0,0,1,1.31,1.95,6,6,0,0,1,0,4.7A6,6,0,0,1,85.17,45a6.43,6.43,0,0,1-2,1.33,5.88,5.88,0,0,1-2.42.49,6,6,0,0,1-2.37-.47A6.22,6.22,0,0,1,76.5,45Zm.87-.88a4.9,4.9,0,0,0,5.34,1,4.84,4.84,0,0,0,1.57-1.06,4.77,4.77,0,0,0,1-1.56,4.66,4.66,0,0,0,.39-1.88,4.61,4.61,0,0,0-.39-1.87,4.81,4.81,0,0,0-1-1.57,5,5,0,0,0-1.57-1.06,4.91,4.91,0,0,0-3.79,0,5.07,5.07,0,0,0-1.56,1.06,4.84,4.84,0,0,0-1.06,1.57,4.6,4.6,0,0,0-.38,1.87,5,5,0,0,0,.36,1.88A4.58,4.58,0,0,0,77.37,44.14Zm10-11h1.23v15H87.36Z"/><path class="cls-20" d="M93.11,48.19H91.87v-15h1.24v15Zm1.64-14.14a5.93,5.93,0,0,1,1.73-.85,6.84,6.84,0,0,1,1.91-.28,6.25,6.25,0,0,1,2.5.51A6.71,6.71,0,0,1,103,34.82a6.49,6.49,0,0,1,1.4,2,6.37,6.37,0,0,1,.51,2.54v8.78h-1.24V39.43a4.89,4.89,0,0,0-.42-2,5.52,5.52,0,0,0-1.13-1.68,5.23,5.23,0,0,0-1.66-1.14,5.24,5.24,0,0,0-5,.48,5.86,5.86,0,0,0-1.93,2.27V33.18h1.24Zm8.49,14.14H102V39.41a3.46,3.46,0,0,0-.29-1.39,4.17,4.17,0,0,0-.78-1.15,4,4,0,0,0-1.15-.78,3.46,3.46,0,0,0-1.39-.29,3.53,3.53,0,0,0-1.42.29A3.79,3.79,0,0,0,95,38a3.46,3.46,0,0,0-.29,1.39v8.78H93.51V39.41a4.81,4.81,0,0,1,.38-1.9,5.24,5.24,0,0,1,1-1.53,5,5,0,0,1,1.55-1,4.9,4.9,0,0,1,1.91-.38,4.82,4.82,0,0,1,1.88.38,4.91,4.91,0,0,1,1.55,1,5.06,5.06,0,0,1,1,1.53,4.81,4.81,0,0,1,.38,1.9Z"/><path class="cls-20" d="M112.67,54.6l.11-.08a8.78,8.78,0,0,0,3-3.13,8.25,8.25,0,0,0,1.07-4.12v-21h1.24v21A8.93,8.93,0,0,1,116.92,52a13.18,13.18,0,0,1-3.59,3.71Zm5.87-28.31h1.24v21a11.14,11.14,0,0,1-.38,2.9,11.81,11.81,0,0,1-1.1,2.68,11,11,0,0,1-1.75,2.35A10.56,10.56,0,0,1,114.2,57l-.07,0-.62-1a12.75,12.75,0,0,0,3.77-3.87,9.4,9.4,0,0,0,1.26-4.92Z"/><path class="cls-20" d="M126,42.14a5,5,0,0,0,1.79,2.48,4.68,4.68,0,0,0,2.87.94A4.74,4.74,0,0,0,133,45a5.32,5.32,0,0,0,1.76-1.55l1,.69a6.36,6.36,0,0,1-2.13,1.93,6.16,6.16,0,0,1-5.27.26,6.28,6.28,0,0,1-1.91-1.28,6.42,6.42,0,0,1-1.33-1.87,5.79,5.79,0,0,1-.55-2.28h12.68v-.22a6.35,6.35,0,0,0-.51-2.53,6.67,6.67,0,0,0-1.4-2.09,6.58,6.58,0,0,0-2.1-1.39,6.45,6.45,0,0,0-2.55-.51,6.35,6.35,0,0,0-2.53.51,6.58,6.58,0,0,0-2.07,1.4,6.54,6.54,0,0,0-1.39,7.21,6.58,6.58,0,0,0,1.42,2.07,6.87,6.87,0,0,0,2.08,1.38,6.23,6.23,0,0,0,2.49.51,6.36,6.36,0,0,0,3.15-.8,6.46,6.46,0,0,0,2.28-2.08l1,.69a7.79,7.79,0,0,1-2.8,2.52,7.63,7.63,0,0,1-3.65.91,7.35,7.35,0,0,1-3-.62,8.07,8.07,0,0,1-2.47-1.68,7.89,7.89,0,0,1-1.7-2.47,7.57,7.57,0,0,1-.62-3,7.81,7.81,0,0,1,.59-3,7.66,7.66,0,0,1,1.67-2.51h0a7.51,7.51,0,0,1,2.51-1.67,7.69,7.69,0,0,1,2.95-.59,7.57,7.57,0,0,1,3,.62,7.89,7.89,0,0,1,4.15,4.15,7.48,7.48,0,0,1,.62,3v1.46Zm-1.46-1.68a5.7,5.7,0,0,1,.55-2.27A6.35,6.35,0,0,1,128.3,35a5.91,5.91,0,0,1,2.33-.47A6.14,6.14,0,0,1,133,35,6.44,6.44,0,0,1,135,36.31a6.09,6.09,0,0,1,1.8,4.15Zm10.82-1.24a4.93,4.93,0,0,0-1.78-2.47,4.77,4.77,0,0,0-2.92-1,4.66,4.66,0,0,0-3.42,1.42h0a5.54,5.54,0,0,0-1.2,2Z"/><path class="cls-20" d="M143.53,42.14a5,5,0,0,0,1.79,2.48,4.68,4.68,0,0,0,2.87.94,4.77,4.77,0,0,0,2.32-.56,5.32,5.32,0,0,0,1.76-1.55l1,.69a6.36,6.36,0,0,1-2.13,1.93,6.16,6.16,0,0,1-5.27.26A6.28,6.28,0,0,1,144,45.05a6.42,6.42,0,0,1-1.33-1.87,5.79,5.79,0,0,1-.55-2.28h12.68v-.22a6.35,6.35,0,0,0-.51-2.53,6.67,6.67,0,0,0-1.4-2.09,6.58,6.58,0,0,0-2.1-1.39,6.45,6.45,0,0,0-2.55-.51,6.32,6.32,0,0,0-2.53.51,6.58,6.58,0,0,0-2.07,1.4,6.54,6.54,0,0,0-1.39,7.21,6.58,6.58,0,0,0,1.42,2.07,6.87,6.87,0,0,0,2.08,1.38,6.23,6.23,0,0,0,2.49.51,6.39,6.39,0,0,0,3.15-.8,6.46,6.46,0,0,0,2.28-2.08l1,.69a7.79,7.79,0,0,1-2.8,2.52,7.66,7.66,0,0,1-3.65.91,7.35,7.35,0,0,1-3-.62,8.07,8.07,0,0,1-2.47-1.68,7.89,7.89,0,0,1-1.7-2.47,7.57,7.57,0,0,1-.62-3,7.81,7.81,0,0,1,.59-3,7.66,7.66,0,0,1,1.67-2.51h0a7.51,7.51,0,0,1,2.51-1.67,7.69,7.69,0,0,1,2.95-.59,7.57,7.57,0,0,1,3,.62,8,8,0,0,1,4.15,4.15,7.48,7.48,0,0,1,.62,3v1.46Zm-1.46-1.68a5.7,5.7,0,0,1,.55-2.27A6.35,6.35,0,0,1,145.86,35a5.91,5.91,0,0,1,2.33-.47,6.14,6.14,0,0,1,2.39.47,6.44,6.44,0,0,1,1.93,1.28,6.09,6.09,0,0,1,1.8,4.15Zm10.82-1.24a4.93,4.93,0,0,0-1.78-2.47,4.77,4.77,0,0,0-2.92-1,4.66,4.66,0,0,0-3.42,1.42h0a5.54,5.54,0,0,0-1.2,2Z"/><path class="cls-20" d="M159.41,26.29h1.24v8.13h-2.73V33.18h1.49Zm1.24,8.53v7.57a4.52,4.52,0,0,0,.37,1.84,4.84,4.84,0,0,0,1,1.52,5.18,5.18,0,0,0,1.47,1,4.48,4.48,0,0,0,1.83.44h.25v1.24a5.85,5.85,0,0,1-2.35-.49,6.52,6.52,0,0,1-2-1.35,6.32,6.32,0,0,1-1.34-2,5.7,5.7,0,0,1-.5-2.35V36.06h-1.49V34.82Zm.44-.4V26.29h1.24v6.89h2.48v1.24Zm4.26,12.38a4.52,4.52,0,0,1-1.66-.38,4.33,4.33,0,0,1-1.36-1,4.42,4.42,0,0,1-.91-1.38,4.33,4.33,0,0,1-.33-1.7V34.82h3.72v1.24h-2.48v6.26a3.23,3.23,0,0,0,3.24,3.24V46.8Z"/><path class="cls-20" d="M192.2,44.58a7.84,7.84,0,0,1-6.74,3.9,7.35,7.35,0,0,1-3-.62A8.24,8.24,0,0,1,180,46.18a7.86,7.86,0,0,1-1.69-2.47,7.57,7.57,0,0,1-.62-3,8,8,0,0,1,.58-3A7.69,7.69,0,0,1,180,35.18h0a7.31,7.31,0,0,1,2.51-1.67,7.69,7.69,0,0,1,3-.59,7.77,7.77,0,0,1,6.74,3.9l-1.06.62a7.92,7.92,0,0,0-.47-.71,5.62,5.62,0,0,0-.55-.64h0a6.43,6.43,0,0,0-4.52-1.93h-.11a6.32,6.32,0,0,0-2.53.51,6.74,6.74,0,0,0-2.08,1.4,6.56,6.56,0,0,0-1.4,2.09,6.46,6.46,0,0,0,1.4,7.15,6.92,6.92,0,0,0,2.08,1.4,6.17,6.17,0,0,0,2.53.53h.11a6.43,6.43,0,0,0,4.52-1.93h0a5.62,5.62,0,0,0,.55-.64,7.92,7.92,0,0,0,.47-.71Zm-2.48-6.34a4.75,4.75,0,0,0-1.84-1.8,4.84,4.84,0,0,0-2.42-.64A4.63,4.63,0,0,0,182,37.22h0a4.7,4.7,0,0,0-1.42,3.46,4.82,4.82,0,0,0,.38,1.88A5,5,0,0,0,182,44.12a4.9,4.9,0,0,0,1.56,1.06,4.68,4.68,0,0,0,1.88.38,4.94,4.94,0,0,0,2.42-.63,4.84,4.84,0,0,0,1.84-1.81l1.06.62A5.5,5.5,0,0,1,188.56,46a6.2,6.2,0,0,1-5.45.35,6.34,6.34,0,0,1-2-1.3,6,6,0,0,1-1.33-1.94,6,6,0,0,1-.49-2.41,5.88,5.88,0,0,1,.49-2.42,6.1,6.1,0,0,1,1.33-1.93,6.32,6.32,0,0,1,2-1.3,6.22,6.22,0,0,1,2.4-.47h.15a6.62,6.62,0,0,1,3,.87,5.47,5.47,0,0,1,2.13,2.19Z"/><path class="cls-20" d="M196.61,26.11a1.71,1.71,0,0,1,1.25.52,1.74,1.74,0,0,1,0,2.5,1.74,1.74,0,0,1-1.25.51,1.68,1.68,0,0,1-1.24-.51,1.79,1.79,0,0,1,0-2.5A1.65,1.65,0,0,1,196.61,26.11Zm-1.42,22.08v-15h1.24v15Zm1.42-21.13a.75.75,0,0,0-.55.23.85.85,0,0,0-.22.57.82.82,0,0,0,.22.56.72.72,0,0,0,.55.24.82.82,0,0,0,.8-.8.8.8,0,0,0-.8-.8Zm0,.43c.26,0,.4.13.4.37s-.14.36-.4.36a.32.32,0,0,1-.37-.36A.33.33,0,0,1,196.61,27.49Zm.22,5.69h1.24v15h-1.24Z"/><path class="cls-20" d="M202,26.29h1.24v8.13h-2.73V33.18H202Zm1.24,8.53v7.57a4.68,4.68,0,0,0,.36,1.84,5,5,0,0,0,1,1.52,5.37,5.37,0,0,0,1.48,1,4.43,4.43,0,0,0,1.82.44h.26v1.24a5.85,5.85,0,0,1-2.35-.49,6.4,6.4,0,0,1-2-1.35,6.52,6.52,0,0,1-1.35-2,5.69,5.69,0,0,1-.49-2.35V36.06h-1.49V34.82Zm.43-.4V26.29h1.24v6.89h2.48v1.24Zm4.27,12.38a4.43,4.43,0,0,1-1.66-.38,4.37,4.37,0,0,1-1.37-1,4.42,4.42,0,0,1-.91-1.38,4.33,4.33,0,0,1-.33-1.7V34.82h3.72v1.24h-2.48v6.26a3.23,3.23,0,0,0,3.25,3.24V46.8Z"/><path class="cls-20" d="M220.83,47.35a6.33,6.33,0,0,1-6.1.62,6.74,6.74,0,0,1-2.08-1.4,7.17,7.17,0,0,1-1.42-2.08,6.19,6.19,0,0,1-.52-2.53V33.18h1.23V42a5.08,5.08,0,0,0,.42,2,5.34,5.34,0,0,0,1.13,1.68,5.29,5.29,0,0,0,1.68,1.13,5.28,5.28,0,0,0,6.9-2.79V49a4.81,4.81,0,0,1-.38,1.9,5.06,5.06,0,0,1-1,1.53,5,5,0,0,1-1.53,1,4.88,4.88,0,0,1-5.35-1.13l-.3.29a5.28,5.28,0,0,0,1.7,1.16,5.19,5.19,0,0,0,2.09.44A5.22,5.22,0,0,0,221,52.61a5.2,5.2,0,0,0,1.09-1.67,5.13,5.13,0,0,0,.4-2V33.18h1.24V49a6.25,6.25,0,0,1-.51,2.5,6.39,6.39,0,0,1-3.44,3.44,6.25,6.25,0,0,1-2.5.51,6.53,6.53,0,0,1-2.51-.49,6.24,6.24,0,0,1-2.15-1.48l2.08-2a3.13,3.13,0,0,1,.45.34,2.51,2.51,0,0,0,.71.46,3.91,3.91,0,0,0,1.42.29,3.18,3.18,0,0,0,1.37-.29,4.22,4.22,0,0,0,1.13-.78,3.81,3.81,0,0,0,.78-1.13,3.18,3.18,0,0,0,.29-1.37Zm-8.49-14.17h1.24V42a3.45,3.45,0,0,0,.29,1.38,3.86,3.86,0,0,0,.79,1.15,3.66,3.66,0,0,0,1.15.78,3.34,3.34,0,0,0,1.42.29,3.29,3.29,0,0,0,1.38-.29,3.69,3.69,0,0,0,1.93-1.93,3.29,3.29,0,0,0,.29-1.38V33.18h1.24V42a4.73,4.73,0,0,1-.38,1.89,5.06,5.06,0,0,1-1,1.53,4.75,4.75,0,0,1-1.55,1,4.6,4.6,0,0,1-1.87.38,4.77,4.77,0,0,1-1.92-.38,4.71,4.71,0,0,1-1.54-1,4.88,4.88,0,0,1-1-1.53,4.57,4.57,0,0,1-.39-1.89Z"/><path class="cls-20" d="M53.28,239.24v-19H50.51L50.8,219h3.72v20.25Zm2.88-21.89v21.89H54.92V218.59h-4l.33-1.24Z"/><path class="cls-20" d="M64.17,220.19l-1,5.21a8.53,8.53,0,0,1,2.91-.51,8.12,8.12,0,0,1,3,.56A7.1,7.1,0,0,1,71.51,227a7.53,7.53,0,0,1,2.17,5.32,6.93,6.93,0,0,1-.6,2.84,7.73,7.73,0,0,1-1.61,2.35,7.27,7.27,0,0,1-2.34,1.58,7.1,7.1,0,0,1-2.85.59,7.24,7.24,0,0,1-2.15-.33,7.67,7.67,0,0,1-2-.93A7.36,7.36,0,0,1,60.56,237a7.77,7.77,0,0,1-1.13-1.89l1.13-.48a7.12,7.12,0,0,0,2.3,2.79,5.75,5.75,0,0,0,3.42,1,6,6,0,0,0,2.39-.49A6.35,6.35,0,0,0,72,234.71a5.72,5.72,0,0,0,.49-2.35,7.15,7.15,0,0,0-.36-2.21,6,6,0,0,0-1.13-2,5.93,5.93,0,0,0-2-1.46,6.82,6.82,0,0,0-2.88-.56,8.29,8.29,0,0,0-2.49.4,5.09,5.09,0,0,0-2.14,1.24c.22-1.44.48-2.9.79-4.39s.6-3,.89-4.43H71.6v1.24Zm6.19-1.6H62.79c-.3,1.59-.59,3.17-.9,4.71s-.6,3.11-.89,4.69l.27.12a1.36,1.36,0,0,1,.24.13A6.59,6.59,0,0,1,63.64,227a7.09,7.09,0,0,1,2.46-.44,6.32,6.32,0,0,1,2.39.44,5.47,5.47,0,0,1,3.08,3.08,6,6,0,0,1,.43,2.31,5.45,5.45,0,0,1-.45,2.2,6.05,6.05,0,0,1-1.24,1.82,5.71,5.71,0,0,1-1.82,1.24,5.34,5.34,0,0,1-2.21.46,5.72,5.72,0,0,1-3.2-1A5.15,5.15,0,0,1,61,234.47l1.12-.44,0,.08a4.21,4.21,0,0,0,1.66,2,4.46,4.46,0,0,0,2.49.75,4.38,4.38,0,0,0,1.73-.35,4.24,4.24,0,0,0,1.42-1,4.91,4.91,0,0,0,1-1.42,4.25,4.25,0,0,0,.36-1.75,5.36,5.36,0,0,0-.25-1.62,4.34,4.34,0,0,0-.8-1.48,4.18,4.18,0,0,0-1.44-1.07,5.09,5.09,0,0,0-2.17-.42,6.34,6.34,0,0,0-2.09.36,4.26,4.26,0,0,0-1.77,1.17l-.44.47-2.18-1.09,2.15-11.33H71.6v1.24Z"/><path class="cls-20" d="M76.78,223.83a12.87,12.87,0,0,1,1.16-2.71,9.22,9.22,0,0,1,1.75-2.19,7.62,7.62,0,0,1,5.25-2,7.46,7.46,0,0,1,3.84,1,9,9,0,0,1,2.77,2.57,11.51,11.51,0,0,1,1.67,3.63,15.33,15.33,0,0,1,.57,4.15,15.51,15.51,0,0,1-.57,4.19,11.45,11.45,0,0,1-1.67,3.62,8.65,8.65,0,0,1-2.77,2.55,8.11,8.11,0,0,1-7.69,0,8.48,8.48,0,0,1-2.75-2.55,11.89,11.89,0,0,1-1.66-3.62,15.91,15.91,0,0,1-.56-4.19A15.13,15.13,0,0,1,76.78,223.83Zm1.16.36a14.83,14.83,0,0,0-.44,2,15.76,15.76,0,0,0-.14,2.07,14.72,14.72,0,0,0,.47,3.67,11.43,11.43,0,0,0,1.4,3.26,7.61,7.61,0,0,0,2.35,2.31,6.9,6.9,0,0,0,6.71,0,7.9,7.9,0,0,0,2.37-2.31,10.93,10.93,0,0,0,1.42-3.26,14.72,14.72,0,0,0,.47-3.67,14.5,14.5,0,0,0-.47-3.65,11,11,0,0,0-1.42-3.24,7.67,7.67,0,0,0-2.37-2.31,6.31,6.31,0,0,0-3.35-.87,6.4,6.4,0,0,0-2.5.47,7,7,0,0,0-2,1.27,8.22,8.22,0,0,0-1.51,1.91A10.86,10.86,0,0,0,77.94,224.19Zm7-5.6a5.81,5.81,0,0,1,3.22.87,7.54,7.54,0,0,1,2.24,2.26,9.92,9.92,0,0,1,1.32,3.12,14.3,14.3,0,0,1,0,6.88,10.34,10.34,0,0,1-1.3,3.12,7.26,7.26,0,0,1-2.23,2.25A5.79,5.79,0,0,1,85,238a5.73,5.73,0,0,1-3.21-.89,7.89,7.89,0,0,1-2.25-2.28,10.14,10.14,0,0,1-1.31-3.12,14.32,14.32,0,0,1-.42-3.4,14.05,14.05,0,0,1,.44-3.44,10.18,10.18,0,0,1,1.33-3.12,7.69,7.69,0,0,1,2.25-2.26A5.73,5.73,0,0,1,85,218.59Zm0,1.24a4.49,4.49,0,0,0-2.72.8,6.58,6.58,0,0,0-1.84,2,9.06,9.06,0,0,0-1,2.73,13.4,13.4,0,0,0-.33,2.88,13.78,13.78,0,0,0,.33,2.93,8.86,8.86,0,0,0,1,2.73,6.58,6.58,0,0,0,1.84,2,5.09,5.09,0,0,0,5.45,0,6.79,6.79,0,0,0,1.86-2,9.27,9.27,0,0,0,1-2.72,13.46,13.46,0,0,0,.33-2.91,13.12,13.12,0,0,0-.33-2.84,9.57,9.57,0,0,0-1-2.75,6.48,6.48,0,0,0-1.86-2.06A4.56,4.56,0,0,0,84.94,219.83Z"/><path class="cls-20" d="M111.78,242.12h-1.23v-2.59a7.19,7.19,0,0,1-2.92-1.22,6.55,6.55,0,0,1-2-2.31l1.09-.58a5.52,5.52,0,0,0,2,2.17,5.66,5.66,0,0,0,3,.82h.1Zm-3.64-7.5a3.69,3.69,0,0,0,1,1.22,5.23,5.23,0,0,0,1.41.74V228a16,16,0,0,1-1.64-.93,6.34,6.34,0,0,1-1.32-1.13,4.81,4.81,0,0,1-.85-1.48,5.56,5.56,0,0,1-.31-2,5.29,5.29,0,0,1,1.15-3.37,5.5,5.5,0,0,1,3-2v-2.7h1.23v3.76a4.12,4.12,0,0,0-1.58.38,4.33,4.33,0,0,0-1.31.91,4,4,0,0,0-.89,1.35,4.2,4.2,0,0,0-.33,1.66,4,4,0,0,0,.34,1.74,4.51,4.51,0,0,0,.91,1.28,6.18,6.18,0,0,0,1.32,1c.49.26,1,.52,1.54.76V238h-.1a5.2,5.2,0,0,1-2.74-.75,5,5,0,0,1-1.89-2Zm3.64-7.87c-.48-.22-1-.45-1.4-.69a5.51,5.51,0,0,1-1.18-.86,3.77,3.77,0,0,1-.82-1.15,3.59,3.59,0,0,1-.31-1.56,3.89,3.89,0,0,1,.29-1.5,3.85,3.85,0,0,1,.8-1.22,3.78,3.78,0,0,1,1.19-.82,4.21,4.21,0,0,1,1.43-.33Zm-1.23-6.52a3.29,3.29,0,0,0-.9,1,2.45,2.45,0,0,0-.34,1.3,2.3,2.3,0,0,0,.34,1.31,3.7,3.7,0,0,0,.9.91Zm1.67-5.8h1.24v2.74a4.94,4.94,0,0,1,1.57.71,5.59,5.59,0,0,1,1.23,1.14l-.94.77a4.1,4.1,0,0,0-3.1-1.6Zm1.24,11.7c.73.34,1.41.7,2,1.07a7.18,7.18,0,0,1,1.64,1.33,5.48,5.48,0,0,1,1.07,1.77,6.71,6.71,0,0,1,.39,2.42,6.92,6.92,0,0,1-.37,2.21,6.62,6.62,0,0,1-1,2,7.31,7.31,0,0,1-1.64,1.55,6.65,6.65,0,0,1-2.08.95v2.73h-1.24v-3.75a5.57,5.57,0,0,0,3.64-1.82,5.89,5.89,0,0,0,1.1-1.75,5.62,5.62,0,0,0,.4-2.08,5.14,5.14,0,0,0-.44-2.22,5,5,0,0,0-1.15-1.57,6.65,6.65,0,0,0-1.6-1.09c-.59-.29-1.2-.57-1.8-.84l-.15-.07v-8.31a3.81,3.81,0,0,1,2.77,1.43l-.95.76-.27-.27a1.5,1.5,0,0,0-.31-.24Zm-1.24,1.27,1.73.82a6.26,6.26,0,0,1,1.51,1,4.86,4.86,0,0,1,1.08,1.44,4.52,4.52,0,0,1,.42,2,5,5,0,0,1-.37,1.9,5.28,5.28,0,0,1-1,1.62,5.53,5.53,0,0,1-1.51,1.16,4.5,4.5,0,0,1-1.84.53Zm1.24,8.93a3.74,3.74,0,0,0,1.64-1.49,4.06,4.06,0,0,0,.62-2.12,3.12,3.12,0,0,0-.66-2.11,5.65,5.65,0,0,0-1.6-1.28Z"/><path class="cls-20" d="M121.33,217.35h6.45a10.49,10.49,0,0,1,4.2.86,11,11,0,0,1,3.48,2.33,11.23,11.23,0,0,1,2.39,3.48,10.7,10.7,0,0,1,0,8.5,11.24,11.24,0,0,1-5.87,5.85,10.45,10.45,0,0,1-4.22.87h-6.45Zm1.24,1.24V238h5.21a9.42,9.42,0,0,0,3.77-.77,9.9,9.9,0,0,0,5.19-5.18,9.36,9.36,0,0,0,.76-3.76,9.22,9.22,0,0,0-.78-3.77,10.34,10.34,0,0,0-2.11-3.09,10,10,0,0,0-3.1-2.09,9.29,9.29,0,0,0-3.73-.76Zm.4.4h4.82a8.83,8.83,0,0,1,3.6.75,9.65,9.65,0,0,1,3,2,9.14,9.14,0,0,1,2,2.95,9.27,9.27,0,0,1,0,7.21,9,9,0,0,1-2,2.95,9.86,9.86,0,0,1-3,2,8.82,8.82,0,0,1-3.6.74H123Zm1.24,1.24v16.14h3.57a7.83,7.83,0,0,0,3.11-.64,8.31,8.31,0,0,0,2.57-1.73,8.54,8.54,0,0,0,1.75-2.57,7.93,7.93,0,0,0,0-6.29,8.28,8.28,0,0,0-1.77-2.54,8.58,8.58,0,0,0-2.57-1.74,7.69,7.69,0,0,0-3.09-.63Z"/><path class="cls-20" d="M144.13,231.67v7.57h-1.24v-8.81h4.3a5.67,5.67,0,0,0,2.28-.47,6.14,6.14,0,0,0,1.88-1.28,6,6,0,0,0,1.27-1.88,5.63,5.63,0,0,0,.48-2.29,5.44,5.44,0,0,0-.48-2.24,6.24,6.24,0,0,0-1.27-1.88,6.06,6.06,0,0,0-1.88-1.31,5.37,5.37,0,0,0-2.28-.49h-4.7v20.65h-1.23V217.35h5.93a6.9,6.9,0,0,1,2.75.56,7.36,7.36,0,0,1,3.83,3.83,7,7,0,0,1,0,5.5,7.43,7.43,0,0,1-1.55,2.28,7.57,7.57,0,0,1-2.28,1.56,6.6,6.6,0,0,1-2.75.59ZM142.89,219h4.3a5.17,5.17,0,0,1,2.14.45,6,6,0,0,1,1.74,1.21,5.55,5.55,0,0,1,1.19,1.74,5.23,5.23,0,0,1,.43,2.1,5.15,5.15,0,0,1-.43,2.09,5.48,5.48,0,0,1-1.19,1.75,5.75,5.75,0,0,1-1.74,1.2,5,5,0,0,1-2.14.46h-4.3Zm1.24,1.24v8.52h3.06a3.92,3.92,0,0,0,1.64-.34,4.68,4.68,0,0,0,1.35-.92,4.13,4.13,0,0,0,.93-1.34,4.09,4.09,0,0,0,.35-1.66,4,4,0,0,0-.35-1.64,4.52,4.52,0,0,0-2.28-2.28,3.92,3.92,0,0,0-1.64-.34Z"/><path class="cls-20" d="M159.58,220.26a11.82,11.82,0,0,1,3.68-2.46,11.07,11.07,0,0,1,4.33-.85,10.78,10.78,0,0,1,4.41.91,11.28,11.28,0,0,1,3.61,2.48,11.82,11.82,0,0,1,2.42,3.6,10.64,10.64,0,0,1,.89,4.34,10.84,10.84,0,0,1-.89,4.39,11.57,11.57,0,0,1-6.05,6.05,11.17,11.17,0,0,1-8.74,0,12,12,0,0,1-3.61-2.43,11.58,11.58,0,0,1-2.46-3.59,10.89,10.89,0,0,1-.91-4.42,11.13,11.13,0,0,1,.86-4.34A11.76,11.76,0,0,1,159.58,220.26Zm.87.87a10.09,10.09,0,0,0-2.18,3.26,9.94,9.94,0,0,0-.77,3.87,9.77,9.77,0,0,0,.8,3.91,10.56,10.56,0,0,0,2.19,3.22,10.31,10.31,0,0,0,3.21,2.18,9.88,9.88,0,0,0,7.79,0,10.31,10.31,0,0,0,5.39-5.4,9.6,9.6,0,0,0,.8-3.91,9.44,9.44,0,0,0-.8-3.89,10.5,10.5,0,0,0-2.16-3.2,10.08,10.08,0,0,0-3.21-2.18,9.61,9.61,0,0,0-3.92-.8,10,10,0,0,0-3.88.76A10.2,10.2,0,0,0,160.45,221.13Zm7.14-2.54a9.15,9.15,0,0,1,3.74.78,10.06,10.06,0,0,1,3.09,2.1,9.64,9.64,0,0,1,2.1,3.07,9.56,9.56,0,0,1,0,7.47,9.88,9.88,0,0,1-2.1,3.1,9.7,9.7,0,0,1-3.09,2.09,9.44,9.44,0,0,1-7.47,0,9.85,9.85,0,0,1-3.1-2.09,10,10,0,0,1-2.09-3.1,9.44,9.44,0,0,1,0-7.47,9.89,9.89,0,0,1,2.07-3.07,10,10,0,0,1,3.08-2.1A9.26,9.26,0,0,1,167.59,218.59Zm0,1.24a8.14,8.14,0,0,0-3.29.67,8.46,8.46,0,0,0-2.7,1.84,8.69,8.69,0,0,0-1.8,2.7,8.29,8.29,0,0,0,0,6.53,8.3,8.3,0,0,0,1.82,2.7,8.15,8.15,0,0,0,2.69,1.8,8.47,8.47,0,0,0,9.22-1.8,8.46,8.46,0,0,0,1.82-2.7,8.14,8.14,0,0,0,.68-3.29,7.94,7.94,0,0,0-.68-3.24,8.92,8.92,0,0,0-1.82-2.7,8.6,8.6,0,0,0-2.68-1.84A8,8,0,0,0,167.59,219.83Z"/><path class="cls-20" d="M192.77,239.24h-11V217.35H183V238h9.8Zm0-1.64h-9.4V217.35h1.24v19h8.16v1.23Z"/><path class="cls-20" d="M198.19,239.24V229l-8.08-11.66h1.49l7.83,11.26v10.63Zm-4.59-21.89.62.84,5.43,7.83,6-8.67h1.49l-7.54,10.82-5.9-8.49-1.64-2.33Zm7.51,19v2.87h-1.24V228.61l5.61-8.13,2.22-3.13h1.5l-2.19,3.1-5.9,8.56Z"/></g></g></svg>