<svg xmlns="http://www.w3.org/2000/svg" viewBox="0 0 253.51 253.51"><defs><style>.cls-1{fill:#cfe7d7;stroke-width:5px;}.cls-1,.cls-3{stroke:#000;}.cls-2{fill:#fdbc5a;}.cls-3,.cls-5,.cls-8{fill:none;}.cls-4{fill:#27aae1;}.cls-4,.cls-5,.cls-6,.cls-7,.cls-8{stroke:#231f20;stroke-miterlimit:10;}.cls-4,.cls-5,.cls-6,.cls-7{stroke-width:2px;}.cls-6{fill:#414042;}.cls-7{fill:#1c75bc;}.cls-8{stroke-width:4px;}.cls-9{fill:#231f20;}</style></defs><g id="Layer_2" data-name="Layer 2"><g id="Layer_1-2" data-name="Layer 1"><rect class="cls-1" x="2.5" y="2.5" width="248.51" height="248.51"/><rect class="cls-2" x="8.36" y="8.36" width="236.8" height="62.45"/><rect class="cls-3" x="8.36" y="8.36" width="236.8" height="62.45"/><path class="cls-4" d="M101.06,151.17c13.4-1.39,26-.45,39.35-.8,4-.11,8.35.48,11.26,3.24,1.51,1.44,2.5,3.35,4,4.81,4.22,4.19,11,3.77,16.91,3.71A82.48,82.48,0,0,1,192,164.25a23.47,23.47,0,0,1,9,3.65c2.61,2,4.54,5.1,4.26,8.35-.33,3.88-3.57,6.86-6.9,8.88A37.76,37.76,0,0,1,172.21,190c-9.66-1.74-18.24-7.19-27.64-10-12.39-3.71-25.72-2.72-38.39-.19-13.1,2.62-26,6.86-39.37,7.13-6,.12-12.18-.62-17.51-3.4-4.07-2.13-7.83-6.39-6.74-10.85.95-3.88,5-6,8.73-7.52a238.51,238.51,0,0,1,50-14"/><line class="cls-5" x1="66.76" y1="178.58" x2="79.48" y2="175.33"/><line class="cls-5" x1="120.78" y1="162.91" x2="133.51" y2="159.66"/><line class="cls-5" x1="74.88" y1="102.21" x2="73.12" y2="175.33"/><line class="cls-5" x1="126.06" y1="92.19" x2="127.15" y2="159.89"/><polygon class="cls-6" points="61.47 95.35 61.72 104.77 137.69 87.82 137.69 77.66 61.47 95.35"/><path class="cls-7" d="M113.05,194.19s-4.11-10.85,18.25-7.4,20.22,14.14,8.06,12.83S115.19,200.77,113.05,194.19Z"/><line class="cls-5" x1="91.24" y1="98.03" x2="91.28" y2="138.51"/><line class="cls-5" x1="109.03" y1="95.35" x2="109.07" y2="135.83"/><line class="cls-8" x1="85.75" y1="140.48" x2="115.19" y2="134.52"/><path class="cls-9" d="M31.85,51.72h-11V29.82h1.24V50.48h9.8Zm0-1.64h-9.4V29.82h1.24v19h8.16v1.24Z"/><path class="cls-9" d="M36.62,29.64a1.71,1.71,0,0,1,1.26.52,1.74,1.74,0,0,1,0,2.5,1.74,1.74,0,0,1-1.26.51,1.77,1.77,0,0,1-1.24-3A1.67,1.67,0,0,1,36.62,29.64ZM35.2,51.72v-15h1.24v15Zm1.42-21.13a.68.68,0,0,0-.54.24.76.76,0,0,0-.22.56.8.8,0,0,0,.22.57.71.71,0,0,0,.54.23.79.79,0,0,0,.8-.8.77.77,0,0,0-.23-.56A.78.78,0,0,0,36.62,30.59Zm0,.44c.27,0,.4.12.4.36s-.13.36-.4.36a.36.36,0,1,1,0-.72Zm.22,5.68h1.24v15H36.84Z"/><path class="cls-9" d="M53.45,36.71h1.24v5.21a6.54,6.54,0,0,0-.64-1.23,8.08,8.08,0,0,0-.85-1.08h0a6.74,6.74,0,0,0-2.06-1.39,6.25,6.25,0,0,0-2.57-.53A6.35,6.35,0,0,0,46,38.2a6.58,6.58,0,0,0-2.07,1.4,6.54,6.54,0,0,0-1.39,7.21A6.58,6.58,0,0,0,44,48.88,6.87,6.87,0,0,0,46,50.26a6.23,6.23,0,0,0,2.49.51,6.41,6.41,0,0,0,2.57-.51,6.17,6.17,0,0,0,2.06-1.42h0a9.49,9.49,0,0,0,.85-1.07,5.74,5.74,0,0,0,.64-1.26V58.64h-1.2l0-8.38A7.55,7.55,0,0,1,48.53,52a7.35,7.35,0,0,1-3-.62,8.07,8.07,0,0,1-2.47-1.68,7.89,7.89,0,0,1-1.7-2.47,7.74,7.74,0,0,1,0-6.07,8.08,8.08,0,0,1,1.7-2.46,8.19,8.19,0,0,1,2.47-1.66,7.51,7.51,0,0,1,3-.6,7.6,7.6,0,0,1,4.92,1.72ZM48.53,50.33a5.76,5.76,0,0,1-2.38-.49,6.55,6.55,0,0,1-1.95-1.31,5.84,5.84,0,0,1-1.31-1.93,6.14,6.14,0,0,1,1.29-6.68,6.22,6.22,0,0,1,2-1.34,6.2,6.2,0,0,1,4.83,0,6.46,6.46,0,0,1,1.95,1.34,6.21,6.21,0,0,1,1.31,1.94,6.21,6.21,0,0,1,0,4.74,6.16,6.16,0,0,1-1.31,1.93,6.52,6.52,0,0,1-2,1.31A5.94,5.94,0,0,1,48.53,50.33Zm0-11a4.77,4.77,0,0,0-1.87.38A5,5,0,0,0,44,42.34a4.82,4.82,0,0,0,0,3.75,5,5,0,0,0,1.06,1.57,4.81,4.81,0,0,0,1.57,1.05,4.61,4.61,0,0,0,1.87.39,4.78,4.78,0,0,0,1.92-.39A4.87,4.87,0,0,0,52,47.66a5,5,0,0,0,1.06-1.57,4.82,4.82,0,0,0,0-3.75A5,5,0,0,0,52,40.77a5.07,5.07,0,0,0-1.56-1.06A4.94,4.94,0,0,0,48.53,39.33Zm6.56-2.62h1.24V58.64h-1.2Z"/><path class="cls-9" d="M69.74,50.88A6.27,6.27,0,0,1,66.13,52a6.2,6.2,0,0,1-2.49-.51,6.63,6.63,0,0,1-2.08-1.4A6.8,6.8,0,0,1,60.14,48a6,6,0,0,1-.53-2.53V36.71h1.24v8.78a5.13,5.13,0,0,0,.42,2.06,5.32,5.32,0,0,0,2.8,2.8A5.31,5.31,0,0,0,71,47.57v4.15H69.74ZM61.25,36.71h1.24v8.78a3.22,3.22,0,0,0,.29,1.38,3.69,3.69,0,0,0,1.93,1.93,3.38,3.38,0,0,0,1.42.3,3.23,3.23,0,0,0,1.38-.3A3.66,3.66,0,0,0,68.66,48a3.86,3.86,0,0,0,.79-1.15,3.38,3.38,0,0,0,.29-1.38V36.71H71v8.78a4.57,4.57,0,0,1-.39,1.89,4.8,4.8,0,0,1-1,1.53A4.86,4.86,0,0,1,68,50a4.91,4.91,0,0,1-3.79,0,4.75,4.75,0,0,1-1.55-1,4.82,4.82,0,0,1-1-1.53,4.73,4.73,0,0,1-.38-1.89Zm10.13,0h1.24v15H71.38v-15Z"/><path class="cls-9" d="M77.61,29.64a1.71,1.71,0,0,1,1.25.52,1.74,1.74,0,0,1,0,2.5,1.74,1.74,0,0,1-1.25.51,1.68,1.68,0,0,1-1.24-.51,1.79,1.79,0,0,1,0-2.5A1.65,1.65,0,0,1,77.61,29.64ZM76.19,51.72v-15h1.23v15Zm1.42-21.13a.72.72,0,0,0-.55.24.76.76,0,0,0-.22.56.8.8,0,0,0,.22.57.75.75,0,0,0,.55.23.8.8,0,0,0,.8-.8.74.74,0,0,0-.24-.56A.76.76,0,0,0,77.61,30.59Zm0,.44c.26,0,.4.12.4.36s-.14.36-.4.36a.36.36,0,1,1,0-.72Zm.22,5.68h1.23v15H77.83Z"/><path class="cls-9" d="M94.44,50.26A7.52,7.52,0,0,1,89.56,52a7.4,7.4,0,0,1-3-.62,8.14,8.14,0,0,1-2.48-1.69,8.27,8.27,0,0,1-1.69-2.48,7.59,7.59,0,0,1,0-6,7.93,7.93,0,0,1,1.67-2.46,8.05,8.05,0,0,1,2.48-1.68,7.76,7.76,0,0,1,7.91,1.1l0-8.35h1.24v12.1a6.3,6.3,0,0,0-.93-1.68,6.61,6.61,0,0,0-1.43-1.36A6.78,6.78,0,0,0,91.56,38a6.37,6.37,0,0,0-2-.31,6.29,6.29,0,0,0-2.57.53,6.68,6.68,0,0,0-2.08,1.42,6.45,6.45,0,0,0-1.41,2.07,6.58,6.58,0,0,0,0,5.08,6.57,6.57,0,0,0,6,4,6.35,6.35,0,0,0,3.75-1.18,6.49,6.49,0,0,0,2.37-3.08v5.21H94.44Zm-4.88.07a6.06,6.06,0,0,1-2.41-.47,6,6,0,0,1-2-1.31,6.31,6.31,0,0,1-1.29-1.95,6,6,0,0,1-.48-2.39,6.27,6.27,0,0,1,.46-2.35,5.81,5.81,0,0,1,1.28-1.94,6.06,6.06,0,0,1,1.94-1.34,6.23,6.23,0,0,1,2.45-.49,5.93,5.93,0,0,1,2.38.49,6.58,6.58,0,0,1,2,1.32,5.63,5.63,0,0,1,1.31,2,6.12,6.12,0,0,1,0,4.75,6,6,0,0,1-1.31,1.95,6.2,6.2,0,0,1-2,1.31A5.91,5.91,0,0,1,89.56,50.33Zm0-1.23a4.58,4.58,0,0,0,1.87-.39,5,5,0,0,0,2.62-2.58,4.94,4.94,0,0,0,.38-1.92A4.74,4.74,0,0,0,94,42.3,5.43,5.43,0,0,0,93,40.75a5.08,5.08,0,0,0-1.55-1,4.74,4.74,0,0,0-1.87-.38,4.81,4.81,0,0,0-1.87.38,5.07,5.07,0,0,0-1.56,1.06,5.39,5.39,0,0,0-1.07,1.57,4.62,4.62,0,0,0-.4,1.87,4.78,4.78,0,0,0,.4,1.92,5.12,5.12,0,0,0,1.07,1.54,5,5,0,0,0,1.56,1A4.64,4.64,0,0,0,89.57,49.1Zm6.54-4.89V29.82h1.24v21.9H96.08Z"/><path class="cls-9" d="M112.65,50.26A7.55,7.55,0,0,1,107.73,52a7.27,7.27,0,0,1-3-.62,8,8,0,0,1-2.48-1.68,7.89,7.89,0,0,1-1.7-2.47,7.74,7.74,0,0,1,0-6.07,8,8,0,0,1,4.18-4.12,7.42,7.42,0,0,1,3-.6,7.6,7.6,0,0,1,4.92,1.72V36.71h1.24v5.21a6.9,6.9,0,0,0-1.49-2.31h0a6.74,6.74,0,0,0-2.06-1.39,6.25,6.25,0,0,0-2.57-.53,6.35,6.35,0,0,0-2.53.51,6.58,6.58,0,0,0-2.07,1.4,6.54,6.54,0,0,0-1.39,7.21,6.58,6.58,0,0,0,1.42,2.07,6.87,6.87,0,0,0,2.08,1.38,6.23,6.23,0,0,0,2.49.51,6.41,6.41,0,0,0,2.57-.51,6.17,6.17,0,0,0,2.06-1.42h0a7.08,7.08,0,0,0,1.49-2.33v5.21h-1.24Zm-9.21-1.71a6.25,6.25,0,0,1-1.33-1.95,5.82,5.82,0,0,1-.5-2.39,5.92,5.92,0,0,1,.48-2.35,6,6,0,0,1,1.29-1.94,6.22,6.22,0,0,1,2-1.34,6.2,6.2,0,0,1,4.83,0,6.46,6.46,0,0,1,2,1.34,6.21,6.21,0,0,1,1.31,1.94,6.09,6.09,0,0,1,.47,2.35,6,6,0,0,1-.47,2.35,6.22,6.22,0,0,1-3.26,3.28,5.9,5.9,0,0,1-2.43.49,5.78,5.78,0,0,1-2.36-.47A6.11,6.11,0,0,1,103.44,48.55Zm.87-.88a4.67,4.67,0,0,0,3.42,1.43,4.78,4.78,0,0,0,1.92-.39,4.94,4.94,0,0,0,2.62-2.62,4.82,4.82,0,0,0,0-3.75,4.84,4.84,0,0,0-1.06-1.57,5.07,5.07,0,0,0-1.56-1.06,4.94,4.94,0,0,0-1.92-.38,4.77,4.77,0,0,0-1.87.38,5,5,0,0,0-1.57,1.06,4.81,4.81,0,0,0-1.05,1.57,4.61,4.61,0,0,0-.39,1.87,4.78,4.78,0,0,0,.37,1.88A4.36,4.36,0,0,0,104.31,47.67Zm10-11h1.24v15h-1.24Z"/><path class="cls-9" d="M119.68,29.82h1.24V38h-2.73V36.71h1.49Zm1.24,8.53v7.58a4.55,4.55,0,0,0,.37,1.84,4.79,4.79,0,0,0,1,1.51,5.13,5.13,0,0,0,1.47,1,4.48,4.48,0,0,0,1.83.44h.25V52a5.69,5.69,0,0,1-2.35-.49,6.52,6.52,0,0,1-2-1.35,6.32,6.32,0,0,1-1.34-2,5.7,5.7,0,0,1-.5-2.35V39.59h-1.49V38.35Zm.44-.4V29.82h1.24v6.89h2.48V38Zm4.26,12.38A4.52,4.52,0,0,1,124,50a4.17,4.17,0,0,1-1.36-1,4.42,4.42,0,0,1-.91-1.38,4.32,4.32,0,0,1-.33-1.69V38.35h3.72v1.24H122.6v6.26a3.24,3.24,0,0,0,3.24,3.25v1.23Z"/><path class="cls-9" d="M130.87,29.64a1.75,1.75,0,0,1,1.26.52,1.76,1.76,0,0,1,0,2.5,1.78,1.78,0,0,1-1.26.51,1.68,1.68,0,0,1-1.24-.51,1.79,1.79,0,0,1,0-2.5A1.65,1.65,0,0,1,130.87,29.64Zm-1.42,22.08v-15h1.24v15Zm1.42-21.13a.72.72,0,0,0-.55.24.8.8,0,0,0-.22.56.85.85,0,0,0,.22.57.75.75,0,0,0,.55.23.77.77,0,0,0,.56-.23.78.78,0,0,0,.24-.57.82.82,0,0,0-.8-.8Zm0,.44c.27,0,.4.12.4.36s-.13.36-.4.36a.36.36,0,1,1,0-.72Zm.22,5.68h1.24v15h-1.24Z"/><path class="cls-9" d="M148.28,49.71a7.8,7.8,0,0,1-2.51,1.7,7.6,7.6,0,0,1-3,.6,7.36,7.36,0,0,1-3-.62,7.82,7.82,0,0,1-2.46-1.69,8.24,8.24,0,0,1-1.68-2.48,7.4,7.4,0,0,1-.62-3,7.51,7.51,0,0,1,.62-3,7.91,7.91,0,0,1,1.7-2.46,8.19,8.19,0,0,1,2.47-1.66,7.68,7.68,0,0,1,6,0,8,8,0,0,1,2.47,1.68A7.77,7.77,0,0,1,150,41.23a7.4,7.4,0,0,1,.62,3,7.78,7.78,0,0,1-.59,3A7,7,0,0,1,148.28,49.71Zm-.87-.86a6.17,6.17,0,0,0,1.42-2.06,6.58,6.58,0,0,0,0-5.08,6.58,6.58,0,0,0-1.4-2.07,6.77,6.77,0,0,0-2.1-1.42,6.46,6.46,0,0,0-5.08,0,6.74,6.74,0,0,0-2.08,1.4,6.56,6.56,0,0,0-1.4,2.09,6.44,6.44,0,0,0-.51,2.54,6.49,6.49,0,0,0,2,4.65,6.75,6.75,0,0,0,2.08,1.38,6.23,6.23,0,0,0,2.49.51,6.44,6.44,0,0,0,2.57-.51A6.3,6.3,0,0,0,147.41,48.85Zm-4.63,1.48a5.89,5.89,0,0,1-2.4-.49,6,6,0,0,1-1.95-1.33,6.34,6.34,0,0,1-1.3-1.95,6,6,0,0,1-.47-2.35,6.09,6.09,0,0,1,.47-2.35,6.18,6.18,0,0,1,1.3-1.94,6,6,0,0,1,1.95-1.34,6.17,6.17,0,0,1,4.82,0,6.33,6.33,0,0,1,2,1.34,6,6,0,0,1,1.79,4.29,6.14,6.14,0,0,1-.47,2.39,6,6,0,0,1-1.32,1.93,6.47,6.47,0,0,1-2,1.31A6,6,0,0,1,142.78,50.33Zm0-1.23a4.69,4.69,0,0,0,1.91-.39,4.81,4.81,0,0,0,1.57-1.05,5,5,0,0,0,1.06-1.57,4.82,4.82,0,0,0,0-3.75,5,5,0,0,0-2.63-2.63,4.86,4.86,0,0,0-1.91-.38,4.77,4.77,0,0,0-1.87.38,5,5,0,0,0-2.63,2.63,4.82,4.82,0,0,0,0,3.75,5,5,0,0,0,1.06,1.57,4.81,4.81,0,0,0,1.57,1.05A4.61,4.61,0,0,0,142.78,49.1Z"/><path class="cls-9" d="M154.18,51.72H153v-15h1.23v15Zm1.64-14.14a6.16,6.16,0,0,1,1.73-.84,6.52,6.52,0,0,1,1.92-.29A6.23,6.23,0,0,1,162,37,6.89,6.89,0,0,1,164,38.35a6.43,6.43,0,0,1,1.4,2.06,6.32,6.32,0,0,1,.51,2.53v8.78h-1.24V43a5,5,0,0,0-.42-2,5.81,5.81,0,0,0-1.12-1.68,5.46,5.46,0,0,0-1.66-1.14,5.24,5.24,0,0,0-5,.48,5.78,5.78,0,0,0-1.93,2.27V36.71h1.23Zm8.49,14.14h-1.24V42.94a3.3,3.3,0,0,0-.29-1.39,3.61,3.61,0,0,0-.78-1.14,3.86,3.86,0,0,0-1.15-.79,3.45,3.45,0,0,0-1.38-.29,3.5,3.5,0,0,0-1.42.29,3.86,3.86,0,0,0-1.15.79,3.61,3.61,0,0,0-.78,1.14,3.31,3.31,0,0,0-.3,1.39v8.78h-1.23V42.94A4.64,4.64,0,0,1,155,41a4.85,4.85,0,0,1,2.58-2.56,4.78,4.78,0,0,1,1.92-.39,4.61,4.61,0,0,1,1.87.39A4.82,4.82,0,0,1,163.93,41a4.64,4.64,0,0,1,.38,1.9Z"/><path class="cls-9" d="M180.31,44.14v7.58h-1.24V42.9h4.3a5.46,5.46,0,0,0,2.27-.47,6.11,6.11,0,0,0,1.88-1.27,5.93,5.93,0,0,0,1.27-1.89,5.63,5.63,0,0,0,.48-2.29,5.39,5.39,0,0,0-.48-2.23,6.2,6.2,0,0,0-3.15-3.2,5.48,5.48,0,0,0-2.27-.49h-4.7V51.72h-1.24V29.82h5.94a6.77,6.77,0,0,1,2.75.57,7.1,7.1,0,0,1,2.27,1.55,7.27,7.27,0,0,1,1.55,2.27,6.77,6.77,0,0,1,.57,2.75,6.71,6.71,0,0,1-.57,2.75A7.2,7.2,0,0,1,188.39,42a7.5,7.5,0,0,1-2.27,1.57,6.62,6.62,0,0,1-2.75.58Zm-1.24-12.68h4.3a5.16,5.16,0,0,1,2.13.46,5.92,5.92,0,0,1,1.75,1.2,5.74,5.74,0,0,1,1.18,1.75,5.21,5.21,0,0,1,0,4.19,5.74,5.74,0,0,1-1.18,1.75A5.92,5.92,0,0,1,185.5,42a5.15,5.15,0,0,1-2.13.45h-4.3Zm1.24,1.24v8.53h3.06a3.91,3.91,0,0,0,1.63-.35,4.65,4.65,0,0,0,1.35-.91,4.28,4.28,0,0,0,.93-1.35,4.05,4.05,0,0,0,.35-1.66,4,4,0,0,0-.35-1.64,4.47,4.47,0,0,0-.93-1.34,4.52,4.52,0,0,0-1.35-.93,3.91,3.91,0,0,0-1.63-.35Z"/><path class="cls-9" d="M204.2,50.26A7.54,7.54,0,0,1,199.29,52a7.28,7.28,0,0,1-3-.62,8.11,8.11,0,0,1-2.48-1.68,7.7,7.7,0,0,1-1.69-2.47,7.74,7.74,0,0,1,0-6.07,7.88,7.88,0,0,1,1.69-2.46,8.24,8.24,0,0,1,2.48-1.66,7.44,7.44,0,0,1,3-.6,7.56,7.56,0,0,1,4.91,1.72V36.71h1.24v5.21A6.75,6.75,0,0,0,204,39.61h0a6.74,6.74,0,0,0-2.06-1.39,6.24,6.24,0,0,0-2.56-.53,6.37,6.37,0,0,0-2.54.51,6.58,6.58,0,0,0-2.07,1.4,6.54,6.54,0,0,0-1.39,7.21,6.58,6.58,0,0,0,1.42,2.07,6.87,6.87,0,0,0,2.08,1.38,6.25,6.25,0,0,0,2.5.51,6.39,6.39,0,0,0,2.56-.51,6.17,6.17,0,0,0,2.06-1.42h0a6.92,6.92,0,0,0,1.49-2.33v5.21H204.2ZM195,48.55a6.43,6.43,0,0,1-1.33-1.95,5.81,5.81,0,0,1-.49-2.39,5.91,5.91,0,0,1,.47-2.35,6.15,6.15,0,0,1,1.29-1.94,6.22,6.22,0,0,1,1.95-1.34,6.2,6.2,0,0,1,4.83,0,6.46,6.46,0,0,1,1.95,1.34A6.08,6.08,0,0,1,205,46.56a6.2,6.2,0,0,1-1.31,1.95,6.43,6.43,0,0,1-1.95,1.33,6.22,6.22,0,0,1-4.79,0A6.22,6.22,0,0,1,195,48.55Zm.87-.88a4.68,4.68,0,0,0,3.43,1.43,4.73,4.73,0,0,0,1.91-.39,4.92,4.92,0,0,0,1.57-1.05,5,5,0,0,0,1-1.57,4.82,4.82,0,0,0,0-3.75,5,5,0,0,0-1-1.57,5.12,5.12,0,0,0-1.57-1.06,4.9,4.9,0,0,0-1.91-.38,4.78,4.78,0,0,0-1.88.38,5,5,0,0,0-1.57,1.06,4.81,4.81,0,0,0-1.05,1.57,4.61,4.61,0,0,0-.39,1.87,5,5,0,0,0,.37,1.88A4.48,4.48,0,0,0,195.86,47.67Zm10-11h1.24v15h-1.24Z"/><path class="cls-9" d="M211.6,51.72h-1.24v-15h1.24v15Zm1.64-14.14a5.9,5.9,0,0,1,1.73-.84,6.5,6.5,0,0,1,1.91-.29v1.24a5,5,0,0,0-2.95.9A5.86,5.86,0,0,0,212,40.86V36.71h1.24Zm3.64,1.75a3.53,3.53,0,0,0-1.42.29,3.86,3.86,0,0,0-1.15.79,3.79,3.79,0,0,0-.78,1.14,3.46,3.46,0,0,0-.29,1.39v8.78H212V42.94a4.81,4.81,0,0,1,.38-1.9,5.06,5.06,0,0,1,1-1.53,4.88,4.88,0,0,1,1.55-1,4.69,4.69,0,0,1,1.91-.39Z"/><path class="cls-9" d="M221.18,51.72h-1.24V29.82h1.24Zm1.64-9.44,5.57-5.57h1.75L223,43.89l7.86,7.83h-1.74l-6.27-6.27v6.27h-1.24V29.82h1.24Zm7.94-5.57h1.75l-7.18,7.18,7.84,7.83h-1.75l-7.84-7.83L228.43,39Z"/><path class="cls-9" d="M39,234.81v-19H36.26l.29-1.23h3.72v20.25Zm2.88-21.89v21.89H40.67V214.16h-4l.33-1.24Z"/><path class="cls-9" d="M46.94,231.64a1.81,1.81,0,0,1,1.78,1.79v1A2.4,2.4,0,0,1,48,236.2a2.49,2.49,0,0,1-1.8.72v-1a1.44,1.44,0,0,0,1.49-1.46v-1a.73.73,0,0,0-.72-.73.65.65,0,0,0-.5.22.73.73,0,0,0-.2.51.68.68,0,0,0,.2.49.7.7,0,0,0,.5.2.42.42,0,0,0,.29-.07v.36a1.08,1.08,0,0,1-.28.75,1,1,0,0,1-.78.31V235a1.72,1.72,0,0,1-.71-.63,1.68,1.68,0,0,1-.27-.93,1.74,1.74,0,0,1,.51-1.26A1.66,1.66,0,0,1,46.94,231.64Zm0,1.39a.35.35,0,0,1,.4.4c0,.24-.14.36-.4.36a.32.32,0,0,1-.37-.36C46.57,233.16,46.69,233,46.94,233Z"/><path class="cls-9" d="M58.3,232.12h8.27v1.23h-11l8.59-10a5.74,5.74,0,0,0,1.24-3.68,5.36,5.36,0,0,0-.44-2.17,5.5,5.5,0,0,0-1.22-1.82A6.3,6.3,0,0,0,62,214.41a5.42,5.42,0,0,0-2.24-.47,5.53,5.53,0,0,0-1.82.31,5.65,5.65,0,0,0-1.68.89,6.13,6.13,0,0,0-1.31,1.38,4.87,4.87,0,0,0-.73,1.79L53,218a6.14,6.14,0,0,1,.91-2.13,8,8,0,0,1,1.55-1.68,6.85,6.85,0,0,1,2-1.09,7,7,0,0,1,2.27-.38,6.56,6.56,0,0,1,2.68.55,6.89,6.89,0,0,1,2.22,1.51A7,7,0,0,1,66.13,217a6.56,6.56,0,0,1,.55,2.68,7.84,7.84,0,0,1-.36,2.35,6.27,6.27,0,0,1-1.17,2.09Zm8.27,1.63V235H53.71l-.58-1.27,9.8-11.44a3.33,3.33,0,0,0,.64-1.17,5.38,5.38,0,0,0,.23-1.31v-.14a3.79,3.79,0,0,0-.33-1.55,4,4,0,0,0-.87-1.29,4.16,4.16,0,0,0-1.29-.88,3.9,3.9,0,0,0-1.59-.33,4,4,0,0,0-2.48.84,4,4,0,0,0-1.45,2.22v0l-1.2-.33a5.54,5.54,0,0,1,.74-1.66,4.89,4.89,0,0,1,1.19-1.25,5.6,5.6,0,0,1,1.51-.8,4.85,4.85,0,0,1,1.69-.3,5.09,5.09,0,0,1,2.06.42,5.32,5.32,0,0,1,2.81,2.79,5.45,5.45,0,0,1,.45,2v.26a4.66,4.66,0,0,1-.31,1.67,6.24,6.24,0,0,1-.82,1.53l-9.22,10.71Z"/><path class="cls-9" d="M70.21,219.4a12.39,12.39,0,0,1,1.17-2.71,9,9,0,0,1,1.75-2.19,7.5,7.5,0,0,1,5.24-2,7.38,7.38,0,0,1,3.85,1A9.06,9.06,0,0,1,85,216.07a11.68,11.68,0,0,1,1.67,3.62,15.57,15.57,0,0,1,0,8.35A11.78,11.78,0,0,1,85,231.66a8.76,8.76,0,0,1-2.77,2.55,8.11,8.11,0,0,1-7.69,0,8.38,8.38,0,0,1-2.75-2.55A12,12,0,0,1,70.12,228a15.91,15.91,0,0,1-.56-4.19A15.41,15.41,0,0,1,70.21,219.4Zm1.17.35a14,14,0,0,0-.44,2,14.89,14.89,0,0,0,.33,5.75,11,11,0,0,0,1.4,3.26,7.37,7.37,0,0,0,2.35,2.3,6.82,6.82,0,0,0,6.7,0,7.54,7.54,0,0,0,2.37-2.3,10.79,10.79,0,0,0,1.42-3.26,14.33,14.33,0,0,0,.48-3.67,14.14,14.14,0,0,0-.48-3.66,10.61,10.61,0,0,0-1.42-3.23,7.46,7.46,0,0,0-2.37-2.31,6.77,6.77,0,0,0-5.84-.4,7,7,0,0,0-2,1.27,8,8,0,0,0-1.51,1.91A11,11,0,0,0,71.38,219.75Zm7-5.59a5.85,5.85,0,0,1,3.22.87,7.43,7.43,0,0,1,2.24,2.26,10,10,0,0,1,1.32,3.11,14.34,14.34,0,0,1,0,6.89,10.43,10.43,0,0,1-1.3,3.11,7.18,7.18,0,0,1-2.23,2.26,5.79,5.79,0,0,1-3.25.88,5.65,5.65,0,0,1-3.21-.9,7.73,7.73,0,0,1-2.25-2.27,10.25,10.25,0,0,1-1.31-3.12,14.38,14.38,0,0,1-.42-3.4,13.72,13.72,0,0,1,.44-3.45A10.22,10.22,0,0,1,73,217.29,7.43,7.43,0,0,1,75.21,215,5.76,5.76,0,0,1,78.39,214.16Zm0,1.23a4.47,4.47,0,0,0-2.71.81,6.58,6.58,0,0,0-1.84,2A9.08,9.08,0,0,0,72.76,221a13.23,13.23,0,0,0-.32,2.88,13.75,13.75,0,0,0,.32,2.93,8.88,8.88,0,0,0,1.06,2.73,6.43,6.43,0,0,0,1.84,2,4.52,4.52,0,0,0,2.71.79,4.66,4.66,0,0,0,2.74-.8,6.55,6.55,0,0,0,1.85-2A8.86,8.86,0,0,0,84,226.76a13.53,13.53,0,0,0,.33-2.91A13.28,13.28,0,0,0,84,221,9.52,9.52,0,0,0,83,218.25a6.41,6.41,0,0,0-1.85-2.05A4.6,4.6,0,0,0,78.37,215.39Z"/><path class="cls-9" d="M90.36,219.4a12.87,12.87,0,0,1,1.16-2.71,9.22,9.22,0,0,1,1.75-2.19A7.91,7.91,0,0,1,95.6,213a7.82,7.82,0,0,1,2.92-.52,7.31,7.31,0,0,1,3.84,1,8.84,8.84,0,0,1,2.77,2.57,11.69,11.69,0,0,1,1.68,3.62,15.84,15.84,0,0,1,0,8.35,11.8,11.8,0,0,1-1.68,3.62,8.55,8.55,0,0,1-2.77,2.55,8.09,8.09,0,0,1-7.68,0,8.29,8.29,0,0,1-2.75-2.55A11.77,11.77,0,0,1,90.27,228a15.51,15.51,0,0,1-.57-4.19A15.08,15.08,0,0,1,90.36,219.4Zm1.16.35a14,14,0,0,0-.43,2,14.35,14.35,0,0,0,.33,5.75,11,11,0,0,0,1.4,3.26,7.37,7.37,0,0,0,2.35,2.3,6.82,6.82,0,0,0,6.7,0,7.54,7.54,0,0,0,2.37-2.3,11,11,0,0,0,1.42-3.26,14.78,14.78,0,0,0,.47-3.67,14.58,14.58,0,0,0-.47-3.66,10.86,10.86,0,0,0-1.42-3.23,7.46,7.46,0,0,0-2.37-2.31,6.79,6.79,0,0,0-5.85-.4,6.84,6.84,0,0,0-2,1.27,7.77,7.77,0,0,0-1.51,1.91A11,11,0,0,0,91.52,219.75Zm7-5.59a5.8,5.8,0,0,1,3.21.87,7.58,7.58,0,0,1,2.25,2.26,10.19,10.19,0,0,1,1.31,3.11,14.34,14.34,0,0,1,0,6.89A10.41,10.41,0,0,1,104,230.4a7.29,7.29,0,0,1-2.23,2.26,5.81,5.81,0,0,1-3.25.88,5.68,5.68,0,0,1-3.22-.9,7.58,7.58,0,0,1-2.24-2.27,10,10,0,0,1-1.32-3.12,14.38,14.38,0,0,1-.42-3.4,14.19,14.19,0,0,1,.44-3.45,10.48,10.48,0,0,1,1.33-3.11A7.58,7.58,0,0,1,95.36,215,5.74,5.74,0,0,1,98.54,214.16Zm0,1.23a4.47,4.47,0,0,0-2.71.81,6.34,6.34,0,0,0-1.84,2A9.08,9.08,0,0,0,92.91,221a13.26,13.26,0,0,0-.33,2.88,13.78,13.78,0,0,0,.33,2.93A8.88,8.88,0,0,0,94,229.51a6.2,6.2,0,0,0,1.84,2,4.52,4.52,0,0,0,2.71.79,4.61,4.61,0,0,0,2.73-.8,6.71,6.71,0,0,0,1.86-2,9.12,9.12,0,0,0,1.06-2.71,14.16,14.16,0,0,0,.32-2.91,13.9,13.9,0,0,0-.32-2.85,9.82,9.82,0,0,0-1.06-2.75,6.55,6.55,0,0,0-1.86-2.05A4.55,4.55,0,0,0,98.52,215.39Z"/><path class="cls-9" d="M125.37,237.69h-1.24V235.1a7.19,7.19,0,0,1-2.92-1.22,6.64,6.64,0,0,1-2-2.31l1.1-.58a5.36,5.36,0,0,0,2,2.16,5.54,5.54,0,0,0,3,.82h.11Zm-3.65-7.51a3.65,3.65,0,0,0,1,1.23,5.16,5.16,0,0,0,1.4.74v-8.6c-.58-.29-1.13-.6-1.64-.92a6,6,0,0,1-1.31-1.13,4.83,4.83,0,0,1-.86-1.48,5.82,5.82,0,0,1-.31-2,5.33,5.33,0,0,1,1.15-3.37,5.54,5.54,0,0,1,3-2V210h1.24v3.75a4.32,4.32,0,0,0-1.59.39,4.46,4.46,0,0,0-1.31.91,4,4,0,0,0-.89,1.35,4.19,4.19,0,0,0-.33,1.65,4,4,0,0,0,.35,1.75,4.32,4.32,0,0,0,.91,1.28,5.55,5.55,0,0,0,1.31.94c.5.27,1,.53,1.55.77v10.75h-.11a5.14,5.14,0,0,1-2.73-.75,5,5,0,0,1-1.9-2Zm3.65-7.86c-.49-.22-1-.45-1.41-.7a5.16,5.16,0,0,1-1.18-.85,4,4,0,0,1-.82-1.15,3.61,3.61,0,0,1-.31-1.57,3.88,3.88,0,0,1,.29-1.49,4,4,0,0,1,.8-1.22,3.62,3.62,0,0,1,1.19-.82,4.33,4.33,0,0,1,1.44-.33Zm-1.24-6.53a3.29,3.29,0,0,0-.89,1,2.45,2.45,0,0,0-.35,1.29,2.31,2.31,0,0,0,.35,1.32,3.65,3.65,0,0,0,.89.91ZM125.8,210H127v2.74a4.94,4.94,0,0,1,1.57.71,5.22,5.22,0,0,1,1.24,1.14l-.95.77a4.13,4.13,0,0,0-3.1-1.61ZM127,221.7c.73.34,1.41.7,2,1.07a7.18,7.18,0,0,1,1.64,1.33,5.69,5.69,0,0,1,1.08,1.77,7.39,7.39,0,0,1,0,4.62,6.81,6.81,0,0,1-1.06,2,7.33,7.33,0,0,1-1.64,1.55,6.45,6.45,0,0,1-2.08,1v2.73H125.8v-3.75a5.75,5.75,0,0,0,2-.59,5.43,5.43,0,0,0,1.62-1.23,6.07,6.07,0,0,0,1.09-1.75,5.42,5.42,0,0,0,.4-2.08,5,5,0,0,0-.44-2.22,5.16,5.16,0,0,0-1.14-1.57,6.62,6.62,0,0,0-1.61-1.09q-.89-.43-1.8-.84l-.15-.07v-8.31a3.8,3.8,0,0,1,2.77,1.42l-.94.77-.28-.28a1.56,1.56,0,0,0-.31-.23ZM125.8,223l1.73.82a6.32,6.32,0,0,1,1.52,1,5,5,0,0,1,1.07,1.44,4.52,4.52,0,0,1,.42,2,5,5,0,0,1-.36,1.89,5.6,5.6,0,0,1-1,1.63,5.73,5.73,0,0,1-1.52,1.16,4.5,4.5,0,0,1-1.84.53ZM127,231.9a3.76,3.76,0,0,0,1.64-1.5,3.94,3.94,0,0,0,.62-2.11,3.17,3.17,0,0,0-.65-2.11A5.66,5.66,0,0,0,127,224.9Z"/><path class="cls-9" d="M134.91,212.92h6.45a10.56,10.56,0,0,1,4.21.85,11.1,11.1,0,0,1,5.86,5.81,10.32,10.32,0,0,1,.9,4.27,10.45,10.45,0,0,1-.88,4.24,11.26,11.26,0,0,1-5.86,5.85,10.54,10.54,0,0,1-4.23.87h-6.45Zm1.24,1.24v19.41h5.21a9.37,9.37,0,0,0,3.77-.76,9.81,9.81,0,0,0,5.19-5.18,9.38,9.38,0,0,0,.77-3.77,9.06,9.06,0,0,0-.79-3.76,9.92,9.92,0,0,0-2.11-3.09,10,10,0,0,0-3.1-2.09,9.25,9.25,0,0,0-3.73-.76Zm.4.4h4.82a9,9,0,0,1,3.6.74,10,10,0,0,1,3,2,9,9,0,0,1,2,2.95,8.91,8.91,0,0,1,.74,3.59,9,9,0,0,1-.74,3.62,9.12,9.12,0,0,1-2,2.95,10,10,0,0,1-3,2,9,9,0,0,1-3.6.74h-4.82Zm1.24,1.23v16.14h3.57a7.82,7.82,0,0,0,3.11-.63,8.36,8.36,0,0,0,2.57-1.73,8.54,8.54,0,0,0,1.75-2.57,7.67,7.67,0,0,0,.66-3.15,7.52,7.52,0,0,0-.66-3.14,8.42,8.42,0,0,0-4.33-4.28,7.78,7.78,0,0,0-3.1-.64Z"/><path class="cls-9" d="M157.72,227.23v7.58h-1.24V226h4.3a5.47,5.47,0,0,0,2.27-.48,5.83,5.83,0,0,0,1.88-1.27,5.93,5.93,0,0,0,1.27-1.89,5.59,5.59,0,0,0,.48-2.28,5.44,5.44,0,0,0-.48-2.24,6.41,6.41,0,0,0-1.27-1.89,6.08,6.08,0,0,0-1.88-1.3,5.33,5.33,0,0,0-2.27-.49h-4.7v20.65h-1.24V212.92h5.94a6.93,6.93,0,0,1,2.75.56,7.39,7.39,0,0,1,3.82,3.83,6.92,6.92,0,0,1,0,5.5,7.1,7.1,0,0,1-1.55,2.27,7.5,7.5,0,0,1-2.27,1.57,6.62,6.62,0,0,1-2.75.58Zm-1.24-12.67h4.3a5.15,5.15,0,0,1,2.13.45,6.18,6.18,0,0,1,1.75,1.2,5.74,5.74,0,0,1,1.18,1.75,5.21,5.21,0,0,1,0,4.19,5.65,5.65,0,0,1-2.93,2.95,5,5,0,0,1-2.13.46h-4.3Zm1.24,1.23v8.53h3.06a3.81,3.81,0,0,0,1.64-.35,4.47,4.47,0,0,0,1.34-.91,4.25,4.25,0,0,0,1.28-3,3.92,3.92,0,0,0-.35-1.64,4.52,4.52,0,0,0-.93-1.35,4.35,4.35,0,0,0-1.34-.93,4,4,0,0,0-1.64-.35Z"/><path class="cls-9" d="M173.16,215.83a11.76,11.76,0,0,1,3.68-2.46,11.12,11.12,0,0,1,4.34-.85,10.85,10.85,0,0,1,4.41.91,11.32,11.32,0,0,1,3.6,2.47,12,12,0,0,1,2.42,3.61,10.64,10.64,0,0,1,.9,4.34,10.88,10.88,0,0,1-.9,4.39,11.3,11.3,0,0,1-2.44,3.6,11.46,11.46,0,0,1-3.6,2.44,11.08,11.08,0,0,1-8.75,0,11.56,11.56,0,0,1-6.06-6,10.76,10.76,0,0,1-.91-4.42,11.12,11.12,0,0,1,.85-4.34A11.65,11.65,0,0,1,173.16,215.83Zm.88.87a10,10,0,0,0-2.95,7.13,9.6,9.6,0,0,0,.8,3.91,10.47,10.47,0,0,0,2.18,3.22,10.6,10.6,0,0,0,3.21,2.18,9.91,9.91,0,0,0,7.8,0,10.56,10.56,0,0,0,3.2-2.18,10.68,10.68,0,0,0,2.19-3.22,9.77,9.77,0,0,0,.8-3.91,9.6,9.6,0,0,0-.8-3.89,10.59,10.59,0,0,0-2.17-3.2,10.08,10.08,0,0,0-3.21-2.18,9.57,9.57,0,0,0-3.91-.81,10,10,0,0,0-3.88.77A9.83,9.83,0,0,0,174,216.7Zm7.14-2.54a9.14,9.14,0,0,1,3.73.78A10.39,10.39,0,0,1,188,217a9.82,9.82,0,0,1,2.09,3.08,9.44,9.44,0,0,1,0,7.47,9.79,9.79,0,0,1-5.19,5.19,9.44,9.44,0,0,1-7.47,0,9.88,9.88,0,0,1-5.19-5.19,9.56,9.56,0,0,1,0-7.47,9.79,9.79,0,0,1,2.08-3.08,10,10,0,0,1,3.08-2.09A9.19,9.19,0,0,1,181.18,214.16Zm0,1.23a8.16,8.16,0,0,0-3.3.68,8.57,8.57,0,0,0-2.7,1.84,8.82,8.82,0,0,0-1.8,2.69,8.43,8.43,0,0,0,0,6.54,8.74,8.74,0,0,0,1.82,2.7,8.35,8.35,0,0,0,2.7,1.8,8.44,8.44,0,0,0,9.21-1.8,8.4,8.4,0,0,0,1.82-2.7,8.14,8.14,0,0,0,.68-3.29,8,8,0,0,0-.68-3.25,8.7,8.7,0,0,0-1.82-2.69,8.44,8.44,0,0,0-2.67-1.84A8.06,8.06,0,0,0,181.18,215.39Z"/><path class="cls-9" d="M206.35,234.81h-11V212.92h1.24v20.65h9.8Zm0-1.64H197V212.92h1.24v19h8.16v1.24Z"/><path class="cls-9" d="M211.78,234.81V224.57l-8.09-11.65h1.49L213,224.17v10.64Zm-4.59-21.89.62.83,5.42,7.84,6.05-8.67h1.5l-7.55,10.82-5.9-8.49-1.64-2.33Zm7.5,19v2.88h-1.24V224.17l5.61-8.12,2.23-3.13h1.49L220.59,216l-5.9,8.56Z"/></g></g></svg>