<svg xmlns="http://www.w3.org/2000/svg" viewBox="0 0 253.51 253.51"><defs><style>.cls-1{fill:#cfe7d7;stroke-width:5px;}.cls-1,.cls-3{stroke:#000;}.cls-2{fill:#f15959;}.cls-3,.cls-4{fill:none;}.cls-4,.cls-5{stroke:#231f20;stroke-miterlimit:10;}.cls-4{stroke-width:2px;}.cls-5,.cls-9{fill:#181a26;}.cls-6{fill:#7a88a2;}.cls-7{fill:#455e7b;}.cls-8{fill:#fefefd;}.cls-10{fill:#cfe9d9;}.cls-11{fill:#231f20;}</style></defs><g id="Layer_2" data-name="Layer 2"><g id="Layer_1-2" data-name="Layer 1"><rect class="cls-1" x="2.5" y="2.5" width="248.51" height="248.51"/><rect class="cls-2" x="8.36" y="8.36" width="236.8" height="62.45"/><rect class="cls-3" x="8.36" y="8.36" width="236.8" height="62.45"/><line class="cls-4" x1="52.16" y1="207.59" x2="207.64" y2="207.59"/><line class="cls-4" x1="185.2" y1="182.91" x2="205.16" y2="182.91"/><line class="cls-4" x1="52.36" y1="182.91" x2="79.4" y2="182.91"/><line class="cls-4" x1="111.33" y1="182.91" x2="153.9" y2="182.91"/><path class="cls-5" d="M129.87,88c-24.77.09-45.12,20.35-45.07,44.9A45.44,45.44,0,0,0,94,160.13h2.7a43.38,43.38,0,0,1-9.46-31.94C88.73,112.4,101,97.25,116,92.52a7.83,7.83,0,0,1,1.89-.18C131,87.88,143,90.41,154.28,98a40.3,40.3,0,0,1,17.35,25.29,42.63,42.63,0,0,1-8.4,36.89h2.69A44.41,44.41,0,0,0,175,133C174.91,108.2,154.54,87.88,129.87,88Z"/><path class="cls-6" d="M164.82,124.41l.06-2.66c-.57-.51-1.47-.92-1.67-1.56a31.15,31.15,0,0,0-13-17.93c-.51-.35-.66-1.23-1-1.87.73,0,1.67-.17,2.15.2,2.6,2,5.09,4.24,7.62,6.38-1.17-2.11-2.36-4.22-3.5-6.36-.46-.86-.79-1.78-1.19-2.66C143,90.41,131,87.88,117.9,92.34c-3.78,2.42-7.85,4.53-11.31,7.35a38.56,38.56,0,0,0-13.17,19.88,8,8,0,0,1,.29,2.71A32.84,32.84,0,0,0,95.33,146c.68,1.45.64,2.38-1.3,2.31,1,2,1.92,4,2.86,6.07.22-.68.44-1.36.66-2.07a12.42,12.42,0,0,1,1.76,1.35,45.7,45.7,0,0,1,3.41,3.69,7.54,7.54,0,0,1,.84,1.94,18.05,18.05,0,0,1-2.13-.22,8.14,8.14,0,0,1-1.68-.75c.29.59.51,1.21.82,1.78H136.4c-.55-.5-1.15-1-1.23-1.58s.9-1.37,1.78-2.55c.9,1.21,1.91,2,1.8,2.57a2.26,2.26,0,0,1-.72,1.08,2,2,0,0,0-.29.24,3.7,3.7,0,0,1-.29.24h13.79c1.13-1.1,2.23-2.24,3.37-3.34-3.67-.6-5.39-2.82-5.19-7.19a19,19,0,0,1,4.9-12.17,11.86,11.86,0,0,1,2.27-1.85c3.17-2,5.43-1.18,7.68,2.64q.25-3.09.55-6.15c-.33-.29-.95-.58-.95-.88-.07-2.05,0-4.12.07-6.16C164,124.81,164.51,124.61,164.82,124.41ZM129,98.81a3.91,3.91,0,0,1,2.62-2.47c.87-.08,1.93,1.28,2.9,2,0,.4,0,.77,0,1.17-1,.66-2,1.78-3,1.89A2.16,2.16,0,0,1,129,98.81Zm1,4.9c.71,1.23,1.43,1.94,1.39,2.58a2.17,2.17,0,0,1-1.61,1.32c-.57,0-1.49-1-1.47-1.5S129.18,104.86,130,103.71Zm-18.25,53.45a5.58,5.58,0,0,1-5.53-5.37,5.37,5.37,0,0,1,5.48-5.32,5.27,5.27,0,0,1,5.24,5.28A5.41,5.41,0,0,1,111.79,157.16Zm-4.12-24.83c.11-.84,1.19-1.54,1.85-2.29.68.64,1.87,1.28,1.94,2s-.88,1.67-1.81,3.19C108.64,133.8,107.56,133,107.67,132.33Zm4.45-8.84a5.64,5.64,0,0,1-7.15-3.43c-1.7-4.6,1.51-10.87,6.27-12.15,4.22-1.14,7.58,1.52,7.63,6A10.53,10.53,0,0,1,112.12,123.49Zm19.18,16.78a7.21,7.21,0,1,1,7.21-7.24A7,7,0,0,1,131.3,140.27Zm12.55-25.67a5.86,5.86,0,0,1-5.74-5.5,5.61,5.61,0,0,1,5.7-5.67,5.36,5.36,0,0,1,5.52,5.52A5.53,5.53,0,0,1,143.85,114.6Z"/><path class="cls-7" d="M163.23,160.13h-12c1.13-1.1,2.23-2.24,3.37-3.34,2-1.41,4.33-2.51,5.92-4.29,3.58-4,4.33-9,3.74-14.28q.25-3.09.55-6.15c1.49-1.68,1.49-5.9,0-7.66l.06-2.66c.07-.84.42-1.8.13-2.49-1.43-3.43-3-6.77-4.57-10.14-.18-.24-.33-.5-.51-.74-.33-.49-.63-1-1-1.46v0c-1.17-2.11-2.36-4.22-3.5-6.36-.46-.86-.79-1.78-1.19-2.66a40.3,40.3,0,0,1,17.35,25.29A42.63,42.63,0,0,1,163.23,160.13Z"/><path class="cls-8" d="M117.9,92.34c-3.78,2.42-7.85,4.53-11.31,7.35a38.56,38.56,0,0,0-13.17,19.88c-.62.77-1.54,1.43-1.8,2.29A34.72,34.72,0,0,0,94,148.34c1,2,1.92,4,2.86,6.07l1.46,2.29c.15.2.33.4.48.59l.9,1,0,0c.29.59.51,1.21.82,1.78H96.65a43.38,43.38,0,0,1-9.46-31.94C88.73,112.4,101,97.25,116,92.52A7.83,7.83,0,0,1,117.9,92.34Z"/><path class="cls-9" d="M164.27,138.22c-2.25-3.82-4.51-4.62-7.68-2.64a11.86,11.86,0,0,0-2.27,1.85,19,19,0,0,0-4.9,12.17c-.2,4.37,1.52,6.59,5.19,7.19,2-1.41,4.33-2.51,5.92-4.29C164.11,148.47,164.86,143.46,164.27,138.22Zm-6.65,14.56c-.94.95-3.21,1.81-4,1.32-1.25-.77-1.76-2.72-2.16-3.45C152,145.06,153.4,141,157,138c.86-.71,2.55-1.3,3.41-.91a4.22,4.22,0,0,1,1.87,3.08A15.31,15.31,0,0,1,157.62,152.78Z"/><path class="cls-9" d="M111.24,107.91c-4.76,1.28-8,7.55-6.27,12.15a5.64,5.64,0,0,0,7.15,3.43,10.53,10.53,0,0,0,6.75-9.57C118.82,109.43,115.46,106.77,111.24,107.91Zm.68,13.31a3.56,3.56,0,0,1-5.19-3,8.24,8.24,0,0,1,4.92-8.18c2.88-1,4.93.68,4.91,4.07A7.53,7.53,0,0,1,111.92,121.22Z"/><path class="cls-9" d="M131.21,125.86a7.21,7.21,0,0,0,.09,14.41,7.21,7.21,0,1,0-.09-14.41Zm0,12.32a5.14,5.14,0,0,1-5-5.19,5.22,5.22,0,0,1,5.16-5,5.12,5.12,0,1,1-.17,10.23Z"/><path class="cls-9" d="M94,148.33a34.57,34.57,0,0,1-2.41-26.46c.26-.87,1.19-1.53,1.81-2.29a7.7,7.7,0,0,1,.27,2.69A32.78,32.78,0,0,0,95.34,146C96,147.48,96,148.4,94,148.33Z"/><path class="cls-9" d="M143.81,103.43a5.61,5.61,0,0,0-5.7,5.67,5.86,5.86,0,0,0,5.74,5.5,5.53,5.53,0,0,0,5.48-5.65A5.36,5.36,0,0,0,143.81,103.43Zm.09,8.88a3.2,3.2,0,0,1-3.48-3.19,3.59,3.59,0,0,1,3.39-3.63,3.66,3.66,0,0,1,3.43,3.44A3.29,3.29,0,0,1,143.9,112.31Z"/><path class="cls-9" d="M111.74,146.47a5.37,5.37,0,0,0-5.48,5.32,5.58,5.58,0,0,0,5.53,5.37,5.41,5.41,0,0,0,5.19-5.41A5.27,5.27,0,0,0,111.74,146.47Zm-.48,8.38a2.83,2.83,0,0,1-2.66-3.14,3,3,0,0,1,3.27-3.13,3.06,3.06,0,0,1,2.91,3.32C114.69,153.69,113.57,154.9,111.26,154.85Z"/><path class="cls-6" d="M160.44,109.12c1.55,3.37,3.15,6.72,4.58,10.13.29.69-.08,1.66-.15,2.5-.56-.51-1.47-.93-1.65-1.56a31.21,31.21,0,0,0-13.06-17.93c-.51-.34-.64-1.24-.95-1.88.72.06,1.66-.16,2.14.21,2.6,2,5.09,4.24,7.62,6.38v0l1,1.48,0,0Z"/><path class="cls-9" d="M134.51,99.49c-1,.67-2,1.77-3,1.9A2.16,2.16,0,0,1,129,98.81a3.88,3.88,0,0,1,2.61-2.46c.88-.1,1.94,1.26,2.92,2Z"/><path class="cls-9" d="M98.34,156.7l-1.44-2.28c.22-.69.44-1.38.65-2.07a14.61,14.61,0,0,1,1.77,1.33c1.18,1.19,2.34,2.41,3.4,3.71a7.55,7.55,0,0,1,.84,1.92,15.06,15.06,0,0,1-2.14-.21,9.55,9.55,0,0,1-1.67-.74v0l-.92-1h0Z"/><path class="cls-6" d="M164.82,124.41c1.5,1.76,1.49,6,0,7.65-.33-.29-.94-.57-.95-.87-.06-2.05,0-4.11.08-6.17C164,124.81,164.51,124.61,164.82,124.41Z"/><path class="cls-9" d="M109.65,135.22c-1-1.41-2.08-2.24-2-2.9.12-.83,1.19-1.53,1.85-2.29.69.66,1.88,1.28,1.93,2S110.56,133.7,109.65,135.22Z"/><path class="cls-6" d="M138.75,158.57a2.26,2.26,0,0,1-.72,1.08,2,2,0,0,0-.29.24,3.7,3.7,0,0,1-.29.24l-.26.27a1.45,1.45,0,0,0-.26.24c-.16-.18-.36-.35-.53-.51-.55-.5-1.15-1-1.23-1.58s.9-1.37,1.78-2.55C137.85,157.21,138.86,158,138.75,158.57Z"/><path class="cls-9" d="M130.05,103.72c.7,1.22,1.43,1.93,1.37,2.57a2.07,2.07,0,0,1-1.61,1.31c-.55,0-1.48-1-1.46-1.49S129.19,104.85,130.05,103.72Z"/><path class="cls-6" d="M160,108.41l-1-1.48Z"/><path class="cls-6" d="M160.44,109.12l-.51-.74Z"/><path class="cls-6" d="M98.82,157.29l.92,1Z"/><path class="cls-6" d="M98.34,156.7l.49.6Z"/><path class="cls-7" d="M151.46,150.65C152,145.05,153.4,141,157,138c.88-.71,2.56-1.29,3.43-.92a4.22,4.22,0,0,1,1.85,3.1,15.29,15.29,0,0,1-4.69,12.58c-.93.94-3.2,1.8-4,1.31C152.37,153.34,151.87,151.38,151.46,150.65Z"/><path class="cls-7" d="M116.57,114.14a7.58,7.58,0,0,1-4.65,7.09,3.58,3.58,0,0,1-5.2-3,8.21,8.21,0,0,1,4.93-8.18C114.54,109.07,116.58,110.75,116.57,114.14Z"/><path class="cls-7" d="M126.24,133a5.23,5.23,0,0,1,5.18-5,5.12,5.12,0,1,1-.19,10.23A5.14,5.14,0,0,1,126.24,133Z"/><path class="cls-7" d="M147.24,108.93a3.3,3.3,0,0,1-3.34,3.39,3.2,3.2,0,0,1-3.48-3.19,3.57,3.57,0,0,1,3.39-3.64A3.67,3.67,0,0,1,147.24,108.93Z"/><path class="cls-7" d="M111.25,154.85a2.84,2.84,0,0,1-2.66-3.14,3,3,0,0,1,3.28-3.13,3,3,0,0,1,2.9,3.32C114.69,153.68,113.58,154.89,111.25,154.85Z"/><polyline class="cls-4" points="52.16 159.26 93.95 159.26 96.65 159.26 100.57 159.26 136.4 159.26 137.45 159.26 151.25 159.26 163.23 159.26 165.92 159.26 207.64 159.26"/><path class="cls-6" d="M112.94,129s-6.06-1.3-6.28-.8-3.8,6-3.1,7,6.64,5.37,8,5.53,3.85-6.21,3.85-6.21Z"/><path class="cls-6" d="M139.09,97.07s-9.18-2.92-9.75-2.52-5,3.41-4.71,7.47.81,7.88,2.6,8.12,5.54-.73,7.93-3.9S139.09,97.07,139.09,97.07Z"/><path class="cls-6" d="M154.28,98s17.71,22.24,10,40.27Z"/><rect class="cls-10" x="46.08" y="160.56" width="163.24" height="9.44"/><path class="cls-11" d="M39.58,28.35h2v21.9H40.38V29.56h-.29l-8.85,8.92-8.82-8.92h-.29V50.25H20.89V28.35h2l8.31,8.38Zm-.88,21.9v-17l-7.46,7.54-7.47-7.54v17H22.53v-20l8.71,8.79,8.7-8.79v20Z"/><path class="cls-11" d="M57.76,48.25a8,8,0,0,1-2.52,1.69,7.56,7.56,0,0,1-3,.6,7.44,7.44,0,0,1-3-.62,8.05,8.05,0,0,1-2.46-1.69,8.27,8.27,0,0,1-1.67-2.48,7.24,7.24,0,0,1-.62-3,7.35,7.35,0,0,1,.62-3,7.88,7.88,0,0,1,1.69-2.46,8,8,0,0,1,2.48-1.65,7.44,7.44,0,0,1,3-.61,7.52,7.52,0,0,1,3,.62,8.23,8.23,0,0,1,2.48,1.68,7.91,7.91,0,0,1,1.67,2.48,7.24,7.24,0,0,1,.62,3,7.77,7.77,0,0,1-.58,3A7.41,7.41,0,0,1,57.76,48.25Zm-.88-.87a6.17,6.17,0,0,0,1.42-2.06,6.5,6.5,0,0,0-1.4-7.15,6.61,6.61,0,0,0-2.09-1.42,6.3,6.3,0,0,0-2.55-.53,6.37,6.37,0,0,0-2.54.51,6.7,6.7,0,0,0-2.07,1.4,6.6,6.6,0,0,0-1.39,7.21,6.74,6.74,0,0,0,1.42,2.07,6.87,6.87,0,0,0,2.08,1.38,6.25,6.25,0,0,0,2.5.51,6.44,6.44,0,0,0,2.57-.51A6.36,6.36,0,0,0,56.88,47.38Zm-4.62,1.48a5.94,5.94,0,0,1-2.41-.49,6,6,0,0,1-2-1.33,6.37,6.37,0,0,1-1.29-1.95,6.09,6.09,0,0,1,0-4.69,6.26,6.26,0,0,1,1.29-1.95,6,6,0,0,1,2-1.33,6.08,6.08,0,0,1,4.83,0,6.25,6.25,0,0,1,2,1.33,6,6,0,0,1,1.31,1.95,5.82,5.82,0,0,1,.47,2.34,6,6,0,0,1-1.78,4.32,6.34,6.34,0,0,1-2,1.31A5.89,5.89,0,0,1,52.26,48.86Zm0-1.23a4.73,4.73,0,0,0,1.91-.39,4.92,4.92,0,0,0,1.57-1.05,4.81,4.81,0,0,0,1-1.57,4.7,4.7,0,0,0,0-3.75,4.81,4.81,0,0,0-1-1.57,4.92,4.92,0,0,0-1.57-1,4.73,4.73,0,0,0-1.91-.39,4.66,4.66,0,0,0-1.88.39,4.85,4.85,0,0,0-2.62,2.62,4.7,4.7,0,0,0,0,3.75,4.85,4.85,0,0,0,2.62,2.62A4.66,4.66,0,0,0,52.26,47.63Z"/><path class="cls-11" d="M75.32,48.25a8,8,0,0,1-2.52,1.69,7.56,7.56,0,0,1-3,.6,7.44,7.44,0,0,1-3-.62,8.05,8.05,0,0,1-2.46-1.69,8.27,8.27,0,0,1-1.67-2.48,7.24,7.24,0,0,1-.62-3,7.35,7.35,0,0,1,.62-3,7.88,7.88,0,0,1,1.69-2.46,8,8,0,0,1,2.48-1.65,7.44,7.44,0,0,1,3-.61,7.52,7.52,0,0,1,3,.62,8.23,8.23,0,0,1,2.48,1.68A7.91,7.91,0,0,1,77,39.76a7.24,7.24,0,0,1,.62,3,7.77,7.77,0,0,1-.58,3A7.41,7.41,0,0,1,75.32,48.25Zm-.88-.87a6.17,6.17,0,0,0,1.42-2.06,6.5,6.5,0,0,0-1.4-7.15,6.61,6.61,0,0,0-2.09-1.42,6.3,6.3,0,0,0-2.55-.53,6.37,6.37,0,0,0-2.54.51,6.7,6.7,0,0,0-2.07,1.4,6.6,6.6,0,0,0-1.39,7.21,6.74,6.74,0,0,0,1.42,2.07,6.87,6.87,0,0,0,2.08,1.38,6.25,6.25,0,0,0,2.5.51,6.44,6.44,0,0,0,2.57-.51A6.36,6.36,0,0,0,74.44,47.38Zm-4.62,1.48a5.94,5.94,0,0,1-2.41-.49,6,6,0,0,1-2-1.33,6.37,6.37,0,0,1-1.29-1.95,6.09,6.09,0,0,1,0-4.69,6.26,6.26,0,0,1,1.29-1.95,6,6,0,0,1,2-1.33,6.08,6.08,0,0,1,4.83,0,6.25,6.25,0,0,1,2,1.33A6,6,0,0,1,75.5,40.4,5.82,5.82,0,0,1,76,42.74a6,6,0,0,1-1.78,4.32,6.34,6.34,0,0,1-2,1.31A5.89,5.89,0,0,1,69.82,48.86Zm0-1.23a4.73,4.73,0,0,0,1.91-.39,4.92,4.92,0,0,0,1.57-1.05,4.81,4.81,0,0,0,1-1.57,4.7,4.7,0,0,0,0-3.75,4.81,4.81,0,0,0-1-1.57,4.92,4.92,0,0,0-1.57-1,4.73,4.73,0,0,0-1.91-.39,4.66,4.66,0,0,0-1.88.39,4.92,4.92,0,0,0-1.57,1,4.81,4.81,0,0,0-1.05,1.57,4.7,4.7,0,0,0,0,3.75,4.81,4.81,0,0,0,1.05,1.57,4.92,4.92,0,0,0,1.57,1.05A4.66,4.66,0,0,0,69.82,47.63Z"/><path class="cls-11" d="M81.22,50.25H80v-15h1.24v15Zm1.64-14.14a5.9,5.9,0,0,1,1.73-.84A6.5,6.5,0,0,1,86.5,35a6.25,6.25,0,0,1,2.5.51,7.08,7.08,0,0,1,2.08,1.39,6.43,6.43,0,0,1,1.4,2.06A6.32,6.32,0,0,1,93,41.47v8.78H91.75V41.49a5,5,0,0,0-.42-2,5.66,5.66,0,0,0-1.13-1.67,5.2,5.2,0,0,0-1.66-1.15,5.24,5.24,0,0,0-5,.48,5.86,5.86,0,0,0-1.93,2.27V35.24h1.24Zm8.49,14.14H90.11V41.47a3.38,3.38,0,0,0-.29-1.38A3.86,3.86,0,0,0,89,38.94a3.81,3.81,0,0,0-1.14-.79,3.46,3.46,0,0,0-1.39-.29,3.53,3.53,0,0,0-1.42.29,3.86,3.86,0,0,0-1.15.79,4,4,0,0,0-.78,1.15,3.38,3.38,0,0,0-.29,1.38v8.78H81.62V41.47a4.81,4.81,0,0,1,.38-1.9,4.89,4.89,0,0,1,1-1.52,4.93,4.93,0,0,1,3.46-1.43,4.66,4.66,0,0,1,1.88.39,4.86,4.86,0,0,1,1.55,1,5.07,5.07,0,0,1,1,1.52,4.81,4.81,0,0,1,.38,1.9Z"/><path class="cls-11" d="M100.89,38.3a1.18,1.18,0,0,0-.94-.44A1.2,1.2,0,0,0,98.78,39a1,1,0,0,0,.2.62,1.87,1.87,0,0,0,.51.45,5.89,5.89,0,0,0,.64.37,5.31,5.31,0,0,0,.62.27,15.91,15.91,0,0,1,1.6.77,5.05,5.05,0,0,1,1.26.94,3.93,3.93,0,0,1,.82,1.32,5.15,5.15,0,0,1,.29,1.82,4.9,4.9,0,0,1-.38,1.91,5.12,5.12,0,0,1-1.06,1.57,5.17,5.17,0,0,1-1.59,1.07,4.67,4.67,0,0,1-1.93.4,4.8,4.8,0,0,1-2.49-.71A5,5,0,0,1,95.43,48L98,46.57l0,.07a1.91,1.91,0,0,0,1.75,1,2,2,0,0,0,1.48-.61,1.94,1.94,0,0,0,.6-1.43,1.74,1.74,0,0,0-.2-.86,2,2,0,0,0-.53-.6,3.09,3.09,0,0,0-.73-.42c-.26-.11-.53-.22-.8-.35-.51-.21-1-.45-1.44-.69A4.9,4.9,0,0,1,97,41.82a3.83,3.83,0,0,1-.79-1.17A4.15,4.15,0,0,1,95.9,39a3.78,3.78,0,0,1,.33-1.57,4.34,4.34,0,0,1,.87-1.27,4.23,4.23,0,0,1,1.28-.88A3.78,3.78,0,0,1,100,35a4.08,4.08,0,0,1,3.17,1.54l-.92.72a3.18,3.18,0,0,0-1-.72,2.49,2.49,0,0,0-1.18-.3,2.72,2.72,0,0,0-1.12.24,3.06,3.06,0,0,0-.91.62,2.91,2.91,0,0,0-.6.89,2.83,2.83,0,0,0-.22,1.09,2.45,2.45,0,0,0,.44,1.54,3.89,3.89,0,0,0,1.09,1,8,8,0,0,0,1.44.69,8,8,0,0,1,1.44.71,3.94,3.94,0,0,1,1.09,1,2.64,2.64,0,0,1,.44,1.62,3.12,3.12,0,0,1-1,2.32,3.35,3.35,0,0,1-4,.47A3.4,3.4,0,0,1,97,47.15l-.37.19A4.23,4.23,0,0,0,98,48.76a3.51,3.51,0,0,0,1.91.54,3.63,3.63,0,0,0,1.46-.29,3.38,3.38,0,0,0,1.18-.8A3.93,3.93,0,0,0,103.3,47a3.58,3.58,0,0,0,.29-1.43,3.22,3.22,0,0,0-.44-1.77,3.72,3.72,0,0,0-1.09-1.11,7,7,0,0,0-1.44-.73,9.53,9.53,0,0,1-1.44-.66,3.7,3.7,0,0,1-1.09-.89,2.13,2.13,0,0,1-.44-1.4,2.32,2.32,0,0,1,.69-1.71,2.35,2.35,0,0,1,1.72-.7,2.33,2.33,0,0,1,1.82.84Z"/><path class="cls-11" d="M108.73,50.25h-1.24V28.35h1.24v21.9Zm1.64-14.17a5.85,5.85,0,0,1,1.73-.82A6.79,6.79,0,0,1,114,35a6.23,6.23,0,0,1,2.49.51,7,7,0,0,1,2.08,1.39,6.41,6.41,0,0,1,1.91,4.59v8.78h-1.24V41.47a5.13,5.13,0,0,0-.41-2,5.84,5.84,0,0,0-1.13-1.68,5.46,5.46,0,0,0-1.66-1.14,5.21,5.21,0,0,0-5,.49,5.84,5.84,0,0,0-1.93,2.29v-11h1.24Zm8.48,14.17h-1.23V41.47a3.23,3.23,0,0,0-.3-1.38,3.66,3.66,0,0,0-.78-1.15,3.86,3.86,0,0,0-1.15-.79,3.41,3.41,0,0,0-1.38-.29,3.46,3.46,0,0,0-2.53,1,3.62,3.62,0,0,0-1.11,2.55v8.82h-1.24V41.43a5,5,0,0,1,.42-1.86A4.9,4.9,0,0,1,112.11,37a4.86,4.86,0,0,1,5.32,1,4.73,4.73,0,0,1,1,1.52,4.64,4.64,0,0,1,.38,1.9Z"/><path class="cls-11" d="M136.23,48.25a8,8,0,0,1-2.51,1.69,7.64,7.64,0,0,1-3,.6,7.44,7.44,0,0,1-3-.62,7.89,7.89,0,0,1-2.45-1.69,8.11,8.11,0,0,1-1.68-2.48,7.4,7.4,0,0,1-.62-3,7.51,7.51,0,0,1,.62-3,8.05,8.05,0,0,1,1.69-2.46,8.15,8.15,0,0,1,2.48-1.65,7.6,7.6,0,0,1,6,0,8.11,8.11,0,0,1,2.48,1.68,7.93,7.93,0,0,1,1.68,2.48,7.4,7.4,0,0,1,.62,3,7.78,7.78,0,0,1-.59,3A7.41,7.41,0,0,1,136.23,48.25Zm-.87-.87a6.49,6.49,0,0,0,1.42-7.14,6.45,6.45,0,0,0-1.41-2.07,6.61,6.61,0,0,0-2.09-1.42,6.46,6.46,0,0,0-5.08,0,6.74,6.74,0,0,0-2.08,1.4,6.56,6.56,0,0,0-1.4,2.09,6.44,6.44,0,0,0-.51,2.54,6.21,6.21,0,0,0,.53,2.58,6.41,6.41,0,0,0,1.42,2.07,6.7,6.7,0,0,0,2.07,1.38,6.28,6.28,0,0,0,2.5.51,6.37,6.37,0,0,0,4.63-1.92Zm-4.63,1.48a5.89,5.89,0,0,1-2.4-.49,5.82,5.82,0,0,1-2-1.33,6.22,6.22,0,0,1-1.3-1.95,6.09,6.09,0,0,1,0-4.69,6.11,6.11,0,0,1,1.3-1.95,5.82,5.82,0,0,1,2-1.33,6.06,6.06,0,0,1,4.82,0,6.25,6.25,0,0,1,1.95,1.33,6.12,6.12,0,0,1,1.79,4.29,5.93,5.93,0,0,1-.48,2.39,5.74,5.74,0,0,1-1.31,1.93,6.23,6.23,0,0,1-2,1.31A5.89,5.89,0,0,1,130.73,48.86Zm0-1.23a4.69,4.69,0,0,0,1.91-.39,4.81,4.81,0,0,0,1.57-1.05,5,5,0,0,0,1.06-1.57,4.82,4.82,0,0,0,0-3.75,5,5,0,0,0-1.06-1.57,4.81,4.81,0,0,0-1.57-1,4.8,4.8,0,0,0-3.79,0,4.87,4.87,0,0,0-1.56,1,5,5,0,0,0-1.06,1.57,4.82,4.82,0,0,0,0,3.75,5,5,0,0,0,1.06,1.57,4.87,4.87,0,0,0,1.56,1.05A4.66,4.66,0,0,0,130.73,47.63Z"/><path class="cls-11" d="M141.77,28.35H143v8.13h-2.74V35.24h1.5ZM143,36.88v7.58a4.72,4.72,0,0,0,.36,1.84,4.94,4.94,0,0,0,2.48,2.56,4.43,4.43,0,0,0,1.82.44h.26v1.24a5.69,5.69,0,0,1-2.35-.49,6.5,6.5,0,0,1-3.32-3.32,5.69,5.69,0,0,1-.49-2.35V38.12h-1.5V36.88Zm.43-.4V28.35h1.24v6.89h2.48v1.24Zm4.27,12.38a4.43,4.43,0,0,1-1.66-.38,4.35,4.35,0,0,1-1.37-.94,4.58,4.58,0,0,1-.91-1.39,4.32,4.32,0,0,1-.33-1.69V36.88h3.72v1.24h-2.48v6.26a3.24,3.24,0,0,0,3.25,3.25v1.23Z"/><path class="cls-11" d="M165.52,38.3a1.18,1.18,0,0,0-1-.44,1.14,1.14,0,0,0-.82.35,1.11,1.11,0,0,0-.34.82.94.94,0,0,0,.2.62,1.87,1.87,0,0,0,.51.45,5.07,5.07,0,0,0,.64.37,5.21,5.21,0,0,0,.61.27,15.12,15.12,0,0,1,1.61.77,5.19,5.19,0,0,1,1.25.94,3.64,3.64,0,0,1,.82,1.32,4.92,4.92,0,0,1,.3,1.82A4.73,4.73,0,0,1,169,47.5a4.92,4.92,0,0,1-1.05,1.57,5.17,5.17,0,0,1-1.59,1.07,4.7,4.7,0,0,1-1.93.4,4.78,4.78,0,0,1-2.49-.71A5,5,0,0,1,160.06,48l2.55-1.38,0,.07a1.9,1.9,0,0,0,1.75,1,2,2,0,0,0,1.48-.61,1.94,1.94,0,0,0,.6-1.43,1.74,1.74,0,0,0-.2-.86,2.16,2.16,0,0,0-.53-.6,3.09,3.09,0,0,0-.73-.42c-.27-.11-.53-.22-.8-.35-.51-.21-1-.45-1.44-.69a5.18,5.18,0,0,1-1.17-.85,3.8,3.8,0,0,1-.78-1.17,4.15,4.15,0,0,1-.29-1.62,3.78,3.78,0,0,1,.33-1.57,4.34,4.34,0,0,1,.87-1.27,4.23,4.23,0,0,1,1.28-.88,3.7,3.7,0,0,1,1.56-.33,4,4,0,0,1,1.79.42,3.79,3.79,0,0,1,1.38,1.12l-.91.72a3.45,3.45,0,0,0-1-.72,2.5,2.5,0,0,0-1.19-.3,2.64,2.64,0,0,0-1.11.24,3.06,3.06,0,0,0-.91.62,2.91,2.91,0,0,0-.6.89,2.66,2.66,0,0,0-.22,1.09,2.45,2.45,0,0,0,.44,1.54,3.75,3.75,0,0,0,1.09,1,8,8,0,0,0,1.44.69,8,8,0,0,1,1.44.71,3.94,3.94,0,0,1,1.09,1,2.71,2.71,0,0,1,.44,1.62,3.29,3.29,0,0,1-5,2.79,3.4,3.4,0,0,1-1.2-1.24l-.37.19a4.23,4.23,0,0,0,1.37,1.42,3.51,3.51,0,0,0,1.91.54A3.63,3.63,0,0,0,166,49a3.47,3.47,0,0,0,1.18-.8,3.93,3.93,0,0,0,.79-1.19,3.58,3.58,0,0,0,.29-1.43,3.22,3.22,0,0,0-.44-1.77,3.84,3.84,0,0,0-1.09-1.11,7,7,0,0,0-1.44-.73,9.1,9.1,0,0,1-1.44-.66,3.7,3.7,0,0,1-1.09-.89,2.08,2.08,0,0,1-.44-1.4,2.37,2.37,0,0,1,2.4-2.41,2.3,2.3,0,0,1,1.82.84Z"/><path class="cls-11" d="M172.44,28.35h1.24v8.13H171V35.24h1.49Zm1.24,8.53v7.58a4.55,4.55,0,0,0,.37,1.84,5,5,0,0,0,2.47,2.56,4.47,4.47,0,0,0,1.82.44h.26v1.24a5.69,5.69,0,0,1-2.35-.49,6.52,6.52,0,0,1-2-1.35,6.4,6.4,0,0,1-1.35-2,5.85,5.85,0,0,1-.49-2.35V38.12H171V36.88Zm.44-.4V28.35h1.24v6.89h2.47v1.24Zm4.26,12.38a4.47,4.47,0,0,1-1.66-.38,4.3,4.3,0,0,1-1.36-.94,4.4,4.4,0,0,1-.91-1.39,4.32,4.32,0,0,1-.33-1.69V36.88h3.71v1.24h-2.47v6.26a3.23,3.23,0,0,0,3.24,3.25v1.23Z"/><path class="cls-11" d="M183.12,50.25h-1.24v-15h1.24v15Zm1.64-14.14a5.9,5.9,0,0,1,1.73-.84A6.45,6.45,0,0,1,188.4,35v1.24a5,5,0,0,0-3,.9,5.86,5.86,0,0,0-1.93,2.27V35.24h1.24Zm3.64,1.75a3.53,3.53,0,0,0-1.42.29,3.86,3.86,0,0,0-1.15.79,3.66,3.66,0,0,0-.78,1.15,3.22,3.22,0,0,0-.29,1.38v8.78h-1.24V41.47a4.81,4.81,0,0,1,.38-1.9,4.89,4.89,0,0,1,1-1.52,4.75,4.75,0,0,1,1.55-1,4.69,4.69,0,0,1,1.91-.39Z"/><path class="cls-11" d="M192.92,44.2a5,5,0,0,0,1.78,2.48,4.89,4.89,0,0,0,5.19.38,5.24,5.24,0,0,0,1.77-1.55l1,.7a6.47,6.47,0,0,1-2.13,1.93,5.92,5.92,0,0,1-2.93.72,5.71,5.71,0,0,1-2.33-.47,6.13,6.13,0,0,1-1.91-1.27A6.47,6.47,0,0,1,192,45.24a5.58,5.58,0,0,1-.55-2.28h12.68v-.21a6.54,6.54,0,0,0-6.56-6.53,6.32,6.32,0,0,0-2.53.51,6.74,6.74,0,0,0-2.08,1.4,6.56,6.56,0,0,0-1.4,2.09,6.44,6.44,0,0,0-.51,2.54,6.21,6.21,0,0,0,.53,2.58A6.41,6.41,0,0,0,193,47.41a6.7,6.7,0,0,0,2.07,1.38,6.5,6.5,0,0,0,5.65-.29A6.37,6.37,0,0,0,203,46.42l1,.7a7.79,7.79,0,0,1-2.81,2.51,7.59,7.59,0,0,1-3.64.91,7.35,7.35,0,0,1-3-.62,8.39,8.39,0,0,1-2.48-1.67,7.91,7.91,0,0,1-1.69-2.48,7.57,7.57,0,0,1-.62-3,7.72,7.72,0,0,1,.58-3,7.63,7.63,0,0,1,1.68-2.52h0a7.61,7.61,0,0,1,2.51-1.67,7.69,7.69,0,0,1,3-.59,7.49,7.49,0,0,1,3,.62,8.11,8.11,0,0,1,2.48,1.68,7.93,7.93,0,0,1,1.68,2.48,7.4,7.4,0,0,1,.62,3V44.2Zm-1.46-1.67a5.58,5.58,0,0,1,.55-2.28,6.47,6.47,0,0,1,1.33-1.88,6.13,6.13,0,0,1,1.91-1.27,5.72,5.72,0,0,1,2.33-.48,6,6,0,0,1,2.39.48,6,6,0,0,1,3.22,3.15,5.88,5.88,0,0,1,.51,2.28Zm10.82-1.24a5,5,0,0,0-1.79-2.48,4.76,4.76,0,0,0-2.91-1,4.67,4.67,0,0,0-3.42,1.42h0a5.24,5.24,0,0,0-1.2,2Z"/><path class="cls-11" d="M210.48,44.2a5,5,0,0,0,1.78,2.48,4.89,4.89,0,0,0,5.19.38,5.24,5.24,0,0,0,1.77-1.55l1,.7a6.28,6.28,0,0,1-2.13,1.93,5.92,5.92,0,0,1-2.93.72,5.71,5.71,0,0,1-2.33-.47,6.13,6.13,0,0,1-1.91-1.27,6.47,6.47,0,0,1-1.33-1.88A5.58,5.58,0,0,1,209,43H221.7v-.21a6.4,6.4,0,0,0-.51-2.54,6.56,6.56,0,0,0-6.05-4,6.32,6.32,0,0,0-2.53.51,6.74,6.74,0,0,0-2.08,1.4,6.56,6.56,0,0,0-1.4,2.09,6.44,6.44,0,0,0-.51,2.54,6.49,6.49,0,0,0,1.95,4.65,6.82,6.82,0,0,0,2.07,1.38,6.5,6.5,0,0,0,5.65-.29,6.37,6.37,0,0,0,2.28-2.08l1,.7a7.71,7.71,0,0,1-2.81,2.51,7.59,7.59,0,0,1-3.64.91,7.35,7.35,0,0,1-3-.62,8.39,8.39,0,0,1-2.48-1.67A7.91,7.91,0,0,1,208,45.77a7.57,7.57,0,0,1-.62-3,7.91,7.91,0,0,1,.58-3,7.63,7.63,0,0,1,1.68-2.52h0a7.61,7.61,0,0,1,2.51-1.67,7.69,7.69,0,0,1,2.95-.59,7.49,7.49,0,0,1,3,.62,8.11,8.11,0,0,1,2.48,1.68,7.93,7.93,0,0,1,1.68,2.48,7.4,7.4,0,0,1,.62,3V44.2ZM209,42.53a5.58,5.58,0,0,1,.55-2.28,6.47,6.47,0,0,1,1.33-1.88,6.13,6.13,0,0,1,1.91-1.27,5.72,5.72,0,0,1,2.33-.48,6,6,0,0,1,2.39.48,6,6,0,0,1,3.22,3.15,5.88,5.88,0,0,1,.51,2.28Zm10.82-1.24a5,5,0,0,0-1.78-2.48,4.81,4.81,0,0,0-2.92-1,4.67,4.67,0,0,0-3.42,1.42h0a5.24,5.24,0,0,0-1.2,2Z"/><path class="cls-11" d="M226.36,28.35h1.24v8.13h-2.73V35.24h1.49Zm1.24,8.53v7.58A4.72,4.72,0,0,0,228,46.3a5,5,0,0,0,1,1.51,4.82,4.82,0,0,0,1.47,1,4.47,4.47,0,0,0,1.82.44h.26v1.24a5.69,5.69,0,0,1-2.35-.49,6.52,6.52,0,0,1-2-1.35,6.4,6.4,0,0,1-1.35-2,5.69,5.69,0,0,1-.49-2.35V38.12h-1.49V36.88Zm.44-.4V28.35h1.24v6.89h2.47v1.24Zm4.26,12.38a4.47,4.47,0,0,1-1.66-.38,4.19,4.19,0,0,1-1.36-.94,4.61,4.61,0,0,1-.92-1.39,4.5,4.5,0,0,1-.32-1.69V36.88h3.71v1.24h-2.47v6.26a3.23,3.23,0,0,0,3.24,3.25v1.23Z"/><path class="cls-11" d="M54.71,231l-.47,0H53.8a7,7,0,0,1-2.86-.58,8,8,0,0,1-2.35-1.57,7.29,7.29,0,0,1-1.6-8.05,7.62,7.62,0,0,1,1.59-2.35,7.76,7.76,0,0,1,2.35-1.6,7.25,7.25,0,0,1,5.73,0,7.28,7.28,0,0,1,2.33,1.6,8,8,0,0,1,1.59,2.35,7,7,0,0,1,.58,2.87,7.48,7.48,0,0,1-.29,2.09,6.66,6.66,0,0,1-.91,2l-6.34,10.85H52.2l6.67-11.44a5.82,5.82,0,0,0,1.05-3.45,5.93,5.93,0,0,0-.47-2.39,6.2,6.2,0,0,0-1.31-1.95,6.43,6.43,0,0,0-2-1.33,5.81,5.81,0,0,0-2.39-.49,5.89,5.89,0,0,0-2.4.49,6.4,6.4,0,0,0-2,1.33,6.2,6.2,0,0,0-1.31,1.95,6.29,6.29,0,0,0,0,4.77A6.2,6.2,0,0,0,49.43,228a6.15,6.15,0,0,0,4.37,1.78,6.25,6.25,0,0,0,2-.32,5.71,5.71,0,0,0,1.73-1l-5.83,10.05H50.27Zm-.91-13.08a5.49,5.49,0,0,1,2.21.45,5.91,5.91,0,0,1,3.06,3.06,5.83,5.83,0,0,1,0,4.49,5.84,5.84,0,0,1-1.24,1.8A6.18,6.18,0,0,1,56,228.93a5.49,5.49,0,0,1-2.21.45,5.6,5.6,0,0,1-2.24-.45,6.18,6.18,0,0,1-1.82-1.22,5.84,5.84,0,0,1-1.24-1.8,5.83,5.83,0,0,1,0-4.49,5.91,5.91,0,0,1,3.06-3.06A5.6,5.6,0,0,1,53.8,217.91Zm0,10.24a4.34,4.34,0,0,0,1.72-.35,4.54,4.54,0,0,0,1.42-1,4.68,4.68,0,0,0,1-1.42,4.17,4.17,0,0,0,.36-1.74,4.22,4.22,0,0,0-.36-1.73,4.62,4.62,0,0,0-1-1.44,4.48,4.48,0,0,0-1.42-1,4.22,4.22,0,0,0-1.73-.36,4.3,4.3,0,0,0-1.76.36,4.77,4.77,0,0,0-1.42,1,4.56,4.56,0,0,0-1,1.44,4.35,4.35,0,0,0-.36,1.75,4.17,4.17,0,0,0,.36,1.74,4.68,4.68,0,0,0,1,1.42,4.52,4.52,0,0,0,1.44,1A4.46,4.46,0,0,0,53.8,228.15Z"/><path class="cls-11" d="M64.11,217.91v-1.24H77.26l-1.12,2.11a53.37,53.37,0,0,0-4,9.62,57.89,57.89,0,0,0-2.15,10.16H68.67l.18-1.23a63.22,63.22,0,0,1,2.28-9.8A55.87,55.87,0,0,1,75,218.24l.15-.33Zm0,1.64v-1.24H74.46l-.84,1.79a50,50,0,0,0-3.28,8.45,69.31,69.31,0,0,0-1.89,8.78l-.18,1.23H67a64.57,64.57,0,0,1,2-9.7,57.55,57.55,0,0,1,3.51-9.31Z"/><path class="cls-11" d="M83.57,219.51l-1,5.21a8.59,8.59,0,0,1,2.92-.51,8,8,0,0,1,3,.56,7,7,0,0,1,2.39,1.59,7.66,7.66,0,0,1,1.58,2.39,7.34,7.34,0,0,1,.59,2.93,6.75,6.75,0,0,1-.61,2.84,7.71,7.71,0,0,1-1.6,2.35,7.31,7.31,0,0,1-2.35,1.58,7,7,0,0,1-2.84.59,7.19,7.19,0,0,1-2.15-.33,7.9,7.9,0,0,1-2-.93,7.31,7.31,0,0,1-1.6-1.44,7.46,7.46,0,0,1-1.13-1.89L80,234a7,7,0,0,0,2.3,2.79,5.75,5.75,0,0,0,3.42,1,5.81,5.81,0,0,0,2.39-.49A6.43,6.43,0,0,0,90,236,6.61,6.61,0,0,0,91.35,234a5.85,5.85,0,0,0,.49-2.35,6.82,6.82,0,0,0-.37-2.2,5.8,5.8,0,0,0-1.13-2,5.73,5.73,0,0,0-2-1.45,6.66,6.66,0,0,0-2.88-.57,8.4,8.4,0,0,0-2.5.4,5.11,5.11,0,0,0-2.13,1.24c.22-1.44.48-2.9.79-4.39s.6-3,.89-4.43H91v1.24Zm6.19-1.6H82.18c-.29,1.6-.59,3.17-.89,4.71s-.6,3.11-.89,4.69l.27.13a1.79,1.79,0,0,1,.24.12A6.59,6.59,0,0,1,83,226.29a7.09,7.09,0,0,1,2.46-.44,6.27,6.27,0,0,1,2.38.44A5.47,5.47,0,0,1,91,229.37a6.05,6.05,0,0,1,.44,2.31,5.29,5.29,0,0,1-.46,2.2,5.82,5.82,0,0,1-3.06,3.06,5.29,5.29,0,0,1-2.2.46,5.78,5.78,0,0,1-3.21-1,5.2,5.2,0,0,1-2.11-2.64l1.13-.43,0,.07a4.21,4.21,0,0,0,1.66,2,4.49,4.49,0,0,0,4.22.4,4.24,4.24,0,0,0,1.42-1,5.18,5.18,0,0,0,1-1.42,4.25,4.25,0,0,0,.36-1.75,5.46,5.46,0,0,0-.25-1.62,4,4,0,0,0-2.24-2.55,5.09,5.09,0,0,0-2.17-.42,6.4,6.4,0,0,0-2.1.36,4.33,4.33,0,0,0-1.76,1.17l-.44.47L79,228l2.15-11.33H91v1.24Z"/><path class="cls-11" d="M110.78,241.44h-1.24v-2.58a7.23,7.23,0,0,1-2.91-1.22,6.39,6.39,0,0,1-2-2.32l1.09-.58a5.38,5.38,0,0,0,2,2.17,5.63,5.63,0,0,0,3,.82h.11Zm-3.64-7.5a3.48,3.48,0,0,0,1,1.22,5.65,5.65,0,0,0,1.4.75v-8.6a17.1,17.1,0,0,1-1.64-.93,5.77,5.77,0,0,1-1.31-1.13,5,5,0,0,1-.86-1.48,5.76,5.76,0,0,1-.31-2,5.35,5.35,0,0,1,1.15-3.37,5.57,5.57,0,0,1,3-2v-2.69h1.24v3.75a4,4,0,0,0-1.58.38,4.71,4.71,0,0,0-1.32.91,4.35,4.35,0,0,0-.89,1.35,4.2,4.2,0,0,0-.33,1.66,4.08,4.08,0,0,0,.35,1.75,4.28,4.28,0,0,0,.91,1.27,6.12,6.12,0,0,0,1.31.95c.5.26,1,.52,1.55.76v10.75h-.11a5.14,5.14,0,0,1-2.73-.75,5,5,0,0,1-1.9-2Zm3.64-7.87c-.49-.22-1-.45-1.4-.69a5.58,5.58,0,0,1-1.19-.86,4,4,0,0,1-.82-1.15,4,4,0,0,1,0-3.06,3.85,3.85,0,0,1,.8-1.22,3.74,3.74,0,0,1,1.18-.82,4.33,4.33,0,0,1,1.44-.33Zm-1.24-6.52a3.53,3.53,0,0,0-.89,1,2.46,2.46,0,0,0-.35,1.3,2.3,2.3,0,0,0,.35,1.31,3.83,3.83,0,0,0,.89.91Zm1.68-5.79h1.24v2.73a4.89,4.89,0,0,1,1.56.71,5.25,5.25,0,0,1,1.24,1.15l-1,.76a4.09,4.09,0,0,0-3.09-1.6Zm1.24,11.69c.72.34,1.4.7,2,1.07a7.17,7.17,0,0,1,1.64,1.34,5.5,5.5,0,0,1,1.07,1.76,7.42,7.42,0,0,1,0,4.63,6.65,6.65,0,0,1-1.06,2,7.11,7.11,0,0,1-1.64,1.55,6.29,6.29,0,0,1-2.07,1v2.73h-1.24v-3.75a5.57,5.57,0,0,0,3.64-1.82,5.86,5.86,0,0,0,1.09-1.75,5.42,5.42,0,0,0,.4-2.08,4.77,4.77,0,0,0-1.58-3.78,6.59,6.59,0,0,0-1.6-1.1c-.6-.29-1.2-.57-1.81-.84l-.14-.07v-8.31a3.83,3.83,0,0,1,2.77,1.43l-.95.76-.27-.27a1.5,1.5,0,0,0-.31-.24Zm-1.24,1.27,1.73.82a6.46,6.46,0,0,1,1.51,1,4.83,4.83,0,0,1,1.07,1.44,4.52,4.52,0,0,1,.42,2,5.17,5.17,0,0,1-1.38,3.52,5.69,5.69,0,0,1-1.51,1.16,4.54,4.54,0,0,1-1.84.53Zm1.24,8.93a3.73,3.73,0,0,0,1.64-1.49,4.05,4.05,0,0,0,.61-2.12,3.13,3.13,0,0,0-.65-2.11,5.58,5.58,0,0,0-1.6-1.27Z"/><path class="cls-11" d="M120.32,216.67h6.45a10.53,10.53,0,0,1,4.21.86,11.19,11.19,0,0,1,3.48,2.33,11.41,11.41,0,0,1,2.39,3.48,10.39,10.39,0,0,1,.89,4.26,10.26,10.26,0,0,1-.88,4.24,11.17,11.17,0,0,1-5.86,5.85,10.54,10.54,0,0,1-4.23.87h-6.45Zm1.24,1.24v19.42h5.21a9.35,9.35,0,0,0,3.77-.77,9.85,9.85,0,0,0,3.1-2.09,9.7,9.7,0,0,0,2.09-3.09,9.37,9.37,0,0,0,.77-3.76,9.14,9.14,0,0,0-.78-3.76,10.29,10.29,0,0,0-2.12-3.1,10,10,0,0,0-3.09-2.09,9.33,9.33,0,0,0-3.74-.76Zm.4.4h4.82a8.8,8.8,0,0,1,3.6.75,9.7,9.7,0,0,1,3,2,9.3,9.3,0,0,1,2,2.95,9.27,9.27,0,0,1,0,7.21,9.35,9.35,0,0,1-2,3,10.06,10.06,0,0,1-3,2,8.8,8.8,0,0,1-3.6.75H122Zm1.24,1.24v16.14h3.57a7.88,7.88,0,0,0,3.12-.64,8.31,8.31,0,0,0,2.57-1.73,8.51,8.51,0,0,0,1.74-2.57,7.6,7.6,0,0,0,.66-3.15,7.48,7.48,0,0,0-.66-3.13,8.13,8.13,0,0,0-1.76-2.55,8.37,8.37,0,0,0-2.57-1.73,7.55,7.55,0,0,0-3.1-.64Z"/><path class="cls-11" d="M143.13,231v7.57h-1.24v-8.81h4.3a5.71,5.71,0,0,0,2.28-.47,6,6,0,0,0,3.15-3.16,5.79,5.79,0,0,0,.47-2.29,5.51,5.51,0,0,0-.47-2.23,6.3,6.3,0,0,0-3.15-3.2,5.4,5.4,0,0,0-2.28-.49h-4.7v20.65h-1.24V216.67h5.94a6.9,6.9,0,0,1,2.75.56,7.36,7.36,0,0,1,3.83,3.83,7,7,0,0,1,0,5.5,7.43,7.43,0,0,1-3.83,3.84,6.6,6.6,0,0,1-2.75.59Zm-1.24-12.68h4.3a5,5,0,0,1,2.13.46,5.8,5.8,0,0,1,1.75,1.2,5.46,5.46,0,0,1,1.18,1.75,5.16,5.16,0,0,1,.44,2.09,5.24,5.24,0,0,1-.44,2.1,5.52,5.52,0,0,1-1.18,1.74,6,6,0,0,1-1.75,1.21,5.15,5.15,0,0,1-2.13.45h-4.3Zm1.24,1.24v8.52h3.06a4,4,0,0,0,1.64-.34,4.86,4.86,0,0,0,1.35-.91,4.45,4.45,0,0,0,.93-1.35,4.08,4.08,0,0,0,.34-1.66,4,4,0,0,0-.34-1.64,4.52,4.52,0,0,0-2.28-2.28,4,4,0,0,0-1.64-.34Z"/><path class="cls-11" d="M158.58,219.58a12,12,0,0,1,3.67-2.46,11.16,11.16,0,0,1,4.34-.85,10.85,10.85,0,0,1,4.41.91,11.35,11.35,0,0,1,3.6,2.48,12,12,0,0,1,2.43,3.6,10.8,10.8,0,0,1,.89,4.34A11,11,0,0,1,177,232a11.47,11.47,0,0,1-6.05,6,11,11,0,0,1-4.39.89,10.89,10.89,0,0,1-4.35-.89,11.71,11.71,0,0,1-3.61-2.43,11.58,11.58,0,0,1-2.46-3.59,10.73,10.73,0,0,1-.91-4.42,11.13,11.13,0,0,1,.86-4.34A11.76,11.76,0,0,1,158.58,219.58Zm.87.87a10,10,0,0,0-2.95,7.13,9.73,9.73,0,0,0,.8,3.91,10.21,10.21,0,0,0,2.19,3.22,10.38,10.38,0,0,0,3.2,2.18,9.91,9.91,0,0,0,7.8,0,10.38,10.38,0,0,0,3.2-2.18,10.21,10.21,0,0,0,2.19-3.22,9.73,9.73,0,0,0,.8-3.91,9.6,9.6,0,0,0-.8-3.89,10.53,10.53,0,0,0-2.17-3.2,10.15,10.15,0,0,0-3.2-2.18,9.65,9.65,0,0,0-3.92-.8,10,10,0,0,0-7.14,2.94Zm7.14-2.54a9.1,9.1,0,0,1,3.73.78,10.23,10.23,0,0,1,3.1,2.1,9.64,9.64,0,0,1,2.1,3.07,9.56,9.56,0,0,1,0,7.47,9.88,9.88,0,0,1-2.1,3.1,9.69,9.69,0,0,1-3.1,2.09,9.42,9.42,0,0,1-7.46,0,9.69,9.69,0,0,1-3.1-2.09,9.88,9.88,0,0,1-2.1-3.1,9.56,9.56,0,0,1,0-7.47,9.92,9.92,0,0,1,2.08-3.07,10,10,0,0,1,3.08-2.1A9.22,9.22,0,0,1,166.59,217.91Zm0,1.24a8.18,8.18,0,0,0-3.3.67,8.41,8.41,0,0,0-2.69,1.84,8.71,8.71,0,0,0-1.81,2.7,8.43,8.43,0,0,0,0,6.54,8.69,8.69,0,0,0,1.82,2.69,8.49,8.49,0,0,0,2.7,1.81,8.5,8.5,0,0,0,6.52,0,8.49,8.49,0,0,0,2.7-1.81,8.69,8.69,0,0,0,1.82-2.69,8.18,8.18,0,0,0,.67-3.3,7.93,7.93,0,0,0-.67-3.24,9.11,9.11,0,0,0-1.82-2.7,8.6,8.6,0,0,0-2.68-1.84A8,8,0,0,0,166.59,219.15Z"/><path class="cls-11" d="M191.76,238.56h-11V216.67H182v20.66h9.8Zm0-1.63h-9.4V216.67h1.24v19h8.16v1.24Z"/><path class="cls-11" d="M197.19,238.56V228.33l-8.09-11.66h1.5l7.83,11.26v10.63Zm-4.59-21.89.62.84,5.43,7.83,6-8.67h1.49l-7.54,10.82-5.9-8.49-1.64-2.33Zm7.51,19v2.87h-1.24V227.93l5.61-8.13,2.22-3.13h1.49l-2.18,3.1-5.9,8.56Z"/></g></g></svg>