<svg xmlns="http://www.w3.org/2000/svg" viewBox="0 0 253.51 253.51"><defs><style>.cls-1{fill:#cfe7d7;stroke-width:5px;}.cls-1,.cls-3{stroke:#000;}.cls-2{fill:#ac73b1;}.cls-3{fill:none;}.cls-4{fill:#231f20;}.cls-5{fill:#fbcc3d;}.cls-6{fill:#da9a29;}</style></defs><g id="Layer_2" data-name="Layer 2"><g id="Layer_1-2" data-name="Layer 1"><rect class="cls-1" x="2.5" y="2.5" width="248.51" height="248.51"/><rect class="cls-2" x="8.36" y="8.36" width="236.8" height="62.45"/><rect class="cls-3" x="8.36" y="8.36" width="236.8" height="62.45"/><path class="cls-4" d="M47.23,234.85l-1.16-1.6.65-.81,2.7-3.38,5.39-6.82L57,219.55h2.14V232h3v1.24H57.87V220.75h-.33l-9.91,12.53.22.33h9.58v7.83H56.19v-6.59Zm10.2-13.26v11.62H48.22ZM56.19,232v-6.85l-.76.95L50.77,232Zm5.94,2.88h-3v6.59H57.87v-7.83h4.26Z"/><path class="cls-4" d="M64.1,220.79v-1.24H77.25l-1.13,2.11a54.06,54.06,0,0,0-4,9.62,57,57,0,0,0-2.15,10.16H68.65l.18-1.23a64.39,64.39,0,0,1,2.28-9.8,56.88,56.88,0,0,1,3.92-9.3l.14-.32Zm0,1.64v-1.24H74.45L73.61,223a49.53,49.53,0,0,0-3.28,8.45,68,68,0,0,0-1.9,8.78l-.18,1.24H67A67.58,67.58,0,0,1,69,231.73a58.81,58.81,0,0,1,3.52-9.3Z"/><path class="cls-4" d="M83.55,222.39l-1,5.21a8.58,8.58,0,0,1,2.91-.51,8.09,8.09,0,0,1,3,.56,7.1,7.1,0,0,1,2.38,1.59,7.64,7.64,0,0,1,1.59,2.38,7.38,7.38,0,0,1,.58,2.94,6.93,6.93,0,0,1-.6,2.84,7.89,7.89,0,0,1-1.6,2.35,7.31,7.31,0,0,1-2.35,1.58,7.15,7.15,0,0,1-5,.26,7.74,7.74,0,0,1-2-.93,7.09,7.09,0,0,1-1.6-1.44,7.18,7.18,0,0,1-1.13-1.89l1.13-.48a7,7,0,0,0,2.29,2.79,5.76,5.76,0,0,0,3.43,1,5.93,5.93,0,0,0,2.38-.49,6.61,6.61,0,0,0,2-1.33,6.43,6.43,0,0,0,1.33-2,5.72,5.72,0,0,0,.49-2.35,7.15,7.15,0,0,0-.36-2.21,6,6,0,0,0-1.13-2,5.8,5.8,0,0,0-2-1.46,6.82,6.82,0,0,0-2.88-.56,8.29,8.29,0,0,0-2.49.4A5.11,5.11,0,0,0,80.86,230c.22-1.44.48-2.9.78-4.39s.6-3,.89-4.43H91v1.24Zm6.2-1.6H82.17c-.29,1.59-.59,3.16-.89,4.71s-.61,3.11-.9,4.69l.28.12a1.71,1.71,0,0,1,.23.13A6.8,6.8,0,0,1,83,229.16a7.08,7.08,0,0,1,2.46-.43,6.32,6.32,0,0,1,2.39.43,5.64,5.64,0,0,1,1.86,1.23A5.57,5.57,0,0,1,91,232.24a6.14,6.14,0,0,1,.44,2.32,5.49,5.49,0,0,1-.46,2.2,5.88,5.88,0,0,1-1.24,1.82,5.71,5.71,0,0,1-1.82,1.24,5.49,5.49,0,0,1-2.2.46,5.84,5.84,0,0,1-3.21-1,5.15,5.15,0,0,1-2.11-2.64l1.13-.44,0,.08a4.32,4.32,0,0,0,1.66,2,4.5,4.5,0,0,0,4.23.4,4.35,4.35,0,0,0,1.42-1,5.08,5.08,0,0,0,1-1.42,4.25,4.25,0,0,0,.37-1.75,5.38,5.38,0,0,0-.26-1.62,4.34,4.34,0,0,0-.8-1.48,3.88,3.88,0,0,0-1.44-1.07,5.06,5.06,0,0,0-2.17-.42,6.34,6.34,0,0,0-2.09.36,4.23,4.23,0,0,0-1.77,1.17l-.44.47L79,230.88l2.15-11.33H91v1.24Z"/><path class="cls-4" d="M110.77,244.32h-1.24v-2.59a7.19,7.19,0,0,1-2.92-1.22,6.64,6.64,0,0,1-2-2.31l1.1-.58a5.29,5.29,0,0,0,2,2.16,5.51,5.51,0,0,0,3,.82h.11Zm-3.65-7.5a3.69,3.69,0,0,0,1,1.22,5.38,5.38,0,0,0,1.41.74v-8.59c-.59-.3-1.13-.61-1.64-.93a6,6,0,0,1-1.31-1.13,4.83,4.83,0,0,1-.86-1.48,5.58,5.58,0,0,1-.31-2,5.33,5.33,0,0,1,1.15-3.37,5.54,5.54,0,0,1,3-2v-2.7h1.24v3.76a4.12,4.12,0,0,0-1.59.38,4.46,4.46,0,0,0-1.31.91A4.07,4.07,0,0,0,107,223a4.19,4.19,0,0,0-.33,1.65,4,4,0,0,0,.34,1.75,4.54,4.54,0,0,0,.92,1.28,5.88,5.88,0,0,0,1.31.95c.49.26,1,.52,1.55.76v10.75h-.11a5.2,5.2,0,0,1-2.74-.75,5,5,0,0,1-1.89-2Zm3.65-7.87c-.49-.22-1-.45-1.41-.7a5.16,5.16,0,0,1-1.18-.85,4,4,0,0,1-.82-1.15,3.61,3.61,0,0,1-.31-1.57,3.88,3.88,0,0,1,.29-1.49,4,4,0,0,1,.8-1.22,3.78,3.78,0,0,1,1.19-.82,4.33,4.33,0,0,1,1.44-.33Zm-1.24-6.52a3.3,3.3,0,0,0-.9,1,2.44,2.44,0,0,0-.34,1.29,2.31,2.31,0,0,0,.34,1.32,3.88,3.88,0,0,0,.9.91Zm1.67-5.8h1.24v2.74a4.94,4.94,0,0,1,1.57.71,5.41,5.41,0,0,1,1.24,1.14l-1,.77a4.09,4.09,0,0,0-3.1-1.6Zm1.24,11.7c.73.34,1.41.7,2,1.07a7.18,7.18,0,0,1,1.64,1.33,5.69,5.69,0,0,1,1.08,1.77,6.91,6.91,0,0,1,.38,2.42,6.94,6.94,0,0,1-1.42,4.17,7.33,7.33,0,0,1-1.64,1.55,6.55,6.55,0,0,1-2.08,1v2.73H111.2v-3.75a5.63,5.63,0,0,0,3.65-1.82,6.07,6.07,0,0,0,1.09-1.75,5.42,5.42,0,0,0,.4-2.08,5.14,5.14,0,0,0-.44-2.22,5,5,0,0,0-1.15-1.57,6.65,6.65,0,0,0-1.6-1.09q-.89-.43-1.8-.84l-.15-.07v-8.31a3.83,3.83,0,0,1,2.77,1.42l-1,.77a3.44,3.44,0,0,0-.27-.27,1.28,1.28,0,0,0-.31-.24Zm-1.24,1.27,1.73.82a6.52,6.52,0,0,1,1.52,1,5,5,0,0,1,1.07,1.44,4.52,4.52,0,0,1,.42,2,5,5,0,0,1-.37,1.9,5.28,5.28,0,0,1-1,1.62A5.53,5.53,0,0,1,113,239.6a4.5,4.5,0,0,1-1.84.53Zm1.24,8.93a3.76,3.76,0,0,0,1.64-1.5,4,4,0,0,0,.62-2.11,3.12,3.12,0,0,0-.66-2.11,5.48,5.48,0,0,0-1.6-1.28Z"/><path class="cls-4" d="M120.31,219.55h6.45a10.56,10.56,0,0,1,4.21.85,11.28,11.28,0,0,1,5.86,5.81,10.31,10.31,0,0,1,.89,4.27,10.45,10.45,0,0,1-.87,4.24,11.31,11.31,0,0,1-2.37,3.48,11,11,0,0,1-3.5,2.37,10.45,10.45,0,0,1-4.22.87h-6.45Zm1.24,1.24V240.2h5.21a9.41,9.41,0,0,0,3.77-.76,9.9,9.9,0,0,0,5.19-5.18,9.37,9.37,0,0,0,.76-3.77,9.21,9.21,0,0,0-.78-3.76,10.34,10.34,0,0,0-2.11-3.09,10,10,0,0,0-3.1-2.09,9.29,9.29,0,0,0-3.73-.76Zm.4.4h4.82a9,9,0,0,1,3.6.74,9.86,9.86,0,0,1,3,2,9.2,9.2,0,0,1,0,13.11,9.86,9.86,0,0,1-3,2,9,9,0,0,1-3.6.74H122Zm1.24,1.24v16.13h3.57a7.82,7.82,0,0,0,3.11-.63,8.36,8.36,0,0,0,2.57-1.73,8.54,8.54,0,0,0,1.75-2.57,7.67,7.67,0,0,0,.66-3.15,7.56,7.56,0,0,0-.66-3.14,8.45,8.45,0,0,0-1.77-2.55,8.61,8.61,0,0,0-2.57-1.73,7.69,7.69,0,0,0-3.09-.63Z"/><path class="cls-4" d="M143.12,233.87v7.57h-1.24v-8.81h4.3a5.47,5.47,0,0,0,2.27-.48A5.94,5.94,0,0,0,151.6,229a5.55,5.55,0,0,0,.48-2.28,5.44,5.44,0,0,0-.48-2.24,6.41,6.41,0,0,0-1.27-1.89,6.2,6.2,0,0,0-1.88-1.3,5.33,5.33,0,0,0-2.27-.49h-4.7v20.65h-1.24V219.55h5.94a6.93,6.93,0,0,1,2.75.56,7.27,7.27,0,0,1,2.27,1.55,7.43,7.43,0,0,1,1.55,2.28,6.92,6.92,0,0,1,0,5.5,7.43,7.43,0,0,1-1.55,2.28,7.65,7.65,0,0,1-2.27,1.56,6.63,6.63,0,0,1-2.75.59Zm-1.24-12.68h4.3a5.15,5.15,0,0,1,2.13.45,6.33,6.33,0,0,1,1.75,1.2,5.86,5.86,0,0,1,1.18,1.75,5.24,5.24,0,0,1,.44,2.1,5.16,5.16,0,0,1-.44,2.09,5.74,5.74,0,0,1-1.18,1.75,5.92,5.92,0,0,1-1.75,1.2,5,5,0,0,1-2.13.46h-4.3Zm1.24,1.24V231h3.06a3.76,3.76,0,0,0,1.63-.35,4.65,4.65,0,0,0,1.35-.91,4.2,4.2,0,0,0,1.28-3,4,4,0,0,0-.35-1.64,4.52,4.52,0,0,0-2.28-2.28,3.9,3.9,0,0,0-1.63-.34Z"/><path class="cls-4" d="M158.56,222.46a11.65,11.65,0,0,1,3.68-2.46,11.12,11.12,0,0,1,4.34-.85,10.77,10.77,0,0,1,4.4.91,11.25,11.25,0,0,1,3.61,2.47,12,12,0,0,1,2.42,3.61,10.64,10.64,0,0,1,.9,4.34,10.88,10.88,0,0,1-.9,4.39,11.46,11.46,0,0,1-2.44,3.6,11.3,11.3,0,0,1-3.6,2.44,11.08,11.08,0,0,1-8.75,0,11.58,11.58,0,0,1-3.6-2.42,11.25,11.25,0,0,1-2.46-3.59,10.73,10.73,0,0,1-.91-4.42,11.12,11.12,0,0,1,.85-4.34A11.76,11.76,0,0,1,158.56,222.46Zm.87.87a10.09,10.09,0,0,0-2.18,3.26,9.94,9.94,0,0,0-.77,3.87,9.61,9.61,0,0,0,.81,3.91,10.47,10.47,0,0,0,2.18,3.22,10.31,10.31,0,0,0,3.21,2.18,9.88,9.88,0,0,0,7.79,0,10.31,10.31,0,0,0,3.21-2.18,10.47,10.47,0,0,0,2.18-3.22,9.61,9.61,0,0,0,.81-3.91,9.45,9.45,0,0,0-.81-3.89,10.5,10.5,0,0,0-2.16-3.2,10.08,10.08,0,0,0-3.21-2.18,9.6,9.6,0,0,0-3.91-.8,9.94,9.94,0,0,0-3.88.76A10.13,10.13,0,0,0,159.43,223.33Zm7.15-2.54a9.14,9.14,0,0,1,3.73.78,10.39,10.39,0,0,1,3.1,2.09,9.93,9.93,0,0,1,2.09,3.08,9.44,9.44,0,0,1,0,7.47,9.79,9.79,0,0,1-5.19,5.19,9.44,9.44,0,0,1-7.47,0,9.79,9.79,0,0,1-5.19-5.19,9.44,9.44,0,0,1,0-7.47,9.91,9.91,0,0,1,2.08-3.08,10.12,10.12,0,0,1,3.07-2.09A9.27,9.27,0,0,1,166.58,220.79Zm0,1.24a8.15,8.15,0,0,0-3.3.67,8.57,8.57,0,0,0-2.7,1.84,8.82,8.82,0,0,0-1.8,2.69,8.32,8.32,0,0,0,0,6.54,8.57,8.57,0,0,0,1.82,2.7,8.45,8.45,0,0,0,11.91,0,8.57,8.57,0,0,0,1.82-2.7,8.14,8.14,0,0,0,.68-3.29,8,8,0,0,0-.68-3.25,8.88,8.88,0,0,0-1.82-2.69,8.48,8.48,0,0,0-2.68-1.84A8,8,0,0,0,166.58,222Z"/><path class="cls-4" d="M191.75,241.44h-11V219.55H182V240.2h9.8Zm0-1.64h-9.4V219.55h1.24v19h8.16v1.24Z"/><path class="cls-4" d="M197.18,241.44V231.2l-8.09-11.65h1.49l7.83,11.25v10.64Zm-4.59-21.89.62.84,5.42,7.83,6.05-8.67h1.49l-7.54,10.82-5.9-8.49-1.64-2.33Zm7.5,19v2.88h-1.24V230.8l5.61-8.12,2.22-3.13h1.5L206,222.64l-5.9,8.56Z"/><path class="cls-4" d="M69.36,43.49v7.58H68.12V42.25h4.3a5.71,5.71,0,0,0,2.28-.47,6.3,6.3,0,0,0,1.88-1.27,6.1,6.1,0,0,0,1.27-1.89,5.62,5.62,0,0,0,.47-2.29,5.38,5.38,0,0,0-.47-2.23,6.34,6.34,0,0,0-1.27-1.89A6.23,6.23,0,0,0,74.7,30.9a5.56,5.56,0,0,0-2.28-.49h-4.7V51.07H66.48V29.17h5.94a6.74,6.74,0,0,1,2.75.57A7.39,7.39,0,0,1,79,33.56a7,7,0,0,1,0,5.5,7.31,7.31,0,0,1-1.55,2.28,7.67,7.67,0,0,1-2.28,1.57,6.59,6.59,0,0,1-2.75.58ZM68.12,30.81h4.3a5,5,0,0,1,2.13.46,5.72,5.72,0,0,1,2.94,2.95,5.32,5.32,0,0,1,0,4.19,5.77,5.77,0,0,1-1.19,1.75,6,6,0,0,1-1.75,1.2,5.12,5.12,0,0,1-2.13.45h-4.3Zm1.24,1.24v8.53h3.06a3.92,3.92,0,0,0,1.64-.35,4.65,4.65,0,0,0,1.35-.91A4.28,4.28,0,0,0,76.34,38a4,4,0,0,0,.34-1.66,4,4,0,0,0-.34-1.64,4.35,4.35,0,0,0-.93-1.34,4.52,4.52,0,0,0-1.35-.93,3.92,3.92,0,0,0-1.64-.35Z"/><path class="cls-4" d="M82,29.17h1.24v21.9H82Zm2.88,0v21.9H83.68V29.17Z"/><path class="cls-4" d="M90.78,45a5,5,0,0,0,1.79,2.48,5,5,0,0,0,5.19.38,5.45,5.45,0,0,0,1.77-1.55l1,.69A6.26,6.26,0,0,1,98.38,49a5.82,5.82,0,0,1-2.93.73,5.76,5.76,0,0,1-2.34-.47,6.4,6.4,0,0,1-1.91-1.28,6.48,6.48,0,0,1-1.33-1.87,5.61,5.61,0,0,1-.54-2.28H102v-.22a6.39,6.39,0,0,0-.51-2.53A6.42,6.42,0,0,0,98,37.55,6.52,6.52,0,0,0,95.45,37a6.37,6.37,0,0,0-2.54.51A6.58,6.58,0,0,0,90.84,39a6.54,6.54,0,0,0-1.39,7.21,6.58,6.58,0,0,0,1.42,2.07A6.87,6.87,0,0,0,93,49.61a6.25,6.25,0,0,0,2.5.51,6.48,6.48,0,0,0,5.42-2.88l1,.69a7.79,7.79,0,0,1-2.8,2.52,7.62,7.62,0,0,1-3.64.91,7.28,7.28,0,0,1-3-.62A8.11,8.11,0,0,1,90,49.06a7.7,7.7,0,0,1-1.69-2.47,7.4,7.4,0,0,1-.62-3,7.76,7.76,0,0,1,2.25-5.5h0a7.51,7.51,0,0,1,2.51-1.67,7.74,7.74,0,0,1,3-.59,7.56,7.56,0,0,1,3,.62A8.05,8.05,0,0,1,101,38.1a7.91,7.91,0,0,1,1.67,2.48,7.4,7.4,0,0,1,.62,3V45Zm-1.45-1.68a5.53,5.53,0,0,1,.54-2.27,6.66,6.66,0,0,1,1.33-1.88,6.38,6.38,0,0,1,1.91-1.27,5.76,5.76,0,0,1,2.34-.48,5.92,5.92,0,0,1,2.38.48,6.11,6.11,0,0,1,1.93,1.27,6,6,0,0,1,1.3,1.88,6.21,6.21,0,0,1,.51,2.27Zm10.81-1.23a5,5,0,0,0-1.78-2.48,4.76,4.76,0,0,0-2.91-1A4.67,4.67,0,0,0,92,40.1h0a5.5,5.5,0,0,0-1.2,2Z"/><path class="cls-4" d="M107.25,51.07H106V29.17h1.24V43.56Zm1.64,0h-1.28V45.86a6.51,6.51,0,0,0,6.12,4.26,6.6,6.6,0,0,0,4.65-1.91,6.58,6.58,0,0,0,1.4-2.07,6.36,6.36,0,0,0,.51-2.56,6.27,6.27,0,0,0-.51-2.52,6.58,6.58,0,0,0-1.4-2.07,6.66,6.66,0,0,0-2.1-1.42,6.49,6.49,0,0,0-4.55-.22,6.66,6.66,0,0,0-1.77.88,6.79,6.79,0,0,0-1.42,1.36,6.3,6.3,0,0,0-.93,1.68l0-12.1h1.27l0,8.35a7.7,7.7,0,0,1,7.88-1.1,7.95,7.95,0,0,1,4.14,4.14,7.36,7.36,0,0,1,.62,3,7.44,7.44,0,0,1-.62,3,8.27,8.27,0,0,1-1.69,2.48,8.11,8.11,0,0,1-2.5,1.69,7.62,7.62,0,0,1-7.87-1.13Zm4.86-1.39a6,6,0,0,1-2.39-.47,6.24,6.24,0,0,1-2-1.31A6,6,0,0,1,108.09,46a6.12,6.12,0,0,1,0-4.75,5.63,5.63,0,0,1,1.31-2,6.63,6.63,0,0,1,2-1.32,6,6,0,0,1,2.39-.49,6.06,6.06,0,0,1,2.43.49,6.44,6.44,0,0,1,1.94,1.33,6.14,6.14,0,0,1,1.29,2,5.88,5.88,0,0,1,.48,2.35,6,6,0,0,1-.48,2.39,6.14,6.14,0,0,1-1.29,1.95,5.92,5.92,0,0,1-2,1.31A6.09,6.09,0,0,1,113.75,49.68Zm0-1.24a4.57,4.57,0,0,0,1.87-.38,5,5,0,0,0,1.56-1,4.79,4.79,0,0,0,1.07-1.54,4.62,4.62,0,0,0,.4-1.92,4.46,4.46,0,0,0-.4-1.87,5.07,5.07,0,0,0-2.63-2.63,4.74,4.74,0,0,0-1.87-.38,4.81,4.81,0,0,0-1.87.38,5,5,0,0,0-1.54,1,5.05,5.05,0,0,0-1,1.55,4.57,4.57,0,0,0-.4,1.91,4.94,4.94,0,0,0,.38,1.92,4.58,4.58,0,0,0,1,1.54,5,5,0,0,0,1.56,1A4.63,4.63,0,0,0,113.75,48.44Z"/><path class="cls-4" d="M139.56,29.17l-7.83,21.9h-2l-7.8-21.9h1.32l7.35,20.66h.3l5.93-16.61,1.46-4Zm-3.09,0h1.31L130.71,49l-5.39-15.12-1.68-4.7H125l5.76,16.14Z"/><path class="cls-4" d="M161.38,45.71a11.15,11.15,0,0,1-1.82,2.37,12.08,12.08,0,0,1-2.33,1.82,11,11,0,0,1-2.73,1.17,11.52,11.52,0,0,1-3,.4,10.89,10.89,0,0,1-4.35-.89,11.54,11.54,0,0,1-3.61-2.45,11.87,11.87,0,0,1-2.46-3.6,11.16,11.16,0,0,1,0-8.78,11.54,11.54,0,0,1,2.45-3.61,11.87,11.87,0,0,1,3.6-2.46,10.85,10.85,0,0,1,4.39-.91A11.05,11.05,0,0,1,157,30.19a11.5,11.5,0,0,1,4.1,3.86l-1,.66a10.41,10.41,0,0,0-3.71-3.46A9.89,9.89,0,0,0,151.51,30a9.73,9.73,0,0,0-3.91.8A10.28,10.28,0,0,0,144.39,33a10.71,10.71,0,0,0-2.17,3.2,10,10,0,0,0,0,7.82,10.38,10.38,0,0,0,2.19,3.22,10.59,10.59,0,0,0,3.2,2.19,9.69,9.69,0,0,0,3.9.8,10.11,10.11,0,0,0,7.16-3,9.6,9.6,0,0,0,1.62-2.17Zm-2.73-10.13a8.55,8.55,0,0,0-3.09-2.89,8.36,8.36,0,0,0-4.05-1,8.22,8.22,0,0,0-3.3.67,8.55,8.55,0,0,0-4.49,4.54,8.37,8.37,0,0,0,0,6.54,8.55,8.55,0,0,0,1.83,2.69,8.48,8.48,0,0,0,10.2,1.33,8.07,8.07,0,0,0,3.11-3.13l1.06.62a9,9,0,0,1-1.55,2,9.52,9.52,0,0,1-2,1.53,10.61,10.61,0,0,1-2.33,1,9.39,9.39,0,0,1-2.52.34,9.29,9.29,0,0,1-3.73-.76,10.05,10.05,0,0,1-3.1-2.1,9.9,9.9,0,0,1-2.09-3.11,9.47,9.47,0,0,1,0-7.48,9.7,9.7,0,0,1,5.15-5.16,9.42,9.42,0,0,1,3.77-.77,9.17,9.17,0,0,1,4.59,1.17,10.81,10.81,0,0,1,3.61,3.35Z"/><path class="cls-4" d="M184.52,45.71a11.48,11.48,0,0,1-1.82,2.37,12.46,12.46,0,0,1-2.34,1.82,11,11,0,0,1-2.73,1.17,11.52,11.52,0,0,1-3,.4,10.89,10.89,0,0,1-4.35-.89,11.63,11.63,0,0,1-6.06-6,11,11,0,0,1,0-8.78,11.51,11.51,0,0,1,2.44-3.61,11.87,11.87,0,0,1,3.6-2.46,10.89,10.89,0,0,1,4.39-.91,11.12,11.12,0,0,1,5.49,1.42,11.67,11.67,0,0,1,4.1,3.86l-1,.66a10.44,10.44,0,0,0-3.72-3.46A9.89,9.89,0,0,0,174.64,30a9.73,9.73,0,0,0-3.91.8A10.28,10.28,0,0,0,167.52,33a10.71,10.71,0,0,0-2.17,3.2,10,10,0,0,0,0,7.82,10.44,10.44,0,0,0,5.4,5.41,9.6,9.6,0,0,0,3.89.8,10.34,10.34,0,0,0,5.05-1.35,10.22,10.22,0,0,0,2.11-1.62,9,9,0,0,0,1.62-2.17Zm-2.74-10.13a8.55,8.55,0,0,0-3.09-2.89,8.31,8.31,0,0,0-4.05-1,8.14,8.14,0,0,0-3.29.67,8.74,8.74,0,0,0-2.7,1.84,8.86,8.86,0,0,0-1.8,2.7,8.32,8.32,0,0,0,0,6.54,8.52,8.52,0,0,0,1.82,2.69,8.33,8.33,0,0,0,2.69,1.81,8.53,8.53,0,0,0,7.51-.48A8.07,8.07,0,0,0,182,44.29l1.06.62a8.73,8.73,0,0,1-1.55,2,9.52,9.52,0,0,1-2,1.53,10.61,10.61,0,0,1-2.33,1,9.39,9.39,0,0,1-2.52.34,9.29,9.29,0,0,1-3.73-.76,9.82,9.82,0,0,1-5.19-5.21,9.47,9.47,0,0,1,0-7.48,9.79,9.79,0,0,1,5.15-5.16,9.42,9.42,0,0,1,3.77-.77,9.17,9.17,0,0,1,4.59,1.17,10.81,10.81,0,0,1,3.61,3.35Z"/><path class="cls-5" d="M66.52,121.14a90.38,90.38,0,0,1,6.31-8.88c.27-.2.56-.39.85-.57l.44-.26c.07,0,.38-.28.45-.25,2,.49,4.09.86,6.06,1.52,2.71.92,5.28,2.32,8,3.06,5.89,1.59,7.51,3.9,6.55,10-.63,4,.78,6.64,4.42,8.24,5.54,2.43,10.72.55,15.37-5.57,4.2-5.53,7.53-6.08,13.43-2.27,8,5.14,15.94,10.3,24,15.39,3.09,2,6.82,3.26,9.25,5.82,1.64,1.74,2.64,5.52,1.92,7.73-1.09,3.34-4.89,2.44-7.68,1.87a22.2,22.2,0,0,1-5.35-2.4c-4.32-2.21-8.58-4.53-12.92-6.69a7.58,7.58,0,0,0-2.73-.23l-.36,1.12c1.41.73,2.87,1.39,4.24,2.2,5.31,3.14,10.77,6,15.8,9.58,2.93,2.06,2.43,5.3-.83,6.88a9,9,0,0,1-6,.71c-3.07-1-5.83-2.9-8.74-4.39-1.82-.93-3.69-1.8-5.53-2.7l-1.29,1.74c1,.6,2,1.16,2.93,1.78,3.54,2.3,7.13,4.53,10.58,7,.93.66,2.07,2,2,2.9a3.88,3.88,0,0,1-2.46,2.63c-2,.44-4.36.82-6.06.06-4.27-1.92-8.23-4.51-12.34-6.78s-8.15-4.82-13.33-2.32c-1,.47-3.53-1.06-4.57-2.32-3.52-4.24-6.44-9-10-13.14s-8-8-11.92-12.09c-2.64-2.79-5.37-4.5-9.53-4.71-3.17-.17-6.41-1-8.77-3.22a11.06,11.06,0,0,1-3.23-6.51c-.06-.35-.1-.7-.13-1l0-.55c0-.13,0-.42,0-.52S66.3,121.8,66.52,121.14Z"/><path class="cls-6" d="M65.14,123.9c.16,7.08,4.22,11.45,12.18,11.86,4.17.22,6.89,1.93,9.54,4.72,3.89,4.11,8.21,7.82,11.91,12.08s6.53,8.91,10,13.15c1,1.26,3.61,2.79,4.58,2.32,5.17-2.5,9.18,0,13.32,2.32s8.08,4.86,12.34,6.78c1.7.76,4.11.37,6.07-.06a3.88,3.88,0,0,0,2.46-2.63c.11-.88-1-2.24-2-2.9-3.45-2.43-7-4.67-10.58-7-1-.62-1.95-1.19-2.93-1.78l1.29-1.74c1.85.9,3.71,1.76,5.54,2.7,2.9,1.49,5.66,3.41,8.73,4.39a9,9,0,0,0,6-.71c3.26-1.58,3.75-4.83.83-6.88-5-3.53-10.5-6.45-15.8-9.58-1.37-.81-2.83-1.47-4.25-2.2l.37-1.12a7.55,7.55,0,0,1,2.72.23c4.34,2.15,8.61,4.48,12.93,6.69a22.09,22.09,0,0,0,5.34,2.39c2.8.58,6.6,1.47,7.68-1.86.73-2.21-.28-6-1.92-7.73-2.43-2.56-6.16-3.86-9.25-5.82-8-5.1-16-10.25-24-15.4-5.9-3.8-9.23-3.25-13.42,2.28-4.65,6.12-9.84,8-15.38,5.57-3.64-1.6-5-4.22-4.42-8.24,1-6.15-.69-8.37-6.57-10-2.75-.74-5.32-2.11-8-3-2-.67-4.07-1.11-6.09-1.6,2.19-.2,5.08-1.41,6.52-.46,4.58,3,9.26,3.65,14.48,2.81,3.63-.59,7.33-.81,11-1.19q-3.75,6.18-7.49,12.35c-2.14,3.54-.31,7.06,3.81,7.2a11.79,11.79,0,0,0,10.12-4.46c4.43-5.48,12.1-6.73,18.56-3.47s13.11,6.18,19.7,9.21c2.14,1,4.46,1.62,6.5,2.78,3.53,2,6.82,4.48,10.38,6.45,3.73,2.07,6.06,1.16,7.05-3,.79-3.28,2.7-5.17,5.27-7,1.43-1,2.22-2.92,3.3-4.43.7,1.27,1.48,2.5,2.08,3.82,1.72,3.76,4.22,8.86.54,12.24-2,1.8-4.51,2.54-6.75,3.89a23.4,23.4,0,0,0-6.75,6.21c-2.07,2.82-6.88,11.7-7.86,12.53a35.23,35.23,0,0,0-3.2,3.38c-1.18,1.31-13.15,10.28-15.43,10.91-.91.25-11.36,5.68-12.88,10-1,2.83-5,2.77-7.72.59-.91-.73-1.67-1.65-2.81-2.79-2,2.85-4.44,4.73-8.18,3.12-3.89-1.67-3.86-4.92-3.46-8.41-7.86,3.91-12.34,1.13-12-7.28-8.49.91-12.43-3.75-10.27-12.07.2-.77.3-2-.13-2.42-5.07-5.38-10.13-10.77-15.45-15.89A24.33,24.33,0,0,0,67,141.89c-3.29-1.61-4.86-4.17-4.28-7.68S64.3,127.33,65.14,123.9Z"/><path class="cls-6" d="M134.39,183.45c-.18-2.76-1.61-3.95-4.13-3.88-3.17.1-4.74,2.34-4.35,4.91.22,1.48,2.5,3.54,4.07,3.75C133.1,188.65,133.9,185.86,134.39,183.45Z"/><path class="cls-6" d="M125.65,180.69c-2.43-1.65-4.17-3.6-5-3.26-1.76.68-3,2.58-4.51,4,1.4,1.23,2.82,3.46,4.2,3.44S123.25,182.69,125.65,180.69Z"/><path class="cls-6" d="M110.5,170.15c-1.77,2.09-3.93,3.76-3.65,4.47.63,1.59,2.47,2.7,3.82,4,1-1.38,2.59-2.65,2.89-4.17C113.75,173.51,112,172.19,110.5,170.15Z"/><path class="cls-6" d="M99,165.2c-1.93-1.36-3-2.54-4.27-2.82-.61-.13-1.59,1.45-2.41,2.25,1,1,1.87,2.35,3.08,2.89C95.92,167.77,97.17,166.42,99,165.2Z"/><path class="cls-6" d="M135.85,179.51l-.86,2.2c1.43.56,2.84,1.18,4.32,1.6.16,0,.66-1.12,1-1.72Z"/><path class="cls-5" d="M183.69,128c-1.08,1.51-1.87,3.41-3.3,4.43-2.57,1.84-4.48,3.73-5.27,7-1,4.14-3.32,5.05-7.05,3-3.56-2-6.85-4.43-10.38-6.45-2-1.16-4.36-1.8-6.5-2.78-6.59-3-13.23-5.95-19.7-9.21s-14.13-2-18.56,3.47a11.79,11.79,0,0,1-10.12,4.46c-4.12-.14-6-3.66-3.81-7.2q3.73-6.18,7.49-12.35c3.15-3,7.11-3.13,11-2.72,7.11.75,14,2.52,20.1,6.41,1.32.51,2.63,1,4,1.54,3.42,1.24,7.09,2.05,10.22,3.82,2.91,1.66,5.48,2.11,8.55,1,5.12-1.93,10.29-3.71,15.44-5.56l0,0,2.46,2.33,4.71,7.48.76,1.37Z"/><path class="cls-6" d="M175.79,116.78c-5.15,1.85-10.32,3.63-15.44,5.56-3.07,1.16-5.64.71-8.55-1-3.13-1.77-6.8-2.58-10.22-3.82-1.33-.49-2.64-1-4-1.54,3.56.71,7.49.69,10.6,2.29,6.86,3.52,12.94,2.2,19-1.44C170.12,115.14,172.9,114,175.79,116.78Z"/><path class="cls-6" d="M178.2,119.08l-2.46-2.33Z"/><path class="cls-6" d="M183.67,127.93l-.76-1.37Z"/><path class="cls-5" d="M134.39,183.45c-.49,2.41-1.29,5.2-4.41,4.78-1.57-.21-3.85-2.27-4.07-3.75-.39-2.57,1.18-4.81,4.35-4.91C132.78,179.5,134.21,180.69,134.39,183.45Z"/><path class="cls-5" d="M125.65,180.69c-2.4,2-3.85,4.15-5.33,4.17s-2.8-2.21-4.2-3.44c1.47-1.41,2.75-3.31,4.51-4C121.48,177.09,123.22,179,125.65,180.69Z"/><path class="cls-5" d="M110.5,170.15c1.53,2,3.25,3.36,3.06,4.3-.3,1.52-1.86,2.79-2.89,4.17-1.35-1.3-3.19-2.41-3.82-4C106.57,173.91,108.73,172.24,110.5,170.15Z"/><path class="cls-5" d="M99,165.2c-1.8,1.22-3,2.57-3.6,2.32-1.21-.54-2.07-1.87-3.08-2.89.82-.8,1.8-2.38,2.41-2.25C96,162.66,97,163.84,99,165.2Z"/><path class="cls-6" d="M135.85,179.51l4.46,2.08c-.34.6-.84,1.76-1,1.72-1.48-.42-2.89-1-4.32-1.6Z"/></g></g></svg>