<svg xmlns="http://www.w3.org/2000/svg" viewBox="0 0 253.51 253.51"><defs><style>.cls-1{fill:#cfe7d7;stroke-width:5px;}.cls-1,.cls-3{stroke:#000;}.cls-2{fill:#f79051;}.cls-3,.cls-7,.cls-8,.cls-9{fill:none;}.cls-4{fill:#a98dc1;}.cls-5{fill:#b095c6;}.cls-6{fill:#8a61a9;}.cls-10,.cls-7,.cls-9{stroke:#231f20;stroke-miterlimit:10;}.cls-10,.cls-7{stroke-width:2px;}.cls-10,.cls-14{fill:#231f20;}.cls-11{fill:#040404;}.cls-12{fill:#f7db63;}.cls-13{fill:#98ca3f;}</style></defs><g id="Layer_2" data-name="Layer 2"><g id="Layer_1-2" data-name="Layer 1"><rect class="cls-1" x="2.5" y="2.5" width="248.51" height="248.51"/><rect class="cls-2" x="8.36" y="8.36" width="236.8" height="62.45"/><rect class="cls-3" x="8.36" y="8.36" width="236.8" height="62.45"/><polygon class="cls-4" points="77.66 138.36 75.68 138.36 70.28 147.24 74.69 154.16 76.46 165.64 81.6 176.78 88.71 183.99 96.53 188.25 112.94 191.55 125.57 190.81 138.54 186.61 148.39 178.72 154.58 167.16 156.33 156.81 156.32 154.9 161.2 147.24 155.8 138.36 141.71 136 120.46 129.69 92.88 133.41 77.66 138.36"/><polygon class="cls-5" points="99.36 136.8 99.85 142.92 105.04 146.64 110.71 148.15 116.04 151.8 120.91 149.61 122.47 148.45 127.03 147.41 132.61 144.21 134.67 140.16 120.46 128.56 112.08 128.56 99.36 136.8"/><rect class="cls-6" x="108.66" y="114.39" width="20.15" height="12.13"/><polygon class="cls-6" points="83.69 118.51 87.05 107.58 96.03 97.48 110.07 91.92 120.46 91.92 127.77 93.53 138.26 99.73 145.57 110.33 147.79 118.51 83.69 118.51"/><path class="cls-7" d="M117.3,91.35s-29.08-1.57-33.61,27.16H76.9l1.92,6.62.34,13.23H75.68l-5.4,8.88,4.88,7.66S72.72,192,117.3,191.64"/><path class="cls-7" d="M114.18,91.35s29.08-1.57,33.61,27.16h6.79l-1.92,6.62-.34,13.23h3.48l5.4,8.88-4.88,7.66s2.44,37.09-42.14,36.74"/><path class="cls-7" d="M99.37,142.43s5.12,5.62,11.34,5.72c0,0,5.49,8,11.11.36,0,0,9.82-.57,12-7"/><line class="cls-8" x1="114.18" y1="142.53" x2="111.69" y2="145.88"/><line class="cls-9" x1="118.87" y1="142.53" x2="120.46" y2="145.88"/><line class="cls-9" x1="114.5" y1="142.53" x2="112.9" y2="145.88"/><path class="cls-7" d="M88.71,162.63c3.88,4.8,28,30.91,55.32,0"/><polyline class="cls-7" points="76.9 118.51 79.16 123.54 79.16 138.36 94.98 144.8 116.72 128.82 138.33 144.8 152.33 137.8"/><polygon class="cls-10" points="154.58 118.51 152.33 125.77 152.33 137.46 138.33 144.8 117.3 129.25 112.91 124.25 120.46 124.33 123.33 118.84 154.58 118.51"/><polygon class="cls-10" points="110.59 118.84 112.91 124.25 116.72 128.82 94.85 144.21 79.73 138.02 79.73 124.89 77.66 118.84 110.59 118.84"/><path class="cls-7" d="M103.85,93.53s-18.07,5.56-20.16,25h26.72l2.86,5.38h7.2l2.67-5.38h25.25"/><path class="cls-11" d="M193.43,182.35a9.67,9.67,0,0,1-3.15.69,56.94,56.94,0,0,1-6.53.25c-1.69,0-4.45-.79-6-.29a14.29,14.29,0,0,0,2.46,2.52,12.37,12.37,0,0,1,2.19,2.27,5.45,5.45,0,0,1-.73,6.62c-3.27,3.26-8.64.36-12.13-1a47.51,47.51,0,0,1-20.92-16.13,42.16,42.16,0,0,1-7.91-23.05,36.41,36.41,0,0,1,.81-8.83A35.79,35.79,0,0,1,150.78,128a33.18,33.18,0,0,1,7.95-6c3.29-1.78,6.31-2.73,8-6.4a11,11,0,0,0,.95-3.36c.18-1.75-.63-2.81,1.41-3.51a6.75,6.75,0,0,1,4.44.1c1,.39,5.93,2.58,3.86,4.26a36.67,36.67,0,0,0-4.94,4.87,41,41,0,0,0-8.65,19.22c-.52,2.94-1.31,6.76-.65,9.72.59,2.67,2.72,4.83,4.31,7a56.17,56.17,0,0,0,7.24,7.94,54.28,54.28,0,0,0,18.11,10.91c3.34,1.2,4.29,5.88,2.16,8.44A4.36,4.36,0,0,1,193.43,182.35Zm-28.21-58.69c-.1-.29-.17-.6-.26-.9s-.17-.6-.26-.91l-.21.12a5.83,5.83,0,0,1-1.06.53,33.4,33.4,0,0,0-5.17,2.61c-.88.54-1.73,1.13-2.56,1.75a32.5,32.5,0,0,0-4.12,3.74q-.87.94-1.65,2a31.52,31.52,0,0,0-3.82,6.25,33.11,33.11,0,0,0-2.84,10.45,35.91,35.91,0,0,0,.28,9.32,43,43,0,0,0,2.93,10.3,38.53,38.53,0,0,0,3.28,6.1c.62.93,1.28,1.84,2,2.72a37.79,37.79,0,0,0,3.36,3.68c.8.76,1.63,1.5,2.48,2.2a53.16,53.16,0,0,0,13.84,8c1.5.57,3,1.05,4.57,1.51l1.28.39a2.68,2.68,0,0,0,2.93-1,2.85,2.85,0,0,0,.55-1.48c0-.27,0-.54,0-.81a1.7,1.7,0,0,0-.54-1.27l-.34-.31a52.69,52.69,0,0,1-3.79-3.68c-.66-.7-1.29-1.42-1.91-2.15-.8-.94-1.57-1.92-2.3-2.92a58.33,58.33,0,0,1-11-29A53,53,0,0,1,162.71,131a41.11,41.11,0,0,1,2.3-6.16c.17-.36.35-.71.53-1.07,0-.07.07-.15.12-.23C165.48,123.51,165.39,123.66,165.22,123.66Zm-1.63,29.22a54.68,54.68,0,0,0,1.37,6.83,55.62,55.62,0,0,0,5.56,13.5q1.24,2.16,2.68,4.2c.57.82,1.17,1.61,1.78,2.4a.59.59,0,0,0,.4.25,60.69,60.69,0,0,0,6.17.72,48.87,48.87,0,0,0,7.36-.1l2.43-.2a2.45,2.45,0,0,0,1.68-.83,2.74,2.74,0,0,0,.66-2.56,9.18,9.18,0,0,0-.28-.89,1.72,1.72,0,0,0-1.1-1.08l-.9-.33a55.45,55.45,0,0,1-10.06-4.92c-1.15-.71-2.28-1.46-3.37-2.26-.76-.55-1.49-1.13-2.24-1.71s-1.61-1.32-2.39-2-1.66-1.52-2.44-2.32-1.33-1.38-2-2.09-1.17-1.34-1.73-2-.94-1.16-1.39-1.75-.94-1.28-1.4-1.93c-.26-.36-.5-.73-.75-1.1l-.08-.07C163.58,152.71,163.58,152.8,163.59,152.88ZM166,121.93a5,5,0,0,0,.7-.33.36.36,0,0,0,.12-.15c.47-.76.95-1.5,1.48-2.22.36-.51.74-1,1.13-1.51s1-1.23,1.53-1.82c.71-.79,1.44-1.57,2.21-2.3l1-.93.56-.49a.75.75,0,0,0-.11-.13,4.65,4.65,0,0,0-4.29-1.1.46.46,0,0,0-.13,0c0,.11,0,.22,0,.34a18.94,18.94,0,0,1-.46,3.27,11.26,11.26,0,0,1-1.27,3.16,10.22,10.22,0,0,1-.93,1.33,18.72,18.72,0,0,1-1.77,1.92Z"/><path class="cls-12" d="M165.54,123.77c-.18.36-.36.71-.53,1.07a41.11,41.11,0,0,0-2.3,6.16,53,53,0,0,0-1.84,19.77,58.33,58.33,0,0,0,11,29c.73,1,1.5,2,2.3,2.92.62.73,1.25,1.45,1.91,2.15a52.69,52.69,0,0,0,3.79,3.68l.34.31a1.7,1.7,0,0,1,.54,1.27c0,.27,0,.54,0,.81a2.85,2.85,0,0,1-.55,1.48,2.68,2.68,0,0,1-2.93,1l-1.28-.39c-1.54-.46-3.07-.94-4.57-1.51a53.16,53.16,0,0,1-13.84-8c-.85-.7-1.68-1.44-2.48-2.2a37.79,37.79,0,0,1-3.36-3.68c-.7-.88-1.36-1.79-2-2.72a38.53,38.53,0,0,1-3.28-6.1,43,43,0,0,1-2.93-10.3,35.91,35.91,0,0,1-.28-9.32,33.11,33.11,0,0,1,2.84-10.45,31.52,31.52,0,0,1,3.82-6.25q.78-1,1.65-2a32.5,32.5,0,0,1,4.12-3.74c.83-.62,1.68-1.21,2.56-1.75a33.4,33.4,0,0,1,5.17-2.61,5.83,5.83,0,0,0,1.06-.53l.21-.12c.09.31.17.61.26.91s.16.61.26.9c.17,0,.26-.15.44-.12C165.61,123.62,165.58,123.7,165.54,123.77Zm-6,55.42-.08-.1c-.64-.71-1.23-1.45-1.81-2.2q-1.38-1.78-2.61-3.69a46.61,46.61,0,0,1-5.5-11.66A33.93,33.93,0,0,1,148.1,154a27.38,27.38,0,0,1,3.42-15.47,32.26,32.26,0,0,1,2.26-3.51c.69-.92,1.41-1.82,2.18-2.68a4.47,4.47,0,0,0,.34-.4v0a6.12,6.12,0,0,0-.86-.79.86.86,0,0,0-.14.13c-.59.65-1.17,1.32-1.71,2a31.77,31.77,0,0,0-5.27,9.55,28.86,28.86,0,0,0-1.47,10.35,34,34,0,0,0,1.21,7.69,43.73,43.73,0,0,0,3.28,8.39,52.67,52.67,0,0,0,3.42,5.79c.58.86,1.2,1.71,1.84,2.53s1.21,1.53,1.86,2.26l.2.2A5.33,5.33,0,0,0,159.53,179.19Z"/><path class="cls-12" d="M163.57,152.6c0,.11,0,.2,0,.28a54.68,54.68,0,0,0,1.37,6.83,55.62,55.62,0,0,0,5.56,13.5q1.24,2.16,2.68,4.2c.57.82,1.17,1.61,1.78,2.4a.59.59,0,0,0,.4.25,60.69,60.69,0,0,0,6.17.72,48.87,48.87,0,0,0,7.36-.1l2.43-.2a2.45,2.45,0,0,0,1.68-.83,2.74,2.74,0,0,0,.66-2.56,9.18,9.18,0,0,0-.28-.89,1.72,1.72,0,0,0-1.1-1.08l-.9-.33a55.45,55.45,0,0,1-10.06-4.92c-1.15-.71-2.28-1.46-3.37-2.26-.76-.55-1.49-1.13-2.24-1.71s-1.61-1.32-2.39-2-1.66-1.52-2.44-2.32-1.33-1.38-2-2.09-1.17-1.34-1.73-2-.94-1.16-1.39-1.75-.94-1.28-1.4-1.93c-.26-.36-.5-.73-.75-1.1Z"/><path class="cls-13" d="M165.76,121l.25.92a5,5,0,0,0,.7-.33.36.36,0,0,0,.12-.15c.47-.76.95-1.5,1.48-2.22.36-.51.74-1,1.13-1.51s1-1.23,1.53-1.82c.71-.79,1.44-1.57,2.21-2.3l1-.93.56-.49a.75.75,0,0,0-.11-.13,4.65,4.65,0,0,0-4.29-1.1.46.46,0,0,0-.13,0c0,.11,0,.22,0,.34a18.94,18.94,0,0,1-.46,3.27,11.26,11.26,0,0,1-1.27,3.16,10.22,10.22,0,0,1-.93,1.33A18.72,18.72,0,0,1,165.76,121Z"/><path class="cls-11" d="M158.66,180a5.33,5.33,0,0,0,.87-.84l-.08-.1c-.64-.71-1.23-1.45-1.81-2.2q-1.38-1.78-2.61-3.69a46.61,46.61,0,0,1-5.5-11.66A33.93,33.93,0,0,1,148.1,154a27.38,27.38,0,0,1,3.42-15.47,32.26,32.26,0,0,1,2.26-3.51c.69-.92,1.41-1.82,2.18-2.68a4.47,4.47,0,0,0,.34-.4v0a6.12,6.12,0,0,0-.86-.79.86.86,0,0,0-.14.13c-.59.65-1.17,1.32-1.71,2a31.77,31.77,0,0,0-5.27,9.55,28.86,28.86,0,0,0-1.47,10.35,34,34,0,0,0,1.21,7.69,43.73,43.73,0,0,0,3.28,8.39,52.67,52.67,0,0,0,3.42,5.79c.58.86,1.2,1.71,1.84,2.53s1.21,1.53,1.86,2.26Z"/><path class="cls-14" d="M60.49,45.38V53H59.25V44.15h4.3a5.55,5.55,0,0,0,2.28-.48A6,6,0,0,0,69,40.51a5.74,5.74,0,0,0,.47-2.28A5.59,5.59,0,0,0,69,36,6.44,6.44,0,0,0,67.7,34.1a6.15,6.15,0,0,0-1.87-1.3,5.4,5.4,0,0,0-2.28-.49h-4.7V53H57.61V31.07h5.94a6.73,6.73,0,0,1,2.75.56,7.43,7.43,0,0,1,2.28,1.55,7.17,7.17,0,0,1,1.54,2.28,6.92,6.92,0,0,1,0,5.5,7.24,7.24,0,0,1-1.54,2.27A7.67,7.67,0,0,1,66.3,44.8a6.59,6.59,0,0,1-2.75.58ZM59.25,32.71h4.3a5.15,5.15,0,0,1,2.13.45,6.18,6.18,0,0,1,1.75,1.2,5.57,5.57,0,0,1,1.18,1.75,5.21,5.21,0,0,1,0,4.19,5.57,5.57,0,0,1-1.18,1.75,5.8,5.8,0,0,1-1.75,1.2,5,5,0,0,1-2.13.46h-4.3Zm1.24,1.23v8.53h3.06a4,4,0,0,0,1.64-.35,4.65,4.65,0,0,0,1.35-.91,4.26,4.26,0,0,0,.92-1.34,4,4,0,0,0,.35-1.66,3.77,3.77,0,0,0-.35-1.64,4.68,4.68,0,0,0-.92-1.35,4.52,4.52,0,0,0-1.35-.93,4,4,0,0,0-1.64-.35Z"/><path class="cls-14" d="M85,51a7.88,7.88,0,0,1-2.51,1.69,7.64,7.64,0,0,1-3,.6,7.28,7.28,0,0,1-3-.62A7.88,7.88,0,0,1,74,50.94a8.27,8.27,0,0,1-1.67-2.48,7.2,7.2,0,0,1-.62-3,7.36,7.36,0,0,1,.62-3.05A8,8,0,0,1,76.5,38.3a7.44,7.44,0,0,1,3-.6,7.32,7.32,0,0,1,3,.62A8,8,0,0,1,85,40a8.23,8.23,0,0,1,1.68,2.48,7.44,7.44,0,0,1,.61,3,7.72,7.72,0,0,1-.58,3A7.41,7.41,0,0,1,85,51Zm-.87-.87A6.28,6.28,0,0,0,86,45.48,6.32,6.32,0,0,0,85.52,43a6.45,6.45,0,0,0-1.41-2.07A6.78,6.78,0,0,0,82,39.46a6.29,6.29,0,0,0-2.55-.52,6.49,6.49,0,0,0-2.53.5,6.63,6.63,0,0,0-2.08,1.4A6.55,6.55,0,0,0,73,45.48a6.13,6.13,0,0,0,.53,2.57,6.57,6.57,0,0,0,1.42,2.08A6.7,6.7,0,0,0,77,51.51a6.24,6.24,0,0,0,2.5.5,6.27,6.27,0,0,0,4.63-1.92Zm-4.63,1.49a6,6,0,0,1-4.35-1.82,6.34,6.34,0,0,1-1.3-1.95,6.11,6.11,0,0,1,0-4.7,6.34,6.34,0,0,1,1.3-2,6,6,0,0,1,1.94-1.33,6,6,0,0,1,2.41-.49,5.88,5.88,0,0,1,2.42.49,6.43,6.43,0,0,1,2,1.33,6,6,0,0,1,1.31,2,5.85,5.85,0,0,1,.48,2.35,5.92,5.92,0,0,1-.48,2.38,5.74,5.74,0,0,1-1.31,1.93,6.43,6.43,0,0,1-2,1.32A6.06,6.06,0,0,1,79.47,51.58Zm0-1.24A4.86,4.86,0,0,0,81.38,50,5,5,0,0,0,83,48.9a4.81,4.81,0,0,0,1-1.57,4.61,4.61,0,0,0,.39-1.87A4.66,4.66,0,0,0,84,43.58,4.92,4.92,0,0,0,83,42a5,5,0,0,0-1.57-1,4.91,4.91,0,0,0-3.79,0A4.94,4.94,0,0,0,75,43.58a4.65,4.65,0,0,0-.38,1.88A4.6,4.6,0,0,0,75,47.33,4.84,4.84,0,0,0,76,48.9,5,5,0,0,0,77.59,50,4.82,4.82,0,0,0,79.47,50.34Z"/><path class="cls-14" d="M90.87,53H89.63V38h1.24V53Zm1.64-14.14A6.3,6.3,0,0,1,94.24,38a6.49,6.49,0,0,1,1.91-.28,6.25,6.25,0,0,1,2.5.51,6.87,6.87,0,0,1,2.08,1.38,6.43,6.43,0,0,1,1.4,2.06,6.32,6.32,0,0,1,.51,2.53V53H101.4V44.21a5,5,0,0,0-.42-2,5.47,5.47,0,0,0-1.13-1.67,5.07,5.07,0,0,0-3.7-1.56,5,5,0,0,0-3,.9,5.79,5.79,0,0,0-1.93,2.27V38h1.24ZM101,53H99.76V44.18a3.41,3.41,0,0,0-.29-1.38,4,4,0,0,0-.78-1.15,3.66,3.66,0,0,0-1.15-.78,3.3,3.3,0,0,0-1.39-.29,3.37,3.37,0,0,0-1.42.29,3.61,3.61,0,0,0-1.14.78,3.86,3.86,0,0,0-.79,1.15,3.41,3.41,0,0,0-.29,1.38V53H91.27V44.18a4.57,4.57,0,0,1,.39-1.89,4.91,4.91,0,0,1,1-1.53,4.86,4.86,0,0,1,1.55-1,4.72,4.72,0,0,1,1.91-.38,4.61,4.61,0,0,1,1.88.38,4.75,4.75,0,0,1,1.55,1,4.94,4.94,0,0,1,1,1.53,4.73,4.73,0,0,1,.38,1.89Z"/><path class="cls-14" d="M106.54,40.79V39.55h9.21L108.1,51.4l-.21.32h9.87V53H105.63l7.87-12.17Zm0-2.87h12.24l-7.87,12.16h6.85v1.24h-9.11l7.65-11.84.22-.33h-10Z"/><path class="cls-14" d="M123.51,30.88a1.75,1.75,0,0,1,1.26.52,1.74,1.74,0,0,1,0,2.5,1.71,1.71,0,0,1-1.26.52,1.65,1.65,0,0,1-1.23-.52,1.79,1.79,0,0,1,0-2.5A1.69,1.69,0,0,1,123.51,30.88ZM122.09,53V38h1.24V53Zm1.42-21.13a.7.7,0,0,0-.54.24.78.78,0,0,0-.22.56.8.8,0,0,0,.22.57.69.69,0,0,0,.54.23.77.77,0,0,0,.57-.23.78.78,0,0,0,.24-.57.76.76,0,0,0-.24-.56A.78.78,0,0,0,123.51,31.83Zm0,.44c.27,0,.4.12.4.36s-.13.37-.4.37a.37.37,0,0,1,0-.73Zm.22,5.68H125V53h-1.24Z"/><path class="cls-14" d="M145.26,44.8h-5.68V53H136.7V31.07h10.38v1.24h-9.14V51.72h.4V43.56h6.92Zm-5.68-2.91h5.68v1.23h-6.92V32.71h8.74v1.23h-7.5Z"/><path class="cls-14" d="M161,51.5a7.54,7.54,0,0,1-4.91,1.75,7.12,7.12,0,0,1-3-.62A8.27,8.27,0,0,1,150.6,51a7.74,7.74,0,0,1-1.69-2.48,7.74,7.74,0,0,1,0-6.07A7.73,7.73,0,0,1,150.6,40a7.88,7.88,0,0,1,2.48-1.66,7.44,7.44,0,0,1,3-.6A7.55,7.55,0,0,1,161,39.41V38h1.24v5.21a6.84,6.84,0,0,0-1.49-2.31h0a6.74,6.74,0,0,0-2.06-1.39,6.2,6.2,0,0,0-2.56-.52,6.53,6.53,0,0,0-6,4,6.44,6.44,0,0,0-.5,2.55,6.28,6.28,0,0,0,.52,2.57,6.54,6.54,0,0,0,3.5,3.46,6.24,6.24,0,0,0,2.5.5,6.36,6.36,0,0,0,2.56-.51,6.17,6.17,0,0,0,2.06-1.42h0a6.83,6.83,0,0,0,1.49-2.33V53H161Zm-9.21-1.71a6.43,6.43,0,0,1-1.33-1.95,5.76,5.76,0,0,1-.49-2.38,5.84,5.84,0,0,1,.47-2.35,6.31,6.31,0,0,1,1.29-2,6.19,6.19,0,0,1,1.95-1.33,6.2,6.2,0,0,1,4.83,0,6.43,6.43,0,0,1,1.95,1.33,6.2,6.2,0,0,1,1.31,2,6.11,6.11,0,0,1,0,4.7,6.2,6.2,0,0,1-1.31,1.95,6.61,6.61,0,0,1-1.95,1.33,6,6,0,0,1-2.42.49,5.84,5.84,0,0,1-2.37-.48A6.06,6.06,0,0,1,151.75,49.79Zm.87-.87a4.67,4.67,0,0,0,3.43,1.42A4.9,4.9,0,0,0,158,50a5.12,5.12,0,0,0,1.57-1.06,5,5,0,0,0,1.05-1.57,4.6,4.6,0,0,0,.38-1.87,4.65,4.65,0,0,0-.38-1.88A4.85,4.85,0,0,0,158,41a4.72,4.72,0,0,0-1.91-.38,4.61,4.61,0,0,0-1.88.38,5,5,0,0,0-1.57,1,4.92,4.92,0,0,0-1,1.57,4.66,4.66,0,0,0-.39,1.88,5,5,0,0,0,.37,1.87A4.52,4.52,0,0,0,152.62,48.92Zm10-11h1.24V53H162.6Z"/><path class="cls-14" d="M168.36,53h-1.24V38h1.24V53ZM170,38.82a6.16,6.16,0,0,1,1.73-.84,6.49,6.49,0,0,1,1.91-.28v1.24a5,5,0,0,0-2.95.9,5.79,5.79,0,0,0-1.93,2.27V38H170Zm3.64,1.76a3.37,3.37,0,0,0-1.42.29,3.66,3.66,0,0,0-1.15.78,4,4,0,0,0-.78,1.15,3.41,3.41,0,0,0-.29,1.38V53h-1.24V44.18a4.73,4.73,0,0,1,.38-1.89,4.94,4.94,0,0,1,1-1.53,4.86,4.86,0,0,1,3.46-1.42Z"/><path class="cls-14" d="M177.94,53H176.7V38h1.24V53Zm1.64-14.14a6.3,6.3,0,0,1,1.73-.84,6.59,6.59,0,0,1,4.69.34,6.24,6.24,0,0,1,2.3,1.78,6.49,6.49,0,0,1,5.08-2.4,6.28,6.28,0,0,1,2.5.51A6.87,6.87,0,0,1,198,39.59a6.43,6.43,0,0,1,1.4,2.06,6.32,6.32,0,0,1,.51,2.53V53h-1.24V44.21a5.13,5.13,0,0,0-.41-2,5.66,5.66,0,0,0-1.13-1.67,5.14,5.14,0,0,0-1.67-1.15,5.3,5.3,0,0,0-2.06-.41,5.13,5.13,0,0,0-5.05,3.75A5.48,5.48,0,0,0,186.43,40a5.4,5.4,0,0,0-6.14-.2,5.79,5.79,0,0,0-1.95,2.31V38h1.24ZM188.07,53h-1.24V44.18a3.41,3.41,0,0,0-.29-1.38,4,4,0,0,0-.78-1.15,3.66,3.66,0,0,0-1.15-.78,3.3,3.3,0,0,0-1.39-.29,3.37,3.37,0,0,0-1.42.29,3.61,3.61,0,0,0-1.14.78,3.86,3.86,0,0,0-.79,1.15,3.41,3.41,0,0,0-.29,1.38V53h-1.24V44.21a4.73,4.73,0,0,1,.38-1.89,5.11,5.11,0,0,1,1-1.53v0a5,5,0,0,1,1.55-1,4.72,4.72,0,0,1,1.91-.38,4.65,4.65,0,0,1,1.88.38,5,5,0,0,1,1.55,1v0a4.94,4.94,0,0,1,1,1.53,4.73,4.73,0,0,1,.38,1.89Zm10.13,0H197V44.18a3.41,3.41,0,0,0-.29-1.38,3.86,3.86,0,0,0-.79-1.15,3.61,3.61,0,0,0-1.14-.78,3.3,3.3,0,0,0-1.39-.29,3.37,3.37,0,0,0-1.42.29,3.66,3.66,0,0,0-1.15.78A3.83,3.83,0,0,0,190,42.8a3.41,3.41,0,0,0-.29,1.38V53h-1.24V44.21a4.6,4.6,0,0,1,1.46-3.42v0a4.8,4.8,0,0,1,1.53-1,4.56,4.56,0,0,1,1.89-.38,4.64,4.64,0,0,1,1.9.38,5,5,0,0,1,1.53,1v0a4.91,4.91,0,0,1,1,1.53,4.57,4.57,0,0,1,.39,1.89Z"/><path class="cls-14" d="M51.09,219.41l.44-.06.47,0a7,7,0,0,1,2.83.59,7.71,7.71,0,0,1,2.35,1.6,7.59,7.59,0,0,1,1.6,2.35,7.34,7.34,0,0,1,0,5.72,7.48,7.48,0,0,1-3.93,3.92,7.32,7.32,0,0,1-5.71,0,8,8,0,0,1-2.35-1.57,7.35,7.35,0,0,1-1-9.25l6.34-10.86h1.42L46.9,223.25a5.53,5.53,0,0,0-.78,1.62,6.24,6.24,0,0,0-.27,1.83A6,6,0,0,0,47.63,231a6.4,6.4,0,0,0,2,1.33,5.89,5.89,0,0,0,2.4.49,5.81,5.81,0,0,0,2.39-.49,6.43,6.43,0,0,0,2-1.33,6,6,0,0,0,1.31-1.94,6.26,6.26,0,0,0,0-4.76,6.15,6.15,0,0,0-1.31-1.94,6.43,6.43,0,0,0-2-1.33,6,6,0,0,0-2.39-.49,5.79,5.79,0,0,0-3.78,1.31l5.86-10H55.5Zm.91,13a5.44,5.44,0,0,1-2.24-.46,6,6,0,0,1-1.82-1.22A5.84,5.84,0,0,1,46.7,229a5.8,5.8,0,0,1,0-4.48,5.84,5.84,0,0,1,1.24-1.8,6,6,0,0,1,1.82-1.22A5.44,5.44,0,0,1,52,221a5.34,5.34,0,0,1,2.21.46A6,6,0,0,1,56,222.69a5.84,5.84,0,0,1,1.24,1.8,5.8,5.8,0,0,1,0,4.48,5.84,5.84,0,0,1-1.24,1.8A6,6,0,0,1,54.21,232,5.34,5.34,0,0,1,52,232.45Zm0-10.2a4.28,4.28,0,0,0-1.73.35,4.78,4.78,0,0,0-1.44.94,4.56,4.56,0,0,0-1,1.42,4.38,4.38,0,0,0-.36,1.77,4.25,4.25,0,0,0,.36,1.75,4.81,4.81,0,0,0,1,1.42,4.87,4.87,0,0,0,1.44,1,4.45,4.45,0,0,0,1.73.34,4.33,4.33,0,0,0,1.72-.34,4.91,4.91,0,0,0,1.42-1,4.81,4.81,0,0,0,1-1.42,4.25,4.25,0,0,0,.36-1.75,4.38,4.38,0,0,0-.36-1.77,4.56,4.56,0,0,0-1-1.42,4.81,4.81,0,0,0-1.42-.94A4.17,4.17,0,0,0,52,222.25Z"/><path class="cls-14" d="M63.08,218.31a12.87,12.87,0,0,1,1.16-2.71A9.22,9.22,0,0,1,66,213.41a7.67,7.67,0,0,1,5.25-2,7.41,7.41,0,0,1,3.84,1A8.84,8.84,0,0,1,77.85,215a11.86,11.86,0,0,1,1.68,3.63,15.73,15.73,0,0,1,.56,4.15,15.91,15.91,0,0,1-.56,4.19,11.69,11.69,0,0,1-1.68,3.62,8.55,8.55,0,0,1-2.77,2.55,8.09,8.09,0,0,1-7.68,0,8.29,8.29,0,0,1-2.75-2.55A11.66,11.66,0,0,1,63,227a15.51,15.51,0,0,1-.57-4.19A15.13,15.13,0,0,1,63.08,218.31Zm1.16.36a13.42,13.42,0,0,0-.43,2,14.3,14.3,0,0,0,.33,5.74,10.9,10.9,0,0,0,1.4,3.26A7.3,7.3,0,0,0,67.89,232a6.88,6.88,0,0,0,6.7,0A7.46,7.46,0,0,0,77,229.67a10.93,10.93,0,0,0,1.42-3.26,14.72,14.72,0,0,0,.47-3.67,14.5,14.5,0,0,0-.47-3.65A11,11,0,0,0,77,215.85a7.46,7.46,0,0,0-2.37-2.31,6.29,6.29,0,0,0-3.35-.87,6.44,6.44,0,0,0-2.5.47,7.06,7.06,0,0,0-2,1.27,8,8,0,0,0-1.51,1.91A10.89,10.89,0,0,0,64.24,218.67Zm7-5.6a5.8,5.8,0,0,1,3.21.87,7.69,7.69,0,0,1,2.25,2.26A10.14,10.14,0,0,1,78,219.32a14.3,14.3,0,0,1,0,6.88,10.47,10.47,0,0,1-1.29,3.12,7.51,7.51,0,0,1-2.23,2.26,5.89,5.89,0,0,1-3.25.87,5.76,5.76,0,0,1-3.22-.89,7.73,7.73,0,0,1-2.24-2.28,9.92,9.92,0,0,1-1.32-3.12,14.32,14.32,0,0,1-.42-3.4,14.05,14.05,0,0,1,.44-3.44,10.43,10.43,0,0,1,1.33-3.12,7.69,7.69,0,0,1,2.25-2.26A5.74,5.74,0,0,1,71.26,213.07Zm0,1.24a4.53,4.53,0,0,0-2.71.8,6.34,6.34,0,0,0-1.84,2,9.18,9.18,0,0,0-1.06,2.73,13.4,13.4,0,0,0-.33,2.88,13.71,13.71,0,0,0,.33,2.93,8.88,8.88,0,0,0,1.06,2.73,6.24,6.24,0,0,0,1.84,2,5.08,5.08,0,0,0,5.44,0,6.67,6.67,0,0,0,1.86-2,9.29,9.29,0,0,0,1.06-2.72,14,14,0,0,0,.32-2.91,13.73,13.73,0,0,0-.32-2.84,9.59,9.59,0,0,0-1.06-2.75A6.48,6.48,0,0,0,74,215.11,4.61,4.61,0,0,0,71.24,214.31Z"/><path class="cls-14" d="M83.22,218.31a12.89,12.89,0,0,1,1.17-2.71,9.22,9.22,0,0,1,1.75-2.19A7.88,7.88,0,0,1,88.47,212a7.77,7.77,0,0,1,2.91-.53,7.47,7.47,0,0,1,3.85,1A9,9,0,0,1,98,215a11.61,11.61,0,0,1,1.67,3.63,15.33,15.33,0,0,1,.57,4.15,15.51,15.51,0,0,1-.57,4.19A11.45,11.45,0,0,1,98,230.57a8.65,8.65,0,0,1-2.77,2.55,8.11,8.11,0,0,1-7.69,0,8.48,8.48,0,0,1-2.75-2.55A11.89,11.89,0,0,1,83.13,227a15.91,15.91,0,0,1-.56-4.19A15.46,15.46,0,0,1,83.22,218.31Zm1.17.36a14.83,14.83,0,0,0-.44,2,15.76,15.76,0,0,0-.14,2.07,14.72,14.72,0,0,0,.47,3.67,11.16,11.16,0,0,0,1.4,3.26A7.4,7.4,0,0,0,88,232a6.9,6.9,0,0,0,6.71,0,7.53,7.53,0,0,0,2.36-2.31,10.7,10.7,0,0,0,1.43-3.26,14.72,14.72,0,0,0,.47-3.67,14.5,14.5,0,0,0-.47-3.65,10.8,10.8,0,0,0-1.43-3.24,7.53,7.53,0,0,0-2.36-2.31,6.32,6.32,0,0,0-3.36-.87,6.39,6.39,0,0,0-2.49.47,7.26,7.26,0,0,0-2,1.27,8.22,8.22,0,0,0-1.51,1.91A10.86,10.86,0,0,0,84.39,218.67Zm7-5.6a5.83,5.83,0,0,1,3.22.87,7.54,7.54,0,0,1,2.24,2.26,9.92,9.92,0,0,1,1.32,3.12,14.3,14.3,0,0,1,0,6.88,10.23,10.23,0,0,1-1.3,3.12,7.4,7.4,0,0,1-2.23,2.26,5.86,5.86,0,0,1-3.25.87,5.73,5.73,0,0,1-3.21-.89,7.89,7.89,0,0,1-2.25-2.28,10.14,10.14,0,0,1-1.31-3.12,14.32,14.32,0,0,1-.42-3.4,13.58,13.58,0,0,1,.44-3.44A10.18,10.18,0,0,1,86,216.2a7.58,7.58,0,0,1,2.25-2.26A5.73,5.73,0,0,1,91.4,213.07Zm0,1.24a4.55,4.55,0,0,0-2.71.8,6.58,6.58,0,0,0-1.84,2,9.46,9.46,0,0,0-1.06,2.73,14,14,0,0,0-.32,2.88,14.35,14.35,0,0,0,.32,2.93,9.14,9.14,0,0,0,1.06,2.73,6.47,6.47,0,0,0,1.84,2,4.61,4.61,0,0,0,2.71.78,4.66,4.66,0,0,0,2.74-.8,6.51,6.51,0,0,0,1.85-2A9,9,0,0,0,97,225.67a13.39,13.39,0,0,0,.33-2.91,13.12,13.12,0,0,0-.33-2.84A9.3,9.3,0,0,0,96,217.17a6.34,6.34,0,0,0-1.85-2.06A4.66,4.66,0,0,0,91.38,214.31Z"/><path class="cls-14" d="M118.23,236.6H117V234a7.37,7.37,0,0,1-2.91-1.22,6.39,6.39,0,0,1-2-2.32l1.09-.58a5.38,5.38,0,0,0,2,2.17,5.63,5.63,0,0,0,3,.82h.11Zm-3.64-7.5a3.69,3.69,0,0,0,1,1.22,5.65,5.65,0,0,0,1.4.75v-8.6a17.1,17.1,0,0,1-1.64-.93,6.28,6.28,0,0,1-1.31-1.13,4.81,4.81,0,0,1-.85-1.48,5.52,5.52,0,0,1-.31-2A5.34,5.34,0,0,1,114,213.6a5.57,5.57,0,0,1,3-2v-2.69h1.24v3.75a4.07,4.07,0,0,0-1.58.38,4.33,4.33,0,0,0-1.31.91,4.2,4.2,0,0,0-.9,1.35,4.38,4.38,0,0,0-.32,1.66,4.08,4.08,0,0,0,.34,1.75,4.46,4.46,0,0,0,.91,1.27,6.38,6.38,0,0,0,1.31.95c.5.27,1,.52,1.55.76v10.75h-.11a5.19,5.19,0,0,1-2.73-.75,4.84,4.84,0,0,1-1.89-2Zm3.64-7.87c-.48-.22-1-.45-1.4-.69a5.51,5.51,0,0,1-1.18-.86,3.77,3.77,0,0,1-.82-1.15,3.56,3.56,0,0,1-.31-1.56,3.72,3.72,0,0,1,.29-1.5,4,4,0,0,1,.8-1.22,3.74,3.74,0,0,1,1.18-.82,4.09,4.09,0,0,1,1.44-.32ZM117,214.71a3.53,3.53,0,0,0-.89,1,2.45,2.45,0,0,0-.34,1.3,2.3,2.3,0,0,0,.34,1.31,3.83,3.83,0,0,0,.89.91Zm1.68-5.79h1.24v2.73a4.79,4.79,0,0,1,1.56.71,5.25,5.25,0,0,1,1.24,1.15l-.94.76a4.15,4.15,0,0,0-3.1-1.6Zm1.24,11.69c.73.34,1.41.7,2,1.07a7.18,7.18,0,0,1,1.64,1.33,5.48,5.48,0,0,1,1.07,1.77,6.72,6.72,0,0,1,.38,2.42,6.91,6.91,0,0,1-.36,2.21,6.43,6.43,0,0,1-1.06,2,6.91,6.91,0,0,1-1.64,1.55,6.29,6.29,0,0,1-2.07,1v2.73h-1.24v-3.75a5.57,5.57,0,0,0,3.64-1.82,6,6,0,0,0,1.1-1.75,5.62,5.62,0,0,0,.4-2.08,5.14,5.14,0,0,0-.44-2.22,5,5,0,0,0-1.15-1.57,6.85,6.85,0,0,0-1.6-1.09l-1.8-.84-.15-.07v-8.3a3.76,3.76,0,0,1,2.77,1.42l-1,.76-.27-.27a1.5,1.5,0,0,0-.31-.24Zm-1.24,1.27,1.73.82a6.46,6.46,0,0,1,1.51,1,5,5,0,0,1,1.08,1.44,4.52,4.52,0,0,1,.42,2,5.14,5.14,0,0,1-.37,1.9,5.06,5.06,0,0,1-1,1.62,5.69,5.69,0,0,1-1.51,1.16,4.5,4.5,0,0,1-1.84.53Zm1.24,8.93a3.73,3.73,0,0,0,1.64-1.49,4.06,4.06,0,0,0,.62-2.12,3.14,3.14,0,0,0-.66-2.11,5.58,5.58,0,0,0-1.6-1.27Z"/><path class="cls-14" d="M127.78,211.83h6.44a10.5,10.5,0,0,1,4.21.86,11,11,0,0,1,3.48,2.33,11.23,11.23,0,0,1,2.39,3.48,10.7,10.7,0,0,1,0,8.5,11.42,11.42,0,0,1-2.37,3.48,11.16,11.16,0,0,1-3.5,2.37,10.5,10.5,0,0,1-4.23.87h-6.44Zm1.24,1.24v19.42h5.2a9.43,9.43,0,0,0,3.78-.77,9.92,9.92,0,0,0,3.09-2.09,9.72,9.72,0,0,0,2.1-3.09,9.33,9.33,0,0,0,.76-3.76,9.22,9.22,0,0,0-.78-3.77,10.34,10.34,0,0,0-2.11-3.09,10,10,0,0,0-3.1-2.09,9.3,9.3,0,0,0-3.74-.76Zm.4.4h4.82a8.79,8.79,0,0,1,3.59.75,9.58,9.58,0,0,1,3,2,9.3,9.3,0,0,1,2,2.95,9.27,9.27,0,0,1,0,7.21,9.19,9.19,0,0,1-2,3,9.78,9.78,0,0,1-3,2,8.78,8.78,0,0,1-3.59.74h-4.82Zm1.23,1.24v16.14h3.57a7.84,7.84,0,0,0,3.12-.64,8.31,8.31,0,0,0,2.57-1.73,8.54,8.54,0,0,0,1.75-2.57,7.76,7.76,0,0,0,.65-3.15,7.63,7.63,0,0,0-.65-3.13,8.39,8.39,0,0,0-4.34-4.28,7.55,7.55,0,0,0-3.1-.64Z"/><path class="cls-14" d="M150.58,226.15v7.57h-1.24v-8.81h4.3a5.71,5.71,0,0,0,2.28-.47,5.94,5.94,0,0,0,3.15-3.16,5.62,5.62,0,0,0,.47-2.29,5.43,5.43,0,0,0-.47-2.24,6.42,6.42,0,0,0-1.27-1.88,6.23,6.23,0,0,0-1.88-1.31,5.4,5.4,0,0,0-2.28-.49h-4.7v20.65H147.7V211.83h5.94a6.9,6.9,0,0,1,2.75.56,7.61,7.61,0,0,1,2.28,1.55,7.43,7.43,0,0,1,1.55,2.28,7,7,0,0,1,0,5.5,7.43,7.43,0,0,1-1.55,2.28,7.64,7.64,0,0,1-2.28,1.56,6.6,6.6,0,0,1-2.75.59Zm-1.24-12.68h4.3a5.15,5.15,0,0,1,2.13.45,6,6,0,0,1,1.75,1.21,5.65,5.65,0,0,1,1.19,1.75,5.15,5.15,0,0,1,.43,2.09,5.23,5.23,0,0,1-.43,2.1,5.72,5.72,0,0,1-1.19,1.74,6,6,0,0,1-1.75,1.21,5.15,5.15,0,0,1-2.13.45h-4.3Zm1.24,1.24v8.52h3.06a4,4,0,0,0,1.64-.34,4.86,4.86,0,0,0,1.35-.91,4.28,4.28,0,0,0,.93-1.35,4.08,4.08,0,0,0,.34-1.66,4,4,0,0,0-.34-1.64,4.52,4.52,0,0,0-.93-1.35,4.71,4.71,0,0,0-1.35-.93,4,4,0,0,0-1.64-.34Z"/><path class="cls-14" d="M166,214.74a11.79,11.79,0,0,1,3.68-2.45,10.9,10.9,0,0,1,4.33-.86,10.78,10.78,0,0,1,4.41.91,11.39,11.39,0,0,1,3.61,2.48,12,12,0,0,1,2.42,3.6,10.8,10.8,0,0,1,.89,4.34,11,11,0,0,1-.89,4.39,11.8,11.8,0,0,1-2.44,3.61,11.68,11.68,0,0,1-3.61,2.44,11.17,11.17,0,0,1-8.74,0,11.83,11.83,0,0,1-3.61-2.43,11.65,11.65,0,0,1-2.46-3.58,11,11,0,0,1-.91-4.43,11.13,11.13,0,0,1,.86-4.34A11.76,11.76,0,0,1,166,214.74Zm.87.87a10.07,10.07,0,0,0-3,7.13,9.73,9.73,0,0,0,.8,3.91,10.56,10.56,0,0,0,2.19,3.22,10.38,10.38,0,0,0,3.2,2.18,9.91,9.91,0,0,0,7.8,0,10.55,10.55,0,0,0,3.21-2.18,10.35,10.35,0,0,0,2.18-3.22,9.57,9.57,0,0,0,.8-3.91,9.44,9.44,0,0,0-.8-3.89,10.35,10.35,0,0,0-2.17-3.2,10.15,10.15,0,0,0-3.2-2.18,9.61,9.61,0,0,0-3.92-.8,10,10,0,0,0-3.88.76A10.2,10.2,0,0,0,166.9,215.61Zm7.14-2.54a9.18,9.18,0,0,1,3.74.78,10.18,10.18,0,0,1,3.09,2.1A9.57,9.57,0,0,1,183,219a9.53,9.53,0,0,1,0,7.46,9.88,9.88,0,0,1-5.19,5.19,9.44,9.44,0,0,1-7.47,0,9.85,9.85,0,0,1-3.1-2.09,10,10,0,0,1-2.09-3.1,9.42,9.42,0,0,1,0-7.46,9.82,9.82,0,0,1,2.07-3.08,10,10,0,0,1,3.08-2.1A9.26,9.26,0,0,1,174,213.07Zm0,1.24a8.14,8.14,0,0,0-3.29.67,8.35,8.35,0,0,0-2.7,1.84,8.51,8.51,0,0,0-1.8,2.7,8.09,8.09,0,0,0-.66,3.24,8.22,8.22,0,0,0,.67,3.3,8.55,8.55,0,0,0,1.83,2.69,8.45,8.45,0,0,0,9.21,1.81,8.49,8.49,0,0,0,2.7-1.81,8.69,8.69,0,0,0,1.82-2.69,8.22,8.22,0,0,0,.67-3.3,7.93,7.93,0,0,0-.67-3.24,9.11,9.11,0,0,0-1.82-2.7,8.6,8.6,0,0,0-2.68-1.84A8,8,0,0,0,174,214.31Z"/><path class="cls-14" d="M199.22,233.72h-11V211.83h1.24v20.66h9.8Zm0-1.64h-9.4V211.83h1.24v19h8.16v1.23Z"/><path class="cls-14" d="M204.64,233.72V223.49l-8.08-11.66h1.49l7.83,11.26v10.63Zm-4.59-21.89.62.84,5.43,7.83,6.05-8.67h1.49l-7.54,10.82-5.9-8.49-1.64-2.33Zm7.51,19v2.87h-1.24V223.09l5.61-8.13,2.22-3.13h1.49l-2.18,3.1-5.9,8.56Z"/></g></g></svg>