<svg xmlns="http://www.w3.org/2000/svg" viewBox="0 0 253.51 253.51"><defs><style>.cls-1{fill:#cfe7d7;stroke-width:5px;}.cls-1,.cls-3{stroke:#000;}.cls-2{fill:#a7a5a5;}.cls-3{fill:none;}.cls-4{fill:#fff;}.cls-5,.cls-7{stroke:#231f20;}.cls-5,.cls-7,.cls-9{stroke-miterlimit:10;}.cls-6{fill:#b5b5b6;}.cls-7{fill:#754c29;}.cls-7,.cls-9{stroke-width:2px;}.cls-8{fill:#040404;}.cls-9{fill:#f7941d;stroke:#fff200;}.cls-10{fill:#231f20;}</style></defs><g id="Layer_2" data-name="Layer 2"><g id="Layer_1-2" data-name="Layer 1"><rect class="cls-1" x="2.5" y="2.5" width="248.51" height="248.51"/><rect class="cls-2" x="8.36" y="8.36" width="236.8" height="62.45"/><rect class="cls-3" x="8.36" y="8.36" width="236.8" height="62.45"/><rect class="cls-4" x="61.4" y="124.95" width="64.96" height="74.31"/><path class="cls-5" d="M68.5,119.68h62.42v-4.82H89.07l-.37,0H59.87l-.43,0v4.82H64.6Zm57.86-17.85H72.14a2.16,2.16,0,0,0-.36,0,.77.77,0,0,0-.32.14,7.8,7.8,0,0,0-2,2.51,7.27,7.27,0,0,0-.74,4c.13,1.18.16,2.36.23,3.54a3.15,3.15,0,0,0,0,.4h51l8.86,0c1.48,0,3,0,4.45,0a1.35,1.35,0,0,0,1.39-1.34c0-2.65,0-5.29,0-7.94a1.3,1.3,0,0,0-1.3-1.32C131,101.81,128.7,101.83,126.36,101.83ZM87.23,99.38h15.85a.68.68,0,0,0,0-.15c0-.6,0-1.2,0-1.79,0-1-.36-1.31-1.3-1.31H88.39a1,1,0,0,0-1.15.9C87.2,97.8,87.23,98.58,87.23,99.38Zm17.46,0H107c0-1.38,0-2.72,0-4.07a1.78,1.78,0,0,0-1.92-1.74H85.21a1.73,1.73,0,0,0-1.81,1.53c-.05,1.41,0,2.82,0,4.22,0,0,0,0,0,.06h2.19v-2a2.66,2.66,0,0,1,2.77-2.78H102a2.65,2.65,0,0,1,2.75,2.74C104.65,98,104.69,98.65,104.69,99.36Zm32.44,11.36c-.07-2.45,0-4.9,0-7.35a4.41,4.41,0,0,0-.05-.82,3.79,3.79,0,0,0-3.88-3.15H108.59c0-1.27,0-2.5,0-3.72a3.53,3.53,0,0,0-3.71-3.73c-6.55.06-13.11,0-19.66,0a3.33,3.33,0,0,0-3.35,2.75,9.37,9.37,0,0,0-.09,1.59c0,1,0,2,0,3.09H57.17a3.78,3.78,0,0,0-3.92,3.9c0,2.55,0,5.11,0,7.67a3.55,3.55,0,0,0,1.59,3.13,13.33,13.33,0,0,0,2.17,1,3.1,3.1,0,0,0,0,.32v23.79q0,28.29,0,56.58a9.58,9.58,0,0,0,.08,1.42,9.18,9.18,0,0,0,9.25,8H124.2a7.31,7.31,0,0,0,1-.07,9.15,9.15,0,0,0,8.09-9.1v-81.1l.22,0A3.92,3.92,0,0,0,137.13,110.72Zm-7,88.5a.64.64,0,0,1-.08.14l-.07.12-.07.11-.08.12-.15.22c-.1.14-.21.27-.32.4l-.24.26a3.38,3.38,0,0,1-.27.26l-.12.11-.14.12-.26.22-.24.17-.18.13-.2.13a6.18,6.18,0,0,1-3.42,1h-.47q-13.55,0-27.08,0c-9.25,0-18.5,0-27.76,0h-.76a4.1,4.1,0,0,1-2.09-.56,7,7,0,0,1-1-.73,9.89,9.89,0,0,1-3.17-5.94,21.93,21.93,0,0,1-.3-5.55c.11-1.92.11-3.85.1-5.77,0-4-.05-8.08-.08-12.12,0-3.49-.07-7-.1-10.46l-.09-13.31c0-4.5-.08-9-.06-13.49a16.36,16.36,0,0,1,.35-3.27A7.73,7.73,0,0,1,66,126.15a22.18,22.18,0,0,1,7.11-2.24,58.34,58.34,0,0,1,10.06-.42c1.66,0,3.32.18,5,.26,2.19.1,4.38.24,6.58.26a14.59,14.59,0,0,0,5-1c.51-.18,1-.39,1.51-.6l.6-.25a1.13,1.13,0,0,1,.41-.06h28.78v65.19c0,2.88,0,5.76,0,8.63a2.72,2.72,0,0,0,0,.28c0,.21,0,.42,0,.63l0,.19a1.55,1.55,0,0,1,0,.21.36.36,0,0,1,0,.1c0,.11,0,.22-.07.33s0,.13-.05.2l-.06.19h0a1.59,1.59,0,0,1-.07.2,1.46,1.46,0,0,1-.07.19c-.05.13-.1.25-.16.38l-.08.16,0,.07-.07.13Z"/><path class="cls-6" d="M129.1,150.23c0-2-.06-4-.09-6,0-2.26-.07-4.53-.09-6.79,0-3.21,0-6.42-.1-9.63,0-.23,0-.47,0-.7l-.09-2.92c0-.35,0-.7,0-1l0-.66v-.3H102.16a1.13,1.13,0,0,0-.41.06l-.6.25c-.5.21-1,.42-1.51.6a14.59,14.59,0,0,1-5,1c-2.2,0-4.39-.16-6.58-.26-1.66-.08-3.32-.24-5-.26a58.34,58.34,0,0,0-10.06.42A22.18,22.18,0,0,0,66,126.15a7.73,7.73,0,0,0-4.19,5.41,16.36,16.36,0,0,0-.35,3.27c0,4.49,0,9,.06,13.49l.09,13.31c0,3.49.07,7,.1,10.46,0,4,.07,8.08.08,12.12,0,1.92,0,3.85-.1,5.77a21.93,21.93,0,0,0,.3,5.55,9.89,9.89,0,0,0,3.17,5.94,7,7,0,0,0,1,.73,4.1,4.1,0,0,0,2.09.56H69c9.26,0,18.51,0,27.76,0q13.53,0,27.08,0h.47a6.18,6.18,0,0,0,3.42-1c0-.1,0-.19,0-.29.06-.41.12-.82.17-1.23l.06-.37c0-.18,0-.35.07-.53.12-1,.24-1.93.33-2.9.13-1.38.24-2.76.35-4.14.05-.7.08-1.4.11-2.1,0-.89.07-1.77.09-2.66.07-2.78.17-5.55.19-8.33q.07-9.52.08-19.05C129.19,156.83,129.14,153.53,129.1,150.23ZM76.2,192.56a5.53,5.53,0,0,1-5.73,5.58,5.43,5.43,0,0,1-5-3.62,6.24,6.24,0,0,1-.34-1.91q0-30.11,0-60.21a5.39,5.39,0,0,1,1.66-4.08A5.53,5.53,0,0,1,76.06,131a5.29,5.29,0,0,1,.14,1.32q0,15.07,0,30.17ZM93,192.5a5.53,5.53,0,0,1-10.93,1.28,6.59,6.59,0,0,1-.12-1.54q0-9.94,0-19.87v-9.93q0-15.13,0-30.26a5.53,5.53,0,0,1,5.34-5.44A5.64,5.64,0,0,1,93,132.39Q93,162.45,93,192.5ZM107.09,197a5.52,5.52,0,0,1-8.73-3.12,4.36,4.36,0,0,1-.12-1.08q0-15.21,0-30.41t0-30.17a5.16,5.16,0,0,1,2.55-4.59,5.25,5.25,0,0,1,6,0,5.31,5.31,0,0,1,2.48,4.42c0,.29,0,.58,0,.87q0,29.67,0,59.33A5.49,5.49,0,0,1,107.09,197Zm14.06.95a5.6,5.6,0,0,1-6.74-3.72,6.5,6.5,0,0,1-.27-1.81q0-15.07,0-30.17c0-10,0-20,0-29.93a5.52,5.52,0,0,1,8.16-4.9,5.41,5.41,0,0,1,2.93,4.82c0,.12,0,.24,0,.37v59.74A5.66,5.66,0,0,1,121.15,197.94Z"/><path class="cls-6" d="M128.84,112.42l-8.86,0H69a3.15,3.15,0,0,1,0-.4c-.07-1.18-.1-2.36-.23-3.54a7.27,7.27,0,0,1,.74-4,7.8,7.8,0,0,1,2-2.51.77.77,0,0,1,.32-.14,2.16,2.16,0,0,1,.36,0h54.22c.14.12.29.23.42.36a8.11,8.11,0,0,1,2.12,4.75,33.75,33.75,0,0,1,.1,3.9A13.86,13.86,0,0,1,128.84,112.42Z"/><path class="cls-4" d="M89.07,114.88h41.85v4.82H68.5a10,10,0,0,1-.52-1.27,1.59,1.59,0,0,1,1-1.93,7.12,7.12,0,0,1,3-.5c1.77,0,3.54.11,5.31.17.88,0,1.76.08,2.65.09a20.53,20.53,0,0,0,3.14,0c1.91-.28,3.8-.71,5.69-1.09A1.33,1.33,0,0,0,89.07,114.88Z"/><path class="cls-6" d="M127.7,201.73c.11-.81.23-1.61.34-2.42.12-1,.24-1.93.33-2.9.13-1.38.24-2.76.35-4.14.05-.7.08-1.4.11-2.1,0-.89.07-1.77.09-2.66.07-2.78.17-5.56.19-8.33q.07-9.52.08-19.05c0-3.3-.05-6.6-.09-9.9,0-2-.06-4-.09-6,0-2.27-.07-4.53-.09-6.79,0-3.21,0-6.42-.1-9.63,0-1.88-.11-3.75-.17-5.63h2.28v65.2c0,2.87,0,5.75,0,8.63A6.62,6.62,0,0,1,127.7,201.73Z"/><path class="cls-4" d="M128.84,112.42a13.86,13.86,0,0,0,.16-1.58,33.75,33.75,0,0,0-.1-3.9,8.11,8.11,0,0,0-2.12-4.75c-.13-.13-.28-.24-.42-.36,2.34,0,4.68,0,7,0a1.3,1.3,0,0,1,1.3,1.32c0,2.65,0,5.29,0,7.94a1.35,1.35,0,0,1-1.39,1.34C131.81,112.44,130.32,112.43,128.84,112.42Z"/><path class="cls-4" d="M87.23,99.38c0-.8,0-1.58,0-2.35a1,1,0,0,1,1.15-.9h13.44c.94,0,1.3.36,1.3,1.31,0,.59,0,1.19,0,1.79a.68.68,0,0,1,0,.15Z"/><path class="cls-6" d="M104.69,99.36c0-.71,0-1.4,0-2.08A2.65,2.65,0,0,0,102,94.54H88.41a2.66,2.66,0,0,0-2.77,2.78v2H83.45s0,0,0-.06c0-1.4-.05-2.81,0-4.22a1.73,1.73,0,0,1,1.81-1.53h19.88A1.78,1.78,0,0,1,107,95.29c0,1.35,0,2.69,0,4.07Z"/><path class="cls-6" d="M58.52,122.13v72A8.66,8.66,0,0,0,64,202.34a18.15,18.15,0,0,0,4.15.41h54.9c.22,0,.43,0,.64,0a8.72,8.72,0,0,0,6.4-3.51h0a8.48,8.48,0,0,0,1.67-5.06v-72Zm47.95,5.53a5.27,5.27,0,0,1,2.51,4.42c0,.29,0,.58,0,.87q0,29.67,0,59.33a5.49,5.49,0,0,1-2.23,4.71,5.62,5.62,0,0,1-8.84-3.12,4.36,4.36,0,0,1-.12-1.08q0-15.21,0-30.41t0-30.17a5.14,5.14,0,0,1,2.58-4.59A5.38,5.38,0,0,1,106.47,127.66ZM81.33,162.44V132.18a5.57,5.57,0,0,1,5.41-5.44,5.67,5.67,0,0,1,5.79,5.65q0,30.06,0,60.11a5.6,5.6,0,0,1-11.07,1.28,7.17,7.17,0,0,1-.12-1.54v-29.8ZM64.67,194.52a6,6,0,0,1-.35-1.91q0-30.11,0-60.21A5.37,5.37,0,0,1,66,128.32,5.63,5.63,0,0,1,75.35,131a5.29,5.29,0,0,1,.14,1.32q0,15.07,0,30.17v30.12a5.57,5.57,0,0,1-5.81,5.58A5.47,5.47,0,0,1,64.67,194.52Zm60.49-61.92v59.74a5.62,5.62,0,0,1-11,1.88,6.49,6.49,0,0,1-.26-1.81q0-15.07,0-30.17c0-10,0-20,0-29.93a5.59,5.59,0,0,1,8.27-4.9,5.41,5.41,0,0,1,3,4.82Z"/><rect class="cls-4" x="58.52" y="114.88" width="73.25" height="4.81"/><rect class="cls-4" x="55.4" y="101.3" width="79.79" height="11.15" rx="1.55"/><path class="cls-7" d="M155.26,130.47c6.12,0,12.25-.06,18.38.05a5,5,0,0,1,3.3,1.15c8.56,9.18,16.48,18.85,22.14,30.18,5.11,10.24,3,19.72-3.34,28.48-6.81,9.42-16.46,14.62-27.61,17.26a53.22,53.22,0,0,1-19.31,1.09c-14.93-2-27.56-8-35.87-21.18a28.88,28.88,0,0,1-4.31-14.18c-.22-4.32,1.3-8.25,3.18-12,4.69-9.51,11.21-17.74,18.16-25.65,5.53-6.31,3.6-5,11.49-5.14C146.07,130.42,150.66,130.47,155.26,130.47Zm2.63,59c5.62-1.49,9.08-4.9,9.52-9.22.74-7.1-4.22-9.27-9.55-11v-9.46a5.05,5.05,0,0,1,4.79,4.26c.3,1.61,1.34,2.52,2.71,2.36,1.53-.17,2.27-1.26,2-3.08a6.71,6.71,0,0,0-.49-1.75,10.69,10.69,0,0,0-7.42-6c-1.33-.37-1.76-.81-1.81-2.14a2.16,2.16,0,0,0-2.4-2.22,2.27,2.27,0,0,0-2.44,2.21c-.12.84-.09,1.69-.13,2.55-5,1.59-9.48,3.8-9.57,9.82-.09,6.19,4.79,7.87,9.55,9.49v9.51a5.14,5.14,0,0,1-4.78-4.3c-.32-1.72-1.35-2.57-2.91-2.27a2.19,2.19,0,0,0-1.86,2.84,8.47,8.47,0,0,0,.63,2.08c1.73,3.79,5.08,5.38,8.9,6.3.35,1.92-.58,4.78,2.54,4.83C158.51,194.3,157.52,191.32,157.89,189.45Z"/><path class="cls-7" d="M155.28,115.75c-6.06,0-12.12-.06-18.19,0-2,0-3.08-.43-4-2.45-2.77-6.09-5.94-12-8.86-18-.47-1-1-2.64-.5-3.27,1-1.3,2.49-.62,3.81,0,5.41,2.65,10.84,5.24,16.24,7.91A1.58,1.58,0,0,0,146,99.7c2.44-2.41,5-4.73,7.46-7.07,1.57-1.48,2.68-1.47,4.24.05,2.36,2.31,4.73,4.61,7,7a1.53,1.53,0,0,0,2.16.33c5.34-2.65,10.7-5.25,16.07-7.84,1.11-.53,2.31-1.47,3.49-.17s.5,2.34-.09,3.54c-3.16,6.37-6.22,12.78-9.48,19.09-.34.65-1.71,1.06-2.61,1.07C167.9,115.8,161.59,115.75,155.28,115.75Z"/><path class="cls-7" d="M155.28,130.46c-6.37,0-12.75,0-19.12,0-2,0-2.95-2.32-2.95-7.29s.92-7.38,3-7.38q19.11-.06,38.24,0c2,0,3,2.43,3,7.4s-.9,7.27-3,7.27C168,130.48,161.66,130.46,155.28,130.46Z"/><path class="cls-8" d="M152.61,169.1c-2.87-.61-4.61-2.11-4.68-4.06s1.43-3.52,4.68-4.54Z"/><path class="cls-8" d="M157.83,184v-8.56c2.84.47,4.66,2,4.8,3.9C162.78,181.44,161.16,183.07,157.83,184Z"/><circle class="cls-9" cx="155.29" cy="171.21" r="23.04"/><path class="cls-10" d="M45.48,49.22H44.24V27.33h5.94a6.9,6.9,0,0,1,2.75.56,7.61,7.61,0,0,1,2.28,1.55,7.4,7.4,0,0,1,1.54,2.28,6.74,6.74,0,0,1,.57,2.75A7,7,0,0,1,57,36.6a7.2,7.2,0,0,1-.93,1.91,7,7,0,0,1-1.47,1.57,7.22,7.22,0,0,1-1.93,1.09l5.9,8H57l-4.81-6.59-1.64-2.26a5.76,5.76,0,0,0,2.15-.56,5.92,5.92,0,0,0,1.75-1.27,6.06,6.06,0,0,0,1.16-1.84,5.84,5.84,0,0,0,0-4.52,6.1,6.1,0,0,0-1.28-1.87A6.25,6.25,0,0,0,52.46,29a5.71,5.71,0,0,0-2.28-.47h-4.7Zm.4-9.25V29h4.3a5.14,5.14,0,0,1,2.13.44,5.53,5.53,0,0,1,2.93,2.93,5.38,5.38,0,0,1,0,4.26,5.53,5.53,0,0,1-2.93,2.93,5.14,5.14,0,0,1-2.13.44Zm3.53,1.64H47.12v7.61H45.88V40.41h4.19l6.45,8.81H55Zm-2.29-11.4v8.52h3.06a4.14,4.14,0,0,0,3-1.27,4.89,4.89,0,0,0,.92-1.35,4.13,4.13,0,0,0,0-3.28,4.92,4.92,0,0,0-.93-1.35,4.52,4.52,0,0,0-1.35-.93,4,4,0,0,0-1.64-.34Z"/><path class="cls-10" d="M70.51,48.39a6.33,6.33,0,0,1-6.1.62,6.49,6.49,0,0,1-2.08-1.41,6.64,6.64,0,0,1-1.42-2.07A6.2,6.2,0,0,1,60.38,43V34.21h1.24V43a5.08,5.08,0,0,0,.42,2,5.18,5.18,0,0,0,1.13,1.68,5.41,5.41,0,0,0,1.67,1.13,5.3,5.3,0,0,0,6.91-2.79v4.15H70.51ZM62,34.21h1.24V43a3.45,3.45,0,0,0,.29,1.38,3.69,3.69,0,0,0,1.93,1.93,3.53,3.53,0,0,0,1.42.29,3.46,3.46,0,0,0,1.39-.29,3.79,3.79,0,0,0,1.14-.78,3.86,3.86,0,0,0,.79-1.15A3.45,3.45,0,0,0,70.51,43V34.21h1.24V43a4.6,4.6,0,0,1-.39,1.89,4.82,4.82,0,0,1-2.58,2.57,4.91,4.91,0,0,1-3.79,0,4.91,4.91,0,0,1-1.55-1,5.06,5.06,0,0,1-1-1.53A4.76,4.76,0,0,1,62,43Zm10.13,0h1.24v15H72.15v-15Z"/><path class="cls-10" d="M88.76,34.21H90v5.21a7.32,7.32,0,0,0-2.41-3.05,6.17,6.17,0,0,0-3.75-1.17,6.32,6.32,0,0,0-2.53.51,6.51,6.51,0,0,0-3.48,3.49,6.52,6.52,0,0,0,1.44,7.19,6.75,6.75,0,0,0,2.08,1.38,6.48,6.48,0,0,0,6.26-.68,7,7,0,0,0,2.39-3V48.9a5.78,5.78,0,0,1-.47,2.31,6.32,6.32,0,0,1-1.28,1.88,6,6,0,0,1-4.19,1.71,5.54,5.54,0,0,1-2.37-.51,6.14,6.14,0,0,1-1.89-1.35l.87-.84a4.31,4.31,0,0,0,1.55,1.1,4.9,4.9,0,0,0,1.84.36,4.52,4.52,0,0,0,1.84-.38,5.05,5.05,0,0,0,1.49-1,4.86,4.86,0,0,0,1-1.48,4.46,4.46,0,0,0,.36-1.78V47.77a7.6,7.6,0,0,1-4.92,1.75,7.52,7.52,0,0,1-3-.6,8,8,0,0,1-2.51-1.7h0a7.69,7.69,0,0,1-1.68-2.51,8,8,0,0,1-.58-3,7.48,7.48,0,0,1,.62-3,7.69,7.69,0,0,1,1.7-2.46,7.84,7.84,0,0,1,2.47-1.66,7.51,7.51,0,0,1,3-.6,7.6,7.6,0,0,1,4.92,1.71ZM79.54,46.05a6.26,6.26,0,0,1-1.33-1.94,6.09,6.09,0,0,1,0-4.74,6.34,6.34,0,0,1,1.3-1.95,6,6,0,0,1,2-1.33,5.89,5.89,0,0,1,2.4-.49,6.14,6.14,0,0,1,2.39.47,6.37,6.37,0,0,1,2,1.31,6.2,6.2,0,0,1,1.31,1.95A6.69,6.69,0,0,1,90,41.68v.08a6.51,6.51,0,0,1-.51,2.36,6.11,6.11,0,0,1-1.31,1.93,6.22,6.22,0,0,1-2,1.32,6.14,6.14,0,0,1-2.39.47,6,6,0,0,1-2.37-.47A6.25,6.25,0,0,1,79.54,46.05ZM90.4,34.21h1.24V48.9a7.22,7.22,0,0,1-.6,2.91,7.55,7.55,0,0,1-4,4,7.34,7.34,0,0,1-3,.6,7.18,7.18,0,0,1-3-.64,7.81,7.81,0,0,1-2.47-1.73l.91-.87a5.63,5.63,0,0,0,2,1.47,6.21,6.21,0,0,0,2.51.53,6.15,6.15,0,0,0,2.48-.51,6.59,6.59,0,0,0,2-1.36,6.42,6.42,0,0,0,1.35-2,6.17,6.17,0,0,0,.49-2.46Zm-10,11a4.9,4.9,0,0,0,5.34,1,5.07,5.07,0,0,0,1.56-1.06,5.27,5.27,0,0,0,1.08-1.55,4.34,4.34,0,0,0,.4-1.85v-.08a4.34,4.34,0,0,0-.4-1.85,5.27,5.27,0,0,0-1.08-1.55,5.07,5.07,0,0,0-1.56-1.06,4.82,4.82,0,0,0-1.88-.38,4.77,4.77,0,0,0-1.87.38,5,5,0,0,0-1.57,1.06,5.07,5.07,0,0,0-1.06,1.56A4.82,4.82,0,0,0,79,41.72,4.7,4.7,0,0,0,80.38,45.18Z"/><path class="cls-10" d="M99.73,37.28a1.17,1.17,0,0,0-1-.44,1.11,1.11,0,0,0-.82.34,1.15,1.15,0,0,0-.35.82,1,1,0,0,0,.2.62,2.26,2.26,0,0,0,.51.46c.21.13.42.25.64.36s.43.2.62.28a14.94,14.94,0,0,1,1.6.76,5.08,5.08,0,0,1,1.26,1,3.89,3.89,0,0,1,.82,1.31,5.22,5.22,0,0,1,.29,1.82,4.86,4.86,0,0,1-.38,1.91A5,5,0,0,1,102.11,48a5.28,5.28,0,0,1-1.58,1.08,4.87,4.87,0,0,1-1.93.4,4.81,4.81,0,0,1-2.5-.71,5.1,5.1,0,0,1-1.84-1.88l2.55-1.39,0,.08a1.91,1.91,0,0,0,1.75,1,2,2,0,0,0,1.47-.6,2,2,0,0,0,.6-1.44,1.6,1.6,0,0,0-.2-.85,1.93,1.93,0,0,0-.53-.61,2.69,2.69,0,0,0-.72-.41l-.81-.35c-.51-.22-1-.45-1.43-.69a5.21,5.21,0,0,1-1.17-.86A3.7,3.7,0,0,1,95,39.63a4,4,0,0,1-.3-1.63,3.73,3.73,0,0,1,.33-1.56,4.23,4.23,0,0,1,.88-1.28,4.34,4.34,0,0,1,1.27-.87A3.78,3.78,0,0,1,98.78,34,4,4,0,0,1,102,35.49l-.91.73a3.39,3.39,0,0,0-1-.73,2.57,2.57,0,0,0-1.18-.29,2.79,2.79,0,0,0-1.11.23,3,3,0,0,0-.91.62,2.68,2.68,0,0,0-.82,2,2.48,2.48,0,0,0,.43,1.55,4.11,4.11,0,0,0,1.1,1,8,8,0,0,0,1.44.69,7.06,7.06,0,0,1,1.43.71,4,4,0,0,1,1.1,1,2.71,2.71,0,0,1,.43,1.62,3.21,3.21,0,0,1-3.27,3.27A3.24,3.24,0,0,1,97,47.37a3.47,3.47,0,0,1-1.2-1.24l-.36.18a4.11,4.11,0,0,0,1.36,1.42,3.45,3.45,0,0,0,1.92.55,3.75,3.75,0,0,0,1.45-.29,3.69,3.69,0,0,0,1.19-.81,4,4,0,0,0,.78-1.18,3.67,3.67,0,0,0,.29-1.44,3.14,3.14,0,0,0-.44-1.77,3.84,3.84,0,0,0-1.09-1.11A6.92,6.92,0,0,0,99.45,41,12,12,0,0,1,98,40.3a3.83,3.83,0,0,1-1.09-.89A2.16,2.16,0,0,1,96.48,38a2.29,2.29,0,0,1,.7-1.71,2.43,2.43,0,0,1,3.53.15Z"/><path class="cls-10" d="M111.64,46.53h8.27v1.24h-11l8.6-10a5.72,5.72,0,0,0,1.24-3.68,5.57,5.57,0,0,0-.44-2.17,5.65,5.65,0,0,0-1.22-1.82,6.3,6.3,0,0,0-1.82-1.26,5.42,5.42,0,0,0-2.24-.47,5.48,5.48,0,0,0-1.82.31,5.89,5.89,0,0,0-1.68.89,6,6,0,0,0-1.31,1.39,4.66,4.66,0,0,0-.73,1.78l-1.2-.33a6.11,6.11,0,0,1,.91-2.13,7.47,7.47,0,0,1,1.55-1.67,6.6,6.6,0,0,1,2-1.1,7.08,7.08,0,0,1,2.28-.38,6.56,6.56,0,0,1,2.68.55,7.18,7.18,0,0,1,3.73,3.73,6.56,6.56,0,0,1,.55,2.68,7.54,7.54,0,0,1-.37,2.35,6.07,6.07,0,0,1-1.16,2.09Zm8.27,1.64v1.24H107.05l-.58-1.28,9.8-11.44a3.2,3.2,0,0,0,.63-1.16,5.1,5.1,0,0,0,.24-1.32v-.14a3.82,3.82,0,0,0-.33-1.55,4.11,4.11,0,0,0-2.17-2.17,3.82,3.82,0,0,0-1.58-.32,4,4,0,0,0-2.48.83,4,4,0,0,0-1.46,2.23v0l-1.2-.33a5.76,5.76,0,0,1,.75-1.65,4.9,4.9,0,0,1,1.18-1.26,5.66,5.66,0,0,1,1.52-.8,4.85,4.85,0,0,1,1.69-.29,5.13,5.13,0,0,1,2.06.42,5.38,5.38,0,0,1,2.8,2.78,5.47,5.47,0,0,1,.46,2v.25a5,5,0,0,1-.31,1.68,6.24,6.24,0,0,1-.82,1.53L108,48.17Z"/><path class="cls-10" d="M124.13,49.22H122.9V27.33h5.93a6.86,6.86,0,0,1,2.75.56,7.36,7.36,0,0,1,3.83,3.83,6.73,6.73,0,0,1,.56,2.75,7,7,0,0,1-.32,2.13,7.2,7.2,0,0,1-.93,1.91,7.3,7.3,0,0,1-3.41,2.66l5.9,8h-1.53l-4.81-6.59-1.64-2.26a5.71,5.71,0,0,0,2.15-.56,5.79,5.79,0,0,0,1.75-1.27,5.9,5.9,0,0,0,1.17-1.84,5.73,5.73,0,0,0,.44-2.21,5.62,5.62,0,0,0-.48-2.31A6.07,6.07,0,0,0,133,30.31,6.3,6.3,0,0,0,131.11,29a5.67,5.67,0,0,0-2.28-.47h-4.7Zm.4-9.25V29h4.3a5.08,5.08,0,0,1,2.13.44,5.46,5.46,0,0,1,1.75,1.18,5.59,5.59,0,0,1,1.19,1.75,5.49,5.49,0,0,1,0,4.26,5.59,5.59,0,0,1-1.19,1.75A5.46,5.46,0,0,1,131,39.53a5.08,5.08,0,0,1-2.13.44Zm3.54,1.64h-2.3v7.61h-1.24V40.41h4.19l6.45,8.81h-1.53Zm-2.3-11.4v8.52h3.06a4,4,0,0,0,1.66-.34,4.28,4.28,0,0,0,1.35-.93,4.65,4.65,0,0,0,.91-1.35,4,4,0,0,0,0-3.28,4.52,4.52,0,0,0-2.28-2.28,3.92,3.92,0,0,0-1.64-.34Z"/><path class="cls-10" d="M141.51,27.15a1.74,1.74,0,0,1,1.26.51,1.7,1.7,0,0,1,.53,1.25,1.72,1.72,0,0,1-.53,1.26,1.74,1.74,0,0,1-1.26.51,1.7,1.7,0,0,1-1.24-.51,1.74,1.74,0,0,1-.51-1.26,1.72,1.72,0,0,1,.51-1.25A1.7,1.7,0,0,1,141.51,27.15Zm-1.42,22.07v-15h1.24v15Zm1.42-21.13a.68.68,0,0,0-.54.24.84.84,0,0,0,0,1.13.68.68,0,0,0,.54.24.78.78,0,0,0,.57-.24.81.81,0,0,0,0-1.13A.78.78,0,0,0,141.51,28.09Zm0,.44c.27,0,.4.12.4.37s-.13.36-.4.36a.37.37,0,0,1,0-.73Zm.22,5.68H143v15h-1.24Z"/><path class="cls-10" d="M160.16,45.62a7.52,7.52,0,0,1-2.84,2.84,7.67,7.67,0,0,1-3.9,1.06,7.35,7.35,0,0,1-3-.62A8.25,8.25,0,0,1,148,47.22a7.82,7.82,0,0,1-1.7-2.48,7.49,7.49,0,0,1-.62-3,7.81,7.81,0,0,1,.59-3,7.66,7.66,0,0,1,1.67-2.51h0A7.67,7.67,0,0,1,153.42,34a7.77,7.77,0,0,1,6.74,3.9l-1,.62c-.15-.25-.31-.48-.48-.71a5.7,5.7,0,0,0-.54-.64h0a6.41,6.41,0,0,0-4.52-1.93h-.11a6.35,6.35,0,0,0-2.53.51,6.58,6.58,0,0,0-3.48,8.59,6.25,6.25,0,0,0,1.41,2.05,6.94,6.94,0,0,0,2.07,1.4,6.2,6.2,0,0,0,2.53.53h.11a6.41,6.41,0,0,0,4.52-1.93h0a6.76,6.76,0,0,0,.54-.64c.17-.23.33-.47.48-.71Zm-2.47-6.34a5,5,0,0,0-4.27-2.44A4.66,4.66,0,0,0,150,38.26h0a4.74,4.74,0,0,0-1.42,3.46,4.66,4.66,0,0,0,.39,1.88,4.87,4.87,0,0,0,1,1.56,5,5,0,0,0,1.57,1.06,4.77,4.77,0,0,0,1.87.38,5,5,0,0,0,4.27-2.44l1.05.62A5.56,5.56,0,0,1,156.52,47a6.11,6.11,0,0,1-3.06.82,6.06,6.06,0,0,1-4.33-1.77,5.82,5.82,0,0,1-1.33-2,6.06,6.06,0,0,1,1.33-6.75,6.16,6.16,0,0,1,2-1.3,6.31,6.31,0,0,1,2.41-.47h.14a6.55,6.55,0,0,1,3,.87,5.34,5.34,0,0,1,2.13,2.19Z"/><path class="cls-10" d="M164.06,49.22h-1.24V27.33h1.24V49.22Zm1.64-14.17a6.54,6.54,0,0,1,1.73-.82,6.83,6.83,0,0,1,1.91-.27,6.25,6.25,0,0,1,2.5.51,6.87,6.87,0,0,1,2.08,1.38,6.54,6.54,0,0,1,1.4,2.06,6.35,6.35,0,0,1,.51,2.53v8.78h-1.24V40.44a5,5,0,0,0-.42-2A5.47,5.47,0,0,0,173,36.73a5.16,5.16,0,0,0-1.65-1.15,5.23,5.23,0,0,0-5,.49,6,6,0,0,0-1.93,2.3v-11h1.24Zm8.49,14.17H173V40.44a3.45,3.45,0,0,0-.29-1.38,3.69,3.69,0,0,0-1.93-1.93,3.59,3.59,0,0,0-3.92.73,3.7,3.7,0,0,0-1.11,2.55v8.81h-1.24V40.41a5.26,5.26,0,0,1,.42-1.86A4.94,4.94,0,0,1,167.45,36a4.73,4.73,0,0,1,1.89-.38,4.78,4.78,0,0,1,1.88.38,4.91,4.91,0,0,1,1.55,1,5.06,5.06,0,0,1,1,1.53,4.73,4.73,0,0,1,.38,1.89Z"/><path class="cls-10" d="M181.4,43.18a5,5,0,0,0,1.79,2.47,4.66,4.66,0,0,0,2.88,1,4.81,4.81,0,0,0,2.31-.56,5.57,5.57,0,0,0,1.77-1.55l1,.69A6.36,6.36,0,0,1,189,47.11a5.82,5.82,0,0,1-2.93.73,5.93,5.93,0,0,1-2.34-.47,6.4,6.4,0,0,1-1.91-1.28,6.53,6.53,0,0,1-1.33-1.88,5.53,5.53,0,0,1-.54-2.27h12.67v-.22a6.51,6.51,0,0,0-1.91-4.62,6.37,6.37,0,0,0-2.09-1.39,6.49,6.49,0,0,0-2.55-.51,6.46,6.46,0,0,0-4.61,1.91,6.55,6.55,0,0,0-1.91,4.63,6.36,6.36,0,0,0,.52,2.58,6.74,6.74,0,0,0,1.42,2.07,6.87,6.87,0,0,0,2.08,1.38,6.25,6.25,0,0,0,2.5.51,6.41,6.41,0,0,0,3.15-.8,6.34,6.34,0,0,0,2.27-2.08l1,.69a7.78,7.78,0,0,1-6.44,3.43,7.28,7.28,0,0,1-3-.62,8.3,8.3,0,0,1-2.48-1.68,7.64,7.64,0,0,1-1.69-2.48,7.32,7.32,0,0,1-.62-3,7.81,7.81,0,0,1,.58-3,7.69,7.69,0,0,1,1.68-2.51h0a7.72,7.72,0,0,1,8.49-1.64,8,8,0,0,1,2.48,1.67,8.14,8.14,0,0,1,1.67,2.48,7.32,7.32,0,0,1,.62,3v1.46ZM180,41.5a5.61,5.61,0,0,1,.54-2.28,6.62,6.62,0,0,1,1.33-1.87,6.4,6.4,0,0,1,1.91-1.28,5.93,5.93,0,0,1,2.34-.47,6.11,6.11,0,0,1,4.31,1.75,6,6,0,0,1,1.3,1.87,6.31,6.31,0,0,1,.51,2.28Zm10.82-1.24A5,5,0,0,0,189,37.79a4.89,4.89,0,0,0-6.34.47h0a5.42,5.42,0,0,0-1.21,2Z"/><path class="cls-10" d="M201.33,37.28a1.15,1.15,0,0,0-1-.44,1.13,1.13,0,0,0-.82.34,1.14,1.14,0,0,0-.34.82.92.92,0,0,0,.2.62,1.9,1.9,0,0,0,.51.46,8,8,0,0,0,1.26.64,15.91,15.91,0,0,1,1.6.76,5.48,5.48,0,0,1,1.26,1,3.89,3.89,0,0,1,.82,1.31,5.22,5.22,0,0,1,.29,1.82,4.69,4.69,0,0,1-.39,1.91A4.81,4.81,0,0,1,203.72,48a5.2,5.2,0,0,1-1.59,1.08,4.78,4.78,0,0,1-4.42-.31,5,5,0,0,1-1.84-1.88l2.55-1.39,0,.08a1.91,1.91,0,0,0,1.75,1,2,2,0,0,0,1.48-.6,2,2,0,0,0,.6-1.44,1.7,1.7,0,0,0-.2-.85,2.07,2.07,0,0,0-.53-.61,2.75,2.75,0,0,0-.73-.41l-.8-.35q-.77-.33-1.44-.69a5.21,5.21,0,0,1-1.17-.86,4.08,4.08,0,0,1-.78-1.16,4.17,4.17,0,0,1-.29-1.63,3.73,3.73,0,0,1,.33-1.56,4.13,4.13,0,0,1,2.15-2.15,3.73,3.73,0,0,1,1.56-.33,4.05,4.05,0,0,1,1.79.41,3.9,3.9,0,0,1,1.38,1.12l-.91.73a3.34,3.34,0,0,0-1-.73,2.61,2.61,0,0,0-1.19-.29,2.79,2.79,0,0,0-1.11.23,3.25,3.25,0,0,0-.91.62,3,3,0,0,0-.6.89,2.69,2.69,0,0,0-.22,1.09,2.48,2.48,0,0,0,.44,1.55,4.07,4.07,0,0,0,1.09,1,8.71,8.71,0,0,0,1.44.69,7.42,7.42,0,0,1,1.44.71,3.91,3.91,0,0,1,1.09,1,2.71,2.71,0,0,1,.44,1.62,3.23,3.23,0,0,1-3.28,3.27,3.23,3.23,0,0,1-1.71-.47,3.47,3.47,0,0,1-1.2-1.24l-.37.18a4.14,4.14,0,0,0,1.37,1.42,3.44,3.44,0,0,0,1.91.55,3.8,3.8,0,0,0,1.46-.29,3.65,3.65,0,0,0,1.18-.81,4,4,0,0,0,.79-1.18,3.67,3.67,0,0,0,.29-1.44,3.22,3.22,0,0,0-.44-1.77,4,4,0,0,0-1.09-1.11,6.92,6.92,0,0,0-1.44-.72,12,12,0,0,1-1.44-.66,3.7,3.7,0,0,1-1.09-.89,2.11,2.11,0,0,1-.44-1.41,2.36,2.36,0,0,1,2.4-2.4,2.3,2.3,0,0,1,1.82.84Z"/><path class="cls-10" d="M55.81,225.62a7,7,0,0,1,2.53,2.69,7.38,7.38,0,0,1,.89,3.54,6.86,6.86,0,0,1-.61,2.88A7.93,7.93,0,0,1,57,237.06a7.48,7.48,0,0,1-2.35,1.56,7,7,0,0,1-2.84.59,7.34,7.34,0,0,1-2.38-.4,8,8,0,0,1-2.12-1.13,7.19,7.19,0,0,1-1.64-1.75,7.82,7.82,0,0,1-1-2.26l1.17-.29a6.55,6.55,0,0,0,.8,1.84A5.8,5.8,0,0,0,48,236.71a6.23,6.23,0,0,0,1.76,1,6.1,6.1,0,0,0,2.06.34,6,6,0,0,0,2.41-.49,6.24,6.24,0,0,0,2-1.33,6.12,6.12,0,0,0,1.33-2,5.9,5.9,0,0,0,.5-2.4,6.06,6.06,0,0,0-.35-2.06,6.4,6.4,0,0,0-1-1.77,6.47,6.47,0,0,0-1.5-1.36,6,6,0,0,0-1.84-.82,4.14,4.14,0,0,0,1.93-1.49A4,4,0,0,0,56,222a4,4,0,0,0-.33-1.63,4.09,4.09,0,0,0-.91-1.33,4.59,4.59,0,0,0-1.35-.89,4.24,4.24,0,0,0-1.64-.32,4,4,0,0,0-2.58.89,4,4,0,0,0-1.46,2.24l-1.17-.33a5.63,5.63,0,0,1,1.95-2.89,5.21,5.21,0,0,1,5.34-.72,6.13,6.13,0,0,1,1.73,1.17,5.59,5.59,0,0,1,1.21,1.71,5,5,0,0,1,.45,2.08,5.29,5.29,0,0,1-1.46,3.68Zm-8.34,7.32v0a4.27,4.27,0,0,0,1.58,2.4A4.49,4.49,0,0,0,55,235a5,5,0,0,0,1-1.42,4.25,4.25,0,0,0,.36-1.75,4.38,4.38,0,0,0-.36-1.77,4.59,4.59,0,0,0-2.43-2.37,4.38,4.38,0,0,0-1.73-.34v-1.24a5.57,5.57,0,0,1,2.24.45,5.89,5.89,0,0,1,1.81,1.22,6,6,0,0,1,1.22,1.81,5.8,5.8,0,0,1,0,4.48,6,6,0,0,1-1.22,1.8A5.72,5.72,0,0,1,54,237.11a5.41,5.41,0,0,1-2.24.46,5.53,5.53,0,0,1-3.53-1.22,5.61,5.61,0,0,1-2-3.08Zm4.33-8.52a2.48,2.48,0,0,0,1.79-4.23,2.37,2.37,0,0,0-1.79-.76,2.49,2.49,0,0,0-1.51.52,2.29,2.29,0,0,0-.89,1.33v0L48.2,221a3.68,3.68,0,0,1,3.6-2.84,3.8,3.8,0,0,1,1.46.29,4,4,0,0,1,1.2.79,3.42,3.42,0,0,1,.8,1.19,3.63,3.63,0,0,1,.3,1.46,3.72,3.72,0,0,1-.3,1.47,3.52,3.52,0,0,1-.8,1.19,3.77,3.77,0,0,1-1.2.78,3.63,3.63,0,0,1-1.46.3Z"/><path class="cls-10" d="M62.48,223.43a12.87,12.87,0,0,1,1.16-2.71,9.22,9.22,0,0,1,1.75-2.19,7.62,7.62,0,0,1,5.25-2,7.43,7.43,0,0,1,3.84,1,8.84,8.84,0,0,1,2.77,2.57,11.8,11.8,0,0,1,1.68,3.62,15.84,15.84,0,0,1,0,8.35,11.8,11.8,0,0,1-1.68,3.62,8.55,8.55,0,0,1-2.77,2.55,8.11,8.11,0,0,1-7.69,0A8.48,8.48,0,0,1,64,235.69a11.75,11.75,0,0,1-1.65-3.62,15.51,15.51,0,0,1-.57-4.19A15.13,15.13,0,0,1,62.48,223.43Zm1.16.36a13.42,13.42,0,0,0-.43,2,14.11,14.11,0,0,0-.15,2.07,14.72,14.72,0,0,0,.47,3.67,11.17,11.17,0,0,0,1.41,3.26,7.51,7.51,0,0,0,2.35,2.31,6.88,6.88,0,0,0,6.7,0,7.79,7.79,0,0,0,2.37-2.31,10.93,10.93,0,0,0,1.42-3.26,14.72,14.72,0,0,0,.47-3.67,14.44,14.44,0,0,0-.47-3.65A10.92,10.92,0,0,0,76.36,221,7.56,7.56,0,0,0,74,218.66a6.31,6.31,0,0,0-3.35-.87,6.23,6.23,0,0,0-2.5.47,6.84,6.84,0,0,0-2,1.27,8,8,0,0,0-1.52,1.91A11.38,11.38,0,0,0,63.64,223.79Zm7-5.6a5.8,5.8,0,0,1,3.21.87,7.58,7.58,0,0,1,2.25,2.26,10.19,10.19,0,0,1,1.31,3.11,14.34,14.34,0,0,1,0,6.89,10.17,10.17,0,0,1-1.3,3.11,7.15,7.15,0,0,1-2.22,2.26,5.83,5.83,0,0,1-3.25.88,5.66,5.66,0,0,1-3.22-.9,7.58,7.58,0,0,1-2.24-2.27,9.92,9.92,0,0,1-1.32-3.12,13.86,13.86,0,0,1,0-6.85,10.48,10.48,0,0,1,1.33-3.11,7.58,7.58,0,0,1,2.25-2.26A5.74,5.74,0,0,1,70.66,218.19Zm0,1.24a4.49,4.49,0,0,0-2.72.8,6.58,6.58,0,0,0-1.84,2A9.33,9.33,0,0,0,65,225a13.4,13.4,0,0,0-.33,2.88,13.78,13.78,0,0,0,.33,2.93,9.12,9.12,0,0,0,1,2.73,6.58,6.58,0,0,0,1.84,2,5.09,5.09,0,0,0,5.45,0,6.79,6.79,0,0,0,1.86-2,9,9,0,0,0,1-2.72,13.46,13.46,0,0,0,.33-2.91,13.12,13.12,0,0,0-.33-2.84,9.29,9.29,0,0,0-1-2.75,6.48,6.48,0,0,0-1.86-2.06A4.54,4.54,0,0,0,70.64,219.43Z"/><path class="cls-10" d="M82.62,223.43a12.39,12.39,0,0,1,1.17-2.71,9,9,0,0,1,1.75-2.19,7.62,7.62,0,0,1,5.24-2,7.47,7.47,0,0,1,3.85,1,8.91,8.91,0,0,1,2.76,2.57,11.57,11.57,0,0,1,1.68,3.62,15.57,15.57,0,0,1,0,8.35,11.57,11.57,0,0,1-1.68,3.62,8.62,8.62,0,0,1-2.76,2.55,8.11,8.11,0,0,1-7.69,0,8.38,8.38,0,0,1-2.75-2.55,12,12,0,0,1-1.66-3.62,15.75,15.75,0,0,1,.09-8.64Zm1.17.36a13.45,13.45,0,0,0-.44,2,14.11,14.11,0,0,0-.14,2.07,14.27,14.27,0,0,0,.47,3.67,10.9,10.9,0,0,0,1.4,3.26,7.51,7.51,0,0,0,2.35,2.31,6.88,6.88,0,0,0,6.7,0,7.68,7.68,0,0,0,2.37-2.31,10.68,10.68,0,0,0,1.42-3.26,14.28,14.28,0,0,0,.48-3.67,14,14,0,0,0-.48-3.65A10.67,10.67,0,0,0,96.5,221a7.46,7.46,0,0,0-2.37-2.31,6.86,6.86,0,0,0-5.84-.4,6.89,6.89,0,0,0-2,1.27,8,8,0,0,0-1.51,1.91A10.39,10.39,0,0,0,83.79,223.79Zm7-5.6a5.8,5.8,0,0,1,3.21.87,7.46,7.46,0,0,1,2.25,2.26,10,10,0,0,1,1.32,3.11,14.34,14.34,0,0,1,0,6.89,10.43,10.43,0,0,1-1.3,3.11,7.29,7.29,0,0,1-2.23,2.26,5.79,5.79,0,0,1-3.25.88,5.65,5.65,0,0,1-3.21-.9,7.73,7.73,0,0,1-2.25-2.27A9.91,9.91,0,0,1,84,231.28a14,14,0,0,1,0-6.85,10.49,10.49,0,0,1,1.34-3.11,7.43,7.43,0,0,1,2.24-2.26A5.74,5.74,0,0,1,90.8,218.19Zm0,1.24a4.46,4.46,0,0,0-2.71.8,6.46,6.46,0,0,0-1.84,2A9.08,9.08,0,0,0,85.17,225a13.4,13.4,0,0,0-.33,2.88,13.78,13.78,0,0,0,.33,2.93,8.88,8.88,0,0,0,1.06,2.73,6.46,6.46,0,0,0,1.84,2,5.08,5.08,0,0,0,5.44,0,6.54,6.54,0,0,0,1.86-2,9,9,0,0,0,1.06-2.72,13.46,13.46,0,0,0,.33-2.91,13.12,13.12,0,0,0-.33-2.84,9.3,9.3,0,0,0-1.06-2.75,6.26,6.26,0,0,0-1.86-2.06A4.54,4.54,0,0,0,90.78,219.43Z"/><path class="cls-10" d="M117.63,241.72h-1.24v-2.59a7.09,7.09,0,0,1-2.91-1.22,6.44,6.44,0,0,1-2-2.31l1.09-.58a5.38,5.38,0,0,0,2,2.17,5.62,5.62,0,0,0,3,.81h.11Zm-3.64-7.5a3.57,3.57,0,0,0,1,1.22,5.32,5.32,0,0,0,1.4.74v-8.59c-.58-.3-1.13-.61-1.64-.93a6.28,6.28,0,0,1-1.31-1.13,4.81,4.81,0,0,1-.85-1.48,5.56,5.56,0,0,1-.31-2,5.39,5.39,0,0,1,1.14-3.38,5.61,5.61,0,0,1,3-2V214h1.24v3.76a4,4,0,0,0-1.58.38,4.51,4.51,0,0,0-1.32.91,4.35,4.35,0,0,0-.89,1.35,4.2,4.2,0,0,0-.33,1.66,4,4,0,0,0,.35,1.74,4.32,4.32,0,0,0,.91,1.28,6.12,6.12,0,0,0,1.31.95c.5.26,1,.52,1.55.76v10.75h-.11a5.17,5.17,0,0,1-2.73-.75,5,5,0,0,1-1.9-2Zm3.64-7.87c-.49-.22-.95-.45-1.4-.69a5.58,5.58,0,0,1-1.19-.86,4,4,0,0,1-.82-1.15,4,4,0,0,1,0-3.06,3.85,3.85,0,0,1,.8-1.22,3.74,3.74,0,0,1,1.18-.82,4.33,4.33,0,0,1,1.44-.33Zm-1.24-6.52a3.39,3.39,0,0,0-.89,1,2.46,2.46,0,0,0-.35,1.3,2.3,2.3,0,0,0,.35,1.31,3.83,3.83,0,0,0,.89.91Zm1.68-5.8h1.24v2.74a4.79,4.79,0,0,1,1.56.71,5.22,5.22,0,0,1,1.24,1.14l-1,.77a4.09,4.09,0,0,0-3.09-1.6Zm1.24,11.7c.73.34,1.41.7,2,1.07a7.4,7.4,0,0,1,1.64,1.33,5.48,5.48,0,0,1,1.07,1.77,6.72,6.72,0,0,1,.38,2.42,6.91,6.91,0,0,1-.36,2.21,6.65,6.65,0,0,1-1.06,2,7.33,7.33,0,0,1-1.64,1.55,6.5,6.5,0,0,1-2.07,1v2.73h-1.24V238a5.57,5.57,0,0,0,3.64-1.82,5.86,5.86,0,0,0,1.09-1.75,5.42,5.42,0,0,0,.4-2.08,4.81,4.81,0,0,0-1.58-3.79,6.85,6.85,0,0,0-1.6-1.09c-.6-.29-1.2-.57-1.81-.84l-.14-.07v-8.31a3.85,3.85,0,0,1,2.77,1.42l-1,.77-.27-.27a1.5,1.5,0,0,0-.31-.24ZM118.07,227l1.73.82a6.46,6.46,0,0,1,1.51,1,4.86,4.86,0,0,1,1.08,1.44,4.66,4.66,0,0,1,.41,2,5.13,5.13,0,0,1-.36,1.9,5.28,5.28,0,0,1-1,1.62,5.69,5.69,0,0,1-1.51,1.16,4.54,4.54,0,0,1-1.84.53Zm1.24,8.93a3.75,3.75,0,0,0,1.64-1.5,4,4,0,0,0,.62-2.11,3.12,3.12,0,0,0-.66-2.11,5.61,5.61,0,0,0-1.6-1.28Z"/><path class="cls-10" d="M127.18,217h6.44a10.53,10.53,0,0,1,4.21.85,11.4,11.4,0,0,1,3.48,2.34,11.23,11.23,0,0,1,2.39,3.48,10.65,10.65,0,0,1,0,8.5,11.17,11.17,0,0,1-5.86,5.85,10.54,10.54,0,0,1-4.23.87h-6.44Zm1.23,1.24V237.6h5.21a9.34,9.34,0,0,0,3.77-.76,10,10,0,0,0,3.1-2.09,9.54,9.54,0,0,0,2.09-3.09,9.53,9.53,0,0,0,0-7.53,10.37,10.37,0,0,0-2.12-3.09,10,10,0,0,0-3.09-2.09,9.33,9.33,0,0,0-3.74-.76Zm.4.4h4.83a8.79,8.79,0,0,1,3.59.75,9.58,9.58,0,0,1,3,2,9.3,9.3,0,0,1,2,2.95,9.27,9.27,0,0,1,0,7.21,9.19,9.19,0,0,1-2,2.95,9.78,9.78,0,0,1-3,2,8.78,8.78,0,0,1-3.59.74h-4.83Zm1.24,1.24V236h3.57a7.87,7.87,0,0,0,3.12-.63,8.31,8.31,0,0,0,2.57-1.73,8.73,8.73,0,0,0,1.75-2.57,7.79,7.79,0,0,0,.65-3.15,7.71,7.71,0,0,0-.65-3.14,8.45,8.45,0,0,0-1.77-2.55,8.74,8.74,0,0,0-2.57-1.73,7.71,7.71,0,0,0-3.1-.63Z"/><path class="cls-10" d="M150,231.27v7.57h-1.24V230H153a5.55,5.55,0,0,0,2.28-.48,5.9,5.9,0,0,0,1.87-1.27,6,6,0,0,0,1.28-1.88,5.79,5.79,0,0,0,.47-2.29,5.59,5.59,0,0,0-.47-2.24,6.26,6.26,0,0,0-1.28-1.88,6,6,0,0,0-1.87-1.31,5.4,5.4,0,0,0-2.28-.49h-4.7v20.65H147.1V217H153a6.9,6.9,0,0,1,2.75.56,7.36,7.36,0,0,1,3.83,3.83,7,7,0,0,1,0,5.5,7.61,7.61,0,0,1-1.55,2.28,7.83,7.83,0,0,1-2.28,1.56,6.6,6.6,0,0,1-2.75.59Zm-1.24-12.68H153a5.15,5.15,0,0,1,2.13.45,6,6,0,0,1,1.75,1.21A5.52,5.52,0,0,1,158.1,222a5.07,5.07,0,0,1,.44,2.1,5,5,0,0,1-.44,2.09,5.57,5.57,0,0,1-1.18,1.75,5.8,5.8,0,0,1-1.75,1.2,5,5,0,0,1-2.13.46h-4.3Zm1.24,1.24v8.52H153a3.81,3.81,0,0,0,1.64-.35,4.65,4.65,0,0,0,1.35-.91,4.14,4.14,0,0,0,1.27-3,4,4,0,0,0-.34-1.64,4.52,4.52,0,0,0-2.28-2.28,4,4,0,0,0-1.64-.34Z"/><path class="cls-10" d="M165.43,219.86a11.65,11.65,0,0,1,3.68-2.46,11.07,11.07,0,0,1,4.33-.85,10.85,10.85,0,0,1,4.41.91,11.39,11.39,0,0,1,3.61,2.48,12,12,0,0,1,2.42,3.6,10.8,10.8,0,0,1,.89,4.34,11,11,0,0,1-.89,4.39,11.63,11.63,0,0,1-2.44,3.6,11.45,11.45,0,0,1-3.61,2.44,10.84,10.84,0,0,1-4.39.9,10.73,10.73,0,0,1-4.35-.9,11.53,11.53,0,0,1-6.07-6,10.73,10.73,0,0,1-.91-4.42,11.13,11.13,0,0,1,.86-4.34A11.76,11.76,0,0,1,165.43,219.86Zm.87.87a10,10,0,0,0-3,7.13,9.77,9.77,0,0,0,.8,3.91,10.4,10.4,0,0,0,5.39,5.4,9.91,9.91,0,0,0,7.8,0,10.38,10.38,0,0,0,3.2-2.18,10.21,10.21,0,0,0,2.19-3.22,9.77,9.77,0,0,0,.8-3.91,9.6,9.6,0,0,0-.8-3.89,10.53,10.53,0,0,0-2.17-3.2,10.15,10.15,0,0,0-3.2-2.18,9.61,9.61,0,0,0-3.92-.8,10,10,0,0,0-7.14,2.94Zm7.14-2.54a9.18,9.18,0,0,1,3.74.78,10.47,10.47,0,0,1,3.09,2.09,9.79,9.79,0,0,1,2.1,3.08,9.56,9.56,0,0,1,0,7.47,9.88,9.88,0,0,1-2.1,3.1,10.1,10.1,0,0,1-3.09,2.09,9.44,9.44,0,0,1-7.47,0,10,10,0,0,1-3.1-2.09,9.85,9.85,0,0,1-2.09-3.1,9.44,9.44,0,0,1,0-7.47,10.05,10.05,0,0,1,2.07-3.08,10.17,10.17,0,0,1,3.08-2.09A9.22,9.22,0,0,1,173.44,218.19Zm0,1.24a8.22,8.22,0,0,0-3.3.67,8.41,8.41,0,0,0-2.69,1.84,8.79,8.79,0,0,0-1.81,2.69,8.34,8.34,0,0,0-.65,3.25,8.14,8.14,0,0,0,.67,3.29,8.62,8.62,0,0,0,1.82,2.7,8.46,8.46,0,0,0,2.7,1.8,8.38,8.38,0,0,0,6.52,0,8.46,8.46,0,0,0,2.7-1.8,8.62,8.62,0,0,0,1.82-2.7,8.14,8.14,0,0,0,.67-3.29,8,8,0,0,0-.67-3.25,9.19,9.19,0,0,0-1.82-2.69,8.6,8.6,0,0,0-2.68-1.84A8,8,0,0,0,173.44,219.43Z"/><path class="cls-10" d="M198.61,238.84h-11V217h1.23V237.6h9.8Zm0-1.64h-9.4V217h1.24v19h8.16v1.24Z"/><path class="cls-10" d="M204,238.84V228.61L196,217h1.5l7.83,11.26v10.63ZM199.45,217l.62.84,5.43,7.83,6.05-8.67H213l-7.54,10.82-5.9-8.49L198,217ZM207,236v2.88h-1.24V228.21l5.61-8.13,2.22-3.13H215L212.86,220l-5.9,8.57Z"/></g></g></svg>