<svg xmlns="http://www.w3.org/2000/svg" viewBox="0 0 253.51 253.51"><defs><style>.cls-1{fill:#cfe7d7;stroke-width:5px;}.cls-1,.cls-3{stroke:#000;}.cls-2{fill:#ac73b1;}.cls-3{fill:none;}.cls-4{fill:#f7941d;stroke:#fff200;stroke-miterlimit:10;}.cls-5{fill:#231f20;}.cls-6{fill:#754e39;}.cls-7{fill:#2f1910;}.cls-8{fill:#452612;}</style></defs><g id="Layer_2" data-name="Layer 2"><g id="Layer_1-2" data-name="Layer 1"><rect class="cls-1" x="2.5" y="2.5" width="248.51" height="248.51"/><rect class="cls-2" x="8.36" y="8.36" width="236.8" height="62.45"/><rect class="cls-3" x="8.36" y="8.36" width="236.8" height="62.45"/><circle class="cls-4" cx="101.38" cy="139.37" r="51.23"/><path class="cls-5" d="M87.5,146.92a4.85,4.85,0,0,1-.15,1.65c-.13.2-.53.31-1.2.31h-.7l-.89,0-1.07,0-1.07,0c-.19,0-1-.91-2.53-2.72s-2.28-2.73-2.34-2.74A26.6,26.6,0,0,0,75,146.21a13.21,13.21,0,0,1-2.43,2.6,10.23,10.23,0,0,1-1.32.05c-2.4,0-3.6-.1-3.6-.29s0-.49,0-.85,0-.65,0-.83a4.45,4.45,0,0,1,.26-2.06l2.9-3.1c1.56-1.67,2.34-2.61,2.34-2.85s-.78-1.17-2.34-2.8c-1-1-2-2-2.93-3.05a1.06,1.06,0,0,1-.2-.61c0-.19,0-.46,0-.8s.06-.64.06-.68a7.58,7.58,0,0,0-.07-.88c0-.4-.06-.69-.06-.88s.21-.27.62-.27l1.19,0c.53,0,.92.05,1.18.05l1,0,1,0c.19,0,1,.92,2.56,2.75a32.88,32.88,0,0,0,2.38,2.76,21.36,21.36,0,0,0,2.59-2.89c1.42-1.75,2.23-2.62,2.44-2.62h4.19c.41,0,.61.08.61.24v3.44c0,.25-.9,1.32-2.71,3.22a27.29,27.29,0,0,0-2.72,3,17.51,17.51,0,0,0,2.39,2.79c1.88,2,2.86,3,2.94,3.13A5.15,5.15,0,0,1,87.5,146.92Z"/><path class="cls-5" d="M132.41,129.29a.43.43,0,0,0-.19-.24.5.5,0,0,0-.29-.07c-.39,0-.85,0-1.33,0-1.52,0-3.53,0-6-.07q-4.86-.07-7.27-.07c-.32,0-.49.07-.49.22a10,10,0,0,1-.38,2.2,10.14,10.14,0,0,0-.41,2c0,.21.14.33.38.33.85,0,2.08,0,3.75-.07s2.9-.05,3.72-.05c.29,0,.46.08.46.22,0,.29-1.45,2.22-4.33,5.82-.34.42-.63.83-.94,1.19-2.22,2.85-3.36,4.28-3.36,4.3a4.79,4.79,0,0,0,.22.8c0,.24.07.46.12.67.1-.17.22-.31.34-.48a20.53,20.53,0,0,1,6-5.32,9.18,9.18,0,0,1,4.86-1.3c.14-.17.26-.34.41-.51.36-.43.67-.84,1-1.23h0a2.34,2.34,0,0,1,.24-.31c.37-.44.7-.87,1-1.24,1.11-1.4,1.91-2.37,2.39-2.9a1.33,1.33,0,0,0,.32-.65A13.72,13.72,0,0,0,132.41,129.29Z"/><path class="cls-5" d="M112.26,134.08a2,2,0,0,1-.28,1.06,46.86,46.86,0,0,1-6.28,7.72,1.66,1.66,0,0,0-.57,1.07c0,.51,0,1.26.11,2.26s.11,1.74.11,2.23c0,.17,0,.28-.14.32l-.48.07c-.42.05-1.48.08-3.17.08s-2.78,0-3.25-.08-.49-.18-.49-.41c0-.51.05-1.27.16-2.29s.15-1.79.15-2.3a1.62,1.62,0,0,0-.42-1q-2.13-2.42-6.08-7.42a1.71,1.71,0,0,1-.41-.91c0-.56,0-1.41-.1-2.54s-.11-2-.11-2.55c0-.31.12-.47.35-.47.72,0,1.8,0,3.26.07s2.54.07,3.27.07c.27,0,.4.07.4.21,0,.49,0,1.21-.08,2.18s-.08,1.69-.08,2.17c0,.28.52,1,1.55,2.13.82.88,1.5,1.57,2,2,.48-.45,1.11-1.13,1.91-2a6.63,6.63,0,0,0,1.51-2.05c0-.48,0-1.19-.13-2.15s-.13-1.67-.13-2.14c0-.2,0-.32.16-.34h.44c.7,0,1.76,0,3.17-.08s2.48-.08,3.2-.08c.23,0,.35.2.35.61s0,1.25,0,2.26S112.26,133.57,112.26,134.08Z"/><path class="cls-6" d="M112.94,176.15l-2.61-.28a1.32,1.32,0,0,1-1-.69,15,15,0,0,1-1.93-4.73A2.75,2.75,0,0,1,109.9,167a15.91,15.91,0,0,1,7,1,58.08,58.08,0,0,1,8,3.94c.55.29,1.12.55,1.67.84.15.08.35.25.35.37a.61.61,0,0,1-.35.39,15.5,15.5,0,0,1-2.64,1c-2.5.49-5,.9-7.54,1.29C115.25,176,114.13,176.05,112.94,176.15Z"/><path class="cls-7" d="M192.15,177.12c-.1-.75-.17-1.53-.27-2.28l-.36-2.24c-.36-1.53-.75-3-1.11-4.55-.24-.67-.49-1.37-.7-2.05-.8-1.6-1.57-3.17-2.35-4.74l-.89-1.25c-1.06-1-2.1-1.94-3.19-2.88a6.14,6.14,0,0,0-1.14-.68c-.7-.24-1.4-.45-2.1-.67a2.25,2.25,0,0,0-2,.26q.25-1.87.51-3.84c-.07-.72-.14-1.42-.24-2.15a11.74,11.74,0,0,0-.56-1.64,3.56,3.56,0,0,0-3.81-2.25,26.28,26.28,0,0,0-2.61.43l-.41.08v-1.26c0-.75-.1-1.5-.15-2.27-.36-1.5-.7-3-1.06-4.52l-1-2.15c-.89-1.14-1.79-2.25-2.68-3.36-.43-.39-.87-.75-1.3-1.14-.22-.16-.44-.33-.66-.48-1.52-.92-3-1.81-4.54-2.7l-.87-.44-.24-.14a1.73,1.73,0,0,1-.24-.13c-.75-.41-1.53-.79-2.27-1.2-.22-.12-.44-.27-.68-.39-.68-.44-1.35-.87-2-1.33a13.11,13.11,0,0,1-5.78-9.18c-.12-.68-.21-1.38-.34-2.06a6.35,6.35,0,0,0-3.4.92c-1.5,1.14-3,2.27-4.52,3.38-.77.78-1.57,1.53-2.35,2.3-1.37,1.67-2.75,3.34-4.1,5-.44.55-.82,1.16-1.24,1.76-.26.56-.55,1.09-.84,1.64-.51,1-1,2-1.48,3.1a9.47,9.47,0,0,0-.79,4.35.81.81,0,0,0,.58.87s.07,0,.09,0c.22.12.41.26.63.38a.12.12,0,0,0,.1.05l0,0-.07-.07-.87-.07h0c-1.07,0-2.13-.07-3.19-.12-.75.22-1.5.43-2.27.68-1.38.82-2.76,1.66-4.16,2.51l-.36.22c-.8.75-1.6,1.47-2.39,2.22a24.38,24.38,0,0,0-4.52,6.93,19.75,19.75,0,0,0-1.14,4.93,15,15,0,0,0,1.5,7.71c-.73-.36-1.35-.65-1.93-1a.59.59,0,0,0-.78,0c-.67.53-1.38,1-2,1.55l-.22.21a21.43,21.43,0,0,0-3.21,4.52l-1.6,4.52c-.12.78-.24,1.52-.36,2.27s-.07,1.53-.12,2.28c0,.48,0,1,0,1.47,0,.12,0,.22.05.34s0,.29,0,.46c.15.75.32,1.5.46,2.24l2,4.38a16.49,16.49,0,0,0,5.2,4.81L112,191.9c1.5.44,3,.85,4.52,1.29l2.27.36c.79.09,1.57.22,2.37.31s1.42.17,2.15.24c1.42.12,2.85.27,4.27.34,3.77.17,7.54.29,11.29.44l.29,0h2.27l2.83,0c.55,0,1.13,0,1.69,0l2.73-.07,1.57-.08c.41,0,.85,0,1.26,0l1.23-.08a1,1,0,0,1,.24,0l3.92-.32,2.63-.21c2.27-.27,4.54-.53,6.79-.82.77-.1,1.52-.22,2.27-.34l4.55-.87c2-.53,4-1,6.06-1.62,1-.27,1.89-.61,2.83-.92l2.41-1,.22-.09c.7-.39,1.38-.75,2.06-1.11a16.87,16.87,0,0,0,3.67-3.07,7.56,7.56,0,0,0,1.86-5.46C192.2,178.15,192.17,177.65,192.15,177.12ZM129.85,135a16.14,16.14,0,0,1,2.27-5.75.65.65,0,0,1,.1-.15,38.7,38.7,0,0,1,3.14-4.52c1.5-1.81,3.19-3.5,4.86-5.17a19.22,19.22,0,0,1,4.85-3.53,3.72,3.72,0,0,1,.51-.17c.56,1.67,1,3.29,1.64,4.81a13.55,13.55,0,0,0,1.91,3c1.94,2.44,4.59,4,7.28,5.41,2,1.06,4,2,5.89,3.24a13.68,13.68,0,0,1,6.7,9.74c.21,1.42.24,2.87.36,4.32,0,.49-.12.65-.63.68-2,.07-3.89.31-5.85.29a54.7,54.7,0,0,1-5.53-.53,47.86,47.86,0,0,1-10-2.59c-2.34-.87-4.68-1.76-6.93-2.83-3.29-1.49-6.5-3.16-9.74-4.78a2.59,2.59,0,0,1-.65-.39C129.75,135.84,129.75,135.55,129.85,135ZM116.1,146.47c.1-.17.22-.31.34-.48a20.53,20.53,0,0,1,6-5.32,9.18,9.18,0,0,1,4.86-1.3,12,12,0,0,1,2.24.29,48.79,48.79,0,0,1,9.81,3.5,109.22,109.22,0,0,0,12.74,5.46,30,30,0,0,0,6.86,1.43c1.19.1,2.37.17,3.55.22a20.49,20.49,0,0,0,6.58-1c1.33-.41,2.66-.8,4-1.09,2.17-.48,2.92.34,3.31,2.32a7.78,7.78,0,0,1-.85,5.87,10.87,10.87,0,0,1-3.93,3.72,29.84,29.84,0,0,1-9.31,3.34c-2,.43-4,.72-6.09,1-1.74.26-3.5.46-5.29.65-1,.12-2.13.17-3.19.27l-5.65.43c-.66.05-1.31.1-2,.12l-3.84.12-3.22.15v.07c-2.39-.19-4.81-.29-7.18-.58-2.68-.34-5.36-.7-8-1.28a5.75,5.75,0,0,1-4.33-3.14,12.65,12.65,0,0,1-1-3.63C112.11,153.39,113.68,149.76,116.1,146.47Zm72.59,36.16a16.66,16.66,0,0,1-6.89,4.42,54.86,54.86,0,0,1-10.87,3c-2.61.51-5.24.9-7.88,1.26-1.64.24-3.31.34-5,.48-2.27.2-4.54.39-6.83.56-.83.07-1.65.12-2.47.12h-8.19v.12c-1.43,0-2.88,0-4.3,0-2.06-.05-4.11-.13-6.14-.22-1.52-.07-3-.2-4.54-.34a75.54,75.54,0,0,1-10.39-1.47,15,15,0,0,1-7.4-4.09,12.29,12.29,0,0,1-3.31-6.5,17.31,17.31,0,0,1,2-11.74,12.14,12.14,0,0,1,3.21-3.87.67.67,0,0,1,.6-.07,40.59,40.59,0,0,0,10.76,3c2,.34,4,.51,6.06.7s3.89.27,5.85.34c2.8.07,5.61.12,8.41.1,2.2,0,4.4-.15,6.6-.34,2.61-.24,5.22-.58,7.85-.87a81.72,81.72,0,0,0,11.07-2.17,22.41,22.41,0,0,0,9.13-4.72c.92-.75,1.86-1.45,2.81-2.17a1.18,1.18,0,0,1,1.11-.17,9.31,9.31,0,0,1,5,3.77,20.53,20.53,0,0,1,3.29,7.13q.87,3.33,1.45,6.74a26.45,26.45,0,0,1,.24,4.08A4.67,4.67,0,0,1,188.69,182.63Z"/><path class="cls-8" d="M140.58,192.62c-1.44,0-2.87,0-4.31,0q-3.06-.08-6.14-.23c-1.51-.08-3-.19-4.54-.34a72.68,72.68,0,0,1-10.38-1.48,14.92,14.92,0,0,1-7.4-4.08A12.3,12.3,0,0,1,104.5,180a17.3,17.3,0,0,1,2-11.76,12.51,12.51,0,0,1,3.22-3.87.74.74,0,0,1,.6-.06,40.74,40.74,0,0,0,10.75,3c2,.33,4.05.52,6.08.69s3.89.29,5.84.34c2.81.08,5.61.14,8.42.11,2.19,0,4.39-.15,6.58-.34,2.62-.23,5.24-.58,7.86-.88a79.89,79.89,0,0,0,11.07-2.16,22.77,22.77,0,0,0,9.12-4.79c.9-.77,1.88-1.38,2.81-2.11a1.18,1.18,0,0,1,1.12-.15,9.19,9.19,0,0,1,5,3.76,20.23,20.23,0,0,1,3.3,7.12q.86,3.34,1.44,6.75a23.29,23.29,0,0,1,.24,4.09,4.51,4.51,0,0,1-1.24,2.84,16.86,16.86,0,0,1-6.89,4.44,57.37,57.37,0,0,1-10.89,3c-2.61.49-5.24.89-7.87,1.26-1.65.23-3.31.33-5,.47l-6.84.56c-.82.06-1.65.11-2.47.11-2.73,0-5.46,0-8.19,0Zm-27.64-16.47c1.19-.1,2.31-.12,3.4-.29,2.52-.39,5-.8,7.54-1.29a15.5,15.5,0,0,0,2.64-1,.61.61,0,0,0,.35-.39c0-.12-.2-.29-.35-.37-.55-.29-1.12-.55-1.67-.84a58.08,58.08,0,0,0-8-3.94,15.91,15.91,0,0,0-7-1,2.75,2.75,0,0,0-2.53,3.42,15,15,0,0,0,1.93,4.73,1.32,1.32,0,0,0,1,.69Z"/><path class="cls-8" d="M133.1,166.25c-2.39-.19-4.79-.3-7.17-.59-2.67-.33-5.35-.7-8-1.27a5.8,5.8,0,0,1-4.32-3.15,13.28,13.28,0,0,1-1-3.62c-.56-4.44,1.16-8.19,3.77-11.63a20.64,20.64,0,0,1,6.06-5.33,9.21,9.21,0,0,1,7.1-1,49.29,49.29,0,0,1,9.8,3.49,104.81,104.81,0,0,0,12.75,5.48,30.21,30.21,0,0,0,6.86,1.42c1.18.09,2.35,0,3.53,0a20.1,20.1,0,0,0,6.59-.88c1.33-.4,2.67-.78,4-1.09,2.17-.48,2.9.34,3.3,2.32a7.93,7.93,0,0,1-.84,5.89,10.36,10.36,0,0,1-3.68,3.73,31.86,31.86,0,0,1-9.56,3.32c-2,.43-4.05.73-6.09,1-1.76.26-3.52.46-5.29.66-1.06.12-2.13.17-3.19.25l-5.66.44c-.66.05-1.31.1-2,.12-1.28,0-2.56.07-3.83.12-1.08,0-2.14.1-3.21.16ZM118.17,148a2.69,2.69,0,0,0,.65,1.8.87.87,0,0,0,1,.35c2.12-.41,4.25-.75,6.35-1.23,3.34-.78,6.67-1.63,10-2.5a11.62,11.62,0,0,0,2.26-1c.62-.31.65-.62.15-1.07a3.12,3.12,0,0,0-.88-.6,34.16,34.16,0,0,0-3.37-1.26A31.45,31.45,0,0,0,123.94,141a3.65,3.65,0,0,0-1.53.48,8.28,8.28,0,0,0-2.65,2.42A6.36,6.36,0,0,0,118.17,148Z"/><path class="cls-8" d="M145.58,115.65c.56,1.69,1,3.31,1.63,4.83a14,14,0,0,0,1.92,3c1.94,2.44,4.6,4,7.28,5.4,2,1.07,4,2.07,5.88,3.25a13.67,13.67,0,0,1,6.71,9.75q.34,2.13.54,4.29a.76.76,0,0,1-.8.84c-2,.08-3.82.33-5.76.29a51,51,0,0,1-5.62-.67,46.79,46.79,0,0,1-10-2.59c-2.34-.87-4.68-1.77-6.95-2.82-3.28-1.51-6.49-3.18-9.73-4.78-.87-.43-1-.6-.81-1.54a16.39,16.39,0,0,1,2.25-5.74,38.06,38.06,0,0,1,3.24-4.67c1.52-1.81,3.2-3.49,4.88-5.16a18.23,18.23,0,0,1,4.85-3.54C145.28,115.74,145.49,115.69,145.58,115.65Zm-1,2.12c-.11-.29-.15-.65-.3-.71s-.47.12-.71.21a1.21,1.21,0,0,0-.28.18,34.51,34.51,0,0,0-5.91,6.4,2.57,2.57,0,0,0-.18,3.17c.73,1.17,2.53,1.87,3.37.29.06-.11.15-.21.22-.32a28.5,28.5,0,0,0,3.05-6.46C144.12,119.63,144.31,118.69,144.55,117.77Z"/><path class="cls-6" d="M118.17,148a6.36,6.36,0,0,1,1.59-4.08,8.28,8.28,0,0,1,2.65-2.42,3.65,3.65,0,0,1,1.53-.48,31.45,31.45,0,0,1,10.37,1.47,34.16,34.16,0,0,1,3.37,1.26,3.12,3.12,0,0,1,.88.6c.5.45.47.76-.15,1.07a11.62,11.62,0,0,1-2.26,1c-3.33.87-6.66,1.72-10,2.5-2.1.48-4.23.82-6.35,1.23a.87.87,0,0,1-1-.35A2.69,2.69,0,0,1,118.17,148Z"/><path class="cls-6" d="M144.55,117.77c-.24.92-.43,1.86-.74,2.76a28.5,28.5,0,0,1-3.05,6.46c-.07.11-.16.21-.22.32-.84,1.58-2.64.88-3.37-.29a2.57,2.57,0,0,1,.18-3.17,34.51,34.51,0,0,1,5.91-6.4,1.21,1.21,0,0,1,.28-.18c.24-.09.53-.28.71-.21S144.44,117.48,144.55,117.77Z"/><path class="cls-5" d="M23.88,32a3.38,3.38,0,0,0-.93-.71A2.53,2.53,0,0,0,21.8,31a2.7,2.7,0,0,0-2.66,2.66A2.38,2.38,0,0,0,19.47,35a3.2,3.2,0,0,0,.85.91,6.86,6.86,0,0,0,1.15.66l1.2.52c.8.37,1.56.74,2.26,1.12a7.45,7.45,0,0,1,1.84,1.34A5.74,5.74,0,0,1,28,41.38a6.73,6.73,0,0,1,.44,2.55,6.41,6.41,0,0,1-.55,2.64,7.12,7.12,0,0,1-1.47,2.21,6.8,6.8,0,0,1-2.19,1.49,6.63,6.63,0,0,1-2.71.55,6.55,6.55,0,0,1-3.55-1,7.33,7.33,0,0,1-2.54-2.62l1.1-.62a5.37,5.37,0,0,0,2.09,2.19,5.69,5.69,0,0,0,2.9.8,5.48,5.48,0,0,0,2.2-.45,5.84,5.84,0,0,0,1.8-1.24,6.25,6.25,0,0,0,1.23-1.8,5.35,5.35,0,0,0,.45-2.18,4.58,4.58,0,0,0-.69-2.64,6.18,6.18,0,0,0-1.71-1.67,13.56,13.56,0,0,0-2.24-1.18,18.7,18.7,0,0,1-2.24-1.1,5.84,5.84,0,0,1-1.72-1.41,3.39,3.39,0,0,1-.69-2.22,3.68,3.68,0,0,1,.31-1.51,4,4,0,0,1,.86-1.24,4.07,4.07,0,0,1,1.25-.83,3.64,3.64,0,0,1,1.48-.31,3.32,3.32,0,0,1,1.64.4,6.13,6.13,0,0,1,1.38,1.06ZM18,45.83l0,.07a3.48,3.48,0,0,0,1.48,1.51,4.15,4.15,0,0,0,2,.53,3.86,3.86,0,0,0,1.58-.33,4.36,4.36,0,0,0,1.3-.87,4.15,4.15,0,0,0,.85-1.28,3.77,3.77,0,0,0,.31-1.53,3.12,3.12,0,0,0-.69-2.11,6.36,6.36,0,0,0-1.71-1.38,20.32,20.32,0,0,0-2.24-1.1,12.55,12.55,0,0,1-2.24-1.2A6.29,6.29,0,0,1,17,36.41a4.82,4.82,0,0,1-.69-2.71,5.54,5.54,0,0,1,1.64-3.92,5.77,5.77,0,0,1,1.77-1.18,5.4,5.4,0,0,1,4.53.12,5.83,5.83,0,0,1,1.9,1.48l-1,.8a8.21,8.21,0,0,0-1.53-1.17,3.63,3.63,0,0,0-1.82-.43,4.08,4.08,0,0,0-1.66.34A4.43,4.43,0,0,0,17.85,32a4.05,4.05,0,0,0-.35,1.66,3.75,3.75,0,0,0,.69,2.35,6.23,6.23,0,0,0,1.71,1.51,16.11,16.11,0,0,0,2.24,1.11,13.19,13.19,0,0,1,2.25,1.15,6.22,6.22,0,0,1,1.71,1.6,4.17,4.17,0,0,1,.69,2.51,5,5,0,0,1-.42,2,5.1,5.1,0,0,1-1.15,1.66,5.63,5.63,0,0,1-1.69,1.13,5,5,0,0,1-2,.42,5.37,5.37,0,0,1-2.72-.75,4.65,4.65,0,0,1-1.91-2Z"/><path class="cls-5" d="M32.4,50.45H31.16V28.56H32.4V50.45ZM34,36.28a6.39,6.39,0,0,1,1.73-.82,6.83,6.83,0,0,1,1.91-.27,6.25,6.25,0,0,1,2.5.51,6.7,6.7,0,0,1,2.07,1.38,6.37,6.37,0,0,1,1.92,4.59v8.78H42.93V41.67a5,5,0,0,0-.42-2A5.58,5.58,0,0,0,41.38,38a5.2,5.2,0,0,0-1.66-1.15,5.21,5.21,0,0,0-5,.49,5.88,5.88,0,0,0-1.93,2.3v-11H34Zm8.49,14.17H41.29V41.67A3.45,3.45,0,0,0,41,40.29a3.86,3.86,0,0,0-.79-1.15,3.79,3.79,0,0,0-1.14-.78,3.3,3.3,0,0,0-1.39-.29,3.48,3.48,0,0,0-2.53,1A3.7,3.7,0,0,0,34,41.64v8.81H32.8V41.64a5,5,0,0,1,3-4.43,4.73,4.73,0,0,1,1.89-.38,4.82,4.82,0,0,1,1.88.38,4.82,4.82,0,0,1,2.58,2.57,4.57,4.57,0,0,1,.39,1.89Z"/><path class="cls-5" d="M48.94,28.38a1.78,1.78,0,0,1,1.26.51,1.77,1.77,0,0,1,0,2.51,1.78,1.78,0,0,1-1.26.51,1.68,1.68,0,0,1-1.24-.51,1.8,1.8,0,0,1,0-2.51A1.68,1.68,0,0,1,48.94,28.38ZM47.52,50.45v-15h1.24v15Zm1.42-21.13a.76.76,0,0,0-.55.24.84.84,0,0,0,0,1.13.72.72,0,0,0,.55.24.74.74,0,0,0,.56-.24.81.81,0,0,0-.56-1.37Zm0,.44c.27,0,.4.12.4.37s-.13.36-.4.36a.37.37,0,1,1,0-.73Zm.22,5.69H50.4v15H49.16Z"/><path class="cls-5" d="M54.33,28.56h1.24v8.12H52.84V35.45h1.49Zm1.24,8.52v7.58a4.68,4.68,0,0,0,.36,1.84,5,5,0,0,0,1,1.51,5.2,5.2,0,0,0,1.48,1.06,4.64,4.64,0,0,0,1.82.44h.26v1.23a5.69,5.69,0,0,1-2.35-.49,6.32,6.32,0,0,1-2-1.34,6.52,6.52,0,0,1-1.35-2,5.72,5.72,0,0,1-.49-2.35V38.32H52.84V37.08Zm.44-.4V28.56h1.23v6.89h2.48v1.23Zm4.26,12.39a4.43,4.43,0,0,1-1.66-.38,4.37,4.37,0,0,1-1.37-.95,4.6,4.6,0,0,1-.91-1.38,4.36,4.36,0,0,1-.32-1.7V37.08h3.71v1.24H57.24v6.27a3.24,3.24,0,0,0,3.25,3.24v1.24Z"/><path class="cls-5" d="M76.81,46.85A7.59,7.59,0,0,1,74,49.69a7.71,7.71,0,0,1-3.9,1.05,7.28,7.28,0,0,1-3-.61,8.3,8.3,0,0,1-2.48-1.68A7.64,7.64,0,0,1,62.93,46a7.32,7.32,0,0,1-.62-3,7.81,7.81,0,0,1,.58-3,7.59,7.59,0,0,1,1.68-2.51h0a7.63,7.63,0,0,1,2.52-1.68,7.83,7.83,0,0,1,2.95-.58,7.8,7.8,0,0,1,6.74,3.9l-1.06.62c-.15-.24-.3-.48-.47-.71a5.76,5.76,0,0,0-.55-.64h0a6.38,6.38,0,0,0-4.51-1.93h-.11a6.28,6.28,0,0,0-2.53.51,6.52,6.52,0,0,0-4,6,6.39,6.39,0,0,0,.51,2.56,6.23,6.23,0,0,0,1.4,2A7,7,0,0,0,67.54,49a6.13,6.13,0,0,0,2.53.53h.11a6.38,6.38,0,0,0,4.51-1.93h0a6.84,6.84,0,0,0,.55-.64c.17-.23.32-.47.47-.71Zm-2.48-6.34a4.75,4.75,0,0,0-1.84-1.8,4.87,4.87,0,0,0-2.42-.64,4.67,4.67,0,0,0-3.43,1.42h0A4.7,4.7,0,0,0,65.19,43a4.57,4.57,0,0,0,.38,1.87,5,5,0,0,0,1.05,1.57,5.12,5.12,0,0,0,1.57,1.06,4.82,4.82,0,0,0,1.88.38,4.87,4.87,0,0,0,2.42-.64,4.75,4.75,0,0,0,1.84-1.8l1.06.62a5.53,5.53,0,0,1-2.23,2.24,6.18,6.18,0,0,1-5.44.35,6.34,6.34,0,0,1-2-1.3,6,6,0,0,1-1.33-1.95,6.17,6.17,0,0,1,0-4.82,6.1,6.1,0,0,1,1.33-1.93,6.2,6.2,0,0,1,4.37-1.77h.15a6.62,6.62,0,0,1,3,.87,5.47,5.47,0,0,1,2.13,2.19Z"/><path class="cls-5" d="M92,48.45a8.08,8.08,0,0,1-2.51,1.7,7.63,7.63,0,0,1-3,.59,7.43,7.43,0,0,1-3-.61A8.08,8.08,0,0,1,81,48.43,8.22,8.22,0,0,1,79.36,46a7.69,7.69,0,0,1,0-6.05,7.66,7.66,0,0,1,1.69-2.46,7.88,7.88,0,0,1,2.48-1.66,7.44,7.44,0,0,1,3-.6,7.52,7.52,0,0,1,3,.62A7.89,7.89,0,0,1,93.67,40a7.32,7.32,0,0,1,.62,3,7.81,7.81,0,0,1-.58,3A7.47,7.47,0,0,1,92,48.45Zm-.88-.87a6.31,6.31,0,0,0,1.43-2A6.39,6.39,0,0,0,93.06,43a6.32,6.32,0,0,0-.51-2.53,6.85,6.85,0,0,0-1.41-2.07A6.75,6.75,0,0,0,89.05,37a6.13,6.13,0,0,0-2.55-.53,6.28,6.28,0,0,0-2.53.51,6.52,6.52,0,0,0-4,6,6.21,6.21,0,0,0,.53,2.58,6.41,6.41,0,0,0,1.42,2.07A6.7,6.7,0,0,0,84,49a6.25,6.25,0,0,0,2.5.51A6.44,6.44,0,0,0,89.07,49,6.24,6.24,0,0,0,91.12,47.58ZM86.5,49.07a6,6,0,0,1-2.41-.49,6.19,6.19,0,0,1-2-1.33,6.5,6.5,0,0,1-1.29-2,6.11,6.11,0,0,1,0-4.7,6.5,6.5,0,0,1,1.29-2,6.19,6.19,0,0,1,2-1.33,6,6,0,0,1,2.41-.49,5.88,5.88,0,0,1,2.42.49,6.43,6.43,0,0,1,2,1.33,6,6,0,0,1,1.31,2A5.84,5.84,0,0,1,92.65,43a6,6,0,0,1-.47,2.39,5.84,5.84,0,0,1-1.31,1.93,6.71,6.71,0,0,1-2,1.31A5.89,5.89,0,0,1,86.5,49.07Zm0-1.24a4.9,4.9,0,0,0,1.91-.38A5,5,0,0,0,90,46.39a4.81,4.81,0,0,0,1-1.57A4.58,4.58,0,0,0,91.42,43,4.66,4.66,0,0,0,91,41.07a4.87,4.87,0,0,0-1-1.56,5,5,0,0,0-1.57-1.06,4.9,4.9,0,0,0-1.91-.38,4.82,4.82,0,0,0-1.88.38,5,5,0,0,0-1.56,1.06A4.9,4.9,0,0,0,82,41.07,4.65,4.65,0,0,0,81.62,43,4.57,4.57,0,0,0,82,44.82a4.84,4.84,0,0,0,1.06,1.57,5,5,0,0,0,1.56,1.06A4.82,4.82,0,0,0,86.5,47.83Z"/><path class="cls-5" d="M98.41,28.38a1.74,1.74,0,0,1,1.26.51,1.75,1.75,0,0,1,0,2.51,1.74,1.74,0,0,1-1.26.51,1.68,1.68,0,0,1-1.24-.51,1.8,1.8,0,0,1,0-2.51A1.68,1.68,0,0,1,98.41,28.38ZM97,50.45v-15h1.24v15Zm1.42-21.13a.76.76,0,0,0-.55.24.87.87,0,0,0,0,1.13.72.72,0,0,0,.55.24.78.78,0,0,0,.57-.24.81.81,0,0,0,0-1.13A.82.82,0,0,0,98.41,29.32Zm0,.44c.27,0,.4.12.4.37s-.13.36-.4.36a.37.37,0,0,1,0-.73Zm.22,5.69h1.24v15H98.63Z"/><path class="cls-5" d="M104.35,50.45h-1.24v-15h1.24v15ZM106,36.32a5.93,5.93,0,0,1,1.73-.85,6.45,6.45,0,0,1,1.91-.28,6.28,6.28,0,0,1,2.5.51,6.82,6.82,0,0,1,2.07,1.38,6.41,6.41,0,0,1,1.91,4.59v8.78h-1.23V41.7a5,5,0,0,0-.42-2A5.79,5.79,0,0,0,113.33,38a5.46,5.46,0,0,0-1.66-1.14,5.24,5.24,0,0,0-5,.48,5.86,5.86,0,0,0-1.93,2.27V35.45H106Zm8.49,14.13h-1.24V41.67a3.45,3.45,0,0,0-.29-1.38A3.76,3.76,0,0,0,111,38.36a3.22,3.22,0,0,0-1.38-.29,3.37,3.37,0,0,0-1.42.29,3.83,3.83,0,0,0-1.15.78,3.66,3.66,0,0,0-.78,1.15,3.29,3.29,0,0,0-.29,1.38v8.78h-1.24V41.67a4.73,4.73,0,0,1,.38-1.89,5.06,5.06,0,0,1,1-1.53,4.91,4.91,0,0,1,1.55-1,4.88,4.88,0,0,1,6.37,2.57,4.57,4.57,0,0,1,.39,1.89Z"/><path class="cls-5" d="M130.47,42.88v7.57h-1.24V41.64h4.3a5.63,5.63,0,0,0,2.27-.47,6.17,6.17,0,0,0,1.88-1.27A6.37,6.37,0,0,0,139,38a5.79,5.79,0,0,0,.47-2.29,5.51,5.51,0,0,0-.47-2.23,6.37,6.37,0,0,0-1.28-1.89,6.11,6.11,0,0,0-1.88-1.31,5.33,5.33,0,0,0-2.27-.49h-4.7V50.45h-1.24V28.56h5.94a6.9,6.9,0,0,1,2.75.56,7.61,7.61,0,0,1,2.28,1.55A7.4,7.4,0,0,1,140.1,33a6.92,6.92,0,0,1,0,5.5,7.4,7.4,0,0,1-1.54,2.28,7.64,7.64,0,0,1-2.28,1.56,6.6,6.6,0,0,1-2.75.59ZM129.23,30.2h4.3a5,5,0,0,1,2.13.46,5.8,5.8,0,0,1,1.75,1.2,5.46,5.46,0,0,1,1.18,1.75A5.16,5.16,0,0,1,139,35.7a5.24,5.24,0,0,1-.44,2.1,5.52,5.52,0,0,1-1.18,1.74,5.8,5.8,0,0,1-1.75,1.2,5,5,0,0,1-2.13.46h-4.3Zm1.24,1.24V40h3.06a4,4,0,0,0,1.64-.34,4.67,4.67,0,0,0,1.34-.91,4.28,4.28,0,0,0,.93-1.35,4.09,4.09,0,0,0,.35-1.66,4,4,0,0,0-.35-1.64,4.52,4.52,0,0,0-.93-1.35,4.35,4.35,0,0,0-1.34-.93,4,4,0,0,0-1.64-.34Z"/><path class="cls-5" d="M154.37,49a7.63,7.63,0,0,1-4.92,1.74,7.28,7.28,0,0,1-3-.61A8.3,8.3,0,0,1,144,48.45,7.64,7.64,0,0,1,142.31,46a7.71,7.71,0,0,1,0-6.06A7.66,7.66,0,0,1,144,37.45a7.88,7.88,0,0,1,2.48-1.66,7.44,7.44,0,0,1,3-.6,7.6,7.6,0,0,1,4.92,1.71V35.45h1.23v5.21a6.88,6.88,0,0,0-1.49-2.32h0A6.81,6.81,0,0,0,152,37a6.57,6.57,0,0,0-5.1,0,6.52,6.52,0,0,0-4,6,6.36,6.36,0,0,0,.52,2.58,6.6,6.6,0,0,0,1.43,2.07A6.7,6.7,0,0,0,147,49a6.25,6.25,0,0,0,2.5.51,6.28,6.28,0,0,0,4.62-1.93h0a6.87,6.87,0,0,0,1.49-2.34v5.21h-1.23Zm-9.22-1.71a6.43,6.43,0,0,1-1.33-1.95,6.09,6.09,0,0,1,0-4.74,6.5,6.5,0,0,1,1.29-2A6.19,6.19,0,0,1,147,37.32a6,6,0,0,1,2.41-.49,5.88,5.88,0,0,1,2.42.49,6.43,6.43,0,0,1,1.95,1.33,6.2,6.2,0,0,1,1.31,2,6.11,6.11,0,0,1,0,4.7,6.2,6.2,0,0,1-1.31,2,6.43,6.43,0,0,1-1.95,1.33,5.88,5.88,0,0,1-2.42.49,6,6,0,0,1-2.37-.47A6.4,6.4,0,0,1,145.15,47.29Zm.87-.88a4.67,4.67,0,0,0,3.43,1.42,4.9,4.9,0,0,0,1.91-.38,5.12,5.12,0,0,0,1.57-1.06,4.81,4.81,0,0,0,1-1.57,4.58,4.58,0,0,0,.39-1.87,4.66,4.66,0,0,0-.39-1.88,4.87,4.87,0,0,0-1-1.56,5.12,5.12,0,0,0-1.57-1.06,4.9,4.9,0,0,0-1.91-.38,4.82,4.82,0,0,0-1.88.38A5.12,5.12,0,0,0,146,39.51,5,5,0,0,0,145,41.07a4.65,4.65,0,0,0-.38,1.88,4.9,4.9,0,0,0,.36,1.87A4.52,4.52,0,0,0,146,46.41Zm10-11h1.24v15H156Z"/><path class="cls-5" d="M161.76,50.45h-1.24v-15h1.24v15Zm1.64-14.13a5.93,5.93,0,0,1,1.73-.85,6.49,6.49,0,0,1,1.91-.28v1.24a5,5,0,0,0-2.95.9,5.86,5.86,0,0,0-1.93,2.27V35.45h1.24ZM167,38.07a3.37,3.37,0,0,0-1.42.29,4,4,0,0,0-1.15.78,4,4,0,0,0-.78,1.15,3.45,3.45,0,0,0-.29,1.38v8.78h-1.24V41.67a4.73,4.73,0,0,1,.38-1.89,5.24,5.24,0,0,1,1-1.53,5,5,0,0,1,1.55-1,4.9,4.9,0,0,1,1.91-.38Z"/><path class="cls-5" d="M181.14,49a7.59,7.59,0,0,1-4.92,1.74,7.34,7.34,0,0,1-3-.61,8.25,8.25,0,0,1-2.47-1.68,7.82,7.82,0,0,1-1.7-2.48,7.71,7.71,0,0,1,0-6.06,8,8,0,0,1,4.17-4.12,7.51,7.51,0,0,1,3-.6,7.6,7.6,0,0,1,4.92,1.71V35.45h1.24v5.21a7,7,0,0,0-1.49-2.32h0A6.74,6.74,0,0,0,178.79,37a6.25,6.25,0,0,0-2.57-.52,6.32,6.32,0,0,0-2.53.51,6.54,6.54,0,0,0-3.48,3.48A6.49,6.49,0,0,0,169.7,43a6.37,6.37,0,0,0,.53,2.58,6.58,6.58,0,0,0,1.42,2.07A6.87,6.87,0,0,0,173.73,49a6.23,6.23,0,0,0,2.49.51,6.41,6.41,0,0,0,2.57-.51,6.32,6.32,0,0,0,2.06-1.42h0a7,7,0,0,0,1.49-2.34v5.21h-1.24Zm-9.22-1.71a6.61,6.61,0,0,1-1.33-1.95A6,6,0,0,1,170.1,43a5.85,5.85,0,0,1,.48-2.35,6.1,6.1,0,0,1,3.24-3.28,6.2,6.2,0,0,1,4.83,0,6.32,6.32,0,0,1,3.26,3.28,6.11,6.11,0,0,1,0,4.7,6.32,6.32,0,0,1-3.26,3.28,5.93,5.93,0,0,1-2.43.49,6,6,0,0,1-2.37-.47A6.53,6.53,0,0,1,171.92,47.29Zm.88-.88a4.66,4.66,0,0,0,3.42,1.42,4.94,4.94,0,0,0,1.92-.38,5.07,5.07,0,0,0,1.56-1.06,5,5,0,0,0,1.06-1.57,4.74,4.74,0,0,0,.38-1.87,4.82,4.82,0,0,0-.38-1.88,5,5,0,0,0-2.62-2.62,4.94,4.94,0,0,0-1.92-.38,4.77,4.77,0,0,0-1.87.38,5,5,0,0,0-1.57,1.06,5.07,5.07,0,0,0-1.06,1.56,4.82,4.82,0,0,0-.38,1.88,4.73,4.73,0,0,0,.37,1.87A4.39,4.39,0,0,0,172.8,46.41Zm10-11H184v15h-1.24Z"/><path class="cls-5" d="M199.43,49a7.54,7.54,0,0,1-4.88,1.74,7.43,7.43,0,0,1-3-.61,8.3,8.3,0,0,1-2.48-1.7A8.1,8.1,0,0,1,187.37,46a7.62,7.62,0,0,1,0-6,8,8,0,0,1,4.15-4.13,7.78,7.78,0,0,1,7.91,1.09l0-8.34h1.23v12.1a6,6,0,0,0-.93-1.68,6.61,6.61,0,0,0-1.43-1.36,6.65,6.65,0,0,0-3.78-1.19A6.13,6.13,0,0,0,192,37a6.83,6.83,0,0,0-2.08,1.41,6.67,6.67,0,0,0-1.41,2.07A6.32,6.32,0,0,0,188,43a6.39,6.39,0,0,0,.51,2.56,6.58,6.58,0,0,0,1.4,2.07A6.72,6.72,0,0,0,192,49a6.45,6.45,0,0,0,2.55.51,6.54,6.54,0,0,0,6.12-4.27v5.21h-1.24Zm-4.88.07a6.31,6.31,0,0,1-2.41-.47,6.14,6.14,0,0,1-1.95-1.31,6.5,6.5,0,0,1-1.29-1.95,6,6,0,0,1-.47-2.39,6.18,6.18,0,0,1,.45-2.35,6.11,6.11,0,0,1,1.28-2,6.1,6.1,0,0,1,4.39-1.82,5.76,5.76,0,0,1,2.38.49,6.75,6.75,0,0,1,1.95,1.31,5.83,5.83,0,0,1,1.31,1.95,6.13,6.13,0,0,1-1.31,6.71,6.37,6.37,0,0,1-1.95,1.31A6.09,6.09,0,0,1,194.55,49.07Zm0-1.24a4.72,4.72,0,0,0,1.86-.38,5,5,0,0,0,1.56-1,4.8,4.8,0,0,0,1.06-1.55,4.86,4.86,0,0,0,.38-1.91A4.54,4.54,0,0,0,199,41,5.3,5.3,0,0,0,198,39.49a4.91,4.91,0,0,0-1.55-1,4.77,4.77,0,0,0-3.73,0,4.84,4.84,0,0,0-1.56,1.06,5.31,5.31,0,0,0-1.08,1.56,4.8,4.8,0,0,0,0,3.79,5,5,0,0,0,1.08,1.55,5,5,0,0,0,1.56,1A4.74,4.74,0,0,0,194.57,47.83ZM201.1,43V28.56h1.24V50.45h-1.27Z"/><path class="cls-5" d="M207.08,28.38a1.78,1.78,0,0,1,1.26.51,1.77,1.77,0,0,1,0,2.51,1.78,1.78,0,0,1-1.26.51,1.68,1.68,0,0,1-1.24-.51,1.8,1.8,0,0,1,0-2.51A1.68,1.68,0,0,1,207.08,28.38Zm-1.42,22.07v-15h1.24v15Zm1.42-21.13a.76.76,0,0,0-.55.24.84.84,0,0,0,0,1.13.72.72,0,0,0,.55.24.74.74,0,0,0,.56-.24.81.81,0,0,0-.56-1.37Zm0,.44c.27,0,.4.12.4.37s-.13.36-.4.36a.37.37,0,1,1,0-.73Zm.22,5.69h1.24v15H207.3Z"/><path class="cls-5" d="M216.7,38.5a1.19,1.19,0,0,0-.95-.43,1.11,1.11,0,0,0-.82.34,1.15,1.15,0,0,0-.35.82,1,1,0,0,0,.2.62,2.53,2.53,0,0,0,.51.46c.21.13.42.25.64.36s.43.2.62.28a14.94,14.94,0,0,1,1.6.76,5.08,5.08,0,0,1,1.26.95,3.74,3.74,0,0,1,.82,1.31,5.22,5.22,0,0,1,.29,1.82,4.86,4.86,0,0,1-.38,1.91,5,5,0,0,1-1.06,1.57,5.07,5.07,0,0,1-1.58,1.07,4.7,4.7,0,0,1-1.93.4,4.8,4.8,0,0,1-2.5-.7,5.1,5.1,0,0,1-1.84-1.88l2.55-1.39,0,.08a1.91,1.91,0,0,0,1.75,1,2,2,0,0,0,1.47-.6,2,2,0,0,0,.6-1.44,1.66,1.66,0,0,0-.2-.86,2,2,0,0,0-.53-.6,3,3,0,0,0-.72-.42c-.27-.1-.54-.22-.81-.34-.51-.22-1-.45-1.43-.69a5.21,5.21,0,0,1-1.17-.86,3.53,3.53,0,0,1-.78-1.17,3.91,3.91,0,0,1-.29-1.62,3.69,3.69,0,0,1,.32-1.56,4.23,4.23,0,0,1,.88-1.28,4.34,4.34,0,0,1,1.27-.87,3.78,3.78,0,0,1,1.57-.33,4,4,0,0,1,3.17,1.53l-.91.73a3.39,3.39,0,0,0-1-.73,2.57,2.57,0,0,0-1.18-.29,2.79,2.79,0,0,0-1.11.23,3,3,0,0,0-.91.62,2.79,2.79,0,0,0-.82,2,2.48,2.48,0,0,0,.43,1.55,4.27,4.27,0,0,0,1.1,1,7.38,7.38,0,0,0,1.44.69,7.06,7.06,0,0,1,1.43.71,4,4,0,0,1,1.1,1A2.71,2.71,0,0,1,219,45.8a3.17,3.17,0,0,1-.94,2.33,3.21,3.21,0,0,1-2.33.94A3.24,3.24,0,0,1,214,48.6a3.47,3.47,0,0,1-1.2-1.24l-.36.18A4.11,4.11,0,0,0,213.76,49a3.53,3.53,0,0,0,1.92.55,3.75,3.75,0,0,0,1.45-.29,3.69,3.69,0,0,0,1.19-.81,3.79,3.79,0,0,0,.78-1.18,3.67,3.67,0,0,0,.29-1.44A3.14,3.14,0,0,0,219,44a3.72,3.72,0,0,0-1.09-1.11,7.2,7.2,0,0,0-1.44-.73,10.61,10.61,0,0,1-1.44-.65,3.83,3.83,0,0,1-1.09-.89,2.16,2.16,0,0,1-.44-1.41,2.29,2.29,0,0,1,.7-1.71,2.43,2.43,0,0,1,3.53.15Z"/><path class="cls-5" d="M225.84,44.41a4.93,4.93,0,0,0,1.78,2.47,4.66,4.66,0,0,0,2.88.95,4.88,4.88,0,0,0,2.32-.56,5.43,5.43,0,0,0,1.76-1.55l1,.69a6.36,6.36,0,0,1-2.13,1.93,6.16,6.16,0,0,1-5.27.26,6.28,6.28,0,0,1-1.91-1.28,6.42,6.42,0,0,1-1.33-1.87,5.79,5.79,0,0,1-.55-2.28h12.68V43a6.44,6.44,0,0,0-.51-2.54,6.63,6.63,0,0,0-1.4-2.08,6.52,6.52,0,0,0-2.1-1.39,6.45,6.45,0,0,0-2.55-.51,6.32,6.32,0,0,0-2.53.51,6.54,6.54,0,0,0-3.48,3.48A6.49,6.49,0,0,0,224,43a6.37,6.37,0,0,0,.53,2.58,6.58,6.58,0,0,0,1.42,2.07A6.87,6.87,0,0,0,228,49a6.23,6.23,0,0,0,2.49.51,6.52,6.52,0,0,0,5.43-2.88l1,.69a7.81,7.81,0,0,1-6.45,3.42,7.34,7.34,0,0,1-3-.61,8.25,8.25,0,0,1-2.47-1.68,7.82,7.82,0,0,1-1.7-2.48,7.49,7.49,0,0,1-.62-3,7.81,7.81,0,0,1,.59-3A7.41,7.41,0,0,1,225,37.45h0a7.59,7.59,0,0,1,2.51-1.68,7.87,7.87,0,0,1,2.95-.58,7.57,7.57,0,0,1,3,.62A7.84,7.84,0,0,1,236,37.49,7.73,7.73,0,0,1,237.68,40a7.48,7.48,0,0,1,.62,3v1.46Zm-1.46-1.68a5.79,5.79,0,0,1,.55-2.28,6.42,6.42,0,0,1,1.33-1.87,6.28,6.28,0,0,1,1.91-1.28,5.91,5.91,0,0,1,2.33-.47,6.14,6.14,0,0,1,2.39.47,6.25,6.25,0,0,1,1.93,1.28,5.8,5.8,0,0,1,1.29,1.87,5.92,5.92,0,0,1,.51,2.28Zm10.82-1.24A5,5,0,0,0,233.42,39a4.76,4.76,0,0,0-2.92-.94,4.66,4.66,0,0,0-3.42,1.42h0a5.54,5.54,0,0,0-1.2,2Z"/><path class="cls-5" d="M45.15,232.29,44,230.69l.65-.8,2.7-3.39,5.39-6.81,2.16-2.7H57v12.43h3v1.24H55.79V218.2h-.33l-9.91,12.53.22.33h9.58v7.83H54.11v-6.6ZM55.35,219v11.63H46.13Zm-1.24,10.39v-6.85l-.76.94-4.67,5.91Zm5.94,2.87H57v6.6H55.79v-7.83h4.26Z"/><path class="cls-5" d="M66.79,236.19h8.27v1.24h-11l8.6-10a5.72,5.72,0,0,0,1.24-3.68,5.53,5.53,0,0,0-.44-2.16,5.7,5.7,0,0,0-1.22-1.83,6.08,6.08,0,0,0-1.82-1.25,5.27,5.27,0,0,0-2.24-.48,5.8,5.8,0,0,0-1.82.31,6,6,0,0,0-3,2.28,4.71,4.71,0,0,0-.73,1.79l-1.2-.33a6.14,6.14,0,0,1,.91-2.13,7.54,7.54,0,0,1,1.55-1.68,6.7,6.7,0,0,1,2-1.09,6.83,6.83,0,0,1,2.28-.39,6.73,6.73,0,0,1,2.68.55,7.15,7.15,0,0,1,3.73,3.74,6.51,6.51,0,0,1,.55,2.67,7.79,7.79,0,0,1-.36,2.35,6.22,6.22,0,0,1-1.17,2.1Zm8.27,1.64v1.24H62.2l-.58-1.27,9.8-11.44a3.16,3.16,0,0,0,.63-1.17,5,5,0,0,0,.24-1.31v-.15a3.82,3.82,0,0,0-.33-1.55A4.08,4.08,0,0,0,69.8,220a3.9,3.9,0,0,0-1.59-.33,4,4,0,0,0-2.48.84,4,4,0,0,0-1.45,2.22v0l-1.21-.33a5.82,5.82,0,0,1,.75-1.66A4.77,4.77,0,0,1,65,219.54a5.9,5.9,0,0,1,1.51-.8,5.17,5.17,0,0,1,3.75.13A5.58,5.58,0,0,1,72,220a5.46,5.46,0,0,1,1.12,1.66,5.27,5.27,0,0,1,.46,2v.25a4.75,4.75,0,0,1-.31,1.68,6.24,6.24,0,0,1-.82,1.53l-9.22,10.71Z"/><path class="cls-5" d="M82.78,219.83l-1,5.21a8.58,8.58,0,0,1,2.91-.51,7.9,7.9,0,0,1,3,.57,7.08,7.08,0,0,1,2.38,1.58,7.69,7.69,0,0,1,1.59,2.39,7.37,7.37,0,0,1,.58,2.93,6.86,6.86,0,0,1-.6,2.84,7.76,7.76,0,0,1-1.6,2.35,7.5,7.5,0,0,1-2.35,1.59,7.07,7.07,0,0,1-2.84.58,7.15,7.15,0,0,1-2.15-.33,7.41,7.41,0,0,1-2-.93,7.31,7.31,0,0,1-2.73-3.33l1.13-.47a7.05,7.05,0,0,0,2.29,2.78,5.69,5.69,0,0,0,3.43,1,5.76,5.76,0,0,0,2.38-.49,6.35,6.35,0,0,0,3.28-3.28,5.69,5.69,0,0,0,.49-2.35,7.08,7.08,0,0,0-.36-2.2,5.92,5.92,0,0,0-1.13-2,5.8,5.8,0,0,0-2-1.46,6.66,6.66,0,0,0-2.88-.57,8.62,8.62,0,0,0-2.49.4,5.11,5.11,0,0,0-2.13,1.24c.22-1.44.48-2.9.78-4.39s.6-3,.89-4.42h8.45v1.23Zm6.2-1.6H81.4c-.29,1.6-.59,3.17-.89,4.72s-.61,3.11-.9,4.68l.28.13a1.71,1.71,0,0,1,.23.13,6.62,6.62,0,0,1,2.13-1.28,7.09,7.09,0,0,1,2.46-.44,6.32,6.32,0,0,1,2.39.44A5.62,5.62,0,0,1,89,227.83a5.52,5.52,0,0,1,1.22,1.86,6.13,6.13,0,0,1,.44,2.31,5.54,5.54,0,0,1-.46,2.21A5.88,5.88,0,0,1,88.92,236a6.05,6.05,0,0,1-1.82,1.24,5.48,5.48,0,0,1-2.2.45,5.83,5.83,0,0,1-3.21-1,5.23,5.23,0,0,1-2.11-2.64l1.13-.44,0,.07a4.29,4.29,0,0,0,1.66,2,4.58,4.58,0,0,0,4.23.4,4.37,4.37,0,0,0,1.42-1,4.81,4.81,0,0,0,1-1.42,4.22,4.22,0,0,0,.37-1.75,5.48,5.48,0,0,0-.26-1.62,4.21,4.21,0,0,0-.8-1.47,4,4,0,0,0-1.44-1.08,5.06,5.06,0,0,0-2.17-.42,6.1,6.1,0,0,0-2.09.37,4.3,4.3,0,0,0-1.77,1.16l-.44.48-2.18-1.1L80.38,217h9.83v1.24Z"/><path class="cls-5" d="M110,241.77h-1.23v-2.59a7.19,7.19,0,0,1-2.92-1.22,6.64,6.64,0,0,1-2-2.31l1.09-.59a5.61,5.61,0,0,0,5,3h.1Zm-3.64-7.51a3.59,3.59,0,0,0,1,1.22,5.25,5.25,0,0,0,1.41.75v-8.6a16,16,0,0,1-1.64-.93,5.77,5.77,0,0,1-1.31-1.13,4.67,4.67,0,0,1-.86-1.47,5.62,5.62,0,0,1-.31-2,5.31,5.31,0,0,1,1.15-3.37,5.61,5.61,0,0,1,3-2v-2.69H110v3.75a4.31,4.31,0,0,0-1.58.38,4.66,4.66,0,0,0-1.31.91,4.18,4.18,0,0,0-.89,1.35,4.24,4.24,0,0,0-.33,1.66,4.08,4.08,0,0,0,.34,1.75,4.49,4.49,0,0,0,.92,1.27,5.58,5.58,0,0,0,1.31.95c.49.27,1,.52,1.54.77v10.74h-.1a5.29,5.29,0,0,1-2.74-.74,5.06,5.06,0,0,1-1.89-2Zm3.64-7.87c-.48-.22-.95-.45-1.4-.69a5.19,5.19,0,0,1-1.18-.86,3.9,3.9,0,0,1-.82-1.14,3.61,3.61,0,0,1-.31-1.57,3.88,3.88,0,0,1,.29-1.49,3.75,3.75,0,0,1,.8-1.22,3.62,3.62,0,0,1,1.19-.82,3.88,3.88,0,0,1,1.43-.33Zm-1.23-6.52a3.32,3.32,0,0,0-.9,1,2.41,2.41,0,0,0-.34,1.29,2.3,2.3,0,0,0,.34,1.31,3.7,3.7,0,0,0,.9.91Zm1.67-5.79h1.24v2.73a5.17,5.17,0,0,1,1.57.71,5.45,5.45,0,0,1,1.24,1.15l-1,.76a4.17,4.17,0,0,0-3.1-1.6Zm1.24,11.69a21.63,21.63,0,0,1,2,1.08,7.18,7.18,0,0,1,1.64,1.33,5.76,5.76,0,0,1,1.08,1.76,7,7,0,0,1,.38,2.43,6.94,6.94,0,0,1-1.42,4.17,7.56,7.56,0,0,1-1.64,1.55,6.53,6.53,0,0,1-2.08.94v2.74h-1.24V238a5.49,5.49,0,0,0,2-.58,5.64,5.64,0,0,0,1.63-1.24,5.93,5.93,0,0,0,1.09-1.75,5.34,5.34,0,0,0,.4-2.07,5.08,5.08,0,0,0-.44-2.22,5,5,0,0,0-1.15-1.57,6.37,6.37,0,0,0-1.6-1.09c-.59-.3-1.2-.58-1.8-.84l-.15-.08v-8.3a3.8,3.8,0,0,1,2.77,1.42l-1,.76-.27-.27a2.09,2.09,0,0,0-.31-.24Zm-1.24,1.28,1.73.82a6.26,6.26,0,0,1,1.51,1,4.86,4.86,0,0,1,1.08,1.44,4.52,4.52,0,0,1,.42,2,4.9,4.9,0,0,1-.37,1.89,5.06,5.06,0,0,1-1,1.62,5.57,5.57,0,0,1-1.51,1.17,4.66,4.66,0,0,1-1.84.53Zm1.24,8.92a3.68,3.68,0,0,0,1.64-1.49,4,4,0,0,0,.62-2.11,3.15,3.15,0,0,0-.66-2.12,5.45,5.45,0,0,0-1.6-1.27Z"/><path class="cls-5" d="M119.54,217H126a10.57,10.57,0,0,1,4.21.86,11.2,11.2,0,0,1,3.47,2.33,11.07,11.07,0,0,1,2.39,3.48,10.3,10.3,0,0,1,.89,4.26,10.49,10.49,0,0,1-.87,4.25,11.17,11.17,0,0,1-5.87,5.84,10.3,10.3,0,0,1-4.22.88h-6.45Zm1.24,1.24v19.42H126a9.41,9.41,0,0,0,3.77-.76A9.88,9.88,0,0,0,135,231.7a9.33,9.33,0,0,0,.76-3.76,9.18,9.18,0,0,0-.78-3.76,10.09,10.09,0,0,0-2.11-3.09,9.69,9.69,0,0,0-3.1-2.09,9.3,9.3,0,0,0-3.73-.77Zm.4.4H126a8.83,8.83,0,0,1,3.6.75,10,10,0,0,1,3,2,9.21,9.21,0,0,1,0,13.12,9.83,9.83,0,0,1-3,2,8.83,8.83,0,0,1-3.6.75h-4.82Zm1.24,1.24V236H126a7.66,7.66,0,0,0,3.11-.64,8,8,0,0,0,2.57-1.73,8.42,8.42,0,0,0,1.75-2.57,7.6,7.6,0,0,0,.66-3.15,7.51,7.51,0,0,0-.66-3.13,8.45,8.45,0,0,0-1.77-2.55,8.25,8.25,0,0,0-2.57-1.73,7.54,7.54,0,0,0-3.09-.64Z"/><path class="cls-5" d="M142.34,231.31v7.58h-1.23v-8.82h4.29a5.64,5.64,0,0,0,2.28-.47,6.11,6.11,0,0,0,1.88-1.27,5.93,5.93,0,0,0,1.27-1.89,5.63,5.63,0,0,0,.48-2.29,5.39,5.39,0,0,0-.48-2.23,6.16,6.16,0,0,0-1.27-1.89,6.41,6.41,0,0,0-1.88-1.31,5.49,5.49,0,0,0-2.28-.49h-4.69v20.66h-1.24V217h5.93a6.79,6.79,0,0,1,2.76.57,7.1,7.1,0,0,1,2.27,1.55,7.27,7.27,0,0,1,1.55,2.27,6.92,6.92,0,0,1,0,5.5,7.31,7.31,0,0,1-1.55,2.28,7.5,7.5,0,0,1-2.27,1.57,6.63,6.63,0,0,1-2.76.58Zm-1.23-12.68h4.29a5,5,0,0,1,2.14.46,5.75,5.75,0,0,1,1.74,1.2,5.59,5.59,0,0,1,1.19,1.75,5.21,5.21,0,0,1,0,4.19,5.59,5.59,0,0,1-1.19,1.75,5.75,5.75,0,0,1-1.74,1.2,5.17,5.17,0,0,1-2.14.46h-4.29Zm1.23,1.24v8.53h3.06a3.92,3.92,0,0,0,1.64-.35,4.65,4.65,0,0,0,1.35-.91,4.28,4.28,0,0,0,.93-1.35,4.05,4.05,0,0,0,.35-1.66,4,4,0,0,0-.35-1.64,4.6,4.6,0,0,0-.93-1.34,4.52,4.52,0,0,0-1.35-.93,3.92,3.92,0,0,0-1.64-.35Z"/><path class="cls-5" d="M157.79,219.91a11.65,11.65,0,0,1,3.68-2.46,11.13,11.13,0,0,1,4.34-.86,10.94,10.94,0,0,1,4.4.91,11.44,11.44,0,0,1,3.61,2.48,12,12,0,0,1,2.42,3.61,10.6,10.6,0,0,1,.9,4.33,10.81,10.81,0,0,1-.9,4.39,11.51,11.51,0,0,1-2.44,3.61,11.63,11.63,0,0,1-3.6,2.44,11.2,11.2,0,0,1-8.75,0,11.75,11.75,0,0,1-3.6-2.42,11.36,11.36,0,0,1-2.46-3.59,10.77,10.77,0,0,1-.91-4.43,11.07,11.07,0,0,1,.85-4.33A11.65,11.65,0,0,1,157.79,219.91Zm.87.87a10,10,0,0,0-2.95,7.13,9.53,9.53,0,0,0,.81,3.9,10.31,10.31,0,0,0,5.39,5.4,9.88,9.88,0,0,0,7.79,0,10.31,10.31,0,0,0,5.39-5.4,9.79,9.79,0,0,0,0-7.8,10.62,10.62,0,0,0-2.16-3.2,10.08,10.08,0,0,0-3.21-2.18,9.77,9.77,0,0,0-3.91-.8,10.13,10.13,0,0,0-3.88.76A10,10,0,0,0,158.66,220.78Zm7.15-2.55a9.14,9.14,0,0,1,3.73.78,10.6,10.6,0,0,1,3.1,2.1,9.82,9.82,0,0,1,2.09,3.08,9.44,9.44,0,0,1,0,7.47,9.88,9.88,0,0,1-5.19,5.19,9.56,9.56,0,0,1-7.47,0,9.88,9.88,0,0,1-5.19-5.19,9.44,9.44,0,0,1,0-7.47,9.79,9.79,0,0,1,2.08-3.08A10.33,10.33,0,0,1,162,219,9.27,9.27,0,0,1,165.81,218.23Zm0,1.24a8.16,8.16,0,0,0-3.3.68,8.41,8.41,0,0,0-2.7,1.84,8.7,8.7,0,0,0-1.8,2.69,8.32,8.32,0,0,0,0,6.54,8.52,8.52,0,0,0,1.82,2.69,8.42,8.42,0,0,0,11.91,0,8.52,8.52,0,0,0,1.82-2.69,8.16,8.16,0,0,0,.68-3.3,7.94,7.94,0,0,0-.68-3.24,8.75,8.75,0,0,0-1.82-2.69,8.32,8.32,0,0,0-2.68-1.84A8,8,0,0,0,165.81,219.47Z"/><path class="cls-5" d="M191,238.89h-11V217h1.24v20.66H191Zm0-1.64h-9.4V217h1.24v19H191v1.24Z"/><path class="cls-5" d="M196.41,238.89V228.65L188.32,217h1.49l7.83,11.26v10.64ZM191.82,217l.61.84,5.43,7.83,6-8.67h1.49l-7.54,10.82-5.9-8.49L190.32,217Zm7.5,19v2.88h-1.24V228.25l5.61-8.12,2.22-3.14h1.5l-2.19,3.1-5.9,8.56Z"/></g></g></svg>