<svg xmlns="http://www.w3.org/2000/svg" viewBox="0 0 253.51 253.51"><defs><style>.cls-1{fill:#cfe7d7;stroke-width:5px;}.cls-1,.cls-3{stroke:#000;}.cls-2{fill:#a7a5a5;}.cls-3{fill:none;}.cls-4{fill:#231f20;}.cls-5{fill:#be1e2d;}.cls-6,.cls-7{stroke:#231f20;stroke-miterlimit:10;}.cls-6{stroke-width:0.75px;}.cls-7{fill:#fff;stroke-width:0.5px;}</style></defs><g id="Layer_2" data-name="Layer 2"><g id="Layer_1-2" data-name="Layer 1"><rect class="cls-1" x="2.5" y="2.5" width="248.51" height="248.51"/><rect class="cls-2" x="8.36" y="8.36" width="236.8" height="62.45"/><rect class="cls-3" x="8.36" y="8.36" width="236.8" height="62.45"/><rect class="cls-4" x="40.91" y="118.08" width="176.31" height="40.71"/><rect class="cls-5" x="33.46" y="112.33" width="176.31" height="40.71"/><path class="cls-4" d="M49.88,134.7a4,4,0,0,1-1.54,3.14,6.58,6.58,0,0,1-3.29,1.47h-.12c-.14,0-.44-.42-.92-1.27a5.48,5.48,0,0,1-.71-1.55c0-.06.05-.1.14-.12a9.63,9.63,0,0,0,1.73-.51,1.48,1.48,0,0,0,.93-1.38,2.11,2.11,0,0,0-.61-1.31c-.71-.82-1.09-1.27-1.15-1.36a3.65,3.65,0,0,1-.62-2.07A3.27,3.27,0,0,1,45.24,127a6.87,6.87,0,0,1,3-1.17h.16c.09,0,.16.08.21.22a26,26,0,0,0,1.1,2.38.51.51,0,0,1,0,.09c0,.1-.05.15-.16.15l-.24,0-.26,0a2.11,2.11,0,0,0-1.14.3,1,1,0,0,0-.59,1,2.35,2.35,0,0,0,.65,1.35c.77,1,1.17,1.47,1.2,1.52A3.59,3.59,0,0,1,49.88,134.7Z"/><path class="cls-4" d="M60.46,136.05a12.07,12.07,0,0,1-.15,1.42,5.62,5.62,0,0,1-.29,1.34.32.32,0,0,1-.3.17l-.27,0q-.66-.09-3.84-.09H51.49c-.2,0-.3-.09-.3-.26,0-.68,0-1.69.12-3s.11-2.36.11-3,0-2-.11-3.83c0-.48-.05-1.2-.1-2.15v-.13c0-.14.07-.21.23-.21.44,0,1.11,0,2,0l2,0,2,0c.89,0,1.55,0,2,0s.49.12.54.35.07.56.14,1.26.09,1.13.09,1.28a.17.17,0,0,1-.18.19h-.19c-1.6-.14-3-.2-4.31-.2-.32,0-.51.07-.58.22a2.83,2.83,0,0,0-.05.7,1.26,1.26,0,0,0,.18.81.8.8,0,0,0,.59.17H56l.43,0c.76,0,1.53,0,2.3-.06l.5,0a3.28,3.28,0,0,1,.48,0c.15,0,.22.07.22.21,0-.13-.05.33-.16,1.38a13.9,13.9,0,0,0-.08,1.44c0,.12-.08.18-.26.18l-.81-.09q-.51-.06-2.34-.06h-1c-.24,0-.39.06-.43.18a5.58,5.58,0,0,0,0,.56,2.72,2.72,0,0,0,.09.89c.1.22.49.36,1.16.4h1.31c.32,0,.79,0,1.42-.08s1.1-.09,1.41-.09C60.39,135.72,60.46,135.83,60.46,136.05Z"/><path class="cls-4" d="M69.79,139l-2,0-2-.05-2.7,0c-.27,0-.66,0-1.16,0-.18,0-.26-.12-.26-.28q0-1,0-2.94c0-1.31,0-2.29,0-2.95s0-1.74-.06-3.13-.07-2.43-.07-3.13c0-.13.09-.2.27-.2l.81,0c.36,0,.62,0,.8,0l.88,0,.89,0c.09,0,.13.06.12.17v.12c-.07,1.13-.15,2.83-.24,5.09V134c0,.77,0,1.33,0,1.69,0,.07,0,.14,0,.21s0,.12.13.14h.24q.81,0,2.43-.09c1.07,0,1.88-.08,2.43-.08q.24,0,.24.21a13.54,13.54,0,0,1-.23,2.65c0,.16-.09.25-.19.28A1.3,1.3,0,0,1,69.79,139Z"/><path class="cls-4" d="M79.74,139l-2,0-2-.05-2.69,0c-.27,0-.66,0-1.16,0-.18,0-.27-.12-.27-.28,0-.66,0-1.64,0-2.94s0-2.29,0-2.95,0-1.74-.07-3.13-.06-2.43-.06-3.13c0-.13.09-.2.27-.2l.81,0c.36,0,.62,0,.8,0l.88,0,.88,0c.09,0,.14.06.13.17v.12c-.07,1.13-.15,2.83-.24,5.09V134c0,.77,0,1.33,0,1.69a1.49,1.49,0,0,0,0,.21c0,.08,0,.12.13.14h.23q.83,0,2.43-.09c1.08,0,1.89-.08,2.43-.08.17,0,.25.07.25.21a13.54,13.54,0,0,1-.23,2.65c0,.16-.09.25-.19.28A1.3,1.3,0,0,1,79.74,139Z"/><path class="cls-4" d="M94.65,129c0,.12-.06.18-.2.18s-1.13,0-2.71-.13c0,1.52,0,2.58,0,3.18s0,1.77.08,3.2.09,2.49.09,3.2a.23.23,0,0,1-.08.21.74.74,0,0,1-.25,0,12.8,12.8,0,0,1-1.59.07,12.08,12.08,0,0,1-1.63-.07.26.26,0,0,1-.25-.28c0-.71,0-1.77.08-3.19s.1-2.48.1-3.19c0-.47,0-1.52-.08-3.14-1.2.12-2.16.18-2.87.18q-.15,0-.15-.09a6.35,6.35,0,0,1,.13-.69c.1-.42.15-.68.16-.77l.06-.85c.05-.45.12-.67.22-.67h.13a37.69,37.69,0,0,0,4.32.19c.54,0,1.53-.06,3-.18l1.18-.09a.4.4,0,0,1,.21,0,.34.34,0,0,1,0,.17c0,.17,0,.39,0,.68s0,.54,0,.67,0,.38,0,.67A5.29,5.29,0,0,1,94.65,129Z"/><path class="cls-4" d="M104.7,136.05a12.07,12.07,0,0,1-.15,1.42,5.62,5.62,0,0,1-.29,1.34.32.32,0,0,1-.3.17l-.27,0q-.66-.09-3.84-.09H95.73c-.2,0-.3-.09-.3-.26,0-.68,0-1.69.12-3s.11-2.36.11-3,0-2-.11-3.83c0-.48,0-1.2-.1-2.15v-.13c0-.14.07-.21.23-.21.44,0,1.11,0,2,0l2,0,2,0c.89,0,1.55,0,2,0s.49.12.54.35.07.56.14,1.26.09,1.13.09,1.28a.17.17,0,0,1-.18.19h-.19c-1.6-.14-3-.2-4.31-.2-.32,0-.51.07-.58.22a2.83,2.83,0,0,0,0,.7,1.26,1.26,0,0,0,.18.81.8.8,0,0,0,.59.17h.35l.43,0c.76,0,1.52,0,2.3-.06l.5,0a3.28,3.28,0,0,1,.48,0c.15,0,.22.07.22.21a10.43,10.43,0,0,0-.16,1.38,13.9,13.9,0,0,0-.08,1.44c0,.12-.08.18-.26.18l-.81-.09q-.51-.06-2.34-.06h-1c-.24,0-.39.06-.43.18a5.58,5.58,0,0,0,0,.56,2.72,2.72,0,0,0,.09.89c.1.22.49.36,1.16.4h1.31c.32,0,.79,0,1.42-.08s1.1-.09,1.41-.09C104.63,135.72,104.7,135.83,104.7,136.05Z"/><path class="cls-4" d="M117.64,138.62c0,.11-.08.19-.23.23a10.09,10.09,0,0,1-1.67.07,11.26,11.26,0,0,1-1.66-.07.49.49,0,0,1-.39-.41,3.39,3.39,0,0,0-.48-1.39,20.73,20.73,0,0,0-2.41-.06,7.41,7.41,0,0,0-1.63.08,2.42,2.42,0,0,0-.35,1c-.11.5-.25.77-.41.81a15.09,15.09,0,0,1-2.06.07c-.92,0-1.37-.09-1.37-.26s.67-2.08,2-5.76q2.2-6,2.4-6.57c.07-.23.16-.34.25-.34s.42,0,.75,0,.6,0,.77,0l.71,0c.32,0,.55,0,.71,0s.22.1.32.3q.43.94,2.57,6.49T117.64,138.62Zm-6.39-8.21c-.13.27-.34.84-.64,1.72a9.09,9.09,0,0,0-.49,1.65q0,.16.54.18c.19,0,.5,0,.92,0s.62,0,.66-.14a.44.44,0,0,0,0-.13,8.74,8.74,0,0,0-.42-1.64A14.48,14.48,0,0,0,111.25,130.41Z"/><path class="cls-4" d="M131.85,138.57c0,.19-.09.28-.26.28H128.4c-.18,0-.26-.11-.26-.32q0-.9.06-2.73c.05-1.21.07-2.12.07-2.73,0-.17,0-.27-.08-.28a25.75,25.75,0,0,0-1.21,2.79l-1.29,3.2c-.07.14-.14.22-.23.24h-.36c-.31,0-.5-.06-.56-.18-.32-.66-.75-1.62-1.28-2.89s-1-2.29-1.27-2.89a.31.31,0,0,0-.08-.1.45.45,0,0,0-.06.26c0,.59,0,1.48,0,2.65s0,2.06,0,2.65c0,.21-.09.32-.26.32h-3c-.12,0-.19,0-.22-.06a.35.35,0,0,1,0-.2c0-.66,0-1.64.1-3s.09-2.3.09-3,0-2-.09-3.92c0-.5,0-1.24-.08-2.22v-.16c0-.12.12-.18.38-.18l1.49,0,1.48,0c.07,0,.16.13.28.38l2.63,5.78c.19.39.35.58.47.58s.21-.22.43-.67q.9-1.91,2.69-5.71c.1-.23.22-.35.34-.35l.78,0,.8,0c.15,0,.38,0,.69,0s.54,0,.69,0,.27.07.27.22c0,.71,0,1.77-.08,3.18s-.07,2.46-.07,3.17,0,1.64.08,2.95S131.85,137.92,131.85,138.57Z"/><path class="cls-4" d="M146.63,129c0,.12-.07.18-.2.18s-1.14,0-2.72-.13c0,1.52-.05,2.58-.05,3.18s0,1.77.09,3.2.08,2.49.08,3.2a.23.23,0,0,1-.08.21.74.74,0,0,1-.25,0,12.69,12.69,0,0,1-1.59.07,12.18,12.18,0,0,1-1.63-.07.26.26,0,0,1-.25-.28c0-.71,0-1.77.09-3.19s.09-2.48.09-3.19c0-.47,0-1.52-.07-3.14-1.21.12-2.16.18-2.88.18-.1,0-.14,0-.14-.09a5.32,5.32,0,0,1,.12-.69c.1-.42.15-.68.17-.77,0-.28,0-.56.06-.85,0-.45.11-.67.21-.67h.13a37.69,37.69,0,0,0,4.32.19c.54,0,1.54-.06,3-.18l1.18-.09a.4.4,0,0,1,.21,0s0,.07,0,.17,0,.39,0,.68,0,.54,0,.67a5.23,5.23,0,0,0,.06.67A5.29,5.29,0,0,1,146.63,129Z"/><path class="cls-4" d="M160,132.54a6.57,6.57,0,0,1-1.79,4.71,6.51,6.51,0,0,1-9.26,0,7,7,0,0,1,0-9.41,6.42,6.42,0,0,1,9.24,0A6.59,6.59,0,0,1,160,132.54Zm-3.41,0a3.43,3.43,0,0,0-.82-2.3,2.76,2.76,0,0,0-2.19-1,2.73,2.73,0,0,0-2.16,1,3.59,3.59,0,0,0,0,4.58,2.91,2.91,0,0,0,4.37-.06A3.36,3.36,0,0,0,156.55,132.52Z"/><path class="cls-4" d="M172.25,138.34a.49.49,0,0,1-.33.51,6.3,6.3,0,0,1-1.42.09,10.58,10.58,0,0,1-1.63-.09.85.85,0,0,1-.32-.1.73.73,0,0,1-.19-.25l-1.31-2.42a15.8,15.8,0,0,0-1.28-2.14c-.65.23-1,.4-1,.5,0,.45,0,1.13,0,2s.06,1.6.06,2.05a.28.28,0,0,1-.25.32,12.76,12.76,0,0,1-1.69.07,10.17,10.17,0,0,1-1.55-.07c-.17,0-.26-.13-.26-.28q0-1,.09-2.94c.07-1.31.1-2.29.1-2.95s0-1.74-.09-3.14-.09-2.44-.09-3.14c0-.13.06-.2.19-.2l.84,0,.84,0,.86,0,.85,0a.14.14,0,0,1,.15.16c0,.45,0,1.12-.07,2s-.07,1.57-.07,2,.14.78.43.78a2.26,2.26,0,0,0,1.66-.59,4.48,4.48,0,0,0,.9-1.57c.19-.59.5-1.45.94-2.58a.41.41,0,0,1,.41-.23l.71,0,.7,0,.73,0,.72,0a.19.19,0,0,1,.21.21,6.36,6.36,0,0,1-.38,1.45c-.74,2.27-1.6,3.69-2.56,4.25-.2.12-.3.21-.3.28l1.66,2.71A12.08,12.08,0,0,1,172.25,138.34Z"/><path class="cls-4" d="M182.37,136.05a12.07,12.07,0,0,1-.15,1.42,5.13,5.13,0,0,1-.29,1.34.32.32,0,0,1-.3.17l-.27,0q-.66-.09-3.84-.09H173.4c-.19,0-.29-.09-.29-.26,0-.68,0-1.69.11-3s.11-2.36.11-3,0-2-.11-3.83c0-.48-.05-1.2-.1-2.15v-.13c0-.14.06-.21.22-.21.45,0,1.11,0,2,0l2,0,2,0c.88,0,1.54,0,2,0s.49.12.54.35.08.56.14,1.26.09,1.13.09,1.28a.17.17,0,0,1-.18.19h-.19c-1.59-.14-3-.2-4.3-.2-.32,0-.52.07-.59.22a2.83,2.83,0,0,0-.05.7,1.26,1.26,0,0,0,.18.81.81.81,0,0,0,.59.17h.35l.43,0c.76,0,1.53,0,2.3-.06l.5,0a3.39,3.39,0,0,1,.49,0,.19.19,0,0,1,.21.21c0-.13-.05.33-.16,1.38a13.88,13.88,0,0,0-.07,1.44c0,.12-.09.18-.26.18l-.81-.09c-.35,0-1.13-.06-2.35-.06h-1c-.25,0-.39.06-.44.18s0,.22,0,.56a2.72,2.72,0,0,0,.09.89c.11.22.49.36,1.16.4h1.31c.32,0,.8,0,1.42-.08s1.1-.09,1.41-.09C182.31,135.72,182.37,135.83,182.37,136.05Z"/><path class="cls-4" d="M195.48,126.48c0,.69,0,1.72-.08,3.09s-.09,2.4-.09,3.1v5.94c0,.16-.08.24-.26.24s-.36,0-.65,0h-.66l-.7,0c-.31,0-.55,0-.7,0s-.24-.1-.39-.3q-.64-.87-2.92-3.87c-.41-.56-1-1.38-1.89-2.47a.42.42,0,0,0-.14-.11.24.24,0,0,0-.07.2c0,.7,0,1.74.06,3.14s.06,2.44.06,3.13c0,.21-.08.32-.25.32h-3.11c-.18,0-.27-.09-.27-.28,0-.65,0-1.63.1-2.94s.09-2.29.09-2.95,0-1.72-.08-3.1-.09-2.4-.09-3.09c0-.13.12-.2.35-.2s.78,0,1.29-.07c.12,0,.36,0,.71-.12a4.86,4.86,0,0,1,.72-.08c.07,0,.18.1.33.31l3.36,4.6c.3.42.76,1,1.36,1.83.15.18.28.28.39.28s.12-.24.12-.71c0-.63,0-1.58-.11-2.85s-.1-2.22-.1-2.85c0-.23.06-.34.19-.34.36,0,.9,0,1.63,0s1.27,0,1.63,0C195.43,126.2,195.48,126.3,195.48,126.48Z"/><path class="cls-4" d="M203.16,134.7a4,4,0,0,1-1.54,3.14,6.58,6.58,0,0,1-3.29,1.47h-.12c-.14,0-.44-.42-.92-1.27a5.48,5.48,0,0,1-.71-1.55c0-.06,0-.1.14-.12a9.63,9.63,0,0,0,1.73-.51,1.48,1.48,0,0,0,.93-1.38,2.11,2.11,0,0,0-.61-1.31c-.71-.82-1.09-1.27-1.15-1.36a3.66,3.66,0,0,1-.63-2.07,3.28,3.28,0,0,1,1.53-2.75,6.87,6.87,0,0,1,3-1.17h.16c.09,0,.16.08.21.22.16.44.52,1.23,1.09,2.38a.23.23,0,0,1,0,.09c0,.1-.05.15-.16.15l-.24,0-.27,0a2.1,2.1,0,0,0-1.13.3,1,1,0,0,0-.59,1,2.35,2.35,0,0,0,.65,1.35l1.2,1.52A3.59,3.59,0,0,1,203.16,134.7Z"/><path class="cls-6" d="M216.91,154.52a2.41,2.41,0,0,0-3.67.4c-.18.25-.27.26-.5.07a2.34,2.34,0,0,0-2.28-.44,2.29,2.29,0,0,0-1.4,1.15c-.08.14-.18.35-.43.19a2.43,2.43,0,0,0-3.18.64c-.16.21-.29.2-.43-.05s-.27-.54-.4-.82c-1-2.08-2-4.15-3-6.24A2.46,2.46,0,0,0,199,148.1a2.41,2.41,0,0,0-1.86,3.3c.11.27.24.53.37.8l5.77,12.07a3.39,3.39,0,0,1,.15.41l-.09.06c-.3-.19-.62-.37-.91-.58a2.3,2.3,0,0,0-2.51-.38,2.59,2.59,0,0,0-1.53,2.34,1.85,1.85,0,0,0,.52,1.48,12,12,0,0,0,1.26,1c.6.42,1.21.8,1.82,1.21l2.52,1.7c.46.32.92.66,1.39,1a4.74,4.74,0,0,0,1.74.9c.63.13,1.28.22,1.91.35a4.06,4.06,0,0,1,2.28,1.11.94.94,0,0,0,1.17.24l1.9-.9,5.15-2.5c.41-.2.48-.4.36-.84a1.06,1.06,0,0,1,0-.5c.21-.8.44-1.6.66-2.4a9.31,9.31,0,0,0,.34-2.77,6.87,6.87,0,0,0-.67-2.76c-1-2.09-1.93-4.21-2.91-6.31A5.1,5.1,0,0,0,216.91,154.52Zm.91,3.87c.76,1.66,1.54,3.32,2.27,5a5.55,5.55,0,0,1,.29,1.48,12.23,12.23,0,0,1-.81,4.82,4.53,4.53,0,0,0-.18.89.61.61,0,0,1-.39.55c-1.69.8-3.37,1.62-5.05,2.44L213,174a.5.5,0,0,1-.65-.1,4.63,4.63,0,0,0-2.41-1.14c-.59-.11-1.17-.22-1.76-.31a4.86,4.86,0,0,1-1.93-1L204,170l-2.12-1.48c-.57-.39-1.14-.78-1.72-1.15a1.38,1.38,0,0,1-.43-2.11,1.29,1.29,0,0,1,1.95-.39c.92.59,1.83,1.2,2.73,1.81a.64.64,0,0,0,.76.08.37.37,0,0,0,.2-.33l-3.71-7.81h0l-1.86-3.94-.13-.27c-.47-1-1-2-1.43-3a1.61,1.61,0,0,1-.15-1.37,1.37,1.37,0,0,1,1.16-.91,1.34,1.34,0,0,1,1.43.73c.91,1.84,1.79,3.7,2.68,5.54q1.95,4,3.91,8.07a2.94,2.94,0,0,0,.3.42c.15.18.33.14.52.06a.36.36,0,0,0,.24-.44,2.34,2.34,0,0,0-.16-.49q-1-2.08-2.05-4.19a1.54,1.54,0,0,1,.48-2,1.43,1.43,0,0,1,1.74.15,3.52,3.52,0,0,1,.52.74c.68,1.38,1.34,2.76,2,4.14a.8.8,0,0,0,.08.16.5.5,0,0,0,.67.24.52.52,0,0,0,.2-.67c-.12-.28-.26-.55-.39-.83-.52-1.07-1-2.15-1.55-3.21a1.57,1.57,0,0,1,.73-2,1.63,1.63,0,0,1,1.88.7c.59,1.27,1.23,2.52,1.86,3.77a1,1,0,0,0,.38.45.49.49,0,0,0,.44,0,.75.75,0,0,0,.2-.45.88.88,0,0,0-.14-.39c-.42-.89-.86-1.78-1.28-2.67a1.44,1.44,0,0,1,1.37-2.08,1.41,1.41,0,0,1,1.27.89C217,156.64,217.41,157.51,217.82,158.39Z"/><path d="M203.69,140.78c0,.21,0,.41,0,.62-.06.85-.14,1.69-.21,2.54a4.19,4.19,0,0,1-.12.79.63.63,0,0,1-.69.46.69.69,0,0,1-.62-.65c0-.47,0-.93.08-1.39,0-.61.08-1.21.14-1.82,0-.36.06-.73.49-.89A.69.69,0,0,1,203.69,140.78Z"/><path d="M192.31,149.93a1,1,0,0,1-1.1-.2c-.79-.53-1.57-1.06-2.34-1.62a1.38,1.38,0,0,1-.45-.51.62.62,0,0,1,.25-.75.69.69,0,0,1,.85,0l2.62,1.81a.81.81,0,0,1,.42.79A1.66,1.66,0,0,1,192.31,149.93Z"/><path d="M196.57,143.65c.24.51.49,1,.71,1.52a.67.67,0,0,1-.31.92.7.7,0,0,1-.92-.35c-.5-1-1-2.05-1.46-3.08a.64.64,0,0,1,.35-.91.61.61,0,0,1,.88.34c.27.51.5,1,.75,1.56Z"/><path class="cls-7" d="M216.6,155.76c.4.88.81,1.75,1.22,2.63.76,1.66,1.54,3.32,2.27,5a5.55,5.55,0,0,1,.29,1.48,12.23,12.23,0,0,1-.81,4.82,4.53,4.53,0,0,0-.18.89.61.61,0,0,1-.39.55c-1.69.8-3.37,1.62-5.05,2.44L213,174a.5.5,0,0,1-.65-.1,4.63,4.63,0,0,0-2.41-1.14c-.59-.11-1.17-.22-1.76-.31a4.86,4.86,0,0,1-1.93-1L204,170l-2.12-1.48c-.57-.39-1.14-.78-1.72-1.15a1.38,1.38,0,0,1-.43-2.11,1.29,1.29,0,0,1,1.95-.39c.92.59,1.83,1.2,2.73,1.81a.76.76,0,0,0,.79.08.41.41,0,0,0,.15-.27c0-.23-.16-.44-.25-.64s-.15-.32-.23-.47l-.45-.93-.67-1.42-.71-1.5-.67-1.41-.54-1.14-.32-.69-.06-.12c-1.07-2.26-2.13-4.52-3.21-6.77a1.61,1.61,0,0,1-.15-1.37,1.37,1.37,0,0,1,1.16-.91,1.34,1.34,0,0,1,1.43.73c.91,1.84,1.79,3.7,2.68,5.54l1.32,2.73c.44.91.88,1.82,1.33,2.73l.66,1.37a11,11,0,0,0,.74,1.45.83.83,0,0,0,.26.3.48.48,0,0,0,.42,0,.36.36,0,0,0,.24-.44,2.34,2.34,0,0,0-.16-.49q-1-2.08-2.05-4.19a1.54,1.54,0,0,1,.48-2,1.43,1.43,0,0,1,1.74.15,3.52,3.52,0,0,1,.52.74c.68,1.38,1.34,2.76,2,4.14a.8.8,0,0,0,.08.16.5.5,0,0,0,.67.24.52.52,0,0,0,.2-.67c-.12-.28-.26-.55-.39-.83-.52-1.07-1-2.15-1.55-3.21a1.57,1.57,0,0,1,.73-2,1.63,1.63,0,0,1,1.88.7c.23.49.46,1,.7,1.46l.72,1.45c.12.23.24.46.35.7a2.15,2.15,0,0,0,.3.48.51.51,0,0,0,.53.17l.06,0a.53.53,0,0,0,.2-.52,1.57,1.57,0,0,0-.18-.45l-.39-.82c-.24-.48-.47-1-.71-1.45L214,157a1.44,1.44,0,0,1,1.37-2.08A1.41,1.41,0,0,1,216.6,155.76Z"/><path class="cls-4" d="M25.5,34.79a3.12,3.12,0,0,0-.84-.64,2.23,2.23,0,0,0-1-.24,2.43,2.43,0,0,0-2.38,2.38,2.1,2.1,0,0,0,.29,1.16,2.86,2.86,0,0,0,.77.82,5.2,5.2,0,0,0,1,.59l1.08.47c.72.33,1.39.66,2,1a6.83,6.83,0,0,1,1.65,1.21,5,5,0,0,1,1.1,1.65,6,6,0,0,1,.39,2.29,5.89,5.89,0,0,1-.49,2.37,6.55,6.55,0,0,1-1.32,2,6.1,6.1,0,0,1-4.4,1.83,5.91,5.91,0,0,1-3.19-.88,6.73,6.73,0,0,1-2.27-2.35l1-.56a4.92,4.92,0,0,0,1.88,2,5.08,5.08,0,0,0,2.6.72,4.75,4.75,0,0,0,2-.41A5.22,5.22,0,0,0,27,49a5.63,5.63,0,0,0,1.09-1.62,4.78,4.78,0,0,0,.41-2,4.09,4.09,0,0,0-.62-2.36,5.64,5.64,0,0,0-1.54-1.5,11.94,11.94,0,0,0-2-1.06,18.82,18.82,0,0,1-2-1,5.46,5.46,0,0,1-1.53-1.27,3,3,0,0,1-.62-2,3.47,3.47,0,0,1,.27-1.36,3.57,3.57,0,0,1,.77-1.11,4,4,0,0,1,1.13-.75,3.35,3.35,0,0,1,1.32-.27,3,3,0,0,1,1.47.36,5.69,5.69,0,0,1,1.25.94ZM20.2,47.18l0,.06a3.23,3.23,0,0,0,1.33,1.36,3.76,3.76,0,0,0,1.81.47,3.57,3.57,0,0,0,1.42-.29A3.67,3.67,0,0,0,26,48a3.33,3.33,0,0,0,.77-1.14A3.39,3.39,0,0,0,27,45.48a2.82,2.82,0,0,0-.62-1.9,6,6,0,0,0-1.54-1.24,17.09,17.09,0,0,0-2-1,12,12,0,0,1-2-1.08,5.51,5.51,0,0,1-1.53-1.55,4.27,4.27,0,0,1-.63-2.44,4.9,4.9,0,0,1,.4-1.93,4.83,4.83,0,0,1,1.08-1.58,5,5,0,0,1,1.58-1.06,4.9,4.9,0,0,1,4.07.11,5.32,5.32,0,0,1,1.7,1.33l-.85.71a7.63,7.63,0,0,0-1.37-1,3.29,3.29,0,0,0-1.64-.39,3.54,3.54,0,0,0-1.48.31,3.89,3.89,0,0,0-2.06,2.06,3.54,3.54,0,0,0-.31,1.48,3.31,3.31,0,0,0,.62,2.11,5.58,5.58,0,0,0,1.53,1.36,13.43,13.43,0,0,0,2,1,12.63,12.63,0,0,1,2,1,5.89,5.89,0,0,1,1.54,1.44,3.78,3.78,0,0,1,.62,2.26,4.51,4.51,0,0,1-.38,1.83,4.64,4.64,0,0,1-1,1.48,4.84,4.84,0,0,1-1.52,1,4.48,4.48,0,0,1-1.81.37,4.74,4.74,0,0,1-2.43-.67,4.11,4.11,0,0,1-1.72-1.81Z"/><path class="cls-4" d="M43.44,49.53a7.2,7.2,0,0,1-2.26,1.52,6.79,6.79,0,0,1-2.68.54A6.58,6.58,0,0,1,35.81,51a6.92,6.92,0,0,1-2.21-1.52,7.37,7.37,0,0,1-1.5-2.22,6.84,6.84,0,0,1,0-5.42,6.92,6.92,0,0,1,1.52-2.21,7.16,7.16,0,0,1,2.22-1.49,6.85,6.85,0,0,1,5.38,0,7,7,0,0,1,3.72,3.72,6.67,6.67,0,0,1,.56,2.68A7,7,0,0,1,45,47.27,6.51,6.51,0,0,1,43.44,49.53Zm-.79-.78a5.54,5.54,0,0,0,1.28-1.84,5.83,5.83,0,0,0,.46-2.3,5.71,5.71,0,0,0-.46-2.26,6,6,0,0,0-3.14-3.13,5.56,5.56,0,0,0-2.29-.48,5.79,5.79,0,0,0-2.27.46,5.67,5.67,0,0,0-1.86,1.26,5.76,5.76,0,0,0-1.26,1.87,5.88,5.88,0,0,0-.46,2.28,5.56,5.56,0,0,0,.48,2.31,5.8,5.8,0,0,0,1.27,1.86A6.18,6.18,0,0,0,36.26,50a5.55,5.55,0,0,0,2.24.46A5.71,5.71,0,0,0,40.81,50,5.51,5.51,0,0,0,42.65,48.75ZM38.5,50.09a5.21,5.21,0,0,1-2.15-.45,5.37,5.37,0,0,1-1.75-1.19,5.51,5.51,0,0,1-1.16-1.75,5.37,5.37,0,0,1,0-4.21,5.51,5.51,0,0,1,1.16-1.75,5.37,5.37,0,0,1,1.75-1.19,5.43,5.43,0,0,1,4.33,0,5.83,5.83,0,0,1,1.75,1.19,5.38,5.38,0,0,1,1.17,1.75,5.16,5.16,0,0,1,.43,2.1,5.42,5.42,0,0,1-1.6,3.88,5.81,5.81,0,0,1-1.77,1.17A5.26,5.26,0,0,1,38.5,50.09Zm0-1.12a4.43,4.43,0,0,0,4.07-2.69,4.23,4.23,0,0,0,0-3.37,4.42,4.42,0,0,0-4.07-2.7,4.18,4.18,0,0,0-1.68.35,4.41,4.41,0,0,0-2.35,2.35,4.23,4.23,0,0,0,0,3.37,4.41,4.41,0,0,0,2.35,2.35A4.17,4.17,0,0,0,38.5,49Z"/><path class="cls-4" d="M47.1,39V37.86h1.34v-.72A5.3,5.3,0,0,1,48.88,35a5.46,5.46,0,0,1,1.21-1.77,5.88,5.88,0,0,1,1.76-1.19A5.25,5.25,0,0,1,54,31.62v1.11a4.25,4.25,0,0,0-1.71.34,4.44,4.44,0,0,0-2.36,2.36,4.25,4.25,0,0,0-.34,1.71V39Zm1.34,1.47H47.1V39.33h2.45v12H48.44ZM54,34.2a2.62,2.62,0,0,0-1.13.25,3.05,3.05,0,0,0-.93.63,3,3,0,0,0-.62.93,2.93,2.93,0,0,0-.23,1.13v.72h2.23V39H49.94V37.13a4.13,4.13,0,0,1,.31-1.56,4.24,4.24,0,0,1,.87-1.3,4.1,4.1,0,0,1,1.27-.87A3.89,3.89,0,0,1,54,33.09Zm-.68,5.13v1.11H51.05V51.33H49.94v-12Z"/><path class="cls-4" d="M56.9,31.68H58V39H55.56V37.86H56.9ZM58,39.33v6.8a4.12,4.12,0,0,0,.33,1.65,4.48,4.48,0,0,0,.9,1.36,4.63,4.63,0,0,0,1.32,1,4.08,4.08,0,0,0,1.64.39h.23v1.11a5.21,5.21,0,0,1-2.11-.44,6,6,0,0,1-1.77-1.21,5.86,5.86,0,0,1-1.21-1.77,5.17,5.17,0,0,1-.44-2.1V40.44H55.56V39.33Zm.4-.36V31.68h1.11v6.18h2.22V39Zm3.82,11.12a4.22,4.22,0,0,1-1.49-.35,3.72,3.72,0,0,1-1.22-.85,4,4,0,0,1-.82-1.24,3.81,3.81,0,0,1-.29-1.52v-6.8h3.33v1.11H59.52v5.63A2.9,2.9,0,0,0,62.43,49v1.12Z"/><path class="cls-4" d="M66.81,51.33H65.7V31.68H71a6.07,6.07,0,0,1,2.47.51,6.63,6.63,0,0,1,3.43,3.43,6.1,6.1,0,0,1,.51,2.47,6.56,6.56,0,0,1-1.13,3.63A6.47,6.47,0,0,1,75,43.12a6.35,6.35,0,0,1-1.74,1l5.3,7.23H77.17l-4.32-5.92-1.47-2a5.28,5.28,0,0,0,3.5-1.64,5.81,5.81,0,0,0,1.05-1.65,5.14,5.14,0,0,0,.39-2A5,5,0,0,0,75.89,36a5.4,5.4,0,0,0-2.82-2.82,5.12,5.12,0,0,0-2-.42H66.81Zm.36-8.3V33.16H71a4.73,4.73,0,0,1,1.91.39,4.89,4.89,0,0,1,1.57,1.06,5.2,5.2,0,0,1,1.07,1.57,4.87,4.87,0,0,1,0,3.82,5.08,5.08,0,0,1-1.07,1.57,4.89,4.89,0,0,1-1.57,1.06A4.74,4.74,0,0,1,71,43Zm3.17,1.47H68.28v6.83H67.17V43.42h3.75l5.79,7.91H75.34ZM68.28,34.27v7.64H71a3.59,3.59,0,0,0,1.49-.31,3.68,3.68,0,0,0,1.21-.83,4.24,4.24,0,0,0,.82-1.21,3.64,3.64,0,0,0,0-2.94,4.1,4.1,0,0,0-.84-1.21,3.89,3.89,0,0,0-1.21-.83A3.43,3.43,0,0,0,71,34.27Z"/><path class="cls-4" d="M89.26,50.58a5.62,5.62,0,0,1-3.24,1,5.46,5.46,0,0,1-2.23-.46,5.82,5.82,0,0,1-1.87-1.26A6,6,0,0,1,80.65,48a5.44,5.44,0,0,1-.48-2.27V37.86h1.12v7.88a4.63,4.63,0,0,0,.37,1.85,5,5,0,0,0,1,1.5,4.94,4.94,0,0,0,1.51,1,4.75,4.75,0,0,0,6.19-2.5v3.73H89.26ZM81.64,37.86h1.12v7.88A2.94,2.94,0,0,0,83,47a3.32,3.32,0,0,0,1.73,1.73,3.18,3.18,0,0,0,2.52,0,3.48,3.48,0,0,0,1-.7,3.54,3.54,0,0,0,.7-1,3.1,3.1,0,0,0,.26-1.24V37.86h1.11v7.88a4.16,4.16,0,0,1-.34,1.7,4.49,4.49,0,0,1-.93,1.37,4.58,4.58,0,0,1-1.39.93,4.3,4.3,0,0,1-3.4,0,4.35,4.35,0,0,1-1.39-.93A4.49,4.49,0,0,1,82,47.44a4.17,4.17,0,0,1-.35-1.7Zm9.09,0h1.11V51.33H90.73V37.86Z"/><path class="cls-4" d="M105.63,37.86h1.12v4.68a6.43,6.43,0,0,0-2.16-2.74,5.57,5.57,0,0,0-3.37-1.06A5.79,5.79,0,0,0,99,39.2a5.67,5.67,0,0,0-1.86,1.26,5.61,5.61,0,0,0-1.26,1.87,5.7,5.7,0,0,0-.46,2.28,5.56,5.56,0,0,0,.48,2.31,5.8,5.8,0,0,0,1.27,1.86A6.06,6.06,0,0,0,99,50a5.83,5.83,0,0,0,5.62-.6,6.33,6.33,0,0,0,2.15-2.73V51a5.16,5.16,0,0,1-.43,2.08,5.43,5.43,0,0,1-1.14,1.68,5.21,5.21,0,0,1-1.7,1.13,5.37,5.37,0,0,1-2.06.41,5.09,5.09,0,0,1-2.13-.46,5.78,5.78,0,0,1-1.7-1.21l.79-.75a3.78,3.78,0,0,0,1.39,1,4.26,4.26,0,0,0,1.65.33,4,4,0,0,0,1.65-.35,4.47,4.47,0,0,0,1.34-.91,4.22,4.22,0,0,0,.9-1.33,3.91,3.91,0,0,0,.32-1.6V50a6.9,6.9,0,0,1-7.06,1,7,7,0,0,1-2.25-1.52h0a6.75,6.75,0,0,1-1.51-2.26,7,7,0,0,1-.52-2.68,6.62,6.62,0,0,1,.56-2.72,6.92,6.92,0,0,1,1.52-2.21,7.16,7.16,0,0,1,2.22-1.49,6.66,6.66,0,0,1,2.66-.54,6.81,6.81,0,0,1,4.41,1.54ZM97.37,48.48a5.7,5.7,0,0,1-1.2-1.74,5.33,5.33,0,0,1-.44-2.15,5.16,5.16,0,0,1,.43-2.1,5.51,5.51,0,0,1,1.16-1.75,5.37,5.37,0,0,1,1.75-1.19,5.21,5.21,0,0,1,2.15-.45,5.45,5.45,0,0,1,2.14.43,5.25,5.25,0,0,1,1.75,1.18,5.64,5.64,0,0,1,1.18,1.74,6,6,0,0,1,.46,2.11v.07a5.91,5.91,0,0,1-.46,2.12,5.59,5.59,0,0,1-1.18,1.73,5.25,5.25,0,0,1-1.75,1.18,5.45,5.45,0,0,1-2.14.43,5.38,5.38,0,0,1-3.85-1.61Zm9.74-10.62h1.11V51a6.5,6.5,0,0,1-.54,2.62,6.87,6.87,0,0,1-1.46,2.15,7,7,0,0,1-2.15,1.46,6.61,6.61,0,0,1-2.65.54,6.48,6.48,0,0,1-2.68-.57,7.13,7.13,0,0,1-2.22-1.56l.81-.78a5.06,5.06,0,0,0,1.83,1.32,5.49,5.49,0,0,0,2.26.48,5.58,5.58,0,0,0,2.22-.46A5.72,5.72,0,0,0,105.45,55a5.69,5.69,0,0,0,1.66-4Zm-9,9.84a4.36,4.36,0,0,0,3.1,1.27,4.25,4.25,0,0,0,1.69-.34,4.34,4.34,0,0,0,1.4-1,4.67,4.67,0,0,0,1-1.39,3.9,3.9,0,0,0,.36-1.66v-.07a4,4,0,0,0-.36-1.67,4.75,4.75,0,0,0-1-1.38,4.34,4.34,0,0,0-1.4-.95,4.26,4.26,0,0,0-1.69-.35,4.18,4.18,0,0,0-1.68.35,4.38,4.38,0,0,0-1.41.95,4.31,4.31,0,0,0-.94,1.4,4.35,4.35,0,0,0,.93,4.79Z"/><path class="cls-4" d="M128.68,40.41a8.94,8.94,0,0,1,1.81,2.19,5.34,5.34,0,0,1,.67,2.71,5.59,5.59,0,0,1-.43,2.19,6,6,0,0,1-1.16,1.85,6.16,6.16,0,0,1-1.74,1.32,5.64,5.64,0,0,1-2.14.63l-7,0V31.68h6.43a5,5,0,0,1,2,.41,5.35,5.35,0,0,1,1.63,1.11,5.22,5.22,0,0,1,1.08,1.62,5.09,5.09,0,0,1-1.14,5.59Zm-8.89-7.61V50.18h5.54a4.76,4.76,0,0,0,1.91-.39,5,5,0,0,0,1.56-1,4.83,4.83,0,0,0,1-1.55,4.68,4.68,0,0,0,.39-1.9,5,5,0,0,0-.27-1.66,4.93,4.93,0,0,0-.79-1.42,5.16,5.16,0,0,0-1.2-1.08,4.93,4.93,0,0,0-1.51-.63,4,4,0,0,0,1.89-1.43,4,4,0,0,0,.43-3.86,4,4,0,0,0-.85-1.27,3.85,3.85,0,0,0-1.28-.84,4,4,0,0,0-1.56-.31Zm.36,7.58V33.16h4.95a3.69,3.69,0,0,1,1.41.27,3.63,3.63,0,0,1,1.15.77,3.7,3.7,0,0,1,.77,1.14,3.69,3.69,0,0,1,0,2.82,3.7,3.7,0,0,1-.77,1.14,3.66,3.66,0,0,1-1.15.78,3.3,3.3,0,0,1-1.38.3Zm0,9.48V40.74h5a.49.49,0,0,1,.2,0v0a4.46,4.46,0,0,1,1.78.36,4.28,4.28,0,0,1,1.44,1,4.82,4.82,0,0,1,1,1.45,4.46,4.46,0,0,1,.36,1.78,4.34,4.34,0,0,1-.36,1.77,5,5,0,0,1-1,1.44,4.5,4.5,0,0,1-3.22,1.34Zm1.11-15.59v5h3.82a2.17,2.17,0,0,0,1-.22,2.65,2.65,0,0,0,.8-.55,2.57,2.57,0,0,0,.54-.8,2.42,2.42,0,0,0,.2-1,2.25,2.25,0,0,0-.2-.93,2.52,2.52,0,0,0-.54-.79,2.84,2.84,0,0,0-.8-.55,2.3,2.3,0,0,0-1-.21Zm0,7.58v6.9h3.84a3.4,3.4,0,0,0,1.33-.27,3.31,3.31,0,0,0,1.1-.73,4,4,0,0,0,.74-1.1,3.31,3.31,0,0,0,.28-1.34,3.4,3.4,0,0,0-.28-1.35,3.73,3.73,0,0,0-.74-1.1,3.59,3.59,0,0,0-1.09-.73,3.16,3.16,0,0,0-1.34-.28Z"/><path class="cls-4" d="M145.31,49.53a7,7,0,0,1-2.25,1.52,6.83,6.83,0,0,1-2.68.54,6.63,6.63,0,0,1-2.7-.56,7,7,0,0,1-2.21-1.52,7.37,7.37,0,0,1-1.5-2.22,6.84,6.84,0,0,1,0-5.42,7.09,7.09,0,0,1,1.52-2.21,7.16,7.16,0,0,1,2.22-1.49,6.85,6.85,0,0,1,5.38,0,7,7,0,0,1,3.72,3.72,6.67,6.67,0,0,1,.56,2.68,7,7,0,0,1-.52,2.68A6.54,6.54,0,0,1,145.31,49.53Zm-.78-.78a5.51,5.51,0,0,0,1.27-1.84,5.66,5.66,0,0,0,.46-2.3,5.54,5.54,0,0,0-.46-2.26,5.67,5.67,0,0,0-1.26-1.86,6,6,0,0,0-1.88-1.27,5.55,5.55,0,0,0-2.28-.48,5.8,5.8,0,0,0-2.28.46,5.83,5.83,0,0,0-3.57,5.41,5.55,5.55,0,0,0,.47,2.31,6,6,0,0,0,1.27,1.86A6.1,6.1,0,0,0,138.14,50a5.51,5.51,0,0,0,2.24.46,5.72,5.72,0,0,0,4.15-1.73Zm-4.15,1.34a5.22,5.22,0,0,1-2.16-.45,5.37,5.37,0,0,1-1.75-1.19,5.51,5.51,0,0,1-1.16-1.75,5.49,5.49,0,0,1,0-4.21,5.51,5.51,0,0,1,1.16-1.75,5.37,5.37,0,0,1,1.75-1.19,5.43,5.43,0,0,1,4.33,0,5.71,5.71,0,0,1,1.75,1.19,5.38,5.38,0,0,1,1.17,1.75,5.16,5.16,0,0,1,.43,2.1,5.42,5.42,0,0,1-1.6,3.88,5.69,5.69,0,0,1-1.77,1.17A5.21,5.21,0,0,1,140.38,50.09Zm0-1.12a4.25,4.25,0,0,0,1.71-.34,4.38,4.38,0,0,0,1.41-1,4.51,4.51,0,0,0,.95-1.4,4.35,4.35,0,0,0,0-3.37,4.51,4.51,0,0,0-.95-1.4,4.38,4.38,0,0,0-1.41-.95,4.3,4.3,0,0,0-3.4,0,4.5,4.5,0,0,0-2.35,2.35,4.35,4.35,0,0,0,0,3.37,4.5,4.5,0,0,0,2.35,2.35A4.25,4.25,0,0,0,140.38,49Z"/><path class="cls-4" d="M158.58,50.58a5.62,5.62,0,0,1-3.24,1,5.46,5.46,0,0,1-2.23-.46,5.82,5.82,0,0,1-1.87-1.26A6,6,0,0,1,150,48a5.44,5.44,0,0,1-.48-2.27V37.86h1.12v7.88a4.63,4.63,0,0,0,.37,1.85,5,5,0,0,0,1,1.5,4.94,4.94,0,0,0,1.51,1,4.59,4.59,0,0,0,1.84.38,4.78,4.78,0,0,0,4.35-2.88v3.73h-1.11ZM151,37.86h1.11v7.88a2.94,2.94,0,0,0,.26,1.24,3.32,3.32,0,0,0,1.73,1.73,3.18,3.18,0,0,0,2.52,0,3.48,3.48,0,0,0,1-.7,3.54,3.54,0,0,0,.7-1,3.1,3.1,0,0,0,.26-1.24V37.86h1.11v7.88a4.16,4.16,0,0,1-.34,1.7,4.49,4.49,0,0,1-.93,1.37,4.58,4.58,0,0,1-1.39.93,4.3,4.3,0,0,1-3.4,0,4.35,4.35,0,0,1-1.39-.93,4.49,4.49,0,0,1-.93-1.37,4.16,4.16,0,0,1-.34-1.7Zm9.08,0h1.11V51.33h-1.11V37.86Z"/><path class="cls-4" d="M164.4,31.68h1.11V51.33H164.4Zm2.58,0V51.33h-1.11V31.68Z"/><path class="cls-4" d="M172.24,45.9a4.44,4.44,0,0,0,1.6,2.22,4.44,4.44,0,0,0,4.66.35,4.9,4.9,0,0,0,1.59-1.39l.88.62a5.66,5.66,0,0,1-1.91,1.73,5.47,5.47,0,0,1-4.73.23,5.57,5.57,0,0,1-1.71-1.14,5.89,5.89,0,0,1-1.2-1.69,5.27,5.27,0,0,1-.49-2h11.38V44.6a5.85,5.85,0,0,0-1.72-4.15,5.78,5.78,0,0,0-1.88-1.25,5.88,5.88,0,0,0-2.28-.46,5.81,5.81,0,0,0-4.14,1.72,5.79,5.79,0,0,0-1.71,4.15,5.55,5.55,0,0,0,.47,2.31,5.8,5.8,0,0,0,1.27,1.86A6.1,6.1,0,0,0,174.19,50a5.48,5.48,0,0,0,2.24.46,5.69,5.69,0,0,0,2.82-.72,5.85,5.85,0,0,0,2.05-1.86l.91.62a7.05,7.05,0,0,1-5.78,3.07,6.55,6.55,0,0,1-2.67-.56,7.37,7.37,0,0,1-2.22-1.5A7,7,0,0,1,170,47.31a6.76,6.76,0,0,1-.56-2.72,7,7,0,0,1,.53-2.68,6.68,6.68,0,0,1,1.5-2.25h0a6.82,6.82,0,0,1,2.26-1.5,6.89,6.89,0,0,1,2.65-.53,6.74,6.74,0,0,1,2.71.56,7,7,0,0,1,3.72,3.72,6.67,6.67,0,0,1,.56,2.68V45.9Zm-1.31-1.5a5.27,5.27,0,0,1,.49-2,5.89,5.89,0,0,1,1.2-1.69,5.57,5.57,0,0,1,1.71-1.14,5.29,5.29,0,0,1,2.1-.43,5.57,5.57,0,0,1,3.87,1.57,5.25,5.25,0,0,1,1.16,1.69,5.62,5.62,0,0,1,.46,2Zm9.71-1.11a4.45,4.45,0,0,0-1.6-2.23,4.29,4.29,0,0,0-2.61-.85,4.21,4.21,0,0,0-3.08,1.28h0a4.81,4.81,0,0,0-1.08,1.8Z"/><path class="cls-4" d="M196.13,37.86l-4.77,13.47h-1.83l-4.8-13.47h1.17l.82,2.29,3.56,9.94h.33l3.3-9.25,1.08-3Zm-2.74,0h1.21l-1,2.85-3.1,8.75L187.08,40l-.78-2.16h1.17l3,8.3Z"/><path class="cls-4" d="M208.33,50a6.8,6.8,0,0,1-4.42,1.57,6.54,6.54,0,0,1-2.66-.56,7.37,7.37,0,0,1-2.22-1.5,6.86,6.86,0,0,1-1.52-2.22,6.76,6.76,0,0,1-.56-2.72,6.62,6.62,0,0,1,.56-2.72A6.92,6.92,0,0,1,199,39.66a7.16,7.16,0,0,1,2.22-1.49,6.69,6.69,0,0,1,2.66-.54,6.86,6.86,0,0,1,4.42,1.54V37.86h1.11v4.68a6.46,6.46,0,0,0-1.34-2.08h0a6.24,6.24,0,0,0-1.84-1.25,5.71,5.71,0,0,0-2.31-.47,5.79,5.79,0,0,0-2.27.46,5.67,5.67,0,0,0-1.86,1.26,5.61,5.61,0,0,0-1.26,1.87,5.7,5.7,0,0,0-.46,2.28,5.56,5.56,0,0,0,.48,2.31,5.8,5.8,0,0,0,1.27,1.86A6.06,6.06,0,0,0,201.67,50a5.55,5.55,0,0,0,2.24.46,5.71,5.71,0,0,0,2.31-.46,5.77,5.77,0,0,0,1.84-1.27h0a6.44,6.44,0,0,0,1.34-2.1v4.68h-1.11Zm-8.27-1.54a5.7,5.7,0,0,1-1.2-1.74,5.33,5.33,0,0,1-.44-2.15,5.16,5.16,0,0,1,.43-2.1A5.51,5.51,0,0,1,200,40.74a5.37,5.37,0,0,1,1.75-1.19,5.43,5.43,0,0,1,4.33,0,5.67,5.67,0,0,1,1.74,1.19A5.25,5.25,0,0,1,209,42.49a5.37,5.37,0,0,1,0,4.21,5.25,5.25,0,0,1-1.18,1.75,5.67,5.67,0,0,1-1.74,1.19,5.25,5.25,0,0,1-2.18.45,5.38,5.38,0,0,1-3.85-1.61Zm.78-.78A4.17,4.17,0,0,0,203.91,49,4.43,4.43,0,0,0,208,46.28a4.23,4.23,0,0,0,0-3.37,4.42,4.42,0,0,0-4.07-2.7,4.18,4.18,0,0,0-1.68.35,4.49,4.49,0,0,0-1.41.95,4.31,4.31,0,0,0-.94,1.4,4.25,4.25,0,0,0-.35,1.68,4.43,4.43,0,0,0,.33,1.69A4,4,0,0,0,200.84,47.7Zm9-9.84h1.11V51.33H209.8Z"/><path class="cls-4" d="M215,51.33h-1.11V37.86H215V51.33Zm1.47-12.69a5.42,5.42,0,0,1,1.55-.75,5.88,5.88,0,0,1,1.72-.26v1.11a4.47,4.47,0,0,0-2.65.81,5.23,5.23,0,0,0-1.73,2V37.86h1.11Zm3.27,1.57a3.06,3.06,0,0,0-1.28.27,3.3,3.3,0,0,0-1,.7,3.54,3.54,0,0,0-.7,1,3.06,3.06,0,0,0-.26,1.24v7.88h-1.11V43.45a4.16,4.16,0,0,1,.34-1.7,4.49,4.49,0,0,1,.93-1.37,4.58,4.58,0,0,1,1.39-.93,4.34,4.34,0,0,1,1.72-.35Z"/><path class="cls-4" d="M232.35,50A6.75,6.75,0,0,1,228,51.59a6.63,6.63,0,0,1-2.7-.56,7.08,7.08,0,0,1-2.22-1.52,7.25,7.25,0,0,1-1.52-2.22,6.76,6.76,0,0,1,0-5.39,7.2,7.2,0,0,1,1.5-2.21,7.13,7.13,0,0,1,2.22-1.5,7,7,0,0,1,7.1,1l0-7.49h1.11V42.54a5.6,5.6,0,0,0-.84-1.51,5.94,5.94,0,0,0-1.28-1.22,5.82,5.82,0,0,0-1.6-.79,6,6,0,0,0-1.79-.28,5.56,5.56,0,0,0-2.31.48,6.19,6.19,0,0,0-1.87,1.27,6,6,0,0,0-1.26,1.86,5.71,5.71,0,0,0-.46,2.26,5.83,5.83,0,0,0,.46,2.3,6.11,6.11,0,0,0,1.26,1.86A5.78,5.78,0,0,0,225.68,50a5.86,5.86,0,0,0,7.78-3.37v4.68h-1.11Zm-4.38.07a5.55,5.55,0,0,1-2.16-.43,5.06,5.06,0,0,1-1.75-1.18,5.58,5.58,0,0,1-1.16-1.74,5.52,5.52,0,0,1,1.13-6,5.37,5.37,0,0,1,1.75-1.19A5.3,5.3,0,0,1,228,39.1a5.17,5.17,0,0,1,2.14.45,6,6,0,0,1,1.75,1.17,5.52,5.52,0,0,1,1.6,3.87,5.33,5.33,0,0,1-.43,2.15A5.48,5.48,0,0,1,228,50.09ZM228,49a4.17,4.17,0,0,0,1.68-.34,4.63,4.63,0,0,0,1.4-.93,4.17,4.17,0,0,0,.94-1.39,4.26,4.26,0,0,0,.35-1.72,4.1,4.1,0,0,0-.36-1.71,4.57,4.57,0,0,0-1-1.39,4.42,4.42,0,0,0-1.38-.93,4.18,4.18,0,0,0-3.35,0,4.24,4.24,0,0,0-1.4.95,4.37,4.37,0,0,0-1,1.4,4.19,4.19,0,0,0,0,3.4,4.22,4.22,0,0,0,1,1.39,4.51,4.51,0,0,0,1.4.93A4.16,4.16,0,0,0,228,49Zm5.87-4.38V31.68H235V51.33h-1.14Z"/><path class="cls-4" d="M48.29,224.05a7,7,0,0,1,2.53,2.69,7.39,7.39,0,0,1,.9,3.54,6.82,6.82,0,0,1-.62,2.87,8.15,8.15,0,0,1-1.62,2.34,7.9,7.9,0,0,1-2.35,1.56,7.29,7.29,0,0,1-5.23.18,7.46,7.46,0,0,1-2.12-1.13,6.93,6.93,0,0,1-1.63-1.74,7.7,7.7,0,0,1-1-2.26l1.17-.29a6.55,6.55,0,0,0,.8,1.84,6.16,6.16,0,0,0,3.12,2.47,6.17,6.17,0,0,0,4.46-.14,6.4,6.4,0,0,0,2-1.33,6.58,6.58,0,0,0,1.33-2,6.17,6.17,0,0,0,.14-4.46,6.26,6.26,0,0,0-1-1.77,6.47,6.47,0,0,0-1.5-1.36,6,6,0,0,0-1.84-.83,4.07,4.07,0,0,0,1.93-1.48,3.91,3.91,0,0,0,.77-2.4,4.07,4.07,0,0,0-1.24-2.95,4.4,4.4,0,0,0-1.35-.89,4.07,4.07,0,0,0-1.64-.33,4,4,0,0,0-2.58.9,4,4,0,0,0-1.46,2.24L39.07,219a5.66,5.66,0,0,1,2-2.9,5.24,5.24,0,0,1,5.34-.71,5.92,5.92,0,0,1,1.74,1.17,5.5,5.5,0,0,1,1.2,1.71,5,5,0,0,1,.45,2.08,5.39,5.39,0,0,1-.38,2A5.5,5.5,0,0,1,48.29,224.05ZM40,231.37v0a4.27,4.27,0,0,0,1.58,2.4,4.45,4.45,0,0,0,4.48.6,4.31,4.31,0,0,0,1.44-1,4.71,4.71,0,0,0,1-1.42,4.17,4.17,0,0,0,.36-1.74,4.34,4.34,0,0,0-.36-1.77,4.48,4.48,0,0,0-1-1.42,4.57,4.57,0,0,0-1.44-1,4.38,4.38,0,0,0-1.73-.35v-1.23a5.53,5.53,0,0,1,2.24.45,5.89,5.89,0,0,1,1.81,1.22,6,6,0,0,1,1.22,1.8,5.83,5.83,0,0,1,0,4.49,6,6,0,0,1-1.22,1.8,5.72,5.72,0,0,1-1.81,1.22,5.54,5.54,0,0,1-2.24.46,5.48,5.48,0,0,1-3.53-1.23,5.58,5.58,0,0,1-2-3.07Zm4.33-8.53a2.45,2.45,0,0,0,1.79-.72,2.38,2.38,0,0,0,.73-1.77,2.44,2.44,0,0,0-.73-1.74,2.41,2.41,0,0,0-1.79-.76,2.52,2.52,0,0,0-1.51.53,2.26,2.26,0,0,0-.89,1.33v0l-1.2-.29a3.54,3.54,0,0,1,1.29-2,3.58,3.58,0,0,1,2.31-.81,3.63,3.63,0,0,1,1.46.3,3.77,3.77,0,0,1,1.2.78,3.52,3.52,0,0,1,.8,1.19,3.72,3.72,0,0,1,.3,1.47,3.63,3.63,0,0,1-.3,1.46,3.42,3.42,0,0,1-.8,1.19,4,4,0,0,1-1.2.79,3.63,3.63,0,0,1-1.46.29Z"/><path class="cls-4" d="M59,218.22l-1,5.21a8.59,8.59,0,0,1,2.92-.51,7.84,7.84,0,0,1,3,.56,7,7,0,0,1,2.39,1.59A7.61,7.61,0,0,1,68,227.45a7.37,7.37,0,0,1,.59,2.93,6.94,6.94,0,0,1-.6,2.85,7.92,7.92,0,0,1-1.61,2.35A7.48,7.48,0,0,1,64,237.16a7,7,0,0,1-2.84.58,7.52,7.52,0,0,1-2.15-.32,7.9,7.9,0,0,1-2-.93,7.26,7.26,0,0,1-2.73-3.34l1.13-.47a7.18,7.18,0,0,0,2.3,2.79,5.74,5.74,0,0,0,3.42,1,5.81,5.81,0,0,0,2.39-.49,6.38,6.38,0,0,0,3.28-3.27,5.94,5.94,0,0,0,.49-2.36,6.86,6.86,0,0,0-.37-2.2,5.74,5.74,0,0,0-3.09-3.46,6.67,6.67,0,0,0-2.88-.56,8.4,8.4,0,0,0-2.5.4,5.1,5.1,0,0,0-2.13,1.23c.22-1.43.48-2.9.79-4.38s.6-3,.89-4.43h8.45v1.24Zm6.19-1.61H57.65c-.29,1.6-.59,3.17-.89,4.72s-.6,3.11-.89,4.68l.27.13a1.36,1.36,0,0,1,.24.13A6.62,6.62,0,0,1,58.51,225a7.08,7.08,0,0,1,2.46-.43,6.27,6.27,0,0,1,2.38.43,5.52,5.52,0,0,1,1.86,1.22,5.62,5.62,0,0,1,1.22,1.86,6.13,6.13,0,0,1,.44,2.31,5.34,5.34,0,0,1-.46,2.21,5.85,5.85,0,0,1-1.23,1.82,6.1,6.1,0,0,1-1.83,1.24,5.45,5.45,0,0,1-2.2.45,5.79,5.79,0,0,1-3.2-1,5.21,5.21,0,0,1-2.12-2.64l1.13-.44,0,.07a4.23,4.23,0,0,0,1.66,2,4.49,4.49,0,0,0,4.22.4,4.13,4.13,0,0,0,1.42-1,5,5,0,0,0,1-1.42,4.18,4.18,0,0,0,.36-1.75,5.46,5.46,0,0,0-.25-1.62,4.39,4.39,0,0,0-.8-1.47,4.2,4.2,0,0,0-1.44-1.08,5.09,5.09,0,0,0-2.17-.42,6.41,6.41,0,0,0-2.1.37,4.14,4.14,0,0,0-1.76,1.17l-.44.47-2.19-1.09,2.15-11.33h9.84v1.23Z"/><path class="cls-4" d="M71.64,221.86a12.19,12.19,0,0,1,1.17-2.71A9,9,0,0,1,74.56,217a7.59,7.59,0,0,1,2.33-1.46A7.73,7.73,0,0,1,79.8,215a7.38,7.38,0,0,1,3.85,1,8.94,8.94,0,0,1,2.77,2.57,11.68,11.68,0,0,1,1.67,3.62,15.54,15.54,0,0,1,0,8.34,11.84,11.84,0,0,1-1.67,3.63,8.87,8.87,0,0,1-2.77,2.55,8.18,8.18,0,0,1-7.69,0,8.49,8.49,0,0,1-2.75-2.55,12.06,12.06,0,0,1-1.66-3.63A15.86,15.86,0,0,1,71,226.3,15.34,15.34,0,0,1,71.64,221.86Zm1.17.35a14,14,0,0,0-.44,2A14.89,14.89,0,0,0,72.7,230a10.84,10.84,0,0,0,1.4,3.25,7.3,7.3,0,0,0,2.35,2.31,6.82,6.82,0,0,0,6.7,0,7.46,7.46,0,0,0,2.37-2.31A10.62,10.62,0,0,0,86.94,230a14.33,14.33,0,0,0,.48-3.67,14.14,14.14,0,0,0-.48-3.66,10.61,10.61,0,0,0-1.42-3.23,7.46,7.46,0,0,0-2.37-2.31,6.77,6.77,0,0,0-5.84-.4,7,7,0,0,0-2,1.27,8,8,0,0,0-1.51,1.91A11,11,0,0,0,72.81,222.21Zm7-5.6a5.8,5.8,0,0,1,3.21.88,7.46,7.46,0,0,1,2.25,2.26,10,10,0,0,1,1.32,3.11,14.34,14.34,0,0,1,0,6.89,10.43,10.43,0,0,1-1.3,3.11,7.18,7.18,0,0,1-2.23,2.26,5.87,5.87,0,0,1-3.25.88,5.65,5.65,0,0,1-3.21-.9,7.73,7.73,0,0,1-2.25-2.27,10.11,10.11,0,0,1-1.31-3.12,14.4,14.4,0,0,1-.42-3.41,14.09,14.09,0,0,1,.43-3.44,10.49,10.49,0,0,1,1.34-3.11,7.43,7.43,0,0,1,2.24-2.26A5.75,5.75,0,0,1,79.82,216.61Zm0,1.24a4.53,4.53,0,0,0-2.71.8,6.81,6.81,0,0,0-1.84,2,9.24,9.24,0,0,0-1.06,2.74,13.21,13.21,0,0,0-.32,2.87,13.77,13.77,0,0,0,.32,2.94A8.88,8.88,0,0,0,75.25,232a6.54,6.54,0,0,0,1.84,2,4.52,4.52,0,0,0,2.71.79,4.6,4.6,0,0,0,2.74-.81,6.41,6.41,0,0,0,1.85-2,8.86,8.86,0,0,0,1.06-2.71,13.55,13.55,0,0,0,.33-2.92,13.26,13.26,0,0,0-.33-2.84,9.52,9.52,0,0,0-1.06-2.75,6.44,6.44,0,0,0-1.85-2.06A4.66,4.66,0,0,0,79.8,217.85Z"/><path class="cls-4" d="M106.65,240.15h-1.24v-2.59a7.09,7.09,0,0,1-2.91-1.22,6.44,6.44,0,0,1-2-2.31l1.09-.59a5.32,5.32,0,0,0,2,2.17,5.54,5.54,0,0,0,3,.82h.11ZM103,232.64a3.59,3.59,0,0,0,1,1.22,5.06,5.06,0,0,0,1.4.75V226c-.58-.29-1.13-.6-1.64-.92a6,6,0,0,1-1.31-1.14,4.65,4.65,0,0,1-.85-1.47,5.62,5.62,0,0,1-.31-2,5.38,5.38,0,0,1,1.14-3.37,5.61,5.61,0,0,1,3-2v-2.7h1.24v3.75a4.22,4.22,0,0,0-1.58.39,4.33,4.33,0,0,0-1.31.91,4.05,4.05,0,0,0-.9,1.34,4.28,4.28,0,0,0-.33,1.66,4.08,4.08,0,0,0,.35,1.75,4.32,4.32,0,0,0,.91,1.28,6,6,0,0,0,1.31.94c.5.27,1,.52,1.55.77V236h-.11a5.19,5.19,0,0,1-2.73-.75,4.9,4.9,0,0,1-1.89-2Zm3.64-7.87c-.48-.21-1-.44-1.4-.69a5.55,5.55,0,0,1-1.19-.85,3.74,3.74,0,0,1-.81-1.15,3.61,3.61,0,0,1-.31-1.57,3.7,3.7,0,0,1,.29-1.49,3.85,3.85,0,0,1,.8-1.22,3.58,3.58,0,0,1,1.18-.82,3.89,3.89,0,0,1,1.44-.33Zm-1.24-6.52a3.43,3.43,0,0,0-.89,1,2.45,2.45,0,0,0-.35,1.29,2.28,2.28,0,0,0,.35,1.31,3.69,3.69,0,0,0,.89.92Zm1.68-5.79h1.24v2.73a5.33,5.33,0,0,1,2.8,1.86l-.94.77a4.16,4.16,0,0,0-3.1-1.61Zm1.24,11.7a21.61,21.61,0,0,1,2,1.07,7.18,7.18,0,0,1,1.64,1.33,5.48,5.48,0,0,1,1.07,1.77,6.68,6.68,0,0,1,.38,2.42,6.85,6.85,0,0,1-.36,2.2,6.58,6.58,0,0,1-1.06,2,7.33,7.33,0,0,1-1.64,1.55,6.5,6.5,0,0,1-2.07.95v2.73h-1.24V236.4a5.7,5.7,0,0,0,2-.59,5.3,5.3,0,0,0,1.62-1.24,5.81,5.81,0,0,0,1.09-1.74,5.43,5.43,0,0,0,.41-2.08,5.08,5.08,0,0,0-.44-2.22,5.18,5.18,0,0,0-1.15-1.57,6.56,6.56,0,0,0-1.6-1.09c-.6-.29-1.2-.57-1.81-.84l-.14-.07v-8.31a3.8,3.8,0,0,1,2.77,1.42l-1,.77-.27-.28a1.92,1.92,0,0,0-.31-.23Zm-1.24,1.27,1.73.82a6.46,6.46,0,0,1,1.51,1,4.86,4.86,0,0,1,1.08,1.44,4.66,4.66,0,0,1,.41,2,5.17,5.17,0,0,1-1.38,3.51,5.52,5.52,0,0,1-1.51,1.17,4.71,4.71,0,0,1-1.84.53Zm1.24,8.93a3.81,3.81,0,0,0,1.64-1.5,4,4,0,0,0,.62-2.11,3.12,3.12,0,0,0-.66-2.11,5.61,5.61,0,0,0-1.6-1.28Z"/><path class="cls-4" d="M116.2,215.38h6.44a10.53,10.53,0,0,1,4.21.85,11.16,11.16,0,0,1,5.87,5.81,10.46,10.46,0,0,1,.89,4.26,10.3,10.3,0,0,1-.88,4.25,11.45,11.45,0,0,1-2.36,3.48,11.63,11.63,0,0,1-3.5,2.37,10.54,10.54,0,0,1-4.23.87H116.2Zm1.23,1.23V236h5.21a9.34,9.34,0,0,0,3.77-.76,9.88,9.88,0,0,0,5.2-5.18,9.37,9.37,0,0,0,.76-3.77,9.21,9.21,0,0,0-.78-3.76,10.12,10.12,0,0,0-2.12-3.09,9.86,9.86,0,0,0-3.09-2.09,9.31,9.31,0,0,0-3.74-.77Zm.4.4h4.83a8.79,8.79,0,0,1,3.59.75,9.94,9.94,0,0,1,3,2,9.35,9.35,0,0,1,2,3,8.85,8.85,0,0,1,.73,3.58,9,9,0,0,1-.73,3.63,9.3,9.3,0,0,1-2,2.95,9.58,9.58,0,0,1-3,2,8.79,8.79,0,0,1-3.59.75h-4.83Zm1.24,1.24v16.14h3.57a7.71,7.71,0,0,0,3.12-.64,8.14,8.14,0,0,0,2.57-1.73,8.37,8.37,0,0,0,1.75-2.56,7.84,7.84,0,0,0,.65-3.16,7.66,7.66,0,0,0-.65-3.13,8.45,8.45,0,0,0-1.77-2.55,8.55,8.55,0,0,0-2.57-1.73,7.71,7.71,0,0,0-3.1-.64Z"/><path class="cls-4" d="M139,229.69v7.58h-1.24v-8.82h4.3a5.54,5.54,0,0,0,2.28-.47,6.07,6.07,0,0,0,1.87-1.27,6,6,0,0,0,1.28-1.89,5.76,5.76,0,0,0,.47-2.29,5.54,5.54,0,0,0-.47-2.23,6.44,6.44,0,0,0-1.28-1.89,6.36,6.36,0,0,0-1.87-1.31,5.56,5.56,0,0,0-2.28-.49h-4.7v20.66h-1.24V215.38h5.94a6.73,6.73,0,0,1,2.75.56,7.39,7.39,0,0,1,3.83,3.82,7.06,7.06,0,0,1,0,5.51,7.44,7.44,0,0,1-1.55,2.27,7.67,7.67,0,0,1-2.28,1.57,6.59,6.59,0,0,1-2.75.58ZM137.76,217h4.3a5.16,5.16,0,0,1,2.13.46,5.8,5.8,0,0,1,1.75,1.2,5.57,5.57,0,0,1,1.18,1.75,5.21,5.21,0,0,1,0,4.19,5.57,5.57,0,0,1-1.18,1.75,5.8,5.8,0,0,1-1.75,1.2,5,5,0,0,1-2.13.46h-4.3Zm1.24,1.24v8.53h3.06a4,4,0,0,0,1.64-.35,4.65,4.65,0,0,0,1.35-.91,4.18,4.18,0,0,0,1.27-3,3.92,3.92,0,0,0-.34-1.64,4.52,4.52,0,0,0-2.28-2.28,4,4,0,0,0-1.64-.35Z"/><path class="cls-4" d="M154.45,218.29a11.65,11.65,0,0,1,3.68-2.46,11.07,11.07,0,0,1,4.33-.85,10.78,10.78,0,0,1,4.41.91,11.37,11.37,0,0,1,3.61,2.47A12.17,12.17,0,0,1,172.9,222a10.75,10.75,0,0,1,.89,4.33,11,11,0,0,1-.89,4.39,11.47,11.47,0,0,1-6.05,6.05,11.17,11.17,0,0,1-8.74,0,11.53,11.53,0,0,1-6.07-6,10.77,10.77,0,0,1-.91-4.43A11.08,11.08,0,0,1,152,222,11.65,11.65,0,0,1,154.45,218.29Zm.87.87a9.89,9.89,0,0,0-2.18,3.25,10,10,0,0,0-.77,3.88,9.77,9.77,0,0,0,.8,3.91,10.4,10.4,0,0,0,5.39,5.4,9.91,9.91,0,0,0,7.8,0,10.73,10.73,0,0,0,3.21-2.18,10.47,10.47,0,0,0,2.18-3.22,9.77,9.77,0,0,0,.8-3.91,9.6,9.6,0,0,0-.8-3.89,10.41,10.41,0,0,0-2.17-3.2,10.18,10.18,0,0,0-3.2-2.19,9.78,9.78,0,0,0-3.92-.8,10.07,10.07,0,0,0-7.14,2.95Zm7.14-2.55a9.19,9.19,0,0,1,3.74.79,10.34,10.34,0,0,1,3.09,2.09,9.68,9.68,0,0,1,2.1,3.08,9.56,9.56,0,0,1,0,7.47,9.88,9.88,0,0,1-5.19,5.19,9.44,9.44,0,0,1-7.47,0,10,10,0,0,1-3.1-2.09,9.85,9.85,0,0,1-2.09-3.1,9.44,9.44,0,0,1,0-7.47,9.93,9.93,0,0,1,2.07-3.08,10.17,10.17,0,0,1,3.08-2.09A9.26,9.26,0,0,1,162.46,216.61Zm0,1.24a8.23,8.23,0,0,0-3.3.68,8.57,8.57,0,0,0-4.49,4.53,8.37,8.37,0,0,0,0,6.54,8.71,8.71,0,0,0,1.83,2.7,8.47,8.47,0,0,0,2.69,1.8,8.38,8.38,0,0,0,6.52,0,8.63,8.63,0,0,0,2.7-1.8,8.86,8.86,0,0,0,1.82-2.7,8.15,8.15,0,0,0,.67-3.3,7.93,7.93,0,0,0-.67-3.24,8.93,8.93,0,0,0-1.82-2.69,8.6,8.6,0,0,0-2.68-1.84A8,8,0,0,0,162.46,217.85Z"/><path class="cls-4" d="M187.63,237.27h-11V215.38h1.23V236h9.8Zm0-1.64h-9.4V215.38h1.24v19h8.16v1.24Z"/><path class="cls-4" d="M193.06,237.27V227L185,215.38h1.5l7.83,11.25v10.64Zm-4.59-21.89.62.83,5.43,7.84,6-8.67h1.49l-7.54,10.81-5.9-8.48L187,215.38Zm7.51,19v2.88h-1.24V226.63l5.61-8.12,2.22-3.13h1.49l-2.18,3.09L196,227Z"/></g></g></svg>