<svg xmlns="http://www.w3.org/2000/svg" viewBox="0 0 253.51 253.51"><defs><style>.cls-1{fill:#cfe7d7;stroke-width:5px;}.cls-1,.cls-3{stroke:#000;}.cls-2{fill:#a7a5a5;}.cls-3{fill:none;}.cls-4,.cls-7{fill:#231f20;}.cls-10,.cls-5{fill:#be1e2d;}.cls-6{fill:#fff;}.cls-10,.cls-7,.cls-8,.cls-9{stroke:#231f20;stroke-miterlimit:10;stroke-width:2px;}.cls-8{fill:#262262;}.cls-9{fill:#fdc99a;}</style></defs><g id="Layer_2" data-name="Layer 2"><g id="Layer_1-2" data-name="Layer 1"><rect class="cls-1" x="2.5" y="2.5" width="248.51" height="248.51"/><rect class="cls-2" x="8.36" y="8.36" width="236.8" height="62.45"/><rect class="cls-3" x="8.36" y="8.36" width="236.8" height="62.45"/><rect class="cls-4" x="124.58" y="149.82" width="67.53" height="17.04"/><rect class="cls-5" x="122.01" y="146.8" width="67.53" height="17.04"/><path class="cls-4" d="M136.75,160c0,.14-.06.2-.21.2a5.08,5.08,0,0,1-.82-.16,8.27,8.27,0,0,1-.84-.23,8.27,8.27,0,0,1-3,.62,5,5,0,0,1-3.8-1.55A5.29,5.29,0,0,1,126.6,155a5.66,5.66,0,0,1,1.43-4,4.91,4.91,0,0,1,3.81-1.62,5.37,5.37,0,0,1,2.15.44,4.13,4.13,0,0,1,1.71,1.35.58.58,0,0,1,.12.25,2.82,2.82,0,0,1-.67,1.08c-.44.56-.73.83-.86.83a1.42,1.42,0,0,1-.35-.3,2.76,2.76,0,0,0-.75-.57,2.56,2.56,0,0,0-1.26-.31,2.14,2.14,0,0,0-1.78.84,3,3,0,0,0-.62,1.93,2.81,2.81,0,0,0,.64,1.93,2.38,2.38,0,0,0,1.87.74,4.54,4.54,0,0,0,1.71-.39c0-.16-.06-.58-.14-1.26a11.94,11.94,0,0,1-.1-1.26.16.16,0,0,1,.1-.17h.12c.15,0,.37,0,.66,0s.51,0,.66,0l.72,0c.32,0,.56,0,.72,0s.19.08.19.25,0,.6,0,1.09,0,.84,0,1.08c0,.65,0,1.61.14,2.9Z"/><path class="cls-4" d="M144.83,156.5a3.79,3.79,0,0,1-1,2.78,4.06,4.06,0,0,1-5.46,0,3.63,3.63,0,0,1-1.07-2.7,3.94,3.94,0,0,1,1-2.82,3.62,3.62,0,0,1,2.76-1.09,3.68,3.68,0,0,1,2.74,1.07A3.72,3.72,0,0,1,144.83,156.5Zm-2.46,0a1.67,1.67,0,0,0-.36-1.05,1.17,1.17,0,0,0-.95-.45,1.22,1.22,0,0,0-1,.47,1.67,1.67,0,0,0,0,2.07,1.22,1.22,0,0,0,1,.47,1.18,1.18,0,0,0,1-.47A1.56,1.56,0,0,0,142.37,156.5Z"/><path class="cls-4" d="M152.83,156.5a3.83,3.83,0,0,1-1,2.78,4.07,4.07,0,0,1-5.47,0,3.62,3.62,0,0,1-1.06-2.7,3.94,3.94,0,0,1,1-2.82,3.62,3.62,0,0,1,2.76-1.09,3.68,3.68,0,0,1,2.74,1.07A3.72,3.72,0,0,1,152.83,156.5Zm-2.46,0a1.67,1.67,0,0,0-.36-1.05,1.24,1.24,0,0,0-1.93,0,1.67,1.67,0,0,0,0,2.07,1.24,1.24,0,0,0,1.94,0A1.56,1.56,0,0,0,150.37,156.5Z"/><path class="cls-4" d="M161.56,149.55c0-.11,0,.06-.06.49s-.09,1.27-.12,2.13-.06,2.1-.06,3.35a37.73,37.73,0,0,0,.17,4.41,1.53,1.53,0,0,1,0,.18s0,.08-.11.09-.84,0-2,0c-.27,0-.43-.05-.47-.15l0-.57a.17.17,0,0,0-.06-.12.33.33,0,0,0-.11.08,2.75,2.75,0,0,1-2,.8,3.16,3.16,0,0,1-2.53-1.11,3.91,3.91,0,0,1-.91-2.67,4,4,0,0,1,.89-2.69,3.16,3.16,0,0,1,2.55-1.13,2.23,2.23,0,0,1,1.77.72q.11.12.15.12s.06-.06.06-.19c0-.39,0-1,0-1.73s0-1.33,0-1.71c0-.15,0-.23.12-.25.32,0,.76,0,1.32-.09a9.66,9.66,0,0,0,1.33-.19C161.51,149.36,161.56,149.43,161.56,149.55Zm-2.82,6.89a1.52,1.52,0,0,0-.41-1,1.34,1.34,0,0,0-1-.44,1.21,1.21,0,0,0-1,.44,1.67,1.67,0,0,0-.36,1.07,1.52,1.52,0,0,0,.36,1,1.22,1.22,0,0,0,1,.45,1.29,1.29,0,0,0,1-.45A1.53,1.53,0,0,0,158.74,156.44Z"/><path class="cls-4" d="M170.68,156.52a3.9,3.9,0,0,1-.9,2.63,3.13,3.13,0,0,1-2.5,1.13,2.56,2.56,0,0,1-1.82-.64.14.14,0,0,0-.09,0c-.05,0-.09.09-.14.28s-.09.28-.15.31-.8,0-2.14,0c-.31,0-.47-.06-.47-.17a.66.66,0,0,1,0-.11,44.28,44.28,0,0,0,.15-4.55c0-2.13-.07-4-.22-5.57v-.08c0-.08.08-.12.23-.13l1.31-.12c.53,0,1-.07,1.3-.07q.15,0,.15.24c0,.2,0,.46,0,.78s0,.65,0,.78c0,.49,0,1.17,0,2,0,.16,0,.23.12.23a.14.14,0,0,0,.11-.06,2.31,2.31,0,0,1,1.77-.72,3.17,3.17,0,0,1,2.57,1.12A4.14,4.14,0,0,1,170.68,156.52Zm-2.71-.08a1.5,1.5,0,0,0-.39-1.05,1.37,1.37,0,0,0-2,0,1.59,1.59,0,0,0-.36,1.07,1.57,1.57,0,0,0,.35,1.06,1.27,1.27,0,0,0,1,.43,1.26,1.26,0,0,0,1-.44A1.57,1.57,0,0,0,168,156.44Z"/><path class="cls-4" d="M178.84,154.84a9.56,9.56,0,0,1-.09,1.77,23.28,23.28,0,0,1-1.65,2.72c-.16.24-.57.81-1.23,1.7a12.16,12.16,0,0,1-1.26,1.55,10.27,10.27,0,0,1-2.3.11.85.85,0,0,1-.43-.07c-.07-.21-.15-.45-.25-.73l-.24-.53a1.52,1.52,0,0,1-.17-.52c0-.09,0-.14.12-.14,1.39,0,2.09-.32,2.09-.95a12.35,12.35,0,0,0-1-1.49,9,9,0,0,1-1.16-1.83,10.4,10.4,0,0,1-.06-1.56c0-.18,0-.45,0-.81s0-.63,0-.81.08-.2.24-.2l1.16,0,1.16,0c.11,0,.16.07.16.23s0,.35,0,.63,0,.5,0,.64c0,.63,0,1.05,0,1.28a3.25,3.25,0,0,0,.45,1q.45.75.66.75c.11,0,.31-.25.58-.74a3.27,3.27,0,0,0,.41-.94,12.56,12.56,0,0,0,.08-1.43,5.82,5.82,0,0,0,0-.61c0-.28,0-.49,0-.63s.06-.14.16-.14l1.14,0,1.15,0a.26.26,0,0,1,.26.2A7,7,0,0,1,178.84,154.84Z"/><path class="cls-4" d="M186.48,156.12c0,.5-.16.79-.49.86l-1.55.17c-.59.06-1.47.14-2.64.23a1.06,1.06,0,0,0,.64.74,2.25,2.25,0,0,0,1,.21,2.84,2.84,0,0,0,1.34-.36l.57-.36a2.24,2.24,0,0,1,.53.77,2.77,2.77,0,0,1,.37.87s0,.1-.11.18a3.73,3.73,0,0,1-2.84,1,4,4,0,0,1-2.88-1,3.68,3.68,0,0,1-1.13-2.82,4.05,4.05,0,0,1,1-2.83,3.52,3.52,0,0,1,2.74-1.14,3.27,3.27,0,0,1,2.45,1.05A3.48,3.48,0,0,1,186.48,156.12Zm-2.62-.46a1.17,1.17,0,0,0-.33-.82,1.07,1.07,0,0,0-.79-.35.92.92,0,0,0-.78.4,1.35,1.35,0,0,0-.29.86c0,.14.07.2.21.2a12.3,12.3,0,0,0,1.73-.17C183.77,155.76,183.86,155.72,183.86,155.66Z"/><path class="cls-6" d="M100,113.73a24.67,24.67,0,0,1,4.34,0c1.75.25,4.6,23,4.6,23l-.75,12.15L103,153.12l-6.9-.68-2-6.58Z"/><path class="cls-7" d="M153.84,126.82a5.21,5.21,0,0,0-.36,2.87c.08,1.64.16,3.28.11,4.92a2.5,2.5,0,1,1-5-.18v-3.21c.59-.09-.78-7.92-2.86-10.88a55.15,55.15,0,0,0-7.79-12.58l-.57-.68c-.43-.51-.88-1-1.34-1.53-.78-.86-1.57-1.71-2.36-2.57a2.58,2.58,0,0,1-.12-3.74,2.65,2.65,0,0,1,3.69.25,61.49,61.49,0,0,1,9.52,12.22c1.62,2.81,3,5.78,4.45,8.66a2.3,2.3,0,0,0,.85,1A4.09,4.09,0,0,1,153.84,126.82Z"/><path class="cls-8" d="M148.59,131.22v-.66l-.16.07c-12.31,5.17-24.11,3.75-35.6-2.62,0,.36-.06.59,0,.82.34,4.89.7,9.79,1,14.68.23,3.5.44,7,.68,10.49q.69,10.31,1.41,20.62c.22,3.38.41,6.76.62,10.13.28,4.31.55,8.62.85,12.92.23,3.31-1.16,5.41-4.36,6.47-.08,0-.14.1-.21.16h-2.23a22.84,22.84,0,0,1-2.92-1.72,5.1,5.1,0,0,1-1.72-3.8c-.23-3.09-.38-6.19-.59-9.29-.52-7.8-1.07-15.6-1.59-23.4-.12-1.8-.25-3.6-.29-5.4,0-.82-.42-1-1.1-1s-1.5-.21-1.57.92c-.27,3.93-.57,7.86-.86,11.79q-.6,8.46-1.22,16.9c-.22,3-.43,6-.63,8.92a5.72,5.72,0,0,1-5.79,5.68,5.51,5.51,0,0,1-5.64-5.49c0-2.77.32-5.52.5-8.27.42-6,.83-12.08,1.27-18.12.46-6.28,1-12.56,1.41-18.84.32-4.52.55-9,.8-13.57.19-3.47.36-6.94.53-10.41,0-.37,0-.74,0-1.42-.33.44-.54.67-.7.93A25.75,25.75,0,0,0,87,138.18c-.59,3.35-.92,6.75-1.31,10.14a4.37,4.37,0,0,1-6,3.86,4,4,0,0,1-2.74-4c.29-3.59.64-7.17,1.17-10.73a37,37,0,0,1,3.19-10.36,24.6,24.6,0,0,1,8.07-9.79,19.68,19.68,0,0,1,10.5-3.56c.27,0,.55-.06,1-.06-.17,1.35-.31,2.65-.46,3.9q-1,8.27-2,16.53c-.47,3.88-.93,7.76-1.45,11.64a2.4,2.4,0,0,0,.81,2.36c1.5,1.35,2.9,2.8,4.43,4.3a5.3,5.3,0,0,0,.61-.57c1.19-1.35,2.4-2.68,3.52-4.08a2.18,2.18,0,0,0,.44-1.42c-.42-4.79-.89-9.57-1.35-14.36l-1.05-10.93c-.24-2.38-.49-4.75-.76-7.42,1.84.29,3.56.45,5.22.87a30.14,30.14,0,0,1,8.55,4.21,37.25,37.25,0,0,0,12.12,5.5,25.13,25.13,0,0,0,16.41-2,.91.91,0,0,0,.38-.27c.12-.16.12-.36,0-.66l-.42-1C147.81,123.3,149.18,131.13,148.59,131.22Z"/><path class="cls-9" d="M103.11,87.81a13,13,0,0,1,6,2.17,12.27,12.27,0,0,1,4.87,13.62,12.37,12.37,0,0,1-5.53,7,12.69,12.69,0,0,1-7.61,1.74,12.56,12.56,0,0,1-11.37-11.27,12,12,0,0,1,2.33-8.19,12.84,12.84,0,0,1,8.19-5A12,12,0,0,1,103.11,87.81Z"/><path class="cls-10" d="M138.31,97.85a10.78,10.78,0,0,1,9.85-5.79c2.44.19,4.87.54,7.31.73a20.17,20.17,0,0,0,8.1-.66,6.23,6.23,0,0,0,4.1-3.76,4.65,4.65,0,0,1,.27-.49,41.11,41.11,0,0,1,3.18,10.06,19.26,19.26,0,0,1,0,8.14c-.88,3.52-2.7,6.29-6.58,7-1.31.24-2.67.16-4,.32a26,26,0,0,0-5,.79,22,22,0,0,0-3.95,2.23A72.39,72.39,0,0,0,138.31,97.85Z"/><path class="cls-4" d="M55.72,34.94a3.38,3.38,0,0,0-.93-.71A2.53,2.53,0,0,0,53.64,34,2.7,2.7,0,0,0,51,36.62a2.38,2.38,0,0,0,.33,1.29,3.2,3.2,0,0,0,.85.91,6.23,6.23,0,0,0,1.15.66l1.2.53c.81.36,1.56.73,2.26,1.11a7.23,7.23,0,0,1,1.84,1.35,5.53,5.53,0,0,1,1.22,1.84,6.66,6.66,0,0,1,.44,2.55,6.47,6.47,0,0,1-.55,2.64,7.19,7.19,0,0,1-1.47,2.2,6.8,6.8,0,0,1-2.19,1.49,6.93,6.93,0,0,1-6.26-.43,7.45,7.45,0,0,1-2.54-2.63l1.1-.61a5.35,5.35,0,0,0,2.09,2.18,5.69,5.69,0,0,0,2.9.8,5.48,5.48,0,0,0,2.2-.45,5.89,5.89,0,0,0,1.81-1.24A6.22,6.22,0,0,0,58.58,49,5.32,5.32,0,0,0,59,46.83a4.58,4.58,0,0,0-.69-2.64,6.32,6.32,0,0,0-1.71-1.67,13.56,13.56,0,0,0-2.24-1.18,19.48,19.48,0,0,1-2.24-1.09,6.16,6.16,0,0,1-1.72-1.42,3.39,3.39,0,0,1-.69-2.22,3.71,3.71,0,0,1,.31-1.51,3.79,3.79,0,0,1,.86-1.23A4.29,4.29,0,0,1,52.16,33a3.64,3.64,0,0,1,1.48-.31,3.32,3.32,0,0,1,1.64.4,6.13,6.13,0,0,1,1.38,1.06ZM49.81,48.75l0,.07a3.48,3.48,0,0,0,1.48,1.51,4,4,0,0,0,2,.53,3.86,3.86,0,0,0,1.58-.33,4,4,0,0,0,1.3-.87,3.94,3.94,0,0,0,.85-1.27,3.84,3.84,0,0,0,.31-1.53,3.14,3.14,0,0,0-.69-2.12A6.55,6.55,0,0,0,55,43.36a20.31,20.31,0,0,0-2.24-1.09,12,12,0,0,1-2.24-1.21,6.29,6.29,0,0,1-1.72-1.73,4.8,4.8,0,0,1-.69-2.71,5.54,5.54,0,0,1,1.64-3.92,5.77,5.77,0,0,1,1.77-1.18,5.31,5.31,0,0,1,2.13-.44,5.24,5.24,0,0,1,2.4.57,5.67,5.67,0,0,1,1.9,1.47l-.95.8a8.13,8.13,0,0,0-1.53-1.16,3.63,3.63,0,0,0-1.82-.44,4.09,4.09,0,0,0-1.66.35A4.46,4.46,0,0,0,49.69,35a4.09,4.09,0,0,0-.35,1.66A3.75,3.75,0,0,0,50,39a6.23,6.23,0,0,0,1.71,1.51A15.71,15.71,0,0,0,54,41.59a13.47,13.47,0,0,1,2.24,1.15,6.38,6.38,0,0,1,1.71,1.6,4.18,4.18,0,0,1,.69,2.52,5,5,0,0,1-.42,2,5.16,5.16,0,0,1-1.15,1.65,5.45,5.45,0,0,1-1.69,1.13,5,5,0,0,1-2,.42,5.46,5.46,0,0,1-2.72-.74,4.67,4.67,0,0,1-1.91-2Z"/><path class="cls-4" d="M63.33,31.48h1.24v8.13H61.84V38.37h1.49ZM64.57,40v7.57a4.68,4.68,0,0,0,.36,1.84,5,5,0,0,0,1,1.52A5.17,5.17,0,0,0,67.41,52a4.47,4.47,0,0,0,1.82.44h.26v1.24a5.85,5.85,0,0,1-2.35-.49,6.4,6.4,0,0,1-2-1.35,6.52,6.52,0,0,1-1.35-2,5.69,5.69,0,0,1-.49-2.35V41.25H61.84V40Zm.43-.4V31.48h1.24v6.89h2.48v1.24ZM69.27,52a4.43,4.43,0,0,1-1.66-.38,4.37,4.37,0,0,1-1.37-1,4.42,4.42,0,0,1-.91-1.38,4.33,4.33,0,0,1-.33-1.7V40h3.72v1.24H66.24v6.26a3.23,3.23,0,0,0,3.25,3.24V52Z"/><path class="cls-4" d="M92,53.38H81.62V31.48H92v1.24H82.86V52.14H92ZM84.49,42.3h5.69v1.24H83.26V33.12H92v1.24H84.49Zm5.69,2.92H84.49V50.5H92v1.24H83.26V44h6.92Z"/><path class="cls-4" d="M94.48,53.38l6-7.65L94.7,38.37h1.45l5.94,7.5-5.94,7.51Zm3.89-15,4,5.06,4-5.06H108l-.55.69-5.1,6.48L96.7,38.37Zm8.2,15-4.19-5.32-4.22,5.32H96.7l5.68-7.18L108,53.38Zm3.68,0h-1.67l-5.94-7.51,5.17-6.55.77-1H110l-5.83,7.36Z"/><path class="cls-4" d="M114.73,31.3a1.71,1.71,0,0,1,1.26.52,1.74,1.74,0,0,1,0,2.5,1.74,1.74,0,0,1-1.26.51,1.77,1.77,0,0,1-1.24-3A1.67,1.67,0,0,1,114.73,31.3Zm-1.42,22.08v-15h1.24v15Zm1.42-21.13a.75.75,0,0,0-.55.23.84.84,0,0,0-.21.57.79.79,0,0,0,.21.56.72.72,0,0,0,.55.24.78.78,0,0,0,.57-.24.77.77,0,0,0,.23-.56.79.79,0,0,0-.8-.8Zm0,.43c.27,0,.4.13.4.37s-.13.36-.4.36a.32.32,0,0,1-.36-.36A.33.33,0,0,1,114.73,32.68Zm.22,5.69h1.24v15H115Z"/><path class="cls-4" d="M120.12,31.48h1.24v8.13h-2.73V38.37h1.49ZM121.36,40v7.57a4.68,4.68,0,0,0,.36,1.84,5,5,0,0,0,1,1.52A5,5,0,0,0,124.2,52a4.47,4.47,0,0,0,1.82.44h.26v1.24a5.85,5.85,0,0,1-2.35-.49,6.5,6.5,0,0,1-3.32-3.32,5.85,5.85,0,0,1-.49-2.35V41.25h-1.49V40Zm.44-.4V31.48H123v6.89h2.47v1.24ZM126.06,52a4.47,4.47,0,0,1-1.66-.38,4.41,4.41,0,0,1-2.27-2.33,4.33,4.33,0,0,1-.33-1.7V40h3.71v1.24H123v6.26a3.21,3.21,0,0,0,3.24,3.24V52Z"/><path class="cls-4" d="M138.37,34.94a3.11,3.11,0,0,0-.93-.71A2.46,2.46,0,0,0,136.3,34a2.57,2.57,0,0,0-1.86.78,2.53,2.53,0,0,0-.8,1.88,2.38,2.38,0,0,0,.33,1.29,3.06,3.06,0,0,0,.85.91,5.92,5.92,0,0,0,1.15.66l1.2.53c.8.36,1.56.73,2.26,1.11a7.41,7.41,0,0,1,1.84,1.35,5.53,5.53,0,0,1,1.22,1.84,7.06,7.06,0,0,1-.11,5.19,7.38,7.38,0,0,1-1.47,2.2,6.8,6.8,0,0,1-2.19,1.49,7,7,0,0,1-6.27-.43,7.42,7.42,0,0,1-2.53-2.63l1.09-.61a5.44,5.44,0,0,0,2.1,2.18,5.69,5.69,0,0,0,2.9.8,5.48,5.48,0,0,0,2.2-.45,5.84,5.84,0,0,0,1.8-1.24,6,6,0,0,0,1.22-1.8,5.17,5.17,0,0,0,.46-2.18,4.58,4.58,0,0,0-.69-2.64,6.51,6.51,0,0,0-1.72-1.67A13.17,13.17,0,0,0,137,41.34a20.31,20.31,0,0,1-2.24-1.09,6.12,6.12,0,0,1-1.71-1.42,3.39,3.39,0,0,1-.69-2.22,3.71,3.71,0,0,1,.31-1.51,3.77,3.77,0,0,1,.85-1.23,4.48,4.48,0,0,1,1.26-.84,3.64,3.64,0,0,1,1.48-.31,3.35,3.35,0,0,1,1.64.4,6.36,6.36,0,0,1,1.38,1.06Zm-5.9,13.81,0,.07A3.51,3.51,0,0,0,134,50.33a4.1,4.1,0,0,0,2,.53,4.12,4.12,0,0,0,2.87-1.2,4,4,0,0,0,.86-1.27,3.84,3.84,0,0,0,.31-1.53,3.14,3.14,0,0,0-.69-2.12,6.61,6.61,0,0,0-1.72-1.38,19.48,19.48,0,0,0-2.24-1.09,12.29,12.29,0,0,1-2.24-1.21,6.13,6.13,0,0,1-1.71-1.73,4.8,4.8,0,0,1-.69-2.71,5.54,5.54,0,0,1,1.64-3.92,5.77,5.77,0,0,1,1.77-1.18,5.36,5.36,0,0,1,4.53.13,5.78,5.78,0,0,1,1.9,1.47l-.95.8a8.13,8.13,0,0,0-1.53-1.16,3.63,3.63,0,0,0-1.82-.44,4.05,4.05,0,0,0-1.66.35,4.43,4.43,0,0,0-2.3,2.29,4.08,4.08,0,0,0-.34,1.66,3.75,3.75,0,0,0,.69,2.35,6.23,6.23,0,0,0,1.71,1.51,16.11,16.11,0,0,0,2.24,1.11,13.09,13.09,0,0,1,2.24,1.15,6.57,6.57,0,0,1,1.72,1.6,4.18,4.18,0,0,1,.69,2.52,5,5,0,0,1-.42,2,5.16,5.16,0,0,1-1.15,1.65A5.45,5.45,0,0,1,138,51.68a5,5,0,0,1-2,.42,5.43,5.43,0,0,1-2.72-.74,4.67,4.67,0,0,1-1.91-2Z"/><path class="cls-4" d="M160.16,49.77a7.84,7.84,0,0,1-6.74,3.9,7.28,7.28,0,0,1-3-.62A8.11,8.11,0,0,1,148,51.37a7.86,7.86,0,0,1-1.69-2.47,7.57,7.57,0,0,1-.62-3,7.81,7.81,0,0,1,.58-3,7.69,7.69,0,0,1,1.68-2.51h0a7.63,7.63,0,0,1,2.52-1.68,7.87,7.87,0,0,1,2.95-.58,7.77,7.77,0,0,1,6.74,3.9l-1.06.62a7.92,7.92,0,0,0-.47-.71,5.62,5.62,0,0,0-.55-.64h0a6.43,6.43,0,0,0-4.52-1.93h-.11a6.32,6.32,0,0,0-2.53.51,6.74,6.74,0,0,0-2.08,1.4,6.56,6.56,0,0,0-1.4,2.09,6.46,6.46,0,0,0,1.4,7.15,6.92,6.92,0,0,0,2.08,1.4,6.17,6.17,0,0,0,2.53.53h.11a6.43,6.43,0,0,0,4.52-1.93h0a5.62,5.62,0,0,0,.55-.64,7.92,7.92,0,0,0,.47-.71Zm-2.48-6.34a4.75,4.75,0,0,0-1.84-1.8,4.84,4.84,0,0,0-2.42-.64A4.67,4.67,0,0,0,150,42.41h0a4.7,4.7,0,0,0-1.42,3.46,4.65,4.65,0,0,0,.38,1.88A5.12,5.12,0,0,0,150,49.32a5,5,0,0,0,1.56,1,4.65,4.65,0,0,0,1.88.38,4.94,4.94,0,0,0,2.42-.63,4.84,4.84,0,0,0,1.84-1.81l1.06.62a5.5,5.5,0,0,1-2.22,2.24,6.2,6.2,0,0,1-5.45.35,6.5,6.5,0,0,1-1.95-1.29,6.19,6.19,0,0,1-1.33-1.95,6,6,0,0,1-.49-2.41,5.88,5.88,0,0,1,.49-2.42,6.22,6.22,0,0,1,1.33-1.93,6.32,6.32,0,0,1,4.37-1.77h.15a6.51,6.51,0,0,1,3,.88,5.38,5.38,0,0,1,2.13,2.18Z"/><path class="cls-4" d="M174.58,51.92a7.54,7.54,0,0,1-4.91,1.75,7.28,7.28,0,0,1-3-.62,8.11,8.11,0,0,1-2.48-1.68,7.7,7.7,0,0,1-1.69-2.47,7.74,7.74,0,0,1,0-6.07,7.88,7.88,0,0,1,1.69-2.46,8.06,8.06,0,0,1,2.48-1.66,7.44,7.44,0,0,1,3-.6,7.55,7.55,0,0,1,4.91,1.71V38.37h1.24v5.21a6.75,6.75,0,0,0-1.49-2.31h0a6.84,6.84,0,0,0-2-1.4,6.45,6.45,0,0,0-2.57-.52,6.37,6.37,0,0,0-2.54.51,6.7,6.7,0,0,0-2.07,1.4,6.6,6.6,0,0,0-1.39,7.21,6.74,6.74,0,0,0,1.42,2.07,6.87,6.87,0,0,0,2.08,1.38,6.25,6.25,0,0,0,2.5.51,6.44,6.44,0,0,0,2.57-.51,6.24,6.24,0,0,0,2-1.42h0a6.92,6.92,0,0,0,1.49-2.33v5.21h-1.24Zm-9.21-1.71a6.43,6.43,0,0,1-1.33-2,5.81,5.81,0,0,1-.49-2.39,5.87,5.87,0,0,1,.47-2.35,6.5,6.5,0,0,1,1.29-2,6.36,6.36,0,0,1,1.95-1.33,6.2,6.2,0,0,1,4.83,0A6.61,6.61,0,0,1,174,41.57a6.2,6.2,0,0,1,1.31,2,6.11,6.11,0,0,1,0,4.7,6.2,6.2,0,0,1-1.31,2,6.43,6.43,0,0,1-1.95,1.33,5.88,5.88,0,0,1-2.42.49,6,6,0,0,1-2.37-.47A6.22,6.22,0,0,1,165.37,50.21Zm.87-.88a4.67,4.67,0,0,0,3.43,1.42,4.72,4.72,0,0,0,1.91-.38,5.09,5.09,0,0,0,1.57-1,4.92,4.92,0,0,0,1-1.57,4.65,4.65,0,0,0,.38-1.88A4.6,4.6,0,0,0,174.2,44a4.81,4.81,0,0,0-1-1.57,5.12,5.12,0,0,0-1.57-1.06,4.9,4.9,0,0,0-1.91-.38,4.82,4.82,0,0,0-1.88.38,5.12,5.12,0,0,0-1.57,1.06A4.81,4.81,0,0,0,165.17,44a4.61,4.61,0,0,0-.39,1.87,5,5,0,0,0,.37,1.88A4.58,4.58,0,0,0,166.24,49.33Zm10-11h1.24v15h-1.24Z"/><path class="cls-4" d="M182,53.38h-1.24v-15H182v15Zm1.64-14.14a5.93,5.93,0,0,1,1.73-.85,6.86,6.86,0,0,1,1.92-.28,6.61,6.61,0,0,1,2.77.62,6.38,6.38,0,0,1,2.3,1.79,6.51,6.51,0,0,1,2.26-1.79,6.59,6.59,0,0,1,2.81-.62,6.25,6.25,0,0,1,2.5.51A6.49,6.49,0,0,1,202,40a6.37,6.37,0,0,1,1.92,4.59v8.78h-1.24V44.62a4.89,4.89,0,0,0-.42-2,5.81,5.81,0,0,0-1.12-1.68,5.31,5.31,0,0,0-1.68-1.14,5,5,0,0,0-2-.42,5.11,5.11,0,0,0-3.18,1,5.2,5.2,0,0,0-1.88,2.72,5.37,5.37,0,0,0-1.87-2.68,5.36,5.36,0,0,0-6.14-.2,5.69,5.69,0,0,0-2,2.3V38.37h1.24Zm8.49,14.14h-1.24V44.6a3.46,3.46,0,0,0-.29-1.39,3.89,3.89,0,0,0-1.93-1.93,3.46,3.46,0,0,0-1.39-.29,3.53,3.53,0,0,0-1.42.29,3.86,3.86,0,0,0-1.15.79,3.79,3.79,0,0,0-.78,1.14,3.46,3.46,0,0,0-.29,1.39v8.78h-1.24V44.62a4.73,4.73,0,0,1,.38-1.89,5.06,5.06,0,0,1,1-1.53v0a4.91,4.91,0,0,1,1.55-1,4.91,4.91,0,0,1,3.79,0,5,5,0,0,1,1.55,1v0a5.24,5.24,0,0,1,1,1.53,4.73,4.73,0,0,1,.38,1.89Zm10.13,0H201V44.6a3.46,3.46,0,0,0-.29-1.39,3.81,3.81,0,0,0-.79-1.14,3.86,3.86,0,0,0-1.15-.79,3.38,3.38,0,0,0-1.38-.29,3.53,3.53,0,0,0-1.42.29,3.86,3.86,0,0,0-1.15.79,3.61,3.61,0,0,0-.78,1.14,3.3,3.3,0,0,0-.29,1.39v8.78h-1.24V44.62A4.6,4.6,0,0,1,194,41.2v0a4.82,4.82,0,0,1,1.53-1,4.89,4.89,0,0,1,3.78,0,4.82,4.82,0,0,1,1.53,1v0a4.88,4.88,0,0,1,1,1.53,4.57,4.57,0,0,1,.39,1.89Z"/><path class="cls-4" d="M48.2,234.84h8.26v1.24h-11l8.6-10a5.8,5.8,0,0,0,1.24-3.68,5.57,5.57,0,0,0-.44-2.17,5.65,5.65,0,0,0-1.22-1.82,6.3,6.3,0,0,0-1.82-1.26,5.45,5.45,0,0,0-2.24-.47,5.58,5.58,0,0,0-1.83.31,6,6,0,0,0-1.67.89,5.77,5.77,0,0,0-1.31,1.39,4.51,4.51,0,0,0-.73,1.78l-1.2-.33a6.11,6.11,0,0,1,.91-2.13,7.25,7.25,0,0,1,1.55-1.67,6.6,6.6,0,0,1,2-1.1,7.08,7.08,0,0,1,2.28-.38,6.51,6.51,0,0,1,2.67.55A7.15,7.15,0,0,1,56,219.7a6.72,6.72,0,0,1,.54,2.68,7.84,7.84,0,0,1-.36,2.35A5.94,5.94,0,0,1,55,226.82Zm8.26,1.64v1.24H43.6L43,236.44,52.82,225a3.22,3.22,0,0,0,.64-1.16,6.14,6.14,0,0,0,.24-1.31v-.15a3.82,3.82,0,0,0-.33-1.55,4.09,4.09,0,0,0-6.23-1.66,4,4,0,0,0-1.46,2.23v0l-1.2-.33a5.76,5.76,0,0,1,.75-1.65,4.73,4.73,0,0,1,1.18-1.26,5.76,5.76,0,0,1,1.51-.8,4.9,4.9,0,0,1,1.7-.29,5.08,5.08,0,0,1,2.05.42,5.18,5.18,0,0,1,1.68,1.13,5.44,5.44,0,0,1,1.13,1.65,5.27,5.27,0,0,1,.45,2v.25a4.75,4.75,0,0,1-.31,1.68,5.89,5.89,0,0,1-.81,1.53l-9.22,10.71Z"/><path class="cls-4" d="M64.19,218.48l-1,5.21a8.59,8.59,0,0,1,2.92-.51,8,8,0,0,1,3,.56,7.15,7.15,0,0,1,2.39,1.59,7.66,7.66,0,0,1,1.58,2.39,7.34,7.34,0,0,1,.59,2.93,6.75,6.75,0,0,1-.61,2.84,7.71,7.71,0,0,1-1.6,2.35,7.31,7.31,0,0,1-2.35,1.58,7,7,0,0,1-2.84.59,7.19,7.19,0,0,1-2.15-.33,7.9,7.9,0,0,1-2-.93,7.31,7.31,0,0,1-1.6-1.44,7.46,7.46,0,0,1-1.13-1.89l1.13-.48a7,7,0,0,0,2.3,2.79,5.75,5.75,0,0,0,3.42,1,5.81,5.81,0,0,0,2.39-.49,6.43,6.43,0,0,0,2-1.33A6.61,6.61,0,0,0,72,233a5.85,5.85,0,0,0,.49-2.35,6.82,6.82,0,0,0-.37-2.2,5.8,5.8,0,0,0-1.13-2A5.89,5.89,0,0,0,69,225a6.85,6.85,0,0,0-2.88-.56,8.35,8.35,0,0,0-2.5.4,5.11,5.11,0,0,0-2.13,1.24c.22-1.44.48-2.9.78-4.39s.61-3,.9-4.43h8.45v1.24Zm6.19-1.6H62.8c-.29,1.6-.59,3.17-.89,4.71s-.6,3.11-.89,4.69a2,2,0,0,0,.27.12l.24.13a6.59,6.59,0,0,1,2.13-1.27,7.09,7.09,0,0,1,2.46-.44,6.27,6.27,0,0,1,2.38.44,5.47,5.47,0,0,1,3.08,3.08,6.05,6.05,0,0,1,.44,2.31,5.29,5.29,0,0,1-.46,2.2,5.82,5.82,0,0,1-3.06,3.06,5.29,5.29,0,0,1-2.2.46,5.78,5.78,0,0,1-3.21-1A5.2,5.2,0,0,1,61,232.76l1.13-.44,0,.08a4.21,4.21,0,0,0,1.66,2,4.49,4.49,0,0,0,4.22.4,4.24,4.24,0,0,0,1.42-1,5.34,5.34,0,0,0,1-1.42,4.25,4.25,0,0,0,.36-1.75,5.41,5.41,0,0,0-.25-1.62,4.09,4.09,0,0,0-2.24-2.55,5.09,5.09,0,0,0-2.17-.42,6.4,6.4,0,0,0-2.1.36,4.33,4.33,0,0,0-1.76,1.17l-.44.47L59.63,227l2.15-11.33h9.84v1.24Z"/><path class="cls-4" d="M76.79,222.12A12.39,12.39,0,0,1,78,219.41a8.74,8.74,0,0,1,1.75-2.18,7.56,7.56,0,0,1,5.24-2,7.47,7.47,0,0,1,3.85,1,8.91,8.91,0,0,1,2.76,2.57,11.63,11.63,0,0,1,1.68,3.63,15.33,15.33,0,0,1,.57,4.15,15.51,15.51,0,0,1-.57,4.19,11.47,11.47,0,0,1-1.68,3.62,8.62,8.62,0,0,1-2.76,2.55,8.11,8.11,0,0,1-7.69,0,8.38,8.38,0,0,1-2.75-2.55,11.89,11.89,0,0,1-1.66-3.62,15.75,15.75,0,0,1,.09-8.64Zm1.17.36a13.45,13.45,0,0,0-.44,2,14.84,14.84,0,0,0,.33,5.74,10.9,10.9,0,0,0,1.4,3.26,7.3,7.3,0,0,0,2.35,2.31,6.88,6.88,0,0,0,6.7,0,7.46,7.46,0,0,0,2.37-2.31,10.68,10.68,0,0,0,1.42-3.26,14.28,14.28,0,0,0,.48-3.67,14.13,14.13,0,0,0-.48-3.65,10.78,10.78,0,0,0-1.42-3.24,7.46,7.46,0,0,0-2.37-2.31,6.26,6.26,0,0,0-3.35-.87,6.39,6.39,0,0,0-2.49.47,7.11,7.11,0,0,0-2,1.27A8,8,0,0,0,79,220.13,10.39,10.39,0,0,0,78,222.48Zm7-5.6a5.8,5.8,0,0,1,3.21.87A7.58,7.58,0,0,1,90.43,220a9.92,9.92,0,0,1,1.32,3.12,14.3,14.3,0,0,1,0,6.88,10.6,10.6,0,0,1-1.3,3.12,7.51,7.51,0,0,1-2.23,2.26,5.86,5.86,0,0,1-3.25.87,5.73,5.73,0,0,1-3.21-.89,7.89,7.89,0,0,1-2.25-2.28A10,10,0,0,1,78.2,230a14.46,14.46,0,0,1-.42-3.41,14,14,0,0,1,.43-3.44A10.44,10.44,0,0,1,79.55,220a7.54,7.54,0,0,1,2.24-2.26A5.74,5.74,0,0,1,85,216.88Zm0,1.24a4.53,4.53,0,0,0-2.71.8,6.46,6.46,0,0,0-1.84,2,9.18,9.18,0,0,0-1.06,2.73,13.4,13.4,0,0,0-.33,2.88,13.71,13.71,0,0,0,.33,2.93,8.88,8.88,0,0,0,1.06,2.73,6.35,6.35,0,0,0,1.84,2,5.08,5.08,0,0,0,5.44,0,6.43,6.43,0,0,0,1.86-2,9,9,0,0,0,1.06-2.72,13.39,13.39,0,0,0,.33-2.91,13.12,13.12,0,0,0-.33-2.84A9.41,9.41,0,0,0,89.54,221a6.26,6.26,0,0,0-1.86-2.06A4.61,4.61,0,0,0,85,218.12Z"/><path class="cls-4" d="M111.8,240.41h-1.24v-2.59a7.08,7.08,0,0,1-2.91-1.21,6.39,6.39,0,0,1-2-2.32l1.09-.58a5.38,5.38,0,0,0,2,2.17,5.63,5.63,0,0,0,3,.82h.11Zm-3.64-7.5a3.57,3.57,0,0,0,1,1.22,5.65,5.65,0,0,0,1.4.75v-8.6a17.1,17.1,0,0,1-1.64-.93,6,6,0,0,1-1.31-1.13,4.81,4.81,0,0,1-.85-1.48,5.52,5.52,0,0,1-.31-2,5.34,5.34,0,0,1,1.14-3.37,5.57,5.57,0,0,1,3-2v-2.69h1.24v3.75a4,4,0,0,0-1.58.38,4.71,4.71,0,0,0-1.32.91,4.35,4.35,0,0,0-.89,1.35,4.2,4.2,0,0,0-.33,1.66,4.08,4.08,0,0,0,.35,1.75,4.28,4.28,0,0,0,.91,1.27,6.12,6.12,0,0,0,1.31.95c.5.26,1,.52,1.55.76v10.75h-.11a5.17,5.17,0,0,1-2.73-.75,5,5,0,0,1-1.9-2ZM111.8,225c-.49-.22-1-.45-1.4-.69a5.58,5.58,0,0,1-1.19-.86,4,4,0,0,1-.82-1.15,4,4,0,0,1,0-3.06,3.85,3.85,0,0,1,.8-1.22,3.74,3.74,0,0,1,1.18-.82,4.33,4.33,0,0,1,1.44-.33Zm-1.24-6.52a3.53,3.53,0,0,0-.89,1,2.46,2.46,0,0,0-.35,1.3,2.3,2.3,0,0,0,.35,1.31,3.83,3.83,0,0,0,.89.91Zm1.68-5.79h1.24v2.73a4.89,4.89,0,0,1,1.56.71,5.25,5.25,0,0,1,1.24,1.15l-1,.76a4.09,4.09,0,0,0-3.09-1.6Zm1.24,11.69c.73.34,1.41.7,2,1.07a7.4,7.4,0,0,1,1.64,1.33,5.48,5.48,0,0,1,1.07,1.77,6.72,6.72,0,0,1,.38,2.42,6.91,6.91,0,0,1-.36,2.21,6.65,6.65,0,0,1-1.06,2,7.11,7.11,0,0,1-1.64,1.55,6.5,6.5,0,0,1-2.07,1v2.73h-1.24v-3.75a5.57,5.57,0,0,0,3.64-1.82,5.86,5.86,0,0,0,1.09-1.75,5.42,5.42,0,0,0,.4-2.08,5.14,5.14,0,0,0-.43-2.22,5,5,0,0,0-1.15-1.56,6.59,6.59,0,0,0-1.6-1.1c-.6-.29-1.2-.57-1.81-.84l-.14-.07v-8.31a3.83,3.83,0,0,1,2.77,1.43l-1,.76-.27-.27a1.5,1.5,0,0,0-.31-.24Zm-1.24,1.27,1.73.82a6.46,6.46,0,0,1,1.51,1,4.86,4.86,0,0,1,1.08,1.44,4.66,4.66,0,0,1,.41,2,5.17,5.17,0,0,1-1.38,3.52,5.69,5.69,0,0,1-1.51,1.16,4.54,4.54,0,0,1-1.84.53Zm1.24,8.93a3.73,3.73,0,0,0,1.64-1.49,4.06,4.06,0,0,0,.62-2.12,3.14,3.14,0,0,0-.66-2.11,5.58,5.58,0,0,0-1.6-1.27Z"/><path class="cls-4" d="M121.35,215.64h6.44a10.53,10.53,0,0,1,4.21.86,11.16,11.16,0,0,1,5.87,5.81,10.65,10.65,0,0,1,0,8.5,11.17,11.17,0,0,1-5.86,5.85,10.54,10.54,0,0,1-4.23.87h-6.44Zm1.23,1.24V236.3h5.21a9.35,9.35,0,0,0,3.77-.77,9.85,9.85,0,0,0,3.1-2.09,9.7,9.7,0,0,0,2.09-3.09,9.37,9.37,0,0,0,.77-3.76,9.22,9.22,0,0,0-.78-3.77,10.37,10.37,0,0,0-2.12-3.09,10,10,0,0,0-3.09-2.09,9.33,9.33,0,0,0-3.74-.76Zm.4.4h4.83a8.79,8.79,0,0,1,3.59.75,9.58,9.58,0,0,1,3,2,9.3,9.3,0,0,1,2,2.95,9.27,9.27,0,0,1,0,7.21,9.35,9.35,0,0,1-2,3,9.94,9.94,0,0,1-3,2,8.79,8.79,0,0,1-3.59.75H123Zm1.24,1.24v16.14h3.57a7.88,7.88,0,0,0,3.12-.64,8.31,8.31,0,0,0,2.57-1.73,8.51,8.51,0,0,0,1.74-2.57,7.6,7.6,0,0,0,.66-3.15,7.48,7.48,0,0,0-.66-3.13,8.13,8.13,0,0,0-1.76-2.55,8.58,8.58,0,0,0-2.57-1.74,7.71,7.71,0,0,0-3.1-.63Z"/><path class="cls-4" d="M144.15,230v7.57h-1.24v-8.81h4.3a5.71,5.71,0,0,0,2.28-.47,6,6,0,0,0,3.15-3.16,5.79,5.79,0,0,0,.47-2.29,5.51,5.51,0,0,0-.47-2.23,6.3,6.3,0,0,0-3.15-3.2,5.4,5.4,0,0,0-2.28-.49h-4.7v20.65h-1.24V215.64h5.94a6.9,6.9,0,0,1,2.75.56,7.36,7.36,0,0,1,3.83,3.83,7,7,0,0,1,0,5.5,7.61,7.61,0,0,1-1.55,2.28,7.83,7.83,0,0,1-2.28,1.56,6.6,6.6,0,0,1-2.75.59Zm-1.24-12.68h4.3a5.15,5.15,0,0,1,2.13.45,6,6,0,0,1,1.75,1.21,5.46,5.46,0,0,1,1.18,1.75,5,5,0,0,1,.44,2.09,5.07,5.07,0,0,1-.44,2.1,5.52,5.52,0,0,1-1.18,1.74,5.8,5.8,0,0,1-1.75,1.2,5,5,0,0,1-2.13.46h-4.3Zm1.24,1.24V227h3.06a4,4,0,0,0,1.64-.34,4.86,4.86,0,0,0,1.35-.91,4.28,4.28,0,0,0,.93-1.35,4.08,4.08,0,0,0,.34-1.66,4,4,0,0,0-.34-1.64,4.52,4.52,0,0,0-2.28-2.28,4,4,0,0,0-1.64-.34Z"/><path class="cls-4" d="M159.6,218.55a11.82,11.82,0,0,1,3.68-2.46,11.07,11.07,0,0,1,4.33-.85,10.85,10.85,0,0,1,4.41.91,11.39,11.39,0,0,1,3.61,2.48,12,12,0,0,1,2.42,3.6,10.8,10.8,0,0,1,.89,4.34,11,11,0,0,1-.89,4.39,11.47,11.47,0,0,1-6.05,6,11,11,0,0,1-4.39.89,10.89,10.89,0,0,1-4.35-.89,11.83,11.83,0,0,1-3.61-2.43,11.58,11.58,0,0,1-2.46-3.59,10.73,10.73,0,0,1-.91-4.42,11.13,11.13,0,0,1,.86-4.34A11.76,11.76,0,0,1,159.6,218.55Zm.87.87a10,10,0,0,0-2.95,7.13,9.77,9.77,0,0,0,.8,3.91,10.4,10.4,0,0,0,5.39,5.4,9.91,9.91,0,0,0,7.8,0,10.38,10.38,0,0,0,3.2-2.18,10.21,10.21,0,0,0,2.19-3.22,9.77,9.77,0,0,0,.8-3.91,9.6,9.6,0,0,0-.8-3.89,10.53,10.53,0,0,0-2.17-3.2,10.15,10.15,0,0,0-3.2-2.18,9.65,9.65,0,0,0-3.92-.8,10,10,0,0,0-7.14,2.94Zm7.14-2.54a9.18,9.18,0,0,1,3.74.78,10.31,10.31,0,0,1,3.09,2.1,9.64,9.64,0,0,1,2.1,3.07,9.56,9.56,0,0,1,0,7.47,9.88,9.88,0,0,1-5.19,5.19,9.44,9.44,0,0,1-7.47,0,9.79,9.79,0,0,1-5.19-5.19,9.44,9.44,0,0,1,0-7.47,9.89,9.89,0,0,1,2.07-3.07,10,10,0,0,1,3.08-2.1A9.22,9.22,0,0,1,167.61,216.88Zm0,1.24a8.22,8.22,0,0,0-3.3.67,8.41,8.41,0,0,0-2.69,1.84,8.71,8.71,0,0,0-1.81,2.7,8.43,8.43,0,0,0,0,6.54,8.69,8.69,0,0,0,1.82,2.69,8.49,8.49,0,0,0,2.7,1.81,8.5,8.5,0,0,0,6.52,0,8.49,8.49,0,0,0,2.7-1.81,8.69,8.69,0,0,0,1.82-2.69,8.22,8.22,0,0,0,.67-3.3,7.93,7.93,0,0,0-.67-3.24,9.11,9.11,0,0,0-1.82-2.7,8.6,8.6,0,0,0-2.68-1.84A8,8,0,0,0,167.61,218.12Z"/><path class="cls-4" d="M192.78,237.53h-11V215.64H183V236.3h9.8Zm0-1.63h-9.4V215.64h1.24v19h8.16v1.24Z"/><path class="cls-4" d="M198.21,237.53V227.3l-8.09-11.66h1.5l7.83,11.26v10.63Zm-4.59-21.89.62.84,5.43,7.83,6.05-8.67h1.49l-7.54,10.82-5.9-8.49-1.64-2.33Zm7.51,19v2.87h-1.24V226.9l5.61-8.13,2.22-3.13h1.49l-2.18,3.1-5.9,8.56Z"/></g></g></svg>