<svg xmlns="http://www.w3.org/2000/svg" viewBox="0 0 253.51 253.51"><defs><style>.cls-1{fill:#cfe7d7;stroke-width:5px;}.cls-1,.cls-3{stroke:#000;}.cls-2{fill:#817c7c;}.cls-3,.cls-5,.cls-6{fill:none;}.cls-4{fill:#c49a6c;}.cls-4,.cls-5,.cls-6,.cls-7{stroke:#231f20;stroke-miterlimit:10;}.cls-4,.cls-5,.cls-7{stroke-width:2px;}.cls-7{fill:#39b54a;}.cls-8{fill:#231f20;}</style></defs><g id="Layer_2" data-name="Layer 2"><g id="Layer_1-2" data-name="Layer 1"><rect class="cls-1" x="2.5" y="2.5" width="248.51" height="248.51"/><rect class="cls-2" x="8.36" y="8.36" width="236.8" height="62.45"/><rect class="cls-3" x="8.36" y="8.36" width="236.8" height="62.45"/><path class="cls-4" d="M75.22,161S90,147.53,125.5,173.79c0,0,14.09,15.05,47.39,5.77v33l-97.67,2.24Z"/><line class="cls-5" x1="108.23" y1="163.14" x2="108.23" y2="90.03"/><rect class="cls-6" x="108.23" y="95.94" width="15.82"/><polygon class="cls-6" points="123.76 108.84 107.94 108.84 109.21 108.84 124.06 108.84 123.76 108.84"/><polygon class="cls-7" points="124.06 90.03 124.06 114.58 150.06 102.31 124.06 90.03"/><path class="cls-8" d="M98.54,30.49a3.38,3.38,0,0,0-.93-.71,2.5,2.5,0,0,0-1.15-.27,2.61,2.61,0,0,0-1.86.78,2.55,2.55,0,0,0-.8,1.88,2.38,2.38,0,0,0,.33,1.29,3.1,3.1,0,0,0,.86.91,6.4,6.4,0,0,0,1.14.66l1.21.53q1.2.54,2.25,1.11A7.45,7.45,0,0,1,101.43,38a5.58,5.58,0,0,1,1.22,1.84,7.09,7.09,0,0,1-.11,5.2,7.19,7.19,0,0,1-1.47,2.2,6.8,6.8,0,0,1-2.19,1.49,6.93,6.93,0,0,1-6.26-.43,7.33,7.33,0,0,1-2.53-2.63l1.09-.62a5.31,5.31,0,0,0,2.09,2.19,5.69,5.69,0,0,0,2.9.8,5.45,5.45,0,0,0,2.2-.45,5.77,5.77,0,0,0,1.81-1.24,6.22,6.22,0,0,0,1.22-1.8,5.32,5.32,0,0,0,.45-2.18,4.58,4.58,0,0,0-.69-2.64,6.32,6.32,0,0,0-1.71-1.67,13.56,13.56,0,0,0-2.24-1.18A21.27,21.27,0,0,1,95,35.8a6.31,6.31,0,0,1-1.72-1.42,3.39,3.39,0,0,1-.69-2.22,3.85,3.85,0,0,1,.31-1.51,3.79,3.79,0,0,1,.86-1.23A3.87,3.87,0,0,1,95,28.58a3.56,3.56,0,0,1,1.47-.31,3.32,3.32,0,0,1,1.64.4,5.92,5.92,0,0,1,1.38,1.06ZM92.64,44.3l0,.07a3.48,3.48,0,0,0,1.48,1.51,4,4,0,0,0,2,.53,3.82,3.82,0,0,0,1.58-.33,4.18,4.18,0,0,0,1.3-.87,3.87,3.87,0,0,0,.85-1.28,3.77,3.77,0,0,0,.31-1.53,3.14,3.14,0,0,0-.69-2.11,6.55,6.55,0,0,0-1.71-1.38,20.32,20.32,0,0,0-2.24-1.1,12.55,12.55,0,0,1-2.24-1.2,6.26,6.26,0,0,1-1.71-1.73,4.72,4.72,0,0,1-.7-2.71,5.54,5.54,0,0,1,1.64-3.92,5.77,5.77,0,0,1,1.77-1.18,5.31,5.31,0,0,1,2.13-.44,5.43,5.43,0,0,1,2.41.56,5.9,5.9,0,0,1,1.89,1.48l-1,.8a8.13,8.13,0,0,0-1.53-1.16,3.53,3.53,0,0,0-1.82-.44,4.11,4.11,0,0,0-1.66.34,4.62,4.62,0,0,0-1.36.93,4.49,4.49,0,0,0-.93,1.37,4.05,4.05,0,0,0-.35,1.66,3.75,3.75,0,0,0,.69,2.35A6.43,6.43,0,0,0,94.57,36a15.58,15.58,0,0,0,2.24,1.11,13.47,13.47,0,0,1,2.24,1.15,6.22,6.22,0,0,1,1.71,1.6,4.17,4.17,0,0,1,.69,2.51,5,5,0,0,1-.42,2,5.23,5.23,0,0,1-1.14,1.66,5.61,5.61,0,0,1-1.7,1.13,5,5,0,0,1-2,.42,5.3,5.3,0,0,1-2.71-.75,4.62,4.62,0,0,1-1.92-2Z"/><path class="cls-8" d="M106.15,27h1.24v8.12h-2.73V33.92h1.49Zm1.24,8.53v7.57a4.68,4.68,0,0,0,.36,1.84,5,5,0,0,0,1,1.52,5.18,5.18,0,0,0,1.47,1,4.47,4.47,0,0,0,1.82.44h.26v1.24a5.85,5.85,0,0,1-2.35-.49,6.5,6.5,0,0,1-3.32-3.32,5.85,5.85,0,0,1-.49-2.35V36.79h-1.49V35.56Zm.44-.41V27h1.24v6.89h2.47v1.23Zm4.26,12.39a4.47,4.47,0,0,1-1.66-.38,4.41,4.41,0,0,1-2.27-2.33,4.33,4.33,0,0,1-.33-1.7V35.56h3.71v1.23h-2.47v6.27a3.21,3.21,0,0,0,3.24,3.24v1.24Z"/><path class="cls-8" d="M126.81,47.47a7.62,7.62,0,0,1-4.92,1.75,7.35,7.35,0,0,1-3-.62,8.24,8.24,0,0,1-2.48-1.68,7.8,7.8,0,0,1-1.69-2.48,7.71,7.71,0,0,1,0-6.06,7.82,7.82,0,0,1,1.69-2.46,8.18,8.18,0,0,1,2.48-1.66,7.51,7.51,0,0,1,3-.6,7.6,7.6,0,0,1,4.92,1.71V33.92h1.24v5.21a6.91,6.91,0,0,0-1.5-2.32h0a7.05,7.05,0,0,0-2.06-1.39,6.57,6.57,0,0,0-5.1,0,6.51,6.51,0,0,0-3.48,3.49,6.4,6.4,0,0,0-.51,2.54A6.21,6.21,0,0,0,115.9,44a6.41,6.41,0,0,0,1.42,2.07,6.7,6.7,0,0,0,2.07,1.38,6.28,6.28,0,0,0,2.5.51,6.44,6.44,0,0,0,2.57-.51,6.28,6.28,0,0,0,2.06-1.42h0a7,7,0,0,0,1.5-2.33v5.21h-1.24Zm-9.22-1.71a6.43,6.43,0,0,1-1.33-1.95,5.81,5.81,0,0,1-.49-2.39,6,6,0,0,1,.47-2.35,6.34,6.34,0,0,1,1.3-2,6,6,0,0,1,1.95-1.33,6.17,6.17,0,0,1,4.82,0,6.43,6.43,0,0,1,2,1.33,6,6,0,0,1,1.31,2,6,6,0,0,1,0,4.7,6,6,0,0,1-1.31,1.95,6.43,6.43,0,0,1-2,1.33,5.88,5.88,0,0,1-2.42.49,6,6,0,0,1-2.37-.47A6.22,6.22,0,0,1,117.59,45.76Zm.88-.88a4.63,4.63,0,0,0,3.42,1.42,4.86,4.86,0,0,0,3.48-1.44,5.07,5.07,0,0,0,1.06-1.56,4.84,4.84,0,0,0,0-3.76A5.07,5.07,0,0,0,125.37,38a5,5,0,0,0-1.57-1.06,4.91,4.91,0,0,0-3.79,0,5,5,0,0,0-2.62,2.62,4.82,4.82,0,0,0-.38,1.88,5,5,0,0,0,.36,1.88A4.61,4.61,0,0,0,118.47,44.88Zm10-11h1.24v15h-1.24Z"/><path class="cls-8" d="M134.2,48.93H133v-15h1.23v15Zm1.64-14.14a6.06,6.06,0,0,1,1.73-.85,6.51,6.51,0,0,1,1.92-.28V34.9a5,5,0,0,0-3,.9,5.81,5.81,0,0,0-1.94,2.27V33.92h1.24Zm3.65,1.75a3.5,3.5,0,0,0-1.42.29,4,4,0,0,0-1.15.78,3.86,3.86,0,0,0-.79,1.15,3.46,3.46,0,0,0-.29,1.39v8.78H134.6V40.15a4.61,4.61,0,0,1,.39-1.9,4.91,4.91,0,0,1,2.58-2.57,4.94,4.94,0,0,1,1.92-.38Z"/><path class="cls-8" d="M143.06,27h1.23v8.12h-2.73V33.92h1.5Zm1.23,8.53v7.57a4.69,4.69,0,0,0,.37,1.84,5,5,0,0,0,1,1.52,5.37,5.37,0,0,0,1.48,1A4.4,4.4,0,0,0,149,48h.25v1.24a5.89,5.89,0,0,1-2.35-.49,6.48,6.48,0,0,1-2-1.35,6.35,6.35,0,0,1-1.35-2,5.69,5.69,0,0,1-.49-2.35V36.79h-1.5V35.56Zm.44-.41V27H146v6.89h2.48v1.23ZM149,47.54a4.42,4.42,0,0,1-1.65-.38,4.26,4.26,0,0,1-1.37-.95,4.42,4.42,0,0,1-.91-1.38,4.33,4.33,0,0,1-.33-1.7V35.56h3.72v1.23H146v6.27a3.16,3.16,0,0,0,.95,2.3,3.11,3.11,0,0,0,2.29.94v1.24Z"/></g></g></svg>