<svg xmlns="http://www.w3.org/2000/svg" viewBox="0 0 253.51 253.51"><defs><style>.cls-1{fill:#cfe7d7;stroke-width:5px;}.cls-1,.cls-3{stroke:#000;}.cls-2{fill:#114da1;}.cls-3{fill:none;}.cls-4{fill:#f15a29;}.cls-5{fill:#fff;}.cls-6{fill:#231f20;}</style></defs><g id="Layer_2" data-name="Layer 2"><g id="Layer_1-2" data-name="Layer 1"><rect class="cls-1" x="2.5" y="2.5" width="248.51" height="248.51"/><rect class="cls-2" x="8.36" y="8.36" width="236.8" height="62.45"/><rect class="cls-3" x="8.36" y="8.36" width="236.8" height="62.45"/><path d="M92.34,190.68v0h6.8v0Zm0,4.88v4.33H161v-4.33Zm73.45-18.4V190.7h9V177.16Zm-87.15,0V190.7h9V177.16Zm0,18.38v4.37h8.91v-4.37Zm87.05,0v1.75c0,2.68,0,2.68,2.72,2.68h6.36v-4.43Zm-41.16-18.4v4.35h4.29v-4.35Zm55,0c7-.23,13.86-.57,17-8.53-.48-.13-.86-.27-1.27-.36a113.21,113.21,0,0,1-24-8.05c-.36-.16-.88-.54-.91-.84-.06-2.47,0-5,0-7.24,3.3-.32,6.49-.28,9.48-1,3.21-.78,5-3.8,7.21-6a15.67,15.67,0,0,0-2.79-.14,45.57,45.57,0,0,1-22.13-5.45c-.36-.19-.87-.57-.89-.89-.08-1.69,0-3.38,0-5.32,3.17,0,6.14.23,9.08-.07,5.07-.5,8.45-3.37,10.24-8.29A75.22,75.22,0,0,1,159,117.42c5.76-.68,8.32-4.46,10.26-9.21-7.73.34-14.72-2.41-21.88-4V98.94h4.46V94.46h-9v-4.6c3.25-.11,6.51.42,9.4-1.5a11.63,11.63,0,0,0,3.15-3.1H146.5q-19.86,0-39.7,0H98a13,13,0,0,0,2,2.28c3.08,2.74,6.86,2.28,10.52,2.32v4.65h-9v4.54H106v5.19c-7.25,1.56-14.19,4.31-21.9,4,1.92,4.8,4.52,8.55,10.24,9.23A76.67,76.67,0,0,1,72.53,125,42,42,0,0,0,76,129.88c2.6,2.77,6.08,3.53,9.76,3.57,2.11,0,4.22,0,6.48,0,0,1.54-.06,3,0,4.39a1.58,1.58,0,0,1-1,1.69,46.32,46.32,0,0,1-22.28,5.37c-.83,0-1.63,0-2.45,0,2.17,2.42,3.9,5.38,7,6.16s6.27.72,9.52,1c0,2.26,0,4.66,0,7a1.38,1.38,0,0,1-.74,1,112,112,0,0,1-18.35,6.72c-2.34.61-4.69,1.18-7.07,1.77a11.13,11.13,0,0,0,4.41,5.87,16.9,16.9,0,0,0,7.33,2.37c1.73.14,3.46.23,5.19.33V200H57.89v4.48H195.43V200h-15.9ZM163,145a32.77,32.77,0,0,0,5,2.09c-.74.05-1.14.09-1.52.09-6,0-12,0-18.06,0a4.73,4.73,0,0,1-2.17-.66,47.51,47.51,0,0,1-5.56-3.88c3.74,0,7.48.14,11.2,0C155.84,142.4,159.51,142.87,163,145Zm2.55,6.89v5.61l-10.16-5.4a1.71,1.71,0,0,1,.07-.21Zm-27.3-14v-4.35h6.71v4.35Zm11.53,0v-4.38h6.56V138Zm-6-29.84c5.57,1.37,11.15,2.76,16.7,4.14v.25a17.92,17.92,0,0,1-2.26.29c-2.28,0-4.54,0-6.8,0a2.32,2.32,0,0,1-1.2-.21c-2.2-1.33-4.37-2.7-6.57-4.07ZM115.31,89.94H138v4.42h-22.7Zm27.31,9.15v4.24c-5,1.55-8.51-.88-11.87-4.24Zm-31.95,0h12.16c-2,1.52-3.82,2.85-5.6,4.18a1.14,1.14,0,0,1-.61.28c-2,0-3.93,0-6,0ZM93.94,112.67a8.52,8.52,0,0,1-1.35-.34l17-4.24c.06.12.12.25.17.38a30.44,30.44,0,0,0-3,1.94,11,11,0,0,1-8.49,2.43C96.81,112.67,95.38,112.75,93.94,112.67Zm-7.62,16.15a10.17,10.17,0,0,1-5.3-1c17.12-5.49,31.67-15.1,45.65-25.8,14,10.7,28.49,20.33,45.49,26a24.53,24.53,0,0,1-2.68.7,17.06,17.06,0,0,1-2.49.1Zm47.15,4.73V138c-2-1.5-3.8-2.85-5.87-4.42Zm-7.73,0L119.87,138v-4.44Zm-10.62,0v4.31h-6.69v-4.31Zm-11.57,0v4.36H97v-4.36ZM87,146.52a22.38,22.38,0,0,0,4-1.75c3-1.9,6.27-2.3,9.78-2.16,4,.17,7.94,0,11.91,0,0,.08.06.16.11.25q-3.15,2.06-6.28,4.05a2,2,0,0,1-1,.26H86.11a2.93,2.93,0,0,1-.55-.15Zm11,5.6c-3.34,1.77-6.68,3.57-10.23,5.47v-5.68H97.89A.85.85,0,0,0,98,152.12ZM72.65,172.39c-2.38,0-4.75-.36-7.11-.55a5.43,5.43,0,0,1,0-.57c22.57-6.61,42.23-18.71,61.09-32.48,18.8,13.71,38.48,25.85,61.14,32.82-1.39.25-2.79.55-4.18.74a28.24,28.24,0,0,1-2.92.08Q126.69,172.43,72.65,172.39ZM161,190.66H158v0H92.31V177.14h25v0h2.39v9h13.83v-9h2.13v0H161Z"/><path class="cls-4" d="M126.65,138.79c-18.86,13.77-38.52,25.87-61.09,32.48a5.43,5.43,0,0,0,0,.57c2.36.19,4.73.55,7.11.55q54,.06,108,0a28.24,28.24,0,0,0,2.92-.08c1.39-.19,2.79-.49,4.18-.74C165.13,164.64,145.45,152.5,126.65,138.79Zm36.62,29H90v-4.5a7.85,7.85,0,0,1,1.25-.08c2.79.31,5.26-.66,7.69-1.84,9.35-4.58,18-10.37,26.52-16.2a1.77,1.77,0,0,1,2.41,0c8.34,5.68,16.7,11.3,25.76,15.82,3,1.52,6,2.79,9.63,2.07Z"/><rect class="cls-5" x="92.34" y="190.68" width="6.8" height="0.02"/><path class="cls-4" d="M126.67,102.05c-14,10.7-28.53,20.31-45.65,25.8a10.17,10.17,0,0,0,5.3,1H167a17.06,17.06,0,0,0,2.49-.1,24.53,24.53,0,0,0,2.68-.7C155.16,122.38,140.65,112.75,126.67,102.05Zm27.48,24.43H99.2v-4.37c3-.13,5.41-1.73,7.73-3.28,6.25-4.11,12.39-8.42,18.58-12.65.38-.25.74-.52,1.1-.78,4,2.83,7.94,5.71,12,8.41,3.38,2.26,6.85,4.43,10.35,6.48a45.72,45.72,0,0,0,5.22,2.24Z"/><path class="cls-4" d="M161,195.56v4.32H92.32v-4.32Z"/><path class="cls-4" d="M165.76,177.17h9V190.7h-9Z"/><path class="cls-4" d="M78.6,190.7V177.17h9V190.7Z"/><path class="cls-4" d="M115.32,94.35V89.94H138v4.41Z"/><path class="cls-4" d="M112.73,142.92c-2.09,1.35-4.17,2.72-6.27,4a2,2,0,0,1-1,.25H86.11a2.94,2.94,0,0,1-.56-.13,38,38,0,0,0,5.38-2.31,16.34,16.34,0,0,1,9.78-2.16c4,.17,8,0,11.93,0Z"/><path class="cls-4" d="M168,147.13c-.74,0-1.13.09-1.52.09-6,0-12,0-18,0a4.43,4.43,0,0,1-2.17-.65,43.83,43.83,0,0,1-5.56-3.89c3.73,0,7.46.15,11.18,0,4-.21,7.66.26,11.11,2.43A33.65,33.65,0,0,0,168,147.13Z"/><path class="cls-4" d="M130.76,99.08h11.86v4.25C137.66,104.87,134.11,102.45,130.76,99.08Z"/><path class="cls-4" d="M122.83,99.12c-2,1.54-3.82,2.87-5.59,4.18a1.21,1.21,0,0,1-.61.3c-2,0-3.94,0-6,0V99.12Z"/><path class="cls-4" d="M87.53,199.9h-8.9v-4.36h8.9Z"/><path class="cls-4" d="M174.75,195.54V200h-6.36c-2.71,0-2.71,0-2.71-2.69v-1.74Z"/><path class="cls-5" d="M87.77,157.58v-5.67H97.88l.11.2Z"/><path class="cls-5" d="M165.52,157.55l-10.15-5.42.06-.21h10.09Z"/><path class="cls-5" d="M115.13,133.58v4.31h-6.7v-4.31Z"/><path class="cls-5" d="M144.94,133.56v4.35h-6.71v-4.35Z"/><path class="cls-5" d="M160.47,112.51a22.2,22.2,0,0,1-2.28.29c-2.26,0-4.53,0-6.79,0a2.4,2.4,0,0,1-1.2-.21c-2.2-1.33-4.38-2.72-6.56-4.08l.12-.4,16.71,4.13Z"/><path class="cls-5" d="M92.58,112.32l17-4.23.17.37a33.22,33.22,0,0,0-3,2,10.9,10.9,0,0,1-8.49,2.42c-1.41-.17-2.85-.08-4.28-.16A8.26,8.26,0,0,1,92.58,112.32Z"/><path class="cls-5" d="M103.55,137.93H97v-4.36h6.58Z"/><path class="cls-5" d="M156.33,138h-6.57v-4.37h6.57Z"/><path class="cls-5" d="M124.52,177.14h4.29v4.35h-4.29Z"/><path class="cls-5" d="M127.6,133.55h5.87V138Z"/><path class="cls-5" d="M119.86,133.54h5.89L119.86,138Z"/><path d="M153.64,161c-9.06-4.52-17.42-10.14-25.76-15.82a1.77,1.77,0,0,0-2.41,0C116.9,151,108.3,156.83,99,161.41c-2.43,1.18-4.9,2.15-7.69,1.84a7.85,7.85,0,0,0-1.25.08v4.5h73.26V163.1C159.68,163.82,156.66,162.55,153.64,161Zm-15.5,2.09v-4.31h-4.58v4.35H129v-4.37h-4.54v4.33h-4.65v-4.33h-4.56v4.33H106l.76-.59c6.27-3.93,12.56-7.82,18.79-11.79a1.73,1.73,0,0,1,2.2,0c6.29,4,12.61,7.92,18.92,11.87l.8.53Z"/><path d="M148.93,120.29c-3.5-2.05-7-4.22-10.35-6.48-4-2.7-7.94-5.58-12-8.41-.36.26-.72.53-1.1.78-6.19,4.23-12.33,8.54-18.58,12.65-2.32,1.55-4.71,3.15-7.73,3.28v4.37h55v-4A45.72,45.72,0,0,1,148.93,120.29Zm-15.25,1.63c-.06-.74-.12-1.42-.19-2.18H129c-.07.74-.13,1.42-.19,2.18h-4.35c0-.72-.09-1.35-.13-2.14h-4.52c-.06.72-.13,1.4-.19,2.14h-8.51c.32-.3.47-.47.63-.59,3.95-2.66,7.88-5.35,11.83-8a5.08,5.08,0,0,1,.85-.38h0l0,0c.27-.23.53-.49.8-.72a0,0,0,0,1,0,0,3.53,3.53,0,0,1,.89-.63,1.86,1.86,0,0,1,1.37.27,12.06,12.06,0,0,1,1.27,1.1l0,0h0a4.52,4.52,0,0,1,.83.4q5.85,4,11.72,7.94c.19.15.38.34.76.66Z"/><path class="cls-5" d="M147.47,163.12l-.8-.53c-6.31-4-12.63-7.88-18.92-11.87a1.73,1.73,0,0,0-2.2,0c-6.23,4-12.52,7.86-18.79,11.79l-.76.59h9.25v-4.33h4.56v4.33h4.65v-4.33H129v4.37h4.56v-4.35h4.58v4.31Zm-18.6-6.76h-4.39v-4.5h4.39Z"/><path class="cls-5" d="M128.88,112.93a5.59,5.59,0,0,1,.86.38l11.71,8a9.2,9.2,0,0,1,.76.64h-8.53l-.18-2.17H129l-.18,2.17h-4.35l-.12-2.12h-4.54l-.17,2.12h-8.51a7,7,0,0,1,.63-.57q5.91-4,11.82-8a6.18,6.18,0,0,1,.87-.38l0-.05v4.4h4.48v-4.4Z"/><path class="cls-5" d="M124.46,112.93a9.45,9.45,0,0,1,1.75-1.43c.33-.17,1,.06,1.37.29a8.17,8.17,0,0,1,1.3,1.14l0-.05h-4.48Z"/><polygon points="111.14 121.91 126.45 111.62 142.21 121.91 142.54 119.86 133.35 112.82 126.22 108.43 112.8 118.37 110.36 121.56 111.14 121.91"/><path class="cls-6" d="M45.24,27.68H58.61v1.24H45.24Zm5.25,21.89v-19H45.24V29.32h6.49V49.57Zm2.88,0H52.13V29.32h6.48v1.23H53.37Z"/><path class="cls-6" d="M63,49.57H61.78V27.68H63V49.57ZM64.66,35.4a6.11,6.11,0,0,1,1.73-.82,6.83,6.83,0,0,1,1.91-.27,6.25,6.25,0,0,1,2.5.51,6.87,6.87,0,0,1,2.08,1.38,6.43,6.43,0,0,1,1.4,2.06,6.32,6.32,0,0,1,.51,2.53v8.78H73.55V40.79a5,5,0,0,0-.42-2A5.66,5.66,0,0,0,72,37.08a5.2,5.2,0,0,0-1.66-1.15,5.21,5.21,0,0,0-5,.49,5.92,5.92,0,0,0-1.93,2.29v-11h1.24Zm8.49,14.17H71.91V40.79a3.45,3.45,0,0,0-.29-1.38,4,4,0,0,0-.78-1.15,3.77,3.77,0,0,0-1.15-.78,3.31,3.31,0,0,0-1.39-.3,3.48,3.48,0,0,0-2.53,1,3.75,3.75,0,0,0-1.11,2.56v8.81H63.42V40.76a5.26,5.26,0,0,1,.42-1.86,4.82,4.82,0,0,1,1-1.53,4.88,4.88,0,0,1,1.53-1A4.56,4.56,0,0,1,68.3,36a4.65,4.65,0,0,1,1.88.38,4.86,4.86,0,0,1,1.55,1,5,5,0,0,1,1,1.53,4.73,4.73,0,0,1,.38,1.89Z"/><path class="cls-6" d="M80.36,43.52A5,5,0,0,0,82.15,46a4.89,4.89,0,0,0,5.19.38,5.29,5.29,0,0,0,1.76-1.54l1,.69A6.47,6.47,0,0,1,88,47.46a5.93,5.93,0,0,1-2.94.73,5.75,5.75,0,0,1-2.33-.48,6.25,6.25,0,0,1-1.91-1.27,6.47,6.47,0,0,1-1.33-1.88,5.71,5.71,0,0,1-.55-2.28H91.58v-.21a6.4,6.4,0,0,0-.51-2.54,6.49,6.49,0,0,0-3.5-3.48,6.44,6.44,0,0,0-2.55-.5,6.53,6.53,0,0,0-6,4,6.59,6.59,0,0,0,0,5.13,6.56,6.56,0,0,0,3.5,3.45,6.4,6.4,0,0,0,2.49.5,6.51,6.51,0,0,0,5.43-2.87l1,.69A7.81,7.81,0,0,1,85,49.86a7.11,7.11,0,0,1-3-.62,8.14,8.14,0,0,1-2.48-1.67,7.94,7.94,0,0,1-1.7-2.48,7.52,7.52,0,0,1-.62-3,7.78,7.78,0,0,1,.59-3,7.61,7.61,0,0,1,1.67-2.51h0A7.67,7.67,0,0,1,85,34.31a7.4,7.4,0,0,1,3,.62,7.8,7.8,0,0,1,4.15,4.15,7.45,7.45,0,0,1,.62,3v1.45ZM78.9,41.85a5.79,5.79,0,0,1,.55-2.28,6.28,6.28,0,0,1,3.24-3.15A5.74,5.74,0,0,1,85,36a6,6,0,0,1,2.39.47,6.29,6.29,0,0,1,1.93,1.27,5.84,5.84,0,0,1,1.29,1.88,5.92,5.92,0,0,1,.51,2.28Zm10.82-1.24a5,5,0,0,0-1.78-2.48,4.77,4.77,0,0,0-2.92-1A4.7,4.7,0,0,0,81.6,38.6h0a5.58,5.58,0,0,0-1.2,2Z"/><path class="cls-6" d="M125.24,44.22a11.34,11.34,0,0,1-1.82,2.36,11.75,11.75,0,0,1-2.33,1.83,11,11,0,0,1-2.73,1.16,11.11,11.11,0,0,1-3,.4,10.72,10.72,0,0,1-4.35-.89,11.56,11.56,0,0,1-3.61-2.44A11.91,11.91,0,0,1,105,43,10.77,10.77,0,0,1,104,38.6a10.92,10.92,0,0,1,.89-4.35,11.63,11.63,0,0,1,6-6.06,10.69,10.69,0,0,1,4.39-.91,11,11,0,0,1,5.48,1.42,11.33,11.33,0,0,1,4.1,3.86l-1,.65a10.41,10.41,0,0,0-3.71-3.46,10,10,0,0,0-4.85-1.23,9.65,9.65,0,0,0-3.92.8,10.15,10.15,0,0,0-3.2,2.18,10.58,10.58,0,0,0-2.17,3.21,9.6,9.6,0,0,0-.8,3.89,9.75,9.75,0,0,0,.8,3.92,10.26,10.26,0,0,0,2.19,3.23,10.38,10.38,0,0,0,3.2,2.18,9.52,9.52,0,0,0,3.9.8,10,10,0,0,0,2.6-.34,10,10,0,0,0,4.56-2.62,9.82,9.82,0,0,0,1.62-2.17Zm-2.73-10.13a8.45,8.45,0,0,0-3.1-2.9,8.3,8.3,0,0,0-4-1,8.19,8.19,0,0,0-3.3.68,8.41,8.41,0,0,0-2.69,1.84,8.55,8.55,0,0,0-1.81,2.69,8.26,8.26,0,0,0-.65,3.24,8.15,8.15,0,0,0,.67,3.3,8.86,8.86,0,0,0,1.82,2.7,8.63,8.63,0,0,0,2.7,1.8,8.22,8.22,0,0,0,3.26.66,8.44,8.44,0,0,0,4.24-1.13,8,8,0,0,0,3.12-3.14l1.06.63a8.75,8.75,0,0,1-1.55,2,9.78,9.78,0,0,1-2,1.53,10,10,0,0,1-2.34,1,9.32,9.32,0,0,1-6.24-.42,9.91,9.91,0,0,1-5.2-5.2,9.58,9.58,0,0,1,0-7.48,9.74,9.74,0,0,1,5.16-5.17,9.37,9.37,0,0,1,3.77-.76A9.16,9.16,0,0,1,120,30.08a11.11,11.11,0,0,1,3.61,3.35Z"/><path class="cls-6" d="M129.5,27.5a1.74,1.74,0,0,1,1.26.51,1.74,1.74,0,0,1,0,2.5,1.71,1.71,0,0,1-1.26.52,1.65,1.65,0,0,1-1.23-.52,1.79,1.79,0,0,1,0-2.5A1.68,1.68,0,0,1,129.5,27.5Zm-1.42,22.07v-15h1.24v15Zm1.42-21.13a.7.7,0,0,0-.54.24.78.78,0,0,0-.22.56.8.8,0,0,0,.22.57.69.69,0,0,0,.54.23.77.77,0,0,0,.57-.23.78.78,0,0,0,.24-.57.76.76,0,0,0-.24-.56A.78.78,0,0,0,129.5,28.44Zm0,.44c.27,0,.41.12.41.36s-.14.37-.41.37a.37.37,0,0,1,0-.73Zm.22,5.68H131v15h-1.24Z"/><path class="cls-6" d="M134.89,27.68h1.24V35.8H133.4V34.56h1.49Zm1.24,8.52v7.58a4.55,4.55,0,0,0,.37,1.84,4.79,4.79,0,0,0,1,1.51A5.07,5.07,0,0,0,139,48.19a4.55,4.55,0,0,0,1.82.43h.25v1.24a5.72,5.72,0,0,1-2.35-.49,6.65,6.65,0,0,1-2-1.35,6.27,6.27,0,0,1-1.34-2,5.73,5.73,0,0,1-.5-2.35V37.44H133.4V36.2Zm.44-.4V27.68h1.24v6.88h2.48V35.8Zm4.26,12.39a4.64,4.64,0,0,1-1.65-.39,4.24,4.24,0,0,1-1.37-.94,4.35,4.35,0,0,1-.91-1.39,4.28,4.28,0,0,1-.33-1.69V36.2h3.72v1.24h-2.48v6.27A3.24,3.24,0,0,0,141.05,47v1.24Z"/><path class="cls-6" d="M155.55,48.11a7.55,7.55,0,0,1-4.92,1.75,7.19,7.19,0,0,1-3-.62,8.22,8.22,0,0,1-2.47-1.67,7.94,7.94,0,0,1-1.7-2.48,7.74,7.74,0,0,1,0-6.07,7.92,7.92,0,0,1,1.7-2.45,7.84,7.84,0,0,1,2.47-1.66,7.51,7.51,0,0,1,3-.6A7.6,7.6,0,0,1,155.55,36V34.56h1.24v5.21a7,7,0,0,0-1.49-2.31h0a6.74,6.74,0,0,0-2.06-1.39,6.25,6.25,0,0,0-2.57-.52,6.49,6.49,0,0,0-2.53.5,6.6,6.6,0,0,0-3.48,3.49,6.59,6.59,0,0,0,0,5.13,6.56,6.56,0,0,0,3.5,3.45,6.59,6.59,0,0,0,5.06,0,6.17,6.17,0,0,0,2.06-1.42h0a7,7,0,0,0,1.49-2.33v5.21h-1.24Zm-9.22-1.71A6.4,6.4,0,0,1,145,44.45a5.77,5.77,0,0,1-.5-2.38,5.85,5.85,0,0,1,.48-2.35,6.1,6.1,0,0,1,3.24-3.28,6.2,6.2,0,0,1,4.83,0,6.22,6.22,0,0,1,3.26,3.28,6.11,6.11,0,0,1,0,4.7A6.21,6.21,0,0,1,155,46.36a6.09,6.09,0,0,1-1.95,1.33,5.93,5.93,0,0,1-2.43.5,5.76,5.76,0,0,1-2.36-.48A6.1,6.1,0,0,1,146.33,46.4Zm.88-.87A4.7,4.7,0,0,0,150.63,47a4.94,4.94,0,0,0,1.92-.38,5.07,5.07,0,0,0,1.56-1.06,5,5,0,0,0,1.06-1.57,4.77,4.77,0,0,0,.38-1.87,4.82,4.82,0,0,0-.38-1.88,5.12,5.12,0,0,0-1.06-1.57,5,5,0,0,0-1.56-1,4.78,4.78,0,0,0-1.92-.39,4.61,4.61,0,0,0-1.87.39,5,5,0,0,0-1.57,1,5.12,5.12,0,0,0-1.06,1.57,4.82,4.82,0,0,0-.38,1.88,4.76,4.76,0,0,0,.37,1.87A4.39,4.39,0,0,0,147.21,45.53Zm10-11h1.24v15h-1.24Z"/><path class="cls-6" d="M173.84,48.11A7.5,7.5,0,0,1,169,49.86a7.28,7.28,0,0,1-3-.62,8.16,8.16,0,0,1-4.17-4.17,7.36,7.36,0,0,1-.62-3,7.44,7.44,0,0,1,.62-3,7.95,7.95,0,0,1,4.15-4.13,7.4,7.4,0,0,1,3-.62A7.55,7.55,0,0,1,173.84,36l0-8.34h1.23V39.77a6.32,6.32,0,0,0-2.36-3,6.46,6.46,0,0,0-1.78-.89,6.73,6.73,0,0,0-2-.3,6.28,6.28,0,0,0-2.57.52,6.86,6.86,0,0,0-2.08,1.42,6.45,6.45,0,0,0-1.41,2.07,6.32,6.32,0,0,0-.51,2.53,6.39,6.39,0,0,0,.51,2.56,6.82,6.82,0,0,0,1.4,2.07,6.72,6.72,0,0,0,2.1,1.4,6.62,6.62,0,0,0,2.55.5,6.51,6.51,0,0,0,6.12-4.26v5.21h-1.24Zm-4.88.08a6.14,6.14,0,0,1-2.41-.48,5.83,5.83,0,0,1-2-1.31,6.5,6.5,0,0,1-1.29-1.95,6.09,6.09,0,0,1-.47-2.38,6.18,6.18,0,0,1,.45-2.35,6.11,6.11,0,0,1,1.28-1.95A6.1,6.1,0,0,1,169,36a5.76,5.76,0,0,1,2.38.49,6.55,6.55,0,0,1,1.95,1.31,5.83,5.83,0,0,1,1.31,2A6.11,6.11,0,0,1,169,48.19ZM169,47a4.81,4.81,0,0,0,1.87-.38,5.39,5.39,0,0,0,1.56-1A5.05,5.05,0,0,0,173.46,44a4.9,4.9,0,0,0,.38-1.91,4.62,4.62,0,0,0-.4-1.92,5.43,5.43,0,0,0-1.05-1.55,5,5,0,0,0-1.54-1,4.64,4.64,0,0,0-1.87-.39,4.58,4.58,0,0,0-1.87.39,4.82,4.82,0,0,0-1.56,1,5.15,5.15,0,0,0-1.07,1.57,4.5,4.5,0,0,0-.4,1.88,4.57,4.57,0,0,0,.4,1.91,4.94,4.94,0,0,0,1.07,1.55,5.13,5.13,0,0,0,1.56,1A4.74,4.74,0,0,0,169,47Zm6.54-4.88V27.68h1.23V49.57h-1.27Z"/><path class="cls-6" d="M182.47,43.52A5,5,0,0,0,184.26,46a4.89,4.89,0,0,0,5.19.38,5.42,5.42,0,0,0,1.77-1.54l1,.69a6.47,6.47,0,0,1-2.13,1.93,5.92,5.92,0,0,1-2.93.73,5.68,5.68,0,0,1-2.33-.48,6.3,6.3,0,0,1-1.92-1.27,6.66,6.66,0,0,1-1.33-1.88,5.53,5.53,0,0,1-.54-2.28h12.67v-.21a6.51,6.51,0,0,0-1.91-4.62,6.56,6.56,0,0,0-2.09-1.4,6.73,6.73,0,0,0-5.09,0,6.58,6.58,0,0,0-2.07,1.4,6.51,6.51,0,0,0-1.4,2.09,6.28,6.28,0,0,0-.51,2.55,6.4,6.4,0,0,0,.52,2.58,7,7,0,0,0,1.42,2.07,6.87,6.87,0,0,0,2.08,1.38,6.41,6.41,0,0,0,2.5.5,6.31,6.31,0,0,0,3.15-.8,6.23,6.23,0,0,0,2.27-2.07l1,.69a7.81,7.81,0,0,1-6.44,3.42,7.12,7.12,0,0,1-3-.62,8.27,8.27,0,0,1-2.48-1.67A7.74,7.74,0,0,1,180,45.09a7.36,7.36,0,0,1-.62-3,7.77,7.77,0,0,1,.58-3,7.48,7.48,0,0,1,1.68-2.51h0a7.71,7.71,0,0,1,5.47-2.26,7.39,7.39,0,0,1,3,.62,7.8,7.8,0,0,1,4.15,4.15,7.28,7.28,0,0,1,.62,3v1.45ZM181,41.85a5.61,5.61,0,0,1,.54-2.28,6.66,6.66,0,0,1,1.33-1.88,6.49,6.49,0,0,1,1.92-1.27,5.68,5.68,0,0,1,2.33-.47,5.91,5.91,0,0,1,2.38.47,6.29,6.29,0,0,1,1.93,1.27,6,6,0,0,1,1.3,1.88,6.31,6.31,0,0,1,.51,2.28Zm10.82-1.24a5,5,0,0,0-1.79-2.48,4.76,4.76,0,0,0-2.91-1,4.7,4.7,0,0,0-3.43,1.42h0a5.46,5.46,0,0,0-1.21,2Z"/><path class="cls-6" d="M197.66,27.68h1.24V49.57h-1.24Zm2.88,0V49.57H199.3V27.68Z"/><path class="cls-6" d="M37,237.16v-19H34.21l.29-1.24h3.72v20.26Zm2.88-21.9v21.9H38.62V216.5h-4l.33-1.24Z"/><path class="cls-6" d="M44.88,234a1.69,1.69,0,0,1,1.26.53,1.72,1.72,0,0,1,.53,1.25v1a2.38,2.38,0,0,1-.75,1.78,2.48,2.48,0,0,1-1.8.73v-1.06a1.44,1.44,0,0,0,1.07-.42,1.38,1.38,0,0,0,.42-1v-1a.75.75,0,0,0-.73-.73.68.68,0,0,0-.49.22.76.76,0,0,0-.2.51.66.66,0,0,0,.2.49.66.66,0,0,0,.49.2.44.44,0,0,0,.3-.07v.37a1.08,1.08,0,0,1-.28.74,1,1,0,0,1-.78.31v-.47a1.82,1.82,0,0,1-.71-.64,1.77,1.77,0,0,1,.24-2.18A1.61,1.61,0,0,1,44.88,234Zm0,1.38a.35.35,0,0,1,.4.4c0,.25-.13.37-.4.37a.32.32,0,0,1-.36-.37C44.52,235.51,44.64,235.37,44.88,235.37Z"/><path class="cls-6" d="M57.41,222.84l.44-.06h.48a7,7,0,0,1,2.82.58A7.59,7.59,0,0,1,63.5,225a7.71,7.71,0,0,1,1.6,2.35,7.34,7.34,0,0,1,0,5.72,7.48,7.48,0,0,1-3.93,3.92,7.07,7.07,0,0,1-2.84.58,7,7,0,0,1-2.86-.58,7.87,7.87,0,0,1-2.35-1.57,7.16,7.16,0,0,1-2.19-5.21,7.17,7.17,0,0,1,1.2-4l6.34-10.86h1.42l-6.66,11.42a5.81,5.81,0,0,0-.79,1.62,6.3,6.3,0,0,0-.27,1.84,6.12,6.12,0,0,0,.47,2.38A6.21,6.21,0,0,0,54,234.46a6.4,6.4,0,0,0,2,1.33,5.94,5.94,0,0,0,2.41.49,5.76,5.76,0,0,0,2.38-.49,6.4,6.4,0,0,0,1.95-1.32A6,6,0,0,0,64,232.52a6.12,6.12,0,0,0,0-4.75,6,6,0,0,0-1.31-2,6.4,6.4,0,0,0-1.95-1.32,6.1,6.1,0,0,0-6.17.82l5.86-10.06h1.42Zm.92,13a5.53,5.53,0,0,1-2.24-.45,6.23,6.23,0,0,1-1.83-1.22A5.58,5.58,0,0,1,53,232.4a5.68,5.68,0,0,1,0-4.48,5.65,5.65,0,0,1,1.23-1.8,6,6,0,0,1,1.83-1.22,5.59,5.59,0,0,1,4.44,0,6,6,0,0,1,1.82,1.22,5.67,5.67,0,0,1,1.24,1.8,5.67,5.67,0,0,1-1.24,6.29,6.18,6.18,0,0,1-1.82,1.22A5.48,5.48,0,0,1,58.33,235.88Zm0-10.2a4.38,4.38,0,0,0-1.73.35,4.54,4.54,0,0,0-1.44.94,4.71,4.71,0,0,0-1,1.42,4.38,4.38,0,0,0-.36,1.77,4.22,4.22,0,0,0,.36,1.75,4.71,4.71,0,0,0,1,1.42,4.46,4.46,0,0,0,1.44,1,4.38,4.38,0,0,0,1.73.34A4.31,4.31,0,0,0,60,234.3a4.6,4.6,0,0,0,1.42-1,4.68,4.68,0,0,0,1-1.42,4.22,4.22,0,0,0,.37-1.75,4.38,4.38,0,0,0-.37-1.77A4.51,4.51,0,0,0,60,226,4.32,4.32,0,0,0,58.33,225.68Z"/><path class="cls-6" d="M69.4,221.75A12.47,12.47,0,0,1,70.57,219a8.92,8.92,0,0,1,1.75-2.18,7.47,7.47,0,0,1,2.33-1.46,7.73,7.73,0,0,1,2.91-.53,7.32,7.32,0,0,1,3.84,1,8.81,8.81,0,0,1,2.77,2.56A11.86,11.86,0,0,1,85.85,222a15.73,15.73,0,0,1,.56,4.15,15.91,15.91,0,0,1-.56,4.19A11.86,11.86,0,0,1,84.17,234a8.77,8.77,0,0,1-2.77,2.55,8.16,8.16,0,0,1-7.68,0A8.6,8.6,0,0,1,71,234a12.06,12.06,0,0,1-1.66-3.63,15.51,15.51,0,0,1-.57-4.19A15,15,0,0,1,69.4,221.75Zm1.17.35a13.73,13.73,0,0,0-.44,2,14.21,14.21,0,0,0-.15,2.07,14.41,14.41,0,0,0,.48,3.68,11,11,0,0,0,1.4,3.25,7.3,7.3,0,0,0,2.35,2.31,6.88,6.88,0,0,0,6.7,0,7.46,7.46,0,0,0,2.37-2.31,10.73,10.73,0,0,0,1.42-3.25,14.4,14.4,0,0,0,.47-3.68,14.11,14.11,0,0,0-.47-3.65,10.78,10.78,0,0,0-1.42-3.24A7.46,7.46,0,0,0,80.91,217a6.26,6.26,0,0,0-3.35-.87,6.39,6.39,0,0,0-2.49.47,6.79,6.79,0,0,0-2,1.28,7.77,7.77,0,0,0-1.51,1.91A10.31,10.31,0,0,0,70.57,222.1Zm7-5.6a5.72,5.72,0,0,1,3.21.88A7.54,7.54,0,0,1,83,219.63a10.11,10.11,0,0,1,1.31,3.12,14.3,14.3,0,0,1,0,6.88,10.36,10.36,0,0,1-1.29,3.12A7.51,7.51,0,0,1,80.83,235a5.86,5.86,0,0,1-3.25.87,5.73,5.73,0,0,1-3.21-.89,7.64,7.64,0,0,1-2.25-2.28,10,10,0,0,1-1.32-3.11,14.46,14.46,0,0,1-.42-3.41,14.05,14.05,0,0,1,.44-3.44,10.41,10.41,0,0,1,1.34-3.12,7.4,7.4,0,0,1,2.24-2.25A5.67,5.67,0,0,1,77.58,216.5Zm0,1.24a4.53,4.53,0,0,0-2.71.8,6.68,6.68,0,0,0-1.84,2A9.29,9.29,0,0,0,72,223.31a13.4,13.4,0,0,0-.33,2.88,13.64,13.64,0,0,0,.33,2.93A9,9,0,0,0,73,231.86a6.42,6.42,0,0,0,1.84,2,5.08,5.08,0,0,0,5.44,0,6.55,6.55,0,0,0,1.86-2,9,9,0,0,0,1.06-2.71,13.55,13.55,0,0,0,.33-2.92,13.19,13.19,0,0,0-.33-2.84,9.41,9.41,0,0,0-1.06-2.75,6.47,6.47,0,0,0-1.86-2.06A4.61,4.61,0,0,0,77.56,217.74Z"/><path class="cls-6" d="M89.55,221.75A13,13,0,0,1,90.71,219a9.16,9.16,0,0,1,1.75-2.18,7.71,7.71,0,0,1,2.33-1.46,7.82,7.82,0,0,1,2.92-.53,7.37,7.37,0,0,1,3.84,1,8.91,8.91,0,0,1,2.77,2.56A11.61,11.61,0,0,1,106,222a15.33,15.33,0,0,1,.57,4.15,15.51,15.51,0,0,1-.57,4.19,11.61,11.61,0,0,1-1.67,3.63,8.88,8.88,0,0,1-2.77,2.55,8.18,8.18,0,0,1-7.69,0A8.71,8.71,0,0,1,91.11,234a12.06,12.06,0,0,1-1.66-3.63,15.91,15.91,0,0,1-.56-4.19A15,15,0,0,1,89.55,221.75Zm1.16.35a15.18,15.18,0,0,0-.44,2,15.76,15.76,0,0,0-.14,2.07,14.86,14.86,0,0,0,.47,3.68A11.23,11.23,0,0,0,92,233.1a7.27,7.27,0,0,0,2.34,2.31,6.9,6.9,0,0,0,6.71,0,7.56,7.56,0,0,0,2.37-2.31,11,11,0,0,0,1.42-3.25,14.86,14.86,0,0,0,.47-3.68,14.56,14.56,0,0,0-.47-3.65,11,11,0,0,0-1.42-3.24,7.56,7.56,0,0,0-2.37-2.31,6.31,6.31,0,0,0-3.35-.87,6.4,6.4,0,0,0-2.5.47,6.87,6.87,0,0,0-2,1.28,7.8,7.8,0,0,0-1.52,1.91A10.78,10.78,0,0,0,90.71,222.1Zm7-5.6a5.73,5.73,0,0,1,3.22.88,7.4,7.4,0,0,1,2.24,2.25,10.12,10.12,0,0,1,1.32,3.12,14.3,14.3,0,0,1,0,6.88,10.13,10.13,0,0,1-1.3,3.12A7.29,7.29,0,0,1,101,235a5.86,5.86,0,0,1-3.25.87,5.73,5.73,0,0,1-3.21-.89,7.76,7.76,0,0,1-2.25-2.28A10.19,10.19,0,0,1,91,229.6a14.46,14.46,0,0,1-.42-3.41,14.05,14.05,0,0,1,.44-3.44,10.39,10.39,0,0,1,1.33-3.12,7.54,7.54,0,0,1,2.25-2.25A5.65,5.65,0,0,1,97.72,216.5Zm0,1.24a4.56,4.56,0,0,0-2.72.8,6.81,6.81,0,0,0-1.84,2,9.27,9.27,0,0,0-1.05,2.73,13.4,13.4,0,0,0-.33,2.88,13.64,13.64,0,0,0,.33,2.93,9,9,0,0,0,1.05,2.74,6.54,6.54,0,0,0,1.84,2,4.62,4.62,0,0,0,2.72.78,4.56,4.56,0,0,0,2.73-.8,6.67,6.67,0,0,0,1.86-2,9.21,9.21,0,0,0,1-2.71,13.55,13.55,0,0,0,.33-2.92,13.19,13.19,0,0,0-.33-2.84,9.68,9.68,0,0,0-1-2.75,6.59,6.59,0,0,0-1.86-2.06A4.63,4.63,0,0,0,97.71,217.74Z"/><path class="cls-6" d="M124.55,240h-1.23v-2.58a7.33,7.33,0,0,1-2.92-1.22,6.58,6.58,0,0,1-2-2.32l1.09-.58a5.61,5.61,0,0,0,5,3h.1Zm-3.64-7.5a3.59,3.59,0,0,0,1,1.22,5.54,5.54,0,0,0,1.41.75v-8.6a16,16,0,0,1-1.64-.93,6.06,6.06,0,0,1-1.32-1.13,4.65,4.65,0,0,1-.85-1.47,5.62,5.62,0,0,1-.31-2,5.31,5.31,0,0,1,1.15-3.37,5.56,5.56,0,0,1,3-2v-2.69h1.23v3.75a4.12,4.12,0,0,0-1.58.38,4.52,4.52,0,0,0-1.31.91,4,4,0,0,0-.89,1.35,4.24,4.24,0,0,0-.33,1.66,4.08,4.08,0,0,0,.34,1.75,4.46,4.46,0,0,0,.91,1.27,5.86,5.86,0,0,0,1.32,1c.49.27,1,.52,1.54.77v10.74h-.1a5.29,5.29,0,0,1-2.74-.74,5.06,5.06,0,0,1-1.89-2Zm3.64-7.87c-.48-.22-1-.45-1.4-.69a5.19,5.19,0,0,1-1.18-.86,3.85,3.85,0,0,1-.82-1.14,3.61,3.61,0,0,1-.31-1.57,3.84,3.84,0,0,1,.29-1.49,3.9,3.9,0,0,1,.8-1.23,3.78,3.78,0,0,1,1.19-.82,4,4,0,0,1,1.43-.32Zm-1.23-6.52a3.32,3.32,0,0,0-.9,1,2.39,2.39,0,0,0-.34,1.29,2.3,2.3,0,0,0,.34,1.31,3.7,3.7,0,0,0,.9.91Zm1.67-5.79h1.24v2.73a5.17,5.17,0,0,1,1.57.71,5.4,5.4,0,0,1,1.23,1.15l-.94.76a4.14,4.14,0,0,0-3.1-1.6ZM126.23,224a21.63,21.63,0,0,1,2,1.08,6.93,6.93,0,0,1,1.64,1.33,5.54,5.54,0,0,1,1.07,1.76,6.73,6.73,0,0,1,.39,2.43,6.91,6.91,0,0,1-.37,2.2,6.68,6.68,0,0,1-1.05,2,7.5,7.5,0,0,1-1.64,1.54,6.43,6.43,0,0,1-2.08,1V240H125v-3.75a5.49,5.49,0,0,0,2-.58,5.64,5.64,0,0,0,1.62-1.24,5.76,5.76,0,0,0,1.1-1.75,5.57,5.57,0,0,0,.4-2.07,5.15,5.15,0,0,0-.44-2.23,5,5,0,0,0-1.15-1.56,6.68,6.68,0,0,0-1.6-1.1c-.59-.29-1.2-.57-1.8-.83l-.15-.08v-8.3a3.76,3.76,0,0,1,2.77,1.42l-1,.76-.27-.27a2,2,0,0,0-.31-.24ZM125,225.32c.58.26,1.16.54,1.73.82a6.26,6.26,0,0,1,1.51,1,4.86,4.86,0,0,1,1.08,1.44,4.47,4.47,0,0,1,.42,2,4.93,4.93,0,0,1-.37,1.89,5.06,5.06,0,0,1-1,1.62,5.77,5.77,0,0,1-1.51,1.17,4.66,4.66,0,0,1-1.84.53Zm1.24,8.92a3.68,3.68,0,0,0,1.64-1.49,4.06,4.06,0,0,0,.62-2.11,3.15,3.15,0,0,0-.66-2.12,5.45,5.45,0,0,0-1.6-1.27Z"/><path class="cls-6" d="M134.1,215.26h6.45a10.49,10.49,0,0,1,4.2.86,11.16,11.16,0,0,1,5.87,5.81,10.7,10.7,0,0,1,0,8.5,11.24,11.24,0,0,1-5.87,5.85,10.3,10.3,0,0,1-4.22.88H134.1Zm1.24,1.24v19.42h5.21a9.42,9.42,0,0,0,3.77-.77,9.54,9.54,0,0,0,3.09-2.09,9.72,9.72,0,0,0,2.1-3.09,9.33,9.33,0,0,0,.76-3.76,9.18,9.18,0,0,0-.78-3.76,10.09,10.09,0,0,0-2.11-3.09,9.69,9.69,0,0,0-3.1-2.09,9.3,9.3,0,0,0-3.73-.77Zm.4.4h4.82a8.83,8.83,0,0,1,3.6.75,9.83,9.83,0,0,1,3,2,9.21,9.21,0,0,1,0,13.12,10,10,0,0,1-3,2,8.83,8.83,0,0,1-3.6.75h-4.82Zm1.24,1.24v16.14h3.57a7.66,7.66,0,0,0,3.11-.64,8,8,0,0,0,2.57-1.73,8.42,8.42,0,0,0,1.75-2.57,7.59,7.59,0,0,0,.65-3.15,7.47,7.47,0,0,0-.65-3.13,8.39,8.39,0,0,0-4.34-4.28,7.54,7.54,0,0,0-3.09-.64Z"/><path class="cls-6" d="M156.9,229.58v7.58h-1.24v-8.82H160a5.67,5.67,0,0,0,2.28-.47,6.3,6.3,0,0,0,1.88-1.27,6.16,6.16,0,0,0,1.27-1.89,5.63,5.63,0,0,0,.48-2.29,5.39,5.39,0,0,0-.48-2.23,6.16,6.16,0,0,0-1.27-1.89,6.23,6.23,0,0,0-1.88-1.31,5.37,5.37,0,0,0-2.28-.49h-4.7v20.66H154v-21.9H160a6.74,6.74,0,0,1,2.75.57,7,7,0,0,1,2.28,1.55,7.27,7.27,0,0,1,1.55,2.27,7,7,0,0,1,0,5.5,7.31,7.31,0,0,1-1.55,2.28,7.42,7.42,0,0,1-2.28,1.57,6.59,6.59,0,0,1-2.75.58Zm-1.24-12.68H160a5,5,0,0,1,2.14.46,5.75,5.75,0,0,1,1.74,1.2,5.59,5.59,0,0,1,1.19,1.75,5.32,5.32,0,0,1,0,4.19,5.59,5.59,0,0,1-1.19,1.75,6.13,6.13,0,0,1-1.74,1.2,5.17,5.17,0,0,1-2.14.45h-4.3Zm1.24,1.24v8.52H160a3.92,3.92,0,0,0,1.64-.34,4.86,4.86,0,0,0,1.35-.91,4.28,4.28,0,0,0,.93-1.35,4.05,4.05,0,0,0,.35-1.66,4,4,0,0,0-.35-1.64,4.35,4.35,0,0,0-.93-1.34,4.52,4.52,0,0,0-1.35-.93,3.92,3.92,0,0,0-1.64-.35Z"/><path class="cls-6" d="M172.35,218.18a11.65,11.65,0,0,1,3.68-2.46,11.08,11.08,0,0,1,4.33-.86,11,11,0,0,1,4.41.91,11.44,11.44,0,0,1,3.61,2.48,11.86,11.86,0,0,1,2.42,3.61,10.59,10.59,0,0,1,.89,4.33,10.8,10.8,0,0,1-.89,4.39,11.47,11.47,0,0,1-6.05,6,11.17,11.17,0,0,1-8.74,0,11.92,11.92,0,0,1-3.61-2.42,11.5,11.5,0,0,1-2.45-3.59,10.78,10.78,0,0,1-.92-4.43,11.08,11.08,0,0,1,.86-4.33A11.65,11.65,0,0,1,172.35,218.18Zm.87.87a10,10,0,0,0-2.95,7.12,9.7,9.7,0,0,0,.8,3.91,10.44,10.44,0,0,0,2.19,3.22,10.31,10.31,0,0,0,3.21,2.18,9.88,9.88,0,0,0,7.79,0,10.43,10.43,0,0,0,3.21-2.18,10.24,10.24,0,0,0,2.18-3.22,9.79,9.79,0,0,0,0-7.8,10.5,10.5,0,0,0-2.16-3.2,10.08,10.08,0,0,0-3.21-2.18,9.78,9.78,0,0,0-3.92-.8,10,10,0,0,0-7.14,3Zm7.14-2.55a9.15,9.15,0,0,1,3.74.78,10.24,10.24,0,0,1,3.09,2.1,9.57,9.57,0,0,1,2.1,3.08,9.56,9.56,0,0,1,0,7.47,9.84,9.84,0,0,1-2.1,3.09,9.72,9.72,0,0,1-3.09,2.1,9.56,9.56,0,0,1-7.47,0,9.88,9.88,0,0,1-5.19-5.19,9.44,9.44,0,0,1,0-7.47,9.68,9.68,0,0,1,2.08-3.08,10.15,10.15,0,0,1,3.07-2.1A9.26,9.26,0,0,1,180.36,216.5Zm0,1.24a8.14,8.14,0,0,0-3.29.67,8.62,8.62,0,0,0-2.7,1.84,8.86,8.86,0,0,0-1.8,2.7,8.32,8.32,0,0,0,0,6.54,8.52,8.52,0,0,0,1.82,2.69A8.33,8.33,0,0,0,177.1,234a8.5,8.5,0,0,0,6.52,0,8.27,8.27,0,0,0,2.7-1.81,8.52,8.52,0,0,0,1.82-2.69,8.16,8.16,0,0,0,.68-3.3,7.94,7.94,0,0,0-.68-3.24,8.92,8.92,0,0,0-1.82-2.7,8.65,8.65,0,0,0-2.68-1.84A8,8,0,0,0,180.36,217.74Z"/><path class="cls-6" d="M205.54,237.16h-11v-21.9h1.24v20.66h9.8Zm0-1.64h-9.4V215.26h1.24v19h8.16v1.24Z"/><path class="cls-6" d="M211,237.16V226.92l-8.08-11.66h1.49l7.83,11.26v10.64Zm-4.59-21.9.62.84,5.43,7.83,6.05-8.67H220l-7.54,10.82-5.9-8.49-1.64-2.33Zm7.51,19v2.88h-1.24V226.52l5.61-8.13,2.22-3.13H222l-2.19,3.1-5.9,8.56Z"/></g></g></svg>